<svg xmlns="http://www.w3.org/2000/svg" xmlns:xlink="http://www.w3.org/1999/xlink" contentStyleType="text/css" height="1866px" preserveAspectRatio="none" style="width:1452px;height:1866px;background:#FFFFFF;" version="1.1" viewBox="0 0 1452 1866" width="1452px" zoomAndPan="magnify"><title>Accel Brake Longitudinal Signal Flow</title><defs/><g><text fill="#000000" font-family="Arial" font-size="22" font-weight="bold" lengthAdjust="spacing" textLength="392.3906" x="528.6604" y="35.9956">Accel Brake Longitudinal Signal Flow</text><text fill="#000000" font-family="Arial" font-size="22" font-weight="bold" lengthAdjust="spacing" textLength="546.3799" x="451.6658" y="61.2935">(Input_Console -&gt; VCU -&gt; ESC -&gt; EHB / VSM -&gt; CLU)</text><rect fill="#FFFFFF" height="97.5957" style="stroke:#000000;stroke-width:1;" width="10" x="304.9512" y="244.8403"/><rect fill="#FFFFFF" height="419.0317" style="stroke:#000000;stroke-width:1;" width="10" x="519.3286" y="344.436"/><rect fill="#FFFFFF" height="388.7339" style="stroke:#000000;stroke-width:1;" width="10" x="742.896" y="763.4678"/><rect fill="#FFFFFF" height="222.8403" style="stroke:#000000;stroke-width:1;" width="10" x="998.5449" y="1152.2017"/><rect fill="#FFFFFF" height="130.5957" style="stroke:#000000;stroke-width:1;" width="10" x="1181.0986" y="1377.042"/><rect fill="#FFFFFF" height="125.5957" style="stroke:#000000;stroke-width:1;" width="10" x="1361.23" y="1509.6377"/><line style="stroke:#000000;stroke-width:1;" x1="64" x2="64" y1="162.8936" y2="1775.7759"/><line style="stroke:#000000;stroke-width:1;" x1="309.4163" x2="309.4163" y1="162.8936" y2="1775.7759"/><line style="stroke:#000000;stroke-width:1;" x1="523.936" x2="523.936" y1="162.8936" y2="1775.7759"/><line style="stroke:#000000;stroke-width:1;" x1="747.7034" x2="747.7034" y1="162.8936" y2="1775.7759"/><line style="stroke:#000000;stroke-width:1;" x1="1002.7961" x2="1002.7961" y1="162.8936" y2="1775.7759"/><line style="stroke:#000000;stroke-width:1;" x1="1185.2656" x2="1185.2656" y1="162.8936" y2="1775.7759"/><line style="stroke:#000000;stroke-width:1;" x1="1365.7485" x2="1365.7485" y1="162.8936" y2="1775.7759"/><text fill="#000000" font-family="Arial" font-size="11" lengthAdjust="spacing" textLength="29.3315" x="46.9373" y="148.0935">Driver</text><text fill="#000000" font-family="Arial" font-size="11" lengthAdjust="spacing" textLength="75.2061" x="24" y="160.7424">(Input Console)</text><ellipse cx="64.603" cy="85.5957" fill="#F4F7FB" rx="8" ry="8" style="stroke:#000000;stroke-width:1;"/><path d="M64.603,93.5957 L64.603,120.5957 M51.603,101.5957 L77.603,101.5957 M64.603,120.5957 L51.603,135.5957 M64.603,120.5957 L77.603,135.5957 " fill="none" style="stroke:#000000;stroke-width:1;"/><text fill="#000000" font-family="Arial" font-size="11" lengthAdjust="spacing" textLength="29.3315" x="46.9373" y="1785.2737">Driver</text><text fill="#000000" font-family="Arial" font-size="11" lengthAdjust="spacing" textLength="75.2061" x="24" y="1797.9226">(Input Console)</text><ellipse cx="64.603" cy="1809.0737" fill="#F4F7FB" rx="8" ry="8" style="stroke:#000000;stroke-width:1;"/><path d="M64.603,1817.0737 L64.603,1844.0737 M51.603,1825.0737 L77.603,1825.0737 M64.603,1844.0737 L51.603,1859.0737 M64.603,1844.0737 L77.603,1859.0737 " fill="none" style="stroke:#000000;stroke-width:1;"/><rect fill="#E8F0FE" height="39.2979" rx="2.5" ry="2.5" style="stroke:#000000;stroke-width:1;" width="135.0698" x="242.4163" y="122.5957"/><text fill="#000000" font-family="Arial" font-size="11" lengthAdjust="spacing" textLength="70.9414" x="274.4805" y="140.0935">Input_Console</text><text fill="#000000" font-family="Arial" font-size="11" lengthAdjust="spacing" textLength="121.0698" x="249.4163" y="152.7424">Vehicle &gt; Pedal + Cruise</text><rect fill="#E8F0FE" height="39.2979" rx="2.5" ry="2.5" style="stroke:#000000;stroke-width:1;" width="135.0698" x="242.4163" y="1774.7759"/><text fill="#000000" font-family="Arial" font-size="11" lengthAdjust="spacing" textLength="70.9414" x="274.4805" y="1792.2737">Input_Console</text><text fill="#000000" font-family="Arial" font-size="11" lengthAdjust="spacing" textLength="121.0698" x="249.4163" y="1804.9226">Vehicle &gt; Pedal + Cruise</text><rect fill="#E8F7E8" height="39.2979" rx="2.5" ry="2.5" style="stroke:#000000;stroke-width:1;" width="156.7852" x="445.936" y="122.5957"/><text fill="#000000" font-family="Arial" font-size="11" lengthAdjust="spacing" textLength="23.2246" x="512.7163" y="140.0935">VCU</text><text fill="#000000" font-family="Arial" font-size="11" lengthAdjust="spacing" textLength="142.7852" x="452.936" y="152.7424">manual target + speed owner</text><rect fill="#E8F7E8" height="39.2979" rx="2.5" ry="2.5" style="stroke:#000000;stroke-width:1;" width="156.7852" x="445.936" y="1774.7759"/><text fill="#000000" font-family="Arial" font-size="11" lengthAdjust="spacing" textLength="23.2246" x="512.7163" y="1792.2737">VCU</text><text fill="#000000" font-family="Arial" font-size="11" lengthAdjust="spacing" textLength="142.7852" x="452.936" y="1804.9226">manual target + speed owner</text><rect fill="#FFE6E6" height="39.2979" rx="2.5" ry="2.5" style="stroke:#000000;stroke-width:1;" width="120.3853" x="687.7034" y="122.5957"/><text fill="#000000" font-family="Arial" font-size="11" lengthAdjust="spacing" textLength="22.6177" x="736.5872" y="140.0935">ESC</text><text fill="#000000" font-family="Arial" font-size="11" lengthAdjust="spacing" textLength="106.3853" x="694.7034" y="152.7424">brake pressure owner</text><rect fill="#FFE6E6" height="39.2979" rx="2.5" ry="2.5" style="stroke:#000000;stroke-width:1;" width="120.3853" x="687.7034" y="1774.7759"/><text fill="#000000" font-family="Arial" font-size="11" lengthAdjust="spacing" textLength="22.6177" x="736.5872" y="1792.2737">ESC</text><text fill="#000000" font-family="Arial" font-size="11" lengthAdjust="spacing" textLength="106.3853" x="694.7034" y="1804.9226">brake pressure owner</text><rect fill="#FFF4CC" height="39.2979" rx="2.5" ry="2.5" style="stroke:#000000;stroke-width:1;" width="115.4976" x="945.7961" y="122.5957"/><text fill="#000000" font-family="Arial" font-size="11" lengthAdjust="spacing" textLength="22.6177" x="992.2361" y="140.0935">EHB</text><text fill="#000000" font-family="Arial" font-size="11" lengthAdjust="spacing" textLength="101.4976" x="952.7961" y="152.7424">hydraulic brake state</text><rect fill="#FFF4CC" height="39.2979" rx="2.5" ry="2.5" style="stroke:#000000;stroke-width:1;" width="115.4976" x="945.7961" y="1774.7759"/><text fill="#000000" font-family="Arial" font-size="11" lengthAdjust="spacing" textLength="22.6177" x="992.2361" y="1792.2737">EHB</text><text fill="#000000" font-family="Arial" font-size="11" lengthAdjust="spacing" textLength="101.4976" x="952.7961" y="1804.9226">hydraulic brake state</text><rect fill="#FCE8FF" height="39.2979" rx="2.5" ry="2.5" style="stroke:#000000;stroke-width:1;" width="135.666" x="1118.2656" y="122.5957"/><text fill="#000000" font-family="Arial" font-size="11" lengthAdjust="spacing" textLength="23.8369" x="1174.1802" y="140.0935">VSM</text><text fill="#000000" font-family="Arial" font-size="11" lengthAdjust="spacing" textLength="121.666" x="1125.2656" y="152.7424">stability intervention view</text><rect fill="#FCE8FF" height="39.2979" rx="2.5" ry="2.5" style="stroke:#000000;stroke-width:1;" width="135.666" x="1118.2656" y="1774.7759"/><text fill="#000000" font-family="Arial" font-size="11" lengthAdjust="spacing" textLength="23.8369" x="1174.1802" y="1792.2737">VSM</text><text fill="#000000" font-family="Arial" font-size="11" lengthAdjust="spacing" textLength="121.666" x="1125.2656" y="1804.9226">stability intervention view</text><rect fill="#E8F0FE" height="39.2979" rx="2.5" ry="2.5" style="stroke:#000000;stroke-width:1;" width="128.9629" x="1301.7485" y="122.5957"/><text fill="#000000" font-family="Arial" font-size="11" lengthAdjust="spacing" textLength="22.0054" x="1355.2273" y="140.0935">CLU</text><text fill="#000000" font-family="Arial" font-size="11" lengthAdjust="spacing" textLength="114.9629" x="1308.7485" y="152.7424">speed / brake readback</text><rect fill="#E8F0FE" height="39.2979" rx="2.5" ry="2.5" style="stroke:#000000;stroke-width:1;" width="128.9629" x="1301.7485" y="1774.7759"/><text fill="#000000" font-family="Arial" font-size="11" lengthAdjust="spacing" textLength="22.0054" x="1355.2273" y="1792.2737">CLU</text><text fill="#000000" font-family="Arial" font-size="11" lengthAdjust="spacing" textLength="114.9629" x="1308.7485" y="1804.9226">speed / brake readback</text><rect fill="#FFFFFF" height="97.5957" style="stroke:#000000;stroke-width:1;" width="10" x="304.9512" y="244.8403"/><rect fill="#FFFFFF" height="419.0317" style="stroke:#000000;stroke-width:1;" width="10" x="519.3286" y="344.436"/><rect fill="#FFFFFF" height="388.7339" style="stroke:#000000;stroke-width:1;" width="10" x="742.896" y="763.4678"/><rect fill="#FFFFFF" height="222.8403" style="stroke:#000000;stroke-width:1;" width="10" x="998.5449" y="1152.2017"/><rect fill="#FFFFFF" height="130.5957" style="stroke:#000000;stroke-width:1;" width="10" x="1181.0986" y="1377.042"/><rect fill="#FFFFFF" height="125.5957" style="stroke:#000000;stroke-width:1;" width="10" x="1361.23" y="1509.6377"/><rect fill="#FFFFFF" height="3" style="stroke:#FFFFFF;stroke-width:1;" width="1440.7114" x="5" y="192.218"/><line style="stroke:#000000;stroke-width:0.5;" x1="5" x2="1445.7114" y1="192.218" y2="192.218"/><line style="stroke:#000000;stroke-width:0.5;" x1="5" x2="1445.7114" y1="195.218" y2="195.218"/><rect fill="#FFFFFF" height="20.6489" style="stroke:#000000;stroke-width:1;" width="147.8262" x="651.4426" y="182.8936"/><text fill="#000000" font-family="Arial" font-size="11" font-weight="bold" lengthAdjust="spacing" textLength="130.77" x="657.4426" y="197.3914">Driver Longitudinal Input</text><polygon fill="#000000" points="292.9512,240.8403,302.9512,244.8403,292.9512,248.8403,296.9512,244.8403" style="stroke:#000000;stroke-width:1;"/><line style="stroke:#000000;stroke-width:1;" x1="64.603" x2="298.9512" y1="244.8403" y2="244.8403"/><text fill="#000000" font-family="Arial" font-size="11" lengthAdjust="spacing" textLength="114.313" x="127.6206" y="228.0403">Press ACCEL / BRAKE</text><text fill="#000000" font-family="Arial" font-size="11" lengthAdjust="spacing" textLength="171.2036" x="99.1753" y="240.6892">or choose speed preset / cruise set</text><line style="stroke:#000000;stroke-width:1;" x1="314.9512" x2="356.9512" y1="284.1382" y2="284.1382"/><line style="stroke:#000000;stroke-width:1;" x1="356.9512" x2="356.9512" y1="284.1382" y2="297.1382"/><line style="stroke:#000000;stroke-width:1;" x1="315.9512" x2="356.9512" y1="297.1382" y2="297.1382"/><polygon fill="#000000" points="325.9512,293.1382,315.9512,297.1382,325.9512,301.1382,321.9512,297.1382" style="stroke:#000000;stroke-width:1;"/><text fill="#000000" font-family="Arial" font-size="11" lengthAdjust="spacing" textLength="135.7114" x="321.9512" y="267.3381">Write Cmd::throttlePedalPct</text><text fill="#000000" font-family="Arial" font-size="11" lengthAdjust="spacing" textLength="129.5991" x="325.0073" y="279.9871">Write Cmd::brakePedalPct</text><line style="stroke:#000000;stroke-width:1;" x1="314.9512" x2="356.9512" y1="341.436" y2="341.436"/><line style="stroke:#000000;stroke-width:1;" x1="356.9512" x2="356.9512" y1="341.436" y2="354.436"/><line style="stroke:#000000;stroke-width:1;" x1="309.9512" x2="356.9512" y1="354.436" y2="354.436"/><polygon fill="#000000" points="319.9512,350.436,309.9512,354.436,319.9512,358.436,315.9512,354.436" style="stroke:#000000;stroke-width:1;"/><text fill="#000000" font-family="Arial" font-size="11" lengthAdjust="spacing" textLength="162.6367" x="330.8215" y="324.636">Optional Cmd::vehicleSpeedCmd</text><text fill="#000000" font-family="Arial" font-size="11" lengthAdjust="spacing" textLength="180.3774" x="321.9512" y="337.2849">Optional Powertrain::cruiseSetSpeed</text><path d="M314,362.436 L314,447.436 L542,447.436 L542,372.436 L532,362.436 L314,362.436 " fill="#FFFFFF" style="stroke:#000000;stroke-width:1;"/><path d="M532,362.436 L532,372.436 L542,372.436 L532,362.436 " fill="#FFFFFF" style="stroke:#000000;stroke-width:1;"/><text fill="#000000" font-family="Arial" font-size="11" lengthAdjust="spacing" textLength="73.3423" x="320" y="377.9338">Primary seams</text><text fill="#000000" font-family="Arial" font-size="11" lengthAdjust="spacing" textLength="113.7114" x="320" y="390.5828">- Cmd::throttlePedalPct</text><text fill="#000000" font-family="Arial" font-size="11" lengthAdjust="spacing" textLength="107.5991" x="320" y="403.2317">- Cmd::brakePedalPct</text><text fill="#000000" font-family="Arial" font-size="11" lengthAdjust="spacing" textLength="125.3291" x="320" y="415.8806">- Cmd::vehicleSpeedCmd</text><text fill="#000000" font-family="Arial" font-size="11" lengthAdjust="spacing" textLength="108.8076" x="320" y="428.5295">- Cmd::driveStateCmd</text><text fill="#000000" font-family="Arial" font-size="11" lengthAdjust="spacing" textLength="207.2651" x="320" y="441.1785">- Powertrain::cruiseState / cruiseSetSpeed</text><rect fill="#FFFFFF" height="3" style="stroke:#FFFFFF;stroke-width:1;" width="1440.7114" x="5" y="472.6541"/><line style="stroke:#000000;stroke-width:0.5;" x1="5" x2="1445.7114" y1="472.6541" y2="472.6541"/><line style="stroke:#000000;stroke-width:0.5;" x1="5" x2="1445.7114" y1="475.6541" y2="475.6541"/><rect fill="#FFFFFF" height="20.6489" style="stroke:#000000;stroke-width:1;" width="210.1685" x="620.2715" y="463.3296"/><text fill="#000000" font-family="Arial" font-size="11" font-weight="bold" lengthAdjust="spacing" textLength="193.1123" x="626.2715" y="477.8274">VCU Manual Longitudinal Ownership</text><polygon fill="#000000" points="507.3286,508.6274,517.3286,512.6274,507.3286,516.6274,511.3286,512.6274" style="stroke:#000000;stroke-width:1;"/><line style="stroke:#000000;stroke-width:1;" x1="309.9512" x2="513.3286" y1="512.6274" y2="512.6274"/><text fill="#000000" font-family="Arial" font-size="11" lengthAdjust="spacing" textLength="127.7837" x="350.748" y="508.4763">Cmd::* longitudinal seams</text><line style="stroke:#000000;stroke-width:1;" x1="529.3286" x2="571.3286" y1="551.9253" y2="551.9253"/><line style="stroke:#000000;stroke-width:1;" x1="571.3286" x2="571.3286" y1="551.9253" y2="564.9253"/><line style="stroke:#000000;stroke-width:1;" x1="530.3286" x2="571.3286" y1="564.9253" y2="564.9253"/><polygon fill="#000000" points="540.3286,560.9253,530.3286,564.9253,540.3286,568.9253,536.3286,564.9253" style="stroke:#000000;stroke-width:1;"/><text fill="#000000" font-family="Arial" font-size="11" lengthAdjust="spacing" textLength="153.479" x="536.3286" y="535.1252">latch manual drive/speed target</text><text fill="#000000" font-family="Arial" font-size="11" lengthAdjust="spacing" textLength="135.1367" x="545.4998" y="547.7742">when scenarioActiveId == 0</text><line style="stroke:#000000;stroke-width:1;" x1="529.3286" x2="571.3286" y1="604.2231" y2="604.2231"/><line style="stroke:#000000;stroke-width:1;" x1="571.3286" x2="571.3286" y1="604.2231" y2="617.2231"/><line style="stroke:#000000;stroke-width:1;" x1="530.3286" x2="571.3286" y1="617.2231" y2="617.2231"/><polygon fill="#000000" points="540.3286,613.2231,530.3286,617.2231,540.3286,621.2231,536.3286,617.2231" style="stroke:#000000;stroke-width:1;"/><text fill="#000000" font-family="Arial" font-size="11" lengthAdjust="spacing" textLength="140.626" x="536.3286" y="587.4231">owner vehicle dynamics lead</text><text fill="#000000" font-family="Arial" font-size="11" lengthAdjust="spacing" textLength="116.7944" x="548.2444" y="600.072">once pedal input arrives</text><line style="stroke:#000000;stroke-width:1;" x1="529.3286" x2="571.3286" y1="643.8721" y2="643.8721"/><line style="stroke:#000000;stroke-width:1;" x1="571.3286" x2="571.3286" y1="643.8721" y2="656.8721"/><line style="stroke:#000000;stroke-width:1;" x1="530.3286" x2="571.3286" y1="656.8721" y2="656.8721"/><polygon fill="#000000" points="540.3286,652.8721,530.3286,656.8721,540.3286,660.8721,536.3286,656.8721" style="stroke:#000000;stroke-width:1;"/><text fill="#000000" font-family="Arial" font-size="11" lengthAdjust="spacing" textLength="189.5674" x="536.3286" y="639.7209">derive engineState / driveState / speed</text><polygon fill="#000000" points="735.896,679.521,745.896,683.521,735.896,687.521,739.896,683.521" style="stroke:#000000;stroke-width:1;"/><line style="stroke:#000000;stroke-width:1;" x1="529.3286" x2="741.896" y1="683.521" y2="683.521"/><text fill="#000000" font-family="Arial" font-size="11" lengthAdjust="spacing" textLength="118.6045" x="579.3101" y="679.3699">frmVehicleStateCanMsg</text><polygon fill="#000000" points="735.896,706.1699,745.896,710.1699,735.896,714.1699,739.896,710.1699" style="stroke:#000000;stroke-width:1;"/><line style="stroke:#000000;stroke-width:1;" x1="529.3286" x2="741.896" y1="710.1699" y2="710.1699"/><text fill="#000000" font-family="Arial" font-size="11" lengthAdjust="spacing" textLength="95.3584" x="590.9331" y="706.0188">frmWheelPulseMsg</text><polygon fill="#000000" points="1174.0986,732.8188,1184.0986,736.8188,1174.0986,740.8188,1178.0986,736.8188" style="stroke:#000000;stroke-width:1;"/><line style="stroke:#000000;stroke-width:1;" x1="529.3286" x2="1180.0986" y1="736.8188" y2="736.8188"/><text fill="#000000" font-family="Arial" font-size="11" lengthAdjust="spacing" textLength="118.6045" x="798.4114" y="732.6677">frmVehicleStateCanMsg</text><polygon fill="#000000" points="1354.23,759.4678,1364.23,763.4678,1354.23,767.4678,1358.23,763.4678" style="stroke:#000000;stroke-width:1;"/><line style="stroke:#000000;stroke-width:1;" x1="524.3286" x2="1360.23" y1="763.4678" y2="763.4678"/><text fill="#000000" font-family="Arial" font-size="11" lengthAdjust="spacing" textLength="218.2866" x="836.136" y="759.3167">Chassis::vehicleSpeed / driveState readback</text><path d="M529,776.4678 L529,849.4678 L813,849.4678 L813,786.4678 L803,776.4678 L529,776.4678 " fill="#FFFFFF" style="stroke:#000000;stroke-width:1;"/><path d="M803,776.4678 L803,786.4678 L813,786.4678 L803,776.4678 " fill="#FFFFFF" style="stroke:#000000;stroke-width:1;"/><text fill="#000000" font-family="Arial" font-size="11" lengthAdjust="spacing" textLength="132.6821" x="535" y="791.9656">Representative owner logic</text><text fill="#000000" font-family="Arial" font-size="11" lengthAdjust="spacing" textLength="148.5913" x="535" y="804.6145">- gManualVehicleSpeedTarget</text><text fill="#000000" font-family="Arial" font-size="11" lengthAdjust="spacing" textLength="104.5376" x="535" y="817.2634">- manualCruiseActive</text><text fill="#000000" font-family="Arial" font-size="11" lengthAdjust="spacing" textLength="119.8398" x="535" y="829.9124">- externalSpeedOverride</text><text fill="#000000" font-family="Arial" font-size="11" lengthAdjust="spacing" textLength="263.4897" x="535" y="842.5613">- output frmVehicleStateCanMsg / frmWheelPulseMsg</text><rect fill="#FFFFFF" height="3" style="stroke:#FFFFFF;stroke-width:1;" width="1440.7114" x="5" y="874.0369"/><line style="stroke:#000000;stroke-width:0.5;" x1="5" x2="1445.7114" y1="874.0369" y2="874.0369"/><line style="stroke:#000000;stroke-width:0.5;" x1="5" x2="1445.7114" y1="877.0369" y2="877.0369"/><rect fill="#FFFFFF" height="20.6489" style="stroke:#000000;stroke-width:1;" width="183.3506" x="633.6804" y="864.7124"/><text fill="#000000" font-family="Arial" font-size="11" font-weight="bold" lengthAdjust="spacing" textLength="166.2944" x="639.6804" y="879.2102">ESC Brake Pressure Ownership</text><polygon fill="#000000" points="730.896,910.0103,740.896,914.0103,730.896,918.0103,734.896,914.0103" style="stroke:#000000;stroke-width:1;"/><line style="stroke:#000000;stroke-width:1;" x1="309.9512" x2="736.896" y1="914.0103" y2="914.0103"/><text fill="#000000" font-family="Arial" font-size="11" lengthAdjust="spacing" textLength="100.8799" x="475.9836" y="909.8591">Cmd::brakePedalPct</text><polygon fill="#000000" points="730.896,936.6592,740.896,940.6592,730.896,944.6592,734.896,940.6592" style="stroke:#000000;stroke-width:1;"/><line style="stroke:#000000;stroke-width:1;" x1="524.3286" x2="736.896" y1="940.6592" y2="940.6592"/><text fill="#000000" font-family="Arial" font-size="11" lengthAdjust="spacing" textLength="118.6045" x="574.3101" y="936.5081">frmVehicleStateCanMsg</text><line style="stroke:#000000;stroke-width:1;" x1="752.896" x2="794.896" y1="979.957" y2="979.957"/><line style="stroke:#000000;stroke-width:1;" x1="794.896" x2="794.896" y1="979.957" y2="992.957"/><line style="stroke:#000000;stroke-width:1;" x1="753.896" x2="794.896" y1="992.957" y2="992.957"/><polygon fill="#000000" points="763.896,988.957,753.896,992.957,763.896,996.957,759.896,992.957" style="stroke:#000000;stroke-width:1;"/><text fill="#000000" font-family="Arial" font-size="11" lengthAdjust="spacing" textLength="205.7612" x="759.896" y="963.157">appliedBrakePedal = Cmd::brakePedalPct</text><text fill="#000000" font-family="Arial" font-size="11" lengthAdjust="spacing" textLength="66.6499" x="829.4517" y="975.8059">manual mode</text><line style="stroke:#000000;stroke-width:1;" x1="752.896" x2="794.896" y1="1019.606" y2="1019.606"/><line style="stroke:#000000;stroke-width:1;" x1="794.896" x2="794.896" y1="1019.606" y2="1032.606"/><line style="stroke:#000000;stroke-width:1;" x1="753.896" x2="794.896" y1="1032.606" y2="1032.606"/><polygon fill="#000000" points="763.896,1028.606,753.896,1032.606,763.896,1036.606,759.896,1032.606" style="stroke:#000000;stroke-width:1;"/><text fill="#000000" font-family="Arial" font-size="11" lengthAdjust="spacing" textLength="221.6489" x="759.896" y="1015.4548">Chassis::brakePressure = appliedBrakePedal</text><line style="stroke:#000000;stroke-width:1;" x1="752.896" x2="794.896" y1="1059.2549" y2="1059.2549"/><line style="stroke:#000000;stroke-width:1;" x1="794.896" x2="794.896" y1="1059.2549" y2="1072.2549"/><line style="stroke:#000000;stroke-width:1;" x1="753.896" x2="794.896" y1="1072.2549" y2="1072.2549"/><polygon fill="#000000" points="763.896,1068.2549,753.896,1072.2549,763.896,1076.2549,759.896,1072.2549" style="stroke:#000000;stroke-width:1;"/><text fill="#000000" font-family="Arial" font-size="11" lengthAdjust="spacing" textLength="168.749" x="759.896" y="1055.1038">brakeLamp / absActive / espActive</text><polygon fill="#000000" points="991.5449,1094.9038,1001.5449,1098.9038,991.5449,1102.9038,995.5449,1098.9038" style="stroke:#000000;stroke-width:1;"/><line style="stroke:#000000;stroke-width:1;" x1="752.896" x2="997.5449" y1="1098.9038" y2="1098.9038"/><text fill="#000000" font-family="Arial" font-size="11" lengthAdjust="spacing" textLength="96.583" x="829.929" y="1094.7527">frmBrakeStatusMsg</text><polygon fill="#000000" points="1174.0986,1121.5527,1184.0986,1125.5527,1174.0986,1129.5527,1178.0986,1125.5527" style="stroke:#000000;stroke-width:1;"/><line style="stroke:#000000;stroke-width:1;" x1="752.896" x2="1180.0986" y1="1125.5527" y2="1125.5527"/><text fill="#000000" font-family="Arial" font-size="11" lengthAdjust="spacing" textLength="80.6846" x="929.155" y="1121.4016">frmEscStateMsg</text><polygon fill="#000000" points="1354.23,1148.2017,1364.23,1152.2017,1354.23,1156.2017,1358.23,1152.2017" style="stroke:#000000;stroke-width:1;"/><line style="stroke:#000000;stroke-width:1;" x1="747.896" x2="1360.23" y1="1152.2017" y2="1152.2017"/><text fill="#000000" font-family="Arial" font-size="11" lengthAdjust="spacing" textLength="237.8267" x="938.1497" y="1148.0505">Chassis::brakePressure / brakeLamp / absActive</text><path d="M752,1165.2017 L752,1238.2017 L896,1238.2017 L896,1175.2017 L886,1165.2017 L752,1165.2017 " fill="#FFFFFF" style="stroke:#000000;stroke-width:1;"/><path d="M886,1165.2017 L886,1175.2017 L896,1175.2017 L886,1165.2017 " fill="#FFFFFF" style="stroke:#000000;stroke-width:1;"/><text fill="#000000" font-family="Arial" font-size="11" lengthAdjust="spacing" textLength="87.4521" x="758" y="1180.6995">Published outputs</text><text fill="#000000" font-family="Arial" font-size="11" lengthAdjust="spacing" textLength="103.3022" x="758" y="1193.3484">- frmBrakeStatusMsg</text><text fill="#000000" font-family="Arial" font-size="11" lengthAdjust="spacing" textLength="87.4038" x="758" y="1205.9973">- frmEscStateMsg</text><text fill="#000000" font-family="Arial" font-size="11" lengthAdjust="spacing" textLength="123.4868" x="758" y="1218.6462">- Chassis::brakePressure</text><text fill="#000000" font-family="Arial" font-size="11" lengthAdjust="spacing" textLength="106.9868" x="758" y="1231.2952">- Chassis::brakeLamp</text><rect fill="#FFFFFF" height="3" style="stroke:#FFFFFF;stroke-width:1;" width="1440.7114" x="5" y="1262.7708"/><line style="stroke:#000000;stroke-width:0.5;" x1="5" x2="1445.7114" y1="1262.7708" y2="1262.7708"/><line style="stroke:#000000;stroke-width:0.5;" x1="5" x2="1445.7114" y1="1265.7708" y2="1265.7708"/><rect fill="#FFFFFF" height="20.6489" style="stroke:#000000;stroke-width:1;" width="168.6606" x="641.0254" y="1253.4463"/><text fill="#000000" font-family="Arial" font-size="11" font-weight="bold" lengthAdjust="spacing" textLength="151.6045" x="647.0254" y="1267.9441">Brake / Stability Downstream</text><polygon fill="#000000" points="986.5449,1298.7441,996.5449,1302.7441,986.5449,1306.7441,990.5449,1302.7441" style="stroke:#000000;stroke-width:1;"/><line style="stroke:#000000;stroke-width:1;" x1="747.896" x2="992.5449" y1="1302.7441" y2="1302.7441"/><text fill="#000000" font-family="Arial" font-size="11" lengthAdjust="spacing" textLength="96.583" x="824.929" y="1298.593">frmBrakeStatusMsg</text><line style="stroke:#000000;stroke-width:1;" x1="1008.5449" x2="1050.5449" y1="1329.3931" y2="1329.3931"/><line style="stroke:#000000;stroke-width:1;" x1="1050.5449" x2="1050.5449" y1="1329.3931" y2="1342.3931"/><line style="stroke:#000000;stroke-width:1;" x1="1009.5449" x2="1050.5449" y1="1342.3931" y2="1342.3931"/><polygon fill="#000000" points="1019.5449,1338.3931,1009.5449,1342.3931,1019.5449,1346.3931,1015.5449,1342.3931" style="stroke:#000000;stroke-width:1;"/><text fill="#000000" font-family="Arial" font-size="11" lengthAdjust="spacing" textLength="148.5537" x="1015.5449" y="1325.2419">derive pressureCmd / ctrlState</text><line style="stroke:#000000;stroke-width:1;" x1="1008.5449" x2="1050.5449" y1="1374.042" y2="1374.042"/><line style="stroke:#000000;stroke-width:1;" x1="1050.5449" x2="1050.5449" y1="1374.042" y2="1387.042"/><line style="stroke:#000000;stroke-width:1;" x1="1003.5449" x2="1050.5449" y1="1387.042" y2="1387.042"/><polygon fill="#000000" points="1013.5449,1383.042,1003.5449,1387.042,1013.5449,1391.042,1009.5449,1387.042" style="stroke:#000000;stroke-width:1;"/><text fill="#000000" font-family="Arial" font-size="11" lengthAdjust="spacing" textLength="115.5591" x="1015.5449" y="1369.8909">output frmEhbStateMsg</text><polygon fill="#000000" points="1169.0986,1404.6909,1179.0986,1408.6909,1169.0986,1412.6909,1173.0986,1408.6909" style="stroke:#000000;stroke-width:1;"/><line style="stroke:#000000;stroke-width:1;" x1="747.896" x2="1175.0986" y1="1408.6909" y2="1408.6909"/><text fill="#000000" font-family="Arial" font-size="11" lengthAdjust="spacing" textLength="80.6846" x="924.155" y="1404.5398">frmEscStateMsg</text><polygon fill="#000000" points="1169.0986,1431.3398,1179.0986,1435.3398,1169.0986,1439.3398,1173.0986,1435.3398" style="stroke:#000000;stroke-width:1;"/><line style="stroke:#000000;stroke-width:1;" x1="524.3286" x2="1175.0986" y1="1435.3398" y2="1435.3398"/><text fill="#000000" font-family="Arial" font-size="11" lengthAdjust="spacing" textLength="118.6045" x="793.4114" y="1431.1887">frmVehicleStateCanMsg</text><line style="stroke:#000000;stroke-width:1;" x1="1191.0986" x2="1233.0986" y1="1461.9888" y2="1461.9888"/><line style="stroke:#000000;stroke-width:1;" x1="1233.0986" x2="1233.0986" y1="1461.9888" y2="1474.9888"/><line style="stroke:#000000;stroke-width:1;" x1="1192.0986" x2="1233.0986" y1="1474.9888" y2="1474.9888"/><polygon fill="#000000" points="1202.0986,1470.9888,1192.0986,1474.9888,1202.0986,1478.9888,1198.0986,1474.9888" style="stroke:#000000;stroke-width:1;"/><text fill="#000000" font-family="Arial" font-size="11" lengthAdjust="spacing" textLength="146.1313" x="1198.0986" y="1457.8376">derive intervention / alert level</text><line style="stroke:#000000;stroke-width:1;" x1="1191.0986" x2="1233.0986" y1="1506.6377" y2="1506.6377"/><line style="stroke:#000000;stroke-width:1;" x1="1233.0986" x2="1233.0986" y1="1506.6377" y2="1519.6377"/><line style="stroke:#000000;stroke-width:1;" x1="1186.0986" x2="1233.0986" y1="1519.6377" y2="1519.6377"/><polygon fill="#000000" points="1196.0986,1515.6377,1186.0986,1519.6377,1196.0986,1523.6377,1192.0986,1519.6377" style="stroke:#000000;stroke-width:1;"/><text fill="#000000" font-family="Arial" font-size="11" lengthAdjust="spacing" textLength="117.9868" x="1198.0986" y="1502.4866">output frmVsmStateMsg</text><rect fill="#FFFFFF" height="3" style="stroke:#FFFFFF;stroke-width:1;" width="1440.7114" x="5" y="1541.9622"/><line style="stroke:#000000;stroke-width:0.5;" x1="5" x2="1445.7114" y1="1541.9622" y2="1541.9622"/><line style="stroke:#000000;stroke-width:0.5;" x1="5" x2="1445.7114" y1="1544.9622" y2="1544.9622"/><rect fill="#FFFFFF" height="20.6489" style="stroke:#000000;stroke-width:1;" width="103.2461" x="673.7327" y="1532.6377"/><text fill="#000000" font-family="Arial" font-size="11" font-weight="bold" lengthAdjust="spacing" textLength="86.1899" x="679.7327" y="1547.1355">Visible Outcome</text><polygon fill="#000000" points="1349.23,1577.9355,1359.23,1581.9355,1349.23,1585.9355,1353.23,1581.9355" style="stroke:#000000;stroke-width:1;"/><line style="stroke:#000000;stroke-width:1;" x1="524.3286" x2="1355.23" y1="1581.9355" y2="1581.9355"/><text fill="#000000" font-family="Arial" font-size="11" lengthAdjust="spacing" textLength="111.2837" x="887.1375" y="1577.7844">Chassis::vehicleSpeed</text><polygon fill="#000000" points="1349.23,1604.5845,1359.23,1608.5845,1349.23,1612.5845,1353.23,1608.5845" style="stroke:#000000;stroke-width:1;"/><line style="stroke:#000000;stroke-width:1;" x1="747.896" x2="1355.23" y1="1608.5845" y2="1608.5845"/><text fill="#000000" font-family="Arial" font-size="11" lengthAdjust="spacing" textLength="116.7676" x="996.1792" y="1604.4333">Chassis::brakePressure</text><polygon fill="#000000" points="320.9512,1631.2334,310.9512,1635.2334,320.9512,1639.2334,316.9512,1635.2334" style="stroke:#000000;stroke-width:1;"/><line style="stroke:#000000;stroke-width:1;" x1="314.9512" x2="1365.23" y1="1635.2334" y2="1635.2334"/><text fill="#000000" font-family="Arial" font-size="11" lengthAdjust="spacing" textLength="114.9629" x="780.6091" y="1631.0823">speed / brake readback</text><polygon fill="#000000" points="75.603,1643.2334,65.603,1647.2334,75.603,1651.2334,71.603,1647.2334" style="stroke:#000000;stroke-width:1;"/><line style="stroke:#000000;stroke-width:1;" x1="69.603" x2="308.9512" y1="1647.2334" y2="1647.2334"/><text fill="#000000" font-family="Arial" font-size="11" lengthAdjust="spacing" textLength="221.3481" x="76.603" y="1658.7312">Speed, meter, brake response move together</text><path d="M10,1674.8823 L10,1759.8823 L1421,1759.8823 L1421,1684.8823 L1411,1674.8823 L10,1674.8823 " fill="#FFFFFF" style="stroke:#000000;stroke-width:1;"/><path d="M1411,1674.8823 L1411,1684.8823 L1421,1684.8823 L1411,1674.8823 " fill="#FFFFFF" style="stroke:#000000;stroke-width:1;"/><text fill="#000000" font-family="Arial" font-size="11" lengthAdjust="spacing" textLength="143.0752" x="564.0078" y="1690.3801">Representative runtime chain</text><text fill="#000000" font-family="Arial" font-size="11" lengthAdjust="spacing" textLength="286.1396" x="564.0078" y="1703.0291">1. Driver sets accel / brake / speed aid from Input_Console</text><text fill="#000000" font-family="Arial" font-size="11" lengthAdjust="spacing" textLength="207.2544" x="564.0078" y="1715.678">2. VCU owns speed / drive-state dynamics</text><text fill="#000000" font-family="Arial" font-size="11" lengthAdjust="spacing" textLength="224.3936" x="564.0078" y="1728.3269">3. ESC owns brake pressure and brake status</text><text fill="#000000" font-family="Arial" font-size="11" lengthAdjust="spacing" textLength="294.6958" x="564.0078" y="1740.9758">4. EHB and VSM consume brake / vehicle state downstream</text><text fill="#000000" font-family="Arial" font-size="11" lengthAdjust="spacing" textLength="270.2842" x="564.0078" y="1753.6248">5. CLU and Input_Console show speed/brake readback</text><!--SRC=[ZLPHRzis47xNhxWbB-iMsysMjOKn5x1L6oaMBqQrfYy61bfYB28IgPAKlUpNxuwKP4bMr-H5CNbt_EwxxuxymQOyvr1aJCZ0F0bPCCrosB7uQQzLAPDGPKh3vShzjImI_iZApAwKj7yoZ33NWcN3-v7ubyFrTMlJyAybbp5VSsFOdiypiPSGSscvRbbfRWebJMsru9awphLMHx2wv45WXStmu3Zc6ImqU-9mf-HUs38HacKGOL3yhD1hAt_yA8lI_XrYF8LEe_Vm47wcpp8AtUTs0HDuYDRq8xpx_2e8M6mnyuiFMXouhYD05U7L1J03VW_PkLczNIq2X6r5B0ecBLnq3jpA1vwA64z-3nkU8AoV8TIbCDp5sJ29ELmktwrUhvRTC0XpAtCcI_InJE-vHLTJS9w0EagkdJ_bGjvlb- -wtfZTLkuSDmNIQKhDMswKErPs-MRvfkTskzZAz3dHM48HWmzWBBCUBf55YhW9mnxOQBsLQBSJcR3F8AYW1oohK18EWXyzM2JvSXKYt5NN6sb7RvVQf3fJSvQG5fqZxZSS1RDPpNwdwBv8iraGLBjOJi_k53R40Cp3S7c71om-pVzORYMME4wLChmYbMX2ZYSGk_AWL2qfGHmmUHyfyF5QWRzeWPjXdaodDjNAeYnTaJUntShMfikftZaFSryGKPY4CpvumKI42XUsijdUg2FNLcF7JgSUPSIjimkamhEqsASMr6CDLukSwMVCXEKc60tZhDUx44U3KEhbX1YEI1L-SG0NRJPSDYYvJ82G1WdlKKjb9J6llU0xfRqdtPfK5AwyZIEQdwWatwb7znDaRM-VVTNqtYnZDawXwYsNpCHhmFVPLXvJBi7WN69Qg3aTo3ycU3gyxWPo7GKLIv0yIvQBs426uaM1uPo3mlMySE9acexgOKauBG97nBAXxKGm_d3GWjRKciAZpgknugl0vDhipqo-f9ndcpB3GNhQfIRyJW1gD-GoPSO8qnL15rlTf3trKM4-STTF4kqeFKzKflOYHhtiVPKVMe7_SipZdg-A7v6UULpa_-0ymM8wqtliRYqIMbUb9M87iq6ePnmCwO_Galg8Dd-PREg1-GtXeUL9U9xjWHPwGS7gAyYPiAB814yMJH2O3OHjheHS8GET04t1l4ETnEmySjVFcT-nl436sCvuql5_l8Ih0hIkIfUAYqI9bAQLHgEifObTbgszdgIw22V347ggSgoNkqoObAv0LtcQQkTuHdqGes-SVBP140P5GeUJIBn09X0rLzq7bBQns0bvJoItY-_oXklDTZK7wiiQAq_Zq-hCPT6rFSb-cUwQBDjmyV3Me8pM_rkZbqm6_pxo9XNKpYMFTSlm3i3HTy1ftZ5lDQd9Xz0IFZV_XH4xdAFtfOqLlYmxVAA2NZ2VNgAtW3PRj-_mmwCDaCwkdnM_Znf7T-8Lv1nvk6hS_TCL-nCfiWg7MeflMwzbHG5yd2iNj3SbTObaOk9nIe_owt7zqC6dY07cdhirpEfQ02OIP5Rbq7br1h-CtVL2scpoSuDxv1vppLKL_3fsKy0PzfwB3FlWz00iJN0pTlgZTQfiZ6ULYBO6L5-3rGbDNmI_ZLqzoA_x63SfFkaTl4cF_AO7_mC0]--></g></svg>