<svg xmlns="http://www.w3.org/2000/svg" xmlns:xlink="http://www.w3.org/1999/xlink" contentStyleType="text/css" height="1512px" preserveAspectRatio="none" style="width:1656px;height:1512px;background:#FFFFFF;" version="1.1" viewBox="0 0 1656 1512" width="1656px" zoomAndPan="magnify"><title>AEB Brake Assist Signal Flow</title><defs/><g><text fill="#000000" font-family="Arial" font-size="22" font-weight="bold" lengthAdjust="spacing" textLength="314.1982" x="669.5735" y="35.9956">AEB Brake Assist Signal Flow</text><text fill="#000000" font-family="Arial" font-size="22" font-weight="bold" lengthAdjust="spacing" textLength="562.9443" x="545.2004" y="61.2935">(ADAS / FCA -&gt; AEB -&gt; ESC / EHB / VSM -&gt; brake feel)</text><rect fill="#FFFFFF" height="295.7871" style="stroke:#000000;stroke-width:1;" width="10" x="361.3503" y="250.7871"/><rect fill="#FFFFFF" height="269.4893" style="stroke:#000000;stroke-width:1;" width="10" x="618.5139" y="546.5742"/><rect fill="#FFFFFF" height="235.8403" style="stroke:#000000;stroke-width:1;" width="10" x="1014.3108" y="816.0635"/><rect fill="#FFFFFF" height="160.5425" style="stroke:#000000;stroke-width:1;" width="10" x="1318.2136" y="1053.9038"/><line style="stroke:#000000;stroke-width:1;" x1="84" x2="84" y1="116.8936" y2="1468.5845"/><line style="stroke:#000000;stroke-width:1;" x1="366.1631" x2="366.1631" y1="116.8936" y2="1468.5845"/><line style="stroke:#000000;stroke-width:1;" x1="622.6936" x2="622.6936" y1="116.8936" y2="1468.5845"/><line style="stroke:#000000;stroke-width:1;" x1="1018.9778" x2="1018.9778" y1="116.8936" y2="1468.5845"/><line style="stroke:#000000;stroke-width:1;" x1="1322.3833" x2="1322.3833" y1="116.8936" y2="1468.5845"/><line style="stroke:#000000;stroke-width:1;" x1="1581.46" x2="1581.46" y1="116.8936" y2="1468.5845"/><rect fill="#FCE8FF" height="39.2979" rx="2.5" ry="2.5" style="stroke:#000000;stroke-width:1;" width="128.6353" x="20" y="76.5957"/><text fill="#000000" font-family="Arial" font-size="11" lengthAdjust="spacing" textLength="61.123" x="53.7561" y="94.0935">ADAS / FCA</text><text fill="#000000" font-family="Arial" font-size="11" lengthAdjust="spacing" textLength="114.6353" x="27" y="106.7424">risk + warning producer</text><rect fill="#FCE8FF" height="39.2979" rx="2.5" ry="2.5" style="stroke:#000000;stroke-width:1;" width="128.6353" x="20" y="1467.5845"/><text fill="#000000" font-family="Arial" font-size="11" lengthAdjust="spacing" textLength="61.123" x="53.7561" y="1485.0823">ADAS / FCA</text><text fill="#000000" font-family="Arial" font-size="11" lengthAdjust="spacing" textLength="114.6353" x="27" y="1497.7312">risk + warning producer</text><rect fill="#FFE6E6" height="39.2979" rx="2.5" ry="2.5" style="stroke:#000000;stroke-width:1;" width="98.3745" x="317.1631" y="76.5957"/><text fill="#000000" font-family="Arial" font-size="11" lengthAdjust="spacing" textLength="22.0107" x="355.345" y="94.0935">AEB</text><text fill="#000000" font-family="Arial" font-size="11" lengthAdjust="spacing" textLength="84.3745" x="324.1631" y="106.7424">domain controller</text><rect fill="#FFE6E6" height="39.2979" rx="2.5" ry="2.5" style="stroke:#000000;stroke-width:1;" width="98.3745" x="317.1631" y="1467.5845"/><text fill="#000000" font-family="Arial" font-size="11" lengthAdjust="spacing" textLength="22.0107" x="355.345" y="1485.0823">AEB</text><text fill="#000000" font-family="Arial" font-size="11" lengthAdjust="spacing" textLength="84.3745" x="324.1631" y="1497.7312">domain controller</text><rect fill="#FFF4CC" height="39.2979" rx="2.5" ry="2.5" style="stroke:#000000;stroke-width:1;" width="139.6406" x="553.6936" y="76.5957"/><text fill="#000000" font-family="Arial" font-size="11" lengthAdjust="spacing" textLength="22.6177" x="612.2051" y="94.0935">ESC</text><text fill="#000000" font-family="Arial" font-size="11" lengthAdjust="spacing" textLength="125.6406" x="560.6936" y="106.7424">assist floor + brake owner</text><rect fill="#FFF4CC" height="39.2979" rx="2.5" ry="2.5" style="stroke:#000000;stroke-width:1;" width="139.6406" x="553.6936" y="1467.5845"/><text fill="#000000" font-family="Arial" font-size="11" lengthAdjust="spacing" textLength="22.6177" x="612.2051" y="1485.0823">ESC</text><text fill="#000000" font-family="Arial" font-size="11" lengthAdjust="spacing" textLength="125.6406" x="560.6936" y="1497.7312">assist floor + brake owner</text><rect fill="#E8F7E8" height="39.2979" rx="2.5" ry="2.5" style="stroke:#000000;stroke-width:1;" width="124.666" x="956.9778" y="76.5957"/><text fill="#000000" font-family="Arial" font-size="11" lengthAdjust="spacing" textLength="22.6177" x="1008.002" y="94.0935">EHB</text><text fill="#000000" font-family="Arial" font-size="11" lengthAdjust="spacing" textLength="110.666" x="963.9778" y="106.7424">hydraulic pressure leaf</text><rect fill="#E8F7E8" height="39.2979" rx="2.5" ry="2.5" style="stroke:#000000;stroke-width:1;" width="124.666" x="956.9778" y="1467.5845"/><text fill="#000000" font-family="Arial" font-size="11" lengthAdjust="spacing" textLength="22.6177" x="1008.002" y="1485.0823">EHB</text><text fill="#000000" font-family="Arial" font-size="11" lengthAdjust="spacing" textLength="110.666" x="963.9778" y="1497.7312">hydraulic pressure leaf</text><rect fill="#E8F0FE" height="39.2979" rx="2.5" ry="2.5" style="stroke:#000000;stroke-width:1;" width="91.6606" x="1277.3833" y="76.5957"/><text fill="#000000" font-family="Arial" font-size="11" lengthAdjust="spacing" textLength="23.8369" x="1311.2952" y="94.0935">VSM</text><text fill="#000000" font-family="Arial" font-size="11" lengthAdjust="spacing" textLength="77.6606" x="1284.3833" y="106.7424">intervention leaf</text><rect fill="#E8F0FE" height="39.2979" rx="2.5" ry="2.5" style="stroke:#000000;stroke-width:1;" width="91.6606" x="1277.3833" y="1467.5845"/><text fill="#000000" font-family="Arial" font-size="11" lengthAdjust="spacing" textLength="23.8369" x="1311.2952" y="1485.0823">VSM</text><text fill="#000000" font-family="Arial" font-size="11" lengthAdjust="spacing" textLength="77.6606" x="1284.3833" y="1497.7312">intervention leaf</text><rect fill="#F4F7FB" height="39.2979" rx="2.5" ry="2.5" style="stroke:#000000;stroke-width:1;" width="92.8853" x="1535.46" y="76.5957"/><text fill="#000000" font-family="Arial" font-size="11" lengthAdjust="spacing" textLength="60.5054" x="1551.6499" y="94.0935">Driver / CLU</text><text fill="#000000" font-family="Arial" font-size="11" lengthAdjust="spacing" textLength="78.8853" x="1542.46" y="106.7424">felt brake output</text><rect fill="#F4F7FB" height="39.2979" rx="2.5" ry="2.5" style="stroke:#000000;stroke-width:1;" width="92.8853" x="1535.46" y="1467.5845"/><text fill="#000000" font-family="Arial" font-size="11" lengthAdjust="spacing" textLength="60.5054" x="1551.6499" y="1485.0823">Driver / CLU</text><text fill="#000000" font-family="Arial" font-size="11" lengthAdjust="spacing" textLength="78.8853" x="1542.46" y="1497.7312">felt brake output</text><rect fill="#FFFFFF" height="295.7871" style="stroke:#000000;stroke-width:1;" width="10" x="361.3503" y="250.7871"/><rect fill="#FFFFFF" height="269.4893" style="stroke:#000000;stroke-width:1;" width="10" x="618.5139" y="546.5742"/><rect fill="#FFFFFF" height="235.8403" style="stroke:#000000;stroke-width:1;" width="10" x="1014.3108" y="816.0635"/><rect fill="#FFFFFF" height="160.5425" style="stroke:#000000;stroke-width:1;" width="10" x="1318.2136" y="1053.9038"/><rect fill="#FFFFFF" height="3" style="stroke:#FFFFFF;stroke-width:1;" width="1644.3452" x="5" y="146.218"/><line style="stroke:#000000;stroke-width:0.5;" x1="5" x2="1649.3452" y1="146.218" y2="146.218"/><line style="stroke:#000000;stroke-width:0.5;" x1="5" x2="1649.3452" y1="149.218" y2="149.218"/><rect fill="#FFFFFF" height="20.6489" style="stroke:#000000;stroke-width:1;" width="121.5562" x="766.3945" y="136.8936"/><text fill="#000000" font-family="Arial" font-size="11" font-weight="bold" lengthAdjust="spacing" textLength="104.5" x="772.3945" y="151.3914">Risk And Path Input</text><polygon fill="#000000" points="354.3503,207.4893,364.3503,211.4893,354.3503,215.4893,358.3503,211.4893" style="stroke:#000000;stroke-width:1;"/><line style="stroke:#000000;stroke-width:1;" x1="84.3176" x2="360.3503" y1="211.4893" y2="211.4893"/><text fill="#000000" font-family="Arial" font-size="11" lengthAdjust="spacing" textLength="80.6846" x="184.9917" y="182.0403">frmFcaStateMsg</text><text fill="#000000" font-family="Arial" font-size="11" lengthAdjust="spacing" textLength="202.3667" x="124.1506" y="194.6892">FcwState / AebRequest / DecelAssistReq</text><text fill="#000000" font-family="Arial" font-size="11" lengthAdjust="spacing" textLength="239.6475" x="105.5103" y="207.3381">ObjectRiskClass / TtcBucket / SelectedAlertLevel</text><polygon fill="#000000" points="349.3503,246.7871,359.3503,250.7871,349.3503,254.7871,353.3503,250.7871" style="stroke:#000000;stroke-width:1;"/><line style="stroke:#000000;stroke-width:1;" x1="84.3176" x2="355.3503" y1="250.7871" y2="250.7871"/><text fill="#000000" font-family="Arial" font-size="11" lengthAdjust="spacing" textLength="125.3237" x="160.1721" y="233.9871">frmAdasDomainStateMsg</text><text fill="#000000" font-family="Arial" font-size="11" lengthAdjust="spacing" textLength="258.0327" x="93.8176" y="246.636">WarningPathStatus / E2eHealthState / FailSafeMode</text><rect fill="#FFFFFF" height="3" style="stroke:#FFFFFF;stroke-width:1;" width="1644.3452" x="5" y="278.1116"/><line style="stroke:#000000;stroke-width:0.5;" x1="5" x2="1649.3452" y1="278.1116" y2="278.1116"/><line style="stroke:#000000;stroke-width:0.5;" x1="5" x2="1649.3452" y1="281.1116" y2="281.1116"/><rect fill="#FFFFFF" height="20.6489" style="stroke:#000000;stroke-width:1;" width="126.4546" x="763.9453" y="268.7871"/><text fill="#000000" font-family="Arial" font-size="11" font-weight="bold" lengthAdjust="spacing" textLength="109.3984" x="769.9453" y="283.2849">AEB Domain Publish</text><line style="stroke:#000000;stroke-width:1;" x1="371.3503" x2="413.3503" y1="318.085" y2="318.085"/><line style="stroke:#000000;stroke-width:1;" x1="413.3503" x2="413.3503" y1="318.085" y2="331.085"/><line style="stroke:#000000;stroke-width:1;" x1="372.3503" x2="413.3503" y1="331.085" y2="331.085"/><polygon fill="#000000" points="382.3503,327.085,372.3503,331.085,382.3503,335.085,378.3503,331.085" style="stroke:#000000;stroke-width:1;"/><text fill="#000000" font-family="Arial" font-size="11" lengthAdjust="spacing" textLength="125.3452" x="378.3503" y="313.9338">publishAebDomainState()</text><line style="stroke:#000000;stroke-width:1;" x1="371.3503" x2="413.3503" y1="357.7339" y2="357.7339"/><line style="stroke:#000000;stroke-width:1;" x1="413.3503" x2="413.3503" y1="357.7339" y2="370.7339"/><line style="stroke:#000000;stroke-width:1;" x1="372.3503" x2="413.3503" y1="370.7339" y2="370.7339"/><polygon fill="#000000" points="382.3503,366.7339,372.3503,370.7339,382.3503,374.7339,378.3503,370.7339" style="stroke:#000000;stroke-width:1;"/><text fill="#000000" font-family="Arial" font-size="11" lengthAdjust="spacing" textLength="223.1636" x="378.3503" y="353.5828">derive StopReq / DecelProfile / DomainHealth</text><path d="M376,383.7339 L376,468.7339 L523,468.7339 L523,393.7339 L513,383.7339 L376,383.7339 " fill="#FFFFFF" style="stroke:#000000;stroke-width:1;"/><path d="M513,383.7339 L513,393.7339 L523,393.7339 L513,383.7339 " fill="#FFFFFF" style="stroke:#000000;stroke-width:1;"/><text fill="#000000" font-family="Arial" font-size="11" lengthAdjust="spacing" textLength="120.4521" x="382" y="399.2317">Published every 100 ms:</text><text fill="#000000" font-family="Arial" font-size="11" lengthAdjust="spacing" textLength="126.543" x="382" y="411.8806">- frmAebDomainStateMsg</text><text fill="#000000" font-family="Arial" font-size="11" lengthAdjust="spacing" textLength="58.6899" x="382" y="424.5295">- AebArmed</text><text fill="#000000" font-family="Arial" font-size="11" lengthAdjust="spacing" textLength="49.5269" x="382" y="437.1785">- StopReq</text><text fill="#000000" font-family="Arial" font-size="11" lengthAdjust="spacing" textLength="87.4253" x="382" y="449.8274">- DecelProfile 0..3</text><text fill="#000000" font-family="Arial" font-size="11" lengthAdjust="spacing" textLength="97.8237" x="382" y="462.4763">- DomainHealth 0..3</text><polygon fill="#000000" points="611.5139,489.2764,621.5139,493.2764,611.5139,497.2764,615.5139,493.2764" style="stroke:#000000;stroke-width:1;"/><line style="stroke:#000000;stroke-width:1;" x1="371.3503" x2="617.5139" y1="493.2764" y2="493.2764"/><text fill="#000000" font-family="Arial" font-size="11" lengthAdjust="spacing" textLength="119.8237" x="437.5203" y="489.1252">frmAebDomainStateMsg</text><polygon fill="#000000" points="1007.3108,515.9253,1017.3108,519.9253,1007.3108,523.9253,1011.3108,519.9253" style="stroke:#000000;stroke-width:1;"/><line style="stroke:#000000;stroke-width:1;" x1="371.3503" x2="1013.3108" y1="519.9253" y2="519.9253"/><text fill="#000000" font-family="Arial" font-size="11" lengthAdjust="spacing" textLength="119.8237" x="635.4187" y="515.7742">frmAebDomainStateMsg</text><polygon fill="#000000" points="1311.2136,542.5742,1321.2136,546.5742,1311.2136,550.5742,1315.2136,546.5742" style="stroke:#000000;stroke-width:1;"/><line style="stroke:#000000;stroke-width:1;" x1="366.3503" x2="1317.2136" y1="546.5742" y2="546.5742"/><text fill="#000000" font-family="Arial" font-size="11" lengthAdjust="spacing" textLength="119.8237" x="784.8701" y="542.4231">frmAebDomainStateMsg</text><rect fill="#FFFFFF" height="3" style="stroke:#FFFFFF;stroke-width:1;" width="1644.3452" x="5" y="573.8987"/><line style="stroke:#000000;stroke-width:0.5;" x1="5" x2="1649.3452" y1="573.8987" y2="573.8987"/><line style="stroke:#000000;stroke-width:0.5;" x1="5" x2="1649.3452" y1="576.8987" y2="576.8987"/><rect fill="#FFFFFF" height="20.6489" style="stroke:#000000;stroke-width:1;" width="152.7998" x="750.7727" y="564.5742"/><text fill="#000000" font-family="Arial" font-size="11" font-weight="bold" lengthAdjust="spacing" textLength="135.7437" x="756.7727" y="579.072">ESC Brake Assist Overlay</text><line style="stroke:#000000;stroke-width:1;" x1="628.5139" x2="670.5139" y1="613.8721" y2="613.8721"/><line style="stroke:#000000;stroke-width:1;" x1="670.5139" x2="670.5139" y1="613.8721" y2="626.8721"/><line style="stroke:#000000;stroke-width:1;" x1="629.5139" x2="670.5139" y1="626.8721" y2="626.8721"/><polygon fill="#000000" points="639.5139,622.8721,629.5139,626.8721,639.5139,630.8721,635.5139,626.8721" style="stroke:#000000;stroke-width:1;"/><text fill="#000000" font-family="Arial" font-size="11" lengthAdjust="spacing" textLength="154.0376" x="635.5139" y="609.7209">deriveEscAssistPressureFloor()</text><path d="M633,639.8721 L633,712.8721 L744,712.8721 L744,649.8721 L734,639.8721 L633,639.8721 " fill="#FFFFFF" style="stroke:#000000;stroke-width:1;"/><path d="M734,639.8721 L734,649.8721 L744,649.8721 L734,639.8721 " fill="#FFFFFF" style="stroke:#000000;stroke-width:1;"/><text fill="#000000" font-family="Arial" font-size="11" lengthAdjust="spacing" textLength="59.2969" x="639" y="655.3699">Floor policy:</text><text fill="#000000" font-family="Arial" font-size="11" lengthAdjust="spacing" textLength="90.5029" x="639" y="668.0188">- StopReq=1 -&gt; 55</text><text fill="#000000" font-family="Arial" font-size="11" lengthAdjust="spacing" textLength="78.8745" x="639" y="680.6677">- Profile=3 -&gt; 45</text><text fill="#000000" font-family="Arial" font-size="11" lengthAdjust="spacing" textLength="78.8745" x="639" y="693.3167">- Profile=2 -&gt; 35</text><text fill="#000000" font-family="Arial" font-size="11" lengthAdjust="spacing" textLength="78.8745" x="639" y="705.9656">- Profile=1 -&gt; 25</text><line style="stroke:#000000;stroke-width:1;" x1="628.5139" x2="670.5139" y1="736.7656" y2="736.7656"/><line style="stroke:#000000;stroke-width:1;" x1="670.5139" x2="670.5139" y1="736.7656" y2="749.7656"/><line style="stroke:#000000;stroke-width:1;" x1="629.5139" x2="670.5139" y1="749.7656" y2="749.7656"/><polygon fill="#000000" points="639.5139,745.7656,629.5139,749.7656,639.5139,753.7656,635.5139,749.7656" style="stroke:#000000;stroke-width:1;"/><text fill="#000000" font-family="Arial" font-size="11" lengthAdjust="spacing" textLength="249.1489" x="635.5139" y="732.6145">appliedBrakePedal = max(driver pedal, assist floor)</text><line style="stroke:#000000;stroke-width:1;" x1="628.5139" x2="670.5139" y1="776.4146" y2="776.4146"/><line style="stroke:#000000;stroke-width:1;" x1="670.5139" x2="670.5139" y1="776.4146" y2="789.4146"/><line style="stroke:#000000;stroke-width:1;" x1="629.5139" x2="670.5139" y1="789.4146" y2="789.4146"/><polygon fill="#000000" points="639.5139,785.4146,629.5139,789.4146,639.5139,793.4146,635.5139,789.4146" style="stroke:#000000;stroke-width:1;"/><text fill="#000000" font-family="Arial" font-size="11" lengthAdjust="spacing" textLength="361.7969" x="635.5139" y="772.2634">@Chassis::brakePressure / @Chassis::brakeLamp / @Chassis::absActive</text><polygon fill="#000000" points="1002.3108,812.0635,1012.3108,816.0635,1002.3108,820.0635,1006.3108,816.0635" style="stroke:#000000;stroke-width:1;"/><line style="stroke:#000000;stroke-width:1;" x1="623.5139" x2="1008.3108" y1="816.0635" y2="816.0635"/><text fill="#000000" font-family="Arial" font-size="11" lengthAdjust="spacing" textLength="96.583" x="770.6208" y="811.9124">frmBrakeStatusMsg</text><rect fill="#FFFFFF" height="3" style="stroke:#FFFFFF;stroke-width:1;" width="1644.3452" x="5" y="843.3879"/><line style="stroke:#000000;stroke-width:0.5;" x1="5" x2="1649.3452" y1="843.3879" y2="843.3879"/><line style="stroke:#000000;stroke-width:0.5;" x1="5" x2="1649.3452" y1="846.3879" y2="846.3879"/><rect fill="#FFFFFF" height="20.6489" style="stroke:#000000;stroke-width:1;" width="115.4653" x="769.4399" y="834.0635"/><text fill="#000000" font-family="Arial" font-size="11" font-weight="bold" lengthAdjust="spacing" textLength="98.4092" x="775.4399" y="848.5613">Leaf ECU Reaction</text><line style="stroke:#000000;stroke-width:1;" x1="1024.3108" x2="1066.3108" y1="883.3613" y2="883.3613"/><line style="stroke:#000000;stroke-width:1;" x1="1066.3108" x2="1066.3108" y1="883.3613" y2="896.3613"/><line style="stroke:#000000;stroke-width:1;" x1="1025.3108" x2="1066.3108" y1="896.3613" y2="896.3613"/><polygon fill="#000000" points="1035.3108,892.3613,1025.3108,896.3613,1035.3108,900.3613,1031.3108,896.3613" style="stroke:#000000;stroke-width:1;"/><text fill="#000000" font-family="Arial" font-size="11" lengthAdjust="spacing" textLength="124.0991" x="1031.3108" y="879.2102">deriveAebPressureCmd()</text><path d="M1029,909.3613 L1029,982.3613 L1146,982.3613 L1146,919.3613 L1136,909.3613 L1029,909.3613 " fill="#FFFFFF" style="stroke:#000000;stroke-width:1;"/><path d="M1136,909.3613 L1136,919.3613 L1146,919.3613 L1136,909.3613 " fill="#FFFFFF" style="stroke:#000000;stroke-width:1;"/><text fill="#000000" font-family="Arial" font-size="11" lengthAdjust="spacing" textLength="78.2515" x="1035" y="924.8591">Pressure policy:</text><text fill="#000000" font-family="Arial" font-size="11" lengthAdjust="spacing" textLength="96.6206" x="1035" y="937.5081">- StopReq=1 -&gt; 180</text><text fill="#000000" font-family="Arial" font-size="11" lengthAdjust="spacing" textLength="84.9922" x="1035" y="950.157">- Profile=3 -&gt; 150</text><text fill="#000000" font-family="Arial" font-size="11" lengthAdjust="spacing" textLength="84.9922" x="1035" y="962.8059">- Profile=2 -&gt; 110</text><text fill="#000000" font-family="Arial" font-size="11" lengthAdjust="spacing" textLength="78.8745" x="1035" y="975.4548">- Profile=1 -&gt; 70</text><line style="stroke:#000000;stroke-width:1;" x1="1024.3108" x2="1066.3108" y1="1006.2549" y2="1006.2549"/><line style="stroke:#000000;stroke-width:1;" x1="1066.3108" x2="1066.3108" y1="1006.2549" y2="1019.2549"/><line style="stroke:#000000;stroke-width:1;" x1="1025.3108" x2="1066.3108" y1="1019.2549" y2="1019.2549"/><polygon fill="#000000" points="1035.3108,1015.2549,1025.3108,1019.2549,1035.3108,1023.2549,1031.3108,1019.2549" style="stroke:#000000;stroke-width:1;"/><text fill="#000000" font-family="Arial" font-size="11" lengthAdjust="spacing" textLength="269.9028" x="1031.3108" y="1002.1038">pressureCmd = max(brakePressure, aebPressureCmd)</text><line style="stroke:#000000;stroke-width:1;" x1="1024.3108" x2="1066.3108" y1="1050.9038" y2="1050.9038"/><line style="stroke:#000000;stroke-width:1;" x1="1066.3108" x2="1066.3108" y1="1050.9038" y2="1063.9038"/><line style="stroke:#000000;stroke-width:1;" x1="1019.3108" x2="1066.3108" y1="1063.9038" y2="1063.9038"/><polygon fill="#000000" points="1029.3108,1059.9038,1019.3108,1063.9038,1029.3108,1067.9038,1025.3108,1063.9038" style="stroke:#000000;stroke-width:1;"/><text fill="#000000" font-family="Arial" font-size="11" lengthAdjust="spacing" textLength="115.5591" x="1031.3108" y="1046.7527">output frmEhbStateMsg</text><line style="stroke:#000000;stroke-width:1;" x1="1328.2136" x2="1370.2136" y1="1085.5527" y2="1085.5527"/><line style="stroke:#000000;stroke-width:1;" x1="1370.2136" x2="1370.2136" y1="1085.5527" y2="1098.5527"/><line style="stroke:#000000;stroke-width:1;" x1="1329.2136" x2="1370.2136" y1="1098.5527" y2="1098.5527"/><polygon fill="#000000" points="1339.2136,1094.5527,1329.2136,1098.5527,1339.2136,1102.5527,1335.2136,1098.5527" style="stroke:#000000;stroke-width:1;"/><text fill="#000000" font-family="Arial" font-size="11" lengthAdjust="spacing" textLength="224.689" x="1335.2136" y="1081.4016">intervention = max(escIntervention, AEB floor)</text><path d="M1333,1111.5527 L1333,1184.5527 L1444,1184.5527 L1444,1121.5527 L1434,1111.5527 L1333,1111.5527 " fill="#FFFFFF" style="stroke:#000000;stroke-width:1;"/><path d="M1434,1111.5527 L1434,1121.5527 L1444,1121.5527 L1434,1111.5527 " fill="#FFFFFF" style="stroke:#000000;stroke-width:1;"/><text fill="#000000" font-family="Arial" font-size="11" lengthAdjust="spacing" textLength="84.9922" x="1339" y="1127.0505">Intervention floor:</text><text fill="#000000" font-family="Arial" font-size="11" lengthAdjust="spacing" textLength="90.5029" x="1339" y="1139.6995">- StopReq=1 -&gt; 60</text><text fill="#000000" font-family="Arial" font-size="11" lengthAdjust="spacing" textLength="78.8745" x="1339" y="1152.3484">- Profile=3 -&gt; 50</text><text fill="#000000" font-family="Arial" font-size="11" lengthAdjust="spacing" textLength="78.8745" x="1339" y="1164.9973">- Profile=2 -&gt; 35</text><text fill="#000000" font-family="Arial" font-size="11" lengthAdjust="spacing" textLength="78.8745" x="1339" y="1177.6462">- Profile=1 -&gt; 20</text><line style="stroke:#000000;stroke-width:1;" x1="1328.2136" x2="1370.2136" y1="1213.4463" y2="1213.4463"/><line style="stroke:#000000;stroke-width:1;" x1="1370.2136" x2="1370.2136" y1="1213.4463" y2="1226.4463"/><line style="stroke:#000000;stroke-width:1;" x1="1323.2136" x2="1370.2136" y1="1226.4463" y2="1226.4463"/><polygon fill="#000000" points="1333.2136,1222.4463,1323.2136,1226.4463,1333.2136,1230.4463,1329.2136,1226.4463" style="stroke:#000000;stroke-width:1;"/><text fill="#000000" font-family="Arial" font-size="11" lengthAdjust="spacing" textLength="117.9868" x="1335.2136" y="1209.2952">output frmVsmStateMsg</text><rect fill="#FFFFFF" height="3" style="stroke:#FFFFFF;stroke-width:1;" width="1644.3452" x="5" y="1248.7708"/><line style="stroke:#000000;stroke-width:0.5;" x1="5" x2="1649.3452" y1="1248.7708" y2="1248.7708"/><line style="stroke:#000000;stroke-width:0.5;" x1="5" x2="1649.3452" y1="1251.7708" y2="1251.7708"/><rect fill="#FFFFFF" height="20.6489" style="stroke:#000000;stroke-width:1;" width="150.3022" x="752.0215" y="1239.4463"/><text fill="#000000" font-family="Arial" font-size="11" font-weight="bold" lengthAdjust="spacing" textLength="133.2461" x="758.0215" y="1253.9441">Visible Runtime Outcome</text><polygon fill="#000000" points="1569.9026,1297.3931,1579.9026,1301.3931,1569.9026,1305.3931,1573.9026,1301.3931" style="stroke:#000000;stroke-width:1;"/><line style="stroke:#000000;stroke-width:1;" x1="623.5139" x2="1575.9026" y1="1301.3931" y2="1301.3931"/><text fill="#000000" font-family="Arial" font-size="11" lengthAdjust="spacing" textLength="116.7676" x="1044.3245" y="1284.593">Chassis::brakePressure</text><text fill="#000000" font-family="Arial" font-size="11" lengthAdjust="spacing" textLength="96.583" x="1054.4167" y="1297.2419">frmBrakeStatusMsg</text><polygon fill="#000000" points="1569.9026,1324.042,1579.9026,1328.042,1569.9026,1332.042,1573.9026,1328.042" style="stroke:#000000;stroke-width:1;"/><line style="stroke:#000000;stroke-width:1;" x1="1019.3108" x2="1575.9026" y1="1328.042" y2="1328.042"/><text fill="#000000" font-family="Arial" font-size="11" lengthAdjust="spacing" textLength="81.9199" x="1259.6467" y="1323.8909">frmEhbStateMsg</text><polygon fill="#000000" points="1569.9026,1350.6909,1579.9026,1354.6909,1569.9026,1358.6909,1573.9026,1354.6909" style="stroke:#000000;stroke-width:1;"/><line style="stroke:#000000;stroke-width:1;" x1="1323.2136" x2="1575.9026" y1="1354.6909" y2="1354.6909"/><text fill="#000000" font-family="Arial" font-size="11" lengthAdjust="spacing" textLength="84.3477" x="1410.3843" y="1350.5398">frmVsmStateMsg</text><path d="M21,1367.6909 L21,1452.6909 L1644,1452.6909 L1644,1377.6909 L1634,1367.6909 L21,1367.6909 " fill="#FFFFFF" style="stroke:#000000;stroke-width:1;"/><path d="M1634,1367.6909 L1634,1377.6909 L1644,1377.6909 L1634,1367.6909 " fill="#FFFFFF" style="stroke:#000000;stroke-width:1;"/><text fill="#000000" font-family="Arial" font-size="11" lengthAdjust="spacing" textLength="143.0752" x="660.0251" y="1383.1887">Representative runtime chain</text><text fill="#000000" font-family="Arial" font-size="11" lengthAdjust="spacing" textLength="248.8481" x="660.0251" y="1395.8376">1. ADAS/FCA sends object risk and path readiness</text><text fill="#000000" font-family="Arial" font-size="11" lengthAdjust="spacing" textLength="318.5542" x="660.0251" y="1408.4866">2. AEB collapses that into StopReq / DecelProfile / DomainHealth</text><text fill="#000000" font-family="Arial" font-size="11" lengthAdjust="spacing" textLength="218.2598" x="660.0251" y="1421.1355">3. ESC raises the minimum brake pedal floor</text><text fill="#000000" font-family="Arial" font-size="11" lengthAdjust="spacing" textLength="269.6343" x="660.0251" y="1433.7844">4. EHB and VSM apply hydraulic / intervention overlays</text><text fill="#000000" font-family="Arial" font-size="11" lengthAdjust="spacing" textLength="336.2949" x="660.0251" y="1446.4333">5. Driver perceives stepped red brake feel when AEB profile changes</text><!--SRC=[ZLRRRkCs47tNLx2RbmqswzYvmu2Boeg4B90qGTnDN_n2IsER3KMg91Ll-lMT8UL8ihreyv0emxcSEMTu-SMjeGHMIIvKP5-5ghZX9Llm_7LbTAsAH4jjs57cVpeU1InvBLscbVkTOuRO22uFhy_4Fy16eywYXRzhK3ayWBLy1R4KAyLoK0vCnyk0hRIoMwyfIBs9ZT4RvamDKUI4arWudRAfuQ_uPQsmZiqm6PSiG- -v-XpVnZDsoh8aPbz_zSxu9vqbQ4llflZxPVP0feLFiGIGnr64zPt8HSMLOv_Q37DbX7rbNzY66oNKYbL65tKEvXFZbdc_eon9Rv2eVePqEbU5Bf5ZbYCXHakv3K90I6vwbLxrOn3YNF7GqL9grE1BWr5lL1DCRP0o5qco4to71TVlXK49H8umaS7Q09F0bo4IMpz2eDVfJJyIsPXZQoZ46yeXj6fZY2YA6MPfF-RMY3SmI55o_tskbY3T5cdjgjhvuCRdABl8hhDf54qcx9cuZ5N1dhXRisyANTba4aMUnqQhCLkQCilvp7473tOrLrc-yVzWkHWMppH8oD0fkuKSP9W0DCxLu-8lo1tLI2JIY1v_k7nQvwz0tZEGk0f5Z3guUtW3kLysBhYzzQArrVyCmXDYCjQKDps3E-0oM0XNneMSyIKyw09yfvGoP69FzK8Ak_QDyjo9Dmh1zQYPp52z2bxOO0V0v-E-Km74APivNM77MmgUZ5uAIJ12Q80MAOrrZ5Yj7TDBNx110WN3ziqx6ms7hBJZwAlllLSPMqSpsc9JGe6VJKtywjKS3WRdPEiK3ZP0bGb1rDb_uyDrjXvtq__me77yYKS1FMf90ghOEoKUiMd9t_j2e5T4dXyG0yUfpKFKKxEHCjgGg4UVLOhsAwpIkEtUnorJan7blBn4IqFMv9mi5rtB6LdEknOVTNRPyjS3nwjA2YXyMqzGu9atOIN_yRa8UwqYqmdhdY77_GI_9Mk_EXxx_Rhj3cTdP-MUbrNFoXSs9j9QH5kzF9gmDtQa87f8YdiyK5YQV6VFVWsFcBu6TzE8idqa3HgWobjyILdiSuzH7_X_Gl_ePhZB_-Xok2l0Q3JSLU1ws56W2wrg4JNSzuX4ydkeZ_lHuNWaqjBruj3mKbCjCJZmKNDPXTdl7TEXFDZyMyTwue-AHle-OPIjwngyzZYxsgDidx438ziXh0UvRVd5beTQ9bWq92_2YWKUASyreiFdnMFjSer_QLIQaMkkb34xFCLu4-rDOqF_H-GEzGtKxd8NPc1GqnfT5YUDO_GCD0T88wSTmKm3EL_JcseqyCwdz011dy8oxMycvfyI75cgwFepm0kX47bqDl2YvVX6u9K5ozoQEz9Q_y-Z_dpWjxVX8aG3AuKIPLqsjx8_5uBSqSN0poB1eERfH7bdxSFXj3zZEfoPDheSR4cgmEI0NvPP1nMcnawApcEARTQWV4DLWnPfKIkmxO3y2m00]--></g></svg>