<svg xmlns="http://www.w3.org/2000/svg" xmlns:xlink="http://www.w3.org/1999/xlink" contentStyleType="text/css" height="856px" preserveAspectRatio="none" style="width:942px;height:856px;background:#FFFFFF;" version="1.1" viewBox="0 0 942 856" width="942px" zoomAndPan="magnify"><title>Ambient Mode To IVI Render Signal Flow</title><defs/><g><text fill="#000000" font-family="Arial" font-size="22" font-weight="bold" lengthAdjust="spacing" textLength="427.7969" x="255.863" y="35.9956">Ambient Mode To IVI Render Signal Flow</text><text fill="#000000" font-family="Arial" font-size="22" font-weight="bold" lengthAdjust="spacing" textLength="679.7012" x="129.9109" y="61.2935">(BCM ambient ownership -&gt; IVI render seams -&gt; cabin animation)</text><line style="stroke:#000000;stroke-width:1;" x1="73" x2="73" y1="116.8936" y2="812.4146"/><line style="stroke:#000000;stroke-width:1;" x1="271.3252" x2="271.3252" y1="116.8936" y2="812.4146"/><line style="stroke:#000000;stroke-width:1;" x1="546.6733" x2="546.6733" y1="116.8936" y2="812.4146"/><line style="stroke:#000000;stroke-width:1;" x1="869.4746" x2="869.4746" y1="116.8936" y2="812.4146"/><rect fill="#F4F7FB" height="26.6489" rx="2.5" ry="2.5" style="stroke:#000000;stroke-width:1;" width="106.313" x="20" y="89.2446"/><text fill="#000000" font-family="Arial" font-size="11" lengthAdjust="spacing" textLength="92.313" x="27" y="106.7424">Cmd / alert context</text><rect fill="#F4F7FB" height="26.6489" rx="2.5" ry="2.5" style="stroke:#000000;stroke-width:1;" width="106.313" x="20" y="811.4146"/><text fill="#000000" font-family="Arial" font-size="11" lengthAdjust="spacing" textLength="92.313" x="27" y="828.9124">Cmd / alert context</text><rect fill="#E8F7E8" height="39.2979" rx="2.5" ry="2.5" style="stroke:#000000;stroke-width:1;" width="86.1499" x="228.3252" y="76.5957"/><text fill="#000000" font-family="Arial" font-size="11" lengthAdjust="spacing" textLength="24.4438" x="259.1782" y="94.0935">BCM</text><text fill="#000000" font-family="Arial" font-size="11" lengthAdjust="spacing" textLength="72.1499" x="235.3252" y="106.7424">ambient owner</text><rect fill="#E8F7E8" height="39.2979" rx="2.5" ry="2.5" style="stroke:#000000;stroke-width:1;" width="86.1499" x="228.3252" y="811.4146"/><text fill="#000000" font-family="Arial" font-size="11" lengthAdjust="spacing" textLength="24.4438" x="259.1782" y="828.9124">BCM</text><text fill="#000000" font-family="Arial" font-size="11" lengthAdjust="spacing" textLength="72.1499" x="235.3252" y="841.5613">ambient owner</text><rect fill="#FFF4CC" height="39.2979" rx="2.5" ry="2.5" style="stroke:#000000;stroke-width:1;" width="78.813" x="507.6733" y="76.5957"/><text fill="#000000" font-family="Arial" font-size="11" lengthAdjust="spacing" textLength="13.4492" x="540.3552" y="94.0935">IVI</text><text fill="#000000" font-family="Arial" font-size="11" lengthAdjust="spacing" textLength="64.813" x="514.6733" y="106.7424">render owner</text><rect fill="#FFF4CC" height="39.2979" rx="2.5" ry="2.5" style="stroke:#000000;stroke-width:1;" width="78.813" x="507.6733" y="811.4146"/><text fill="#000000" font-family="Arial" font-size="11" lengthAdjust="spacing" textLength="13.4492" x="540.3552" y="828.9124">IVI</text><text fill="#000000" font-family="Arial" font-size="11" lengthAdjust="spacing" textLength="64.813" x="514.6733" y="841.5613">render owner</text><rect fill="#E8F0FE" height="26.6489" rx="2.5" ry="2.5" style="stroke:#000000;stroke-width:1;" width="102.0483" x="818.4746" y="89.2446"/><text fill="#000000" font-family="Arial" font-size="11" lengthAdjust="spacing" textLength="88.0483" x="825.4746" y="106.7424">UiRender / panels</text><rect fill="#E8F0FE" height="26.6489" rx="2.5" ry="2.5" style="stroke:#000000;stroke-width:1;" width="102.0483" x="818.4746" y="811.4146"/><text fill="#000000" font-family="Arial" font-size="11" lengthAdjust="spacing" textLength="88.0483" x="825.4746" y="828.9124">UiRender / panels</text><rect fill="#FFFFFF" height="3" style="stroke:#FFFFFF;stroke-width:1;" width="930.5229" x="5" y="146.218"/><line style="stroke:#000000;stroke-width:0.5;" x1="5" x2="935.5229" y1="146.218" y2="146.218"/><line style="stroke:#000000;stroke-width:0.5;" x1="5" x2="935.5229" y1="149.218" y2="149.218"/><rect fill="#FFFFFF" height="20.6489" style="stroke:#000000;stroke-width:1;" width="120.9546" x="409.7842" y="136.8936"/><text fill="#000000" font-family="Arial" font-size="11" font-weight="bold" lengthAdjust="spacing" textLength="103.8984" x="415.7842" y="151.3914">Ambient Ownership</text><polygon fill="#000000" points="259.4001,194.8403,269.4001,198.8403,259.4001,202.8403,263.4001,198.8403" style="stroke:#000000;stroke-width:1;"/><line style="stroke:#000000;stroke-width:1;" x1="73.1565" x2="265.4001" y1="198.8403" y2="198.8403"/><text fill="#000000" font-family="Arial" font-size="11" lengthAdjust="spacing" textLength="119.2114" x="112.6726" y="182.0403">Cmd::ambientModeCmd</text><text fill="#000000" font-family="Arial" font-size="11" lengthAdjust="spacing" textLength="174.2437" x="85.1565" y="194.6892">alertLevel / alertType / timeoutClear</text><line style="stroke:#000000;stroke-width:1;" x1="271.4001" x2="313.4001" y1="225.4893" y2="225.4893"/><line style="stroke:#000000;stroke-width:1;" x1="313.4001" x2="313.4001" y1="225.4893" y2="238.4893"/><line style="stroke:#000000;stroke-width:1;" x1="272.4001" x2="313.4001" y1="238.4893" y2="238.4893"/><polygon fill="#000000" points="282.4001,234.4893,272.4001,238.4893,282.4001,242.4893,278.4001,238.4893" style="stroke:#000000;stroke-width:1;"/><text fill="#000000" font-family="Arial" font-size="11" lengthAdjust="spacing" textLength="261.6797" x="278.4001" y="221.3381">derive AmbientMode / AmbientColor / AmbientPattern</text><line style="stroke:#000000;stroke-width:1;" x1="271.4001" x2="313.4001" y1="265.1382" y2="265.1382"/><line style="stroke:#000000;stroke-width:1;" x1="313.4001" x2="313.4001" y1="265.1382" y2="278.1382"/><line style="stroke:#000000;stroke-width:1;" x1="272.4001" x2="313.4001" y1="278.1382" y2="278.1382"/><polygon fill="#000000" points="282.4001,274.1382,272.4001,278.1382,282.4001,282.1382,278.4001,278.1382" style="stroke:#000000;stroke-width:1;"/><text fill="#000000" font-family="Arial" font-size="11" lengthAdjust="spacing" textLength="215.8374" x="278.4001" y="260.9871">publish Body::ambientMode / Color / Pattern</text><path d="M276,291.1382 L276,351.1382 L463,351.1382 L463,301.1382 L453,291.1382 L276,291.1382 " fill="#FFFFFF" style="stroke:#000000;stroke-width:1;"/><path d="M453,291.1382 L453,301.1382 L463,301.1382 L453,291.1382 " fill="#FFFFFF" style="stroke:#000000;stroke-width:1;"/><text fill="#000000" font-family="Arial" font-size="11" lengthAdjust="spacing" textLength="166.3213" x="282" y="306.636">Representative ownership outputs</text><text fill="#000000" font-family="Arial" font-size="11" lengthAdjust="spacing" textLength="104.5537" x="282" y="319.2849">- Body::ambientMode</text><text fill="#000000" font-family="Arial" font-size="11" lengthAdjust="spacing" textLength="103.3237" x="282" y="331.9338">- Body::ambientColor</text><text fill="#000000" font-family="Arial" font-size="11" lengthAdjust="spacing" textLength="112.5029" x="282" y="344.5828">- Body::ambientPattern</text><rect fill="#FFFFFF" height="3" style="stroke:#FFFFFF;stroke-width:1;" width="930.5229" x="5" y="376.0583"/><line style="stroke:#000000;stroke-width:0.5;" x1="5" x2="935.5229" y1="376.0583" y2="376.0583"/><line style="stroke:#000000;stroke-width:0.5;" x1="5" x2="935.5229" y1="379.0583" y2="379.0583"/><rect fill="#FFFFFF" height="20.6489" style="stroke:#000000;stroke-width:1;" width="117.2969" x="411.613" y="366.7339"/><text fill="#000000" font-family="Arial" font-size="11" font-weight="bold" lengthAdjust="spacing" textLength="100.2407" x="417.613" y="381.2317">Render Translation</text><polygon fill="#000000" points="535.0798,412.0317,545.0798,416.0317,535.0798,420.0317,539.0798,416.0317" style="stroke:#000000;stroke-width:1;"/><line style="stroke:#000000;stroke-width:1;" x1="271.4001" x2="541.0798" y1="416.0317" y2="416.0317"/><text fill="#000000" font-family="Arial" font-size="11" lengthAdjust="spacing" textLength="177.9229" x="320.2786" y="411.8806">Body::ambientMode / Color / Pattern</text><line style="stroke:#000000;stroke-width:1;" x1="547.0798" x2="589.0798" y1="442.6807" y2="442.6807"/><line style="stroke:#000000;stroke-width:1;" x1="589.0798" x2="589.0798" y1="442.6807" y2="455.6807"/><line style="stroke:#000000;stroke-width:1;" x1="548.0798" x2="589.0798" y1="455.6807" y2="455.6807"/><polygon fill="#000000" points="558.0798,451.6807,548.0798,455.6807,558.0798,459.6807,554.0798,455.6807" style="stroke:#000000;stroke-width:1;"/><text fill="#000000" font-family="Arial" font-size="11" lengthAdjust="spacing" textLength="169.6836" x="554.0798" y="438.5295">renderMode = Body::ambientMode</text><line style="stroke:#000000;stroke-width:1;" x1="547.0798" x2="589.0798" y1="482.3296" y2="482.3296"/><line style="stroke:#000000;stroke-width:1;" x1="589.0798" x2="589.0798" y1="482.3296" y2="495.3296"/><line style="stroke:#000000;stroke-width:1;" x1="548.0798" x2="589.0798" y1="495.3296" y2="495.3296"/><polygon fill="#000000" points="558.0798,491.3296,548.0798,495.3296,558.0798,499.3296,554.0798,495.3296" style="stroke:#000000;stroke-width:1;"/><text fill="#000000" font-family="Arial" font-size="11" lengthAdjust="spacing" textLength="167.2236" x="554.0798" y="478.1785">renderColor = Body::ambientColor</text><line style="stroke:#000000;stroke-width:1;" x1="547.0798" x2="589.0798" y1="521.9785" y2="521.9785"/><line style="stroke:#000000;stroke-width:1;" x1="589.0798" x2="589.0798" y1="521.9785" y2="534.9785"/><line style="stroke:#000000;stroke-width:1;" x1="548.0798" x2="589.0798" y1="534.9785" y2="534.9785"/><polygon fill="#000000" points="558.0798,530.9785,548.0798,534.9785,558.0798,538.9785,554.0798,534.9785" style="stroke:#000000;stroke-width:1;"/><text fill="#000000" font-family="Arial" font-size="11" lengthAdjust="spacing" textLength="185.582" x="554.0798" y="517.8274">renderPattern = Body::ambientPattern</text><line style="stroke:#000000;stroke-width:1;" x1="547.0798" x2="589.0798" y1="561.6274" y2="561.6274"/><line style="stroke:#000000;stroke-width:1;" x1="589.0798" x2="589.0798" y1="561.6274" y2="574.6274"/><line style="stroke:#000000;stroke-width:1;" x1="548.0798" x2="589.0798" y1="574.6274" y2="574.6274"/><polygon fill="#000000" points="558.0798,570.6274,548.0798,574.6274,558.0798,578.6274,554.0798,574.6274" style="stroke:#000000;stroke-width:1;"/><text fill="#000000" font-family="Arial" font-size="11" lengthAdjust="spacing" textLength="308.4189" x="554.0798" y="557.4763">cabinAmbientAnimFrame = deriveCabinAmbientAnimFrame(...)</text><polygon fill="#000000" points="857.4988,597.2764,867.4988,601.2764,857.4988,605.2764,861.4988,601.2764" style="stroke:#000000;stroke-width:1;"/><line style="stroke:#000000;stroke-width:1;" x1="547.0798" x2="863.4988" y1="601.2764" y2="601.2764"/><text fill="#000000" font-family="Arial" font-size="11" lengthAdjust="spacing" textLength="255.5728" x="580.5029" y="597.1252">UiRender::renderMode / renderColor / renderPattern</text><polygon fill="#000000" points="857.4988,623.9253,867.4988,627.9253,857.4988,631.9253,861.4988,627.9253" style="stroke:#000000;stroke-width:1;"/><line style="stroke:#000000;stroke-width:1;" x1="547.0798" x2="863.4988" y1="627.9253" y2="627.9253"/><text fill="#000000" font-family="Arial" font-size="11" lengthAdjust="spacing" textLength="278.8242" x="568.8772" y="623.7742">UiRender::ambientPulsePhase / cabin ambient animation</text><path d="M552,640.9253 L552,713.9253 L730,713.9253 L730,650.9253 L720,640.9253 L552,640.9253 " fill="#FFFFFF" style="stroke:#000000;stroke-width:1;"/><path d="M720,640.9253 L720,650.9253 L730,650.9253 L720,640.9253 " fill="#FFFFFF" style="stroke:#000000;stroke-width:1;"/><text fill="#000000" font-family="Arial" font-size="11" lengthAdjust="spacing" textLength="147.979" x="558" y="656.4231">Representative render outputs</text><text fill="#000000" font-family="Arial" font-size="11" lengthAdjust="spacing" textLength="118.6099" x="558" y="669.072">- UiRender::renderMode</text><text fill="#000000" font-family="Arial" font-size="11" lengthAdjust="spacing" textLength="117.3799" x="558" y="681.7209">- UiRender::renderColor</text><text fill="#000000" font-family="Arial" font-size="11" lengthAdjust="spacing" textLength="126.5591" x="558" y="694.3699">- UiRender::renderPattern</text><text fill="#000000" font-family="Arial" font-size="11" lengthAdjust="spacing" textLength="157.1313" x="558" y="707.0188">- cabin ambient animation frame</text><path d="M13,724.1699 L13,797.1699 L928,797.1699 L928,734.1699 L918,724.1699 L13,724.1699 " fill="#FFFFFF" style="stroke:#000000;stroke-width:1;"/><path d="M918,724.1699 L918,734.1699 L928,734.1699 L918,724.1699 " fill="#FFFFFF" style="stroke:#000000;stroke-width:1;"/><text fill="#000000" font-family="Arial" font-size="11" lengthAdjust="spacing" textLength="143.0752" x="293.5352" y="739.6677">Representative runtime chain</text><text fill="#000000" font-family="Arial" font-size="11" lengthAdjust="spacing" textLength="308.7466" x="293.5352" y="752.3167">1. Ambient mode is owned in BCM from manual or alert context</text><text fill="#000000" font-family="Arial" font-size="11" lengthAdjust="spacing" textLength="231.1235" x="293.5352" y="764.9656">2. BCM publishes stabilized body ambient state</text><text fill="#000000" font-family="Arial" font-size="11" lengthAdjust="spacing" textLength="345.4526" x="293.5352" y="777.6145">3. IVI translates ambient state into render seams and animation frames</text><text fill="#000000" font-family="Arial" font-size="11" lengthAdjust="spacing" textLength="332.0088" x="293.5352" y="790.2634">4. Panels consume UiRender seams as visible cabin ambient output</text><!--SRC=[ZLJVJzim47xtNt635v16EhPAe4YPr4P4GXe30TiJBqvoRIqSExET0llhTtQJj0dPj3urv_lnVNVVtGUtmGgXbbmePf-5ghdX5UIyU5uRtQWorL8RECx2xy2Zn1LlfCkqSjyvPLWOmUNq-uFuZN1-Vl1eyLU3gi0Rj9QlSI75Ma61og4vy39eQwrivxL4gLyMnkWNSAP1nfnmaWfNkQ18kD4bmgE6wv_NS8-gH0CFb9PBo2ZkIPqiqnlWhRD-KMZiHjHmzZL4c5s4HLvPRojuBXHm9IhkX5QdZ14c9mfHSme_IgiIPi0b6WS5KSHNTmJSTc1IzqejcsSNsN8OHnYUr0142FFGZgykiukhow4_GNjIBRQzkmVi9p9Fqw7x3z4odm4PKDhWlhFTvZRK-9HTCPOaVTzk-rOa2MC71AWB7bSCH3QEMz2-o_HD93ptRxX5sJNYyQr6-kz4XRfngKHkc4_Gvo4GOjiFBCnhrdSioAp_lEEEjA26yNMJIs4tiDJbsm0GnNNnNQ3I3i68zORQlFBnx1vh4XH5q409nLu11BPkd6LdxnEFRQ7AsDYLf2w3BnkwsyxXqN1bPP1GQ6_Bnmym_YyUthCFs0aXU2OJO2TyT-cIAHOJtctHiVyabh0WxRGMj2QPyLSWQOUSJhsUH55qscNPYpA6JhPnVC1mDg0m6qByTvOEToCjtcsuzSdQXMv5to_sI2YKTYoKRljwbKoXdJ1tMXdREmPdVuC4Az-i0pa5Y7fB8FRR-N5F_HtWHlaTX6BZR_fvr6zwvTigR91-2LJQgt5bT0KLLmqTIkhpuAInpr7mQHSFBLX7c2NTyn9oaaWFdko4z4iKnE5QqPF_u9rAEZsyj9n8ZeXRDez8_lvwUHos8IhzNMkZB6o55JbT_s4FTqFQj-uF]--></g></svg>