<svg xmlns="http://www.w3.org/2000/svg" xmlns:xlink="http://www.w3.org/1999/xlink" contentStyleType="text/css" height="1156px" preserveAspectRatio="none" style="width:1354px;height:1156px;background:#FFFFFF;" version="1.1" viewBox="0 0 1354 1156" width="1354px" zoomAndPan="magnify"><title>Ambient Lighting Signal Flow</title><defs/><g><text fill="#000000" font-family="Arial" font-size="22" font-weight="bold" lengthAdjust="spacing" textLength="309.1924" x="521.3193" y="35.9956">Ambient Lighting Signal Flow</text><text fill="#000000" font-family="Arial" font-size="22" font-weight="bold" lengthAdjust="spacing" textLength="558.5293" x="396.6509" y="61.2935">(Input_Console / CGW -&gt; BCM -&gt; ambient output / IVI)</text><rect fill="#FFFFFF" height="45.2979" style="stroke:#000000;stroke-width:1;" width="10" x="178.9375" y="232.1914"/><rect fill="#FFFFFF" height="183.5425" style="stroke:#000000;stroke-width:1;" width="10" x="360.8682" y="279.4893"/><rect fill="#FFFFFF" height="297.4893" style="stroke:#000000;stroke-width:1;" width="10" x="577.5771" y="463.0317"/><rect fill="#FFFFFF" height="99.9468" style="stroke:#000000;stroke-width:1;" width="10" x="1078.019" y="760.521"/><line style="stroke:#000000;stroke-width:1;" x1="56" x2="56" y1="162.8936" y2="1065.957"/><line style="stroke:#000000;stroke-width:1;" x1="183.4541" x2="183.4541" y1="162.8936" y2="1065.957"/><line style="stroke:#000000;stroke-width:1;" x1="364.9229" x2="364.9229" y1="162.8936" y2="1065.957"/><line style="stroke:#000000;stroke-width:1;" x1="582.5022" x2="582.5022" y1="162.8936" y2="1065.957"/><line style="stroke:#000000;stroke-width:1;" x1="948.8235" x2="948.8235" y1="162.8936" y2="1065.957"/><line style="stroke:#000000;stroke-width:1;" x1="1082.4441" x2="1082.4441" y1="162.8936" y2="1065.957"/><text fill="#000000" font-family="Arial" font-size="11" lengthAdjust="spacing" textLength="29.3315" x="38.9373" y="148.0935">Driver</text><text fill="#000000" font-family="Arial" font-size="11" lengthAdjust="spacing" textLength="75.2061" x="16" y="160.7424">(Input Console)</text><ellipse cx="56.603" cy="85.5957" fill="#F4F7FB" rx="8" ry="8" style="stroke:#000000;stroke-width:1;"/><path d="M56.603,93.5957 L56.603,120.5957 M43.603,101.5957 L69.603,101.5957 M56.603,120.5957 L43.603,135.5957 M56.603,120.5957 L69.603,135.5957 " fill="none" style="stroke:#000000;stroke-width:1;"/><text fill="#000000" font-family="Arial" font-size="11" lengthAdjust="spacing" textLength="29.3315" x="38.9373" y="1075.4548">Driver</text><text fill="#000000" font-family="Arial" font-size="11" lengthAdjust="spacing" textLength="75.2061" x="16" y="1088.1038">(Input Console)</text><ellipse cx="56.603" cy="1099.2549" fill="#F4F7FB" rx="8" ry="8" style="stroke:#000000;stroke-width:1;"/><path d="M56.603,1107.2549 L56.603,1134.2549 M43.603,1115.2549 L69.603,1115.2549 M56.603,1134.2549 L43.603,1149.2549 M56.603,1134.2549 L69.603,1149.2549 " fill="none" style="stroke:#000000;stroke-width:1;"/><rect fill="#E8F0FE" height="39.2979" rx="2.5" ry="2.5" style="stroke:#000000;stroke-width:1;" width="102.9668" x="132.4541" y="122.5957"/><text fill="#000000" font-family="Arial" font-size="11" lengthAdjust="spacing" textLength="70.9414" x="148.4668" y="140.0935">Input_Console</text><text fill="#000000" font-family="Arial" font-size="11" lengthAdjust="spacing" textLength="88.9668" x="139.4541" y="152.7424">Vehicle &gt; Ambient</text><rect fill="#E8F0FE" height="39.2979" rx="2.5" ry="2.5" style="stroke:#000000;stroke-width:1;" width="102.9668" x="132.4541" y="1064.957"/><text fill="#000000" font-family="Arial" font-size="11" lengthAdjust="spacing" textLength="70.9414" x="148.4668" y="1082.4548">Input_Console</text><text fill="#000000" font-family="Arial" font-size="11" lengthAdjust="spacing" textLength="88.9668" x="139.4541" y="1095.1038">Vehicle &gt; Ambient</text><rect fill="#FFF4CC" height="39.2979" rx="2.5" ry="2.5" style="stroke:#000000;stroke-width:1;" width="103.8906" x="313.9229" y="122.5957"/><text fill="#000000" font-family="Arial" font-size="11" lengthAdjust="spacing" textLength="26.8823" x="352.427" y="140.0935">CGW</text><text fill="#000000" font-family="Arial" font-size="11" lengthAdjust="spacing" textLength="89.8906" x="320.9229" y="152.7424">selected alert gate</text><rect fill="#FFF4CC" height="39.2979" rx="2.5" ry="2.5" style="stroke:#000000;stroke-width:1;" width="103.8906" x="313.9229" y="1064.957"/><text fill="#000000" font-family="Arial" font-size="11" lengthAdjust="spacing" textLength="26.8823" x="352.427" y="1082.4548">CGW</text><text fill="#000000" font-family="Arial" font-size="11" lengthAdjust="spacing" textLength="89.8906" x="320.9229" y="1095.1038">selected alert gate</text><rect fill="#E8F7E8" height="39.2979" rx="2.5" ry="2.5" style="stroke:#000000;stroke-width:1;" width="86.1499" x="539.5022" y="122.5957"/><text fill="#000000" font-family="Arial" font-size="11" lengthAdjust="spacing" textLength="24.4438" x="570.3552" y="140.0935">BCM</text><text fill="#000000" font-family="Arial" font-size="11" lengthAdjust="spacing" textLength="72.1499" x="546.5022" y="152.7424">ambient owner</text><rect fill="#E8F7E8" height="39.2979" rx="2.5" ry="2.5" style="stroke:#000000;stroke-width:1;" width="86.1499" x="539.5022" y="1064.957"/><text fill="#000000" font-family="Arial" font-size="11" lengthAdjust="spacing" textLength="24.4438" x="570.3552" y="1082.4548">BCM</text><text fill="#000000" font-family="Arial" font-size="11" lengthAdjust="spacing" textLength="72.1499" x="546.5022" y="1095.1038">ambient owner</text><rect fill="#FCE8FF" height="39.2979" rx="2.5" ry="2.5" style="stroke:#000000;stroke-width:1;" width="110.6206" x="893.8235" y="122.5957"/><text fill="#000000" font-family="Arial" font-size="11" lengthAdjust="spacing" textLength="78.2676" x="910" y="140.0935">Ambient lighting</text><text fill="#000000" font-family="Arial" font-size="11" lengthAdjust="spacing" textLength="96.6206" x="900.8235" y="152.7424">body output surface</text><rect fill="#FCE8FF" height="39.2979" rx="2.5" ry="2.5" style="stroke:#000000;stroke-width:1;" width="110.6206" x="893.8235" y="1064.957"/><text fill="#000000" font-family="Arial" font-size="11" lengthAdjust="spacing" textLength="78.2676" x="910" y="1082.4548">Ambient lighting</text><text fill="#000000" font-family="Arial" font-size="11" lengthAdjust="spacing" textLength="96.6206" x="900.8235" y="1095.1038">body output surface</text><rect fill="#E8F0FE" height="39.2979" rx="2.5" ry="2.5" style="stroke:#000000;stroke-width:1;" width="97.1499" x="1034.4441" y="122.5957"/><text fill="#000000" font-family="Arial" font-size="11" lengthAdjust="spacing" textLength="13.4492" x="1076.2944" y="140.0935">IVI</text><text fill="#000000" font-family="Arial" font-size="11" lengthAdjust="spacing" textLength="83.1499" x="1041.4441" y="152.7424">render consumer</text><rect fill="#E8F0FE" height="39.2979" rx="2.5" ry="2.5" style="stroke:#000000;stroke-width:1;" width="97.1499" x="1034.4441" y="1064.957"/><text fill="#000000" font-family="Arial" font-size="11" lengthAdjust="spacing" textLength="13.4492" x="1076.2944" y="1082.4548">IVI</text><text fill="#000000" font-family="Arial" font-size="11" lengthAdjust="spacing" textLength="83.1499" x="1041.4441" y="1095.1038">render consumer</text><rect fill="#FFFFFF" height="45.2979" style="stroke:#000000;stroke-width:1;" width="10" x="178.9375" y="232.1914"/><rect fill="#FFFFFF" height="183.5425" style="stroke:#000000;stroke-width:1;" width="10" x="360.8682" y="279.4893"/><rect fill="#FFFFFF" height="297.4893" style="stroke:#000000;stroke-width:1;" width="10" x="577.5771" y="463.0317"/><rect fill="#FFFFFF" height="99.9468" style="stroke:#000000;stroke-width:1;" width="10" x="1078.019" y="760.521"/><rect fill="#FFFFFF" height="3" style="stroke:#FFFFFF;stroke-width:1;" width="1342.8311" x="5" y="192.218"/><line style="stroke:#000000;stroke-width:0.5;" x1="5" x2="1347.8311" y1="192.218" y2="192.218"/><line style="stroke:#000000;stroke-width:0.5;" x1="5" x2="1347.8311" y1="195.218" y2="195.218"/><rect fill="#FFFFFF" height="20.6489" style="stroke:#000000;stroke-width:1;" width="131.9385" x="610.4463" y="182.8936"/><text fill="#000000" font-family="Arial" font-size="11" font-weight="bold" lengthAdjust="spacing" textLength="114.8823" x="616.4463" y="197.3914">Manual Ambient Input</text><polygon fill="#000000" points="166.9375,228.1914,176.9375,232.1914,166.9375,236.1914,170.9375,232.1914" style="stroke:#000000;stroke-width:1;"/><line style="stroke:#000000;stroke-width:1;" x1="56.603" x2="172.9375" y1="232.1914" y2="232.1914"/><text fill="#000000" font-family="Arial" font-size="11" lengthAdjust="spacing" textLength="103.3345" x="66.103" y="228.0403">Select ambient mode</text><line style="stroke:#000000;stroke-width:1;" x1="188.9375" x2="230.9375" y1="276.4893" y2="276.4893"/><line style="stroke:#000000;stroke-width:1;" x1="230.9375" x2="230.9375" y1="276.4893" y2="289.4893"/><line style="stroke:#000000;stroke-width:1;" x1="183.9375" x2="230.9375" y1="289.4893" y2="289.4893"/><polygon fill="#000000" points="193.9375,285.4893,183.9375,289.4893,193.9375,293.4893,189.9375,289.4893" style="stroke:#000000;stroke-width:1;"/><text fill="#000000" font-family="Arial" font-size="11" lengthAdjust="spacing" textLength="147.9307" x="195.9375" y="259.6892">Write Cmd::ambientModeCmd</text><text fill="#000000" font-family="Arial" font-size="11" lengthAdjust="spacing" textLength="49.5376" x="245.134" y="272.3381">range 0..7</text><path d="M188,297.4893 L188,344.4893 L401,344.4893 L401,307.4893 L391,297.4893 L188,297.4893 " fill="#FFFFFF" style="stroke:#000000;stroke-width:1;"/><path d="M391,297.4893 L391,307.4893 L401,307.4893 L391,297.4893 " fill="#FFFFFF" style="stroke:#000000;stroke-width:1;"/><text fill="#000000" font-family="Arial" font-size="11" lengthAdjust="spacing" textLength="57.4761" x="194" y="312.9871">Input seam:</text><text fill="#000000" font-family="Arial" font-size="11" lengthAdjust="spacing" textLength="125.9307" x="194" y="325.636">- Cmd::ambientModeCmd</text><text fill="#000000" font-family="Arial" font-size="11" lengthAdjust="spacing" textLength="192.0005" x="194" y="338.2849">- used only when scenarioActiveId == 0</text><rect fill="#FFFFFF" height="3" style="stroke:#FFFFFF;stroke-width:1;" width="1342.8311" x="5" y="369.7605"/><line style="stroke:#000000;stroke-width:0.5;" x1="5" x2="1347.8311" y1="369.7605" y2="369.7605"/><line style="stroke:#000000;stroke-width:0.5;" x1="5" x2="1347.8311" y1="372.7605" y2="372.7605"/><rect fill="#FFFFFF" height="20.6489" style="stroke:#000000;stroke-width:1;" width="114.8477" x="618.9917" y="360.436"/><text fill="#000000" font-family="Arial" font-size="11" font-weight="bold" lengthAdjust="spacing" textLength="97.7915" x="624.9917" y="374.9338">Alert Context Feed</text><polygon fill="#000000" points="570.5771,405.7339,580.5771,409.7339,570.5771,413.7339,574.5771,409.7339" style="stroke:#000000;stroke-width:1;"/><line style="stroke:#000000;stroke-width:1;" x1="370.8682" x2="576.5771" y1="409.7339" y2="409.7339"/><text fill="#000000" font-family="Arial" font-size="11" lengthAdjust="spacing" textLength="187.709" x="382.8682" y="405.5828">CoreState::selectedAlertEffectiveLevel</text><polygon fill="#000000" points="570.5771,432.3828,580.5771,436.3828,570.5771,440.3828,574.5771,436.3828" style="stroke:#000000;stroke-width:1;"/><line style="stroke:#000000;stroke-width:1;" x1="370.8682" x2="576.5771" y1="436.3828" y2="436.3828"/><text fill="#000000" font-family="Arial" font-size="11" lengthAdjust="spacing" textLength="185.8667" x="383.7893" y="432.2317">CoreState::selectedAlertEffectiveType</text><polygon fill="#000000" points="565.5771,459.0317,575.5771,463.0317,565.5771,467.0317,569.5771,463.0317" style="stroke:#000000;stroke-width:1;"/><line style="stroke:#000000;stroke-width:1;" x1="365.8682" x2="571.5771" y1="463.0317" y2="463.0317"/><text fill="#000000" font-family="Arial" font-size="11" lengthAdjust="spacing" textLength="92.313" x="425.5662" y="458.8806">Core::timeoutClear</text><path d="M370,476.0317 L370,511.0317 L555,511.0317 L555,486.0317 L545,476.0317 L370,476.0317 " fill="#FFFFFF" style="stroke:#000000;stroke-width:1;"/><path d="M545,476.0317 L545,486.0317 L555,486.0317 L545,476.0317 " fill="#FFFFFF" style="stroke:#000000;stroke-width:1;"/><text fill="#000000" font-family="Arial" font-size="11" lengthAdjust="spacing" textLength="164.4897" x="376" y="491.5295">Auto mode uses gated alert state,</text><text fill="#000000" font-family="Arial" font-size="11" lengthAdjust="spacing" textLength="97.2275" x="376" y="504.1785">not raw donor input.</text><rect fill="#FFFFFF" height="3" style="stroke:#FFFFFF;stroke-width:1;" width="1342.8311" x="5" y="535.6541"/><line style="stroke:#000000;stroke-width:0.5;" x1="5" x2="1347.8311" y1="535.6541" y2="535.6541"/><line style="stroke:#000000;stroke-width:0.5;" x1="5" x2="1347.8311" y1="538.6541" y2="538.6541"/><rect fill="#FFFFFF" height="20.6489" style="stroke:#000000;stroke-width:1;" width="149.0615" x="601.8848" y="526.3296"/><text fill="#000000" font-family="Arial" font-size="11" font-weight="bold" lengthAdjust="spacing" textLength="132.0054" x="607.8848" y="540.8274">BCM Ambient Ownership</text><polygon fill="#000000" points="565.5771,571.6274,575.5771,575.6274,565.5771,579.6274,569.5771,575.6274" style="stroke:#000000;stroke-width:1;"/><line style="stroke:#000000;stroke-width:1;" x1="183.9375" x2="571.5771" y1="575.6274" y2="575.6274"/><text fill="#000000" font-family="Arial" font-size="11" lengthAdjust="spacing" textLength="196.2437" x="282.6355" y="571.4763">Cmd::ambientModeCmd (manual mode)</text><line style="stroke:#000000;stroke-width:1;" x1="587.5771" x2="629.5771" y1="602.2764" y2="602.2764"/><line style="stroke:#000000;stroke-width:1;" x1="629.5771" x2="629.5771" y1="602.2764" y2="615.2764"/><line style="stroke:#000000;stroke-width:1;" x1="588.5771" x2="629.5771" y1="615.2764" y2="615.2764"/><polygon fill="#000000" points="598.5771,611.2764,588.5771,615.2764,598.5771,619.2764,594.5771,615.2764" style="stroke:#000000;stroke-width:1;"/><text fill="#000000" font-family="Arial" font-size="11" lengthAdjust="spacing" textLength="270.542" x="594.5771" y="598.1252">if scenarioActiveId == 0 -&gt; use Cmd::ambientModeCmd</text><line style="stroke:#000000;stroke-width:1;" x1="587.5771" x2="629.5771" y1="641.9253" y2="641.9253"/><line style="stroke:#000000;stroke-width:1;" x1="629.5771" x2="629.5771" y1="641.9253" y2="654.9253"/><line style="stroke:#000000;stroke-width:1;" x1="588.5771" x2="629.5771" y1="654.9253" y2="654.9253"/><polygon fill="#000000" points="598.5771,650.9253,588.5771,654.9253,598.5771,658.9253,594.5771,654.9253" style="stroke:#000000;stroke-width:1;"/><text fill="#000000" font-family="Arial" font-size="11" lengthAdjust="spacing" textLength="296.522" x="594.5771" y="637.7742">else deriveAmbientMode(alertLevel, alertType, timeoutClear)</text><line style="stroke:#000000;stroke-width:1;" x1="587.5771" x2="629.5771" y1="681.5742" y2="681.5742"/><line style="stroke:#000000;stroke-width:1;" x1="629.5771" x2="629.5771" y1="681.5742" y2="694.5742"/><line style="stroke:#000000;stroke-width:1;" x1="588.5771" x2="629.5771" y1="694.5742" y2="694.5742"/><polygon fill="#000000" points="598.5771,690.5742,588.5771,694.5742,598.5771,698.5742,594.5771,694.5742" style="stroke:#000000;stroke-width:1;"/><text fill="#000000" font-family="Arial" font-size="11" lengthAdjust="spacing" textLength="332.5566" x="594.5771" y="677.4231">deriveAmbientColorFromMode() / deriveAmbientPatternFromMode()</text><polygon fill="#000000" points="937.1338,729.8721,947.1338,733.8721,937.1338,737.8721,941.1338,733.8721" style="stroke:#000000;stroke-width:1;"/><line style="stroke:#000000;stroke-width:1;" x1="587.5771" x2="943.1338" y1="733.8721" y2="733.8721"/><text fill="#000000" font-family="Arial" font-size="11" lengthAdjust="spacing" textLength="112.4761" x="712.1174" y="717.072">frmAmbientControlMsg</text><text fill="#000000" font-family="Arial" font-size="11" lengthAdjust="spacing" textLength="228.6636" x="654.0237" y="729.7209">AmbientMode / AmbientColor / AmbientPattern</text><polygon fill="#000000" points="937.1338,756.521,947.1338,760.521,937.1338,764.521,941.1338,760.521" style="stroke:#000000;stroke-width:1;"/><line style="stroke:#000000;stroke-width:1;" x1="582.5771" x2="943.1338" y1="760.521" y2="760.521"/><text fill="#000000" font-family="Arial" font-size="11" lengthAdjust="spacing" textLength="318.5596" x="606.5757" y="756.3699">Body::ambientMode / Body::ambientColor / Body::ambientPattern</text><rect fill="#FFFFFF" height="3" style="stroke:#FFFFFF;stroke-width:1;" width="1342.8311" x="5" y="787.8455"/><line style="stroke:#000000;stroke-width:0.5;" x1="5" x2="1347.8311" y1="787.8455" y2="787.8455"/><line style="stroke:#000000;stroke-width:0.5;" x1="5" x2="1347.8311" y1="790.8455" y2="790.8455"/><rect fill="#FFFFFF" height="20.6489" style="stroke:#000000;stroke-width:1;" width="175.9868" x="588.4221" y="778.521"/><text fill="#000000" font-family="Arial" font-size="11" font-weight="bold" lengthAdjust="spacing" textLength="158.9307" x="594.4221" y="793.0188">Downstream Visual Consumer</text><polygon fill="#000000" points="1066.019,823.8188,1076.019,827.8188,1066.019,831.8188,1070.019,827.8188" style="stroke:#000000;stroke-width:1;"/><line style="stroke:#000000;stroke-width:1;" x1="582.5771" x2="1072.019" y1="827.8188" y2="827.8188"/><text fill="#000000" font-family="Arial" font-size="11" lengthAdjust="spacing" textLength="97.8345" x="781.3809" y="823.6677">Body::ambientMode</text><line style="stroke:#000000;stroke-width:1;" x1="1088.019" x2="1130.019" y1="859.4678" y2="859.4678"/><line style="stroke:#000000;stroke-width:1;" x1="1130.019" x2="1130.019" y1="859.4678" y2="872.4678"/><line style="stroke:#000000;stroke-width:1;" x1="1083.019" x2="1130.019" y1="872.4678" y2="872.4678"/><polygon fill="#000000" points="1093.019,868.4678,1083.019,872.4678,1093.019,876.4678,1089.019,872.4678" style="stroke:#000000;stroke-width:1;"/><text fill="#000000" font-family="Arial" font-size="11" lengthAdjust="spacing" textLength="230.812" x="1095.019" y="855.3167">renderMode = clamp(Body::ambientMode, 0..7)</text><path d="M1088,880.4678 L1088,927.4678 L1275,927.4678 L1275,890.4678 L1265,880.4678 L1088,880.4678 " fill="#FFFFFF" style="stroke:#000000;stroke-width:1;"/><path d="M1265,880.4678 L1265,890.4678 L1275,890.4678 L1265,880.4678 " fill="#FFFFFF" style="stroke:#000000;stroke-width:1;"/><text fill="#000000" font-family="Arial" font-size="11" lengthAdjust="spacing" textLength="163.249" x="1094" y="895.9656">IVI consumes ambient mode as a</text><text fill="#000000" font-family="Arial" font-size="11" lengthAdjust="spacing" textLength="166.2944" x="1094" y="908.6145">display/render context, while BCM</text><text fill="#000000" font-family="Arial" font-size="11" lengthAdjust="spacing" textLength="114.9414" x="1094" y="921.2634">remains the real owner.</text><polygon fill="#000000" points="67.603,933.4146,57.603,937.4146,67.603,941.4146,63.603,937.4146" style="stroke:#000000;stroke-width:1;"/><line style="stroke:#000000;stroke-width:1;" x1="61.603" x2="948.1338" y1="937.4146" y2="937.4146"/><text fill="#000000" font-family="Arial" font-size="11" lengthAdjust="spacing" textLength="133.3105" x="436.2131" y="948.9124">cabin color / pattern update</text><path d="M10,965.0635 L10,1050.0635 L1130,1050.0635 L1130,975.0635 L1120,965.0635 L10,965.0635 " fill="#FFFFFF" style="stroke:#000000;stroke-width:1;"/><path d="M1120,965.0635 L1120,975.0635 L1130,975.0635 L1120,965.0635 " fill="#FFFFFF" style="stroke:#000000;stroke-width:1;"/><text fill="#000000" font-family="Arial" font-size="11" lengthAdjust="spacing" textLength="143.0752" x="392.1469" y="980.5613">Representative runtime chain</text><text fill="#000000" font-family="Arial" font-size="11" lengthAdjust="spacing" textLength="347.3003" x="392.1469" y="993.2102">1. Input_Console can request Cmd::ambientModeCmd in manual mode</text><text fill="#000000" font-family="Arial" font-size="11" lengthAdjust="spacing" textLength="292.8643" x="392.1469" y="1005.8591">2. CGW provides the gated alert context for automatic mode</text><text fill="#000000" font-family="Arial" font-size="11" lengthAdjust="spacing" textLength="268.415" x="392.1469" y="1018.5081">3. BCM decides the final ambient mode / color / pattern</text><text fill="#000000" font-family="Arial" font-size="11" lengthAdjust="spacing" textLength="309.9766" x="392.1469" y="1031.157">4. BCM publishes frmAmbientControlMsg and Body::* readback</text><text fill="#000000" font-family="Arial" font-size="11" lengthAdjust="spacing" textLength="308.7681" x="392.1469" y="1043.8059">5. Ambient hardware and IVI both reflect the BCM-owned result</text><!--SRC=[bLPHR-Cs37xNh-3QbsP8qtRhq8En793wwY70PJkiG-ybmA3OT2ASB7cIt5ptwqVATcAdULbU0blaH_BxAD8_X1rM2BMMoWZ_JPbQEbd1HkRVjiusfaYjjWuki_WRM1HOoaQ7p9hmkoI4XLDIdpz_LlyYtDqD3Zt-qw39SONUooqkjDeQoD44T0ChXxwsnlTMZwZjVk6StKDm3GeHLD0KkDeeyeJFQhiBocpXcS2aXeoir-PgQUec_9qIZYNZ6qX_-mhN7-4nNV6Vx9nj4yYCZfSlouaGCWzKzCKdfrxHzI3GWKmkG7fepuYO- -mXUnIKSL2vgYM1NOnYhiqBxbHEmJ_skKQ0BzAWXikd3zbjzZJsfnpNLBV6F601KgCBi9K1enyNm7BSf-dOYqfQcqD1UuCksdEb7ENXwSFOlYTETyIjpSOMRpqLld6bpDkGlULbbX9GTbBiot9j79g2sCYfvARg0jF1eJmndyDAcePqwS5QJkTp8JegIOwMamIUO-q7TIfR86kYNec4raYqfWEVhqxHOLeLITBvhSYDdYaxQRO8jxFPWp2MZ1nN3BRieDfCFCeg4TVd4EXjuqa9Q_GRx7Tem5EpIgViWfF2PK5rmAqW4e03Y09FikNw5r57weg0tmDaY4Mi_c19mef1ToPawl0vq56IzCqGCPxA4cFSp_XAsF_Fvw-t6j-x94bG5PBqgKRfJbZYn1PDi547PiB7RkmxqtEuAVk0atiehA6xevZJsLb668xvuEXzC_p1xUftgXvJGYP7eRjityi3LrNRMfpVH7HNkpLNvNcjs88gEQls200rML5la-lYQ7OLIu_yJriQcDSf35ayoMI44QTgvcmLmIOqU4R7NsIWKMYE1ZrKprS2fQiEM2OugrUURl0WHS8S1Zi-Tk3l8H_f-e_889_HknvezBA76oZCih72dsWA-U3eOi6BygnGsWs8iSmqAVfiU6YSoKJm-yDnEsrYXdF8jQpggtSUqtZV9oUjp94OenjKVZHYU6X9KIXFs_3jvZZI-BvEwTuhtPRciA9jwO5M9wL2LSLXUxxPEM0_u7wz7f2TousYdTSnMhSaGbCNv2NQh2qxjRxJ2FGdrhGJoLzo9uDh3FSRv3jUtdSp6E-wN1fAZnQj3sTl3OKVt1lnqookbjhPLrLWMztmcdT4G4a9Ive65IMHjwu_psAF5vWVF4l5EtZ4xirfjUA-zQkRZLP-HvxdcXeaqThA-oFJNV2tYVXbTk1o9rsnbmwZ8OkxiM57bcNS8PmC1RbcZGh-fA2FagDI_m40]--></g></svg>