<svg xmlns="http://www.w3.org/2000/svg" xmlns:xlink="http://www.w3.org/1999/xlink" contentStyleType="text/css" height="859px" preserveAspectRatio="none" style="width:802px;height:859px;background:#FFFFFF;" version="1.1" viewBox="0 0 802 859" width="802px" zoomAndPan="magnify"><title>BAT_BMS To CPC Charge-Port Signal Flow</title><defs/><g><text fill="#000000" font-family="Arial" font-size="22" font-weight="bold" lengthAdjust="spacing" textLength="453.46" x="173.2666" y="35.9956">BAT_BMS To CPC Charge-Port Signal Flow</text><text fill="#000000" font-family="Arial" font-size="22" font-weight="bold" lengthAdjust="spacing" textLength="739.0088" x="30.4922" y="61.2935">(BMS pack state + OBC + vehicle state -&gt; CPC charge-port publication)</text><rect fill="#FFFFFF" height="436.9785" style="stroke:#000000;stroke-width:1;" width="10" x="478.5288" y="277.436"/><line style="stroke:#000000;stroke-width:1;" x1="75" x2="75" y1="116.8936" y2="815.6592"/><line style="stroke:#000000;stroke-width:1;" x1="216.2168" x2="216.2168" y1="116.8936" y2="815.6592"/><line style="stroke:#000000;stroke-width:1;" x1="340.4336" x2="340.4336" y1="116.8936" y2="815.6592"/><line style="stroke:#000000;stroke-width:1;" x1="482.895" x2="482.895" y1="116.8936" y2="815.6592"/><line style="stroke:#000000;stroke-width:1;" x1="726.4502" x2="726.4502" y1="116.8936" y2="815.6592"/><rect fill="#E8F7E8" height="39.2979" rx="2.5" ry="2.5" style="stroke:#000000;stroke-width:1;" width="111.2168" x="20" y="76.5957"/><text fill="#000000" font-family="Arial" font-size="11" lengthAdjust="spacing" textLength="51.3477" x="49.9346" y="94.0935">BAT_BMS</text><text fill="#000000" font-family="Arial" font-size="11" lengthAdjust="spacing" textLength="97.2168" x="27" y="106.7424">pack-state producer</text><rect fill="#E8F7E8" height="39.2979" rx="2.5" ry="2.5" style="stroke:#000000;stroke-width:1;" width="111.2168" x="20" y="814.6592"/><text fill="#000000" font-family="Arial" font-size="11" lengthAdjust="spacing" textLength="51.3477" x="49.9346" y="832.157">BAT_BMS</text><text fill="#000000" font-family="Arial" font-size="11" lengthAdjust="spacing" textLength="97.2168" x="27" y="844.8059">pack-state producer</text><rect fill="#E8F0FE" height="39.2979" rx="2.5" ry="2.5" style="stroke:#000000;stroke-width:1;" width="111.2168" x="161.2168" y="76.5957"/><text fill="#000000" font-family="Arial" font-size="11" lengthAdjust="spacing" textLength="23.8369" x="204.9067" y="94.0935">OBC</text><text fill="#000000" font-family="Arial" font-size="11" lengthAdjust="spacing" textLength="97.2168" x="168.2168" y="106.7424">charge-source state</text><rect fill="#E8F0FE" height="39.2979" rx="2.5" ry="2.5" style="stroke:#000000;stroke-width:1;" width="111.2168" x="161.2168" y="814.6592"/><text fill="#000000" font-family="Arial" font-size="11" lengthAdjust="spacing" textLength="23.8369" x="204.9067" y="832.157">OBC</text><text fill="#000000" font-family="Arial" font-size="11" lengthAdjust="spacing" textLength="97.2168" x="168.2168" y="844.8059">charge-source state</text><rect fill="#F4F7FB" height="39.2979" rx="2.5" ry="2.5" style="stroke:#000000;stroke-width:1;" width="76.9814" x="302.4336" y="76.5957"/><text fill="#000000" font-family="Arial" font-size="11" lengthAdjust="spacing" textLength="62.9814" x="309.4336" y="94.0935">Vehicle state</text><text fill="#000000" font-family="Arial" font-size="11" lengthAdjust="spacing" textLength="51.353" x="315.2478" y="106.7424">DriveState</text><rect fill="#F4F7FB" height="39.2979" rx="2.5" ry="2.5" style="stroke:#000000;stroke-width:1;" width="76.9814" x="302.4336" y="814.6592"/><text fill="#000000" font-family="Arial" font-size="11" lengthAdjust="spacing" textLength="62.9814" x="309.4336" y="832.157">Vehicle state</text><text fill="#000000" font-family="Arial" font-size="11" lengthAdjust="spacing" textLength="51.353" x="315.2478" y="844.8059">DriveState</text><rect fill="#FFF4CC" height="39.2979" rx="2.5" ry="2.5" style="stroke:#000000;stroke-width:1;" width="103.2676" x="431.895" y="76.5957"/><text fill="#000000" font-family="Arial" font-size="11" lengthAdjust="spacing" textLength="23.2246" x="471.9165" y="94.0935">CPC</text><text fill="#000000" font-family="Arial" font-size="11" lengthAdjust="spacing" textLength="89.2676" x="438.895" y="106.7424">charge-port owner</text><rect fill="#FFF4CC" height="39.2979" rx="2.5" ry="2.5" style="stroke:#000000;stroke-width:1;" width="103.2676" x="431.895" y="814.6592"/><text fill="#000000" font-family="Arial" font-size="11" lengthAdjust="spacing" textLength="23.2246" x="471.9165" y="832.157">CPC</text><text fill="#000000" font-family="Arial" font-size="11" lengthAdjust="spacing" textLength="89.2676" x="438.895" y="844.8059">charge-port owner</text><rect fill="#FCE8FF" height="39.2979" rx="2.5" ry="2.5" style="stroke:#000000;stroke-width:1;" width="107.543" x="673.4502" y="76.5957"/><text fill="#000000" font-family="Arial" font-size="11" lengthAdjust="spacing" textLength="93.543" x="680.4502" y="94.0935">Charge observers /</text><text fill="#000000" font-family="Arial" font-size="11" lengthAdjust="spacing" textLength="75.813" x="689.3152" y="106.7424">comfort outputs</text><rect fill="#FCE8FF" height="39.2979" rx="2.5" ry="2.5" style="stroke:#000000;stroke-width:1;" width="107.543" x="673.4502" y="814.6592"/><text fill="#000000" font-family="Arial" font-size="11" lengthAdjust="spacing" textLength="93.543" x="680.4502" y="832.157">Charge observers /</text><text fill="#000000" font-family="Arial" font-size="11" lengthAdjust="spacing" textLength="75.813" x="689.3152" y="844.8059">comfort outputs</text><rect fill="#FFFFFF" height="436.9785" style="stroke:#000000;stroke-width:1;" width="10" x="478.5288" y="277.436"/><rect fill="#FFFFFF" height="3" style="stroke:#FFFFFF;stroke-width:1;" width="790.9932" x="5" y="146.218"/><line style="stroke:#000000;stroke-width:0.5;" x1="5" x2="795.9932" y1="146.218" y2="146.218"/><line style="stroke:#000000;stroke-width:0.5;" x1="5" x2="795.9932" y1="149.218" y2="149.218"/><rect fill="#FFFFFF" height="20.6489" style="stroke:#000000;stroke-width:1;" width="116.6685" x="342.1624" y="136.8936"/><text fill="#000000" font-family="Arial" font-size="11" font-weight="bold" lengthAdjust="spacing" textLength="99.6123" x="348.1624" y="151.3914">Charge-Port Inputs</text><polygon fill="#000000" points="471.5288,194.8403,481.5288,198.8403,471.5288,202.8403,475.5288,198.8403" style="stroke:#000000;stroke-width:1;"/><line style="stroke:#000000;stroke-width:1;" x1="75.6084" x2="477.5288" y1="198.8403" y2="198.8403"/><text fill="#000000" font-family="Arial" font-size="11" lengthAdjust="spacing" textLength="100.8584" x="229.1394" y="182.0403">frmBatBmsStateMsg</text><text fill="#000000" font-family="Arial" font-size="11" lengthAdjust="spacing" textLength="162.0029" x="198.5671" y="194.6892">BmsState / PackSoc / PackTemp</text><polygon fill="#000000" points="471.5288,234.1382,481.5288,238.1382,471.5288,242.1382,475.5288,238.1382" style="stroke:#000000;stroke-width:1;"/><line style="stroke:#000000;stroke-width:1;" x1="216.8252" x2="477.5288" y1="238.1382" y2="238.1382"/><text fill="#000000" font-family="Arial" font-size="11" lengthAdjust="spacing" textLength="146.1152" x="277.1194" y="221.3381">frmOnBoardChargerStateMsg</text><text fill="#000000" font-family="Arial" font-size="11" lengthAdjust="spacing" textLength="80.7061" x="309.824" y="233.9871">OBC / plug state</text><polygon fill="#000000" points="466.5288,273.436,476.5288,277.436,466.5288,281.436,470.5288,277.436" style="stroke:#000000;stroke-width:1;"/><line style="stroke:#000000;stroke-width:1;" x1="340.9243" x2="472.5288" y1="277.436" y2="277.436"/><text fill="#000000" font-family="Arial" font-size="11" lengthAdjust="spacing" textLength="118.6045" x="350.4243" y="260.636">frmVehicleStateCanMsg</text><text fill="#000000" font-family="Arial" font-size="11" lengthAdjust="spacing" textLength="51.353" x="384.05" y="273.2849">DriveState</text><line style="stroke:#000000;stroke-width:1;" x1="488.5288" x2="530.5288" y1="304.085" y2="304.085"/><line style="stroke:#000000;stroke-width:1;" x1="530.5288" x2="530.5288" y1="304.085" y2="317.085"/><line style="stroke:#000000;stroke-width:1;" x1="489.5288" x2="530.5288" y1="317.085" y2="317.085"/><polygon fill="#000000" points="499.5288,313.085,489.5288,317.085,499.5288,321.085,495.5288,317.085" style="stroke:#000000;stroke-width:1;"/><text fill="#000000" font-family="Arial" font-size="11" lengthAdjust="spacing" textLength="209.6929" x="495.5288" y="299.9338">normalize stale BMS / OBC / vehicle inputs</text><line style="stroke:#000000;stroke-width:1;" x1="488.5288" x2="530.5288" y1="343.7339" y2="343.7339"/><line style="stroke:#000000;stroke-width:1;" x1="530.5288" x2="530.5288" y1="343.7339" y2="356.7339"/><line style="stroke:#000000;stroke-width:1;" x1="489.5288" x2="530.5288" y1="356.7339" y2="356.7339"/><polygon fill="#000000" points="499.5288,352.7339,489.5288,356.7339,499.5288,360.7339,495.5288,356.7339" style="stroke:#000000;stroke-width:1;"/><text fill="#000000" font-family="Arial" font-size="11" lengthAdjust="spacing" textLength="158.979" x="495.5288" y="339.5828">derive PortLockState / PlugState</text><line style="stroke:#000000;stroke-width:1;" x1="488.5288" x2="530.5288" y1="383.3828" y2="383.3828"/><line style="stroke:#000000;stroke-width:1;" x1="530.5288" x2="530.5288" y1="383.3828" y2="396.3828"/><line style="stroke:#000000;stroke-width:1;" x1="489.5288" x2="530.5288" y1="396.3828" y2="396.3828"/><polygon fill="#000000" points="499.5288,392.3828,489.5288,396.3828,499.5288,400.3828,495.5288,396.3828" style="stroke:#000000;stroke-width:1;"/><text fill="#000000" font-family="Arial" font-size="11" lengthAdjust="spacing" textLength="178.5405" x="495.5288" y="379.2317">derive ChargeEnable / ThermalState</text><line style="stroke:#000000;stroke-width:1;" x1="488.5288" x2="530.5288" y1="423.0317" y2="423.0317"/><line style="stroke:#000000;stroke-width:1;" x1="530.5288" x2="530.5288" y1="423.0317" y2="436.0317"/><line style="stroke:#000000;stroke-width:1;" x1="489.5288" x2="530.5288" y1="436.0317" y2="436.0317"/><polygon fill="#000000" points="499.5288,432.0317,489.5288,436.0317,499.5288,440.0317,495.5288,436.0317" style="stroke:#000000;stroke-width:1;"/><text fill="#000000" font-family="Arial" font-size="11" lengthAdjust="spacing" textLength="119.8398" x="495.5288" y="418.8806">derive ChargeTargetSoc</text><path d="M493,449.0317 L493,623.0317 L627,623.0317 L627,459.0317 L617,449.0317 L493,449.0317 " fill="#FFFFFF" style="stroke:#000000;stroke-width:1;"/><path d="M617,449.0317 L617,459.0317 L627,459.0317 L617,449.0317 " fill="#FFFFFF" style="stroke:#000000;stroke-width:1;"/><text fill="#000000" font-family="Arial" font-size="11" lengthAdjust="spacing" textLength="106.396" x="499" y="464.5295">Representative inputs</text><text fill="#000000" font-family="Arial" font-size="11" lengthAdjust="spacing" textLength="54.4038" x="499" y="477.1785">- BmsState</text><text fill="#000000" font-family="Arial" font-size="11" lengthAdjust="spacing" textLength="50.1284" x="499" y="489.8274">- PackSoc</text><text fill="#000000" font-family="Arial" font-size="11" lengthAdjust="spacing" textLength="59.2915" x="499" y="502.4763">- PackTemp</text><text fill="#000000" font-family="Arial" font-size="11" lengthAdjust="spacing" textLength="57.46" x="499" y="515.1252">- OBC state</text><text fill="#000000" font-family="Arial" font-size="11" lengthAdjust="spacing" textLength="58.0723" x="499" y="527.7742">- DriveState</text><text fill="#000000" font-family="Arial" font-size="11" lengthAdjust="spacing" textLength="3.0562" x="499" y="540.4231">&#160;</text><text fill="#000000" font-family="Arial" font-size="11" lengthAdjust="spacing" textLength="113.126" x="499" y="553.072">Representative outputs</text><text fill="#000000" font-family="Arial" font-size="11" lengthAdjust="spacing" textLength="75.813" x="499" y="565.7209">- PortLockState</text><text fill="#000000" font-family="Arial" font-size="11" lengthAdjust="spacing" textLength="54.4199" x="499" y="578.3699">- PlugState</text><text fill="#000000" font-family="Arial" font-size="11" lengthAdjust="spacing" textLength="77.0483" x="499" y="591.0188">- ChargeEnable</text><text fill="#000000" font-family="Arial" font-size="11" lengthAdjust="spacing" textLength="72.7461" x="499" y="603.6677">- ThermalState</text><text fill="#000000" font-family="Arial" font-size="11" lengthAdjust="spacing" textLength="93.543" x="499" y="616.3167">- ChargeTargetSoc</text><rect fill="#FFFFFF" height="3" style="stroke:#FFFFFF;stroke-width:1;" width="790.9932" x="5" y="647.7922"/><line style="stroke:#000000;stroke-width:0.5;" x1="5" x2="795.9932" y1="647.7922" y2="647.7922"/><line style="stroke:#000000;stroke-width:0.5;" x1="5" x2="795.9932" y1="650.7922" y2="650.7922"/><rect fill="#FFFFFF" height="20.6489" style="stroke:#000000;stroke-width:1;" width="123.3984" x="338.7974" y="638.4678"/><text fill="#000000" font-family="Arial" font-size="11" font-weight="bold" lengthAdjust="spacing" textLength="106.3423" x="344.7974" y="652.9656">Charge-Port Publish</text><polygon fill="#000000" points="715.2217,683.7656,725.2217,687.7656,715.2217,691.7656,719.2217,687.7656" style="stroke:#000000;stroke-width:1;"/><line style="stroke:#000000;stroke-width:1;" x1="488.5288" x2="721.2217" y1="687.7656" y2="687.7656"/><text fill="#000000" font-family="Arial" font-size="11" lengthAdjust="spacing" textLength="118.5991" x="548.5757" y="683.6145">frmChargePortStateMsg</text><polygon fill="#000000" points="715.2217,710.4146,725.2217,714.4146,715.2217,718.4146,719.2217,714.4146" style="stroke:#000000;stroke-width:1;"/><line style="stroke:#000000;stroke-width:1;" x1="483.5288" x2="721.2217" y1="714.4146" y2="714.4146"/><text fill="#000000" font-family="Arial" font-size="11" lengthAdjust="spacing" textLength="177.3105" x="516.72" y="710.2634">traceable charge-port / thermal state</text><path d="M13,727.4146 L13,800.4146 L788,800.4146 L788,737.4146 L778,727.4146 L13,727.4146 " fill="#FFFFFF" style="stroke:#000000;stroke-width:1;"/><path d="M778,727.4146 L778,737.4146 L788,737.4146 L778,727.4146 " fill="#FFFFFF" style="stroke:#000000;stroke-width:1;"/><text fill="#000000" font-family="Arial" font-size="11" lengthAdjust="spacing" textLength="143.0752" x="260.1487" y="742.9124">Representative runtime chain</text><text fill="#000000" font-family="Arial" font-size="11" lengthAdjust="spacing" textLength="265.9712" x="260.1487" y="755.5613">1. BAT_BMS publishes pack state and thermal context</text><text fill="#000000" font-family="Arial" font-size="11" lengthAdjust="spacing" textLength="257.9951" x="260.1487" y="768.2102">2. CPC combines BMS, OBC, and vehicle drive state</text><text fill="#000000" font-family="Arial" font-size="11" lengthAdjust="spacing" textLength="270.8589" x="260.1487" y="780.8591">3. CPC derives charge-port lock/enable/thermal outputs</text><text fill="#000000" font-family="Arial" font-size="11" lengthAdjust="spacing" textLength="272.6958" x="260.1487" y="793.5081">4. Charge observers and tests verify charging readiness</text><!--SRC=[XLHXRzCm4FtkNt5iNq2iAuDAcv2Ar8H6GcAieXMVAY4tkQRM4ZlOJWVyUkxif4ksIUn3bIptthttxknN_e0rGbD9fOMxLxgHLjQma_bzQKshYzHKni9v5lu65GNkPLlvp6Z_JHB3mYfPlVnzhVuYN5qDFZhyrQBEyHQTaoKkAbLgo55xj8CgYwunslLL2LRcOM6jUG1lMnJ2AryX98lDp-Hs3Hi3wIg5z21jYPELiHxMH2iho0YtrQ-vg25VuBpq26_XBadfzuW7bHDF_E_aKs398ql3B4sxgrGklJBwZH0apQjSDL9xEEjwRpNpJY93OqtHvcZFG3hWdkVBc-nwUJD6Kk-jxheuqzgy4n1GB8nHxxBb6FLZg7MhFrjrnFK9HbzfKBFiEal6C79qQXOicGVT2MIpFDnPcZx1X78mEuVsYDR1b2XClG_mrZUjTr7hpX51Icep8URpKVvVD9V1V2u41z5b-n7sjawaJseNjD-wSglx5vZ2Yh9Scxnxsc3T20vaYBxJYP6sYBti8mlNJMcPsp9693YI8R0BC21IgGFeCKKXSw-Eh880Wa4dh3QsbXKlCX7prf6VASH-_GQfO7UCAv3PWUFuQiXNxv4anfOlLKTVIort5HTl3iZD_rU_uHzFoGbjg8bLvO56jGzUlcD3fuaE6AtnyQHq0dtizDZ5tZs5s2V1eEiA1ZazvUiMWh53e_n-CZePsQBNaQt9CnEe2s0ZpxPgnUVH7S9QTMdm4eRvnZekwvTYNEAjp374EZmEK_1HI-UrmD4Yn3mDdG8U-mLJFGt0jjghEh3IFNfrURgLcYWMtV3gaMIjxvZJ1Oc_lNX_6IyUK- -KHjTrIjABKDslM17c7LL-Y8Yu0svagA89J344FUqRzJEQNSApinq4eQEpIgzg_oUIALtI7ImBrkCUv_4F]--></g></svg>