<svg xmlns="http://www.w3.org/2000/svg" xmlns:xlink="http://www.w3.org/1999/xlink" contentStyleType="text/css" height="907px" preserveAspectRatio="none" style="width:777px;height:907px;background:#FFFFFF;" version="1.1" viewBox="0 0 777 907" width="777px" zoomAndPan="magnify"><title>Boundary Fail-safe To Gateway Security Signal Flow</title><defs/><g><text fill="#000000" font-family="Arial" font-size="22" font-weight="bold" lengthAdjust="spacing" textLength="548.9043" x="112.8199" y="35.9956">Boundary Fail-safe To Gateway Security Signal Flow</text><text fill="#000000" font-family="Arial" font-size="22" font-weight="bold" lengthAdjust="spacing" textLength="736.624" x="18.9601" y="61.2935">(boundary/fail-safe/service context -&gt; SGW diagnostic security seams)</text><line style="stroke:#000000;stroke-width:1;" x1="69" x2="69" y1="116.8936" y2="863.6592"/><line style="stroke:#000000;stroke-width:1;" x1="212.9922" x2="212.9922" y1="116.8936" y2="863.6592"/><line style="stroke:#000000;stroke-width:1;" x1="540.8044" x2="540.8044" y1="116.8936" y2="863.6592"/><line style="stroke:#000000;stroke-width:1;" x1="701.6296" x2="701.6296" y1="116.8936" y2="863.6592"/><rect fill="#F4F7FB" height="39.2979" rx="2.5" ry="2.5" style="stroke:#000000;stroke-width:1;" width="98.9922" x="20" y="76.5957"/><text fill="#000000" font-family="Arial" font-size="11" lengthAdjust="spacing" textLength="84.9922" x="27" y="94.0935">Core / boundary /</text><text fill="#000000" font-family="Arial" font-size="11" lengthAdjust="spacing" textLength="73.3638" x="32.8142" y="106.7424">service context</text><rect fill="#F4F7FB" height="39.2979" rx="2.5" ry="2.5" style="stroke:#000000;stroke-width:1;" width="98.9922" x="20" y="862.6592"/><text fill="#000000" font-family="Arial" font-size="11" lengthAdjust="spacing" textLength="84.9922" x="27" y="880.157">Core / boundary /</text><text fill="#000000" font-family="Arial" font-size="11" lengthAdjust="spacing" textLength="73.3638" x="32.8142" y="892.8059">service context</text><rect fill="#E8F7E8" height="39.2979" rx="2.5" ry="2.5" style="stroke:#000000;stroke-width:1;" width="128.9414" x="148.9922" y="76.5957"/><text fill="#000000" font-family="Arial" font-size="11" lengthAdjust="spacing" textLength="26.2754" x="200.3252" y="94.0935">SGW</text><text fill="#000000" font-family="Arial" font-size="11" lengthAdjust="spacing" textLength="114.9414" x="155.9922" y="106.7424">gateway security owner</text><rect fill="#E8F7E8" height="39.2979" rx="2.5" ry="2.5" style="stroke:#000000;stroke-width:1;" width="128.9414" x="148.9922" y="862.6592"/><text fill="#000000" font-family="Arial" font-size="11" lengthAdjust="spacing" textLength="26.2754" x="200.3252" y="880.157">SGW</text><text fill="#000000" font-family="Arial" font-size="11" lengthAdjust="spacing" textLength="114.9414" x="155.9922" y="892.8059">gateway security owner</text><rect fill="#FFF4CC" height="39.2979" rx="2.5" ry="2.5" style="stroke:#000000;stroke-width:1;" width="81.8745" x="500.8044" y="76.5957"/><text fill="#000000" font-family="Arial" font-size="11" lengthAdjust="spacing" textLength="64.1899" x="509.6467" y="94.0935">Diag seams /</text><text fill="#000000" font-family="Arial" font-size="11" lengthAdjust="spacing" textLength="67.8745" x="507.8044" y="106.7424">gateway state</text><rect fill="#FFF4CC" height="39.2979" rx="2.5" ry="2.5" style="stroke:#000000;stroke-width:1;" width="81.8745" x="500.8044" y="862.6592"/><text fill="#000000" font-family="Arial" font-size="11" lengthAdjust="spacing" textLength="64.1899" x="509.6467" y="880.157">Diag seams /</text><text fill="#000000" font-family="Arial" font-size="11" lengthAdjust="spacing" textLength="67.8745" x="507.8044" y="892.8059">gateway state</text><rect fill="#E8F0FE" height="26.6489" rx="2.5" ry="2.5" style="stroke:#000000;stroke-width:1;" width="106.9146" x="648.6296" y="89.2446"/><text fill="#000000" font-family="Arial" font-size="11" lengthAdjust="spacing" textLength="92.9146" x="655.6296" y="106.7424">Observers / testers</text><rect fill="#E8F0FE" height="26.6489" rx="2.5" ry="2.5" style="stroke:#000000;stroke-width:1;" width="106.9146" x="648.6296" y="862.6592"/><text fill="#000000" font-family="Arial" font-size="11" lengthAdjust="spacing" textLength="92.9146" x="655.6296" y="880.157">Observers / testers</text><rect fill="#FFFFFF" height="3" style="stroke:#FFFFFF;stroke-width:1;" width="765.5442" x="5" y="146.218"/><line style="stroke:#000000;stroke-width:0.5;" x1="5" x2="770.5442" y1="146.218" y2="146.218"/><line style="stroke:#000000;stroke-width:0.5;" x1="5" x2="770.5442" y1="149.218" y2="149.218"/><rect fill="#FFFFFF" height="20.6489" style="stroke:#000000;stroke-width:1;" width="152.7568" x="311.3937" y="136.8936"/><text fill="#000000" font-family="Arial" font-size="11" font-weight="bold" lengthAdjust="spacing" textLength="135.7007" x="317.3937" y="151.3914">Boundary / Service Inputs</text><polygon fill="#000000" points="201.4629,232.7871,211.4629,236.7871,201.4629,240.7871,205.4629,236.7871" style="stroke:#000000;stroke-width:1;"/><line style="stroke:#000000;stroke-width:1;" x1="69.4961" x2="207.4629" y1="236.7871" y2="236.7871"/><text fill="#000000" font-family="Arial" font-size="11" lengthAdjust="spacing" textLength="114.3506" x="84.3042" y="182.0403">domainBoundaryStatus</text><text fill="#000000" font-family="Arial" font-size="11" lengthAdjust="spacing" textLength="92.3345" x="95.3123" y="194.6892">warningPathStatus</text><text fill="#000000" font-family="Arial" font-size="11" lengthAdjust="spacing" textLength="64.2061" x="109.3765" y="207.3381">failSafeMode</text><text fill="#000000" font-family="Arial" font-size="11" lengthAdjust="spacing" textLength="55.0269" x="113.9661" y="219.9871">routeActive</text><text fill="#000000" font-family="Arial" font-size="11" lengthAdjust="spacing" textLength="47.6953" x="117.6318" y="232.636">alertLevel</text><line style="stroke:#000000;stroke-width:1;" x1="213.4629" x2="255.4629" y1="263.436" y2="263.436"/><line style="stroke:#000000;stroke-width:1;" x1="255.4629" x2="255.4629" y1="263.436" y2="276.436"/><line style="stroke:#000000;stroke-width:1;" x1="214.4629" x2="255.4629" y1="276.436" y2="276.436"/><polygon fill="#000000" points="224.4629,272.436,214.4629,276.436,224.4629,280.436,220.4629,276.436" style="stroke:#000000;stroke-width:1;"/><text fill="#000000" font-family="Arial" font-size="11" lengthAdjust="spacing" textLength="192.3228" x="220.4629" y="259.2849">diagStage = ethDiagBoundaryStage(...)</text><line style="stroke:#000000;stroke-width:1;" x1="213.4629" x2="255.4629" y1="303.085" y2="303.085"/><line style="stroke:#000000;stroke-width:1;" x1="255.4629" x2="255.4629" y1="303.085" y2="316.085"/><line style="stroke:#000000;stroke-width:1;" x1="214.4629" x2="255.4629" y1="316.085" y2="316.085"/><polygon fill="#000000" points="224.4629,312.085,214.4629,316.085,224.4629,320.085,220.4629,316.085" style="stroke:#000000;stroke-width:1;"/><text fill="#000000" font-family="Arial" font-size="11" lengthAdjust="spacing" textLength="314.2788" x="220.4629" y="298.9338">securitySession derived from diagStage / routeActive / authState</text><line style="stroke:#000000;stroke-width:1;" x1="213.4629" x2="255.4629" y1="342.7339" y2="342.7339"/><line style="stroke:#000000;stroke-width:1;" x1="255.4629" x2="255.4629" y1="342.7339" y2="355.7339"/><line style="stroke:#000000;stroke-width:1;" x1="214.4629" x2="255.4629" y1="355.7339" y2="355.7339"/><polygon fill="#000000" points="224.4629,351.7339,214.4629,355.7339,224.4629,359.7339,220.4629,355.7339" style="stroke:#000000;stroke-width:1;"/><text fill="#000000" font-family="Arial" font-size="11" lengthAdjust="spacing" textLength="275.4458" x="220.4629" y="338.5828">securityFault = ethDiagStageToSecurityFault(diagStage)</text><line style="stroke:#000000;stroke-width:1;" x1="213.4629" x2="255.4629" y1="382.3828" y2="382.3828"/><line style="stroke:#000000;stroke-width:1;" x1="255.4629" x2="255.4629" y1="382.3828" y2="395.3828"/><line style="stroke:#000000;stroke-width:1;" x1="214.4629" x2="255.4629" y1="395.3828" y2="395.3828"/><polygon fill="#000000" points="224.4629,391.3828,214.4629,395.3828,224.4629,399.3828,220.4629,395.3828" style="stroke:#000000;stroke-width:1;"/><text fill="#000000" font-family="Arial" font-size="11" lengthAdjust="spacing" textLength="245.4858" x="220.4629" y="378.2317">securityPolicy = ethDiagStageToPolicy(diagStage)</text><path d="M218,408.3828 L218,481.3828 L378,481.3828 L378,418.3828 L368,408.3828 L218,408.3828 " fill="#FFFFFF" style="stroke:#000000;stroke-width:1;"/><path d="M368,408.3828 L368,418.3828 L378,418.3828 L368,408.3828 " fill="#FFFFFF" style="stroke:#000000;stroke-width:1;"/><text fill="#000000" font-family="Arial" font-size="11" lengthAdjust="spacing" textLength="139.4229" x="224" y="423.8806">Representative gating inputs</text><text fill="#000000" font-family="Arial" font-size="11" lengthAdjust="spacing" textLength="76.4307" x="224" y="436.5295">- boundaryAlive</text><text fill="#000000" font-family="Arial" font-size="11" lengthAdjust="spacing" textLength="99.0537" x="224" y="449.1785">- warningPathStatus</text><text fill="#000000" font-family="Arial" font-size="11" lengthAdjust="spacing" textLength="70.9253" x="224" y="461.8274">- failSafeMode</text><text fill="#000000" font-family="Arial" font-size="11" lengthAdjust="spacing" textLength="118.6099" x="224" y="474.4763">- routeActive / alertLevel</text><rect fill="#FFFFFF" height="3" style="stroke:#FFFFFF;stroke-width:1;" width="765.5442" x="5" y="505.9519"/><line style="stroke:#000000;stroke-width:0.5;" x1="5" x2="770.5442" y1="505.9519" y2="505.9519"/><line style="stroke:#000000;stroke-width:0.5;" x1="5" x2="770.5442" y1="508.9519" y2="508.9519"/><rect fill="#FFFFFF" height="20.6489" style="stroke:#000000;stroke-width:1;" width="103.2461" x="336.149" y="496.6274"/><text fill="#000000" font-family="Arial" font-size="11" font-weight="bold" lengthAdjust="spacing" textLength="86.1899" x="342.149" y="511.1252">Security Publish</text><polygon fill="#000000" points="529.7417,541.9253,539.7417,545.9253,529.7417,549.9253,533.7417,545.9253" style="stroke:#000000;stroke-width:1;"/><line style="stroke:#000000;stroke-width:1;" x1="213.4629" x2="535.7417" y1="545.9253" y2="545.9253"/><text fill="#000000" font-family="Arial" font-size="11" lengthAdjust="spacing" textLength="165.0752" x="295.0647" y="541.7742">Diag::SecurityState / RouteOwner</text><polygon fill="#000000" points="529.7417,568.5742,539.7417,572.5742,529.7417,576.5742,533.7417,572.5742" style="stroke:#000000;stroke-width:1;"/><line style="stroke:#000000;stroke-width:1;" x1="213.4629" x2="535.7417" y1="572.5742" y2="572.5742"/><text fill="#000000" font-family="Arial" font-size="11" lengthAdjust="spacing" textLength="173.0405" x="291.082" y="568.4231">Diag::SessionState / GatewayOpen</text><polygon fill="#000000" points="529.7417,595.2231,539.7417,599.2231,529.7417,603.2231,533.7417,599.2231" style="stroke:#000000;stroke-width:1;"/><line style="stroke:#000000;stroke-width:1;" x1="213.4629" x2="535.7417" y1="599.2231" y2="599.2231"/><text fill="#000000" font-family="Arial" font-size="11" lengthAdjust="spacing" textLength="171.1714" x="292.0166" y="595.072">Diag::SecurityFault / SecurityPolicy</text><path d="M218,612.2231 L218,685.2231 L388,685.2231 L388,622.2231 L378,612.2231 L218,612.2231 " fill="#FFFFFF" style="stroke:#000000;stroke-width:1;"/><path d="M378,612.2231 L378,622.2231 L388,622.2231 L378,612.2231 " fill="#FFFFFF" style="stroke:#000000;stroke-width:1;"/><text fill="#000000" font-family="Arial" font-size="11" lengthAdjust="spacing" textLength="113.126" x="224" y="627.7209">Representative outputs</text><text fill="#000000" font-family="Arial" font-size="11" lengthAdjust="spacing" textLength="72.1392" x="224" y="640.3699">- SecurityState</text><text fill="#000000" font-family="Arial" font-size="11" lengthAdjust="spacing" textLength="68.4707" x="224" y="653.0188">- RouteOwner</text><text fill="#000000" font-family="Arial" font-size="11" lengthAdjust="spacing" textLength="71.5376" x="224" y="665.6677">- SessionState</text><text fill="#000000" font-family="Arial" font-size="11" lengthAdjust="spacing" textLength="149.1553" x="224" y="678.3167">- SecurityFault / SecurityPolicy</text><rect fill="#FFFFFF" height="3" style="stroke:#FFFFFF;stroke-width:1;" width="765.5442" x="5" y="709.7922"/><line style="stroke:#000000;stroke-width:0.5;" x1="5" x2="770.5442" y1="709.7922" y2="709.7922"/><line style="stroke:#000000;stroke-width:0.5;" x1="5" x2="770.5442" y1="712.7922" y2="712.7922"/><rect fill="#FFFFFF" height="20.6489" style="stroke:#000000;stroke-width:1;" width="131.3638" x="322.0902" y="700.4678"/><text fill="#000000" font-family="Arial" font-size="11" font-weight="bold" lengthAdjust="spacing" textLength="114.3076" x="328.0902" y="714.9656">Downstream Visibility</text><polygon fill="#000000" points="690.0869,758.4146,700.0869,762.4146,690.0869,766.4146,694.0869,762.4146" style="stroke:#000000;stroke-width:1;"/><line style="stroke:#000000;stroke-width:1;" x1="541.7417" x2="696.0869" y1="762.4146" y2="762.4146"/><text fill="#000000" font-family="Arial" font-size="11" lengthAdjust="spacing" textLength="136.3452" x="553.7417" y="745.6145">gateway security readback /</text><text fill="#000000" font-family="Arial" font-size="11" lengthAdjust="spacing" textLength="117.4067" x="563.2109" y="758.2634">diagnostic test evidence</text><path d="M10,775.4146 L10,848.4146 L760,848.4146 L760,785.4146 L750,775.4146 L10,775.4146 " fill="#FFFFFF" style="stroke:#000000;stroke-width:1;"/><path d="M750,775.4146 L750,785.4146 L760,785.4146 L750,775.4146 " fill="#FFFFFF" style="stroke:#000000;stroke-width:1;"/><text fill="#000000" font-family="Arial" font-size="11" lengthAdjust="spacing" textLength="143.0752" x="219.36" y="790.9124">Representative runtime chain</text><text fill="#000000" font-family="Arial" font-size="11" lengthAdjust="spacing" textLength="220.7251" x="219.36" y="803.5613">1. Boundary and fail-safe context reach SGW</text><text fill="#000000" font-family="Arial" font-size="11" lengthAdjust="spacing" textLength="262.292" x="219.36" y="816.2102">2. SGW derives diagnostic stage and security session</text><text fill="#000000" font-family="Arial" font-size="11" lengthAdjust="spacing" textLength="273.9043" x="219.36" y="828.8591">3. SGW publishes security state and route owner seams</text><text fill="#000000" font-family="Arial" font-size="11" lengthAdjust="spacing" textLength="322.8242" x="219.36" y="841.5081">4. Testers and observers see the current gateway security posture</text><!--SRC=[XLLDJnin4BtxLqpX0bB9bXO952cLai2YIgKW5hMNN9pToSR2iRUsDu7- -ewztmc8dDOVxysRvvd99xV63K8XkL3CFWjLSCCtiEJfSsvqgRAvbjh0SHn-lHiPhdWfNQoL-yM9OMe4bs-V9-8Vmlbvxz3Ytn9LYdTeBSznAaMk84NbqFHk6RI5LhQvDKEfTrDZz0wSAP4n9vn4c7cLtBn2p8Kyito5yAJXbZlSyLT8C2sDSFH18RY4c3WMwcHPWw9L0ueicgr84L9IZ2yEphv3Sli7Ci5pfQqJAQckkIpoZJrbZ6JIlYYuSd0qrmOXWeOPeeNQepm2RbkvS_T2hbx4b_5io4D15oglvRSXzKwX2GHUrF7DLNnvSpK4NfFIIfgFtJ8u-WX0VpuhRNZBY_by2BvVUh5e20iEBJs43I3Q3z6-n3UCJIQTsn5PMsNtGnMbip2PCDPFhlPl39dUK74rHmdfAUr2xRXHGkKFtAsRBVyM2Jt5dSvmeQZw74vJ9xQqu1AD-ubRbCoJTjoK4y5pX0cWMuSKkq0vden6ezCXfB4qeQeIMb6X6WgHmSheJOylWfu0Ml6o4efliyM-s3iHWUD99_tJavRy7KKFMehqzO2askwZbNO8HkHh1thbITWZ5jGjr40yoAN79sz1X9TXPsrHKgDjaTO7vjDUttrQxcNV-Oyg0oyWb4FRNW_bKWgx3bLG9zVKspXyZSVDtU0YSJxw2FU-hjz7X2Tg07LFtnUeFefHFKVKwgiy_DWuabHRDb1BwvvQVzW9wzrz9-h0iMlgPEiCjIdy5bOiXVJsUTkQN2WjttLZE1W2XChyPFRztPjBlby1joBp8vLLIMhgvVwi-UmvzxCrfNA2PdUwzjF_VDHrDoV9xMXiHoB5JzV1jg-ZQZY6th638Hcwn-DxupAunRvLeA8g5O9rDy8BUr0ekshQLRECNOpWgHf8uO9k1vL51Fht0k8mbDAXNGKfAWrs_ly7]--></g></svg>