<svg xmlns="http://www.w3.org/2000/svg" xmlns:xlink="http://www.w3.org/1999/xlink" contentStyleType="text/css" height="1499px" preserveAspectRatio="none" style="width:1247px;height:1499px;background:#FFFFFF;" version="1.1" viewBox="0 0 1247 1499" width="1247px" zoomAndPan="magnify"><title>Brake Lamp And ABS Signal Flow</title><defs/><g><text fill="#000000" font-family="Arial" font-size="22" font-weight="bold" lengthAdjust="spacing" textLength="355.7168" x="444.4196" y="35.9956">Brake Lamp And ABS Signal Flow</text><text fill="#000000" font-family="Arial" font-size="22" font-weight="bold" lengthAdjust="spacing" textLength="401.5215" x="421.5172" y="61.2935">(Input_Console -&gt; ESC -&gt; ABS -&gt; CLU)</text><rect fill="#FFFFFF" height="32.6489" style="stroke:#000000;stroke-width:1;" width="10" x="314.6812" y="232.1914"/><rect fill="#FFFFFF" height="125.5957" style="stroke:#000000;stroke-width:1;" width="10" x="495.9355" y="266.8403"/><rect fill="#FFFFFF" height="415.7339" style="stroke:#000000;stroke-width:1;" width="10" x="652.4385" y="392.436"/><rect fill="#FFFFFF" height="289.1382" style="stroke:#000000;stroke-width:1;" width="10" x="908.0928" y="808.1699"/><rect fill="#FFFFFF" height="169.5425" style="stroke:#000000;stroke-width:1;" width="10" x="1172.2817" y="1099.3081"/><line style="stroke:#000000;stroke-width:1;" x1="56" x2="56" y1="162.8936" y2="1409.3931"/><line style="stroke:#000000;stroke-width:1;" x1="319.1462" x2="319.1462" y1="162.8936" y2="1409.3931"/><line style="stroke:#000000;stroke-width:1;" x1="500.7937" x2="500.7937" y1="162.8936" y2="1409.3931"/><line style="stroke:#000000;stroke-width:1;" x1="657.0774" x2="657.0774" y1="162.8936" y2="1409.3931"/><line style="stroke:#000000;stroke-width:1;" x1="912.979" x2="912.979" y1="162.8936" y2="1409.3931"/><line style="stroke:#000000;stroke-width:1;" x1="1177.0076" x2="1177.0076" y1="162.8936" y2="1409.3931"/><text fill="#000000" font-family="Arial" font-size="11" lengthAdjust="spacing" textLength="29.3315" x="38.9373" y="148.0935">Driver</text><text fill="#000000" font-family="Arial" font-size="11" lengthAdjust="spacing" textLength="75.2061" x="16" y="160.7424">(Input Console)</text><ellipse cx="56.603" cy="85.5957" fill="#F4F7FB" rx="8" ry="8" style="stroke:#000000;stroke-width:1;"/><path d="M56.603,93.5957 L56.603,120.5957 M43.603,101.5957 L69.603,101.5957 M56.603,120.5957 L43.603,135.5957 M56.603,120.5957 L69.603,135.5957 " fill="none" style="stroke:#000000;stroke-width:1;"/><text fill="#000000" font-family="Arial" font-size="11" lengthAdjust="spacing" textLength="29.3315" x="38.9373" y="1418.8909">Driver</text><text fill="#000000" font-family="Arial" font-size="11" lengthAdjust="spacing" textLength="75.2061" x="16" y="1431.5398">(Input Console)</text><ellipse cx="56.603" cy="1442.6909" fill="#F4F7FB" rx="8" ry="8" style="stroke:#000000;stroke-width:1;"/><path d="M56.603,1450.6909 L56.603,1477.6909 M43.603,1458.6909 L69.603,1458.6909 M56.603,1477.6909 L43.603,1492.6909 M56.603,1477.6909 L69.603,1492.6909 " fill="none" style="stroke:#000000;stroke-width:1;"/><rect fill="#E8F0FE" height="39.2979" rx="2.5" ry="2.5" style="stroke:#000000;stroke-width:1;" width="135.0698" x="252.1462" y="122.5957"/><text fill="#000000" font-family="Arial" font-size="11" lengthAdjust="spacing" textLength="70.9414" x="284.2104" y="140.0935">Input_Console</text><text fill="#000000" font-family="Arial" font-size="11" lengthAdjust="spacing" textLength="121.0698" x="259.1462" y="152.7424">Vehicle &gt; Pedal + Cruise</text><rect fill="#E8F0FE" height="39.2979" rx="2.5" ry="2.5" style="stroke:#000000;stroke-width:1;" width="135.0698" x="252.1462" y="1408.3931"/><text fill="#000000" font-family="Arial" font-size="11" lengthAdjust="spacing" textLength="70.9414" x="284.2104" y="1425.8909">Input_Console</text><text fill="#000000" font-family="Arial" font-size="11" lengthAdjust="spacing" textLength="121.0698" x="259.1462" y="1438.5398">Vehicle &gt; Pedal + Cruise</text><rect fill="#E8F7E8" height="39.2979" rx="2.5" ry="2.5" style="stroke:#000000;stroke-width:1;" width="114.2837" x="443.7937" y="122.5957"/><text fill="#000000" font-family="Arial" font-size="11" lengthAdjust="spacing" textLength="23.2246" x="489.3232" y="140.0935">VCU</text><text fill="#000000" font-family="Arial" font-size="11" lengthAdjust="spacing" textLength="100.2837" x="450.7937" y="152.7424">vehicle speed owner</text><rect fill="#E8F7E8" height="39.2979" rx="2.5" ry="2.5" style="stroke:#000000;stroke-width:1;" width="114.2837" x="443.7937" y="1408.3931"/><text fill="#000000" font-family="Arial" font-size="11" lengthAdjust="spacing" textLength="23.2246" x="489.3232" y="1425.8909">VCU</text><text fill="#000000" font-family="Arial" font-size="11" lengthAdjust="spacing" textLength="100.2837" x="450.7937" y="1438.5398">vehicle speed owner</text><rect fill="#FFE6E6" height="39.2979" rx="2.5" ry="2.5" style="stroke:#000000;stroke-width:1;" width="138.7222" x="588.0774" y="122.5957"/><text fill="#000000" font-family="Arial" font-size="11" lengthAdjust="spacing" textLength="22.6177" x="646.1296" y="140.0935">ESC</text><text fill="#000000" font-family="Arial" font-size="11" lengthAdjust="spacing" textLength="124.7222" x="595.0774" y="152.7424">brake / brake-lamp owner</text><rect fill="#FFE6E6" height="39.2979" rx="2.5" ry="2.5" style="stroke:#000000;stroke-width:1;" width="138.7222" x="588.0774" y="1408.3931"/><text fill="#000000" font-family="Arial" font-size="11" lengthAdjust="spacing" textLength="22.6177" x="646.1296" y="1425.8909">ESC</text><text fill="#000000" font-family="Arial" font-size="11" lengthAdjust="spacing" textLength="124.7222" x="595.0774" y="1438.5398">brake / brake-lamp owner</text><rect fill="#FFF4CC" height="39.2979" rx="2.5" ry="2.5" style="stroke:#000000;stroke-width:1;" width="166.2275" x="829.979" y="122.5957"/><text fill="#000000" font-family="Arial" font-size="11" lengthAdjust="spacing" textLength="22.0107" x="902.0874" y="140.0935">ABS</text><text fill="#000000" font-family="Arial" font-size="11" lengthAdjust="spacing" textLength="152.2275" x="836.979" y="152.7424">wheel-slip / pressure command</text><rect fill="#FFF4CC" height="39.2979" rx="2.5" ry="2.5" style="stroke:#000000;stroke-width:1;" width="166.2275" x="829.979" y="1408.3931"/><text fill="#000000" font-family="Arial" font-size="11" lengthAdjust="spacing" textLength="22.0107" x="902.0874" y="1425.8909">ABS</text><text fill="#000000" font-family="Arial" font-size="11" lengthAdjust="spacing" textLength="152.2275" x="836.979" y="1438.5398">wheel-slip / pressure command</text><rect fill="#E8F0FE" height="39.2979" rx="2.5" ry="2.5" style="stroke:#000000;stroke-width:1;" width="96.5483" x="1129.0076" y="122.5957"/><text fill="#000000" font-family="Arial" font-size="11" lengthAdjust="spacing" textLength="22.0054" x="1166.2791" y="140.0935">CLU</text><text fill="#000000" font-family="Arial" font-size="11" lengthAdjust="spacing" textLength="82.5483" x="1136.0076" y="152.7424">vehicle readback</text><rect fill="#E8F0FE" height="39.2979" rx="2.5" ry="2.5" style="stroke:#000000;stroke-width:1;" width="96.5483" x="1129.0076" y="1408.3931"/><text fill="#000000" font-family="Arial" font-size="11" lengthAdjust="spacing" textLength="22.0054" x="1166.2791" y="1425.8909">CLU</text><text fill="#000000" font-family="Arial" font-size="11" lengthAdjust="spacing" textLength="82.5483" x="1136.0076" y="1438.5398">vehicle readback</text><rect fill="#FFFFFF" height="32.6489" style="stroke:#000000;stroke-width:1;" width="10" x="314.6812" y="232.1914"/><rect fill="#FFFFFF" height="125.5957" style="stroke:#000000;stroke-width:1;" width="10" x="495.9355" y="266.8403"/><rect fill="#FFFFFF" height="415.7339" style="stroke:#000000;stroke-width:1;" width="10" x="652.4385" y="392.436"/><rect fill="#FFFFFF" height="289.1382" style="stroke:#000000;stroke-width:1;" width="10" x="908.0928" y="808.1699"/><rect fill="#FFFFFF" height="169.5425" style="stroke:#000000;stroke-width:1;" width="10" x="1172.2817" y="1099.3081"/><rect fill="#FFFFFF" height="3" style="stroke:#FFFFFF;stroke-width:1;" width="1235.5559" x="5" y="192.218"/><line style="stroke:#000000;stroke-width:0.5;" x1="5" x2="1240.5559" y1="192.218" y2="192.218"/><line style="stroke:#000000;stroke-width:0.5;" x1="5" x2="1240.5559" y1="195.218" y2="195.218"/><rect fill="#FFFFFF" height="20.6489" style="stroke:#000000;stroke-width:1;" width="104.4707" x="570.5426" y="182.8936"/><text fill="#000000" font-family="Arial" font-size="11" font-weight="bold" lengthAdjust="spacing" textLength="87.4146" x="576.5426" y="197.3914">Brake Command</text><polygon fill="#000000" points="302.6812,228.1914,312.6812,232.1914,302.6812,236.1914,306.6812,232.1914" style="stroke:#000000;stroke-width:1;"/><line style="stroke:#000000;stroke-width:1;" x1="56.603" x2="308.6812" y1="232.1914" y2="232.1914"/><text fill="#000000" font-family="Arial" font-size="11" lengthAdjust="spacing" textLength="88.6606" x="141.3118" y="228.0403">Press brake pedal</text><line style="stroke:#000000;stroke-width:1;" x1="324.6812" x2="366.6812" y1="263.8403" y2="263.8403"/><line style="stroke:#000000;stroke-width:1;" x1="366.6812" x2="366.6812" y1="263.8403" y2="276.8403"/><line style="stroke:#000000;stroke-width:1;" x1="319.6812" x2="366.6812" y1="276.8403" y2="276.8403"/><polygon fill="#000000" points="329.6812,272.8403,319.6812,276.8403,329.6812,280.8403,325.6812,276.8403" style="stroke:#000000;stroke-width:1;"/><text fill="#000000" font-family="Arial" font-size="11" lengthAdjust="spacing" textLength="129.5991" x="331.6812" y="259.6892">Write Cmd::brakePedalPct</text><rect fill="#FFFFFF" height="3" style="stroke:#FFFFFF;stroke-width:1;" width="1235.5559" x="5" y="299.1648"/><line style="stroke:#000000;stroke-width:0.5;" x1="5" x2="1240.5559" y1="299.1648" y2="299.1648"/><line style="stroke:#000000;stroke-width:0.5;" x1="5" x2="1240.5559" y1="302.1648" y2="302.1648"/><rect fill="#FFFFFF" height="20.6489" style="stroke:#000000;stroke-width:1;" width="172.3291" x="536.6134" y="289.8403"/><text fill="#000000" font-family="Arial" font-size="11" font-weight="bold" lengthAdjust="spacing" textLength="155.2729" x="542.6134" y="304.3381">Vehicle State For Brake Logic</text><polygon fill="#000000" points="483.9355,335.1382,493.9355,339.1382,483.9355,343.1382,487.9355,339.1382" style="stroke:#000000;stroke-width:1;"/><line style="stroke:#000000;stroke-width:1;" x1="319.6812" x2="489.9355" y1="339.1382" y2="339.1382"/><text fill="#000000" font-family="Arial" font-size="11" lengthAdjust="spacing" textLength="152.2544" x="331.6812" y="334.9871">Optional speed / drive-state aid</text><polygon fill="#000000" points="645.4385,361.7871,655.4385,365.7871,645.4385,369.7871,649.4385,365.7871" style="stroke:#000000;stroke-width:1;"/><line style="stroke:#000000;stroke-width:1;" x1="505.9355" x2="651.4385" y1="365.7871" y2="365.7871"/><text fill="#000000" font-family="Arial" font-size="11" lengthAdjust="spacing" textLength="118.6045" x="522.3848" y="361.636">frmVehicleStateCanMsg</text><polygon fill="#000000" points="640.4385,388.436,650.4385,392.436,640.4385,396.436,644.4385,392.436" style="stroke:#000000;stroke-width:1;"/><line style="stroke:#000000;stroke-width:1;" x1="500.9355" x2="646.4385" y1="392.436" y2="392.436"/><text fill="#000000" font-family="Arial" font-size="11" lengthAdjust="spacing" textLength="95.3584" x="529.0078" y="388.2849">frmWheelPulseMsg</text><path d="M505,405.436 L505,465.436 L635,465.436 L635,415.436 L625,405.436 L505,405.436 " fill="#FFFFFF" style="stroke:#000000;stroke-width:1;"/><path d="M625,405.436 L625,415.436 L635,415.436 L625,405.436 " fill="#FFFFFF" style="stroke:#000000;stroke-width:1;"/><text fill="#000000" font-family="Arial" font-size="11" lengthAdjust="spacing" textLength="107.6152" x="511" y="420.9338">Vehicle state provides</text><text fill="#000000" font-family="Arial" font-size="11" lengthAdjust="spacing" textLength="92.313" x="511" y="433.5828">- speedNorm basis</text><text fill="#000000" font-family="Arial" font-size="11" lengthAdjust="spacing" textLength="84.9814" x="511" y="446.2317">- driveState basis</text><text fill="#000000" font-family="Arial" font-size="11" lengthAdjust="spacing" textLength="109.4575" x="511" y="458.8806">- wheel pulse cadence</text><rect fill="#FFFFFF" height="3" style="stroke:#FFFFFF;stroke-width:1;" width="1235.5559" x="5" y="490.3562"/><line style="stroke:#000000;stroke-width:0.5;" x1="5" x2="1240.5559" y1="490.3562" y2="490.3562"/><line style="stroke:#000000;stroke-width:0.5;" x1="5" x2="1240.5559" y1="493.3562" y2="493.3562"/><rect fill="#FFFFFF" height="20.6489" style="stroke:#000000;stroke-width:1;" width="133.2061" x="556.1749" y="481.0317"/><text fill="#000000" font-family="Arial" font-size="11" font-weight="bold" lengthAdjust="spacing" textLength="116.1499" x="562.1749" y="495.5295">ESC Brake Ownership</text><polygon fill="#000000" points="640.4385,526.3296,650.4385,530.3296,640.4385,534.3296,644.4385,530.3296" style="stroke:#000000;stroke-width:1;"/><line style="stroke:#000000;stroke-width:1;" x1="319.6812" x2="646.4385" y1="530.3296" y2="530.3296"/><text fill="#000000" font-family="Arial" font-size="11" lengthAdjust="spacing" textLength="100.8799" x="435.6199" y="526.1785">Cmd::brakePedalPct</text><polygon fill="#000000" points="640.4385,552.9785,650.4385,556.9785,640.4385,560.9785,644.4385,556.9785" style="stroke:#000000;stroke-width:1;"/><line style="stroke:#000000;stroke-width:1;" x1="500.9355" x2="646.4385" y1="556.9785" y2="556.9785"/><text fill="#000000" font-family="Arial" font-size="11" lengthAdjust="spacing" textLength="118.6045" x="517.3848" y="552.8274">frmVehicleStateCanMsg</text><line style="stroke:#000000;stroke-width:1;" x1="662.4385" x2="704.4385" y1="583.6274" y2="583.6274"/><line style="stroke:#000000;stroke-width:1;" x1="704.4385" x2="704.4385" y1="583.6274" y2="596.6274"/><line style="stroke:#000000;stroke-width:1;" x1="663.4385" x2="704.4385" y1="596.6274" y2="596.6274"/><polygon fill="#000000" points="673.4385,592.6274,663.4385,596.6274,673.4385,600.6274,669.4385,596.6274" style="stroke:#000000;stroke-width:1;"/><text fill="#000000" font-family="Arial" font-size="11" lengthAdjust="spacing" textLength="205.7612" x="669.4385" y="579.4763">appliedBrakePedal = Cmd::brakePedalPct</text><line style="stroke:#000000;stroke-width:1;" x1="662.4385" x2="704.4385" y1="623.2764" y2="623.2764"/><line style="stroke:#000000;stroke-width:1;" x1="704.4385" x2="704.4385" y1="623.2764" y2="636.2764"/><line style="stroke:#000000;stroke-width:1;" x1="663.4385" x2="704.4385" y1="636.2764" y2="636.2764"/><polygon fill="#000000" points="673.4385,632.2764,663.4385,636.2764,673.4385,640.2764,669.4385,636.2764" style="stroke:#000000;stroke-width:1;"/><text fill="#000000" font-family="Arial" font-size="11" lengthAdjust="spacing" textLength="221.6543" x="669.4385" y="619.1252">absActive = (pedal &gt; 80 &amp;&amp; speedNorm &gt; 10)</text><line style="stroke:#000000;stroke-width:1;" x1="662.4385" x2="704.4385" y1="662.9253" y2="662.9253"/><line style="stroke:#000000;stroke-width:1;" x1="704.4385" x2="704.4385" y1="662.9253" y2="675.9253"/><line style="stroke:#000000;stroke-width:1;" x1="663.4385" x2="704.4385" y1="675.9253" y2="675.9253"/><polygon fill="#000000" points="673.4385,671.9253,663.4385,675.9253,673.4385,679.9253,669.4385,675.9253" style="stroke:#000000;stroke-width:1;"/><text fill="#000000" font-family="Arial" font-size="11" lengthAdjust="spacing" textLength="165.6982" x="669.4385" y="658.7742">Chassis::brakeLamp = (pedal &gt; 5)</text><line style="stroke:#000000;stroke-width:1;" x1="662.4385" x2="704.4385" y1="702.5742" y2="702.5742"/><line style="stroke:#000000;stroke-width:1;" x1="704.4385" x2="704.4385" y1="702.5742" y2="715.5742"/><line style="stroke:#000000;stroke-width:1;" x1="663.4385" x2="704.4385" y1="715.5742" y2="715.5742"/><polygon fill="#000000" points="673.4385,711.5742,663.4385,715.5742,673.4385,719.5742,669.4385,715.5742" style="stroke:#000000;stroke-width:1;"/><text fill="#000000" font-family="Arial" font-size="11" lengthAdjust="spacing" textLength="153.1514" x="669.4385" y="698.4231">Chassis::absActive = absActive</text><polygon fill="#000000" points="901.0928,750.8721,911.0928,754.8721,901.0928,758.8721,905.0928,754.8721" style="stroke:#000000;stroke-width:1;"/><line style="stroke:#000000;stroke-width:1;" x1="662.4385" x2="907.0928" y1="754.8721" y2="754.8721"/><text fill="#000000" font-family="Arial" font-size="11" lengthAdjust="spacing" textLength="96.583" x="739.4741" y="738.072">frmBrakeStatusMsg</text><text fill="#000000" font-family="Arial" font-size="11" lengthAdjust="spacing" textLength="196.249" x="689.6411" y="750.7209">BrakePressure / BrakeMode / AbsActive</text><polygon fill="#000000" points="901.0928,777.521,911.0928,781.521,901.0928,785.521,905.0928,781.521" style="stroke:#000000;stroke-width:1;"/><line style="stroke:#000000;stroke-width:1;" x1="662.4385" x2="907.0928" y1="781.521" y2="781.521"/><text fill="#000000" font-family="Arial" font-size="11" lengthAdjust="spacing" textLength="99.6499" x="737.9407" y="777.3699">frmWheelSpeedMsg</text><polygon fill="#000000" points="1165.2817,804.1699,1175.2817,808.1699,1165.2817,812.1699,1169.2817,808.1699" style="stroke:#000000;stroke-width:1;"/><line style="stroke:#000000;stroke-width:1;" x1="657.4385" x2="1171.2817" y1="808.1699" y2="808.1699"/><text fill="#000000" font-family="Arial" font-size="11" lengthAdjust="spacing" textLength="237.8267" x="798.4468" y="804.0188">Chassis::brakePressure / brakeLamp / absActive</text><path d="M662,821.1699 L662,894.1699 L796,894.1699 L796,831.1699 L786,821.1699 L662,821.1699 " fill="#FFFFFF" style="stroke:#000000;stroke-width:1;"/><path d="M786,821.1699 L786,831.1699 L796,831.1699 L786,821.1699 " fill="#FFFFFF" style="stroke:#000000;stroke-width:1;"/><text fill="#000000" font-family="Arial" font-size="11" lengthAdjust="spacing" textLength="113.126" x="668" y="836.6677">Representative outputs</text><text fill="#000000" font-family="Arial" font-size="11" lengthAdjust="spacing" textLength="103.3022" x="668" y="849.3167">- frmBrakeStatusMsg</text><text fill="#000000" font-family="Arial" font-size="11" lengthAdjust="spacing" textLength="106.3691" x="668" y="861.9656">- frmWheelSpeedMsg</text><text fill="#000000" font-family="Arial" font-size="11" lengthAdjust="spacing" textLength="106.9868" x="668" y="874.6145">- Chassis::brakeLamp</text><text fill="#000000" font-family="Arial" font-size="11" lengthAdjust="spacing" textLength="99.6445" x="668" y="887.2634">- Chassis::absActive</text><rect fill="#FFFFFF" height="3" style="stroke:#FFFFFF;stroke-width:1;" width="1235.5559" x="5" y="918.739"/><line style="stroke:#000000;stroke-width:0.5;" x1="5" x2="1240.5559" y1="918.739" y2="918.739"/><line style="stroke:#000000;stroke-width:0.5;" x1="5" x2="1240.5559" y1="921.739" y2="921.739"/><rect fill="#FFFFFF" height="20.6489" style="stroke:#000000;stroke-width:1;" width="95.9092" x="574.8234" y="909.4146"/><text fill="#000000" font-family="Arial" font-size="11" font-weight="bold" lengthAdjust="spacing" textLength="78.853" x="580.8234" y="923.9124">ABS Response</text><polygon fill="#000000" points="896.0928,954.7124,906.0928,958.7124,896.0928,962.7124,900.0928,958.7124" style="stroke:#000000;stroke-width:1;"/><line style="stroke:#000000;stroke-width:1;" x1="657.4385" x2="902.0928" y1="958.7124" y2="958.7124"/><text fill="#000000" font-family="Arial" font-size="11" lengthAdjust="spacing" textLength="96.583" x="734.4741" y="954.5613">frmBrakeStatusMsg</text><polygon fill="#000000" points="896.0928,981.3613,906.0928,985.3613,896.0928,989.3613,900.0928,985.3613" style="stroke:#000000;stroke-width:1;"/><line style="stroke:#000000;stroke-width:1;" x1="657.4385" x2="902.0928" y1="985.3613" y2="985.3613"/><text fill="#000000" font-family="Arial" font-size="11" lengthAdjust="spacing" textLength="99.6499" x="732.9407" y="981.2102">frmWheelSpeedMsg</text><line style="stroke:#000000;stroke-width:1;" x1="918.0928" x2="960.0928" y1="1012.0103" y2="1012.0103"/><line style="stroke:#000000;stroke-width:1;" x1="960.0928" x2="960.0928" y1="1012.0103" y2="1025.0103"/><line style="stroke:#000000;stroke-width:1;" x1="919.0928" x2="960.0928" y1="1025.0103" y2="1025.0103"/><polygon fill="#000000" points="929.0928,1021.0103,919.0928,1025.0103,929.0928,1029.0103,925.0928,1025.0103" style="stroke:#000000;stroke-width:1;"/><text fill="#000000" font-family="Arial" font-size="11" lengthAdjust="spacing" textLength="230.189" x="925.0928" y="1007.8591">pressureCmd = brakePressure when absActive</text><line style="stroke:#000000;stroke-width:1;" x1="918.0928" x2="960.0928" y1="1051.6592" y2="1051.6592"/><line style="stroke:#000000;stroke-width:1;" x1="960.0928" x2="960.0928" y1="1051.6592" y2="1064.6592"/><line style="stroke:#000000;stroke-width:1;" x1="919.0928" x2="960.0928" y1="1064.6592" y2="1064.6592"/><polygon fill="#000000" points="929.0928,1060.6592,919.0928,1064.6592,929.0928,1068.6592,925.0928,1064.6592" style="stroke:#000000;stroke-width:1;"/><text fill="#000000" font-family="Arial" font-size="11" lengthAdjust="spacing" textLength="141.5444" x="925.0928" y="1047.5081">AbsCtrlState = 2 when active</text><line style="stroke:#000000;stroke-width:1;" x1="918.0928" x2="960.0928" y1="1096.3081" y2="1096.3081"/><line style="stroke:#000000;stroke-width:1;" x1="960.0928" x2="960.0928" y1="1096.3081" y2="1109.3081"/><line style="stroke:#000000;stroke-width:1;" x1="913.0928" x2="960.0928" y1="1109.3081" y2="1109.3081"/><polygon fill="#000000" points="923.0928,1105.3081,913.0928,1109.3081,923.0928,1113.3081,919.0928,1109.3081" style="stroke:#000000;stroke-width:1;"/><text fill="#000000" font-family="Arial" font-size="11" lengthAdjust="spacing" textLength="114.9414" x="925.0928" y="1092.157">output frmAbsStateMsg</text><path d="M918,1117.3081 L918,1177.3081 L1123,1177.3081 L1123,1127.3081 L1113,1117.3081 L918,1117.3081 " fill="#FFFFFF" style="stroke:#000000;stroke-width:1;"/><path d="M1113,1117.3081 L1113,1127.3081 L1123,1127.3081 L1113,1117.3081 " fill="#FFFFFF" style="stroke:#000000;stroke-width:1;"/><text fill="#000000" font-family="Arial" font-size="11" lengthAdjust="spacing" textLength="99.666" x="924" y="1132.8059">Representative logic</text><text fill="#000000" font-family="Arial" font-size="11" lengthAdjust="spacing" textLength="132.0859" x="924" y="1145.4548">- brake input stale handling</text><text fill="#000000" font-family="Arial" font-size="11" lengthAdjust="spacing" textLength="140.0352" x="924" y="1158.1038">- wheel-speed stale handling</text><text fill="#000000" font-family="Arial" font-size="11" lengthAdjust="spacing" textLength="184.0459" x="924" y="1170.7527">- rear wheel average and slip reaction</text><rect fill="#FFFFFF" height="3" style="stroke:#FFFFFF;stroke-width:1;" width="1235.5559" x="5" y="1202.2283"/><line style="stroke:#000000;stroke-width:0.5;" x1="5" x2="1240.5559" y1="1202.2283" y2="1202.2283"/><line style="stroke:#000000;stroke-width:0.5;" x1="5" x2="1240.5559" y1="1205.2283" y2="1205.2283"/><rect fill="#FFFFFF" height="20.6489" style="stroke:#000000;stroke-width:1;" width="138.0991" x="553.7284" y="1192.9038"/><text fill="#000000" font-family="Arial" font-size="11" font-weight="bold" lengthAdjust="spacing" textLength="121.043" x="559.7284" y="1207.4016">Driver Visible Outcome</text><polygon fill="#000000" points="1160.2817,1238.2017,1170.2817,1242.2017,1160.2817,1246.2017,1164.2817,1242.2017" style="stroke:#000000;stroke-width:1;"/><line style="stroke:#000000;stroke-width:1;" x1="657.4385" x2="1166.2817" y1="1242.2017" y2="1242.2017"/><text fill="#000000" font-family="Arial" font-size="11" lengthAdjust="spacing" textLength="157.126" x="836.2971" y="1238.0505">Chassis::brakeLamp / absActive</text><polygon fill="#000000" points="330.6812,1264.8506,320.6812,1268.8506,330.6812,1272.8506,326.6812,1268.8506" style="stroke:#000000;stroke-width:1;"/><line style="stroke:#000000;stroke-width:1;" x1="324.6812" x2="1176.2817" y1="1268.8506" y2="1268.8506"/><text fill="#000000" font-family="Arial" font-size="11" lengthAdjust="spacing" textLength="100.8906" x="698.0361" y="1264.6995">brake/ABS readback</text><polygon fill="#000000" points="67.603,1276.8506,57.603,1280.8506,67.603,1284.8506,63.603,1280.8506" style="stroke:#000000;stroke-width:1;"/><line style="stroke:#000000;stroke-width:1;" x1="61.603" x2="318.6812" y1="1280.8506" y2="1280.8506"/><text fill="#000000" font-family="Arial" font-size="11" lengthAdjust="spacing" textLength="239.0781" x="68.603" y="1292.3484">Brake lamp and ABS state follow the brake event</text><path d="M10,1308.4995 L10,1393.4995 L1224,1393.4995 L1224,1318.4995 L1214,1308.4995 L10,1308.4995 " fill="#FFFFFF" style="stroke:#000000;stroke-width:1;"/><path d="M1214,1308.4995 L1214,1318.4995 L1224,1318.4995 L1214,1308.4995 " fill="#FFFFFF" style="stroke:#000000;stroke-width:1;"/><text fill="#000000" font-family="Arial" font-size="11" lengthAdjust="spacing" textLength="143.0752" x="482.9962" y="1323.9973">Representative runtime chain</text><text fill="#000000" font-family="Arial" font-size="11" lengthAdjust="spacing" textLength="113.7061" x="482.9962" y="1336.6462">1. Driver presses brake</text><text fill="#000000" font-family="Arial" font-size="11" lengthAdjust="spacing" textLength="245.792" x="482.9962" y="1349.2952">2. ESC owns brake pressure and brake lamp state</text><text fill="#000000" font-family="Arial" font-size="11" lengthAdjust="spacing" textLength="259.5635" x="482.9962" y="1361.9441">3. ESC publishes brake + wheel-speed status to ABS</text><text fill="#000000" font-family="Arial" font-size="11" lengthAdjust="spacing" textLength="239.0513" x="482.9962" y="1374.593">4. ABS derives pressure command / control state</text><text fill="#000000" font-family="Arial" font-size="11" lengthAdjust="spacing" textLength="251.3081" x="482.9962" y="1387.2419">5. CLU and panel show brake-lamp / ABS feedback</text><!--SRC=[ZLPjRzf84FxkNx6NIbMZAo7f9Ms4ZaZW0wbIqw2Yf5-GgiKUy2hBhcztJQJ- -ixCsc03VU6BaUVzcMTc_5SeO0EYr5APn3yhKqedDs8fi-UrivN9Kwkj4w-c_6jfvB2IbGvJQy9dYHv6JabzMZvNtq5SNRM47lwlm6Hm3zxBDOoqMXkHWGdWMbeEV6cDRxJ6eEtBo3dx8eAh84c22Xh4sCbd49_afXGZaulHU2xcw4vgCKNzXNdpqPHL-9QY9ulglJincQVq84ryf9yUpvD4PW7BFFlFgIsunaZKHkTdGdeHPGZ5zVJ3T9nWZa5bgfGcYBDEZ8LvWa9b6EnEp237JFuMgQkK1_OpamQqU3MvdLvE9rqtJ-dZmcnhOry2vCA-671iXqAs-Z2vxLfXFGkpP1ZwWfyzJN3iJQbYRE7a_UHzrnGnM9YN0a3tl5ObsfU8kgySYCnkDjBaR4zG4GMkqxHhZ-3j4tOWSo8Ecw1aLsCo7DPjIgDJCHmcIOqdjY0YCX0pYXqh42K1HsrHMnaWgYHHiMNnrIaKffjyC60pXdkMXII70rFAeMdBFD3xAJQy9ezTgunpsXaXsFjeXFn0F9H1MU9LR4nVv5H0pxCpgVA4r6fw3SJARUfm72sLvjwlZrI-4lIpIYF9KMeiUd9gNGHXLvn2at4CKZgxLJduf1Tp-6mTZQfNz8QpYPKrhxYneYJt8fCvJLm2Y3x5QID4aGWVIYiYya3KyGKoeeCAAknHYKMSmFuFSAX7CAh8ijGAyl7EYHYUSjkrMVeHPGMe-uQvWiDsUobUlsv1SoUkBi-xTcaXFO9J- -QjqN9mypFjThZT_wIrIBXGhe3Ah3mMkJ2necQW-X7RUvlJ_z5FlJ0dvbH42oaQfyFiMvxtrVHR-NNvHCtx0ZJVk6Wb5sEhW7kBg7AKVNpNpQLt0hxsottaKooZ-CGoAlHBlTgxz4B9Rp3z3LZrIe_IPfCXbR1hNSHmCamBg8uTTYODJiTH6eftjV89pGWVfO4sh7yynLJJ0UgQrWtY5XUTuak30uvZNk1krCgiczdjnLLp9CHDw-hfbhX3yJWAsggymXqZRit97b0sr8DwzpufhvRe-g4AkEuFke6K-nNxZjX6IgtLp4fz0ggv2-r4o7bp0VxjxOpYzk7h9UjZ7bVVocfDXx-06ZRO8fv91DkIb-ZiBNi-0DnL9YWiBoleA-VgeYcV6GBrnKdUNV3KuzNStQ26BfJBSfyQfvJy4_NBQgcLBnetUEiFMeVC5S4ozDSNN58E5DyVtLg4CyFl9MTr7UBcWg4dKSa8-G91Q9tuFljROIG6UDVo7m00]--></g></svg>