<svg xmlns="http://www.w3.org/2000/svg" xmlns:xlink="http://www.w3.org/1999/xlink" contentStyleType="text/css" height="938px" preserveAspectRatio="none" style="width:686px;height:938px;background:#FFFFFF;" version="1.1" viewBox="0 0 686 938" width="686px" zoomAndPan="magnify"><title>Cluster Text Render Path Signal Flow</title><defs/><g><text fill="#000000" font-family="Arial" font-size="22" font-weight="bold" lengthAdjust="spacing" textLength="391.1768" x="146.2946" y="35.9956">Cluster Text Render Path Signal Flow</text><text fill="#000000" font-family="Arial" font-size="22" font-weight="bold" lengthAdjust="spacing" textLength="205.3262" x="239.2198" y="61.2935">(CGW -&gt; IVI -&gt; CLU)</text><rect fill="#FFFFFF" height="139.2446" style="stroke:#000000;stroke-width:1;" width="10" x="66.9426" y="126.8936"/><rect fill="#FFFFFF" height="283.1382" style="stroke:#000000;stroke-width:1;" width="10" x="317.2747" y="266.1382"/><rect fill="#FFFFFF" height="236.8403" style="stroke:#000000;stroke-width:1;" width="10" x="477.2107" y="549.2764"/><line style="stroke:#000000;stroke-width:1;" x1="71" x2="71" y1="116.8936" y2="894.3613"/><line style="stroke:#000000;stroke-width:1;" x1="321.5486" x2="321.5486" y1="116.8936" y2="894.3613"/><line style="stroke:#000000;stroke-width:1;" x1="482.1104" x2="482.1104" y1="116.8936" y2="894.3613"/><rect fill="#FFF4CC" height="39.2979" rx="2.5" ry="2.5" style="stroke:#000000;stroke-width:1;" width="103.8853" x="20" y="76.5957"/><text fill="#000000" font-family="Arial" font-size="11" lengthAdjust="spacing" textLength="26.8823" x="58.5015" y="94.0935">CGW</text><text fill="#000000" font-family="Arial" font-size="11" lengthAdjust="spacing" textLength="89.8853" x="27" y="106.7424">effective alert gate</text><rect fill="#FFF4CC" height="39.2979" rx="2.5" ry="2.5" style="stroke:#000000;stroke-width:1;" width="103.8853" x="20" y="893.3613"/><text fill="#000000" font-family="Arial" font-size="11" lengthAdjust="spacing" textLength="26.8823" x="58.5015" y="910.8591">CGW</text><text fill="#000000" font-family="Arial" font-size="11" lengthAdjust="spacing" textLength="89.8853" x="27" y="923.5081">effective alert gate</text><rect fill="#E8F0FE" height="39.2979" rx="2.5" ry="2.5" style="stroke:#000000;stroke-width:1;" width="123.4521" x="260.5486" y="76.5957"/><text fill="#000000" font-family="Arial" font-size="11" lengthAdjust="spacing" textLength="13.4492" x="315.55" y="94.0935">IVI</text><text fill="#000000" font-family="Arial" font-size="11" lengthAdjust="spacing" textLength="109.4521" x="267.5486" y="106.7424">warning text generator</text><rect fill="#E8F0FE" height="39.2979" rx="2.5" ry="2.5" style="stroke:#000000;stroke-width:1;" width="123.4521" x="260.5486" y="893.3613"/><text fill="#000000" font-family="Arial" font-size="11" lengthAdjust="spacing" textLength="13.4492" x="315.55" y="910.8591">IVI</text><text fill="#000000" font-family="Arial" font-size="11" lengthAdjust="spacing" textLength="109.4521" x="267.5486" y="923.5081">warning text generator</text><rect fill="#E8F0FE" height="39.2979" rx="2.5" ry="2.5" style="stroke:#000000;stroke-width:1;" width="100.2007" x="432.1104" y="76.5957"/><text fill="#000000" font-family="Arial" font-size="11" lengthAdjust="spacing" textLength="22.0054" x="471.208" y="94.0935">CLU</text><text fill="#000000" font-family="Arial" font-size="11" lengthAdjust="spacing" textLength="86.2007" x="439.1104" y="106.7424">cluster text owner</text><rect fill="#E8F0FE" height="39.2979" rx="2.5" ry="2.5" style="stroke:#000000;stroke-width:1;" width="100.2007" x="432.1104" y="893.3613"/><text fill="#000000" font-family="Arial" font-size="11" lengthAdjust="spacing" textLength="22.0054" x="471.208" y="910.8591">CLU</text><text fill="#000000" font-family="Arial" font-size="11" lengthAdjust="spacing" textLength="86.2007" x="439.1104" y="923.5081">cluster text owner</text><rect fill="#FFFFFF" height="139.2446" style="stroke:#000000;stroke-width:1;" width="10" x="66.9426" y="126.8936"/><rect fill="#FFFFFF" height="283.1382" style="stroke:#000000;stroke-width:1;" width="10" x="317.2747" y="266.1382"/><rect fill="#FFFFFF" height="236.8403" style="stroke:#000000;stroke-width:1;" width="10" x="477.2107" y="549.2764"/><rect fill="#FFFFFF" height="3" style="stroke:#FFFFFF;stroke-width:1;" width="674.7659" x="5" y="146.218"/><line style="stroke:#000000;stroke-width:0.5;" x1="5" x2="679.7659" y1="146.218" y2="146.218"/><line style="stroke:#000000;stroke-width:0.5;" x1="5" x2="679.7659" y1="149.218" y2="149.218"/><rect fill="#FFFFFF" height="20.6489" style="stroke:#000000;stroke-width:1;" width="125.8745" x="279.4457" y="136.8936"/><text fill="#000000" font-family="Arial" font-size="11" font-weight="bold" lengthAdjust="spacing" textLength="108.8184" x="285.4457" y="151.3914">Effective Alert Intake</text><polygon fill="#000000" points="310.2747,182.1914,320.2747,186.1914,310.2747,190.1914,314.2747,186.1914" style="stroke:#000000;stroke-width:1;"/><line style="stroke:#000000;stroke-width:1;" x1="76.9426" x2="316.2747" y1="186.1914" y2="186.1914"/><text fill="#000000" font-family="Arial" font-size="11" lengthAdjust="spacing" textLength="221.332" x="88.9426" y="182.0403">CoreState::selectedAlertEffectiveLevel / Type</text><polygon fill="#000000" points="310.2747,208.8403,320.2747,212.8403,310.2747,216.8403,314.2747,212.8403" style="stroke:#000000;stroke-width:1;"/><line style="stroke:#000000;stroke-width:1;" x1="76.9426" x2="316.2747" y1="212.8403" y2="212.8403"/><text fill="#000000" font-family="Arial" font-size="11" lengthAdjust="spacing" textLength="92.313" x="153.4521" y="208.6892">Core::timeoutClear</text><polygon fill="#000000" points="310.2747,235.4893,320.2747,239.4893,310.2747,243.4893,314.2747,239.4893" style="stroke:#000000;stroke-width:1;"/><line style="stroke:#000000;stroke-width:1;" x1="76.9426" x2="316.2747" y1="239.4893" y2="239.4893"/><text fill="#000000" font-family="Arial" font-size="11" lengthAdjust="spacing" textLength="122.2783" x="138.4695" y="235.3381">Core::emergencyContext</text><polygon fill="#000000" points="305.2747,262.1382,315.2747,266.1382,305.2747,270.1382,309.2747,266.1382" style="stroke:#000000;stroke-width:1;"/><line style="stroke:#000000;stroke-width:1;" x1="71.9426" x2="311.2747" y1="266.1382" y2="266.1382"/><text fill="#000000" font-family="Arial" font-size="11" lengthAdjust="spacing" textLength="215.209" x="87.0042" y="261.9871">CoreState::emergencyIngressDirection / Eta</text><path d="M76,279.1382 L76,352.1382 L242,352.1382 L242,289.1382 L232,279.1382 L76,279.1382 " fill="#FFFFFF" style="stroke:#000000;stroke-width:1;"/><path d="M232,279.1382 L232,289.1382 L242,289.1382 L232,279.1382 " fill="#FFFFFF" style="stroke:#000000;stroke-width:1;"/><text fill="#000000" font-family="Arial" font-size="11" lengthAdjust="spacing" textLength="145.5137" x="82" y="294.636">Representative source seams</text><text fill="#000000" font-family="Arial" font-size="11" lengthAdjust="spacing" textLength="138.7891" x="82" y="307.2849">- selectedAlertEffectiveLevel</text><text fill="#000000" font-family="Arial" font-size="11" lengthAdjust="spacing" textLength="136.9468" x="82" y="319.9338">- selectedAlertEffectiveType</text><text fill="#000000" font-family="Arial" font-size="11" lengthAdjust="spacing" textLength="69.0776" x="82" y="332.5828">- timeoutClear</text><text fill="#000000" font-family="Arial" font-size="11" lengthAdjust="spacing" textLength="138.1714" x="82" y="345.2317">- emergency ingress context</text><rect fill="#FFFFFF" height="3" style="stroke:#FFFFFF;stroke-width:1;" width="674.7659" x="5" y="376.7073"/><line style="stroke:#000000;stroke-width:0.5;" x1="5" x2="679.7659" y1="376.7073" y2="376.7073"/><line style="stroke:#000000;stroke-width:0.5;" x1="5" x2="679.7659" y1="379.7073" y2="379.7073"/><rect fill="#FFFFFF" height="20.6489" style="stroke:#000000;stroke-width:1;" width="164.353" x="260.2064" y="367.3828"/><text fill="#000000" font-family="Arial" font-size="11" font-weight="bold" lengthAdjust="spacing" textLength="147.2969" x="266.2064" y="381.8806">IVI Warning Text Generation</text><polygon fill="#000000" points="305.2747,412.6807,315.2747,416.6807,305.2747,420.6807,309.2747,416.6807" style="stroke:#000000;stroke-width:1;"/><line style="stroke:#000000;stroke-width:1;" x1="71.9426" x2="311.2747" y1="416.6807" y2="416.6807"/><text fill="#000000" font-family="Arial" font-size="11" lengthAdjust="spacing" textLength="100.8745" x="144.1714" y="412.5295">effective alert seams</text><line style="stroke:#000000;stroke-width:1;" x1="327.2747" x2="369.2747" y1="443.3296" y2="443.3296"/><line style="stroke:#000000;stroke-width:1;" x1="369.2747" x2="369.2747" y1="443.3296" y2="456.3296"/><line style="stroke:#000000;stroke-width:1;" x1="328.2747" x2="369.2747" y1="456.3296" y2="456.3296"/><polygon fill="#000000" points="338.2747,452.3296,328.2747,456.3296,338.2747,460.3296,334.2747,456.3296" style="stroke:#000000;stroke-width:1;"/><text fill="#000000" font-family="Arial" font-size="11" lengthAdjust="spacing" textLength="125.936" x="334.2747" y="439.1785">deriveWarningTextCode()</text><line style="stroke:#000000;stroke-width:1;" x1="327.2747" x2="369.2747" y1="482.9785" y2="482.9785"/><line style="stroke:#000000;stroke-width:1;" x1="369.2747" x2="369.2747" y1="482.9785" y2="495.9785"/><line style="stroke:#000000;stroke-width:1;" x1="328.2747" x2="369.2747" y1="495.9785" y2="495.9785"/><polygon fill="#000000" points="338.2747,491.9785,328.2747,495.9785,338.2747,499.9785,334.2747,495.9785" style="stroke:#000000;stroke-width:1;"/><text fill="#000000" font-family="Arial" font-size="11" lengthAdjust="spacing" textLength="86.2114" x="334.2747" y="478.8274">warningTextCode</text><polygon fill="#000000" points="470.2107,518.6274,480.2107,522.6274,470.2107,526.6274,474.2107,522.6274" style="stroke:#000000;stroke-width:1;"/><line style="stroke:#000000;stroke-width:1;" x1="327.2747" x2="476.2107" y1="522.6274" y2="522.6274"/><text fill="#000000" font-family="Arial" font-size="11" lengthAdjust="spacing" textLength="112.4653" x="348.51" y="518.4763">frmClusterWarningMsg</text><polygon fill="#000000" points="465.2107,545.2764,475.2107,549.2764,465.2107,553.2764,469.2107,549.2764" style="stroke:#000000;stroke-width:1;"/><line style="stroke:#000000;stroke-width:1;" x1="322.2747" x2="471.2107" y1="549.2764" y2="549.2764"/><text fill="#000000" font-family="Arial" font-size="11" lengthAdjust="spacing" textLength="94.123" x="352.6812" y="545.1252">frmClusterNotifMsg</text><path d="M327,562.2764 L327,622.2764 L558,622.2764 L558,572.2764 L548,562.2764 L327,562.2764 " fill="#FFFFFF" style="stroke:#000000;stroke-width:1;"/><path d="M548,562.2764 L548,572.2764 L558,572.2764 L548,562.2764 " fill="#FFFFFF" style="stroke:#000000;stroke-width:1;"/><text fill="#000000" font-family="Arial" font-size="11" lengthAdjust="spacing" textLength="113.126" x="333" y="577.7742">Representative outputs</text><text fill="#000000" font-family="Arial" font-size="11" lengthAdjust="spacing" textLength="210.8906" x="333" y="590.4231">- frmClusterWarningMsg.WarningTextCode</text><text fill="#000000" font-family="Arial" font-size="11" lengthAdjust="spacing" textLength="111.2837" x="333" y="603.072">- notif companion state</text><text fill="#000000" font-family="Arial" font-size="11" lengthAdjust="spacing" textLength="149.1929" x="333" y="615.7209">- UiRender::warningBeepState</text><rect fill="#FFFFFF" height="3" style="stroke:#FFFFFF;stroke-width:1;" width="674.7659" x="5" y="647.1965"/><line style="stroke:#000000;stroke-width:0.5;" x1="5" x2="679.7659" y1="647.1965" y2="647.1965"/><line style="stroke:#000000;stroke-width:0.5;" x1="5" x2="679.7659" y1="650.1965" y2="650.1965"/><rect fill="#FFFFFF" height="20.6489" style="stroke:#000000;stroke-width:1;" width="166.1899" x="259.288" y="637.8721"/><text fill="#000000" font-family="Arial" font-size="11" font-weight="bold" lengthAdjust="spacing" textLength="149.1338" x="265.288" y="652.3699">CLU Cluster Text Ownership</text><polygon fill="#000000" points="465.2107,683.1699,475.2107,687.1699,465.2107,691.1699,469.2107,687.1699" style="stroke:#000000;stroke-width:1;"/><line style="stroke:#000000;stroke-width:1;" x1="322.2747" x2="471.2107" y1="687.1699" y2="687.1699"/><text fill="#000000" font-family="Arial" font-size="11" lengthAdjust="spacing" textLength="112.4653" x="343.51" y="683.0188">frmClusterWarningMsg</text><polygon fill="#000000" points="465.2107,709.8188,475.2107,713.8188,465.2107,717.8188,469.2107,713.8188" style="stroke:#000000;stroke-width:1;"/><line style="stroke:#000000;stroke-width:1;" x1="322.2747" x2="471.2107" y1="713.8188" y2="713.8188"/><text fill="#000000" font-family="Arial" font-size="11" lengthAdjust="spacing" textLength="94.123" x="352.6812" y="709.6677">frmClusterNotifMsg</text><line style="stroke:#000000;stroke-width:1;" x1="487.2107" x2="529.2107" y1="740.4678" y2="740.4678"/><line style="stroke:#000000;stroke-width:1;" x1="529.2107" x2="529.2107" y1="740.4678" y2="753.4678"/><line style="stroke:#000000;stroke-width:1;" x1="488.2107" x2="529.2107" y1="753.4678" y2="753.4678"/><polygon fill="#000000" points="498.2107,749.4678,488.2107,753.4678,498.2107,757.4678,494.2107,753.4678" style="stroke:#000000;stroke-width:1;"/><text fill="#000000" font-family="Arial" font-size="11" lengthAdjust="spacing" textLength="163.5552" x="494.2107" y="736.3167">Cluster::warningTextCode = code</text><line style="stroke:#000000;stroke-width:1;" x1="487.2107" x2="529.2107" y1="785.1167" y2="785.1167"/><line style="stroke:#000000;stroke-width:1;" x1="529.2107" x2="529.2107" y1="785.1167" y2="798.1167"/><line style="stroke:#000000;stroke-width:1;" x1="482.2107" x2="529.2107" y1="798.1167" y2="798.1167"/><polygon fill="#000000" points="492.2107,794.1167,482.2107,798.1167,492.2107,802.1167,488.2107,798.1167" style="stroke:#000000;stroke-width:1;"/><text fill="#000000" font-family="Arial" font-size="11" lengthAdjust="spacing" textLength="163.2168" x="494.2107" y="780.9656">clusterNotifType / clusterNotifPrio</text><path d="M13,806.1167 L13,879.1167 L540,879.1167 L540,816.1167 L530,806.1167 L13,806.1167 " fill="#FFFFFF" style="stroke:#000000;stroke-width:1;"/><path d="M530,806.1167 L530,816.1167 L540,816.1167 L530,806.1167 " fill="#FFFFFF" style="stroke:#000000;stroke-width:1;"/><text fill="#000000" font-family="Arial" font-size="11" lengthAdjust="spacing" textLength="143.0752" x="141.3184" y="821.6145">Representative runtime chain</text><text fill="#000000" font-family="Arial" font-size="11" lengthAdjust="spacing" textLength="178.519" x="141.3184" y="834.2634">1. CGW exposes effective alert state</text><text fill="#000000" font-family="Arial" font-size="11" lengthAdjust="spacing" textLength="245.7813" x="141.3184" y="846.9124">2. IVI converts alert context into WarningTextCode</text><text fill="#000000" font-family="Arial" font-size="11" lengthAdjust="spacing" textLength="236.9189" x="141.3184" y="859.5613">3. IVI sends cluster warning + notification frames</text><text fill="#000000" font-family="Arial" font-size="11" lengthAdjust="spacing" textLength="261.6743" x="141.3184" y="872.2102">4. CLU stores and displays Cluster::warningTextCode</text><!--SRC=[hLLDSzem4BthLsoJIp8jj6bpw7Y6pX0NCioGD9E4vi95jTT64oEvaXoI_lhkoiR13lHKBZ3Qh_VUFebtVeLhXBAGIWltg7GfhLp3BvayvjPKEerDOImSJyDd9oF5J5Q5dnhjhoLr65ibY_tnE_K7uUni9-ZmTuKwmIjqJkOuBbIk8K7jqUvaMNIbqMwRTO65sOojDHlmja8XlF85GbnKZkhW7fyztA9EwVUDz2kuewQoW2bLBVL9VFa0Wsym-pdZhtY-E1M2ndYLg59g3qUKiDIOPPXuzOGW2xGUSkdn2AG3BcSHpkEuMqODbteZhLOw1yyOSjHefJSs5FB0uydNwQVff3TllbZgf04V2is62kjfyqLR94OZcBImnW7MJ7lvY30Q2I7vd50oGh53CeBOMBpp58eYXmNLOnggssPpVC82FiBzIublIwF8gpMQoiS5IhilJiQnH3PvYMd9HE3W-3PnfdDQglkkB2CmcePFl1JQ47whyXLfa0KYjrXI8Xb21jREL3QXBvHh9mRm3pe7eu7a03gS1j0Y0rL3WwJXGaO2nYLIx4ZCws223ytAW-qkwvKpeyvEAB4hIjzVDQF6b7KA-PVYJNlk7fiKJqwxIPjkMBpQceAPNJUNekbovV936TV6gupZtHqmyDuEIBMoyYp_llx37c1AqzoQz5oJtraPnsQWyuMgRsaKDImk4ClWbBsYCnGMdP5txleFlYvkfShUFPWl_eCS76ZZJR05l2K98w97N3l9oKudDXrvVFVenYhJyHJ1hSKtJyICtF8XdFNKjvLcwqAoueVwR1WU97mkZKFtrbL1pC_3O1OoD3Nshear_YQ_UmFzfNsfIsXiwhQejrw3z_L6LL8RFQCd6fqu7mRUZjuxGY9fWQboz7VouWxAzhhclm00]--></g></svg>