<svg xmlns="http://www.w3.org/2000/svg" xmlns:xlink="http://www.w3.org/1999/xlink" contentStyleType="text/css" height="867px" preserveAspectRatio="none" style="width:896px;height:867px;background:#FFFFFF;" version="1.1" viewBox="0 0 896 867" width="896px" zoomAndPan="magnify"><title>Diag Stage To ETHB Service Security Signal Flow</title><defs/><g><text fill="#000000" font-family="Arial" font-size="22" font-weight="bold" lengthAdjust="spacing" textLength="518.3535" x="187.5353" y="35.9956">Diag Stage To ETHB Service Security Signal Flow</text><text fill="#000000" font-family="Arial" font-size="22" font-weight="bold" lengthAdjust="spacing" textLength="792.7197" x="50.3522" y="61.2935">(route/boundary diag stage -&gt; ETHB route-health and security-level publish)</text><line style="stroke:#000000;stroke-width:1;" x1="74" x2="74" y1="116.8936" y2="823.0103"/><line style="stroke:#000000;stroke-width:1;" x1="217.8291" x2="217.8291" y1="116.8936" y2="823.0103"/><line style="stroke:#000000;stroke-width:1;" x1="582.0972" x2="582.0972" y1="116.8936" y2="823.0103"/><line style="stroke:#000000;stroke-width:1;" x1="809.488" x2="809.488" y1="116.8936" y2="823.0103"/><rect fill="#F4F7FB" height="39.2979" rx="2.5" ry="2.5" style="stroke:#000000;stroke-width:1;" width="98.3906" x="25" y="76.5957"/><text fill="#000000" font-family="Arial" font-size="11" lengthAdjust="spacing" textLength="58.6899" x="44.8503" y="94.0935">NAV / notif /</text><text fill="#000000" font-family="Arial" font-size="11" lengthAdjust="spacing" textLength="84.3906" x="32" y="106.7424">boundary context</text><rect fill="#F4F7FB" height="39.2979" rx="2.5" ry="2.5" style="stroke:#000000;stroke-width:1;" width="98.3906" x="25" y="822.0103"/><text fill="#000000" font-family="Arial" font-size="11" lengthAdjust="spacing" textLength="58.6899" x="44.8503" y="839.5081">NAV / notif /</text><text fill="#000000" font-family="Arial" font-size="11" lengthAdjust="spacing" textLength="84.3906" x="32" y="852.157">boundary context</text><rect fill="#E8F7E8" height="39.2979" rx="2.5" ry="2.5" style="stroke:#000000;stroke-width:1;" width="121.626" x="157.8291" y="76.5957"/><text fill="#000000" font-family="Arial" font-size="11" lengthAdjust="spacing" textLength="29.3369" x="203.9736" y="94.0935">ETHB</text><text fill="#000000" font-family="Arial" font-size="11" lengthAdjust="spacing" textLength="107.626" x="164.8291" y="106.7424">backbone state owner</text><rect fill="#E8F7E8" height="39.2979" rx="2.5" ry="2.5" style="stroke:#000000;stroke-width:1;" width="121.626" x="157.8291" y="822.0103"/><text fill="#000000" font-family="Arial" font-size="11" lengthAdjust="spacing" textLength="29.3369" x="203.9736" y="839.5081">ETHB</text><text fill="#000000" font-family="Arial" font-size="11" lengthAdjust="spacing" textLength="107.626" x="164.8291" y="852.157">backbone state owner</text><rect fill="#FFF4CC" height="26.6489" rx="2.5" ry="2.5" style="stroke:#000000;stroke-width:1;" width="127.7275" x="519.0972" y="89.2446"/><text fill="#000000" font-family="Arial" font-size="11" lengthAdjust="spacing" textLength="113.7275" x="526.0972" y="106.7424">Backbone service state</text><rect fill="#FFF4CC" height="26.6489" rx="2.5" ry="2.5" style="stroke:#000000;stroke-width:1;" width="127.7275" x="519.0972" y="822.0103"/><text fill="#000000" font-family="Arial" font-size="11" lengthAdjust="spacing" textLength="113.7275" x="526.0972" y="839.5081">Backbone service state</text><rect fill="#E8F0FE" height="26.6489" rx="2.5" ry="2.5" style="stroke:#000000;stroke-width:1;" width="128.936" x="745.488" y="89.2446"/><text fill="#000000" font-family="Arial" font-size="11" lengthAdjust="spacing" textLength="114.936" x="752.488" y="106.7424">Observers / diagnostics</text><rect fill="#E8F0FE" height="26.6489" rx="2.5" ry="2.5" style="stroke:#000000;stroke-width:1;" width="128.936" x="745.488" y="822.0103"/><text fill="#000000" font-family="Arial" font-size="11" lengthAdjust="spacing" textLength="114.936" x="752.488" y="839.5081">Observers / diagnostics</text><rect fill="#FFFFFF" height="3" style="stroke:#FFFFFF;stroke-width:1;" width="884.4241" x="5" y="146.218"/><line style="stroke:#000000;stroke-width:0.5;" x1="5" x2="889.4241" y1="146.218" y2="146.218"/><line style="stroke:#000000;stroke-width:0.5;" x1="5" x2="889.4241" y1="149.218" y2="149.218"/><rect fill="#FFFFFF" height="20.6489" style="stroke:#000000;stroke-width:1;" width="105.6792" x="394.3724" y="136.8936"/><text fill="#000000" font-family="Arial" font-size="11" font-weight="bold" lengthAdjust="spacing" textLength="88.623" x="400.3724" y="151.3914">Backbone Inputs</text><polygon fill="#000000" points="206.6421,232.7871,216.6421,236.7871,206.6421,240.7871,210.6421,236.7871" style="stroke:#000000;stroke-width:1;"/><line style="stroke:#000000;stroke-width:1;" x1="74.1953" x2="212.6421" y1="236.7871" y2="236.7871"/><text fill="#000000" font-family="Arial" font-size="11" lengthAdjust="spacing" textLength="120.4468" x="86.1953" y="182.0403">nav session / route class</text><text fill="#000000" font-family="Arial" font-size="11" lengthAdjust="spacing" textLength="47.0776" x="122.8799" y="194.6892">alert level</text><text fill="#000000" font-family="Arial" font-size="11" lengthAdjust="spacing" textLength="69.7114" x="111.563" y="207.3381">boundaryAlive</text><text fill="#000000" font-family="Arial" font-size="11" lengthAdjust="spacing" textLength="92.3345" x="100.2515" y="219.9871">warningPathStatus</text><text fill="#000000" font-family="Arial" font-size="11" lengthAdjust="spacing" textLength="64.2061" x="114.3157" y="232.636">failSafeMode</text><line style="stroke:#000000;stroke-width:1;" x1="218.6421" x2="260.6421" y1="263.436" y2="263.436"/><line style="stroke:#000000;stroke-width:1;" x1="260.6421" x2="260.6421" y1="263.436" y2="276.436"/><line style="stroke:#000000;stroke-width:1;" x1="219.6421" x2="260.6421" y1="276.436" y2="276.436"/><polygon fill="#000000" points="229.6421,272.436,219.6421,276.436,229.6421,280.436,225.6421,276.436" style="stroke:#000000;stroke-width:1;"/><text fill="#000000" font-family="Arial" font-size="11" lengthAdjust="spacing" textLength="178.5513" x="225.6421" y="259.2849">roadZoneActive / guidedRouteActive</text><line style="stroke:#000000;stroke-width:1;" x1="218.6421" x2="260.6421" y1="303.085" y2="303.085"/><line style="stroke:#000000;stroke-width:1;" x1="260.6421" x2="260.6421" y1="303.085" y2="316.085"/><line style="stroke:#000000;stroke-width:1;" x1="219.6421" x2="260.6421" y1="316.085" y2="316.085"/><polygon fill="#000000" points="229.6421,312.085,219.6421,316.085,229.6421,320.085,225.6421,316.085" style="stroke:#000000;stroke-width:1;"/><text fill="#000000" font-family="Arial" font-size="11" lengthAdjust="spacing" textLength="258.312" x="225.6421" y="298.9338">serviceContext = ethHasBoundaryServiceContext(...)</text><line style="stroke:#000000;stroke-width:1;" x1="218.6421" x2="260.6421" y1="342.7339" y2="342.7339"/><line style="stroke:#000000;stroke-width:1;" x1="260.6421" x2="260.6421" y1="342.7339" y2="355.7339"/><line style="stroke:#000000;stroke-width:1;" x1="219.6421" x2="260.6421" y1="355.7339" y2="355.7339"/><polygon fill="#000000" points="229.6421,351.7339,219.6421,355.7339,229.6421,359.7339,225.6421,355.7339" style="stroke:#000000;stroke-width:1;"/><text fill="#000000" font-family="Arial" font-size="11" lengthAdjust="spacing" textLength="192.3228" x="225.6421" y="338.5828">diagStage = ethDiagBoundaryStage(...)</text><path d="M223,368.7339 L223,453.7339 L429,453.7339 L429,378.7339 L419,368.7339 L223,368.7339 " fill="#FFFFFF" style="stroke:#000000;stroke-width:1;"/><path d="M419,368.7339 L419,378.7339 L429,378.7339 L419,368.7339 " fill="#FFFFFF" style="stroke:#000000;stroke-width:1;"/><text fill="#000000" font-family="Arial" font-size="11" lengthAdjust="spacing" textLength="106.396" x="229" y="384.2317">Representative inputs</text><text fill="#000000" font-family="Arial" font-size="11" lengthAdjust="spacing" textLength="185.2705" x="229" y="396.8806">- roadZoneActive / guidedRouteActive</text><text fill="#000000" font-family="Arial" font-size="11" lengthAdjust="spacing" textLength="76.4307" x="229" y="409.5295">- boundaryAlive</text><text fill="#000000" font-family="Arial" font-size="11" lengthAdjust="spacing" textLength="99.0537" x="229" y="422.1785">- warningPathStatus</text><text fill="#000000" font-family="Arial" font-size="11" lengthAdjust="spacing" textLength="70.9253" x="229" y="434.8274">- failSafeMode</text><text fill="#000000" font-family="Arial" font-size="11" lengthAdjust="spacing" textLength="54.4146" x="229" y="447.4763">- alertLevel</text><rect fill="#FFFFFF" height="3" style="stroke:#FFFFFF;stroke-width:1;" width="884.4241" x="5" y="478.9519"/><line style="stroke:#000000;stroke-width:0.5;" x1="5" x2="889.4241" y1="478.9519" y2="478.9519"/><line style="stroke:#000000;stroke-width:0.5;" x1="5" x2="889.4241" y1="481.9519" y2="481.9519"/><rect fill="#FFFFFF" height="20.6489" style="stroke:#000000;stroke-width:1;" width="151.5591" x="371.4325" y="469.6274"/><text fill="#000000" font-family="Arial" font-size="11" font-weight="bold" lengthAdjust="spacing" textLength="134.5029" x="377.4325" y="484.1252">Service / Security Publish</text><line style="stroke:#000000;stroke-width:1;" x1="218.6421" x2="260.6421" y1="518.9253" y2="518.9253"/><line style="stroke:#000000;stroke-width:1;" x1="260.6421" x2="260.6421" y1="518.9253" y2="531.9253"/><line style="stroke:#000000;stroke-width:1;" x1="219.6421" x2="260.6421" y1="531.9253" y2="531.9253"/><polygon fill="#000000" points="229.6421,527.9253,219.6421,531.9253,229.6421,535.9253,225.6421,531.9253" style="stroke:#000000;stroke-width:1;"/><text fill="#000000" font-family="Arial" font-size="11" lengthAdjust="spacing" textLength="350.3188" x="225.6421" y="514.7742">routeHealth / serviceHealth / securityLevel / activeServices / faultBitmap</text><polygon fill="#000000" points="570.9609,554.5742,580.9609,558.5742,570.9609,562.5742,574.9609,558.5742" style="stroke:#000000;stroke-width:1;"/><line style="stroke:#000000;stroke-width:1;" x1="218.6421" x2="576.9609" y1="558.5742" y2="558.5742"/><text fill="#000000" font-family="Arial" font-size="11" lengthAdjust="spacing" textLength="295.3296" x="253.1367" y="554.4231">backbone mode / route health / service health / security level</text><path d="M223,571.5742 L223,656.5742 L357,656.5742 L357,581.5742 L347,571.5742 L223,571.5742 " fill="#FFFFFF" style="stroke:#000000;stroke-width:1;"/><path d="M347,571.5742 L347,581.5742 L357,581.5742 L347,571.5742 " fill="#FFFFFF" style="stroke:#000000;stroke-width:1;"/><text fill="#000000" font-family="Arial" font-size="11" lengthAdjust="spacing" textLength="113.126" x="229" y="587.072">Representative outputs</text><text fill="#000000" font-family="Arial" font-size="11" lengthAdjust="spacing" textLength="81.9414" x="229" y="599.7209">- backboneMode</text><text fill="#000000" font-family="Arial" font-size="11" lengthAdjust="spacing" textLength="63.5884" x="229" y="612.3699">- routeHealth</text><text fill="#000000" font-family="Arial" font-size="11" lengthAdjust="spacing" textLength="73.3584" x="229" y="625.0188">- serviceHealth</text><text fill="#000000" font-family="Arial" font-size="11" lengthAdjust="spacing" textLength="70.9146" x="229" y="637.6677">- securityLevel</text><text fill="#000000" font-family="Arial" font-size="11" lengthAdjust="spacing" textLength="61.7461" x="229" y="650.3167">- faultBitmap</text><rect fill="#FFFFFF" height="3" style="stroke:#FFFFFF;stroke-width:1;" width="884.4241" x="5" y="681.7922"/><line style="stroke:#000000;stroke-width:0.5;" x1="5" x2="889.4241" y1="681.7922" y2="681.7922"/><line style="stroke:#000000;stroke-width:0.5;" x1="5" x2="889.4241" y1="684.7922" y2="684.7922"/><rect fill="#FFFFFF" height="20.6489" style="stroke:#000000;stroke-width:1;" width="131.3638" x="381.5302" y="672.4678"/><text fill="#000000" font-family="Arial" font-size="11" font-weight="bold" lengthAdjust="spacing" textLength="114.3076" x="387.5302" y="686.9656">Downstream Visibility</text><polygon fill="#000000" points="797.9561,717.7656,807.9561,721.7656,797.9561,725.7656,801.9561,721.7656" style="stroke:#000000;stroke-width:1;"/><line style="stroke:#000000;stroke-width:1;" x1="582.9609" x2="803.9561" y1="721.7656" y2="721.7656"/><text fill="#000000" font-family="Arial" font-size="11" lengthAdjust="spacing" textLength="202.9951" x="594.9609" y="717.6145">backbone route/service/security readback</text><path d="M10,734.7656 L10,807.7656 L874,807.7656 L874,744.7656 L864,734.7656 L10,734.7656 " fill="#FFFFFF" style="stroke:#000000;stroke-width:1;"/><path d="M864,734.7656 L864,744.7656 L874,744.7656 L864,734.7656 " fill="#FFFFFF" style="stroke:#000000;stroke-width:1;"/><text fill="#000000" font-family="Arial" font-size="11" lengthAdjust="spacing" textLength="143.0752" x="249.6781" y="750.2634">Representative runtime chain</text><text fill="#000000" font-family="Arial" font-size="11" lengthAdjust="spacing" textLength="243.9712" x="249.6781" y="762.9124">1. Route, alert, and boundary context reach ETHB</text><text fill="#000000" font-family="Arial" font-size="11" lengthAdjust="spacing" textLength="260.4658" x="249.6781" y="775.5613">2. ETHB derives diagnostic stage and service context</text><text fill="#000000" font-family="Arial" font-size="11" lengthAdjust="spacing" textLength="376.0679" x="249.6781" y="788.2102">3. ETHB publishes route health and security level on the backbone state path</text><text fill="#000000" font-family="Arial" font-size="11" lengthAdjust="spacing" textLength="343.0303" x="249.6781" y="800.8591">4. Observers and diagnostics consume the effective backbone posture</text><!--SRC=[ZLN1JkCm4BtxAsRX0X9jbrqa459NQaeZLbfOH167LIzkCcqiN3jhEotmzJksapGfUu0BSZplpRmtu-aNL-06ePHSA6PVX2gvuHjOyknbRNIbygcMsi1n6luw4JckU2LTgfMxvyGmCOBB_z_FnJl2-NddqkBV2bM6TsWjN-D4YhM239L3quaoQ4kjR1ELeDIxYJ5w1yvKo9WJJYBS2Bw6kQC0UD8mUxfDO8vcApAa_rbbX7k3EV5p2IaHBDG9wN8uMdfrtBn1xWbi81ZyY0GXOb0Wbwu0hd8gE38D96vHGbajfR35AMDKgHEPABboS7G_UOOHAEt42aOBrMR8o0HyTKV0RIXtwbx9qOlqCatw13uvuSZyfLReYt88UgVG16oexNXsbLxEhlh0f8NKqWCqW9ghfBAXZHVJQH_xU-b1Q2pLxhrGsjAb3M2w2mc_fZF6nkEM37wgid8MncF66aMDUTUW-9OAiLPeHPp1JCWajtP1NK3Z8BYuDuZwlyM5sd6ZX5e_S5TGFrr5uIikv9oly4xdo0BxFelHFFz3jKmoHt1AjAv4ZlcZJnU_7I9gSwQn7J06TCKjjqbTnhntVJ8S3ayF6Rm_STO2s4jlqVvp1D4481YnBXpeLO2oHonfd6d2UIXM1FlOu3CY1j3pYSuVZA9lFQS647p-vMrcIFFhAmeDR9x6QFyu7k8mXrv-i9ZAk8tFODJOrpb7Xf26pZpKMsVmqnGsG2BSXfSjStSShw4TzGsLtSvASP2n-w4kEapG9umcljhf9bLjK4SQdNhImhaZBRYxLzBpyuPUftK6QLqz2okMGlhgl9LTeQJRlwIEthY3whIZLXOHvJw6HMcQdcMpCSuynQ4yKoadQFjcXT_VvqC8WtCMstyMLjVX5l8viYAQzMqOEvsZ8JRRUVxrGeoxBpQXnhFlDQXUWWJhTQsxBcERWDO0_Sp0mLuhQNpPnH3s-yT3Enl8PxGLgVDWNAqmlf6MfgImok2-8Vy0]--></g></svg>