<svg xmlns="http://www.w3.org/2000/svg" xmlns:xlink="http://www.w3.org/1999/xlink" contentStyleType="text/css" height="1304px" preserveAspectRatio="none" style="width:957px;height:1304px;background:#FFFFFF;" version="1.1" viewBox="0 0 957 1304" width="957px" zoomAndPan="magnify"><title>Diag Route Owner To Gateway Open Signal Flow</title><defs/><g><text fill="#000000" font-family="Arial" font-size="22" font-weight="bold" lengthAdjust="spacing" textLength="510.9521" x="221.7863" y="35.9956">Diag Route Owner To Gateway Open Signal Flow</text><text fill="#000000" font-family="Arial" font-size="22" font-weight="bold" lengthAdjust="spacing" textLength="561.0215" x="196.7516" y="61.2935">(NAV/TMU route context -&gt; SGW -&gt; DCM / TEST_SCN)</text><line style="stroke:#000000;stroke-width:1;" x1="76" x2="76" y1="116.8936" y2="1260.6909"/><line style="stroke:#000000;stroke-width:1;" x1="270.5432" x2="270.5432" y1="116.8936" y2="1260.6909"/><line style="stroke:#000000;stroke-width:1;" x1="558.9087" x2="558.9087" y1="116.8936" y2="1260.6909"/><line style="stroke:#000000;stroke-width:1;" x1="746.7688" x2="746.7688" y1="116.8936" y2="1260.6909"/><rect fill="#F4F7FB" height="39.2979" rx="2.5" ry="2.5" style="stroke:#000000;stroke-width:1;" width="113.6821" x="20" y="76.5957"/><text fill="#000000" font-family="Arial" font-size="11" lengthAdjust="spacing" textLength="95.3799" x="29.1511" y="94.0935">NAV / route context</text><text fill="#000000" font-family="Arial" font-size="11" lengthAdjust="spacing" textLength="99.6821" x="27" y="106.7424">and boundary status</text><rect fill="#F4F7FB" height="39.2979" rx="2.5" ry="2.5" style="stroke:#000000;stroke-width:1;" width="113.6821" x="20" y="1259.6909"/><text fill="#000000" font-family="Arial" font-size="11" lengthAdjust="spacing" textLength="95.3799" x="29.1511" y="1277.1887">NAV / route context</text><text fill="#000000" font-family="Arial" font-size="11" lengthAdjust="spacing" textLength="99.6821" x="27" y="1289.8376">and boundary status</text><rect fill="#E8F7E8" height="39.2979" rx="2.5" ry="2.5" style="stroke:#000000;stroke-width:1;" width="140.5752" x="200.5432" y="76.5957"/><text fill="#000000" font-family="Arial" font-size="11" lengthAdjust="spacing" textLength="26.2754" x="257.6931" y="94.0935">SGW</text><text fill="#000000" font-family="Arial" font-size="11" lengthAdjust="spacing" textLength="126.5752" x="207.5432" y="106.7424">diagnostic gateway owner</text><rect fill="#E8F7E8" height="39.2979" rx="2.5" ry="2.5" style="stroke:#000000;stroke-width:1;" width="140.5752" x="200.5432" y="1259.6909"/><text fill="#000000" font-family="Arial" font-size="11" lengthAdjust="spacing" textLength="26.2754" x="257.6931" y="1277.1887">SGW</text><text fill="#000000" font-family="Arial" font-size="11" lengthAdjust="spacing" textLength="126.5752" x="207.5432" y="1289.8376">diagnostic gateway owner</text><rect fill="#FFF4CC" height="39.2979" rx="2.5" ry="2.5" style="stroke:#000000;stroke-width:1;" width="144.856" x="486.9087" y="76.5957"/><text fill="#000000" font-family="Arial" font-size="11" lengthAdjust="spacing" textLength="25.0508" x="546.8113" y="94.0935">DCM</text><text fill="#000000" font-family="Arial" font-size="11" lengthAdjust="spacing" textLength="130.856" x="493.9087" y="106.7424">diagnostic response owner</text><rect fill="#FFF4CC" height="39.2979" rx="2.5" ry="2.5" style="stroke:#000000;stroke-width:1;" width="144.856" x="486.9087" y="1259.6909"/><text fill="#000000" font-family="Arial" font-size="11" lengthAdjust="spacing" textLength="25.0508" x="546.8113" y="1277.1887">DCM</text><text fill="#000000" font-family="Arial" font-size="11" lengthAdjust="spacing" textLength="130.856" x="493.9087" y="1289.8376">diagnostic response owner</text><rect fill="#FFE6E6" height="39.2979" rx="2.5" ry="2.5" style="stroke:#000000;stroke-width:1;" width="112.4307" x="690.7688" y="76.5957"/><text fill="#000000" font-family="Arial" font-size="11" lengthAdjust="spacing" textLength="57.4546" x="718.2568" y="94.0935">TEST_SCN</text><text fill="#000000" font-family="Arial" font-size="11" lengthAdjust="spacing" textLength="98.4307" x="697.7688" y="106.7424">verification observer</text><rect fill="#FFE6E6" height="39.2979" rx="2.5" ry="2.5" style="stroke:#000000;stroke-width:1;" width="112.4307" x="690.7688" y="1259.6909"/><text fill="#000000" font-family="Arial" font-size="11" lengthAdjust="spacing" textLength="57.4546" x="718.2568" y="1277.1887">TEST_SCN</text><text fill="#000000" font-family="Arial" font-size="11" lengthAdjust="spacing" textLength="98.4307" x="697.7688" y="1289.8376">verification observer</text><rect fill="#FFFFFF" height="3" style="stroke:#FFFFFF;stroke-width:1;" width="945.5247" x="5" y="146.218"/><line style="stroke:#000000;stroke-width:0.5;" x1="5" x2="950.5247" y1="146.218" y2="146.218"/><line style="stroke:#000000;stroke-width:0.5;" x1="5" x2="950.5247" y1="149.218" y2="149.218"/><rect fill="#FFFFFF" height="20.6489" style="stroke:#000000;stroke-width:1;" width="144.7754" x="405.3746" y="136.8936"/><text fill="#000000" font-family="Arial" font-size="11" font-weight="bold" lengthAdjust="spacing" textLength="127.7192" x="411.3746" y="151.3914">Route / Boundary Inputs</text><polygon fill="#000000" points="258.8308,232.7871,268.8308,236.7871,258.8308,240.7871,262.8308,236.7871" style="stroke:#000000;stroke-width:1;"/><line style="stroke:#000000;stroke-width:1;" x1="76.8411" x2="264.8308" y1="236.7871" y2="236.7871"/><text fill="#000000" font-family="Arial" font-size="11" lengthAdjust="spacing" textLength="156.5352" x="95.5684" y="182.0403">routeActive / guidedRouteActive</text><text fill="#000000" font-family="Arial" font-size="11" lengthAdjust="spacing" textLength="128.4121" x="109.6299" y="194.6892">speedLimit / vehicleSpeed</text><text fill="#000000" font-family="Arial" font-size="11" lengthAdjust="spacing" textLength="169.9897" x="88.8411" y="207.3381">CoreState::domainBoundaryStatus</text><text fill="#000000" font-family="Arial" font-size="11" lengthAdjust="spacing" textLength="147.9736" x="99.8491" y="219.9871">CoreState::warningPathStatus</text><text fill="#000000" font-family="Arial" font-size="11" lengthAdjust="spacing" textLength="94.1606" x="126.7556" y="232.636">Core::failSafeMode</text><line style="stroke:#000000;stroke-width:1;" x1="270.8308" x2="312.8308" y1="263.436" y2="263.436"/><line style="stroke:#000000;stroke-width:1;" x1="312.8308" x2="312.8308" y1="263.436" y2="276.436"/><line style="stroke:#000000;stroke-width:1;" x1="271.8308" x2="312.8308" y1="276.436" y2="276.436"/><polygon fill="#000000" points="281.8308,272.436,271.8308,276.436,281.8308,280.436,277.8308,276.436" style="stroke:#000000;stroke-width:1;"/><text fill="#000000" font-family="Arial" font-size="11" lengthAdjust="spacing" textLength="163.856" x="277.8308" y="259.2849">ethHasBoundaryServiceContext()</text><line style="stroke:#000000;stroke-width:1;" x1="270.8308" x2="312.8308" y1="303.085" y2="303.085"/><line style="stroke:#000000;stroke-width:1;" x1="312.8308" x2="312.8308" y1="303.085" y2="316.085"/><line style="stroke:#000000;stroke-width:1;" x1="271.8308" x2="312.8308" y1="316.085" y2="316.085"/><polygon fill="#000000" points="281.8308,312.085,271.8308,316.085,281.8308,320.085,277.8308,316.085" style="stroke:#000000;stroke-width:1;"/><text fill="#000000" font-family="Arial" font-size="11" lengthAdjust="spacing" textLength="121.0752" x="277.8308" y="298.9338">ethDiagBoundaryStage()</text><path d="M275,329.085 L275,402.085 L436,402.085 L436,339.085 L426,329.085 L275,329.085 " fill="#FFFFFF" style="stroke:#000000;stroke-width:1;"/><path d="M426,329.085 L426,339.085 L436,339.085 L426,329.085 " fill="#FFFFFF" style="stroke:#000000;stroke-width:1;"/><text fill="#000000" font-family="Arial" font-size="11" lengthAdjust="spacing" textLength="140.0244" x="281" y="344.5828">Representative derived state</text><text fill="#000000" font-family="Arial" font-size="11" lengthAdjust="spacing" textLength="88.666" x="281" y="357.2317">- gIboxRouteState</text><text fill="#000000" font-family="Arial" font-size="11" lengthAdjust="spacing" textLength="97.2061" x="281" y="369.8806">- gIboxServiceFlags</text><text fill="#000000" font-family="Arial" font-size="11" lengthAdjust="spacing" textLength="83.7515" x="281" y="382.5295">- securitySession</text><text fill="#000000" font-family="Arial" font-size="11" lengthAdjust="spacing" textLength="53.813" x="281" y="395.1785">- authState</text><rect fill="#FFFFFF" height="3" style="stroke:#FFFFFF;stroke-width:1;" width="945.5247" x="5" y="426.6541"/><line style="stroke:#000000;stroke-width:0.5;" x1="5" x2="950.5247" y1="426.6541" y2="426.6541"/><line style="stroke:#000000;stroke-width:0.5;" x1="5" x2="950.5247" y1="429.6541" y2="429.6541"/><rect fill="#FFFFFF" height="20.6489" style="stroke:#000000;stroke-width:1;" width="181.4868" x="387.0189" y="417.3296"/><text fill="#000000" font-family="Arial" font-size="11" font-weight="bold" lengthAdjust="spacing" textLength="164.4307" x="393.0189" y="431.8274">Diagnostic Gateway Ownership</text><line style="stroke:#000000;stroke-width:1;" x1="270.8308" x2="312.8308" y1="466.6274" y2="466.6274"/><line style="stroke:#000000;stroke-width:1;" x1="312.8308" x2="312.8308" y1="466.6274" y2="479.6274"/><line style="stroke:#000000;stroke-width:1;" x1="271.8308" x2="312.8308" y1="479.6274" y2="479.6274"/><polygon fill="#000000" points="281.8308,475.6274,271.8308,479.6274,281.8308,483.6274,277.8308,479.6274" style="stroke:#000000;stroke-width:1;"/><text fill="#000000" font-family="Arial" font-size="11" lengthAdjust="spacing" textLength="98.7529" x="277.8308" y="462.4763">RouteOwner = 0/1/2</text><line style="stroke:#000000;stroke-width:1;" x1="270.8308" x2="312.8308" y1="506.2764" y2="506.2764"/><line style="stroke:#000000;stroke-width:1;" x1="312.8308" x2="312.8308" y1="506.2764" y2="519.2764"/><line style="stroke:#000000;stroke-width:1;" x1="271.8308" x2="312.8308" y1="519.2764" y2="519.2764"/><polygon fill="#000000" points="281.8308,515.2764,271.8308,519.2764,281.8308,523.2764,277.8308,519.2764" style="stroke:#000000;stroke-width:1;"/><text fill="#000000" font-family="Arial" font-size="11" lengthAdjust="spacing" textLength="137.8813" x="277.8308" y="502.1252">GatewayOpen = routeActive</text><line style="stroke:#000000;stroke-width:1;" x1="270.8308" x2="312.8308" y1="545.9253" y2="545.9253"/><line style="stroke:#000000;stroke-width:1;" x1="312.8308" x2="312.8308" y1="545.9253" y2="558.9253"/><line style="stroke:#000000;stroke-width:1;" x1="271.8308" x2="312.8308" y1="558.9253" y2="558.9253"/><polygon fill="#000000" points="281.8308,554.9253,271.8308,558.9253,281.8308,562.9253,277.8308,558.9253" style="stroke:#000000;stroke-width:1;"/><text fill="#000000" font-family="Arial" font-size="11" lengthAdjust="spacing" textLength="274.5059" x="277.8308" y="541.7742">SecurityState / AuthState / SecurityFault / SecurityPolicy</text><polygon fill="#000000" points="547.3367,606.8721,557.3367,610.8721,547.3367,614.8721,551.3367,610.8721" style="stroke:#000000;stroke-width:1;"/><line style="stroke:#000000;stroke-width:1;" x1="270.8308" x2="553.3367" y1="610.8721" y2="610.8721"/><text fill="#000000" font-family="Arial" font-size="11" lengthAdjust="spacing" textLength="90.4868" x="369.8403" y="581.4231">Diag::RouteOwner</text><text fill="#000000" font-family="Arial" font-size="11" lengthAdjust="spacing" textLength="99.0537" x="365.5569" y="594.072">Diag::GatewayOpen</text><text fill="#000000" font-family="Arial" font-size="11" lengthAdjust="spacing" textLength="94.1553" x="368.0061" y="606.7209">Diag::SecurityState</text><path d="M275,623.8721 L275,683.8721 L401,683.8721 L401,633.8721 L391,623.8721 L275,623.8721 " fill="#FFFFFF" style="stroke:#000000;stroke-width:1;"/><path d="M391,623.8721 L391,633.8721 L401,633.8721 L391,623.8721 " fill="#FFFFFF" style="stroke:#000000;stroke-width:1;"/><text fill="#000000" font-family="Arial" font-size="11" lengthAdjust="spacing" textLength="78.2622" x="281" y="639.3699">Key diag seams</text><text fill="#000000" font-family="Arial" font-size="11" lengthAdjust="spacing" textLength="97.2061" x="281" y="652.0188">- Diag::RouteOwner</text><text fill="#000000" font-family="Arial" font-size="11" lengthAdjust="spacing" textLength="105.7729" x="281" y="664.6677">- Diag::GatewayOpen</text><text fill="#000000" font-family="Arial" font-size="11" lengthAdjust="spacing" textLength="100.8745" x="281" y="677.3167">- Diag::SecurityState</text><rect fill="#FFFFFF" height="3" style="stroke:#FFFFFF;stroke-width:1;" width="945.5247" x="5" y="708.7922"/><line style="stroke:#000000;stroke-width:0.5;" x1="5" x2="950.5247" y1="708.7922" y2="708.7922"/><line style="stroke:#000000;stroke-width:0.5;" x1="5" x2="950.5247" y1="711.7922" y2="711.7922"/><rect fill="#FFFFFF" height="20.6489" style="stroke:#000000;stroke-width:1;" width="124.6284" x="415.4481" y="699.4678"/><text fill="#000000" font-family="Arial" font-size="11" font-weight="bold" lengthAdjust="spacing" textLength="107.5723" x="421.4481" y="713.9656">DCM Response Path</text><line style="stroke:#000000;stroke-width:1;" x1="559.3367" x2="601.3367" y1="761.4146" y2="761.4146"/><line style="stroke:#000000;stroke-width:1;" x1="601.3367" x2="601.3367" y1="761.4146" y2="774.4146"/><line style="stroke:#000000;stroke-width:1;" x1="560.3367" x2="601.3367" y1="774.4146" y2="774.4146"/><polygon fill="#000000" points="570.3367,770.4146,560.3367,774.4146,570.3367,778.4146,566.3367,774.4146" style="stroke:#000000;stroke-width:1;"/><text fill="#000000" font-family="Arial" font-size="11" lengthAdjust="spacing" textLength="101.4922" x="588.0547" y="744.6145">derive ServiceState /</text><text fill="#000000" font-family="Arial" font-size="11" lengthAdjust="spacing" textLength="144.9282" x="566.3367" y="757.2634">ResponseKind / ReasonCode</text><line style="stroke:#000000;stroke-width:1;" x1="559.3367" x2="601.3367" y1="801.0635" y2="801.0635"/><line style="stroke:#000000;stroke-width:1;" x1="601.3367" x2="601.3367" y1="801.0635" y2="814.0635"/><line style="stroke:#000000;stroke-width:1;" x1="560.3367" x2="601.3367" y1="814.0635" y2="814.0635"/><polygon fill="#000000" points="570.3367,810.0635,560.3367,814.0635,570.3367,818.0635,566.3367,814.0635" style="stroke:#000000;stroke-width:1;"/><text fill="#000000" font-family="Arial" font-size="11" lengthAdjust="spacing" textLength="165.0859" x="566.3367" y="796.9124">publishDiagRequestObservation()</text><line style="stroke:#000000;stroke-width:1;" x1="559.3367" x2="601.3367" y1="840.7124" y2="840.7124"/><line style="stroke:#000000;stroke-width:1;" x1="601.3367" x2="601.3367" y1="840.7124" y2="853.7124"/><line style="stroke:#000000;stroke-width:1;" x1="560.3367" x2="601.3367" y1="853.7124" y2="853.7124"/><polygon fill="#000000" points="570.3367,849.7124,560.3367,853.7124,570.3367,857.7124,566.3367,853.7124" style="stroke:#000000;stroke-width:1;"/><text fill="#000000" font-family="Arial" font-size="11" lengthAdjust="spacing" textLength="173.6475" x="566.3367" y="836.5613">publishDiagResponseObservation()</text><polygon fill="#000000" points="734.9841,926.957,744.9841,930.957,734.9841,934.957,738.9841,930.957" style="stroke:#000000;stroke-width:1;"/><line style="stroke:#000000;stroke-width:1;" x1="559.3367" x2="740.9841" y1="930.957" y2="930.957"/><text fill="#000000" font-family="Arial" font-size="11" lengthAdjust="spacing" textLength="91.0991" x="607.6108" y="876.2102">Diag::ServiceState</text><text fill="#000000" font-family="Arial" font-size="11" lengthAdjust="spacing" textLength="100.2837" x="603.0186" y="888.8591">Diag::ResponseKind</text><text fill="#000000" font-family="Arial" font-size="11" lengthAdjust="spacing" textLength="92.9468" x="606.687" y="901.5081">Diag::ReasonCode</text><text fill="#000000" font-family="Arial" font-size="11" lengthAdjust="spacing" textLength="106.396" x="599.9624" y="914.157">Diag::LastRequestSid</text><text fill="#000000" font-family="Arial" font-size="11" lengthAdjust="spacing" textLength="125.356" x="590.4824" y="926.8059">Diag::LastResponseCode</text><rect fill="#FFFFFF" height="3" style="stroke:#FFFFFF;stroke-width:1;" width="945.5247" x="5" y="958.2815"/><line style="stroke:#000000;stroke-width:0.5;" x1="5" x2="950.5247" y1="958.2815" y2="958.2815"/><line style="stroke:#000000;stroke-width:0.5;" x1="5" x2="950.5247" y1="961.2815" y2="961.2815"/><rect fill="#FFFFFF" height="20.6489" style="stroke:#000000;stroke-width:1;" width="134.4307" x="410.547" y="948.957"/><text fill="#000000" font-family="Arial" font-size="11" font-weight="bold" lengthAdjust="spacing" textLength="117.3745" x="416.547" y="963.4548">Verification / Evidence</text><line style="stroke:#000000;stroke-width:1;" x1="746.9841" x2="788.9841" y1="1010.9038" y2="1010.9038"/><line style="stroke:#000000;stroke-width:1;" x1="788.9841" x2="788.9841" y1="1010.9038" y2="1023.9038"/><line style="stroke:#000000;stroke-width:1;" x1="747.9841" x2="788.9841" y1="1023.9038" y2="1023.9038"/><polygon fill="#000000" points="757.9841,1019.9038,747.9841,1023.9038,757.9841,1027.9038,753.9841,1023.9038" style="stroke:#000000;stroke-width:1;"/><text fill="#000000" font-family="Arial" font-size="11" lengthAdjust="spacing" textLength="189.5405" x="753.9841" y="994.1038">observe RouteOwner / GatewayOpen /</text><text fill="#000000" font-family="Arial" font-size="11" lengthAdjust="spacing" textLength="135.7437" x="780.8826" y="1006.7527">ServiceState / ReasonCode</text><line style="stroke:#000000;stroke-width:1;" x1="746.9841" x2="788.9841" y1="1063.2017" y2="1063.2017"/><line style="stroke:#000000;stroke-width:1;" x1="788.9841" x2="788.9841" y1="1063.2017" y2="1076.2017"/><line style="stroke:#000000;stroke-width:1;" x1="747.9841" x2="788.9841" y1="1076.2017" y2="1076.2017"/><polygon fill="#000000" points="757.9841,1072.2017,747.9841,1076.2017,757.9841,1080.2017,753.9841,1076.2017" style="stroke:#000000;stroke-width:1;"/><text fill="#000000" font-family="Arial" font-size="11" lengthAdjust="spacing" textLength="144.939" x="753.9841" y="1046.4016">evaluate blocked or degraded</text><text fill="#000000" font-family="Arial" font-size="11" lengthAdjust="spacing" textLength="114.3184" x="769.2944" y="1059.0505">service context verdicts</text><path d="M751,1089.2017 L751,1162.2017 L883,1162.2017 L883,1099.2017 L873,1089.2017 L751,1089.2017 " fill="#FFFFFF" style="stroke:#000000;stroke-width:1;"/><path d="M873,1089.2017 L873,1099.2017 L883,1099.2017 L873,1089.2017 " fill="#FFFFFF" style="stroke:#000000;stroke-width:1;"/><text fill="#000000" font-family="Arial" font-size="11" lengthAdjust="spacing" textLength="111.2783" x="757" y="1104.6995">Representative checks</text><text fill="#000000" font-family="Arial" font-size="11" lengthAdjust="spacing" textLength="93.5483" x="757" y="1117.3484">- RouteOwner == 1</text><text fill="#000000" font-family="Arial" font-size="11" lengthAdjust="spacing" textLength="94.1606" x="757" y="1129.9973">- ServiceState == 2</text><text fill="#000000" font-family="Arial" font-size="11" lengthAdjust="spacing" textLength="103.3452" x="757" y="1142.6462">- ResponseKind == 4</text><text fill="#000000" font-family="Arial" font-size="11" lengthAdjust="spacing" textLength="96.0083" x="757" y="1155.2952">- ReasonCode == 2</text><path d="M12,1172.4463 L12,1245.4463 L810,1245.4463 L810,1182.4463 L800,1172.4463 L12,1172.4463 " fill="#FFFFFF" style="stroke:#000000;stroke-width:1;"/><path d="M800,1172.4463 L800,1182.4463 L810,1182.4463 L800,1172.4463 " fill="#FFFFFF" style="stroke:#000000;stroke-width:1;"/><text fill="#000000" font-family="Arial" font-size="11" lengthAdjust="spacing" textLength="143.0752" x="244.8922" y="1187.9441">Representative runtime chain</text><text fill="#000000" font-family="Arial" font-size="11" lengthAdjust="spacing" textLength="200.5513" x="244.8922" y="1200.593">1. Route/boundary context reaches SGW</text><text fill="#000000" font-family="Arial" font-size="11" lengthAdjust="spacing" textLength="226.832" x="244.8922" y="1213.2419">2. SGW owns RouteOwner and GatewayOpen</text><text fill="#000000" font-family="Arial" font-size="11" lengthAdjust="spacing" textLength="323.415" x="244.8922" y="1225.8909">3. DCM derives service/response state on top of SGW diag seams</text><text fill="#000000" font-family="Arial" font-size="11" lengthAdjust="spacing" textLength="306.9365" x="244.8922" y="1238.5398">4. TEST_SCN consumes the diag path as verification evidence</text><!--SRC=[TLPHRzCm47xFhpZW1IHOw9ZO5Ab8NTS26jjGC-2b4dAJQsejjOFjj1k_dhCJf_RO-hBkV7V-xhllV7rXDhX5Q6h6HQBlk6YOObjOiUAkKh8LvLJMKi6hkVi47YMkMLkRkHJccb66YUAiVleyvtyHHgFWKEEV5aM1LwWrgt1Iyqf0WSAW2hmKwaOAxRtEiPRxYL9o3qQrc2I6cnhXWhCA5h8r23TxWGfk9Nnc1lVi0MuQ591JSbR3dAANulNrv6TwU_K3b8ie21xU6tZt2VBFl-oVY-aLf70xosz_vzFhDqb2M0mlUCE4WPSKJQTHx58mKSBASiNK0sZ3JAjV0jCTgAcv9_PEvgVpypWLtRSK9O4NKfCLgXwpj4MuU8lerUniVZexYqC9OnJgYGfYRHcsQIVJQHphArkA7Ig-vWKpN0gGAurgrmTx7vjXzd7sCKd6uvxY5CvzfLz5qneDut6I39NsF6OTHPF2y9sDgLfUOhaus9P2DuZbDxxbXivtkE55ZRcrBSLKAio9HiooKcv9cFxAt74REUoP4bnKtvdPXATPjcQypjaQhsI9IT_R3XgQpHUcXvnKDYzmsZNpzPl_VAs-0W0Lae-GH8NYrSQ0N5lNP84DTO4Kp5p99N6xmzAf0PDtK7rToNjNVnvQ-ildDQiqsJGMhUA6C6bDJI4BQxkwC44IcRtMzUBYqFj1whRrUiCRrv2e27TlDnjZU9-EqkFul4_XXcKSTYvsopqwYuUQDl7OwBi_czkP3_x_BcjUF2J1R6KEV9OTG2r5PmbWU5DqvHEiN-83s3aWvjZMClWuzs0AaW-sE7jCC25T-AcoudAiMkjGHjTYw5lO4x4KFkgIKxwKaZ0jIP8amYYwQLSrrqvS2_iOQdFZ9j1D8odiUUSk_PFUmzncGuK7S9xJ4E31vb5wopUcJGyivsLixU9TJPQhd-4xai9iHxDERxjZR40Ke-jVcr2PQIH38Z8cDYJocQIuOtLhdLUrBEve-6XlbLWfLjf7HNVfXXUVthgI5qO_KfNFztYWYmqMTrPXuJ2DOKIM22ZPZgrNg0AodJYRhw3pEWZEGP24Q5WPRvy5ebfX-DO2iXjxTDI5fCF-yVKfP8JPBP7a-CYDC6q77UAtUokSYmz7Jc-Ti3NqZAN3Td6F6L2JZMpw2Godx-Jeq0r2eTij9Q6V5vrFOuU8TakqTR3Noe6BVm00]--></g></svg>