<svg xmlns="http://www.w3.org/2000/svg" xmlns:xlink="http://www.w3.org/1999/xlink" contentStyleType="text/css" height="771px" preserveAspectRatio="none" style="width:954px;height:771px;background:#FFFFFF;" version="1.1" viewBox="0 0 954 771" width="954px" zoomAndPan="magnify"><title>DKEY Access To TGM Tailgate State Signal Flow</title><defs/><g><text fill="#000000" font-family="Arial" font-size="22" font-weight="bold" lengthAdjust="spacing" textLength="509.7705" x="220.9056" y="35.9956">DKEY Access To TGM Tailgate State Signal Flow</text><text fill="#000000" font-family="Arial" font-size="22" font-weight="bold" lengthAdjust="spacing" textLength="684.5889" x="133.4965" y="61.2935">(DKEY access + tailgate control -&gt; TGM tailgate-state publication)</text><rect fill="#FFFFFF" height="348.436" style="stroke:#000000;stroke-width:1;" width="10" x="606.3232" y="277.436"/><line style="stroke:#000000;stroke-width:1;" x1="102" x2="102" y1="116.8936" y2="727.1167"/><line style="stroke:#000000;stroke-width:1;" x1="306.4175" x2="306.4175" y1="116.8936" y2="727.1167"/><line style="stroke:#000000;stroke-width:1;" x1="468.228" x2="468.228" y1="116.8936" y2="727.1167"/><line style="stroke:#000000;stroke-width:1;" x1="611.0798" x2="611.0798" y1="116.8936" y2="727.1167"/><line style="stroke:#000000;stroke-width:1;" x1="870.0442" x2="870.0442" y1="116.8936" y2="727.1167"/><rect fill="#F4F7FB" height="39.2979" rx="2.5" ry="2.5" style="stroke:#000000;stroke-width:1;" width="164.4175" x="20" y="76.5957"/><text fill="#000000" font-family="Arial" font-size="11" lengthAdjust="spacing" textLength="111.2783" x="46.5696" y="94.0935">Tailgate control source</text><text fill="#000000" font-family="Arial" font-size="11" lengthAdjust="spacing" textLength="150.4175" x="27" y="106.7424">assist / open request / actuator</text><rect fill="#F4F7FB" height="39.2979" rx="2.5" ry="2.5" style="stroke:#000000;stroke-width:1;" width="164.4175" x="20" y="726.1167"/><text fill="#000000" font-family="Arial" font-size="11" lengthAdjust="spacing" textLength="111.2783" x="46.5696" y="743.6145">Tailgate control source</text><text fill="#000000" font-family="Arial" font-size="11" lengthAdjust="spacing" textLength="150.4175" x="27" y="756.2634">assist / open request / actuator</text><rect fill="#E8F0FE" height="39.2979" rx="2.5" ry="2.5" style="stroke:#000000;stroke-width:1;" width="185.8105" x="214.4175" y="76.5957"/><text fill="#000000" font-family="Arial" font-size="11" lengthAdjust="spacing" textLength="29.9546" x="292.3455" y="94.0935">DKEY</text><text fill="#000000" font-family="Arial" font-size="11" lengthAdjust="spacing" textLength="171.8105" x="221.4175" y="106.7424">VehicleAccessState / KeyPresence</text><rect fill="#E8F0FE" height="39.2979" rx="2.5" ry="2.5" style="stroke:#000000;stroke-width:1;" width="185.8105" x="214.4175" y="726.1167"/><text fill="#000000" font-family="Arial" font-size="11" lengthAdjust="spacing" textLength="29.9546" x="292.3455" y="743.6145">DKEY</text><text fill="#000000" font-family="Arial" font-size="11" lengthAdjust="spacing" textLength="171.8105" x="221.4175" y="756.2634">VehicleAccessState / KeyPresence</text><rect fill="#E8F0FE" height="39.2979" rx="2.5" ry="2.5" style="stroke:#000000;stroke-width:1;" width="76.9814" x="430.228" y="76.5957"/><text fill="#000000" font-family="Arial" font-size="11" lengthAdjust="spacing" textLength="62.9814" x="437.228" y="94.0935">Vehicle state</text><text fill="#000000" font-family="Arial" font-size="11" lengthAdjust="spacing" textLength="51.353" x="443.0422" y="106.7424">DriveState</text><rect fill="#E8F0FE" height="39.2979" rx="2.5" ry="2.5" style="stroke:#000000;stroke-width:1;" width="76.9814" x="430.228" y="726.1167"/><text fill="#000000" font-family="Arial" font-size="11" lengthAdjust="spacing" textLength="62.9814" x="437.228" y="743.6145">Vehicle state</text><text fill="#000000" font-family="Arial" font-size="11" lengthAdjust="spacing" textLength="51.353" x="443.0422" y="756.2634">DriveState</text><rect fill="#FFF4CC" height="39.2979" rx="2.5" ry="2.5" style="stroke:#000000;stroke-width:1;" width="82.4868" x="570.0798" y="76.5957"/><text fill="#000000" font-family="Arial" font-size="11" lengthAdjust="spacing" textLength="24.4385" x="599.104" y="94.0935">TGM</text><text fill="#000000" font-family="Arial" font-size="11" lengthAdjust="spacing" textLength="68.4868" x="577.0798" y="106.7424">tailgate owner</text><rect fill="#FFF4CC" height="39.2979" rx="2.5" ry="2.5" style="stroke:#000000;stroke-width:1;" width="82.4868" x="570.0798" y="726.1167"/><text fill="#000000" font-family="Arial" font-size="11" lengthAdjust="spacing" textLength="24.4385" x="599.104" y="743.6145">TGM</text><text fill="#000000" font-family="Arial" font-size="11" lengthAdjust="spacing" textLength="68.4868" x="577.0798" y="756.2634">tailgate owner</text><rect fill="#FCE8FF" height="39.2979" rx="2.5" ry="2.5" style="stroke:#000000;stroke-width:1;" width="96.5376" x="822.0442" y="76.5957"/><text fill="#000000" font-family="Arial" font-size="11" lengthAdjust="spacing" textLength="82.5376" x="829.0442" y="94.0935">Body observers /</text><text fill="#000000" font-family="Arial" font-size="11" lengthAdjust="spacing" textLength="75.2222" x="832.7019" y="106.7424">panel readback</text><rect fill="#FCE8FF" height="39.2979" rx="2.5" ry="2.5" style="stroke:#000000;stroke-width:1;" width="96.5376" x="822.0442" y="726.1167"/><text fill="#000000" font-family="Arial" font-size="11" lengthAdjust="spacing" textLength="82.5376" x="829.0442" y="743.6145">Body observers /</text><text fill="#000000" font-family="Arial" font-size="11" lengthAdjust="spacing" textLength="75.2222" x="832.7019" y="756.2634">panel readback</text><rect fill="#FFFFFF" height="348.436" style="stroke:#000000;stroke-width:1;" width="10" x="606.3232" y="277.436"/><rect fill="#FFFFFF" height="3" style="stroke:#FFFFFF;stroke-width:1;" width="942.5818" x="5" y="146.218"/><line style="stroke:#000000;stroke-width:0.5;" x1="5" x2="947.5818" y1="146.218" y2="146.218"/><line style="stroke:#000000;stroke-width:0.5;" x1="5" x2="947.5818" y1="149.218" y2="149.218"/><rect fill="#FFFFFF" height="20.6489" style="stroke:#000000;stroke-width:1;" width="94.6738" x="428.954" y="136.8936"/><text fill="#000000" font-family="Arial" font-size="11" font-weight="bold" lengthAdjust="spacing" textLength="77.6177" x="434.954" y="151.3914">Tailgate Inputs</text><polygon fill="#000000" points="599.3232,194.8403,609.3232,198.8403,599.3232,202.8403,603.3232,198.8403" style="stroke:#000000;stroke-width:1;"/><line style="stroke:#000000;stroke-width:1;" x1="102.2087" x2="605.3232" y1="198.8403" y2="198.8403"/><text fill="#000000" font-family="Arial" font-size="11" lengthAdjust="spacing" textLength="149.7676" x="281.8822" y="182.0403">frmPowerTailgateCtrlStateMsg</text><text fill="#000000" font-family="Arial" font-size="11" lengthAdjust="spacing" textLength="311.2119" x="201.16" y="194.6892">TailgateAssistMode / OpenRequestState / TailgateActuatorCmd</text><polygon fill="#000000" points="599.3232,234.1382,609.3232,238.1382,599.3232,242.1382,603.3232,238.1382" style="stroke:#000000;stroke-width:1;"/><line style="stroke:#000000;stroke-width:1;" x1="307.3228" x2="605.3232" y1="238.1382" y2="238.1382"/><text fill="#000000" font-family="Arial" font-size="11" lengthAdjust="spacing" textLength="111.8691" x="403.3884" y="221.3381">frmDigitalKeyStateMsg</text><text fill="#000000" font-family="Arial" font-size="11" lengthAdjust="spacing" textLength="171.8105" x="373.4177" y="233.9871">VehicleAccessState / KeyPresence</text><polygon fill="#000000" points="594.3232,273.436,604.3232,277.436,594.3232,281.436,598.3232,277.436" style="stroke:#000000;stroke-width:1;"/><line style="stroke:#000000;stroke-width:1;" x1="468.7188" x2="600.3232" y1="277.436" y2="277.436"/><text fill="#000000" font-family="Arial" font-size="11" lengthAdjust="spacing" textLength="118.6045" x="478.2188" y="260.636">frmVehicleStateCanMsg</text><text fill="#000000" font-family="Arial" font-size="11" lengthAdjust="spacing" textLength="51.353" x="511.8445" y="273.2849">DriveState</text><line style="stroke:#000000;stroke-width:1;" x1="616.3232" x2="658.3232" y1="304.085" y2="304.085"/><line style="stroke:#000000;stroke-width:1;" x1="658.3232" x2="658.3232" y1="304.085" y2="317.085"/><line style="stroke:#000000;stroke-width:1;" x1="617.3232" x2="658.3232" y1="317.085" y2="317.085"/><polygon fill="#000000" points="627.3232,313.085,617.3232,317.085,627.3232,321.085,623.3232,317.085" style="stroke:#000000;stroke-width:1;"/><text fill="#000000" font-family="Arial" font-size="11" lengthAdjust="spacing" textLength="224.9897" x="623.3232" y="299.9338">normalize stale control / DKEY / vehicle inputs</text><line style="stroke:#000000;stroke-width:1;" x1="616.3232" x2="658.3232" y1="356.3828" y2="356.3828"/><line style="stroke:#000000;stroke-width:1;" x1="658.3232" x2="658.3232" y1="356.3828" y2="369.3828"/><line style="stroke:#000000;stroke-width:1;" x1="617.3232" x2="658.3232" y1="369.3828" y2="369.3828"/><polygon fill="#000000" points="627.3232,365.3828,617.3232,369.3828,627.3232,373.3828,623.3232,369.3828" style="stroke:#000000;stroke-width:1;"/><text fill="#000000" font-family="Arial" font-size="11" lengthAdjust="spacing" textLength="155.6167" x="646.3975" y="339.5828">accessAuthorized when drive=0</text><text fill="#000000" font-family="Arial" font-size="11" lengthAdjust="spacing" textLength="201.7651" x="623.3232" y="352.2317">and DKEY access/key conditions are met</text><line style="stroke:#000000;stroke-width:1;" x1="616.3232" x2="658.3232" y1="396.0317" y2="396.0317"/><line style="stroke:#000000;stroke-width:1;" x1="658.3232" x2="658.3232" y1="396.0317" y2="409.0317"/><line style="stroke:#000000;stroke-width:1;" x1="617.3232" x2="658.3232" y1="409.0317" y2="409.0317"/><polygon fill="#000000" points="627.3232,405.0317,617.3232,409.0317,627.3232,413.0317,623.3232,409.0317" style="stroke:#000000;stroke-width:1;"/><text fill="#000000" font-family="Arial" font-size="11" lengthAdjust="spacing" textLength="182.832" x="623.3232" y="391.8806">derive TailgateLockState / OpenState</text><line style="stroke:#000000;stroke-width:1;" x1="616.3232" x2="658.3232" y1="435.6807" y2="435.6807"/><line style="stroke:#000000;stroke-width:1;" x1="658.3232" x2="658.3232" y1="435.6807" y2="448.6807"/><line style="stroke:#000000;stroke-width:1;" x1="617.3232" x2="658.3232" y1="448.6807" y2="448.6807"/><polygon fill="#000000" points="627.3232,444.6807,617.3232,448.6807,627.3232,452.6807,623.3232,448.6807" style="stroke:#000000;stroke-width:1;"/><text fill="#000000" font-family="Arial" font-size="11" lengthAdjust="spacing" textLength="216.4497" x="623.3232" y="431.5295">derive TailgatePowerState / TailgatePosition</text><path d="M621,461.6807 L621,534.6807 L848,534.6807 L848,471.6807 L838,461.6807 L621,461.6807 " fill="#FFFFFF" style="stroke:#000000;stroke-width:1;"/><path d="M838,461.6807 L838,471.6807 L848,471.6807 L838,461.6807 " fill="#FFFFFF" style="stroke:#000000;stroke-width:1;"/><text fill="#000000" font-family="Arial" font-size="11" lengthAdjust="spacing" textLength="126.5752" x="627" y="477.1785">Representative conditions</text><text fill="#000000" font-family="Arial" font-size="11" lengthAdjust="spacing" textLength="83.1499" x="627" y="489.8274">- DriveState == 0</text><text fill="#000000" font-family="Arial" font-size="11" lengthAdjust="spacing" textLength="97.2222" x="627" y="502.4763">- KeyPresence == 1</text><text fill="#000000" font-family="Arial" font-size="11" lengthAdjust="spacing" textLength="129.0137" x="627" y="515.1252">- VehicleAccessState &gt;= 1</text><text fill="#000000" font-family="Arial" font-size="11" lengthAdjust="spacing" textLength="206.6421" x="627" y="527.7742">- assist / request / actuator command valid</text><rect fill="#FFFFFF" height="3" style="stroke:#FFFFFF;stroke-width:1;" width="942.5818" x="5" y="559.2498"/><line style="stroke:#000000;stroke-width:0.5;" x1="5" x2="947.5818" y1="559.2498" y2="559.2498"/><line style="stroke:#000000;stroke-width:0.5;" x1="5" x2="947.5818" y1="562.2498" y2="562.2498"/><rect fill="#FFFFFF" height="20.6489" style="stroke:#000000;stroke-width:1;" width="101.4038" x="425.589" y="549.9253"/><text fill="#000000" font-family="Arial" font-size="11" font-weight="bold" lengthAdjust="spacing" textLength="84.3477" x="431.589" y="564.4231">Tailgate Publish</text><polygon fill="#000000" points="858.313,595.2231,868.313,599.2231,858.313,603.2231,862.313,599.2231" style="stroke:#000000;stroke-width:1;"/><line style="stroke:#000000;stroke-width:1;" x1="616.3232" x2="864.313" y1="599.2231" y2="599.2231"/><text fill="#000000" font-family="Arial" font-size="11" lengthAdjust="spacing" textLength="101.4814" x="692.5774" y="595.072">frmTailgateStateMsg</text><polygon fill="#000000" points="858.313,621.8721,868.313,625.8721,858.313,629.8721,862.313,625.8721" style="stroke:#000000;stroke-width:1;"/><line style="stroke:#000000;stroke-width:1;" x1="611.3232" x2="864.313" y1="625.8721" y2="625.8721"/><text fill="#000000" font-family="Arial" font-size="11" lengthAdjust="spacing" textLength="193.8428" x="643.8967" y="621.7209">traceable tailgate lock/open/power state</text><path d="M29,638.8721 L29,711.8721 L942,711.8721 L942,648.8721 L932,638.8721 L29,638.8721 " fill="#FFFFFF" style="stroke:#000000;stroke-width:1;"/><path d="M932,638.8721 L932,648.8721 L942,648.8721 L932,638.8721 " fill="#FFFFFF" style="stroke:#000000;stroke-width:1;"/><text fill="#000000" font-family="Arial" font-size="11" lengthAdjust="spacing" textLength="143.0752" x="328.1449" y="654.3699">Representative runtime chain</text><text fill="#000000" font-family="Arial" font-size="11" lengthAdjust="spacing" textLength="306.292" x="328.1449" y="667.0188">1. Tailgate control command arrives with DKEY access context</text><text fill="#000000" font-family="Arial" font-size="11" lengthAdjust="spacing" textLength="210.9282" x="328.1449" y="679.6677">2. TGM validates park/access authorization</text><text fill="#000000" font-family="Arial" font-size="11" lengthAdjust="spacing" textLength="256.7974" x="328.1449" y="692.3167">3. TGM derives lock, open, power, and position state</text><text fill="#000000" font-family="Arial" font-size="11" lengthAdjust="spacing" textLength="277.5889" x="328.1449" y="704.9656">4. Body observers and tests confirm the tailgate outcome</text><!--SRC=[XPLHRzCm4CVV_IcExGL4jsmm2OJKILst8WHbrLOX8VN5JQwDLSSEjjCoFZtdIz8ctGHzc3hxxk-xt__ilWev5WYbbie8lr6cb4uMi9JfPkriPRAnrTR1wOG_dOWCLxBIOM9D-2v9OUIKr2_lFwe_29UNdKsFloeqAKxHUxd6aLPh0ocQWAuJvT2NrlWswWQrtOsSipi8ha8XWWeQuVRhtKyOfIa5mTp2_FCKvbBfjGm8Zu7_ahhKCA7qXNdDyRAEVmkX3KsfK6Srd5spHBj-vbcYh9PQfJ8eQzu8GUK5bQfIcW0dysC5RokNui98xvKFa80jqL0pr3B_AzDGoM3T2KWFu-0qqRsQV9ZSz7LZdGlp0tELQgpxgzj9u2i-pGXE9CWYtDBftSV9nUIkBzAa0tUnCBTERP5LE8zsNquZ0WkpHsDt1kjg8vau2bVZSJ_XncPFO9SUtHQTXsH15XhKrBNCuYnnzltIK_QO3fm8CHmURFfYoYfu60w5O1wD1vzWvOgPtQ5h8-Ckbp_rwuLfLqSCUcgpoEQUO3_Kh5jS-xW6_BZ812FhddEhrYf8JMWF1_mFleW0ko9D0eUEfM6H0tD1pgjjLA444PFskSQwGkfuJyWfVPYbfFOsWMrZf69K_UHwc4TLoAqZYGnsEGrS5iyTNj0ScWmwGvziy2dgPofEimVf40eCVSaCO_QUt3URRjh-8-2wdNzbi6t71ioivqE5iRJkr3eFO5TCum5BXaePKUPGdpY30q4Q4RYWbOu7SUcIbbxmwhhUsT_3vrUGpYcAo6TBy3E1z2sMrf_EMRpxFkVnR5gEayo6jq7jpFG3WfCfoYNPjhzBcaWcyK58oaYelfWYmzver7miNIL-7mPHxfYGgqnGzEwcUNovBy_XsJlKzYPTvETXfqBU7GGEnDz1l3jd3va12NYWgxr9cY3PZ1M_VU9z7LgRxRcR0Rzl0-1-1X1FB1kVc-wkpk7eVOX1T53W6bRA5K0_GmT8jWfKF1xy-0i0]--></g></svg>