<svg xmlns="http://www.w3.org/2000/svg" xmlns:xlink="http://www.w3.org/1999/xlink" contentStyleType="text/css" height="730px" preserveAspectRatio="none" style="width:709px;height:730px;background:#FFFFFF;" version="1.1" viewBox="0 0 709 730" width="709px" zoomAndPan="magnify"><title>DKEY Access To SMK Immobilizer Signal Flow</title><defs/><g><text fill="#000000" font-family="Arial" font-size="22" font-weight="bold" lengthAdjust="spacing" textLength="488.9844" x="108.5692" y="35.9956">DKEY Access To SMK Immobilizer Signal Flow</text><text fill="#000000" font-family="Arial" font-size="22" font-weight="bold" lengthAdjust="spacing" textLength="642.4365" x="31.8431" y="61.2935">(DKEY access publication -&gt; SMK immobilizer/key-auth state)</text><rect fill="#FFFFFF" height="346.7339" style="stroke:#000000;stroke-width:1;" width="10" x="362.9724" y="238.1382"/><line style="stroke:#000000;stroke-width:1;" x1="81" x2="81" y1="116.8936" y2="686.1167"/><line style="stroke:#000000;stroke-width:1;" x1="225.2168" x2="225.2168" y1="116.8936" y2="686.1167"/><line style="stroke:#000000;stroke-width:1;" x1="367.6555" x2="367.6555" y1="116.8936" y2="686.1167"/><line style="stroke:#000000;stroke-width:1;" x1="634.989" x2="634.989" y1="116.8936" y2="686.1167"/><rect fill="#E8F7E8" height="39.2979" rx="2.5" ry="2.5" style="stroke:#000000;stroke-width:1;" width="122.2168" x="20" y="76.5957"/><text fill="#000000" font-family="Arial" font-size="11" lengthAdjust="spacing" textLength="29.9546" x="66.1311" y="94.0935">DKEY</text><text fill="#000000" font-family="Arial" font-size="11" lengthAdjust="spacing" textLength="108.2168" x="27" y="106.7424">access-state producer</text><rect fill="#E8F7E8" height="39.2979" rx="2.5" ry="2.5" style="stroke:#000000;stroke-width:1;" width="122.2168" x="20" y="685.1167"/><text fill="#000000" font-family="Arial" font-size="11" lengthAdjust="spacing" textLength="29.9546" x="66.1311" y="702.6145">DKEY</text><text fill="#000000" font-family="Arial" font-size="11" lengthAdjust="spacing" textLength="108.2168" x="27" y="715.2634">access-state producer</text><rect fill="#E8F0FE" height="39.2979" rx="2.5" ry="2.5" style="stroke:#000000;stroke-width:1;" width="106.3022" x="172.2168" y="76.5957"/><text fill="#000000" font-family="Arial" font-size="11" lengthAdjust="spacing" textLength="62.9814" x="193.8772" y="94.0935">Vehicle state</text><text fill="#000000" font-family="Arial" font-size="11" lengthAdjust="spacing" textLength="92.3022" x="179.2168" y="106.7424">DriveState visibility</text><rect fill="#E8F0FE" height="39.2979" rx="2.5" ry="2.5" style="stroke:#000000;stroke-width:1;" width="106.3022" x="172.2168" y="685.1167"/><text fill="#000000" font-family="Arial" font-size="11" lengthAdjust="spacing" textLength="62.9814" x="193.8772" y="702.6145">Vehicle state</text><text fill="#000000" font-family="Arial" font-size="11" lengthAdjust="spacing" textLength="92.3022" x="179.2168" y="715.2634">DriveState visibility</text><rect fill="#FFF4CC" height="39.2979" rx="2.5" ry="2.5" style="stroke:#000000;stroke-width:1;" width="102.6338" x="316.6555" y="76.5957"/><text fill="#000000" font-family="Arial" font-size="11" lengthAdjust="spacing" textLength="23.8369" x="356.054" y="94.0935">SMK</text><text fill="#000000" font-family="Arial" font-size="11" lengthAdjust="spacing" textLength="88.6338" x="323.6555" y="106.7424">immobilizer owner</text><rect fill="#FFF4CC" height="39.2979" rx="2.5" ry="2.5" style="stroke:#000000;stroke-width:1;" width="102.6338" x="316.6555" y="685.1167"/><text fill="#000000" font-family="Arial" font-size="11" lengthAdjust="spacing" textLength="23.8369" x="356.054" y="702.6145">SMK</text><text fill="#000000" font-family="Arial" font-size="11" lengthAdjust="spacing" textLength="88.6338" x="323.6555" y="715.2634">immobilizer owner</text><rect fill="#FCE8FF" height="39.2979" rx="2.5" ry="2.5" style="stroke:#000000;stroke-width:1;" width="97.1338" x="586.989" y="76.5957"/><text fill="#000000" font-family="Arial" font-size="11" lengthAdjust="spacing" textLength="83.1338" x="593.989" y="94.0935">Immobilizer bus /</text><text fill="#000000" font-family="Arial" font-size="11" lengthAdjust="spacing" textLength="48.2969" x="611.4075" y="106.7424">observers</text><rect fill="#FCE8FF" height="39.2979" rx="2.5" ry="2.5" style="stroke:#000000;stroke-width:1;" width="97.1338" x="586.989" y="685.1167"/><text fill="#000000" font-family="Arial" font-size="11" lengthAdjust="spacing" textLength="83.1338" x="593.989" y="702.6145">Immobilizer bus /</text><text fill="#000000" font-family="Arial" font-size="11" lengthAdjust="spacing" textLength="48.2969" x="611.4075" y="715.2634">observers</text><rect fill="#FFFFFF" height="346.7339" style="stroke:#000000;stroke-width:1;" width="10" x="362.9724" y="238.1382"/><rect fill="#FFFFFF" height="3" style="stroke:#FFFFFF;stroke-width:1;" width="697.1228" x="5" y="146.218"/><line style="stroke:#000000;stroke-width:0.5;" x1="5" x2="702.1228" y1="146.218" y2="146.218"/><line style="stroke:#000000;stroke-width:0.5;" x1="5" x2="702.1228" y1="149.218" y2="149.218"/><rect fill="#FFFFFF" height="20.6489" style="stroke:#000000;stroke-width:1;" width="91.6392" x="307.7418" y="136.8936"/><text fill="#000000" font-family="Arial" font-size="11" font-weight="bold" lengthAdjust="spacing" textLength="74.583" x="313.7418" y="151.3914">Access Inputs</text><polygon fill="#000000" points="355.9724,194.8403,365.9724,198.8403,355.9724,202.8403,359.9724,198.8403" style="stroke:#000000;stroke-width:1;"/><line style="stroke:#000000;stroke-width:1;" x1="81.1084" x2="361.9724" y1="198.8403" y2="198.8403"/><text fill="#000000" font-family="Arial" font-size="11" lengthAdjust="spacing" textLength="111.8691" x="168.6058" y="182.0403">frmDigitalKeyStateMsg</text><text fill="#000000" font-family="Arial" font-size="11" lengthAdjust="spacing" textLength="171.8105" x="138.6351" y="194.6892">VehicleAccessState / KeyPresence</text><polygon fill="#000000" points="350.9724,234.1382,360.9724,238.1382,350.9724,242.1382,354.9724,238.1382" style="stroke:#000000;stroke-width:1;"/><line style="stroke:#000000;stroke-width:1;" x1="225.3679" x2="356.9724" y1="238.1382" y2="238.1382"/><text fill="#000000" font-family="Arial" font-size="11" lengthAdjust="spacing" textLength="118.6045" x="234.8679" y="221.3381">frmVehicleStateCanMsg</text><text fill="#000000" font-family="Arial" font-size="11" lengthAdjust="spacing" textLength="51.353" x="268.4937" y="233.9871">DriveState</text><line style="stroke:#000000;stroke-width:1;" x1="372.9724" x2="414.9724" y1="264.7871" y2="264.7871"/><line style="stroke:#000000;stroke-width:1;" x1="414.9724" x2="414.9724" y1="264.7871" y2="277.7871"/><line style="stroke:#000000;stroke-width:1;" x1="373.9724" x2="414.9724" y1="277.7871" y2="277.7871"/><polygon fill="#000000" points="383.9724,273.7871,373.9724,277.7871,383.9724,281.7871,379.9724,277.7871" style="stroke:#000000;stroke-width:1;"/><text fill="#000000" font-family="Arial" font-size="11" lengthAdjust="spacing" textLength="182.8052" x="379.9724" y="260.636">normalize DKEY / vehicle stale inputs</text><line style="stroke:#000000;stroke-width:1;" x1="372.9724" x2="414.9724" y1="317.085" y2="317.085"/><line style="stroke:#000000;stroke-width:1;" x1="414.9724" x2="414.9724" y1="317.085" y2="330.085"/><line style="stroke:#000000;stroke-width:1;" x1="373.9724" x2="414.9724" y1="330.085" y2="330.085"/><polygon fill="#000000" points="383.9724,326.085,373.9724,330.085,383.9724,334.085,379.9724,330.085" style="stroke:#000000;stroke-width:1;"/><text fill="#000000" font-family="Arial" font-size="11" lengthAdjust="spacing" textLength="96.3037" x="448.6123" y="300.2849">accessAuthorized =</text><text fill="#000000" font-family="Arial" font-size="11" lengthAdjust="spacing" textLength="233.5835" x="379.9724" y="312.9338">KeyPresence == 1 &amp;&amp; VehicleAccessState &gt;= 1</text><line style="stroke:#000000;stroke-width:1;" x1="372.9724" x2="414.9724" y1="356.7339" y2="356.7339"/><line style="stroke:#000000;stroke-width:1;" x1="414.9724" x2="414.9724" y1="356.7339" y2="369.7339"/><line style="stroke:#000000;stroke-width:1;" x1="373.9724" x2="414.9724" y1="369.7339" y2="369.7339"/><polygon fill="#000000" points="383.9724,365.7339,373.9724,369.7339,383.9724,373.7339,379.9724,369.7339" style="stroke:#000000;stroke-width:1;"/><text fill="#000000" font-family="Arial" font-size="11" lengthAdjust="spacing" textLength="191.3667" x="379.9724" y="352.5828">derive ImmobilizerState / KeyAuthState</text><path d="M377,382.7339 L377,493.7339 L511,493.7339 L511,392.7339 L501,382.7339 L377,382.7339 " fill="#FFFFFF" style="stroke:#000000;stroke-width:1;"/><path d="M501,382.7339 L501,392.7339 L511,392.7339 L501,382.7339 " fill="#FFFFFF" style="stroke:#000000;stroke-width:1;"/><text fill="#000000" font-family="Arial" font-size="11" lengthAdjust="spacing" textLength="106.396" x="383" y="398.2317">Representative inputs</text><text fill="#000000" font-family="Arial" font-size="11" lengthAdjust="spacing" textLength="103.936" x="383" y="410.8806">- VehicleAccessState</text><text fill="#000000" font-family="Arial" font-size="11" lengthAdjust="spacing" textLength="72.1445" x="383" y="423.5295">- KeyPresence</text><text fill="#000000" font-family="Arial" font-size="11" lengthAdjust="spacing" textLength="58.0723" x="383" y="436.1785">- DriveState</text><text fill="#000000" font-family="Arial" font-size="11" lengthAdjust="spacing" textLength="3.0562" x="383" y="448.8274">&#160;</text><text fill="#000000" font-family="Arial" font-size="11" lengthAdjust="spacing" textLength="113.126" x="383" y="461.4763">Representative outputs</text><text fill="#000000" font-family="Arial" font-size="11" lengthAdjust="spacing" textLength="88.6338" x="383" y="474.1252">- ImmobilizerState</text><text fill="#000000" font-family="Arial" font-size="11" lengthAdjust="spacing" textLength="73.9868" x="383" y="486.7742">- KeyAuthState</text><rect fill="#FFFFFF" height="3" style="stroke:#FFFFFF;stroke-width:1;" width="697.1228" x="5" y="518.2498"/><line style="stroke:#000000;stroke-width:0.5;" x1="5" x2="702.1228" y1="518.2498" y2="518.2498"/><line style="stroke:#000000;stroke-width:0.5;" x1="5" x2="702.1228" y1="521.2498" y2="521.2498"/><rect fill="#FFFFFF" height="20.6489" style="stroke:#000000;stroke-width:1;" width="120.96" x="293.0814" y="508.9253"/><text fill="#000000" font-family="Arial" font-size="11" font-weight="bold" lengthAdjust="spacing" textLength="103.9038" x="299.0814" y="523.4231">Immobilizer Publish</text><polygon fill="#000000" points="623.5559,554.2231,633.5559,558.2231,623.5559,562.2231,627.5559,558.2231" style="stroke:#000000;stroke-width:1;"/><line style="stroke:#000000;stroke-width:1;" x1="372.9724" x2="629.5559" y1="558.2231" y2="558.2231"/><text fill="#000000" font-family="Arial" font-size="11" lengthAdjust="spacing" textLength="118.5776" x="444.9753" y="554.072">frmImmobilizerStateMsg</text><polygon fill="#000000" points="623.5559,580.8721,633.5559,584.8721,623.5559,588.8721,627.5559,584.8721" style="stroke:#000000;stroke-width:1;"/><line style="stroke:#000000;stroke-width:1;" x1="367.9724" x2="629.5559" y1="584.8721" y2="584.8721"/><text fill="#000000" font-family="Arial" font-size="11" lengthAdjust="spacing" textLength="159.5698" x="421.9792" y="580.7209">traceable SMK auth / immo state</text><path d="M18,597.8721 L18,670.8721 L697,670.8721 L697,607.8721 L687,597.8721 L18,597.8721 " fill="#FFFFFF" style="stroke:#000000;stroke-width:1;"/><path d="M687,597.8721 L687,607.8721 L697,607.8721 L687,597.8721 " fill="#FFFFFF" style="stroke:#000000;stroke-width:1;"/><text fill="#000000" font-family="Arial" font-size="11" lengthAdjust="spacing" textLength="143.0752" x="193.4862" y="613.3699">Representative runtime chain</text><text fill="#000000" font-family="Arial" font-size="11" lengthAdjust="spacing" textLength="245.8027" x="193.4862" y="626.0188">1. DKEY publishes access state and key presence</text><text fill="#000000" font-family="Arial" font-size="11" lengthAdjust="spacing" textLength="221.3159" x="193.4862" y="638.6677">2. SMK combines that with current drive state</text><text fill="#000000" font-family="Arial" font-size="11" lengthAdjust="spacing" textLength="226.8159" x="193.4862" y="651.3167">3. SMK derives immobilizer and key-auth state</text><text fill="#000000" font-family="Arial" font-size="11" lengthAdjust="spacing" textLength="319.1504" x="193.4862" y="663.9656">4. Downstream observers and tests verify authorization readiness</text><!--SRC=[RLJHQXin47pNLsmJ22tKSTq66WeEk8uD9QGDTIaKxaMdM_j4xgIhfBDnlxwhrJcMJVnWi3KpExkZrPjGOulGDL8RuP-rwQIJBPHIFM-SxKqrjurrSBdaJuQeS2tx9Yoj2TybASoSbithvolz3s4ooGuz_ktHA7n4x-K6PutU651e0heCvT1trlW3wYisTZTppkuWk1w523eq2FSFYpymKuf0yCl2wl41lhMjBNL3PHsiI5esi2HkOTuoM2PmrvUDLZ9eQs1qnqHz98wVSJ-IVQZ11ndmdH1aAcYbEsa2N4IXmYIb4IEWSxRg5ReBa3wvkbpSBZylRa-Plx7MYdmpgJ3tJcznnG9RxNMi7lOiGK1M-B1Sd2gGqy9aLi7kp50sDX6pkfdFJpdvIChUmxWmjlJejkWyCt-KdfXpghSKOZezJFIRwVhWOJeLWbiQ1lK5rgwzrniTPFE0U_R_w3U56RfBxDJM60ZnH676n4NiAXSP20oTIyCYnva8gOBUHXKYY4XwuHhhMXaRIhCUm_OuMFhMRFoKakAQKQZM4R62QM4oRzGbJE3g2bvfuewEJiKgZ2xpkvQr6ska1eob_vpUr07ichluYHqNfECeC1WTlLAL_in7Du9iCESojW-3phcZf79qXAQ2w8fZpk_5Krm8NtFOGwlnLd1CvwAKqoacEAbGbWqd1RmuOzwdTD55XITHfhbOkduSt_keSjwIwqtGzBIeEZvEa-iKT9TSeZ_iSTe-ILtHoa9tcDR7QtQYR5jgG-XGom0xJRvKxnmLWOe3JFO-9NGArUSFmK4vUmp43NcXfVF18RrJBul4q82U5eP-wlMUvn3lMdfb25r5B_wOmNy0]--></g></svg>