<svg xmlns="http://www.w3.org/2000/svg" xmlns:xlink="http://www.w3.org/1999/xlink" contentStyleType="text/css" height="1121px" preserveAspectRatio="none" style="width:757px;height:1121px;background:#FFFFFF;" version="1.1" viewBox="0 0 757 1121" width="757px" zoomAndPan="magnify"><title>Door Open Warn To Comfort Profile Signal Flow</title><defs/><g><text fill="#000000" font-family="Arial" font-size="22" font-weight="bold" lengthAdjust="spacing" textLength="502.3262" x="126.0612" y="35.9956">Door Open Warn To Comfort Profile Signal Flow</text><text fill="#000000" font-family="Arial" font-size="22" font-weight="bold" lengthAdjust="spacing" textLength="495.0752" x="129.6866" y="61.2935">(Door leaf states -&gt; BCM -&gt; Body comfort state)</text><line style="stroke:#000000;stroke-width:1;" x1="86" x2="86" y1="116.8936" y2="1077.606"/><line style="stroke:#000000;stroke-width:1;" x1="274.4963" x2="274.4963" y1="116.8936" y2="1077.606"/><line style="stroke:#000000;stroke-width:1;" x1="511.2957" x2="511.2957" y1="116.8936" y2="1077.606"/><line style="stroke:#000000;stroke-width:1;" x1="677.9109" x2="677.9109" y1="116.8936" y2="1077.606"/><rect fill="#F4F7FB" height="39.2979" rx="2.5" ry="2.5" style="stroke:#000000;stroke-width:1;" width="132.2876" x="20" y="76.5957"/><text fill="#000000" font-family="Arial" font-size="11" lengthAdjust="spacing" textLength="106.9976" x="32.645" y="94.0935">Door / Tailgate leaves</text><text fill="#000000" font-family="Arial" font-size="11" lengthAdjust="spacing" textLength="118.2876" x="27" y="106.7424">FL/FR/RL/RR + Tailgate</text><rect fill="#F4F7FB" height="39.2979" rx="2.5" ry="2.5" style="stroke:#000000;stroke-width:1;" width="132.2876" x="20" y="1076.606"/><text fill="#000000" font-family="Arial" font-size="11" lengthAdjust="spacing" textLength="106.9976" x="32.645" y="1094.1038">Door / Tailgate leaves</text><text fill="#000000" font-family="Arial" font-size="11" lengthAdjust="spacing" textLength="118.2876" x="27" y="1106.7527">FL/FR/RL/RR + Tailgate</text><rect fill="#E8F7E8" height="39.2979" rx="2.5" ry="2.5" style="stroke:#000000;stroke-width:1;" width="118.2422" x="215.4963" y="76.5957"/><text fill="#000000" font-family="Arial" font-size="11" lengthAdjust="spacing" textLength="24.4438" x="262.3955" y="94.0935">BCM</text><text fill="#000000" font-family="Arial" font-size="11" lengthAdjust="spacing" textLength="104.2422" x="222.4963" y="106.7424">door + comfort owner</text><rect fill="#E8F7E8" height="39.2979" rx="2.5" ry="2.5" style="stroke:#000000;stroke-width:1;" width="118.2422" x="215.4963" y="1076.606"/><text fill="#000000" font-family="Arial" font-size="11" lengthAdjust="spacing" textLength="24.4438" x="262.3955" y="1094.1038">BCM</text><text fill="#000000" font-family="Arial" font-size="11" lengthAdjust="spacing" textLength="104.2422" x="222.4963" y="1106.7527">door + comfort owner</text><rect fill="#FFF4CC" height="26.6489" rx="2.5" ry="2.5" style="stroke:#000000;stroke-width:1;" width="165.6152" x="429.2957" y="89.2446"/><text fill="#000000" font-family="Arial" font-size="11" lengthAdjust="spacing" textLength="151.6152" x="436.2957" y="106.7424">Body gateway / comfort frames</text><rect fill="#FFF4CC" height="26.6489" rx="2.5" ry="2.5" style="stroke:#000000;stroke-width:1;" width="165.6152" x="429.2957" y="1076.606"/><text fill="#000000" font-family="Arial" font-size="11" lengthAdjust="spacing" textLength="151.6152" x="436.2957" y="1094.1038">Body gateway / comfort frames</text><rect fill="#E8F0FE" height="26.6489" rx="2.5" ry="2.5" style="stroke:#000000;stroke-width:1;" width="107.5376" x="624.9109" y="89.2446"/><text fill="#000000" font-family="Arial" font-size="11" lengthAdjust="spacing" textLength="93.5376" x="631.9109" y="106.7424">Observers / Panels</text><rect fill="#E8F0FE" height="26.6489" rx="2.5" ry="2.5" style="stroke:#000000;stroke-width:1;" width="107.5376" x="624.9109" y="1076.606"/><text fill="#000000" font-family="Arial" font-size="11" lengthAdjust="spacing" textLength="93.5376" x="631.9109" y="1094.1038">Observers / Panels</text><rect fill="#FFFFFF" height="3" style="stroke:#FFFFFF;stroke-width:1;" width="745.4485" x="5" y="146.218"/><line style="stroke:#000000;stroke-width:0.5;" x1="5" x2="750.4485" y1="146.218" y2="146.218"/><line style="stroke:#000000;stroke-width:0.5;" x1="5" x2="750.4485" y1="149.218" y2="149.218"/><rect fill="#FFFFFF" height="20.6489" style="stroke:#000000;stroke-width:1;" width="141.1123" x="307.1681" y="136.8936"/><text fill="#000000" font-family="Arial" font-size="11" font-weight="bold" lengthAdjust="spacing" textLength="124.0562" x="313.1681" y="151.3914">Door-State Aggregation</text><polygon fill="#000000" points="262.6174,207.4893,272.6174,211.4893,262.6174,215.4893,266.6174,211.4893" style="stroke:#000000;stroke-width:1;"/><line style="stroke:#000000;stroke-width:1;" x1="86.1438" x2="268.6174" y1="211.4893" y2="211.4893"/><text fill="#000000" font-family="Arial" font-size="11" lengthAdjust="spacing" textLength="149.8052" x="105.478" y="182.0403">gDoorFlOpenState / LockState</text><text fill="#000000" font-family="Arial" font-size="11" lengthAdjust="spacing" textLength="164.4736" x="98.1438" y="194.6892">... gDoorRrOpenState / LockState</text><text fill="#000000" font-family="Arial" font-size="11" lengthAdjust="spacing" textLength="91.7275" x="134.5168" y="207.3381">TailgateOpenState</text><line style="stroke:#000000;stroke-width:1;" x1="274.6174" x2="316.6174" y1="238.1382" y2="238.1382"/><line style="stroke:#000000;stroke-width:1;" x1="316.6174" x2="316.6174" y1="238.1382" y2="251.1382"/><line style="stroke:#000000;stroke-width:1;" x1="275.6174" x2="316.6174" y1="251.1382" y2="251.1382"/><polygon fill="#000000" points="285.6174,247.1382,275.6174,251.1382,285.6174,255.1382,281.6174,251.1382" style="stroke:#000000;stroke-width:1;"/><text fill="#000000" font-family="Arial" font-size="11" lengthAdjust="spacing" textLength="100.2783" x="281.6174" y="233.9871">build doorStateMask</text><line style="stroke:#000000;stroke-width:1;" x1="274.6174" x2="316.6174" y1="277.7871" y2="277.7871"/><line style="stroke:#000000;stroke-width:1;" x1="316.6174" x2="316.6174" y1="277.7871" y2="290.7871"/><line style="stroke:#000000;stroke-width:1;" x1="275.6174" x2="316.6174" y1="290.7871" y2="290.7871"/><polygon fill="#000000" points="285.6174,286.7871,275.6174,290.7871,285.6174,294.7871,281.6174,290.7871" style="stroke:#000000;stroke-width:1;"/><text fill="#000000" font-family="Arial" font-size="11" lengthAdjust="spacing" textLength="103.9521" x="281.6174" y="273.636">derive doorLockState</text><line style="stroke:#000000;stroke-width:1;" x1="274.6174" x2="316.6174" y1="330.085" y2="330.085"/><line style="stroke:#000000;stroke-width:1;" x1="316.6174" x2="316.6174" y1="330.085" y2="343.085"/><line style="stroke:#000000;stroke-width:1;" x1="275.6174" x2="316.6174" y1="343.085" y2="343.085"/><polygon fill="#000000" points="285.6174,339.085,275.6174,343.085,285.6174,347.085,281.6174,343.085" style="stroke:#000000;stroke-width:1;"/><text fill="#000000" font-family="Arial" font-size="11" lengthAdjust="spacing" textLength="157.7813" x="281.6174" y="313.2849">if any door open or tailgate open</text><text fill="#000000" font-family="Arial" font-size="11" lengthAdjust="spacing" textLength="118.3252" x="301.3455" y="325.9338">then doorOpenWarn = 1</text><path d="M279,356.085 L279,416.085 L434,416.085 L434,366.085 L424,356.085 L279,356.085 " fill="#FFFFFF" style="stroke:#000000;stroke-width:1;"/><path d="M424,356.085 L424,366.085 L434,366.085 L424,356.085 " fill="#FFFFFF" style="stroke:#000000;stroke-width:1;"/><text fill="#000000" font-family="Arial" font-size="11" lengthAdjust="spacing" textLength="134.5137" x="285" y="371.5828">Representative door seams</text><text fill="#000000" font-family="Arial" font-size="11" lengthAdjust="spacing" textLength="82.5269" x="285" y="384.2317">- DoorStateMask</text><text fill="#000000" font-family="Arial" font-size="11" lengthAdjust="spacing" textLength="79.4814" x="285" y="396.8806">- DoorLockState</text><text fill="#000000" font-family="Arial" font-size="11" lengthAdjust="spacing" textLength="83.7515" x="285" y="409.5295">- DoorOpenWarn</text><rect fill="#FFFFFF" height="3" style="stroke:#FFFFFF;stroke-width:1;" width="745.4485" x="5" y="441.0051"/><line style="stroke:#000000;stroke-width:0.5;" x1="5" x2="750.4485" y1="441.0051" y2="441.0051"/><line style="stroke:#000000;stroke-width:0.5;" x1="5" x2="750.4485" y1="444.0051" y2="444.0051"/><rect fill="#FFFFFF" height="20.6489" style="stroke:#000000;stroke-width:1;" width="135.6123" x="309.9181" y="431.6807"/><text fill="#000000" font-family="Arial" font-size="11" font-weight="bold" lengthAdjust="spacing" textLength="118.5562" x="315.9181" y="446.1785">Body Door Publication</text><polygon fill="#000000" points="500.1033,476.9785,510.1033,480.9785,500.1033,484.9785,504.1033,480.9785" style="stroke:#000000;stroke-width:1;"/><line style="stroke:#000000;stroke-width:1;" x1="274.6174" x2="506.1033" y1="480.9785" y2="480.9785"/><text fill="#000000" font-family="Arial" font-size="11" lengthAdjust="spacing" textLength="86.1899" x="350.2654" y="476.8274">frmDoorStateMsg</text><line style="stroke:#000000;stroke-width:1;" x1="274.6174" x2="316.6174" y1="520.2764" y2="520.2764"/><line style="stroke:#000000;stroke-width:1;" x1="316.6174" x2="316.6174" y1="520.2764" y2="533.2764"/><line style="stroke:#000000;stroke-width:1;" x1="275.6174" x2="316.6174" y1="533.2764" y2="533.2764"/><polygon fill="#000000" points="285.6174,529.2764,275.6174,533.2764,285.6174,537.2764,281.6174,533.2764" style="stroke:#000000;stroke-width:1;"/><text fill="#000000" font-family="Arial" font-size="11" lengthAdjust="spacing" textLength="115.5591" x="303.3193" y="503.4763">output DoorStateMask /</text><text fill="#000000" font-family="Arial" font-size="11" lengthAdjust="spacing" textLength="158.9629" x="281.6174" y="516.1252">DoorLockState / DoorOpenWarn</text><rect fill="#FFFFFF" height="3" style="stroke:#FFFFFF;stroke-width:1;" width="745.4485" x="5" y="560.6008"/><line style="stroke:#000000;stroke-width:0.5;" x1="5" x2="750.4485" y1="560.6008" y2="560.6008"/><line style="stroke:#000000;stroke-width:0.5;" x1="5" x2="750.4485" y1="563.6008" y2="563.6008"/><rect fill="#FFFFFF" height="20.6489" style="stroke:#000000;stroke-width:1;" width="153.96" x="300.7443" y="551.2764"/><text fill="#000000" font-family="Arial" font-size="11" font-weight="bold" lengthAdjust="spacing" textLength="136.9038" x="306.7443" y="565.7742">Comfort Profile Derivation</text><line style="stroke:#000000;stroke-width:1;" x1="274.6174" x2="316.6174" y1="600.5742" y2="600.5742"/><line style="stroke:#000000;stroke-width:1;" x1="316.6174" x2="316.6174" y1="600.5742" y2="613.5742"/><line style="stroke:#000000;stroke-width:1;" x1="275.6174" x2="316.6174" y1="613.5742" y2="613.5742"/><polygon fill="#000000" points="285.6174,609.5742,275.6174,613.5742,285.6174,617.5742,281.6174,613.5742" style="stroke:#000000;stroke-width:1;"/><text fill="#000000" font-family="Arial" font-size="11" lengthAdjust="spacing" textLength="166.9067" x="281.6174" y="596.4231">if stale inputs -&gt; comfortProfile = 0</text><line style="stroke:#000000;stroke-width:1;" x1="274.6174" x2="316.6174" y1="640.2231" y2="640.2231"/><line style="stroke:#000000;stroke-width:1;" x1="316.6174" x2="316.6174" y1="640.2231" y2="653.2231"/><line style="stroke:#000000;stroke-width:1;" x1="275.6174" x2="316.6174" y1="653.2231" y2="653.2231"/><polygon fill="#000000" points="285.6174,649.2231,275.6174,653.2231,285.6174,657.2231,281.6174,653.2231" style="stroke:#000000;stroke-width:1;"/><text fill="#000000" font-family="Arial" font-size="11" lengthAdjust="spacing" textLength="195.9321" x="281.6174" y="636.072">else if remote climate / seat comfort -&gt; 3</text><line style="stroke:#000000;stroke-width:1;" x1="274.6174" x2="316.6174" y1="692.521" y2="692.521"/><line style="stroke:#000000;stroke-width:1;" x1="316.6174" x2="316.6174" y1="692.521" y2="705.521"/><line style="stroke:#000000;stroke-width:1;" x1="275.6174" x2="316.6174" y1="705.521" y2="705.521"/><polygon fill="#000000" points="285.6174,701.521,275.6174,705.521,285.6174,709.521,281.6174,705.521" style="stroke:#000000;stroke-width:1;"/><text fill="#000000" font-family="Arial" font-size="11" lengthAdjust="spacing" textLength="223.1851" x="281.6174" y="675.7209">else if door command / open door / unlocked /</text><text fill="#000000" font-family="Arial" font-size="11" lengthAdjust="spacing" textLength="88.9561" x="348.7319" y="688.3699">PAAK access -&gt; 2</text><line style="stroke:#000000;stroke-width:1;" x1="274.6174" x2="316.6174" y1="732.1699" y2="732.1699"/><line style="stroke:#000000;stroke-width:1;" x1="316.6174" x2="316.6174" y1="732.1699" y2="745.1699"/><line style="stroke:#000000;stroke-width:1;" x1="275.6174" x2="316.6174" y1="745.1699" y2="745.1699"/><polygon fill="#000000" points="285.6174,741.1699,275.6174,745.1699,285.6174,749.1699,281.6174,745.1699" style="stroke:#000000;stroke-width:1;"/><text fill="#000000" font-family="Arial" font-size="11" lengthAdjust="spacing" textLength="223.4858" x="281.6174" y="728.0188">else if driveState &gt; 0 or ambientMode &gt; 0 -&gt; 4</text><line style="stroke:#000000;stroke-width:1;" x1="274.6174" x2="316.6174" y1="771.8188" y2="771.8188"/><line style="stroke:#000000;stroke-width:1;" x1="316.6174" x2="316.6174" y1="771.8188" y2="784.8188"/><line style="stroke:#000000;stroke-width:1;" x1="275.6174" x2="316.6174" y1="784.8188" y2="784.8188"/><polygon fill="#000000" points="285.6174,780.8188,275.6174,784.8188,285.6174,788.8188,281.6174,784.8188" style="stroke:#000000;stroke-width:1;"/><text fill="#000000" font-family="Arial" font-size="11" lengthAdjust="spacing" textLength="78.5791" x="281.6174" y="767.6677">else default -&gt; 1</text><line style="stroke:#000000;stroke-width:1;" x1="274.6174" x2="316.6174" y1="811.4678" y2="811.4678"/><line style="stroke:#000000;stroke-width:1;" x1="316.6174" x2="316.6174" y1="811.4678" y2="824.4678"/><line style="stroke:#000000;stroke-width:1;" x1="275.6174" x2="316.6174" y1="824.4678" y2="824.4678"/><polygon fill="#000000" points="285.6174,820.4678,275.6174,824.4678,285.6174,828.4678,281.6174,824.4678" style="stroke:#000000;stroke-width:1;"/><text fill="#000000" font-family="Arial" font-size="11" lengthAdjust="spacing" textLength="138.1445" x="281.6174" y="807.3167">comfortStatus / comfortError</text><path d="M279,837.4678 L279,884.4678 L450,884.4678 L450,847.4678 L440,837.4678 L279,837.4678 " fill="#FFFFFF" style="stroke:#000000;stroke-width:1;"/><path d="M440,837.4678 L440,847.4678 L450,847.4678 L440,837.4678 " fill="#FFFFFF" style="stroke:#000000;stroke-width:1;"/><text fill="#000000" font-family="Arial" font-size="11" lengthAdjust="spacing" textLength="147.356" x="285" y="852.9656">Representative comfort output</text><text fill="#000000" font-family="Arial" font-size="11" lengthAdjust="spacing" textLength="133.2568" x="285" y="865.6145">- frmBodyComfortStateMsg</text><text fill="#000000" font-family="Arial" font-size="11" lengthAdjust="spacing" textLength="150.9814" x="285" y="878.2634">- ComfortProfile / Status / Error</text><rect fill="#FFFFFF" height="3" style="stroke:#FFFFFF;stroke-width:1;" width="745.4485" x="5" y="909.739"/><line style="stroke:#000000;stroke-width:0.5;" x1="5" x2="750.4485" y1="909.739" y2="909.739"/><line style="stroke:#000000;stroke-width:0.5;" x1="5" x2="750.4485" y1="912.739" y2="912.739"/><rect fill="#FFFFFF" height="20.6489" style="stroke:#000000;stroke-width:1;" width="131.3638" x="312.0424" y="900.4146"/><text fill="#000000" font-family="Arial" font-size="11" font-weight="bold" lengthAdjust="spacing" textLength="114.3076" x="318.0424" y="914.9124">Downstream Visibility</text><polygon fill="#000000" points="500.1033,945.7124,510.1033,949.7124,500.1033,953.7124,504.1033,949.7124" style="stroke:#000000;stroke-width:1;"/><line style="stroke:#000000;stroke-width:1;" x1="274.6174" x2="506.1033" y1="949.7124" y2="949.7124"/><text fill="#000000" font-family="Arial" font-size="11" lengthAdjust="spacing" textLength="126.5376" x="330.0916" y="945.5613">frmBodyComfortStateMsg</text><polygon fill="#000000" points="666.6797,972.3613,676.6797,976.3613,666.6797,980.3613,670.6797,976.3613" style="stroke:#000000;stroke-width:1;"/><line style="stroke:#000000;stroke-width:1;" x1="274.6174" x2="672.6797" y1="976.3613" y2="976.3613"/><text fill="#000000" font-family="Arial" font-size="11" lengthAdjust="spacing" textLength="135.126" x="409.0856" y="972.2102">write trace / panel readback</text><path d="M18,989.3613 L18,1062.3613 L745,1062.3613 L745,999.3613 L735,989.3613 L18,989.3613 " fill="#FFFFFF" style="stroke:#000000;stroke-width:1;"/><path d="M735,989.3613 L735,999.3613 L745,999.3613 L735,989.3613 " fill="#FFFFFF" style="stroke:#000000;stroke-width:1;"/><text fill="#000000" font-family="Arial" font-size="11" lengthAdjust="spacing" textLength="143.0752" x="205.1022" y="1004.8591">Representative runtime chain</text><text fill="#000000" font-family="Arial" font-size="11" lengthAdjust="spacing" textLength="144.896" x="205.1022" y="1017.5081">1. Door leaf states enter BCM</text><text fill="#000000" font-family="Arial" font-size="11" lengthAdjust="spacing" textLength="294.6958" x="205.1022" y="1030.157">2. BCM derives DoorOpenWarn from door/tailgate openness</text><text fill="#000000" font-family="Arial" font-size="11" lengthAdjust="spacing" textLength="271.4497" x="205.1022" y="1042.8059">3. BCM folds access/open/lock state into ComfortProfile</text><text fill="#000000" font-family="Arial" font-size="11" lengthAdjust="spacing" textLength="344.2441" x="205.1022" y="1055.4548">4. Door state and comfort state are published as separate body frames</text><!--SRC=[XLLDJ-Cm4BtxLyp2PLTi6mf88AGYbK8k2migQFVIYvjCWuLZTss7YltrEsCdRSE7jfSqcJSVVlDc_2KyOOsmqb8PuP-LMKadQrZ8uhbojZ7br6hhO3-Flnr4YKlPw91R4tvAYZ1nIkgFxG_gBy9ej6Fq-AT1K-0jUYyhd6XL6IZG17GxA8T-POtlK9UexNhYd5r3S0qA4LJG25UMwhjReO7VqXbuj32rzTAw0FVEBXKX7YYwr92J-znyZNYDSWa-o80U1XTmERsD3rk-Gj5wH-it8QYMe0graYR0NdJEu54gNP6PuxoWdvly9ijdsUmccytWO6FU0-bZVPu8FCbFyyj-D4exDoM7FDYajMk3BZfoKVlNP_dfzTaRDowJuw_bAnNJUIw9C_J9bH2NZOzjEvbE- -vt2u_k1Qce3EwbGPryw7DCTvXV2p4Unxe73qm2JAhA8ILKri1uB4GwKilRELJydclkGS9dS6EBv_X_ReR3OKBCt2U8ZgwDMNJzYE4NZT8bC4tHU2lzSnzGebCl616Rg7s4Me8qhn41bgL2pz3ra3_C3Ss1YG2k8Yff32DXB06SgfweCKiE9cQu8bsIL8cEDYd9MTPU329bsnhJ-xQYzDw55sXAuF2HxDZIAAxxPg5LiULwHvhSqNDgSxtDuwl-GMqJLate5mBPtFGg8VPxbN01RsVcYZbzNqN79Wq7WMXGcn25q6gmynx3OT-5H8Rivx1cHWkjwbG8KHSs2YRuyST-aMQ2rP9Oor8FopIBZT5qC2pvcFUJoG-GHK4BWsCSVHACvPAOk813reAi5ufQUclBz8bSJZxmRNSQVntrpUq9E6ZZjpDvJTlA_Lz4czcFtIEXK8-vuTDjrDZgGTUcZkSCDXbJgfwehcYN-E18dF1BURLGMeNNJqNrKS8MnwlX7DPEqJc2amKdNl7ce7xAakyAaGvfQQsaXVUTdTwUqpKcABehYYU-RKP3UBUBunKGAJeQHchJRFkUOAbQMyVsPxqXDjHsSPpybbQNlfL2niQCLPBIa6w3VKEbE6chIGYMMUyY0EdebkJPz4-aDTgN7lcM8ik2PpSjtot__m00]--></g></svg>