<svg xmlns="http://www.w3.org/2000/svg" xmlns:xlink="http://www.w3.org/1999/xlink" contentStyleType="text/css" height="1752px" preserveAspectRatio="none" style="width:1570px;height:1752px;background:#FFFFFF;" version="1.1" viewBox="0 0 1570 1752" width="1570px" zoomAndPan="magnify"><title>Emergency Ingress To Output Signal Flow</title><defs/><g><text fill="#000000" font-family="Arial" font-size="22" font-weight="bold" lengthAdjust="spacing" textLength="442.5029" x="562.6523" y="35.9956">Emergency Ingress To Output Signal Flow</text><text fill="#000000" font-family="Arial" font-size="22" font-weight="bold" lengthAdjust="spacing" textLength="678.4014" x="444.7031" y="61.2935">(TEST_SCN / Input_Console -&gt; V2X -&gt; ADAS -&gt; CGW -&gt; IVI / CLU)</text><rect fill="#FFFFFF" height="237.8403" style="stroke:#000000;stroke-width:1;" width="10" x="551.9529" y="271.4893"/><rect fill="#FFFFFF" height="308.436" style="stroke:#000000;stroke-width:1;" width="10" x="775.4719" y="509.3296"/><rect fill="#FFFFFF" height="284.4893" style="stroke:#000000;stroke-width:1;" width="10" x="1043.0339" y="817.7656"/><rect fill="#FFFFFF" height="270.4893" style="stroke:#000000;stroke-width:1;" width="10" x="1242.7268" y="1102.2549"/><rect fill="#FFFFFF" height="136.5425" style="stroke:#000000;stroke-width:1;" width="10" x="1493.7888" y="1372.7441"/><line style="stroke:#000000;stroke-width:1;" x1="85" x2="85" y1="162.8936" y2="1662.478"/><line style="stroke:#000000;stroke-width:1;" x1="284.4636" x2="284.4636" y1="162.8936" y2="1662.478"/><line style="stroke:#000000;stroke-width:1;" x1="556.4768" x2="556.4768" y1="162.8936" y2="1662.478"/><line style="stroke:#000000;stroke-width:1;" x1="779.4785" x2="779.4785" y1="162.8936" y2="1662.478"/><line style="stroke:#000000;stroke-width:1;" x1="1047.5752" x2="1047.5752" y1="162.8936" y2="1662.478"/><line style="stroke:#000000;stroke-width:1;" x1="1247.0396" x2="1247.0396" y1="162.8936" y2="1662.478"/><line style="stroke:#000000;stroke-width:1;" x1="1498.77" x2="1498.77" y1="162.8936" y2="1662.478"/><text fill="#000000" font-family="Arial" font-size="11" lengthAdjust="spacing" textLength="93.543" x="35.9719" y="148.0935">Emergency Source</text><text fill="#000000" font-family="Arial" font-size="11" lengthAdjust="spacing" textLength="145.4868" x="10" y="160.7424">(TEST_SCN or manual inject)</text><ellipse cx="85.7434" cy="85.5957" fill="#F4F7FB" rx="8" ry="8" style="stroke:#000000;stroke-width:1;"/><path d="M85.7434,93.5957 L85.7434,120.5957 M72.7434,101.5957 L98.7434,101.5957 M85.7434,120.5957 L72.7434,135.5957 M85.7434,120.5957 L98.7434,135.5957 " fill="none" style="stroke:#000000;stroke-width:1;"/><text fill="#000000" font-family="Arial" font-size="11" lengthAdjust="spacing" textLength="93.543" x="35.9719" y="1671.9758">Emergency Source</text><text fill="#000000" font-family="Arial" font-size="11" lengthAdjust="spacing" textLength="145.4868" x="10" y="1684.6248">(TEST_SCN or manual inject)</text><ellipse cx="85.7434" cy="1695.7759" fill="#F4F7FB" rx="8" ry="8" style="stroke:#000000;stroke-width:1;"/><path d="M85.7434,1703.7759 L85.7434,1730.7759 M72.7434,1711.7759 L98.7434,1711.7759 M85.7434,1730.7759 L72.7434,1745.7759 M85.7434,1730.7759 L98.7434,1745.7759 " fill="none" style="stroke:#000000;stroke-width:1;"/><rect fill="#E8F0FE" height="39.2979" rx="2.5" ry="2.5" style="stroke:#000000;stroke-width:1;" width="155.5391" x="207.4636" y="122.5957"/><text fill="#000000" font-family="Arial" font-size="11" lengthAdjust="spacing" textLength="70.9414" x="249.7625" y="140.0935">Input_Console</text><text fill="#000000" font-family="Arial" font-size="11" lengthAdjust="spacing" textLength="141.5391" x="214.4636" y="152.7424">Context &gt; Inject / Emergency</text><rect fill="#E8F0FE" height="39.2979" rx="2.5" ry="2.5" style="stroke:#000000;stroke-width:1;" width="155.5391" x="207.4636" y="1661.478"/><text fill="#000000" font-family="Arial" font-size="11" lengthAdjust="spacing" textLength="70.9414" x="249.7625" y="1678.9758">Input_Console</text><text fill="#000000" font-family="Arial" font-size="11" lengthAdjust="spacing" textLength="141.5391" x="214.4636" y="1691.6248">Context &gt; Inject / Emergency</text><rect fill="#E8F7E8" height="39.2979" rx="2.5" ry="2.5" style="stroke:#000000;stroke-width:1;" width="150.9521" x="481.4768" y="122.5957"/><text fill="#000000" font-family="Arial" font-size="11" lengthAdjust="spacing" textLength="20.7915" x="546.5571" y="140.0935">V2X</text><text fill="#000000" font-family="Arial" font-size="11" lengthAdjust="spacing" textLength="136.9521" x="488.4768" y="152.7424">ingress normalization owner</text><rect fill="#E8F7E8" height="39.2979" rx="2.5" ry="2.5" style="stroke:#000000;stroke-width:1;" width="150.9521" x="481.4768" y="1661.478"/><text fill="#000000" font-family="Arial" font-size="11" lengthAdjust="spacing" textLength="20.7915" x="546.5571" y="1678.9758">V2X</text><text fill="#000000" font-family="Arial" font-size="11" lengthAdjust="spacing" textLength="136.9521" x="488.4768" y="1691.6248">ingress normalization owner</text><rect fill="#FCE8FF" height="39.2979" rx="2.5" ry="2.5" style="stroke:#000000;stroke-width:1;" width="131.9868" x="714.4785" y="122.5957"/><text fill="#000000" font-family="Arial" font-size="11" lengthAdjust="spacing" textLength="29.9546" x="765.4946" y="140.0935">ADAS</text><text fill="#000000" font-family="Arial" font-size="11" lengthAdjust="spacing" textLength="117.9868" x="721.4785" y="152.7424">proximity / alert decision</text><rect fill="#FCE8FF" height="39.2979" rx="2.5" ry="2.5" style="stroke:#000000;stroke-width:1;" width="131.9868" x="714.4785" y="1661.478"/><text fill="#000000" font-family="Arial" font-size="11" lengthAdjust="spacing" textLength="29.9546" x="765.4946" y="1678.9758">ADAS</text><text fill="#000000" font-family="Arial" font-size="11" lengthAdjust="spacing" textLength="117.9868" x="721.4785" y="1691.6248">proximity / alert decision</text><rect fill="#FFF4CC" height="39.2979" rx="2.5" ry="2.5" style="stroke:#000000;stroke-width:1;" width="136.9175" x="979.5752" y="122.5957"/><text fill="#000000" font-family="Arial" font-size="11" lengthAdjust="spacing" textLength="26.8823" x="1034.5928" y="140.0935">CGW</text><text fill="#000000" font-family="Arial" font-size="11" lengthAdjust="spacing" textLength="122.9175" x="986.5752" y="152.7424">warning gate / decel gate</text><rect fill="#FFF4CC" height="39.2979" rx="2.5" ry="2.5" style="stroke:#000000;stroke-width:1;" width="136.9175" x="979.5752" y="1661.478"/><text fill="#000000" font-family="Arial" font-size="11" lengthAdjust="spacing" textLength="26.8823" x="1034.5928" y="1678.9758">CGW</text><text fill="#000000" font-family="Arial" font-size="11" lengthAdjust="spacing" textLength="122.9175" x="986.5752" y="1691.6248">warning gate / decel gate</text><rect fill="#E8F0FE" height="39.2979" rx="2.5" ry="2.5" style="stroke:#000000;stroke-width:1;" width="87.3745" x="1204.0396" y="122.5957"/><text fill="#000000" font-family="Arial" font-size="11" lengthAdjust="spacing" textLength="13.4492" x="1241.0022" y="140.0935">IVI</text><text fill="#000000" font-family="Arial" font-size="11" lengthAdjust="spacing" textLength="73.3745" x="1211.0396" y="152.7424">warning render</text><rect fill="#E8F0FE" height="39.2979" rx="2.5" ry="2.5" style="stroke:#000000;stroke-width:1;" width="87.3745" x="1204.0396" y="1661.478"/><text fill="#000000" font-family="Arial" font-size="11" lengthAdjust="spacing" textLength="13.4492" x="1241.0022" y="1678.9758">IVI</text><text fill="#000000" font-family="Arial" font-size="11" lengthAdjust="spacing" textLength="73.3745" x="1211.0396" y="1691.6248">warning render</text><rect fill="#E8F0FE" height="39.2979" rx="2.5" ry="2.5" style="stroke:#000000;stroke-width:1;" width="80.0376" x="1458.77" y="122.5957"/><text fill="#000000" font-family="Arial" font-size="11" lengthAdjust="spacing" textLength="22.0054" x="1487.7861" y="140.0935">CLU</text><text fill="#000000" font-family="Arial" font-size="11" lengthAdjust="spacing" textLength="66.0376" x="1465.77" y="152.7424">cluster output</text><rect fill="#E8F0FE" height="39.2979" rx="2.5" ry="2.5" style="stroke:#000000;stroke-width:1;" width="80.0376" x="1458.77" y="1661.478"/><text fill="#000000" font-family="Arial" font-size="11" lengthAdjust="spacing" textLength="22.0054" x="1487.7861" y="1678.9758">CLU</text><text fill="#000000" font-family="Arial" font-size="11" lengthAdjust="spacing" textLength="66.0376" x="1465.77" y="1691.6248">cluster output</text><rect fill="#FFFFFF" height="237.8403" style="stroke:#000000;stroke-width:1;" width="10" x="551.9529" y="271.4893"/><rect fill="#FFFFFF" height="308.436" style="stroke:#000000;stroke-width:1;" width="10" x="775.4719" y="509.3296"/><rect fill="#FFFFFF" height="284.4893" style="stroke:#000000;stroke-width:1;" width="10" x="1043.0339" y="817.7656"/><rect fill="#FFFFFF" height="270.4893" style="stroke:#000000;stroke-width:1;" width="10" x="1242.7268" y="1102.2549"/><rect fill="#FFFFFF" height="136.5425" style="stroke:#000000;stroke-width:1;" width="10" x="1493.7888" y="1372.7441"/><rect fill="#FFFFFF" height="3" style="stroke:#FFFFFF;stroke-width:1;" width="1558.8076" x="5" y="192.218"/><line style="stroke:#000000;stroke-width:0.5;" x1="5" x2="1563.8076" y1="192.218" y2="192.218"/><line style="stroke:#000000;stroke-width:0.5;" x1="5" x2="1563.8076" y1="195.218" y2="195.218"/><rect fill="#FFFFFF" height="20.6489" style="stroke:#000000;stroke-width:1;" width="118.5483" x="725.1296" y="182.8936"/><text fill="#000000" font-family="Arial" font-size="11" font-weight="bold" lengthAdjust="spacing" textLength="101.4922" x="731.1296" y="197.3914">Emergency Ingress</text><polygon fill="#000000" points="544.9529,240.8403,554.9529,244.8403,544.9529,248.8403,548.9529,244.8403" style="stroke:#000000;stroke-width:1;"/><line style="stroke:#000000;stroke-width:1;" x1="85.7434" x2="550.9529" y1="244.8403" y2="244.8403"/><text fill="#000000" font-family="Arial" font-size="11" lengthAdjust="spacing" textLength="97.2168" x="272.7397" y="228.0403">eth emergency alert</text><text fill="#000000" font-family="Arial" font-size="11" lengthAdjust="spacing" textLength="153.4468" x="244.6248" y="240.6892">or TEST_SCN compat dispatch</text><polygon fill="#000000" points="273.2332,267.4893,283.2332,271.4893,273.2332,275.4893,277.2332,271.4893" style="stroke:#000000;stroke-width:1;"/><line style="stroke:#000000;stroke-width:1;" x1="85.7434" x2="279.2332" y1="271.4893" y2="271.4893"/><text fill="#000000" font-family="Arial" font-size="11" lengthAdjust="spacing" textLength="163.8721" x="103.5522" y="267.3381">optional manual emergency inject</text><polygon fill="#000000" points="539.9529,306.7871,549.9529,310.7871,539.9529,314.7871,543.9529,310.7871" style="stroke:#000000;stroke-width:1;"/><line style="stroke:#000000;stroke-width:1;" x1="285.2332" x2="545.9529" y1="310.7871" y2="310.7871"/><text fill="#000000" font-family="Arial" font-size="11" lengthAdjust="spacing" textLength="139.9976" x="348.5942" y="293.9871">Inject::emergencyActiveCmd</text><text fill="#000000" font-family="Arial" font-size="11" lengthAdjust="spacing" textLength="242.7197" x="297.2332" y="306.636">Inject::emergencyType / Direction / Eta / SourceId</text><line style="stroke:#000000;stroke-width:1;" x1="561.9529" x2="603.9529" y1="350.085" y2="350.085"/><line style="stroke:#000000;stroke-width:1;" x1="603.9529" x2="603.9529" y1="350.085" y2="363.085"/><line style="stroke:#000000;stroke-width:1;" x1="562.9529" x2="603.9529" y1="363.085" y2="363.085"/><polygon fill="#000000" points="572.9529,359.085,562.9529,363.085,572.9529,367.085,568.9529,363.085" style="stroke:#000000;stroke-width:1;"/><text fill="#000000" font-family="Arial" font-size="11" lengthAdjust="spacing" textLength="125.9414" x="568.9529" y="333.2849">stageEmergencyIngress()</text><text fill="#000000" font-family="Arial" font-size="11" lengthAdjust="spacing" textLength="125.3345" x="569.2563" y="345.9338">priority rank / eta ordering</text><line style="stroke:#000000;stroke-width:1;" x1="561.9529" x2="603.9529" y1="389.7339" y2="389.7339"/><line style="stroke:#000000;stroke-width:1;" x1="603.9529" x2="603.9529" y1="389.7339" y2="402.7339"/><line style="stroke:#000000;stroke-width:1;" x1="562.9529" x2="603.9529" y1="402.7339" y2="402.7339"/><polygon fill="#000000" points="572.9529,398.7339,562.9529,402.7339,572.9529,406.7339,568.9529,402.7339" style="stroke:#000000;stroke-width:1;"/><text fill="#000000" font-family="Arial" font-size="11" lengthAdjust="spacing" textLength="189.519" x="568.9529" y="385.5828">publishNormalizedEmergencyIngress()</text><polygon fill="#000000" points="768.4719,425.3828,778.4719,429.3828,768.4719,433.3828,772.4719,429.3828" style="stroke:#000000;stroke-width:1;"/><line style="stroke:#000000;stroke-width:1;" x1="561.9529" x2="774.4719" y1="429.3828" y2="429.3828"/><text fill="#000000" font-family="Arial" font-size="11" lengthAdjust="spacing" textLength="122.2783" x="610.0732" y="425.2317">Core::emergencyContext</text><polygon fill="#000000" points="768.4719,452.0317,778.4719,456.0317,768.4719,460.0317,772.4719,456.0317" style="stroke:#000000;stroke-width:1;"/><line style="stroke:#000000;stroke-width:1;" x1="561.9529" x2="774.4719" y1="456.0317" y2="456.0317"/><text fill="#000000" font-family="Arial" font-size="11" lengthAdjust="spacing" textLength="189.5298" x="576.4475" y="451.8806">CoreState::emergencyIngressDirection</text><polygon fill="#000000" points="768.4719,478.6807,778.4719,482.6807,768.4719,486.6807,772.4719,482.6807" style="stroke:#000000;stroke-width:1;"/><line style="stroke:#000000;stroke-width:1;" x1="561.9529" x2="774.4719" y1="482.6807" y2="482.6807"/><text fill="#000000" font-family="Arial" font-size="11" lengthAdjust="spacing" textLength="181.5913" x="580.4167" y="478.5295">CoreState::emergencyIngressEtaSec</text><polygon fill="#000000" points="1235.7268,505.3296,1245.7268,509.3296,1235.7268,513.3296,1239.7268,509.3296" style="stroke:#000000;stroke-width:1;"/><line style="stroke:#000000;stroke-width:1;" x1="556.9529" x2="1241.7268" y1="509.3296" y2="509.3296"/><text fill="#000000" font-family="Arial" font-size="11" lengthAdjust="spacing" textLength="75.8022" x="864.4387" y="505.1785">V2X::v2xFrame</text><path d="M561,522.3296 L561,607.3296 L778,607.3296 L778,532.3296 L768,522.3296 L561,522.3296 " fill="#FFFFFF" style="stroke:#000000;stroke-width:1;"/><path d="M768,522.3296 L768,532.3296 L778,532.3296 L768,522.3296 " fill="#FFFFFF" style="stroke:#000000;stroke-width:1;"/><text fill="#000000" font-family="Arial" font-size="11" lengthAdjust="spacing" textLength="113.126" x="567" y="537.8274">Representative outputs</text><text fill="#000000" font-family="Arial" font-size="11" lengthAdjust="spacing" textLength="128.9976" x="567" y="550.4763">- Core::emergencyContext</text><text fill="#000000" font-family="Arial" font-size="11" lengthAdjust="spacing" textLength="196.249" x="567" y="563.1252">- CoreState::emergencyIngressDirection</text><text fill="#000000" font-family="Arial" font-size="11" lengthAdjust="spacing" textLength="188.3105" x="567" y="575.7742">- CoreState::emergencyIngressEtaSec</text><text fill="#000000" font-family="Arial" font-size="11" lengthAdjust="spacing" textLength="82.5215" x="567" y="588.4231">- V2X::v2xFrame</text><text fill="#000000" font-family="Arial" font-size="11" lengthAdjust="spacing" textLength="99.0322" x="567" y="601.072">- Core::timeoutClear</text><rect fill="#FFFFFF" height="3" style="stroke:#FFFFFF;stroke-width:1;" width="1558.8076" x="5" y="632.5476"/><line style="stroke:#000000;stroke-width:0.5;" x1="5" x2="1563.8076" y1="632.5476" y2="632.5476"/><line style="stroke:#000000;stroke-width:0.5;" x1="5" x2="1563.8076" y1="635.5476" y2="635.5476"/><rect fill="#FFFFFF" height="20.6489" style="stroke:#000000;stroke-width:1;" width="159.4922" x="704.6577" y="623.2231"/><text fill="#000000" font-family="Arial" font-size="11" font-weight="bold" lengthAdjust="spacing" textLength="142.436" x="710.6577" y="637.7209">ADAS Emergency Decision</text><polygon fill="#000000" points="763.4719,668.521,773.4719,672.521,763.4719,676.521,767.4719,672.521" style="stroke:#000000;stroke-width:1;"/><line style="stroke:#000000;stroke-width:1;" x1="556.9529" x2="769.4719" y1="672.521" y2="672.521"/><text fill="#000000" font-family="Arial" font-size="11" lengthAdjust="spacing" textLength="127.7729" x="602.3259" y="668.3699">normalized ingress seams</text><line style="stroke:#000000;stroke-width:1;" x1="785.4719" x2="827.4719" y1="711.8188" y2="711.8188"/><line style="stroke:#000000;stroke-width:1;" x1="827.4719" x2="827.4719" y1="711.8188" y2="724.8188"/><line style="stroke:#000000;stroke-width:1;" x1="786.4719" x2="827.4719" y1="724.8188" y2="724.8188"/><polygon fill="#000000" points="796.4719,720.8188,786.4719,724.8188,796.4719,728.8188,792.4719,724.8188" style="stroke:#000000;stroke-width:1;"/><text fill="#000000" font-family="Arial" font-size="11" lengthAdjust="spacing" textLength="185.2168" x="816.6445" y="695.0188">calcProximityRisk(emergencyContext,</text><text fill="#000000" font-family="Arial" font-size="11" lengthAdjust="spacing" textLength="233.562" x="792.4719" y="707.6677">etaSec, speed, emergencyDirection, driveState)</text><line style="stroke:#000000;stroke-width:1;" x1="785.4719" x2="827.4719" y1="751.4678" y2="751.4678"/><line style="stroke:#000000;stroke-width:1;" x1="827.4719" x2="827.4719" y1="751.4678" y2="764.4678"/><line style="stroke:#000000;stroke-width:1;" x1="786.4719" x2="827.4719" y1="764.4678" y2="764.4678"/><polygon fill="#000000" points="796.4719,760.4678,786.4719,764.4678,796.4719,768.4678,792.4719,764.4678" style="stroke:#000000;stroke-width:1;"/><text fill="#000000" font-family="Arial" font-size="11" lengthAdjust="spacing" textLength="160.1875" x="792.4719" y="747.3167">select emergency alert type/level</text><polygon fill="#000000" points="1036.0339,787.1167,1046.0339,791.1167,1036.0339,795.1167,1040.0339,791.1167" style="stroke:#000000;stroke-width:1;"/><line style="stroke:#000000;stroke-width:1;" x1="785.4719" x2="1042.0339" y1="791.1167" y2="791.1167"/><text fill="#000000" font-family="Arial" font-size="11" lengthAdjust="spacing" textLength="187.709" x="822.8984" y="786.9656">CoreState::selectedAlertDecisionLevel</text><polygon fill="#000000" points="1031.0339,813.7656,1041.0339,817.7656,1031.0339,821.7656,1035.0339,817.7656" style="stroke:#000000;stroke-width:1;"/><line style="stroke:#000000;stroke-width:1;" x1="780.4719" x2="1037.0339" y1="817.7656" y2="817.7656"/><text fill="#000000" font-family="Arial" font-size="11" lengthAdjust="spacing" textLength="185.8667" x="818.8196" y="813.6145">CoreState::selectedAlertDecisionType</text><path d="M785,830.7656 L785,877.7656 L1043,877.7656 L1043,840.7656 L1033,830.7656 L785,830.7656 " fill="#FFFFFF" style="stroke:#000000;stroke-width:1;"/><path d="M1033,830.7656 L1033,840.7656 L1043,840.7656 L1033,830.7656 " fill="#FFFFFF" style="stroke:#000000;stroke-width:1;"/><text fill="#000000" font-family="Arial" font-size="11" lengthAdjust="spacing" textLength="129.6313" x="791" y="846.2634">Emergency path highlights</text><text fill="#000000" font-family="Arial" font-size="11" lengthAdjust="spacing" textLength="237.8428" x="791" y="858.9124">- emergencyContext can override base alert type</text><text fill="#000000" font-family="Arial" font-size="11" lengthAdjust="spacing" textLength="203.9136" x="791" y="871.5613">- riskLevel feeds warning + decel decision</text><rect fill="#FFFFFF" height="3" style="stroke:#FFFFFF;stroke-width:1;" width="1558.8076" x="5" y="903.0369"/><line style="stroke:#000000;stroke-width:0.5;" x1="5" x2="1563.8076" y1="903.0369" y2="903.0369"/><line style="stroke:#000000;stroke-width:0.5;" x1="5" x2="1563.8076" y1="906.0369" y2="906.0369"/><rect fill="#FFFFFF" height="20.6489" style="stroke:#000000;stroke-width:1;" width="120.3584" x="724.2246" y="893.7124"/><text fill="#000000" font-family="Arial" font-size="11" font-weight="bold" lengthAdjust="spacing" textLength="103.3022" x="730.2246" y="908.2102">CGW Effective Gate</text><polygon fill="#000000" points="1031.0339,939.0103,1041.0339,943.0103,1031.0339,947.0103,1035.0339,943.0103" style="stroke:#000000;stroke-width:1;"/><line style="stroke:#000000;stroke-width:1;" x1="780.4719" x2="1037.0339" y1="943.0103" y2="943.0103"/><text fill="#000000" font-family="Arial" font-size="11" lengthAdjust="spacing" textLength="75.813" x="873.8464" y="938.8591">decision seams</text><polygon fill="#000000" points="1031.0339,965.6592,1041.0339,969.6592,1031.0339,973.6592,1035.0339,969.6592" style="stroke:#000000;stroke-width:1;"/><line style="stroke:#000000;stroke-width:1;" x1="556.9529" x2="1037.0339" y1="969.6592" y2="969.6592"/><text fill="#000000" font-family="Arial" font-size="11" lengthAdjust="spacing" textLength="205.4121" x="697.2874" y="965.5081">timeoutClear / emergency context visibility</text><line style="stroke:#000000;stroke-width:1;" x1="1053.0339" x2="1095.0339" y1="996.3081" y2="996.3081"/><line style="stroke:#000000;stroke-width:1;" x1="1095.0339" x2="1095.0339" y1="996.3081" y2="1009.3081"/><line style="stroke:#000000;stroke-width:1;" x1="1054.0339" x2="1095.0339" y1="1009.3081" y2="1009.3081"/><polygon fill="#000000" points="1064.0339,1005.3081,1054.0339,1009.3081,1064.0339,1013.3081,1060.0339,1009.3081" style="stroke:#000000;stroke-width:1;"/><text fill="#000000" font-family="Arial" font-size="11" lengthAdjust="spacing" textLength="165.6929" x="1060.0339" y="992.157">selectedAlertEffectiveLevel / Type</text><line style="stroke:#000000;stroke-width:1;" x1="1053.0339" x2="1095.0339" y1="1035.957" y2="1035.957"/><line style="stroke:#000000;stroke-width:1;" x1="1095.0339" x2="1095.0339" y1="1035.957" y2="1048.957"/><line style="stroke:#000000;stroke-width:1;" x1="1054.0339" x2="1095.0339" y1="1048.957" y2="1048.957"/><polygon fill="#000000" points="1064.0339,1044.957,1054.0339,1048.957,1064.0339,1052.957,1060.0339,1048.957" style="stroke:#000000;stroke-width:1;"/><text fill="#000000" font-family="Arial" font-size="11" lengthAdjust="spacing" textLength="143.0806" x="1060.0339" y="1031.8059">decelAssistReq / gate reason</text><polygon fill="#000000" points="1235.7268,1071.606,1245.7268,1075.606,1235.7268,1079.606,1239.7268,1075.606" style="stroke:#000000;stroke-width:1;"/><line style="stroke:#000000;stroke-width:1;" x1="1053.0339" x2="1241.7268" y1="1075.606" y2="1075.606"/><text fill="#000000" font-family="Arial" font-size="11" lengthAdjust="spacing" textLength="100.8745" x="1099.9431" y="1071.4548">effective alert seams</text><polygon fill="#000000" points="1486.7888,1098.2549,1496.7888,1102.2549,1486.7888,1106.2549,1490.7888,1102.2549" style="stroke:#000000;stroke-width:1;"/><line style="stroke:#000000;stroke-width:1;" x1="1048.0339" x2="1492.7888" y1="1102.2549" y2="1102.2549"/><text fill="#000000" font-family="Arial" font-size="11" lengthAdjust="spacing" textLength="100.8745" x="1222.9741" y="1098.1038">effective alert seams</text><path d="M1053,1115.2549 L1053,1175.2549 L1220,1175.2549 L1220,1125.2549 L1210,1115.2549 L1053,1115.2549 " fill="#FFFFFF" style="stroke:#000000;stroke-width:1;"/><path d="M1210,1115.2549 L1210,1125.2549 L1220,1125.2549 L1210,1115.2549 " fill="#FFFFFF" style="stroke:#000000;stroke-width:1;"/><text fill="#000000" font-family="Arial" font-size="11" lengthAdjust="spacing" textLength="102.1045" x="1059" y="1130.7527">Gateway side effects</text><text fill="#000000" font-family="Arial" font-size="11" lengthAdjust="spacing" textLength="132.0698" x="1059" y="1143.4016">- selectedAlertGateReason</text><text fill="#000000" font-family="Arial" font-size="11" lengthAdjust="spacing" textLength="94.7783" x="1059" y="1156.0505">- decelGateReason</text><text fill="#000000" font-family="Arial" font-size="11" lengthAdjust="spacing" textLength="146.1421" x="1059" y="1168.6995">- fail-safe escalation if needed</text><rect fill="#FFFFFF" height="3" style="stroke:#FFFFFF;stroke-width:1;" width="1558.8076" x="5" y="1200.175"/><line style="stroke:#000000;stroke-width:0.5;" x1="5" x2="1563.8076" y1="1200.175" y2="1200.175"/><line style="stroke:#000000;stroke-width:0.5;" x1="5" x2="1563.8076" y1="1203.175" y2="1203.175"/><rect fill="#FFFFFF" height="20.6489" style="stroke:#000000;stroke-width:1;" width="110.5454" x="729.1311" y="1190.8506"/><text fill="#000000" font-family="Arial" font-size="11" font-weight="bold" lengthAdjust="spacing" textLength="93.4893" x="735.1311" y="1205.3484">Output Rendering</text><polygon fill="#000000" points="1230.7268,1236.1484,1240.7268,1240.1484,1230.7268,1244.1484,1234.7268,1240.1484" style="stroke:#000000;stroke-width:1;"/><line style="stroke:#000000;stroke-width:1;" x1="1048.0339" x2="1236.7268" y1="1240.1484" y2="1240.1484"/><text fill="#000000" font-family="Arial" font-size="11" lengthAdjust="spacing" textLength="165.6929" x="1062.5339" y="1235.9973">selectedAlertEffectiveLevel / Type</text><polygon fill="#000000" points="1230.7268,1262.7974,1240.7268,1266.7974,1230.7268,1270.7974,1234.7268,1266.7974" style="stroke:#000000;stroke-width:1;"/><line style="stroke:#000000;stroke-width:1;" x1="556.9529" x2="1236.7268" y1="1266.7974" y2="1266.7974"/><text fill="#000000" font-family="Arial" font-size="11" lengthAdjust="spacing" textLength="206.6689" x="796.5054" y="1262.6462">emergency direction / eta derived distance</text><line style="stroke:#000000;stroke-width:1;" x1="1252.7268" x2="1294.7268" y1="1293.4463" y2="1293.4463"/><line style="stroke:#000000;stroke-width:1;" x1="1294.7268" x2="1294.7268" y1="1293.4463" y2="1306.4463"/><line style="stroke:#000000;stroke-width:1;" x1="1253.7268" x2="1294.7268" y1="1306.4463" y2="1306.4463"/><polygon fill="#000000" points="1263.7268,1302.4463,1253.7268,1306.4463,1263.7268,1310.4463,1259.7268,1306.4463" style="stroke:#000000;stroke-width:1;"/><text fill="#000000" font-family="Arial" font-size="11" lengthAdjust="spacing" textLength="160.1768" x="1259.7268" y="1289.2952">deriveEmergencyWarningCode()</text><line style="stroke:#000000;stroke-width:1;" x1="1252.7268" x2="1294.7268" y1="1333.0952" y2="1333.0952"/><line style="stroke:#000000;stroke-width:1;" x1="1294.7268" x2="1294.7268" y1="1333.0952" y2="1346.0952"/><line style="stroke:#000000;stroke-width:1;" x1="1253.7268" x2="1294.7268" y1="1346.0952" y2="1346.0952"/><polygon fill="#000000" points="1263.7268,1342.0952,1253.7268,1346.0952,1263.7268,1350.0952,1259.7268,1346.0952" style="stroke:#000000;stroke-width:1;"/><text fill="#000000" font-family="Arial" font-size="11" lengthAdjust="spacing" textLength="217.062" x="1259.7268" y="1328.9441">derive warningBeep / road flow / motion step</text><polygon fill="#000000" points="1481.7888,1368.7441,1491.7888,1372.7441,1481.7888,1376.7441,1485.7888,1372.7441" style="stroke:#000000;stroke-width:1;"/><line style="stroke:#000000;stroke-width:1;" x1="1247.7268" x2="1487.7888" y1="1372.7441" y2="1372.7441"/><text fill="#000000" font-family="Arial" font-size="11" lengthAdjust="spacing" textLength="112.4653" x="1314.5251" y="1368.593">frmClusterWarningMsg</text><path d="M1252,1385.7441 L1252,1458.7441 L1427,1458.7441 L1427,1395.7441 L1417,1385.7441 L1252,1385.7441 " fill="#FFFFFF" style="stroke:#000000;stroke-width:1;"/><path d="M1417,1385.7441 L1417,1395.7441 L1427,1395.7441 L1417,1385.7441 " fill="#FFFFFF" style="stroke:#000000;stroke-width:1;"/><text fill="#000000" font-family="Arial" font-size="11" lengthAdjust="spacing" textLength="113.126" x="1258" y="1401.2419">Representative outputs</text><text fill="#000000" font-family="Arial" font-size="11" lengthAdjust="spacing" textLength="133.8853" x="1258" y="1413.8909">- Cluster::warningTextCode</text><text fill="#000000" font-family="Arial" font-size="11" lengthAdjust="spacing" textLength="149.1929" x="1258" y="1426.5398">- UiRender::warningBeepState</text><text fill="#000000" font-family="Arial" font-size="11" lengthAdjust="spacing" textLength="147.9414" x="1258" y="1439.1887">- UiRender::roadFlowDirection</text><text fill="#000000" font-family="Arial" font-size="11" lengthAdjust="spacing" textLength="154.6875" x="1258" y="1451.8376">- UiRender::renderVolumeLevel</text><polygon fill="#000000" points="1481.7888,1478.6377,1491.7888,1482.6377,1481.7888,1486.6377,1485.7888,1482.6377" style="stroke:#000000;stroke-width:1;"/><line style="stroke:#000000;stroke-width:1;" x1="1247.7268" x2="1487.7888" y1="1482.6377" y2="1482.6377"/><text fill="#000000" font-family="Arial" font-size="11" lengthAdjust="spacing" textLength="112.4653" x="1314.5251" y="1478.4866">frmClusterWarningMsg</text><polygon fill="#000000" points="296.2332,1505.2866,286.2332,1509.2866,296.2332,1513.2866,292.2332,1509.2866" style="stroke:#000000;stroke-width:1;"/><line style="stroke:#000000;stroke-width:1;" x1="290.2332" x2="1497.7888" y1="1509.2866" y2="1509.2866"/><text fill="#000000" font-family="Arial" font-size="11" lengthAdjust="spacing" textLength="140.6313" x="821.6953" y="1505.1355">warning text / state readback</text><polygon fill="#000000" points="96.7434,1517.2866,86.7434,1521.2866,96.7434,1525.2866,92.7434,1521.2866" style="stroke:#000000;stroke-width:1;"/><line style="stroke:#000000;stroke-width:1;" x1="90.7434" x2="284.2332" y1="1521.2866" y2="1521.2866"/><text fill="#000000" font-family="Arial" font-size="11" lengthAdjust="spacing" textLength="175.4629" x="97.7568" y="1532.7844">Emergency ingress becomes visible</text><text fill="#000000" font-family="Arial" font-size="11" lengthAdjust="spacing" textLength="175.4897" x="97.7434" y="1545.4333">as warning text / beep / render state</text><path d="M25,1561.5845 L25,1646.5845 L1558,1646.5845 L1558,1571.5845 L1548,1561.5845 L25,1561.5845 " fill="#FFFFFF" style="stroke:#000000;stroke-width:1;"/><path d="M1548,1561.5845 L1548,1571.5845 L1558,1571.5845 L1548,1561.5845 " fill="#FFFFFF" style="stroke:#000000;stroke-width:1;"/><text fill="#000000" font-family="Arial" font-size="11" lengthAdjust="spacing" textLength="143.0752" x="661.457" y="1577.0823">Representative runtime chain</text><text fill="#000000" font-family="Arial" font-size="11" lengthAdjust="spacing" textLength="236.6021" x="661.457" y="1589.7312">1. External or manual emergency ingress arrives</text><text fill="#000000" font-family="Arial" font-size="11" lengthAdjust="spacing" textLength="230.5005" x="661.457" y="1602.3801">2. V2X normalizes type / direction / eta / source</text><text fill="#000000" font-family="Arial" font-size="11" lengthAdjust="spacing" textLength="213.9897" x="661.457" y="1615.0291">3. ADAS converts ingress into alert decision</text><text fill="#000000" font-family="Arial" font-size="11" lengthAdjust="spacing" textLength="210.9443" x="661.457" y="1627.678">4. CGW gates decision into effective output</text><text fill="#000000" font-family="Arial" font-size="11" lengthAdjust="spacing" textLength="251.8936" x="661.457" y="1640.3269">5. IVI / CLU render emergency warning to the driver</text><!--SRC=[dLTRJniv57xth_322sW9B2nLgsXPAGn9XKJPYW3TXqYLcJb9lCpOKziJeBz-px4zLuA4oWC1VAxVTsxyvjPG02zp8HMpZrALmeY2FuZqSMLqfR94vzhmtPd_waXai1HLxcPQkMk15YP6Ydpx-rp-17vyt7cqyAC2bS8Ni5QiO9BBbU8fA0Uc8sN0bbhPMkeSSlqqCKO_SMSgOCn9bmEV5c1MQEo5NweLgbX-g_a_bIihn-TeL-HyXeeBjNSxdTz-doVN_0X5yVbxWjOrcXZzpUzF_gMFoSLaJf_9vs_qSNb_YSB9rTq-Oo9r2CHEwswkAvD2row-5q9Lw56g_o1r-pjSs2Y749xEFixE6URcP2fBeHpVwSMnKFY3WsV7qRCtWCuRVzxMLw4WvxlJJxC_PjE-ASnWeMI4G6bJY5p-54vgnVMJ0kFrAKtI_ZZzrDUcn1UgDFfP5jAze6EHWt58Ooejsl3Q7ftTMO86Pdrrn6kXdeIX0FXAE403g8gnqYzUcI2bCZfDaW46zvUjhW6LnLW9_AsP8XyBbUQLnNBXsZCTF5pTDGhix6nBPPoTCHRfY9oFERWrXqRIPxr0-7Z3QggBKY0Iqk97kkuO26oCkIu9PgGzij-Q2tL0jICtX0gwP46hyH-O7eyRfGa9Gr9a2_NgxVQb96WlfC6_4xLO84xWzn3KPSPY8GVRrc7VD3145FRsYMYf3V5iX7f4TK0ZsY3oo47VH5azvDAkhsD1GVRQ7EispvWdsa0dv5ZJMuJc3Y7fI4Q3JNBlLq4Cvf3MybGuOmf_FDwSFCzmb01J6j4tShLsN2yz3JTGeYhE745mnpgoRFHM_AFtnJnwHvoZGN2rJoSBm3YI78HXs0YSecOPzCg7AjiZqfRtHMnINz-DC0aD85GDYxoU51P4OLazzw9SAlBqQpqBRgHzt1l2SR1Gu9CvuBO4o0xQec-mEE2PGMWz5lj35nPo6d23pkCE2_meXmtah3kBU-m7LSWcf57dVlKBEjHDWyhmeBN8OiUl-HeVSnAWwXW2WLZXWDs0CJ83t9iMEfcWl47qV6nyYJ1PNW-wt-Dyh0ViLhvzD4GuvJDTBi6F1lwPtdfSu_iWzzfk93ZMGNZhrXarVvDk6dFQeEg3p95y5ZTXKEoXsCGJqZlY7iwUl4znOgsqxWP-e8XV3GQ4nOGxEnQdS9DSG2z4NHl3mVwMI9y-me7GUH8lt18XGOc8wyLECZSXZ568ilUNfP3vo8ebwbliXR15vP8hf12ohLIHPs8gNXutVeyHqJsUCDb-tkz0j3VLMgwopWwWyKtkDjZOkAUSmDkAaKAZ5rwRmluMgZ3H6U3ytY9Pr-avG8aEZ1OPN-8PXJyNsdl5xLlMce6WfIcIi9MZ-IzsDU27ydzxy0RbyJZwliLIf0ZnwKu6G9itYiktTk-HmgHZhpkEEw_-yrxdLH4GtaeaXTXfhAkxToH9JvrxeEvntqj7j8L3rMTqLlUA1gtNzyHVeqP_shaVmfH-0Bn2m8R6f4jHsA6NXyYKJpBuP05zcaxnG3ZmBWSCc4hHHE3fclu9E3xaqsTCZ-wPzg25Lo49GtLYsScXlnIQrMBzvAFxRr2W28IFWVrv69O0JXkCpDd6f5HE3-vETdhePmaD3jiEDI_P3eHGG-p3ONknrq2qWJTuQOx_z8JTr5cp_mC0]--></g></svg>