<svg xmlns="http://www.w3.org/2000/svg" xmlns:xlink="http://www.w3.org/1999/xlink" contentStyleType="text/css" height="1296px" preserveAspectRatio="none" style="width:1142px;height:1296px;background:#FFFFFF;" version="1.1" viewBox="0 0 1142 1296" width="1142px" zoomAndPan="magnify"><title>FailSafe Escalation To Output Signal Flow</title><defs/><g><text fill="#000000" font-family="Arial" font-size="22" font-weight="bold" lengthAdjust="spacing" textLength="440.043" x="349.5417" y="35.9956">FailSafe Escalation To Output Signal Flow</text><text fill="#000000" font-family="Arial" font-size="22" font-weight="bold" lengthAdjust="spacing" textLength="191.2646" x="473.9309" y="61.2935">(CGW -&gt; IVI / CLU)</text><rect fill="#FFFFFF" height="501.0317" style="stroke:#000000;stroke-width:1;" width="10" x="313.8188" y="186.1914"/><rect fill="#FFFFFF" height="244.5425" style="stroke:#000000;stroke-width:1;" width="10" x="604.0361" y="689.2231"/><rect fill="#FFFFFF" height="209.8403" style="stroke:#000000;stroke-width:1;" width="10" x="848.793" y="933.7656"/><line style="stroke:#000000;stroke-width:1;" x1="82" x2="82" y1="116.8936" y2="1251.8506"/><line style="stroke:#000000;stroke-width:1;" x1="317.9832" x2="317.9832" y1="116.8936" y2="1251.8506"/><line style="stroke:#000000;stroke-width:1;" x1="608.8408" x2="608.8408" y1="116.8936" y2="1251.8506"/><line style="stroke:#000000;stroke-width:1;" x1="853.2969" x2="853.2969" y1="116.8936" y2="1251.8506"/><rect fill="#E8F7E8" height="39.2979" rx="2.5" ry="2.5" style="stroke:#000000;stroke-width:1;" width="125.9014" x="20" y="76.5957"/><text fill="#000000" font-family="Arial" font-size="11" lengthAdjust="spacing" textLength="111.9014" x="27" y="94.0935">ADAS / body boundary</text><text fill="#000000" font-family="Arial" font-size="11" lengthAdjust="spacing" textLength="80.0938" x="42.9038" y="106.7424">warning sources</text><rect fill="#E8F7E8" height="39.2979" rx="2.5" ry="2.5" style="stroke:#000000;stroke-width:1;" width="125.9014" x="20" y="1250.8506"/><text fill="#000000" font-family="Arial" font-size="11" lengthAdjust="spacing" textLength="111.9014" x="27" y="1268.3484">ADAS / body boundary</text><text fill="#000000" font-family="Arial" font-size="11" lengthAdjust="spacing" textLength="80.0938" x="42.9038" y="1280.9973">warning sources</text><rect fill="#FFF4CC" height="39.2979" rx="2.5" ry="2.5" style="stroke:#000000;stroke-width:1;" width="135.6714" x="250.9832" y="76.5957"/><text fill="#000000" font-family="Arial" font-size="11" lengthAdjust="spacing" textLength="26.8823" x="305.3777" y="94.0935">CGW</text><text fill="#000000" font-family="Arial" font-size="11" lengthAdjust="spacing" textLength="121.6714" x="257.9832" y="106.7424">fail-safe / gateway owner</text><rect fill="#FFF4CC" height="39.2979" rx="2.5" ry="2.5" style="stroke:#000000;stroke-width:1;" width="135.6714" x="250.9832" y="1250.8506"/><text fill="#000000" font-family="Arial" font-size="11" lengthAdjust="spacing" textLength="26.8823" x="305.3777" y="1268.3484">CGW</text><text fill="#000000" font-family="Arial" font-size="11" lengthAdjust="spacing" textLength="121.6714" x="257.9832" y="1280.9973">fail-safe / gateway owner</text><rect fill="#E8F0FE" height="39.2979" rx="2.5" ry="2.5" style="stroke:#000000;stroke-width:1;" width="120.3906" x="548.8408" y="76.5957"/><text fill="#000000" font-family="Arial" font-size="11" lengthAdjust="spacing" textLength="13.4492" x="602.3115" y="94.0935">IVI</text><text fill="#000000" font-family="Arial" font-size="11" lengthAdjust="spacing" textLength="106.3906" x="555.8408" y="106.7424">warning render owner</text><rect fill="#E8F0FE" height="39.2979" rx="2.5" ry="2.5" style="stroke:#000000;stroke-width:1;" width="120.3906" x="548.8408" y="1250.8506"/><text fill="#000000" font-family="Arial" font-size="11" lengthAdjust="spacing" textLength="13.4492" x="602.3115" y="1268.3484">IVI</text><text fill="#000000" font-family="Arial" font-size="11" lengthAdjust="spacing" textLength="106.3906" x="555.8408" y="1280.9973">warning render owner</text><rect fill="#E8F0FE" height="39.2979" rx="2.5" ry="2.5" style="stroke:#000000;stroke-width:1;" width="120.9922" x="793.2969" y="76.5957"/><text fill="#000000" font-family="Arial" font-size="11" lengthAdjust="spacing" textLength="22.0054" x="842.7903" y="94.0935">CLU</text><text fill="#000000" font-family="Arial" font-size="11" lengthAdjust="spacing" textLength="106.9922" x="800.2969" y="106.7424">cluster warning owner</text><rect fill="#E8F0FE" height="39.2979" rx="2.5" ry="2.5" style="stroke:#000000;stroke-width:1;" width="120.9922" x="793.2969" y="1250.8506"/><text fill="#000000" font-family="Arial" font-size="11" lengthAdjust="spacing" textLength="22.0054" x="842.7903" y="1268.3484">CLU</text><text fill="#000000" font-family="Arial" font-size="11" lengthAdjust="spacing" textLength="106.9922" x="800.2969" y="1280.9973">cluster warning owner</text><rect fill="#FFFFFF" height="501.0317" style="stroke:#000000;stroke-width:1;" width="10" x="313.8188" y="186.1914"/><rect fill="#FFFFFF" height="244.5425" style="stroke:#000000;stroke-width:1;" width="10" x="604.0361" y="689.2231"/><rect fill="#FFFFFF" height="209.8403" style="stroke:#000000;stroke-width:1;" width="10" x="848.793" y="933.7656"/><rect fill="#FFFFFF" height="3" style="stroke:#FFFFFF;stroke-width:1;" width="1130.1265" x="5" y="146.218"/><line style="stroke:#000000;stroke-width:0.5;" x1="5" x2="1135.1265" y1="146.218" y2="146.218"/><line style="stroke:#000000;stroke-width:0.5;" x1="5" x2="1135.1265" y1="149.218" y2="149.218"/><rect fill="#FFFFFF" height="20.6489" style="stroke:#000000;stroke-width:1;" width="157.6553" x="491.2356" y="136.8936"/><text fill="#000000" font-family="Arial" font-size="11" font-weight="bold" lengthAdjust="spacing" textLength="140.5991" x="497.2356" y="151.3914">Boundary / Gateway Intake</text><polygon fill="#000000" points="301.8188,182.1914,311.8188,186.1914,301.8188,190.1914,305.8188,186.1914" style="stroke:#000000;stroke-width:1;"/><line style="stroke:#000000;stroke-width:1;" x1="82.9507" x2="307.8188" y1="186.1914" y2="186.1914"/><text fill="#000000" font-family="Arial" font-size="11" lengthAdjust="spacing" textLength="211.8682" x="92.4507" y="182.0403">decision seams + timeout / boundary inputs</text><line style="stroke:#000000;stroke-width:1;" x1="323.8188" x2="365.8188" y1="212.8403" y2="212.8403"/><line style="stroke:#000000;stroke-width:1;" x1="365.8188" x2="365.8188" y1="212.8403" y2="225.8403"/><line style="stroke:#000000;stroke-width:1;" x1="324.8188" x2="365.8188" y1="225.8403" y2="225.8403"/><polygon fill="#000000" points="334.8188,221.8403,324.8188,225.8403,334.8188,229.8403,330.8188,225.8403" style="stroke:#000000;stroke-width:1;"/><text fill="#000000" font-family="Arial" font-size="11" lengthAdjust="spacing" textLength="256.2173" x="330.8188" y="208.6892">warningPathStatus / e2eHealthState / boundaryAlive</text><line style="stroke:#000000;stroke-width:1;" x1="323.8188" x2="365.8188" y1="252.4893" y2="252.4893"/><line style="stroke:#000000;stroke-width:1;" x1="365.8188" x2="365.8188" y1="252.4893" y2="265.4893"/><line style="stroke:#000000;stroke-width:1;" x1="324.8188" x2="365.8188" y1="265.4893" y2="265.4893"/><polygon fill="#000000" points="334.8188,261.4893,324.8188,265.4893,334.8188,269.4893,330.8188,265.4893" style="stroke:#000000;stroke-width:1;"/><text fill="#000000" font-family="Arial" font-size="11" lengthAdjust="spacing" textLength="113.4321" x="330.8188" y="248.3381">failSafeMode = 0 / 1 / 2</text><line style="stroke:#000000;stroke-width:1;" x1="323.8188" x2="365.8188" y1="292.1382" y2="292.1382"/><line style="stroke:#000000;stroke-width:1;" x1="365.8188" x2="365.8188" y1="292.1382" y2="305.1382"/><line style="stroke:#000000;stroke-width:1;" x1="324.8188" x2="365.8188" y1="305.1382" y2="305.1382"/><polygon fill="#000000" points="334.8188,301.1382,324.8188,305.1382,334.8188,309.1382,330.8188,305.1382" style="stroke:#000000;stroke-width:1;"/><text fill="#000000" font-family="Arial" font-size="11" lengthAdjust="spacing" textLength="165.6929" x="330.8188" y="287.9871">selectedAlertEffectiveLevel / Type</text><line style="stroke:#000000;stroke-width:1;" x1="323.8188" x2="365.8188" y1="331.7871" y2="331.7871"/><line style="stroke:#000000;stroke-width:1;" x1="365.8188" x2="365.8188" y1="331.7871" y2="344.7871"/><line style="stroke:#000000;stroke-width:1;" x1="324.8188" x2="365.8188" y1="344.7871" y2="344.7871"/><polygon fill="#000000" points="334.8188,340.7871,324.8188,344.7871,334.8188,348.7871,330.8188,344.7871" style="stroke:#000000;stroke-width:1;"/><text fill="#000000" font-family="Arial" font-size="11" lengthAdjust="spacing" textLength="174.5767" x="330.8188" y="327.636">selectedAlertGateReason = 1 / 2 / 3</text><path d="M328,357.7871 L328,417.7871 L600,417.7871 L600,367.7871 L590,357.7871 L328,357.7871 " fill="#FFFFFF" style="stroke:#000000;stroke-width:1;"/><path d="M590,357.7871 L590,367.7871 L600,367.7871 L590,357.7871 " fill="#FFFFFF" style="stroke:#000000;stroke-width:1;"/><text fill="#000000" font-family="Arial" font-size="11" lengthAdjust="spacing" textLength="153.4736" x="334" y="373.2849">Representative escalation rules</text><text fill="#000000" font-family="Arial" font-size="11" lengthAdjust="spacing" textLength="251.0127" x="334" y="385.9338">- timeoutClear or dead boundary -&gt; gate reason 1/2</text><text fill="#000000" font-family="Arial" font-size="11" lengthAdjust="spacing" textLength="212.4751" x="334" y="398.5828">- failSafeMode &gt;= 1 -&gt; effective level floor 4</text><text fill="#000000" font-family="Arial" font-size="11" lengthAdjust="spacing" textLength="209.1074" x="334" y="411.2317">- fallback alert type when decision type is 0</text><polygon fill="#000000" points="597.0361,438.0317,607.0361,442.0317,597.0361,446.0317,601.0361,442.0317" style="stroke:#000000;stroke-width:1;"/><line style="stroke:#000000;stroke-width:1;" x1="323.8188" x2="603.0361" y1="442.0317" y2="442.0317"/><text fill="#000000" font-family="Arial" font-size="11" lengthAdjust="spacing" textLength="187.709" x="372.573" y="437.8806">CoreState::selectedAlertEffectiveLevel</text><polygon fill="#000000" points="597.0361,464.6807,607.0361,468.6807,597.0361,472.6807,601.0361,468.6807" style="stroke:#000000;stroke-width:1;"/><line style="stroke:#000000;stroke-width:1;" x1="323.8188" x2="603.0361" y1="468.6807" y2="468.6807"/><text fill="#000000" font-family="Arial" font-size="11" lengthAdjust="spacing" textLength="185.8667" x="373.4941" y="464.5295">CoreState::selectedAlertEffectiveType</text><polygon fill="#000000" points="597.0361,491.3296,607.0361,495.3296,597.0361,499.3296,601.0361,495.3296" style="stroke:#000000;stroke-width:1;"/><line style="stroke:#000000;stroke-width:1;" x1="323.8188" x2="603.0361" y1="495.3296" y2="495.3296"/><text fill="#000000" font-family="Arial" font-size="11" lengthAdjust="spacing" textLength="180.9897" x="375.9326" y="491.1785">CoreState::selectedAlertGateReason</text><polygon fill="#000000" points="597.0361,517.9785,607.0361,521.9785,597.0361,525.9785,601.0361,521.9785" style="stroke:#000000;stroke-width:1;"/><line style="stroke:#000000;stroke-width:1;" x1="323.8188" x2="603.0361" y1="521.9785" y2="521.9785"/><text fill="#000000" font-family="Arial" font-size="11" lengthAdjust="spacing" textLength="92.313" x="420.271" y="517.8274">Core::timeoutClear</text><polygon fill="#000000" points="597.0361,544.6274,607.0361,548.6274,597.0361,552.6274,601.0361,548.6274" style="stroke:#000000;stroke-width:1;"/><line style="stroke:#000000;stroke-width:1;" x1="323.8188" x2="603.0361" y1="548.6274" y2="548.6274"/><text fill="#000000" font-family="Arial" font-size="11" lengthAdjust="spacing" textLength="94.1606" x="419.3472" y="544.4763">Core::failSafeMode</text><polygon fill="#000000" points="841.793,571.2764,851.793,575.2764,841.793,579.2764,845.793,575.2764" style="stroke:#000000;stroke-width:1;"/><line style="stroke:#000000;stroke-width:1;" x1="323.8188" x2="847.793" y1="575.2764" y2="575.2764"/><text fill="#000000" font-family="Arial" font-size="11" lengthAdjust="spacing" textLength="106.3745" x="535.6187" y="571.1252">same effective seams</text><line style="stroke:#000000;stroke-width:1;" x1="323.8188" x2="365.8188" y1="601.9253" y2="601.9253"/><line style="stroke:#000000;stroke-width:1;" x1="365.8188" x2="365.8188" y1="601.9253" y2="614.9253"/><line style="stroke:#000000;stroke-width:1;" x1="324.8188" x2="365.8188" y1="614.9253" y2="614.9253"/><polygon fill="#000000" points="334.8188,610.9253,324.8188,614.9253,334.8188,618.9253,330.8188,614.9253" style="stroke:#000000;stroke-width:1;"/><text fill="#000000" font-family="Arial" font-size="11" lengthAdjust="spacing" textLength="108.2222" x="330.8188" y="597.7742">publishFailSafeState()</text><line style="stroke:#000000;stroke-width:1;" x1="323.8188" x2="365.8188" y1="641.5742" y2="641.5742"/><line style="stroke:#000000;stroke-width:1;" x1="365.8188" x2="365.8188" y1="641.5742" y2="654.5742"/><line style="stroke:#000000;stroke-width:1;" x1="324.8188" x2="365.8188" y1="654.5742" y2="654.5742"/><polygon fill="#000000" points="334.8188,650.5742,324.8188,654.5742,334.8188,658.5742,330.8188,654.5742" style="stroke:#000000;stroke-width:1;"/><text fill="#000000" font-family="Arial" font-size="11" lengthAdjust="spacing" textLength="111.2783" x="330.8188" y="637.4231">publishGatewayState()</text><line style="stroke:#000000;stroke-width:1;" x1="323.8188" x2="365.8188" y1="686.2231" y2="686.2231"/><line style="stroke:#000000;stroke-width:1;" x1="365.8188" x2="365.8188" y1="686.2231" y2="699.2231"/><line style="stroke:#000000;stroke-width:1;" x1="318.8188" x2="365.8188" y1="699.2231" y2="699.2231"/><polygon fill="#000000" points="328.8188,695.2231,318.8188,699.2231,328.8188,703.2231,324.8188,699.2231" style="stroke:#000000;stroke-width:1;"/><text fill="#000000" font-family="Arial" font-size="11" lengthAdjust="spacing" textLength="130.8452" x="330.8188" y="682.072">publishObjectSafetyState()</text><rect fill="#FFFFFF" height="3" style="stroke:#FFFFFF;stroke-width:1;" width="1130.1265" x="5" y="721.5476"/><line style="stroke:#000000;stroke-width:0.5;" x1="5" x2="1135.1265" y1="721.5476" y2="721.5476"/><line style="stroke:#000000;stroke-width:0.5;" x1="5" x2="1135.1265" y1="724.5476" y2="724.5476"/><rect fill="#FFFFFF" height="20.6489" style="stroke:#000000;stroke-width:1;" width="172.9307" x="483.5979" y="712.2231"/><text fill="#000000" font-family="Arial" font-size="11" font-weight="bold" lengthAdjust="spacing" textLength="155.8745" x="489.5979" y="726.7209">IVI Escalated Warning Render</text><polygon fill="#000000" points="592.0361,757.521,602.0361,761.521,592.0361,765.521,596.0361,761.521" style="stroke:#000000;stroke-width:1;"/><line style="stroke:#000000;stroke-width:1;" x1="318.8188" x2="598.0361" y1="761.521" y2="761.521"/><text fill="#000000" font-family="Arial" font-size="11" lengthAdjust="spacing" textLength="151.3145" x="385.7703" y="757.3699">effective seams + timeoutClear</text><line style="stroke:#000000;stroke-width:1;" x1="614.0361" x2="656.0361" y1="788.1699" y2="788.1699"/><line style="stroke:#000000;stroke-width:1;" x1="656.0361" x2="656.0361" y1="788.1699" y2="801.1699"/><line style="stroke:#000000;stroke-width:1;" x1="615.0361" x2="656.0361" y1="801.1699" y2="801.1699"/><polygon fill="#000000" points="625.0361,797.1699,615.0361,801.1699,625.0361,805.1699,621.0361,801.1699" style="stroke:#000000;stroke-width:1;"/><text fill="#000000" font-family="Arial" font-size="11" lengthAdjust="spacing" textLength="125.936" x="621.0361" y="784.0188">deriveWarningTextCode()</text><line style="stroke:#000000;stroke-width:1;" x1="614.0361" x2="656.0361" y1="827.8188" y2="827.8188"/><line style="stroke:#000000;stroke-width:1;" x1="656.0361" x2="656.0361" y1="827.8188" y2="840.8188"/><line style="stroke:#000000;stroke-width:1;" x1="615.0361" x2="656.0361" y1="840.8188" y2="840.8188"/><polygon fill="#000000" points="625.0361,836.8188,615.0361,840.8188,625.0361,844.8188,621.0361,840.8188" style="stroke:#000000;stroke-width:1;"/><text fill="#000000" font-family="Arial" font-size="11" lengthAdjust="spacing" textLength="138.1982" x="621.0361" y="823.6677">updateBackboneAlertState()</text><line style="stroke:#000000;stroke-width:1;" x1="614.0361" x2="656.0361" y1="867.4678" y2="867.4678"/><line style="stroke:#000000;stroke-width:1;" x1="656.0361" x2="656.0361" y1="867.4678" y2="880.4678"/><line style="stroke:#000000;stroke-width:1;" x1="615.0361" x2="656.0361" y1="880.4678" y2="880.4678"/><polygon fill="#000000" points="625.0361,876.4678,615.0361,880.4678,625.0361,884.4678,621.0361,880.4678" style="stroke:#000000;stroke-width:1;"/><text fill="#000000" font-family="Arial" font-size="11" lengthAdjust="spacing" textLength="142.4736" x="621.0361" y="863.3167">UiRender::warningBeepState</text><polygon fill="#000000" points="841.793,903.1167,851.793,907.1167,841.793,911.1167,845.793,907.1167" style="stroke:#000000;stroke-width:1;"/><line style="stroke:#000000;stroke-width:1;" x1="614.0361" x2="847.793" y1="907.1167" y2="907.1167"/><text fill="#000000" font-family="Arial" font-size="11" lengthAdjust="spacing" textLength="112.4653" x="677.6819" y="902.9656">frmClusterWarningMsg</text><polygon fill="#000000" points="836.793,929.7656,846.793,933.7656,836.793,937.7656,840.793,933.7656" style="stroke:#000000;stroke-width:1;"/><line style="stroke:#000000;stroke-width:1;" x1="609.0361" x2="842.793" y1="933.7656" y2="933.7656"/><text fill="#000000" font-family="Arial" font-size="11" lengthAdjust="spacing" textLength="94.123" x="681.853" y="929.6145">frmClusterNotifMsg</text><path d="M614,946.7656 L614,1006.7656 L748,1006.7656 L748,956.7656 L738,946.7656 L614,946.7656 " fill="#FFFFFF" style="stroke:#000000;stroke-width:1;"/><path d="M738,946.7656 L738,956.7656 L748,956.7656 L738,946.7656 " fill="#FFFFFF" style="stroke:#000000;stroke-width:1;"/><text fill="#000000" font-family="Arial" font-size="11" lengthAdjust="spacing" textLength="113.126" x="620" y="962.2634">Representative outputs</text><text fill="#000000" font-family="Arial" font-size="11" lengthAdjust="spacing" textLength="92.936" x="620" y="974.9124">- warning text code</text><text fill="#000000" font-family="Arial" font-size="11" lengthAdjust="spacing" textLength="94.1714" x="620" y="987.5613">- notif / popup state</text><text fill="#000000" font-family="Arial" font-size="11" lengthAdjust="spacing" textLength="99.6714" x="620" y="1000.2102">- warning beep state</text><rect fill="#FFFFFF" height="3" style="stroke:#FFFFFF;stroke-width:1;" width="1130.1265" x="5" y="1031.6858"/><line style="stroke:#000000;stroke-width:0.5;" x1="5" x2="1135.1265" y1="1031.6858" y2="1031.6858"/><line style="stroke:#000000;stroke-width:0.5;" x1="5" x2="1135.1265" y1="1034.6858" y2="1034.6858"/><rect fill="#FFFFFF" height="20.6489" style="stroke:#000000;stroke-width:1;" width="136.2676" x="501.9294" y="1022.3613"/><text fill="#000000" font-family="Arial" font-size="11" font-weight="bold" lengthAdjust="spacing" textLength="119.2114" x="507.9294" y="1036.8591">CLU Escalated Display</text><polygon fill="#000000" points="836.793,1067.6592,846.793,1071.6592,836.793,1075.6592,840.793,1071.6592" style="stroke:#000000;stroke-width:1;"/><line style="stroke:#000000;stroke-width:1;" x1="318.8188" x2="842.793" y1="1071.6592" y2="1071.6592"/><text fill="#000000" font-family="Arial" font-size="11" lengthAdjust="spacing" textLength="76.4199" x="545.5959" y="1067.5081">effective seams</text><polygon fill="#000000" points="836.793,1094.3081,846.793,1098.3081,836.793,1102.3081,840.793,1098.3081" style="stroke:#000000;stroke-width:1;"/><line style="stroke:#000000;stroke-width:1;" x1="609.0361" x2="842.793" y1="1098.3081" y2="1098.3081"/><text fill="#000000" font-family="Arial" font-size="11" lengthAdjust="spacing" textLength="215.7568" x="621.0361" y="1094.157">frmClusterWarningMsg / frmClusterNotifMsg</text><line style="stroke:#000000;stroke-width:1;" x1="858.793" x2="900.793" y1="1142.606" y2="1142.606"/><line style="stroke:#000000;stroke-width:1;" x1="900.793" x2="900.793" y1="1142.606" y2="1155.606"/><line style="stroke:#000000;stroke-width:1;" x1="853.793" x2="900.793" y1="1155.606" y2="1155.606"/><polygon fill="#000000" points="863.793,1151.606,853.793,1155.606,863.793,1159.606,859.793,1155.606" style="stroke:#000000;stroke-width:1;"/><text fill="#000000" font-family="Arial" font-size="11" lengthAdjust="spacing" textLength="111.2837" x="933.8179" y="1125.8059">keep alert visible when</text><text fill="#000000" font-family="Arial" font-size="11" lengthAdjust="spacing" textLength="247.3335" x="865.793" y="1138.4548">selectedAlertGateReason &gt; 0 or timeoutClear == 1</text><path d="M13,1163.606 L13,1236.606 L922,1236.606 L922,1173.606 L912,1163.606 L13,1163.606 " fill="#FFFFFF" style="stroke:#000000;stroke-width:1;"/><path d="M912,1163.606 L912,1173.606 L922,1173.606 L912,1163.606 " fill="#FFFFFF" style="stroke:#000000;stroke-width:1;"/><text fill="#000000" font-family="Arial" font-size="11" lengthAdjust="spacing" textLength="143.0752" x="327.4063" y="1179.1038">Representative runtime chain</text><text fill="#000000" font-family="Arial" font-size="11" lengthAdjust="spacing" textLength="219.4844" x="327.4063" y="1191.7527">1. Boundary or transport issue reaches CGW</text><text fill="#000000" font-family="Arial" font-size="11" lengthAdjust="spacing" textLength="239.6797" x="327.4063" y="1204.4016">2. CGW escalates effective alert and gate reason</text><text fill="#000000" font-family="Arial" font-size="11" lengthAdjust="spacing" textLength="239.6904" x="327.4063" y="1217.0505">3. IVI converts escalation into warning text / beep</text><text fill="#000000" font-family="Arial" font-size="11" lengthAdjust="spacing" textLength="271.4766" x="327.4063" y="1229.6995">4. CLU keeps the escalated warning visible to the driver</text><!--SRC=[bLRRRXit47tdLqoJbmIjBSinq4203CWRAJLW9uLbDozweNPd9TOKkIMvKjIlxmpthZekAa22G9wPENFciljJsE8EeT1I6U6VbIcaapjOo_HvusnfiiHgw-3j8dvwY0npMUgmi2PyaUHXvfJKBzylrTy8ut7lqkDV9PeKxz5xkS6PLXi3APg0heTow0jhV8EwGMqFC-Vi0O8hKOYWWaPOIAMNCaUO-rHg6PGry6ZXQncACi2IF4iD2p9TcNV9vszmTWstVzp229Axf_T2KAYWKbL84-3DxDDiIJThcntfXxANxhWo1-cCCXlmjdGf-ZSWFIoh__1s_d7nw_pZq0s5MPcSU9rv9ZQ2ZGnua4Um1uCksZCJ5lKgIOQsnAsBwD1aw7fcp9n3NYpc9o7ldbOcrQKd2Q4nxuMxUshjn7GADtLonErppUtM1FcCC9qAqIH7KZ7F2HKpLPw5zIXt7dw6e7PeITvHAnDGrShWXKo3sfDBjXIrtfMJcjNlCcoNGORIapLUucyeTNM2FNVK4diSskTreUzjHZJXWj1Z-buEKHurfW6pcKONvdcEp0VlS8-Qm8_70b_1inOFA3rbEgsSq_U3C9QuERNP1h1vJEm12-fEQbZ9tW6xrdEbHY_E6eKIZP8Aw4X2cNLYKNZk2Ifm33OUNPB98C5h9a0mR5807NF8jILlLn6kDSyfIAOEWLA3mnPDLwruf3nS2EeZu2n4Rm8ca5Y7KVZ9v1NP_gTDN-BNJJgr_usVJFe2ldJVLwijARKvbPJtKQTRxDbXqOjohPNVDgiZadlt_aLCFHwlGRwk_wHGx2YqE2ftVn1uvfXylQCmWs_rZ3vK8yvZrreGSfZnIJBT05RgCAZ5aZS2rkuVyNj8I21YD02LHKQ1RgXxrjPWh4R3V81xKXM_oQIUtXl48Y8RN2LvxdP9jNpgmFT-yoF45njKplV3iUAaJyRAnXtEqzHij43vGCeLF-D-LZdDPs6BiW0VINN8DH6j3zlcxnM5et5Hc5nNb4_AqvFmEAm6GORzTTfQ_wa4aNmXVSQtPizCjnhaFGtlMbUpl38_sa_Nj01f4GpM3EKp7dGUCQzKjdlgiNgj_nBFJwHsfM5Na6xvHM1ytZqXE8YJXXx5n4rvNyQjbMunFiJ4vNaSXde3qc6dJfME9FLxkqvyE8-zbLf3d8BlxqvbWXsMUXJhAAxEeqmiaWTwOsd3PIsyKOqyC23Z8N1TwVy1]--></g></svg>