<svg xmlns="http://www.w3.org/2000/svg" xmlns:xlink="http://www.w3.org/1999/xlink" contentStyleType="text/css" height="736px" preserveAspectRatio="none" style="width:753px;height:736px;background:#FFFFFF;" version="1.1" viewBox="0 0 753 736" width="753px" zoomAndPan="magnify"><title>Fail-safe To Diagnostic State Signal Flow</title><defs/><g><text fill="#000000" font-family="Arial" font-size="22" font-weight="bold" lengthAdjust="spacing" textLength="429.0645" x="160.7715" y="35.9956">Fail-safe To Diagnostic State Signal Flow</text><text fill="#000000" font-family="Arial" font-size="22" font-weight="bold" lengthAdjust="spacing" textLength="720.6074" x="15" y="61.2935">(Core fail-safe / warning path -&gt; DCM diagnostic severity publication)</text><line style="stroke:#000000;stroke-width:1;" x1="95.7643" x2="95.7643" y1="116.8936" y2="692.1167"/><line style="stroke:#000000;stroke-width:1;" x1="267.2164" x2="267.2164" y1="116.8936" y2="692.1167"/><line style="stroke:#000000;stroke-width:1;" x1="509.8749" x2="509.8749" y1="116.8936" y2="692.1167"/><line style="stroke:#000000;stroke-width:1;" x1="649.9286" x2="649.9286" y1="116.8936" y2="692.1167"/><rect fill="#F4F7FB" height="39.2979" rx="2.5" ry="2.5" style="stroke:#000000;stroke-width:1;" width="96.5376" x="47.7643" y="76.5957"/><text fill="#000000" font-family="Arial" font-size="11" lengthAdjust="spacing" textLength="82.5376" x="54.7643" y="94.0935">Core / CoreState</text><text fill="#000000" font-family="Arial" font-size="11" lengthAdjust="spacing" textLength="77.0376" x="57.5143" y="106.7424">fail-safe context</text><rect fill="#F4F7FB" height="39.2979" rx="2.5" ry="2.5" style="stroke:#000000;stroke-width:1;" width="96.5376" x="47.7643" y="691.1167"/><text fill="#000000" font-family="Arial" font-size="11" lengthAdjust="spacing" textLength="82.5376" x="54.7643" y="708.6145">Core / CoreState</text><text fill="#000000" font-family="Arial" font-size="11" lengthAdjust="spacing" textLength="77.0376" x="57.5143" y="721.2634">fail-safe context</text><rect fill="#E8F7E8" height="39.2979" rx="2.5" ry="2.5" style="stroke:#000000;stroke-width:1;" width="173.5806" x="181.2164" y="76.5957"/><text fill="#000000" font-family="Arial" font-size="11" lengthAdjust="spacing" textLength="25.0508" x="255.4813" y="94.0935">DCM</text><text fill="#000000" font-family="Arial" font-size="11" lengthAdjust="spacing" textLength="159.5806" x="188.2164" y="106.7424">diagnostic communication owner</text><rect fill="#E8F7E8" height="39.2979" rx="2.5" ry="2.5" style="stroke:#000000;stroke-width:1;" width="173.5806" x="181.2164" y="691.1167"/><text fill="#000000" font-family="Arial" font-size="11" lengthAdjust="spacing" textLength="25.0508" x="255.4813" y="708.6145">DCM</text><text fill="#000000" font-family="Arial" font-size="11" lengthAdjust="spacing" textLength="159.5806" x="188.2164" y="721.2634">diagnostic communication owner</text><rect fill="#FFF4CC" height="26.6489" rx="2.5" ry="2.5" style="stroke:#000000;stroke-width:1;" width="113.0537" x="453.8749" y="89.2446"/><text fill="#000000" font-family="Arial" font-size="11" lengthAdjust="spacing" textLength="99.0537" x="460.8749" y="106.7424">Diagnostic state bus</text><rect fill="#FFF4CC" height="26.6489" rx="2.5" ry="2.5" style="stroke:#000000;stroke-width:1;" width="113.0537" x="453.8749" y="691.1167"/><text fill="#000000" font-family="Arial" font-size="11" lengthAdjust="spacing" textLength="99.0537" x="460.8749" y="708.6145">Diagnostic state bus</text><rect fill="#E8F0FE" height="26.6489" rx="2.5" ry="2.5" style="stroke:#000000;stroke-width:1;" width="106.9146" x="596.9286" y="89.2446"/><text fill="#000000" font-family="Arial" font-size="11" lengthAdjust="spacing" textLength="92.9146" x="603.9286" y="106.7424">Observers / testers</text><rect fill="#E8F0FE" height="26.6489" rx="2.5" ry="2.5" style="stroke:#000000;stroke-width:1;" width="106.9146" x="596.9286" y="691.1167"/><text fill="#000000" font-family="Arial" font-size="11" lengthAdjust="spacing" textLength="92.9146" x="603.9286" y="708.6145">Observers / testers</text><rect fill="#FFFFFF" height="3" style="stroke:#FFFFFF;stroke-width:1;" width="686.0789" x="32.7643" y="146.218"/><line style="stroke:#000000;stroke-width:0.5;" x1="32.7643" x2="718.8431" y1="146.218" y2="146.218"/><line style="stroke:#000000;stroke-width:0.5;" x1="32.7643" x2="718.8431" y1="149.218" y2="149.218"/><rect fill="#FFFFFF" height="20.6489" style="stroke:#000000;stroke-width:1;" width="109.3369" x="321.1353" y="136.8936"/><text fill="#000000" font-family="Arial" font-size="11" font-weight="bold" lengthAdjust="spacing" textLength="92.2808" x="327.1353" y="151.3914">Diagnostic Inputs</text><polygon fill="#000000" points="256.0067,207.4893,266.0067,211.4893,256.0067,215.4893,260.0067,211.4893" style="stroke:#000000;stroke-width:1;"/><line style="stroke:#000000;stroke-width:1;" x1="96.0331" x2="262.0067" y1="211.4893" y2="211.4893"/><text fill="#000000" font-family="Arial" font-size="11" lengthAdjust="spacing" textLength="147.9736" x="108.0331" y="182.0403">CoreState::warningPathStatus</text><text fill="#000000" font-family="Arial" font-size="11" lengthAdjust="spacing" textLength="94.1606" x="134.9396" y="194.6892">Core::failSafeMode</text><text fill="#000000" font-family="Arial" font-size="11" lengthAdjust="spacing" textLength="69.7114" x="147.1642" y="207.3381">boundaryAlive</text><line style="stroke:#000000;stroke-width:1;" x1="268.0067" x2="310.0067" y1="238.1382" y2="238.1382"/><line style="stroke:#000000;stroke-width:1;" x1="310.0067" x2="310.0067" y1="238.1382" y2="251.1382"/><line style="stroke:#000000;stroke-width:1;" x1="269.0067" x2="310.0067" y1="251.1382" y2="251.1382"/><polygon fill="#000000" points="279.0067,247.1382,269.0067,251.1382,279.0067,255.1382,275.0067,251.1382" style="stroke:#000000;stroke-width:1;"/><text fill="#000000" font-family="Arial" font-size="11" lengthAdjust="spacing" textLength="228.395" x="275.0067" y="233.9871">warningPathStatus = boundaryAlive ? value : 2</text><line style="stroke:#000000;stroke-width:1;" x1="268.0067" x2="310.0067" y1="277.7871" y2="277.7871"/><line style="stroke:#000000;stroke-width:1;" x1="310.0067" x2="310.0067" y1="277.7871" y2="290.7871"/><line style="stroke:#000000;stroke-width:1;" x1="269.0067" x2="310.0067" y1="290.7871" y2="290.7871"/><polygon fill="#000000" points="279.0067,286.7871,269.0067,290.7871,279.0067,294.7871,275.0067,290.7871" style="stroke:#000000;stroke-width:1;"/><text fill="#000000" font-family="Arial" font-size="11" lengthAdjust="spacing" textLength="200.2666" x="275.0067" y="273.636">failSafeMode = boundaryAlive ? value : 2</text><line style="stroke:#000000;stroke-width:1;" x1="268.0067" x2="310.0067" y1="317.436" y2="317.436"/><line style="stroke:#000000;stroke-width:1;" x1="310.0067" x2="310.0067" y1="317.436" y2="330.436"/><line style="stroke:#000000;stroke-width:1;" x1="269.0067" x2="310.0067" y1="330.436" y2="330.436"/><polygon fill="#000000" points="279.0067,326.436,269.0067,330.436,279.0067,334.436,275.0067,330.436" style="stroke:#000000;stroke-width:1;"/><text fill="#000000" font-family="Arial" font-size="11" lengthAdjust="spacing" textLength="225.8867" x="275.0067" y="313.2849">diagnostic severity = deriveSystemSeverity(...)</text><path d="M272.7643,343.436 L272.7643,403.436 L399.7643,403.436 L399.7643,353.436 L389.7643,343.436 L272.7643,343.436 " fill="#FFFFFF" style="stroke:#000000;stroke-width:1;"/><path d="M389.7643,343.436 L389.7643,353.436 L399.7643,353.436 L389.7643,343.436 " fill="#FFFFFF" style="stroke:#000000;stroke-width:1;"/><text fill="#000000" font-family="Arial" font-size="11" lengthAdjust="spacing" textLength="106.396" x="278.7643" y="358.9338">Representative inputs</text><text fill="#000000" font-family="Arial" font-size="11" lengthAdjust="spacing" textLength="99.0537" x="278.7643" y="371.5828">- warningPathStatus</text><text fill="#000000" font-family="Arial" font-size="11" lengthAdjust="spacing" textLength="70.9253" x="278.7643" y="384.2317">- failSafeMode</text><text fill="#000000" font-family="Arial" font-size="11" lengthAdjust="spacing" textLength="76.4307" x="278.7643" y="396.8806">- boundaryAlive</text><rect fill="#FFFFFF" height="3" style="stroke:#FFFFFF;stroke-width:1;" width="686.0789" x="32.7643" y="428.3562"/><line style="stroke:#000000;stroke-width:0.5;" x1="32.7643" x2="718.8431" y1="428.3562" y2="428.3562"/><line style="stroke:#000000;stroke-width:0.5;" x1="32.7643" x2="718.8431" y1="431.3562" y2="431.3562"/><rect fill="#FFFFFF" height="20.6489" style="stroke:#000000;stroke-width:1;" width="116.0669" x="317.7703" y="419.0317"/><text fill="#000000" font-family="Arial" font-size="11" font-weight="bold" lengthAdjust="spacing" textLength="99.0107" x="323.7703" y="433.5295">Diagnostic Publish</text><polygon fill="#000000" points="498.4017,476.9785,508.4017,480.9785,498.4017,484.9785,502.4017,480.9785" style="stroke:#000000;stroke-width:1;"/><line style="stroke:#000000;stroke-width:1;" x1="268.0067" x2="504.4017" y1="480.9785" y2="480.9785"/><text fill="#000000" font-family="Arial" font-size="11" lengthAdjust="spacing" textLength="125.3506" x="326.5289" y="464.1785">diagnostic state / reason /</text><text fill="#000000" font-family="Arial" font-size="11" lengthAdjust="spacing" textLength="132.0537" x="323.1774" y="476.8274">service-severity publication</text><polygon fill="#000000" points="638.3859,516.2764,648.3859,520.2764,638.3859,524.2764,642.3859,520.2764" style="stroke:#000000;stroke-width:1;"/><line style="stroke:#000000;stroke-width:1;" x1="268.0067" x2="644.3859" y1="520.2764" y2="520.2764"/><text fill="#000000" font-family="Arial" font-size="11" lengthAdjust="spacing" textLength="83.1553" x="417.6187" y="503.4763">diagnostic trace /</text><text fill="#000000" font-family="Arial" font-size="11" lengthAdjust="spacing" textLength="121.6714" x="398.3606" y="516.1252">service response context</text><path d="M272.7643,533.2764 L272.7643,593.2764 L437.7643,593.2764 L437.7643,543.2764 L427.7643,533.2764 L272.7643,533.2764 " fill="#FFFFFF" style="stroke:#000000;stroke-width:1;"/><path d="M427.7643,533.2764 L427.7643,543.2764 L437.7643,543.2764 L427.7643,533.2764 " fill="#FFFFFF" style="stroke:#000000;stroke-width:1;"/><text fill="#000000" font-family="Arial" font-size="11" lengthAdjust="spacing" textLength="113.126" x="278.7643" y="548.7742">Representative outputs</text><text fill="#000000" font-family="Arial" font-size="11" lengthAdjust="spacing" textLength="136.3398" x="278.7643" y="561.4231">- derived diagnostic severity</text><text fill="#000000" font-family="Arial" font-size="11" lengthAdjust="spacing" textLength="113.1152" x="278.7643" y="574.072">- route / reason context</text><text fill="#000000" font-family="Arial" font-size="11" lengthAdjust="spacing" textLength="144.2891" x="278.7643" y="586.7209">- visible diagnostic trace state</text><path d="M37.7643,603.8721 L37.7643,676.8721 L708.7643,676.8721 L708.7643,613.8721 L698.7643,603.8721 L37.7643,603.8721 " fill="#FFFFFF" style="stroke:#000000;stroke-width:1;"/><path d="M698.7643,603.8721 L698.7643,613.8721 L708.7643,613.8721 L698.7643,603.8721 " fill="#FFFFFF" style="stroke:#000000;stroke-width:1;"/><text fill="#000000" font-family="Arial" font-size="11" lengthAdjust="spacing" textLength="143.0752" x="212.2712" y="619.3699">Representative runtime chain</text><text fill="#000000" font-family="Arial" font-size="11" lengthAdjust="spacing" textLength="251.2866" x="212.2712" y="632.0188">1. Core fail-safe and warning-path state reach DCM</text><text fill="#000000" font-family="Arial" font-size="11" lengthAdjust="spacing" textLength="261.0781" x="212.2712" y="644.6677">2. DCM normalizes degraded/boundary-broken cases</text><text fill="#000000" font-family="Arial" font-size="11" lengthAdjust="spacing" textLength="259.8267" x="212.2712" y="657.3167">3. Diagnostic severity is derived from fail-safe context</text><text fill="#000000" font-family="Arial" font-size="11" lengthAdjust="spacing" textLength="313.0649" x="212.2712" y="669.9656">4. Testers and observers see the corresponding diagnostic state</text><!--SRC=[ZLHDRzim3BthLt3jfGLcP-q2j0YG3MrQ0pjqBPOUSw5jnX5gIvua9-r-_IZ5Jkmam9QB4P5yV7py-EHML17K9Kebx9jKDHgi8CNihJ2wKVbCbzh0UH9-FO-SbjYKBj7A_KH6k3CIozFskVn3S7NLCrhwtP3Aw8cinOBkIbaeo4WvCZqlGxRModPUzrJgpPqnUWFED2I4awuaI52MaSKbmQk61uc5qjR93EOE7S6SaR64X4CNwcAc3S5o5p223HebLG4rkXL4t-1XzWJv7iFIcenq7r0tQIapT5AhIo6O7bjbZSh1MS0SWV-4b0krJv1nzVJkpW1ju3bpxopbEBb9xeSWd7UXUeapNLMDQZE2tYWo0SJpEt-yJMuURmy0UgH3uMbZjn5ik6ziwE1uDXj6FQUM39TekG17bkNV1l5xIFCbUHHYEktB-aFLZRCmdGhHLTJgDjbhC9cqmhwmhlwbiGlbhPE95sVEsZpfdALA_OYX-U09M9FmA3km8mIOmi0TliCQouROzteOsi_n_r6d-ZxbEJOSDVzWSQfv-tmHn_6bK9fbDh9OET1BZo5-KSqposFCRUDCCaWbekDI-AtFaVyEXI2LWuS_5F_5Zw5T1VKxxcr_X_p328nuWz3o_8mMolTPPXITckWEodTz0ECCPjIBtcraDzZ_ra0thXLXAsH-IcQsygtfC-xm8rXBArDUyoDQeSQUKe6APi1kqpxxWWxvc4OvoUSgM_c3TnN3mKb0nclR5OMZi9MIQMMhKDzr7CP5QLDXoOVDSc65mPpoKTV3A3NwZRW8j6J5rxZVmPt-qkuKMHfTmT7H4ECONhSx6LZftQvQ8k2ppOvcsv3Sdx33zk-b-Gi0]--></g></svg>