<svg xmlns="http://www.w3.org/2000/svg" xmlns:xlink="http://www.w3.org/1999/xlink" contentStyleType="text/css" height="867px" preserveAspectRatio="none" style="width:915px;height:867px;background:#FFFFFF;" version="1.1" viewBox="0 0 915 867" width="915px" zoomAndPan="magnify"><title>Fail-safe Context To VCU Routing Policy Signal Flow</title><defs/><g><text fill="#000000" font-family="Arial" font-size="22" font-weight="bold" lengthAdjust="spacing" textLength="551.2568" x="180.4585" y="35.9956">Fail-safe Context To VCU Routing Policy Signal Flow</text><text fill="#000000" font-family="Arial" font-size="22" font-weight="bold" lengthAdjust="spacing" textLength="702.249" x="104.9624" y="61.2935">(Core/CoreState context -&gt; VCU routing / vehicle-mode publication)</text><rect fill="#FFFFFF" height="427.0317" style="stroke:#000000;stroke-width:1;" width="10" x="283.7112" y="211.4893"/><line style="stroke:#000000;stroke-width:1;" x1="94" x2="94" y1="116.8936" y2="823.0103"/><line style="stroke:#000000;stroke-width:1;" x1="288.4744" x2="288.4744" y1="116.8936" y2="823.0103"/><line style="stroke:#000000;stroke-width:1;" x1="567.4375" x2="567.4375" y1="116.8936" y2="823.0103"/><line style="stroke:#000000;stroke-width:1;" x1="736.7427" x2="736.7427" y1="116.8936" y2="823.0103"/><rect fill="#F4F7FB" height="39.2979" rx="2.5" ry="2.5" style="stroke:#000000;stroke-width:1;" width="149.4429" x="20" y="76.5957"/><text fill="#000000" font-family="Arial" font-size="11" lengthAdjust="spacing" textLength="82.5376" x="53.4526" y="94.0935">Core / CoreState</text><text fill="#000000" font-family="Arial" font-size="11" lengthAdjust="spacing" textLength="135.4429" x="27" y="106.7424">boundary + fail-safe context</text><rect fill="#F4F7FB" height="39.2979" rx="2.5" ry="2.5" style="stroke:#000000;stroke-width:1;" width="149.4429" x="20" y="822.0103"/><text fill="#000000" font-family="Arial" font-size="11" lengthAdjust="spacing" textLength="82.5376" x="53.4526" y="839.5081">Core / CoreState</text><text fill="#000000" font-family="Arial" font-size="11" lengthAdjust="spacing" textLength="135.4429" x="27" y="852.157">boundary + fail-safe context</text><rect fill="#E8F7E8" height="39.2979" rx="2.5" ry="2.5" style="stroke:#000000;stroke-width:1;" width="156.4736" x="210.4744" y="76.5957"/><text fill="#000000" font-family="Arial" font-size="11" lengthAdjust="spacing" textLength="23.2246" x="277.0989" y="94.0935">VCU</text><text fill="#000000" font-family="Arial" font-size="11" lengthAdjust="spacing" textLength="142.4736" x="217.4744" y="106.7424">routing and powertrain owner</text><rect fill="#E8F7E8" height="39.2979" rx="2.5" ry="2.5" style="stroke:#000000;stroke-width:1;" width="156.4736" x="210.4744" y="822.0103"/><text fill="#000000" font-family="Arial" font-size="11" lengthAdjust="spacing" textLength="23.2246" x="277.0989" y="839.5081">VCU</text><text fill="#000000" font-family="Arial" font-size="11" lengthAdjust="spacing" textLength="142.4736" x="217.4744" y="852.157">routing and powertrain owner</text><rect fill="#FFF4CC" height="26.6489" rx="2.5" ry="2.5" style="stroke:#000000;stroke-width:1;" width="158.3052" x="488.4375" y="89.2446"/><text fill="#000000" font-family="Arial" font-size="11" lengthAdjust="spacing" textLength="144.3052" x="495.4375" y="106.7424">Backbone / vehicle-mode bus</text><rect fill="#FFF4CC" height="26.6489" rx="2.5" ry="2.5" style="stroke:#000000;stroke-width:1;" width="158.3052" x="488.4375" y="822.0103"/><text fill="#000000" font-family="Arial" font-size="11" lengthAdjust="spacing" textLength="144.3052" x="495.4375" y="839.5081">Backbone / vehicle-mode bus</text><rect fill="#FCE8FF" height="39.2979" rx="2.5" ry="2.5" style="stroke:#000000;stroke-width:1;" width="120.3369" x="676.7427" y="76.5957"/><text fill="#000000" font-family="Arial" font-size="11" lengthAdjust="spacing" textLength="106.3369" x="683.7427" y="94.0935">CGW / ADAS / DCM /</text><text fill="#000000" font-family="Arial" font-size="11" lengthAdjust="spacing" textLength="76.4253" x="698.6985" y="106.7424">other observers</text><rect fill="#FCE8FF" height="39.2979" rx="2.5" ry="2.5" style="stroke:#000000;stroke-width:1;" width="120.3369" x="676.7427" y="822.0103"/><text fill="#000000" font-family="Arial" font-size="11" lengthAdjust="spacing" textLength="106.3369" x="683.7427" y="839.5081">CGW / ADAS / DCM /</text><text fill="#000000" font-family="Arial" font-size="11" lengthAdjust="spacing" textLength="76.4253" x="698.6985" y="852.157">other observers</text><rect fill="#FFFFFF" height="427.0317" style="stroke:#000000;stroke-width:1;" width="10" x="283.7112" y="211.4893"/><rect fill="#FFFFFF" height="3" style="stroke:#FFFFFF;stroke-width:1;" width="903.1738" x="5" y="146.218"/><line style="stroke:#000000;stroke-width:0.5;" x1="5" x2="908.1738" y1="146.218" y2="146.218"/><line style="stroke:#000000;stroke-width:0.5;" x1="5" x2="908.1738" y1="149.218" y2="149.218"/><rect fill="#FFFFFF" height="20.6489" style="stroke:#000000;stroke-width:1;" width="94.647" x="409.2634" y="136.8936"/><text fill="#000000" font-family="Arial" font-size="11" font-weight="bold" lengthAdjust="spacing" textLength="77.5908" x="415.2634" y="151.3914">Routing Inputs</text><polygon fill="#000000" points="271.7112,207.4893,281.7112,211.4893,271.7112,215.4893,275.7112,211.4893" style="stroke:#000000;stroke-width:1;"/><line style="stroke:#000000;stroke-width:1;" x1="94.7214" x2="277.7112" y1="211.4893" y2="211.4893"/><text fill="#000000" font-family="Arial" font-size="11" lengthAdjust="spacing" textLength="169.9897" x="104.2214" y="182.0403">CoreState::domainBoundaryStatus</text><text fill="#000000" font-family="Arial" font-size="11" lengthAdjust="spacing" textLength="94.1606" x="142.136" y="194.6892">Core::failSafeMode</text><text fill="#000000" font-family="Arial" font-size="11" lengthAdjust="spacing" textLength="122.2783" x="128.0771" y="207.3381">Core::emergencyContext</text><line style="stroke:#000000;stroke-width:1;" x1="293.7112" x2="335.7112" y1="238.1382" y2="238.1382"/><line style="stroke:#000000;stroke-width:1;" x1="335.7112" x2="335.7112" y1="238.1382" y2="251.1382"/><line style="stroke:#000000;stroke-width:1;" x1="294.7112" x2="335.7112" y1="251.1382" y2="251.1382"/><polygon fill="#000000" points="304.7112,247.1382,294.7112,251.1382,304.7112,255.1382,300.7112,251.1382" style="stroke:#000000;stroke-width:1;"/><text fill="#000000" font-family="Arial" font-size="11" lengthAdjust="spacing" textLength="233.2666" x="300.7112" y="233.9871">boundaryAlive = clamp(domainBoundaryStatus)</text><line style="stroke:#000000;stroke-width:1;" x1="293.7112" x2="335.7112" y1="277.7871" y2="277.7871"/><line style="stroke:#000000;stroke-width:1;" x1="335.7112" x2="335.7112" y1="277.7871" y2="290.7871"/><line style="stroke:#000000;stroke-width:1;" x1="294.7112" x2="335.7112" y1="290.7871" y2="290.7871"/><polygon fill="#000000" points="304.7112,286.7871,294.7112,290.7871,304.7112,294.7871,300.7112,290.7871" style="stroke:#000000;stroke-width:1;"/><text fill="#000000" font-family="Arial" font-size="11" lengthAdjust="spacing" textLength="193.5259" x="300.7112" y="273.636">if failSafeMode &gt; 0 -&gt; RoutingPolicy = 0</text><line style="stroke:#000000;stroke-width:1;" x1="293.7112" x2="335.7112" y1="317.436" y2="317.436"/><line style="stroke:#000000;stroke-width:1;" x1="335.7112" x2="335.7112" y1="317.436" y2="330.436"/><line style="stroke:#000000;stroke-width:1;" x1="294.7112" x2="335.7112" y1="330.436" y2="330.436"/><polygon fill="#000000" points="304.7112,326.436,294.7112,330.436,304.7112,334.436,300.7112,330.436" style="stroke:#000000;stroke-width:1;"/><text fill="#000000" font-family="Arial" font-size="11" lengthAdjust="spacing" textLength="244.8789" x="300.7112" y="313.2849">else if emergencyContext &gt; 0 -&gt; RoutingPolicy = 2</text><line style="stroke:#000000;stroke-width:1;" x1="293.7112" x2="335.7112" y1="357.085" y2="357.085"/><line style="stroke:#000000;stroke-width:1;" x1="335.7112" x2="335.7112" y1="357.085" y2="370.085"/><line style="stroke:#000000;stroke-width:1;" x1="294.7112" x2="335.7112" y1="370.085" y2="370.085"/><polygon fill="#000000" points="304.7112,366.085,294.7112,370.085,304.7112,374.085,300.7112,370.085" style="stroke:#000000;stroke-width:1;"/><text fill="#000000" font-family="Arial" font-size="11" lengthAdjust="spacing" textLength="109.146" x="300.7112" y="352.9338">else RoutingPolicy = 1</text><path d="M298,383.085 L298,456.085 L470,456.085 L470,393.085 L460,383.085 L298,383.085 " fill="#FFFFFF" style="stroke:#000000;stroke-width:1;"/><path d="M460,383.085 L460,393.085 L470,393.085 L460,383.085 " fill="#FFFFFF" style="stroke:#000000;stroke-width:1;"/><text fill="#000000" font-family="Arial" font-size="11" lengthAdjust="spacing" textLength="147.9736" x="304" y="398.5828">Representative derived values</text><text fill="#000000" font-family="Arial" font-size="11" lengthAdjust="spacing" textLength="73.9761" x="304" y="411.2317">- RoutingPolicy</text><text fill="#000000" font-family="Arial" font-size="11" lengthAdjust="spacing" textLength="84.9922" x="304" y="423.8806">- BoundaryStatus</text><text fill="#000000" font-family="Arial" font-size="11" lengthAdjust="spacing" textLength="72.7515" x="304" y="436.5295">- CtrlAuthLevel</text><text fill="#000000" font-family="Arial" font-size="11" lengthAdjust="spacing" textLength="151.6313" x="304" y="449.1785">- VehicleMode.PowertrainState</text><rect fill="#FFFFFF" height="3" style="stroke:#FFFFFF;stroke-width:1;" width="903.1738" x="5" y="480.6541"/><line style="stroke:#000000;stroke-width:0.5;" x1="5" x2="908.1738" y1="480.6541" y2="480.6541"/><line style="stroke:#000000;stroke-width:0.5;" x1="5" x2="908.1738" y1="483.6541" y2="483.6541"/><rect fill="#FFFFFF" height="20.6489" style="stroke:#000000;stroke-width:1;" width="101.377" x="405.8984" y="471.3296"/><text fill="#000000" font-family="Arial" font-size="11" font-weight="bold" lengthAdjust="spacing" textLength="84.3208" x="411.8984" y="485.8274">Routing Publish</text><polygon fill="#000000" points="555.5901,529.2764,565.5901,533.2764,555.5901,537.2764,559.5901,533.2764" style="stroke:#000000;stroke-width:1;"/><line style="stroke:#000000;stroke-width:1;" x1="293.7112" x2="561.5901" y1="533.2764" y2="533.2764"/><text fill="#000000" font-family="Arial" font-size="11" lengthAdjust="spacing" textLength="89.2407" x="386.0303" y="516.4763">frmPtGwStateMsg</text><text fill="#000000" font-family="Arial" font-size="11" lengthAdjust="spacing" textLength="162.0244" x="349.6384" y="529.1252">(RoutingPolicy / BoundaryStatus)</text><polygon fill="#000000" points="555.5901,568.5742,565.5901,572.5742,555.5901,576.5742,559.5901,572.5742" style="stroke:#000000;stroke-width:1;"/><line style="stroke:#000000;stroke-width:1;" x1="293.7112" x2="561.5901" y1="572.5742" y2="572.5742"/><text fill="#000000" font-family="Arial" font-size="11" lengthAdjust="spacing" textLength="100.2568" x="380.5222" y="555.7742">frmVehicleModeMsg</text><text fill="#000000" font-family="Arial" font-size="11" lengthAdjust="spacing" textLength="147.9414" x="356.6799" y="568.4231">(PowertrainState / DriveMode)</text><polygon fill="#000000" points="555.5901,607.8721,565.5901,611.8721,555.5901,615.8721,559.5901,611.8721" style="stroke:#000000;stroke-width:1;"/><line style="stroke:#000000;stroke-width:1;" x1="293.7112" x2="561.5901" y1="611.8721" y2="611.8721"/><text fill="#000000" font-family="Arial" font-size="11" lengthAdjust="spacing" textLength="76.3984" x="392.4514" y="595.072">frmCtrlAuthMsg</text><text fill="#000000" font-family="Arial" font-size="11" lengthAdjust="spacing" textLength="73.3584" x="393.9714" y="607.7209">(CtrlAuthLevel)</text><polygon fill="#000000" points="724.9111,634.521,734.9111,638.521,724.9111,642.521,728.9111,638.521" style="stroke:#000000;stroke-width:1;"/><line style="stroke:#000000;stroke-width:1;" x1="288.7112" x2="730.9111" y1="638.521" y2="638.521"/><text fill="#000000" font-family="Arial" font-size="11" lengthAdjust="spacing" textLength="213.3828" x="406.1198" y="634.3699">backbone vehicle state / powertrain visibility</text><path d="M741,651.521 L741,724.521 L903,724.521 L903,661.521 L893,651.521 L741,651.521 " fill="#FFFFFF" style="stroke:#000000;stroke-width:1;"/><path d="M893,651.521 L893,661.521 L903,661.521 L893,651.521 " fill="#FFFFFF" style="stroke:#000000;stroke-width:1;"/><text fill="#000000" font-family="Arial" font-size="11" lengthAdjust="spacing" textLength="130.8398" x="747" y="667.0188">Representative consumers</text><text fill="#000000" font-family="Arial" font-size="11" lengthAdjust="spacing" textLength="33.6016" x="747" y="679.6677">- CGW</text><text fill="#000000" font-family="Arial" font-size="11" lengthAdjust="spacing" textLength="36.6738" x="747" y="692.3167">- ADAS</text><text fill="#000000" font-family="Arial" font-size="11" lengthAdjust="spacing" textLength="141.1738" x="747" y="704.9656">- DCM / ETHB / IBOX / SGW</text><text fill="#000000" font-family="Arial" font-size="11" lengthAdjust="spacing" textLength="133.2729" x="747" y="717.6145">- powertrain-side observers</text><path d="M19,734.7656 L19,807.7656 L811,807.7656 L811,744.7656 L801,734.7656 L19,734.7656 " fill="#FFFFFF" style="stroke:#000000;stroke-width:1;"/><path d="M801,734.7656 L801,744.7656 L811,744.7656 L801,734.7656 " fill="#FFFFFF" style="stroke:#000000;stroke-width:1;"/><text fill="#000000" font-family="Arial" font-size="11" lengthAdjust="spacing" textLength="143.0752" x="238.4231" y="750.2634">Representative runtime chain</text><text fill="#000000" font-family="Arial" font-size="11" lengthAdjust="spacing" textLength="344.2334" x="238.4231" y="762.9124">1. Boundary status, fail-safe mode, and emergency context reach VCU</text><text fill="#000000" font-family="Arial" font-size="11" lengthAdjust="spacing" textLength="267.1958" x="238.4231" y="775.5613">2. VCU selects the routing policy and control-auth level</text><text fill="#000000" font-family="Arial" font-size="11" lengthAdjust="spacing" textLength="286.752" x="238.4231" y="788.2102">3. VCU publishes gateway state and vehicle-mode visibility</text><text fill="#000000" font-family="Arial" font-size="11" lengthAdjust="spacing" textLength="322.2334" x="238.4231" y="800.8591">4. Gateway, ADAS, and diagnostics consume the routing outcome</text><!--SRC=[TLHDJzj04BtxLqpX0ce-W2A18WKfCJYjr9I8KEWXbxKzSLPiTjtTTTBqrtTsxHWx3JvuvVMy-NZpPZxP5QuHSi6u3CmRbpdJR0qnIzuohGgPXaee3QUHVneMAIvP8MoafFt1oCD8SoQE_v_plmYNbusV1dyNA1ESeZ4imv7WcOG4fKNTiD9eSYNDtcgCGcr7MgijM5rW45Xk1KB4kEWQjaG8AHR-iV2iu2Ny2K-gi5ncC5E29pkOKmmc828d2taMAerzzvfRPX6I2jgzyr1TGVkmmHLF17RNAYMMYfXSCSkLF0y2IjBoXETCMZXnhiYyzhYGiMEFwHryXcMTOXNd19ZnjaJiTNGJZTlEA8M5tEV0P0gvsgAscde4QYjHUxnBzFJXDhfvk6t3nzIyM4ayJ3ykZ0UE2-CRUXs61qLCNWapkX_DwRWFfz1VI4K2qQ1YWtg3kdJm63i78SMEWc0uh9d-9lF26XWEWy0NLx4vUATbC4ZLcieOL-Iuoy8if3CO31nFSw9fIjdkxqYTEYEjxAhk1YonVEDwHgu3vxwEicUSvBH1648Ys3e_EnRml0taIsY6XZkuS3-hiYhz3E6YZK9Xq44FC_m8VdK4VcXp6H3X29fdAmjgwMjymfmcWOQ3X4TrfQZfI673H84cwBPzq7UxLBe8hHQZmgw-umO5VR-Ked2bzcQridn_0YIrkHHQVPqvtPkLRsnLWzFG09PwFREJhOTEJKPprIwe3n_mNiCRkPGE3X9oGdJrEeF_qVlAIcYhpjhOYNNW5vgVYMeYm5JU6wEruOR7N72xE-W2kJZi0WsoAQZndj_9AxtTsD3XnmOUdh-EwVWsVln5nzmRl4Vg6auggsVgdVGKM-ekqr1auoUeSomHNKZBQVycAxV1Btiruxx2mdGQsyTjWOvVABLcwysdAVJAHxtgUOKQ59ZGDDFyr_imBzlgF3YSLgBBY70GNbbVIc1UgWKDP5J8bkqghXsgjOyQV5_tO58QTpoHPPOfPvbKXXQKsHFUIeUEHAqRelq7]--></g></svg>