<svg xmlns="http://www.w3.org/2000/svg" xmlns:xlink="http://www.w3.org/1999/xlink" contentStyleType="text/css" height="771px" preserveAspectRatio="none" style="width:879px;height:771px;background:#FFFFFF;" version="1.1" viewBox="0 0 879 771" width="879px" zoomAndPan="magnify"><title>Gear Input To TCU Shift Slip Signal Flow</title><defs/><g><text fill="#000000" font-family="Arial" font-size="22" font-weight="bold" lengthAdjust="spacing" textLength="424.1016" x="226.1625" y="35.9956">Gear Input To TCU Shift Slip Signal Flow</text><text fill="#000000" font-family="Arial" font-size="22" font-weight="bold" lengthAdjust="spacing" textLength="657.6045" x="109.411" y="61.2935">(gear input + mode/speed context -&gt; TCU shift-slip publication)</text><rect fill="#FFFFFF" height="348.436" style="stroke:#000000;stroke-width:1;" width="10" x="535.3899" y="277.436"/><line style="stroke:#000000;stroke-width:1;" x1="81" x2="81" y1="116.8936" y2="727.1167"/><line style="stroke:#000000;stroke-width:1;" x1="249.2275" x2="249.2275" y1="116.8936" y2="727.1167"/><line style="stroke:#000000;stroke-width:1;" x1="396.8428" x2="396.8428" y1="116.8936" y2="727.1167"/><line style="stroke:#000000;stroke-width:1;" x1="540.0115" x2="540.0115" y1="116.8936" y2="727.1167"/><line style="stroke:#000000;stroke-width:1;" x1="791.6697" x2="791.6697" y1="116.8936" y2="727.1167"/><rect fill="#E8F0FE" height="39.2979" rx="2.5" ry="2.5" style="stroke:#000000;stroke-width:1;" width="122.2275" x="20" y="76.5957"/><text fill="#000000" font-family="Arial" font-size="11" lengthAdjust="spacing" textLength="60.5269" x="50.8503" y="94.0935">Gear source</text><text fill="#000000" font-family="Arial" font-size="11" lengthAdjust="spacing" textLength="108.2275" x="27" y="106.7424">GearInput / GearState</text><rect fill="#E8F0FE" height="39.2979" rx="2.5" ry="2.5" style="stroke:#000000;stroke-width:1;" width="122.2275" x="20" y="726.1167"/><text fill="#000000" font-family="Arial" font-size="11" lengthAdjust="spacing" textLength="60.5269" x="50.8503" y="743.6145">Gear source</text><text fill="#000000" font-family="Arial" font-size="11" lengthAdjust="spacing" textLength="108.2275" x="27" y="756.2634">GearInput / GearState</text><rect fill="#E8F7E8" height="39.2979" rx="2.5" ry="2.5" style="stroke:#000000;stroke-width:1;" width="154.6152" x="172.2275" y="76.5957"/><text fill="#000000" font-family="Arial" font-size="11" lengthAdjust="spacing" textLength="23.2246" x="237.9229" y="94.0935">VCU</text><text fill="#000000" font-family="Arial" font-size="11" lengthAdjust="spacing" textLength="140.6152" x="179.2275" y="106.7424">DriveMode / PowertrainState</text><rect fill="#E8F7E8" height="39.2979" rx="2.5" ry="2.5" style="stroke:#000000;stroke-width:1;" width="154.6152" x="172.2275" y="726.1167"/><text fill="#000000" font-family="Arial" font-size="11" lengthAdjust="spacing" textLength="23.2246" x="237.9229" y="743.6145">VCU</text><text fill="#000000" font-family="Arial" font-size="11" lengthAdjust="spacing" textLength="140.6152" x="179.2275" y="756.2634">DriveMode / PowertrainState</text><rect fill="#F4F7FB" height="39.2979" rx="2.5" ry="2.5" style="stroke:#000000;stroke-width:1;" width="81.8853" x="356.8428" y="76.5957"/><text fill="#000000" font-family="Arial" font-size="11" lengthAdjust="spacing" textLength="62.9814" x="366.2947" y="94.0935">Vehicle state</text><text fill="#000000" font-family="Arial" font-size="11" lengthAdjust="spacing" textLength="67.8853" x="363.8428" y="106.7424">VehicleSpeed</text><rect fill="#F4F7FB" height="39.2979" rx="2.5" ry="2.5" style="stroke:#000000;stroke-width:1;" width="81.8853" x="356.8428" y="726.1167"/><text fill="#000000" font-family="Arial" font-size="11" lengthAdjust="spacing" textLength="62.9814" x="366.2947" y="743.6145">Vehicle state</text><text fill="#000000" font-family="Arial" font-size="11" lengthAdjust="spacing" textLength="67.8853" x="363.8428" y="756.2634">VehicleSpeed</text><rect fill="#FFF4CC" height="39.2979" rx="2.5" ry="2.5" style="stroke:#000000;stroke-width:1;" width="108.7568" x="486.0115" y="76.5957"/><text fill="#000000" font-family="Arial" font-size="11" lengthAdjust="spacing" textLength="22.6069" x="529.0864" y="94.0935">TCU</text><text fill="#000000" font-family="Arial" font-size="11" lengthAdjust="spacing" textLength="94.7568" x="493.0115" y="106.7424">transmission owner</text><rect fill="#FFF4CC" height="39.2979" rx="2.5" ry="2.5" style="stroke:#000000;stroke-width:1;" width="108.7568" x="486.0115" y="726.1167"/><text fill="#000000" font-family="Arial" font-size="11" lengthAdjust="spacing" textLength="22.6069" x="529.0864" y="743.6145">TCU</text><text fill="#000000" font-family="Arial" font-size="11" lengthAdjust="spacing" textLength="94.7568" x="493.0115" y="756.2634">transmission owner</text><rect fill="#FCE8FF" height="26.6489" rx="2.5" ry="2.5" style="stroke:#000000;stroke-width:1;" width="130.7568" x="726.6697" y="89.2446"/><text fill="#000000" font-family="Arial" font-size="11" lengthAdjust="spacing" textLength="116.7568" x="733.6697" y="106.7424">Transmission observers</text><rect fill="#FCE8FF" height="26.6489" rx="2.5" ry="2.5" style="stroke:#000000;stroke-width:1;" width="130.7568" x="726.6697" y="726.1167"/><text fill="#000000" font-family="Arial" font-size="11" lengthAdjust="spacing" textLength="116.7568" x="733.6697" y="743.6145">Transmission observers</text><rect fill="#FFFFFF" height="348.436" style="stroke:#000000;stroke-width:1;" width="10" x="535.3899" y="277.436"/><rect fill="#FFFFFF" height="3" style="stroke:#FFFFFF;stroke-width:1;" width="867.4265" x="5" y="146.218"/><line style="stroke:#000000;stroke-width:0.5;" x1="5" x2="872.4265" y1="146.218" y2="146.218"/><line style="stroke:#000000;stroke-width:0.5;" x1="5" x2="872.4265" y1="149.218" y2="149.218"/><rect fill="#FFFFFF" height="20.6489" style="stroke:#000000;stroke-width:1;" width="101.377" x="388.0248" y="136.8936"/><text fill="#000000" font-family="Arial" font-size="11" font-weight="bold" lengthAdjust="spacing" textLength="84.3208" x="394.0248" y="151.3914">Shift-Slip Inputs</text><polygon fill="#000000" points="528.3899,194.8403,538.3899,198.8403,528.3899,202.8403,532.3899,198.8403" style="stroke:#000000;stroke-width:1;"/><line style="stroke:#000000;stroke-width:1;" x1="81.1138" x2="534.3899" y1="198.8403" y2="198.8403"/><text fill="#000000" font-family="Arial" font-size="11" lengthAdjust="spacing" textLength="86.8022" x="267.3507" y="182.0403">frmGearStateMsg</text><text fill="#000000" font-family="Arial" font-size="11" lengthAdjust="spacing" textLength="108.2275" x="256.6381" y="194.6892">GearInput / GearState</text><polygon fill="#000000" points="528.3899,234.1382,538.3899,238.1382,528.3899,242.1382,532.3899,238.1382" style="stroke:#000000;stroke-width:1;"/><line style="stroke:#000000;stroke-width:1;" x1="249.5352" x2="534.3899" y1="238.1382" y2="238.1382"/><text fill="#000000" font-family="Arial" font-size="11" lengthAdjust="spacing" textLength="100.2568" x="344.8341" y="221.3381">frmVehicleModeMsg</text><text fill="#000000" font-family="Arial" font-size="11" lengthAdjust="spacing" textLength="140.6152" x="324.6549" y="233.9871">DriveMode / PowertrainState</text><polygon fill="#000000" points="523.3899,273.436,533.3899,277.436,523.3899,281.436,527.3899,277.436" style="stroke:#000000;stroke-width:1;"/><line style="stroke:#000000;stroke-width:1;" x1="397.7854" x2="529.3899" y1="277.436" y2="277.436"/><text fill="#000000" font-family="Arial" font-size="11" lengthAdjust="spacing" textLength="118.6045" x="407.2854" y="260.636">frmVehicleStateCanMsg</text><text fill="#000000" font-family="Arial" font-size="11" lengthAdjust="spacing" textLength="67.8853" x="432.645" y="273.2849">VehicleSpeed</text><line style="stroke:#000000;stroke-width:1;" x1="545.3899" x2="587.3899" y1="304.085" y2="304.085"/><line style="stroke:#000000;stroke-width:1;" x1="587.3899" x2="587.3899" y1="304.085" y2="317.085"/><line style="stroke:#000000;stroke-width:1;" x1="546.3899" x2="587.3899" y1="317.085" y2="317.085"/><polygon fill="#000000" points="556.3899,313.085,546.3899,317.085,556.3899,321.085,552.3899,317.085" style="stroke:#000000;stroke-width:1;"/><text fill="#000000" font-family="Arial" font-size="11" lengthAdjust="spacing" textLength="106.3853" x="552.3899" y="299.9338">normalize stale inputs</text><line style="stroke:#000000;stroke-width:1;" x1="545.3899" x2="587.3899" y1="356.3828" y2="356.3828"/><line style="stroke:#000000;stroke-width:1;" x1="587.3899" x2="587.3899" y1="356.3828" y2="369.3828"/><line style="stroke:#000000;stroke-width:1;" x1="546.3899" x2="587.3899" y1="369.3828" y2="369.3828"/><polygon fill="#000000" points="556.3899,365.3828,546.3899,369.3828,556.3899,373.3828,552.3899,369.3828" style="stroke:#000000;stroke-width:1;"/><text fill="#000000" font-family="Arial" font-size="11" lengthAdjust="spacing" textLength="141.2544" x="552.3899" y="339.5828">detect gear transition against</text><text fill="#000000" font-family="Arial" font-size="11" lengthAdjust="spacing" textLength="69.0938" x="588.4702" y="352.2317">last gear state</text><line style="stroke:#000000;stroke-width:1;" x1="545.3899" x2="587.3899" y1="396.0317" y2="396.0317"/><line style="stroke:#000000;stroke-width:1;" x1="587.3899" x2="587.3899" y1="396.0317" y2="409.0317"/><line style="stroke:#000000;stroke-width:1;" x1="546.3899" x2="587.3899" y1="409.0317" y2="409.0317"/><polygon fill="#000000" points="556.3899,405.0317,546.3899,409.0317,556.3899,413.0317,552.3899,409.0317" style="stroke:#000000;stroke-width:1;"/><text fill="#000000" font-family="Arial" font-size="11" lengthAdjust="spacing" textLength="217.6582" x="552.3899" y="391.8806">derive ShiftState / ShiftTargetGear / ShiftSlip</text><line style="stroke:#000000;stroke-width:1;" x1="545.3899" x2="587.3899" y1="435.6807" y2="435.6807"/><line style="stroke:#000000;stroke-width:1;" x1="587.3899" x2="587.3899" y1="435.6807" y2="448.6807"/><line style="stroke:#000000;stroke-width:1;" x1="546.3899" x2="587.3899" y1="448.6807" y2="448.6807"/><polygon fill="#000000" points="556.3899,444.6807,546.3899,448.6807,556.3899,452.6807,552.3899,448.6807" style="stroke:#000000;stroke-width:1;"/><text fill="#000000" font-family="Arial" font-size="11" lengthAdjust="spacing" textLength="213.4097" x="552.3899" y="431.5295">update ShiftCounter and clutch temperature</text><path d="M550,461.6807 L550,534.6807 L684,534.6807 L684,471.6807 L674,461.6807 L550,461.6807 " fill="#FFFFFF" style="stroke:#000000;stroke-width:1;"/><path d="M674,461.6807 L674,471.6807 L684,471.6807 L674,461.6807 " fill="#FFFFFF" style="stroke:#000000;stroke-width:1;"/><text fill="#000000" font-family="Arial" font-size="11" lengthAdjust="spacing" textLength="113.126" x="556" y="477.1785">Representative outputs</text><text fill="#000000" font-family="Arial" font-size="11" lengthAdjust="spacing" textLength="54.4146" x="556" y="489.8274">- ShiftState</text><text fill="#000000" font-family="Arial" font-size="11" lengthAdjust="spacing" textLength="84.9761" x="556" y="502.4763">- ShiftTargetGear</text><text fill="#000000" font-family="Arial" font-size="11" lengthAdjust="spacing" textLength="47.0723" x="556" y="515.1252">- ShiftSlip</text><text fill="#000000" font-family="Arial" font-size="11" lengthAdjust="spacing" textLength="66.0161" x="556" y="527.7742">- ClutchTemp</text><rect fill="#FFFFFF" height="3" style="stroke:#FFFFFF;stroke-width:1;" width="867.4265" x="5" y="559.2498"/><line style="stroke:#000000;stroke-width:0.5;" x1="5" x2="872.4265" y1="559.2498" y2="559.2498"/><line style="stroke:#000000;stroke-width:0.5;" x1="5" x2="872.4265" y1="562.2498" y2="562.2498"/><rect fill="#FFFFFF" height="20.6489" style="stroke:#000000;stroke-width:1;" width="84.2754" x="396.5756" y="549.9253"/><text fill="#000000" font-family="Arial" font-size="11" font-weight="bold" lengthAdjust="spacing" textLength="67.2192" x="402.5756" y="564.4231">Shift Publish</text><polygon fill="#000000" points="780.0481,595.2231,790.0481,599.2231,780.0481,603.2231,784.0481,599.2231" style="stroke:#000000;stroke-width:1;"/><line style="stroke:#000000;stroke-width:1;" x1="545.3899" x2="786.0481" y1="599.2231" y2="599.2231"/><text fill="#000000" font-family="Arial" font-size="11" lengthAdjust="spacing" textLength="112.4761" x="612.481" y="595.072">frmTransShiftStateMsg</text><polygon fill="#000000" points="780.0481,621.8721,790.0481,625.8721,780.0481,629.8721,784.0481,625.8721" style="stroke:#000000;stroke-width:1;"/><line style="stroke:#000000;stroke-width:1;" x1="540.3899" x2="786.0481" y1="625.8721" y2="625.8721"/><text fill="#000000" font-family="Arial" font-size="11" lengthAdjust="spacing" textLength="130.1846" x="601.1267" y="621.7209">frmTransmissionTempMsg</text><path d="M10,638.8721 L10,711.8721 L862,711.8721 L862,648.8721 L852,638.8721 L10,638.8721 " fill="#FFFFFF" style="stroke:#000000;stroke-width:1;"/><path d="M852,638.8721 L852,648.8721 L862,648.8721 L852,638.8721 " fill="#FFFFFF" style="stroke:#000000;stroke-width:1;"/><text fill="#000000" font-family="Arial" font-size="11" lengthAdjust="spacing" textLength="143.0752" x="286.205" y="654.3699">Representative runtime chain</text><text fill="#000000" font-family="Arial" font-size="11" lengthAdjust="spacing" textLength="170.5913" x="286.205" y="667.0188">1. Gear input change reaches TCU</text><text fill="#000000" font-family="Arial" font-size="11" lengthAdjust="spacing" textLength="267.1797" x="286.205" y="679.6677">2. TCU combines it with drive-mode and speed context</text><text fill="#000000" font-family="Arial" font-size="11" lengthAdjust="spacing" textLength="291.0166" x="286.205" y="692.3167">3. TCU detects active shift transition and computes shift slip</text><text fill="#000000" font-family="Arial" font-size="11" lengthAdjust="spacing" textLength="269.5967" x="286.205" y="704.9656">4. Transmission observers verify shift-state progression</text><!--SRC=[VLJ1RjD04BtlLmpj1GHfALHgXHIarjI8Gw4YAQTSDlR4NjNUDRlZ1lXwPiPf4qU172AjPzxEcpTlvmNLs29qZNNUf0VdEnjj2qjRF5GnzBxCGXCY7EVwsyaeSMNxXlBWwQlb6wwYiytX-CpzGJWxsmac_DcZB_0MKx8LNZMkyb2W9umxMH5J5tnwohh69golOWnheDYZCUIeGVYCDi8Nt_K4ym3px1vcjLiHp1hNmOmljWtaZ5pubvMaEarz3MqeyJHrY2KKJ19_4Km-AZu9Vf84t_NBnXMMNF2lZ65Qv0hNMKzmf7LJw6E12o-7WSEf4fgH9Jm2cmPwnpUN-TlyPdp1Z-n-uJz5zuYtJ8M1Ts6DaI9FOWld94LVt5pkeR5s1RUV97NXDyUPz3C0iUQfdUSN-VKOE9UoNCMdrgN4ZK5OUumAakvbrETPjWSQvIyJnaUCIJ7Vbean6NFCZPbE1_Kdghugac0wDKPbsEZx0LQnVLRfDbN_qCz8yxkOJPCYbwB-8vwH_WzWDPXPh_XTqOmjo3roK21clblPXzZQHapCOhFawg0qpYcHi21GXwcuJZm3jc92YHQ-iMaJrO7jWwMHGJaboFteOMvZXQJQRRw8hcDmtvM2q6Z6BvRV45ZFfcvwAceWR3kCblg8nWTEZAwg2S9A-_oE7RyoVdXiSMOGUjBM9ZjSdWvRBizXuJA1J0lDkOv1hYj5jaQ0Etb1gLOJR7YBOtGcwgfj9Px9uPIDyQI4v9GucjNGLc13gdNU27Y_iSYwEDvIHIrxxknaU9R3Ak1llk8KlhL6VGFctOcAMuHswJn_SmHhHpMKCgU9R0wLUBGzpFi1D3WXWNB4OPcCB26p2IrNvek7gAmQSyxmWwyC-C-jVZ-j9VL75qF5_KdYLlI_]--></g></svg>