<svg xmlns="http://www.w3.org/2000/svg" xmlns:xlink="http://www.w3.org/1999/xlink" contentStyleType="text/css" height="881px" preserveAspectRatio="none" style="width:732px;height:881px;background:#FFFFFF;" version="1.1" viewBox="0 0 732 881" width="732px" zoomAndPan="magnify"><title>HVAC Stale Input To Comfort Error Signal Flow</title><defs/><g><text fill="#000000" font-family="Arial" font-size="22" font-weight="bold" lengthAdjust="spacing" textLength="493.7861" x="117.7168" y="35.9956">HVAC Stale Input To Comfort Error Signal Flow</text><text fill="#000000" font-family="Arial" font-size="22" font-weight="bold" lengthAdjust="spacing" textLength="699.2197" x="15" y="61.2935">(TMU/HVAC/vehicle freshness -&gt; BCM -&gt; comfort error publication)</text><line style="stroke:#000000;stroke-width:1;" x1="105.9001" x2="105.9001" y1="116.8936" y2="837.3613"/><line style="stroke:#000000;stroke-width:1;" x1="226.887" x2="226.887" y1="116.8936" y2="837.3613"/><line style="stroke:#000000;stroke-width:1;" x1="480.0759" x2="480.0759" y1="116.8936" y2="837.3613"/><line style="stroke:#000000;stroke-width:1;" x1="616.8889" x2="616.8889" y1="116.8936" y2="837.3613"/><rect fill="#F4F7FB" height="39.2979" rx="2.5" ry="2.5" style="stroke:#000000;stroke-width:1;" width="98.9868" x="56.9001" y="76.5957"/><text fill="#000000" font-family="Arial" font-size="11" lengthAdjust="spacing" textLength="69.6685" x="71.5593" y="94.0935">TMU / HVAC /</text><text fill="#000000" font-family="Arial" font-size="11" lengthAdjust="spacing" textLength="84.9868" x="63.9001" y="106.7424">vehicle freshness</text><rect fill="#F4F7FB" height="39.2979" rx="2.5" ry="2.5" style="stroke:#000000;stroke-width:1;" width="98.9868" x="56.9001" y="836.3613"/><text fill="#000000" font-family="Arial" font-size="11" lengthAdjust="spacing" textLength="69.6685" x="71.5593" y="853.8591">TMU / HVAC /</text><text fill="#000000" font-family="Arial" font-size="11" lengthAdjust="spacing" textLength="84.9868" x="63.9001" y="866.5081">vehicle freshness</text><rect fill="#E8F7E8" height="39.2979" rx="2.5" ry="2.5" style="stroke:#000000;stroke-width:1;" width="83.6899" x="185.887" y="76.5957"/><text fill="#000000" font-family="Arial" font-size="11" lengthAdjust="spacing" textLength="24.4438" x="215.51" y="94.0935">BCM</text><text fill="#000000" font-family="Arial" font-size="11" lengthAdjust="spacing" textLength="69.6899" x="192.887" y="106.7424">comfort owner</text><rect fill="#E8F7E8" height="39.2979" rx="2.5" ry="2.5" style="stroke:#000000;stroke-width:1;" width="83.6899" x="185.887" y="836.3613"/><text fill="#000000" font-family="Arial" font-size="11" lengthAdjust="spacing" textLength="24.4438" x="215.51" y="853.8591">BCM</text><text fill="#000000" font-family="Arial" font-size="11" lengthAdjust="spacing" textLength="69.6899" x="192.887" y="866.5081">comfort owner</text><rect fill="#FFF4CC" height="26.6489" rx="2.5" ry="2.5" style="stroke:#000000;stroke-width:1;" width="100.813" x="430.0759" y="89.2446"/><text fill="#000000" font-family="Arial" font-size="11" lengthAdjust="spacing" textLength="86.813" x="437.0759" y="106.7424">Comfort state bus</text><rect fill="#FFF4CC" height="26.6489" rx="2.5" ry="2.5" style="stroke:#000000;stroke-width:1;" width="100.813" x="430.0759" y="836.3613"/><text fill="#000000" font-family="Arial" font-size="11" lengthAdjust="spacing" textLength="86.813" x="437.0759" y="853.8591">Comfort state bus</text><rect fill="#E8F0FE" height="39.2979" rx="2.5" ry="2.5" style="stroke:#000000;stroke-width:1;" width="112.4307" x="560.8889" y="76.5957"/><text fill="#000000" font-family="Arial" font-size="11" lengthAdjust="spacing" textLength="98.4307" x="567.8889" y="94.0935">Observers / panels /</text><text fill="#000000" font-family="Arial" font-size="11" lengthAdjust="spacing" textLength="44.0322" x="595.0881" y="106.7424">evidence</text><rect fill="#E8F0FE" height="39.2979" rx="2.5" ry="2.5" style="stroke:#000000;stroke-width:1;" width="112.4307" x="560.8889" y="836.3613"/><text fill="#000000" font-family="Arial" font-size="11" lengthAdjust="spacing" textLength="98.4307" x="567.8889" y="853.8591">Observers / panels /</text><text fill="#000000" font-family="Arial" font-size="11" lengthAdjust="spacing" textLength="44.0322" x="595.0881" y="866.5081">evidence</text><rect fill="#FFFFFF" height="3" style="stroke:#FFFFFF;stroke-width:1;" width="646.4194" x="41.9001" y="146.218"/><line style="stroke:#000000;stroke-width:0.5;" x1="41.9001" x2="688.3196" y1="146.218" y2="146.218"/><line style="stroke:#000000;stroke-width:0.5;" x1="41.9001" x2="688.3196" y1="149.218" y2="149.218"/><rect fill="#FFFFFF" height="20.6489" style="stroke:#000000;stroke-width:1;" width="108.1553" x="311.0322" y="136.8936"/><text fill="#000000" font-family="Arial" font-size="11" font-weight="bold" lengthAdjust="spacing" textLength="91.0991" x="317.0322" y="151.3914">Freshness Check</text><polygon fill="#000000" points="215.7319,207.4893,225.7319,211.4893,215.7319,215.4893,219.7319,211.4893" style="stroke:#000000;stroke-width:1;"/><line style="stroke:#000000;stroke-width:1;" x1="106.3936" x2="221.7319" y1="211.4893" y2="211.4893"/><text fill="#000000" font-family="Arial" font-size="11" lengthAdjust="spacing" textLength="92.9038" x="120.6108" y="182.0403">gTmuServiceRxMs</text><text fill="#000000" font-family="Arial" font-size="11" lengthAdjust="spacing" textLength="84.9707" x="124.5774" y="194.6892">gHvacStateRxMs</text><text fill="#000000" font-family="Arial" font-size="11" lengthAdjust="spacing" textLength="70.3022" x="131.9116" y="207.3381">gVehicleRxMs</text><line style="stroke:#000000;stroke-width:1;" x1="227.7319" x2="269.7319" y1="238.1382" y2="238.1382"/><line style="stroke:#000000;stroke-width:1;" x1="269.7319" x2="269.7319" y1="238.1382" y2="251.1382"/><line style="stroke:#000000;stroke-width:1;" x1="228.7319" x2="269.7319" y1="251.1382" y2="251.1382"/><polygon fill="#000000" points="238.7319,247.1382,228.7319,251.1382,238.7319,255.1382,234.7319,251.1382" style="stroke:#000000;stroke-width:1;"/><text fill="#000000" font-family="Arial" font-size="11" lengthAdjust="spacing" textLength="195.9321" x="234.7319" y="233.9871">tmuInputStale = recentTick(TMU) ? 0 : 1</text><line style="stroke:#000000;stroke-width:1;" x1="227.7319" x2="269.7319" y1="277.7871" y2="277.7871"/><line style="stroke:#000000;stroke-width:1;" x1="269.7319" x2="269.7319" y1="277.7871" y2="290.7871"/><line style="stroke:#000000;stroke-width:1;" x1="228.7319" x2="269.7319" y1="290.7871" y2="290.7871"/><polygon fill="#000000" points="238.7319,286.7871,228.7319,290.7871,238.7319,294.7871,234.7319,290.7871" style="stroke:#000000;stroke-width:1;"/><text fill="#000000" font-family="Arial" font-size="11" lengthAdjust="spacing" textLength="207.5659" x="234.7319" y="273.636">hvacInputStale = recentTick(HVAC) ? 0 : 1</text><line style="stroke:#000000;stroke-width:1;" x1="227.7319" x2="269.7319" y1="317.436" y2="317.436"/><line style="stroke:#000000;stroke-width:1;" x1="269.7319" x2="269.7319" y1="317.436" y2="330.436"/><line style="stroke:#000000;stroke-width:1;" x1="228.7319" x2="269.7319" y1="330.436" y2="330.436"/><polygon fill="#000000" points="238.7319,326.436,228.7319,330.436,238.7319,334.436,234.7319,330.436" style="stroke:#000000;stroke-width:1;"/><text fill="#000000" font-family="Arial" font-size="11" lengthAdjust="spacing" textLength="238.7505" x="234.7319" y="313.2849">vehicleCtxInputStale = recentTick(vehicle) ? 0 : 1</text><path d="M231.9001,343.436 L231.9001,403.436 L406.9001,403.436 L406.9001,353.436 L396.9001,343.436 L231.9001,343.436 " fill="#FFFFFF" style="stroke:#000000;stroke-width:1;"/><path d="M396.9001,343.436 L396.9001,353.436 L406.9001,353.436 L396.9001,343.436 " fill="#FFFFFF" style="stroke:#000000;stroke-width:1;"/><text fill="#000000" font-family="Arial" font-size="11" lengthAdjust="spacing" textLength="154.6982" x="237.9001" y="358.9338">Representative freshness gates</text><text fill="#000000" font-family="Arial" font-size="11" lengthAdjust="spacing" textLength="74.5938" x="237.9001" y="371.5828">- tmuInputStale</text><text fill="#000000" font-family="Arial" font-size="11" lengthAdjust="spacing" textLength="79.4922" x="237.9001" y="384.2317">- hvacInputStale</text><text fill="#000000" font-family="Arial" font-size="11" lengthAdjust="spacing" textLength="106.9976" x="237.9001" y="396.8806">- vehicleCtxInputStale</text><rect fill="#FFFFFF" height="3" style="stroke:#FFFFFF;stroke-width:1;" width="646.4194" x="41.9001" y="428.3562"/><line style="stroke:#000000;stroke-width:0.5;" x1="41.9001" x2="688.3196" y1="428.3562" y2="428.3562"/><line style="stroke:#000000;stroke-width:0.5;" x1="41.9001" x2="688.3196" y1="431.3562" y2="431.3562"/><rect fill="#FFFFFF" height="20.6489" style="stroke:#000000;stroke-width:1;" width="149.6792" x="290.2703" y="419.0317"/><text fill="#000000" font-family="Arial" font-size="11" font-weight="bold" lengthAdjust="spacing" textLength="132.623" x="296.2703" y="433.5295">Comfort Error Ownership</text><line style="stroke:#000000;stroke-width:1;" x1="227.7319" x2="269.7319" y1="480.9785" y2="480.9785"/><line style="stroke:#000000;stroke-width:1;" x1="269.7319" x2="269.7319" y1="480.9785" y2="493.9785"/><line style="stroke:#000000;stroke-width:1;" x1="228.7319" x2="269.7319" y1="493.9785" y2="493.9785"/><polygon fill="#000000" points="238.7319,489.9785,228.7319,493.9785,238.7319,497.9785,234.7319,493.9785" style="stroke:#000000;stroke-width:1;"/><text fill="#000000" font-family="Arial" font-size="11" lengthAdjust="spacing" textLength="122.2837" x="234.7319" y="464.1785">if any stale input is active</text><text fill="#000000" font-family="Arial" font-size="11" lengthAdjust="spacing" textLength="104.2368" x="243.7554" y="476.8274">then comfortError = 1</text><line style="stroke:#000000;stroke-width:1;" x1="227.7319" x2="269.7319" y1="533.2764" y2="533.2764"/><line style="stroke:#000000;stroke-width:1;" x1="269.7319" x2="269.7319" y1="533.2764" y2="546.2764"/><line style="stroke:#000000;stroke-width:1;" x1="228.7319" x2="269.7319" y1="546.2764" y2="546.2764"/><polygon fill="#000000" points="238.7319,542.2764,228.7319,546.2764,238.7319,550.2764,234.7319,546.2764" style="stroke:#000000;stroke-width:1;"/><text fill="#000000" font-family="Arial" font-size="11" lengthAdjust="spacing" textLength="147.3613" x="234.7319" y="516.4763">if vehicle/door/seat detail stale</text><text fill="#000000" font-family="Arial" font-size="11" lengthAdjust="spacing" textLength="110.9722" x="252.9265" y="529.1252">then comfortProfile = 0</text><polygon fill="#000000" points="468.4824,581.5742,478.4824,585.5742,468.4824,589.5742,472.4824,585.5742" style="stroke:#000000;stroke-width:1;"/><line style="stroke:#000000;stroke-width:1;" x1="227.7319" x2="474.4824" y1="585.5742" y2="585.5742"/><text fill="#000000" font-family="Arial" font-size="11" lengthAdjust="spacing" textLength="126.5376" x="290.8384" y="568.7742">frmBodyComfortStateMsg</text><text fill="#000000" font-family="Arial" font-size="11" lengthAdjust="spacing" textLength="222.4976" x="242.8584" y="581.4231">ComfortProfile / ComfortStatus / ComfortError</text><path d="M231.9001,598.5742 L231.9001,658.5742 L365.9001,658.5742 L365.9001,608.5742 L355.9001,598.5742 L231.9001,598.5742 " fill="#FFFFFF" style="stroke:#000000;stroke-width:1;"/><path d="M355.9001,598.5742 L355.9001,608.5742 L365.9001,608.5742 L355.9001,598.5742 " fill="#FFFFFF" style="stroke:#000000;stroke-width:1;"/><text fill="#000000" font-family="Arial" font-size="11" lengthAdjust="spacing" textLength="113.126" x="237.9001" y="614.072">Representative outputs</text><text fill="#000000" font-family="Arial" font-size="11" lengthAdjust="spacing" textLength="77.0161" x="237.9001" y="626.7209">- ComfortProfile</text><text fill="#000000" font-family="Arial" font-size="11" lengthAdjust="spacing" textLength="77.0215" x="237.9001" y="639.3699">- ComfortStatus</text><text fill="#000000" font-family="Arial" font-size="11" lengthAdjust="spacing" textLength="70.2808" x="237.9001" y="652.0188">- ComfortError</text><rect fill="#FFFFFF" height="3" style="stroke:#FFFFFF;stroke-width:1;" width="646.4194" x="41.9001" y="683.4944"/><line style="stroke:#000000;stroke-width:0.5;" x1="41.9001" x2="688.3196" y1="683.4944" y2="683.4944"/><line style="stroke:#000000;stroke-width:0.5;" x1="41.9001" x2="688.3196" y1="686.4944" y2="686.4944"/><rect fill="#FFFFFF" height="20.6489" style="stroke:#000000;stroke-width:1;" width="131.3638" x="299.428" y="674.1699"/><text fill="#000000" font-family="Arial" font-size="11" font-weight="bold" lengthAdjust="spacing" textLength="114.3076" x="305.428" y="688.6677">Downstream Visibility</text><polygon fill="#000000" points="605.1042,732.1167,615.1042,736.1167,605.1042,740.1167,609.1042,736.1167" style="stroke:#000000;stroke-width:1;"/><line style="stroke:#000000;stroke-width:1;" x1="480.4824" x2="611.1042" y1="736.1167" y2="736.1167"/><text fill="#000000" font-family="Arial" font-size="11" lengthAdjust="spacing" textLength="91.0938" x="503.2465" y="719.3167">comfort readback /</text><text fill="#000000" font-family="Arial" font-size="11" lengthAdjust="spacing" textLength="97.8345" x="499.8761" y="731.9656">stale-state evidence</text><path d="M46.9001,749.1167 L46.9001,822.1167 L677.9001,822.1167 L677.9001,759.1167 L667.9001,749.1167 L46.9001,749.1167 " fill="#FFFFFF" style="stroke:#000000;stroke-width:1;"/><path d="M667.9001,749.1167 L667.9001,759.1167 L677.9001,759.1167 L667.9001,749.1167 " fill="#FFFFFF" style="stroke:#000000;stroke-width:1;"/><text fill="#000000" font-family="Arial" font-size="11" lengthAdjust="spacing" textLength="143.0752" x="174.3701" y="764.6145">Representative runtime chain</text><text fill="#000000" font-family="Arial" font-size="11" lengthAdjust="spacing" textLength="302.0112" x="174.3701" y="777.2634">1. BCM evaluates TMU, HVAC, and vehicle-context freshness</text><text fill="#000000" font-family="Arial" font-size="11" lengthAdjust="spacing" textLength="294.0674" x="174.3701" y="789.9124">2. BCM suppresses comfort profile when stale context exists</text><text fill="#000000" font-family="Arial" font-size="11" lengthAdjust="spacing" textLength="316.0835" x="174.3701" y="802.5613">3. BCM raises ComfortError on the body comfort publication path</text><text fill="#000000" font-family="Arial" font-size="11" lengthAdjust="spacing" textLength="367.4795" x="174.3701" y="815.2102">4. Panels and evidence consumers observe degraded comfort service state</text><!--SRC=[XLHDRzf04BtlhvWcbrOA8RIH4aMY5RYWz40J1PeJbyKUx1LcrzqFIFhhExjhntQQg5nWbtblPzwRcG-sm3r2LN8XcTa9MN7Dzx3XwIxNoiaiKQNIS3eFdqv4XblkIZjNqlxan33HWfTl_xyKVn16eywV1dyxb2akq1YUuwGKkOGKfKNTYT9eAYLD4pN5KXqdMgiZMEsGCIjiYN3xE4bWQJdz_24hPs6b857xhT8MPXIjOKdil8GvmTVoushnQ-WnmmCM8YNKbjuf9Bq1WwymJHR-Awq9C11KRbEAb5kXv2V6A3ahKb5nQU64s60OSnYkvJ-K9y0Dp9jJOfz8oSlvrNpQPw5Nrx9vKnqbwW3qoPpEhkTNi-j-V5EViTmYR5nyfxwTEXFykaoIFkfkOr0VK1lAc6wmD3vdF8ZCUn4eA2IyU36VCJOUjwb3Kc2wW_6OiLuvjMGtaA_sRadq8iM7fuLPo_psmDEbJx0-FqPn_8dLCaUetRlWN3HnJBxxLbY9TEVD-WJVu8AYHdrGGUpleRmTxy1gXoZrzy1rH8kNYZJM8Y_8cgsdOGzOaGO4e9OuT1iefseD6_GhedC_MRfuAms6CWF_M52-ty9tlYTC8QhWGAyYiGKkdtqhK2KYJ80mm5EVsbhIUCkccoFL-BKaH52dCyoKqaE3tDBuMYxAoDfdkTTgAu9e5mrFf_5kI8tzL6NFzLreW8N9rpBfmuVGYN2cFOSi_o-wSfPAzMBtYTkBIDoU8t5FvEyqQyPgf6NpA8pOY5BOvo1nfoGgq8_5pSjIeFZCBqW_FK6WGPp3Pf9Op5xHgFLc_ypplAv3Esa5xS-qy1juT1vCmGCldUybe04u2-lbZ5pE6gC6AQrLVB9jwx7F4MbSvUaDGPjqgrhnepSnjaa3noTXICCl4QkvyBYkNA0aaFcm8KTRmdOTqXwn1RiyX_kuJtoEZGp-5UFsVj-ek7cegtBDCynUg4pS676HjTxy1G00]--></g></svg>