<svg xmlns="http://www.w3.org/2000/svg" xmlns:xlink="http://www.w3.org/1999/xlink" contentStyleType="text/css" height="1388px" preserveAspectRatio="none" style="width:1194px;height:1388px;background:#FFFFFF;" version="1.1" viewBox="0 0 1194 1388" width="1194px" zoomAndPan="magnify"><title>NAV Context To Speed Limit Signal Flow</title><defs/><g><text fill="#000000" font-family="Arial" font-size="22" font-weight="bold" lengthAdjust="spacing" textLength="426.5723" x="382.6167" y="35.9956">NAV Context To Speed Limit Signal Flow</text><text fill="#000000" font-family="Arial" font-size="22" font-weight="bold" lengthAdjust="spacing" textLength="400.3076" x="395.749" y="61.2935">(Input_Console -&gt; NAV -&gt; ADAS -&gt; IVI)</text><rect fill="#FFFFFF" height="151.5957" style="stroke:#000000;stroke-width:1;" width="10" x="373.0342" y="232.1914"/><rect fill="#FFFFFF" height="271.1914" style="stroke:#000000;stroke-width:1;" width="10" x="534.8071" y="385.7871"/><rect fill="#FFFFFF" height="262.4893" style="stroke:#000000;stroke-width:1;" width="10" x="721.6577" y="656.9785"/><rect fill="#FFFFFF" height="241.8403" style="stroke:#000000;stroke-width:1;" width="10" x="951.9067" y="921.4678"/><line style="stroke:#000000;stroke-width:1;" x1="63" x2="63" y1="162.8936" y2="1298.2017"/><line style="stroke:#000000;stroke-width:1;" x1="377.405" x2="377.405" y1="162.8936" y2="1298.2017"/><line style="stroke:#000000;stroke-width:1;" x1="539.5022" x2="539.5022" y1="162.8936" y2="1298.2017"/><line style="stroke:#000000;stroke-width:1;" x1="725.8782" x2="725.8782" y1="162.8936" y2="1298.2017"/><line style="stroke:#000000;stroke-width:1;" x1="956.2676" x2="956.2676" y1="162.8936" y2="1298.2017"/><text fill="#000000" font-family="Arial" font-size="11" lengthAdjust="spacing" textLength="29.3315" x="45.9373" y="148.0935">Driver</text><text fill="#000000" font-family="Arial" font-size="11" lengthAdjust="spacing" textLength="75.2061" x="23" y="160.7424">(Input Console)</text><ellipse cx="63.603" cy="85.5957" fill="#F4F7FB" rx="8" ry="8" style="stroke:#000000;stroke-width:1;"/><path d="M63.603,93.5957 L63.603,120.5957 M50.603,101.5957 L76.603,101.5957 M63.603,120.5957 L50.603,135.5957 M63.603,120.5957 L76.603,135.5957 " fill="none" style="stroke:#000000;stroke-width:1;"/><text fill="#000000" font-family="Arial" font-size="11" lengthAdjust="spacing" textLength="29.3315" x="45.9373" y="1307.6995">Driver</text><text fill="#000000" font-family="Arial" font-size="11" lengthAdjust="spacing" textLength="75.2061" x="23" y="1320.3484">(Input Console)</text><ellipse cx="63.603" cy="1331.4995" fill="#F4F7FB" rx="8" ry="8" style="stroke:#000000;stroke-width:1;"/><path d="M63.603,1339.4995 L63.603,1366.4995 M50.603,1347.4995 L76.603,1347.4995 M63.603,1366.4995 L50.603,1381.4995 M63.603,1366.4995 L76.603,1381.4995 " fill="none" style="stroke:#000000;stroke-width:1;"/><rect fill="#E8F0FE" height="39.2979" rx="2.5" ry="2.5" style="stroke:#000000;stroke-width:1;" width="129.2583" x="313.405" y="122.5957"/><text fill="#000000" font-family="Arial" font-size="11" lengthAdjust="spacing" textLength="70.9414" x="342.5635" y="140.0935">Input_Console</text><text fill="#000000" font-family="Arial" font-size="11" lengthAdjust="spacing" textLength="115.2583" x="320.405" y="152.7424">Context &gt; Inject / Route</text><rect fill="#E8F0FE" height="39.2979" rx="2.5" ry="2.5" style="stroke:#000000;stroke-width:1;" width="129.2583" x="313.405" y="1297.2017"/><text fill="#000000" font-family="Arial" font-size="11" lengthAdjust="spacing" textLength="70.9414" x="342.5635" y="1314.6995">Input_Console</text><text fill="#000000" font-family="Arial" font-size="11" lengthAdjust="spacing" textLength="115.2583" x="320.405" y="1327.3484">Context &gt; Inject / Route</text><rect fill="#E8F7E8" height="39.2979" rx="2.5" ry="2.5" style="stroke:#000000;stroke-width:1;" width="110.6099" x="484.5022" y="122.5957"/><text fill="#000000" font-family="Arial" font-size="11" lengthAdjust="spacing" textLength="22.6177" x="528.4983" y="140.0935">NAV</text><text fill="#000000" font-family="Arial" font-size="11" lengthAdjust="spacing" textLength="96.6099" x="491.5022" y="152.7424">route context owner</text><rect fill="#E8F7E8" height="39.2979" rx="2.5" ry="2.5" style="stroke:#000000;stroke-width:1;" width="110.6099" x="484.5022" y="1297.2017"/><text fill="#000000" font-family="Arial" font-size="11" lengthAdjust="spacing" textLength="22.6177" x="528.4983" y="1314.6995">NAV</text><text fill="#000000" font-family="Arial" font-size="11" lengthAdjust="spacing" textLength="96.6099" x="491.5022" y="1327.3484">route context owner</text><rect fill="#FCE8FF" height="39.2979" rx="2.5" ry="2.5" style="stroke:#000000;stroke-width:1;" width="151.5591" x="650.8782" y="122.5957"/><text fill="#000000" font-family="Arial" font-size="11" lengthAdjust="spacing" textLength="29.9546" x="711.6804" y="140.0935">ADAS</text><text fill="#000000" font-family="Arial" font-size="11" lengthAdjust="spacing" textLength="137.5591" x="657.8782" y="152.7424">speed-limit / zone consumer</text><rect fill="#FCE8FF" height="39.2979" rx="2.5" ry="2.5" style="stroke:#000000;stroke-width:1;" width="151.5591" x="650.8782" y="1297.2017"/><text fill="#000000" font-family="Arial" font-size="11" lengthAdjust="spacing" textLength="29.9546" x="711.6804" y="1314.6995">ADAS</text><text fill="#000000" font-family="Arial" font-size="11" lengthAdjust="spacing" textLength="137.5591" x="657.8782" y="1327.3484">speed-limit / zone consumer</text><rect fill="#E8F0FE" height="39.2979" rx="2.5" ry="2.5" style="stroke:#000000;stroke-width:1;" width="125.2783" x="894.2676" y="122.5957"/><text fill="#000000" font-family="Arial" font-size="11" lengthAdjust="spacing" textLength="13.4492" x="950.1821" y="140.0935">IVI</text><text fill="#000000" font-family="Arial" font-size="11" lengthAdjust="spacing" textLength="111.2783" x="901.2676" y="152.7424">route render consumer</text><rect fill="#E8F0FE" height="39.2979" rx="2.5" ry="2.5" style="stroke:#000000;stroke-width:1;" width="125.2783" x="894.2676" y="1297.2017"/><text fill="#000000" font-family="Arial" font-size="11" lengthAdjust="spacing" textLength="13.4492" x="950.1821" y="1314.6995">IVI</text><text fill="#000000" font-family="Arial" font-size="11" lengthAdjust="spacing" textLength="111.2783" x="901.2676" y="1327.3484">route render consumer</text><rect fill="#FFFFFF" height="151.5957" style="stroke:#000000;stroke-width:1;" width="10" x="373.0342" y="232.1914"/><rect fill="#FFFFFF" height="271.1914" style="stroke:#000000;stroke-width:1;" width="10" x="534.8071" y="385.7871"/><rect fill="#FFFFFF" height="262.4893" style="stroke:#000000;stroke-width:1;" width="10" x="721.6577" y="656.9785"/><rect fill="#FFFFFF" height="241.8403" style="stroke:#000000;stroke-width:1;" width="10" x="951.9067" y="921.4678"/><rect fill="#FFFFFF" height="3" style="stroke:#FFFFFF;stroke-width:1;" width="1182.8057" x="5" y="192.218"/><line style="stroke:#000000;stroke-width:0.5;" x1="5" x2="1187.8057" y1="192.218" y2="192.218"/><line style="stroke:#000000;stroke-width:0.5;" x1="5" x2="1187.8057" y1="195.218" y2="195.218"/><rect fill="#FFFFFF" height="20.6489" style="stroke:#000000;stroke-width:1;" width="78.1523" x="557.3267" y="182.8936"/><text fill="#000000" font-family="Arial" font-size="11" font-weight="bold" lengthAdjust="spacing" textLength="61.0962" x="563.3267" y="197.3914">Route Input</text><polygon fill="#000000" points="361.0342,228.1914,371.0342,232.1914,361.0342,236.1914,365.0342,232.1914" style="stroke:#000000;stroke-width:1;"/><line style="stroke:#000000;stroke-width:1;" x1="63.603" x2="367.0342" y1="232.1914" y2="232.1914"/><text fill="#000000" font-family="Arial" font-size="11" lengthAdjust="spacing" textLength="225.6182" x="105.5095" y="228.0403">Set road zone / nav dir / zone dist / speed limit</text><line style="stroke:#000000;stroke-width:1;" x1="383.0342" x2="425.0342" y1="258.8403" y2="258.8403"/><line style="stroke:#000000;stroke-width:1;" x1="425.0342" x2="425.0342" y1="258.8403" y2="271.8403"/><line style="stroke:#000000;stroke-width:1;" x1="384.0342" x2="425.0342" y1="271.8403" y2="271.8403"/><polygon fill="#000000" points="394.0342,267.8403,384.0342,271.8403,394.0342,275.8403,390.0342,271.8403" style="stroke:#000000;stroke-width:1;"/><text fill="#000000" font-family="Arial" font-size="11" lengthAdjust="spacing" textLength="108.2114" x="390.0342" y="254.6892">Write Inject::roadZone</text><line style="stroke:#000000;stroke-width:1;" x1="383.0342" x2="425.0342" y1="298.4893" y2="298.4893"/><line style="stroke:#000000;stroke-width:1;" x1="425.0342" x2="425.0342" y1="298.4893" y2="311.4893"/><line style="stroke:#000000;stroke-width:1;" x1="384.0342" x2="425.0342" y1="311.4893" y2="311.4893"/><polygon fill="#000000" points="394.0342,307.4893,384.0342,311.4893,394.0342,315.4893,390.0342,311.4893" style="stroke:#000000;stroke-width:1;"/><text fill="#000000" font-family="Arial" font-size="11" lengthAdjust="spacing" textLength="122.2622" x="390.0342" y="294.3381">Write Inject::navDirection</text><line style="stroke:#000000;stroke-width:1;" x1="383.0342" x2="425.0342" y1="338.1382" y2="338.1382"/><line style="stroke:#000000;stroke-width:1;" x1="425.0342" x2="425.0342" y1="338.1382" y2="351.1382"/><line style="stroke:#000000;stroke-width:1;" x1="384.0342" x2="425.0342" y1="351.1382" y2="351.1382"/><polygon fill="#000000" points="394.0342,347.1382,384.0342,351.1382,394.0342,355.1382,390.0342,351.1382" style="stroke:#000000;stroke-width:1;"/><text fill="#000000" font-family="Arial" font-size="11" lengthAdjust="spacing" textLength="127.7729" x="390.0342" y="333.9871">Write Inject::zoneDistance</text><line style="stroke:#000000;stroke-width:1;" x1="383.0342" x2="425.0342" y1="382.7871" y2="382.7871"/><line style="stroke:#000000;stroke-width:1;" x1="425.0342" x2="425.0342" y1="382.7871" y2="395.7871"/><line style="stroke:#000000;stroke-width:1;" x1="378.0342" x2="425.0342" y1="395.7871" y2="395.7871"/><polygon fill="#000000" points="388.0342,391.7871,378.0342,395.7871,388.0342,399.7871,384.0342,395.7871" style="stroke:#000000;stroke-width:1;"/><text fill="#000000" font-family="Arial" font-size="11" lengthAdjust="spacing" textLength="114.3184" x="390.0342" y="378.636">Write Inject::speedLimit</text><rect fill="#FFFFFF" height="3" style="stroke:#FFFFFF;stroke-width:1;" width="1182.8057" x="5" y="418.1116"/><line style="stroke:#000000;stroke-width:0.5;" x1="5" x2="1187.8057" y1="418.1116" y2="418.1116"/><line style="stroke:#000000;stroke-width:0.5;" x1="5" x2="1187.8057" y1="421.1116" y2="421.1116"/><rect fill="#FFFFFF" height="20.6489" style="stroke:#000000;stroke-width:1;" width="100.1792" x="546.3132" y="408.7871"/><text fill="#000000" font-family="Arial" font-size="11" font-weight="bold" lengthAdjust="spacing" textLength="83.123" x="552.3132" y="423.2849">NAV Ownership</text><polygon fill="#000000" points="522.8071,454.085,532.8071,458.085,522.8071,462.085,526.8071,458.085" style="stroke:#000000;stroke-width:1;"/><line style="stroke:#000000;stroke-width:1;" x1="378.0342" x2="528.8071" y1="458.085" y2="458.085"/><text fill="#000000" font-family="Arial" font-size="11" lengthAdjust="spacing" textLength="100.2676" x="406.2869" y="453.9338">Inject::* route seams</text><line style="stroke:#000000;stroke-width:1;" x1="544.8071" x2="586.8071" y1="484.7339" y2="484.7339"/><line style="stroke:#000000;stroke-width:1;" x1="586.8071" x2="586.8071" y1="484.7339" y2="497.7339"/><line style="stroke:#000000;stroke-width:1;" x1="545.8071" x2="586.8071" y1="497.7339" y2="497.7339"/><polygon fill="#000000" points="555.8071,493.7339,545.8071,497.7339,555.8071,501.7339,551.8071,497.7339" style="stroke:#000000;stroke-width:1;"/><text fill="#000000" font-family="Arial" font-size="11" lengthAdjust="spacing" textLength="114.9414" x="551.8071" y="480.5828">calcBaseZoneContext()</text><line style="stroke:#000000;stroke-width:1;" x1="544.8071" x2="586.8071" y1="524.3828" y2="524.3828"/><line style="stroke:#000000;stroke-width:1;" x1="586.8071" x2="586.8071" y1="524.3828" y2="537.3828"/><line style="stroke:#000000;stroke-width:1;" x1="545.8071" x2="586.8071" y1="537.3828" y2="537.3828"/><polygon fill="#000000" points="555.8071,533.3828,545.8071,537.3828,555.8071,541.3828,551.8071,537.3828" style="stroke:#000000;stroke-width:1;"/><text fill="#000000" font-family="Arial" font-size="11" lengthAdjust="spacing" textLength="124.1045" x="551.8071" y="520.2317">calcEffectiveSpeedLimit()</text><line style="stroke:#000000;stroke-width:1;" x1="544.8071" x2="586.8071" y1="564.0317" y2="564.0317"/><line style="stroke:#000000;stroke-width:1;" x1="586.8071" x2="586.8071" y1="564.0317" y2="577.0317"/><line style="stroke:#000000;stroke-width:1;" x1="545.8071" x2="586.8071" y1="577.0317" y2="577.0317"/><polygon fill="#000000" points="555.8071,573.0317,545.8071,577.0317,555.8071,581.0317,551.8071,577.0317" style="stroke:#000000;stroke-width:1;"/><text fill="#000000" font-family="Arial" font-size="11" lengthAdjust="spacing" textLength="152.8506" x="551.8071" y="559.8806">derive route class / guide / ETA</text><polygon fill="#000000" points="714.6577,599.6807,724.6577,603.6807,714.6577,607.6807,718.6577,603.6807" style="stroke:#000000;stroke-width:1;"/><line style="stroke:#000000;stroke-width:1;" x1="544.8071" x2="720.6577" y1="603.6807" y2="603.6807"/><text fill="#000000" font-family="Arial" font-size="11" lengthAdjust="spacing" textLength="117.9868" x="576.739" y="599.5295">frmNavModuleStateMsg</text><polygon fill="#000000" points="944.9067,626.3296,954.9067,630.3296,944.9067,634.3296,948.9067,630.3296" style="stroke:#000000;stroke-width:1;"/><line style="stroke:#000000;stroke-width:1;" x1="544.8071" x2="950.9067" y1="630.3296" y2="630.3296"/><text fill="#000000" font-family="Arial" font-size="11" lengthAdjust="spacing" textLength="117.9868" x="691.8635" y="626.1785">frmNavModuleStateMsg</text><polygon fill="#000000" points="944.9067,652.9785,954.9067,656.9785,944.9067,660.9785,948.9067,656.9785" style="stroke:#000000;stroke-width:1;"/><line style="stroke:#000000;stroke-width:1;" x1="539.8071" x2="950.9067" y1="656.9785" y2="656.9785"/><text fill="#000000" font-family="Arial" font-size="11" lengthAdjust="spacing" textLength="117.9922" x="689.3608" y="652.8274">frmNavigationRouteMsg</text><path d="M544,669.9785 L544,742.9785 L678,742.9785 L678,679.9785 L668,669.9785 L544,669.9785 " fill="#FFFFFF" style="stroke:#000000;stroke-width:1;"/><path d="M668,669.9785 L668,679.9785 L678,679.9785 L668,669.9785 " fill="#FFFFFF" style="stroke:#000000;stroke-width:1;"/><text fill="#000000" font-family="Arial" font-size="11" lengthAdjust="spacing" textLength="113.126" x="550" y="685.4763">Representative outputs</text><text fill="#000000" font-family="Arial" font-size="11" lengthAdjust="spacing" textLength="83.1392" x="550" y="698.1252">- NavRouteClass</text><text fill="#000000" font-family="Arial" font-size="11" lengthAdjust="spacing" textLength="80.0884" x="550" y="710.7742">- NavGuideType</text><text fill="#000000" font-family="Arial" font-size="11" lengthAdjust="spacing" textLength="81.313" x="550" y="723.4231">- NavSpeedLimit</text><text fill="#000000" font-family="Arial" font-size="11" lengthAdjust="spacing" textLength="75.2007" x="550" y="736.072">- RouteAlertEta</text><rect fill="#FFFFFF" height="3" style="stroke:#FFFFFF;stroke-width:1;" width="1182.8057" x="5" y="767.5476"/><line style="stroke:#000000;stroke-width:0.5;" x1="5" x2="1187.8057" y1="767.5476" y2="767.5476"/><line style="stroke:#000000;stroke-width:0.5;" x1="5" x2="1187.8057" y1="770.5476" y2="770.5476"/><rect fill="#FFFFFF" height="20.6489" style="stroke:#000000;stroke-width:1;" width="188.1631" x="502.3213" y="758.2231"/><text fill="#000000" font-family="Arial" font-size="11" font-weight="bold" lengthAdjust="spacing" textLength="171.1069" x="508.3213" y="772.7209">ADAS Speed-Limit Consumption</text><polygon fill="#000000" points="709.6577,803.521,719.6577,807.521,709.6577,811.521,713.6577,807.521" style="stroke:#000000;stroke-width:1;"/><line style="stroke:#000000;stroke-width:1;" x1="539.8071" x2="715.6577" y1="807.521" y2="807.521"/><text fill="#000000" font-family="Arial" font-size="11" lengthAdjust="spacing" textLength="117.9868" x="571.739" y="803.3699">frmNavModuleStateMsg</text><line style="stroke:#000000;stroke-width:1;" x1="731.6577" x2="773.6577" y1="834.1699" y2="834.1699"/><line style="stroke:#000000;stroke-width:1;" x1="773.6577" x2="773.6577" y1="834.1699" y2="847.1699"/><line style="stroke:#000000;stroke-width:1;" x1="732.6577" x2="773.6577" y1="847.1699" y2="847.1699"/><polygon fill="#000000" points="742.6577,843.1699,732.6577,847.1699,742.6577,851.1699,738.6577,847.1699" style="stroke:#000000;stroke-width:1;"/><text fill="#000000" font-family="Arial" font-size="11" lengthAdjust="spacing" textLength="196.249" x="738.6577" y="830.0188">deriveBaseZoneContextFromNavState()</text><line style="stroke:#000000;stroke-width:1;" x1="731.6577" x2="773.6577" y1="873.8188" y2="873.8188"/><line style="stroke:#000000;stroke-width:1;" x1="773.6577" x2="773.6577" y1="873.8188" y2="886.8188"/><line style="stroke:#000000;stroke-width:1;" x1="732.6577" x2="773.6577" y1="886.8188" y2="886.8188"/><polygon fill="#000000" points="742.6577,882.8188,732.6577,886.8188,742.6577,890.8188,738.6577,886.8188" style="stroke:#000000;stroke-width:1;"/><text fill="#000000" font-family="Arial" font-size="11" lengthAdjust="spacing" textLength="130.2437" x="738.6577" y="869.6677">apply gCanNavSpeedLimit</text><line style="stroke:#000000;stroke-width:1;" x1="731.6577" x2="773.6577" y1="918.4678" y2="918.4678"/><line style="stroke:#000000;stroke-width:1;" x1="773.6577" x2="773.6577" y1="918.4678" y2="931.4678"/><line style="stroke:#000000;stroke-width:1;" x1="726.6577" x2="773.6577" y1="931.4678" y2="931.4678"/><polygon fill="#000000" points="736.6577,927.4678,726.6577,931.4678,736.6577,935.4678,732.6577,931.4678" style="stroke:#000000;stroke-width:1;"/><text fill="#000000" font-family="Arial" font-size="11" lengthAdjust="spacing" textLength="176.0859" x="738.6577" y="914.3167">speedLimitNorm / baseZoneContext</text><path d="M731,939.4678 L731,999.4678 L951,999.4678 L951,949.4678 L941,939.4678 L731,939.4678 " fill="#FFFFFF" style="stroke:#000000;stroke-width:1;"/><path d="M941,939.4678 L941,949.4678 L951,949.4678 L941,939.4678 " fill="#FFFFFF" style="stroke:#000000;stroke-width:1;"/><text fill="#000000" font-family="Arial" font-size="11" lengthAdjust="spacing" textLength="113.126" x="737" y="954.9656">Representative outputs</text><text fill="#000000" font-family="Arial" font-size="11" lengthAdjust="spacing" textLength="116.7568" x="737" y="967.6145">- Core::speedLimitNorm</text><text fill="#000000" font-family="Arial" font-size="11" lengthAdjust="spacing" textLength="123.5083" x="737" y="980.2634">- Core::baseZoneContext</text><text fill="#000000" font-family="Arial" font-size="11" lengthAdjust="spacing" textLength="199.9658" x="737" y="992.9124">- warning selection based on speed/zone</text><rect fill="#FFFFFF" height="3" style="stroke:#FFFFFF;stroke-width:1;" width="1182.8057" x="5" y="1024.3879"/><line style="stroke:#000000;stroke-width:0.5;" x1="5" x2="1187.8057" y1="1024.3879" y2="1024.3879"/><line style="stroke:#000000;stroke-width:0.5;" x1="5" x2="1187.8057" y1="1027.3879" y2="1027.3879"/><rect fill="#FFFFFF" height="20.6489" style="stroke:#000000;stroke-width:1;" width="105.6792" x="543.5632" y="1015.0635"/><text fill="#000000" font-family="Arial" font-size="11" font-weight="bold" lengthAdjust="spacing" textLength="88.623" x="549.5632" y="1029.5613">IVI Route Render</text><polygon fill="#000000" points="939.9067,1060.3613,949.9067,1064.3613,939.9067,1068.3613,943.9067,1064.3613" style="stroke:#000000;stroke-width:1;"/><line style="stroke:#000000;stroke-width:1;" x1="539.8071" x2="945.9067" y1="1064.3613" y2="1064.3613"/><text fill="#000000" font-family="Arial" font-size="11" lengthAdjust="spacing" textLength="117.9868" x="686.8635" y="1060.2102">frmNavModuleStateMsg</text><polygon fill="#000000" points="939.9067,1087.0103,949.9067,1091.0103,939.9067,1095.0103,943.9067,1091.0103" style="stroke:#000000;stroke-width:1;"/><line style="stroke:#000000;stroke-width:1;" x1="539.8071" x2="945.9067" y1="1091.0103" y2="1091.0103"/><text fill="#000000" font-family="Arial" font-size="11" lengthAdjust="spacing" textLength="117.9922" x="686.8608" y="1086.8591">frmNavigationRouteMsg</text><line style="stroke:#000000;stroke-width:1;" x1="961.9067" x2="1003.9067" y1="1117.6592" y2="1117.6592"/><line style="stroke:#000000;stroke-width:1;" x1="1003.9067" x2="1003.9067" y1="1117.6592" y2="1130.6592"/><line style="stroke:#000000;stroke-width:1;" x1="962.9067" x2="1003.9067" y1="1130.6592" y2="1130.6592"/><polygon fill="#000000" points="972.9067,1126.6592,962.9067,1130.6592,972.9067,1134.6592,968.9067,1130.6592" style="stroke:#000000;stroke-width:1;"/><text fill="#000000" font-family="Arial" font-size="11" lengthAdjust="spacing" textLength="196.249" x="968.9067" y="1113.5081">deriveBaseZoneContextFromNavState()</text><line style="stroke:#000000;stroke-width:1;" x1="961.9067" x2="1003.9067" y1="1162.3081" y2="1162.3081"/><line style="stroke:#000000;stroke-width:1;" x1="1003.9067" x2="1003.9067" y1="1162.3081" y2="1175.3081"/><line style="stroke:#000000;stroke-width:1;" x1="956.9067" x2="1003.9067" y1="1175.3081" y2="1175.3081"/><polygon fill="#000000" points="966.9067,1171.3081,956.9067,1175.3081,966.9067,1179.3081,962.9067,1175.3081" style="stroke:#000000;stroke-width:1;"/><text fill="#000000" font-family="Arial" font-size="11" lengthAdjust="spacing" textLength="196.8989" x="968.9067" y="1158.157">roadZoneColorCode / presentationMode</text><polygon fill="#000000" points="74.603,1178.3081,64.603,1182.3081,74.603,1186.3081,70.603,1182.3081" style="stroke:#000000;stroke-width:1;"/><line style="stroke:#000000;stroke-width:1;" x1="68.603" x2="377.0342" y1="1182.3081" y2="1182.3081"/><text fill="#000000" font-family="Arial" font-size="11" lengthAdjust="spacing" textLength="290.4312" x="75.603" y="1193.8059">Route context becomes speed-limit and route-warning state</text><path d="M10,1209.957 L10,1282.957 L1011,1282.957 L1011,1219.957 L1001,1209.957 L10,1209.957 " fill="#FFFFFF" style="stroke:#000000;stroke-width:1;"/><path d="M1001,1209.957 L1001,1219.957 L1011,1219.957 L1001,1209.957 " fill="#FFFFFF" style="stroke:#000000;stroke-width:1;"/><text fill="#000000" font-family="Arial" font-size="11" lengthAdjust="spacing" textLength="143.0752" x="362.5881" y="1225.4548">Representative runtime chain</text><text fill="#000000" font-family="Arial" font-size="11" lengthAdjust="spacing" textLength="184.0566" x="362.5881" y="1238.1038">1. Input_Console injects route context</text><text fill="#000000" font-family="Arial" font-size="11" lengthAdjust="spacing" textLength="268.3989" x="362.5881" y="1250.7527">2. NAV normalizes route class and effective speed limit</text><text fill="#000000" font-family="Arial" font-size="11" lengthAdjust="spacing" textLength="284.3242" x="362.5881" y="1263.4016">3. ADAS consumes NavSpeedLimit and baseZoneContext</text><text fill="#000000" font-family="Arial" font-size="11" lengthAdjust="spacing" textLength="287.3696" x="362.5881" y="1276.0505">4. IVI consumes the same NAV state for route presentation</text><!--SRC=[hLPHRzis47xNhxWbBqqn9yjMe8NH370SQmYmf4CSPC0GO62aiyAL9ZMISjh- -juT9LdIEYGFpOkjyBlllllkTFGFyH6t2BLHscRXexQryceB3whuM7dNs7BfZFDmcClV057YHZKcvix6QqKC2w-L-VRvMdz1E3qT70Ryjq5Ru1M6e2fS65rPAD16z0EKnr0x6phKEHhtjF3UFK7q3MPPrD4WN2_kO4bPy5E4MmVh6h64t_LMHrWJhJAGKzozVNLfwoR-JT3WA6psgqJIn-9YiURFoxlBeonJHQHw3owytg7leg2DEZe05I2TaITlyhVvUKPYeovqhMo4Wr6IUzi98tRx3nOHJk36DH65vmzbqS3Xwbt-KxuQqv2qU-iP2KLBuPuiUebZtHprTlLk7CMLtDl03ioCE702NvmLZj1ist2fzp1V4aC-4NztsMNrQ4kgSHH8nxtQxEmiLGB9eBEpB6jz8IjJPNDOOmJlL9bKd81LEoYrxsILEh144GmYcEtNEqMqGf4beW7ZdrvBJZPpFcVkluZfEHpblT2UlcfddyEoiWiIfcW-dyEASfcrhCI9T7Q8E_M1-nOUTIqUzI0wshCpRjwpleRKWu1g6x9sIXEaKAOuLm6vw7QsNXtz5xBQRBZO7QvxWLCOTPVEsqo5KI5G9wf6bzodrUqY6xuTSzZuxRNQNRcoCRYELC1Lg3e8pyNB4RfIt0OP7ePOn-EcgqSQyOtOSeCrlVgq3HIN00Ia2GlP32XQmfOiDpt_neflFzUO7lVrqhDW5mPzN4MLqK03vnfsYhDndwH8YPsbpR6KkQzPwBXjZ7o9DTrIQJ79xKddSkyuKcAeFPCGLTVcCrHBPSTrJM3x4RnsVakzUnWdcVWh-l_NuANpE9ngfkp_FIMUmPFoLjkA1jMaTqkIbq1VXEE4twLl6Yyos7cUZBH7RjB66RbDfzzdoFYiXxoa6QE0Rit8NRXqyehi7NIMz8ogOzdTDdm_wtV7pMYVFs3XjXXWkAuLMILlvAotblLagOcE-HBjZv9ZqaVVsAZfAYuU-J8_FORnZQTblGGONIlPpyUo42nrMXcwgCDe9R0Wx9R9Q57_SfmciBqXmlZjay3fmBmv5Z_x2Fhf0O5_Ex00AHGsTFUc_4D_zoFq5G00]--></g></svg>