<svg xmlns="http://www.w3.org/2000/svg" xmlns:xlink="http://www.w3.org/1999/xlink" contentStyleType="text/css" height="731px" preserveAspectRatio="none" style="width:816px;height:731px;background:#FFFFFF;" version="1.1" viewBox="0 0 816 731" width="816px" zoomAndPan="magnify"><title>OBC Input To CPC Charge Enable Signal Flow</title><defs/><g><text fill="#000000" font-family="Arial" font-size="22" font-weight="bold" lengthAdjust="spacing" textLength="482.7969" x="165.6008" y="35.9956">OBC Input To CPC Charge Enable Signal Flow</text><text fill="#000000" font-family="Arial" font-size="22" font-weight="bold" lengthAdjust="spacing" textLength="617.9336" x="98.0325" y="61.2935">(OBC plug/charger state -&gt; CPC charge-enable publication)</text><rect fill="#FFFFFF" height="308.7871" style="stroke:#000000;stroke-width:1;" width="10" x="492.5903" y="277.436"/><line style="stroke:#000000;stroke-width:1;" x1="82" x2="82" y1="116.8936" y2="687.4678"/><line style="stroke:#000000;stroke-width:1;" x1="230.2783" x2="230.2783" y1="116.8936" y2="687.4678"/><line style="stroke:#000000;stroke-width:1;" x1="354.4951" x2="354.4951" y1="116.8936" y2="687.4678"/><line style="stroke:#000000;stroke-width:1;" x1="496.9565" x2="496.9565" y1="116.8936" y2="687.4678"/><line style="stroke:#000000;stroke-width:1;" x1="740.5679" x2="740.5679" y1="116.8936" y2="687.4678"/><rect fill="#E8F7E8" height="39.2979" rx="2.5" ry="2.5" style="stroke:#000000;stroke-width:1;" width="125.2783" x="20" y="76.5957"/><text fill="#000000" font-family="Arial" font-size="11" lengthAdjust="spacing" textLength="23.8369" x="70.7207" y="94.0935">OBC</text><text fill="#000000" font-family="Arial" font-size="11" lengthAdjust="spacing" textLength="111.2783" x="27" y="106.7424">charger-state producer</text><rect fill="#E8F7E8" height="39.2979" rx="2.5" ry="2.5" style="stroke:#000000;stroke-width:1;" width="125.2783" x="20" y="686.4678"/><text fill="#000000" font-family="Arial" font-size="11" lengthAdjust="spacing" textLength="23.8369" x="70.7207" y="703.9656">OBC</text><text fill="#000000" font-family="Arial" font-size="11" lengthAdjust="spacing" textLength="111.2783" x="27" y="716.6145">charger-state producer</text><rect fill="#E8F0FE" height="39.2979" rx="2.5" ry="2.5" style="stroke:#000000;stroke-width:1;" width="111.2168" x="175.2783" y="76.5957"/><text fill="#000000" font-family="Arial" font-size="11" lengthAdjust="spacing" textLength="51.3477" x="205.2129" y="94.0935">BAT_BMS</text><text fill="#000000" font-family="Arial" font-size="11" lengthAdjust="spacing" textLength="97.2168" x="182.2783" y="106.7424">pack-state producer</text><rect fill="#E8F0FE" height="39.2979" rx="2.5" ry="2.5" style="stroke:#000000;stroke-width:1;" width="111.2168" x="175.2783" y="686.4678"/><text fill="#000000" font-family="Arial" font-size="11" lengthAdjust="spacing" textLength="51.3477" x="205.2129" y="703.9656">BAT_BMS</text><text fill="#000000" font-family="Arial" font-size="11" lengthAdjust="spacing" textLength="97.2168" x="182.2783" y="716.6145">pack-state producer</text><rect fill="#F4F7FB" height="39.2979" rx="2.5" ry="2.5" style="stroke:#000000;stroke-width:1;" width="76.9814" x="316.4951" y="76.5957"/><text fill="#000000" font-family="Arial" font-size="11" lengthAdjust="spacing" textLength="62.9814" x="323.4951" y="94.0935">Vehicle state</text><text fill="#000000" font-family="Arial" font-size="11" lengthAdjust="spacing" textLength="51.353" x="329.3093" y="106.7424">DriveState</text><rect fill="#F4F7FB" height="39.2979" rx="2.5" ry="2.5" style="stroke:#000000;stroke-width:1;" width="76.9814" x="316.4951" y="686.4678"/><text fill="#000000" font-family="Arial" font-size="11" lengthAdjust="spacing" textLength="62.9814" x="323.4951" y="703.9656">Vehicle state</text><text fill="#000000" font-family="Arial" font-size="11" lengthAdjust="spacing" textLength="51.353" x="329.3093" y="716.6145">DriveState</text><rect fill="#FFF4CC" height="39.2979" rx="2.5" ry="2.5" style="stroke:#000000;stroke-width:1;" width="103.2676" x="445.9565" y="76.5957"/><text fill="#000000" font-family="Arial" font-size="11" lengthAdjust="spacing" textLength="23.2246" x="485.978" y="94.0935">CPC</text><text fill="#000000" font-family="Arial" font-size="11" lengthAdjust="spacing" textLength="89.2676" x="452.9565" y="106.7424">charge-port owner</text><rect fill="#FFF4CC" height="39.2979" rx="2.5" ry="2.5" style="stroke:#000000;stroke-width:1;" width="103.2676" x="445.9565" y="686.4678"/><text fill="#000000" font-family="Arial" font-size="11" lengthAdjust="spacing" textLength="23.2246" x="485.978" y="703.9656">CPC</text><text fill="#000000" font-family="Arial" font-size="11" lengthAdjust="spacing" textLength="89.2676" x="452.9565" y="716.6145">charge-port owner</text><rect fill="#FCE8FF" height="26.6489" rx="2.5" ry="2.5" style="stroke:#000000;stroke-width:1;" width="101.4307" x="690.5679" y="89.2446"/><text fill="#000000" font-family="Arial" font-size="11" lengthAdjust="spacing" textLength="87.4307" x="697.5679" y="106.7424">Charge observers</text><rect fill="#FCE8FF" height="26.6489" rx="2.5" ry="2.5" style="stroke:#000000;stroke-width:1;" width="101.4307" x="690.5679" y="686.4678"/><text fill="#000000" font-family="Arial" font-size="11" lengthAdjust="spacing" textLength="87.4307" x="697.5679" y="703.9656">Charge observers</text><rect fill="#FFFFFF" height="308.7871" style="stroke:#000000;stroke-width:1;" width="10" x="492.5903" y="277.436"/><rect fill="#FFFFFF" height="3" style="stroke:#FFFFFF;stroke-width:1;" width="804.9985" x="5" y="146.218"/><line style="stroke:#000000;stroke-width:0.5;" x1="5" x2="809.9985" y1="146.218" y2="146.218"/><line style="stroke:#000000;stroke-width:0.5;" x1="5" x2="809.9985" y1="149.218" y2="149.218"/><rect fill="#FFFFFF" height="20.6489" style="stroke:#000000;stroke-width:1;" width="116.6685" x="349.165" y="136.8936"/><text fill="#000000" font-family="Arial" font-size="11" font-weight="bold" lengthAdjust="spacing" textLength="99.6123" x="355.165" y="151.3914">Charge-Port Inputs</text><polygon fill="#000000" points="485.5903,194.8403,495.5903,198.8403,485.5903,202.8403,489.5903,198.8403" style="stroke:#000000;stroke-width:1;"/><line style="stroke:#000000;stroke-width:1;" x1="82.6392" x2="491.5903" y1="198.8403" y2="198.8403"/><text fill="#000000" font-family="Arial" font-size="11" lengthAdjust="spacing" textLength="82.5215" x="248.854" y="182.0403">frmObcStateMsg</text><text fill="#000000" font-family="Arial" font-size="11" lengthAdjust="spacing" textLength="115.5645" x="232.3325" y="194.6892">ObcState / AcPlugState</text><polygon fill="#000000" points="485.5903,234.1382,495.5903,238.1382,485.5903,242.1382,489.5903,238.1382" style="stroke:#000000;stroke-width:1;"/><line style="stroke:#000000;stroke-width:1;" x1="230.8867" x2="491.5903" y1="238.1382" y2="238.1382"/><text fill="#000000" font-family="Arial" font-size="11" lengthAdjust="spacing" textLength="100.8584" x="313.8093" y="221.3381">frmBatBmsStateMsg</text><text fill="#000000" font-family="Arial" font-size="11" lengthAdjust="spacing" textLength="162.0029" x="283.2371" y="233.9871">BmsState / PackSoc / PackTemp</text><polygon fill="#000000" points="480.5903,273.436,490.5903,277.436,480.5903,281.436,484.5903,277.436" style="stroke:#000000;stroke-width:1;"/><line style="stroke:#000000;stroke-width:1;" x1="354.9858" x2="486.5903" y1="277.436" y2="277.436"/><text fill="#000000" font-family="Arial" font-size="11" lengthAdjust="spacing" textLength="118.6045" x="364.4858" y="260.636">frmVehicleStateCanMsg</text><text fill="#000000" font-family="Arial" font-size="11" lengthAdjust="spacing" textLength="51.353" x="398.1116" y="273.2849">DriveState</text><line style="stroke:#000000;stroke-width:1;" x1="502.5903" x2="544.5903" y1="304.085" y2="304.085"/><line style="stroke:#000000;stroke-width:1;" x1="544.5903" x2="544.5903" y1="304.085" y2="317.085"/><line style="stroke:#000000;stroke-width:1;" x1="503.5903" x2="544.5903" y1="317.085" y2="317.085"/><polygon fill="#000000" points="513.5903,313.085,503.5903,317.085,513.5903,321.085,509.5903,317.085" style="stroke:#000000;stroke-width:1;"/><text fill="#000000" font-family="Arial" font-size="11" lengthAdjust="spacing" textLength="209.6929" x="509.5903" y="299.9338">normalize stale OBC / BMS / vehicle inputs</text><line style="stroke:#000000;stroke-width:1;" x1="502.5903" x2="544.5903" y1="343.7339" y2="343.7339"/><line style="stroke:#000000;stroke-width:1;" x1="544.5903" x2="544.5903" y1="343.7339" y2="356.7339"/><line style="stroke:#000000;stroke-width:1;" x1="503.5903" x2="544.5903" y1="356.7339" y2="356.7339"/><polygon fill="#000000" points="513.5903,352.7339,503.5903,356.7339,513.5903,360.7339,509.5903,356.7339" style="stroke:#000000;stroke-width:1;"/><text fill="#000000" font-family="Arial" font-size="11" lengthAdjust="spacing" textLength="160.2144" x="509.5903" y="339.5828">derive PlugState / ChargeEnable</text><line style="stroke:#000000;stroke-width:1;" x1="502.5903" x2="544.5903" y1="383.3828" y2="383.3828"/><line style="stroke:#000000;stroke-width:1;" x1="544.5903" x2="544.5903" y1="383.3828" y2="396.3828"/><line style="stroke:#000000;stroke-width:1;" x1="503.5903" x2="544.5903" y1="396.3828" y2="396.3828"/><polygon fill="#000000" points="513.5903,392.3828,503.5903,396.3828,513.5903,400.3828,509.5903,396.3828" style="stroke:#000000;stroke-width:1;"/><text fill="#000000" font-family="Arial" font-size="11" lengthAdjust="spacing" textLength="195.0352" x="509.5903" y="379.2317">derive ThermalState / ChargeTargetSoc</text><path d="M507,409.3828 L507,482.3828 L641,482.3828 L641,419.3828 L631,409.3828 L507,409.3828 " fill="#FFFFFF" style="stroke:#000000;stroke-width:1;"/><path d="M631,409.3828 L631,419.3828 L641,419.3828 L631,409.3828 " fill="#FFFFFF" style="stroke:#000000;stroke-width:1;"/><text fill="#000000" font-family="Arial" font-size="11" lengthAdjust="spacing" textLength="113.126" x="513" y="424.8806">Representative outputs</text><text fill="#000000" font-family="Arial" font-size="11" lengthAdjust="spacing" textLength="54.4199" x="513" y="437.5295">- PlugState</text><text fill="#000000" font-family="Arial" font-size="11" lengthAdjust="spacing" textLength="77.0483" x="513" y="450.1785">- ChargeEnable</text><text fill="#000000" font-family="Arial" font-size="11" lengthAdjust="spacing" textLength="72.7461" x="513" y="462.8274">- ThermalState</text><text fill="#000000" font-family="Arial" font-size="11" lengthAdjust="spacing" textLength="93.543" x="513" y="475.4763">- ChargeTargetSoc</text><rect fill="#FFFFFF" height="3" style="stroke:#FFFFFF;stroke-width:1;" width="804.9985" x="5" y="506.9519"/><line style="stroke:#000000;stroke-width:0.5;" x1="5" x2="809.9985" y1="506.9519" y2="506.9519"/><line style="stroke:#000000;stroke-width:0.5;" x1="5" x2="809.9985" y1="509.9519" y2="509.9519"/><rect fill="#FFFFFF" height="20.6489" style="stroke:#000000;stroke-width:1;" width="123.3984" x="345.8" y="497.6274"/><text fill="#000000" font-family="Arial" font-size="11" font-weight="bold" lengthAdjust="spacing" textLength="106.3423" x="351.8" y="512.1252">Charge-Port Publish</text><polygon fill="#000000" points="729.2832,542.9253,739.2832,546.9253,729.2832,550.9253,733.2832,546.9253" style="stroke:#000000;stroke-width:1;"/><line style="stroke:#000000;stroke-width:1;" x1="502.5903" x2="735.2832" y1="546.9253" y2="546.9253"/><text fill="#000000" font-family="Arial" font-size="11" lengthAdjust="spacing" textLength="118.5991" x="562.6372" y="542.7742">frmChargePortStateMsg</text><polygon fill="#000000" points="729.2832,582.2231,739.2832,586.2231,729.2832,590.2231,733.2832,586.2231" style="stroke:#000000;stroke-width:1;"/><line style="stroke:#000000;stroke-width:1;" x1="497.5903" x2="735.2832" y1="586.2231" y2="586.2231"/><text fill="#000000" font-family="Arial" font-size="11" lengthAdjust="spacing" textLength="146.7598" x="546.0569" y="569.4231">traceable charge-port enable /</text><text fill="#000000" font-family="Arial" font-size="11" lengthAdjust="spacing" textLength="92.3291" x="573.2722" y="582.072">thermal publication</text><path d="M18,599.2231 L18,672.2231 L804,672.2231 L804,609.2231 L794,599.2231 L18,599.2231 " fill="#FFFFFF" style="stroke:#000000;stroke-width:1;"/><path d="M794,599.2231 L794,609.2231 L804,609.2231 L794,599.2231 " fill="#FFFFFF" style="stroke:#000000;stroke-width:1;"/><text fill="#000000" font-family="Arial" font-size="11" lengthAdjust="spacing" textLength="143.0752" x="277.6956" y="614.7209">Representative runtime chain</text><text fill="#000000" font-family="Arial" font-size="11" lengthAdjust="spacing" textLength="252.5059" x="277.6956" y="627.3699">1. OBC provides charger state and AC plug visibility</text><text fill="#000000" font-family="Arial" font-size="11" lengthAdjust="spacing" textLength="258.6074" x="277.6956" y="640.0188">2. CPC combines OBC, BAT_BMS, and vehicle state</text><text fill="#000000" font-family="Arial" font-size="11" lengthAdjust="spacing" textLength="247.6396" x="277.6956" y="652.6677">3. CPC derives charge-enable and thermal outputs</text><text fill="#000000" font-family="Arial" font-size="11" lengthAdjust="spacing" textLength="257.3989" x="277.6956" y="665.3167">4. Charge-port observers confirm charging readiness</text><!--SRC=[RLJ1Rjim3BthAxZsiW5risu1MWp8WDYBWHsw1asmKu11bXb7g2rvaknY-_fHajtONNC8REizae-Fr3jtmWQXhRbKp3v9rNB36oYuUAgCxbIPwLeRkCp3Ru8eySYxskLQkH-S8goDvFNRvplv5-7cPd9eyNU7Ik0zMiihNDUoKY1GEJGJb47RQcL7L8grVbuRev_1cGuPSzBL20zf1jzLspdOQyYs6MGdRYg4ZU857UyeDAyX9-v1lVVWjkwgXGWW0zPnXv1y3SpuCS78RBkYbe8xgTK7ngWa9uLikN9mGM4EQWYHn12jqMKdq5m0jw6coyrTVhkvcnFJzVvNUhyxa4Bnz1QJ3WFpOxwPCt_YIGggAd0EwfkHFUxySw3HANcqp6_pT4uZMMEbIQkD0_siXbHUiVTrcMMlEB61kh1eUZGsIYeieJCgBMTijHgwd6nzpD1-2wiLOrxvqCqlS3JDGo52bVUsEgZn1HQm5bko8RmnhtdAIRbB6tkcZIz4srBRTbeCJtjiMkQbJzb3em8Zuof4E7UBSU5axuCHWNdI2rTfq_3QpohrU1YiHJ1a0VtGVHcKpdab-kZmeeVWiJbn0jy4xq_eaytnU__dI1vJcZuRMPt8hsEez15RMWVQ49f7uklEXKAISrfwdgLDPabUJiz9K9NW4_rdvzOFlZq5FuVYlVkXkn7dOQC_SuWpN61Od-dG3HkrE2WNQvek5ojnPafKhsdol0LNFl1h-QPJJZOX1rrRDzV1AzgZNfPeORxRd6IkuzP3BwqiP2tT7_RfEgwyRWgfqCPKmtfU1L8_tJZsEUAZV_RLLU7XexBHckNrsDIuT-CsKKfrbAQ98QIgw9xZfQ_1dYtv1m00]--></g></svg>