<svg xmlns="http://www.w3.org/2000/svg" xmlns:xlink="http://www.w3.org/1999/xlink" contentStyleType="text/css" height="919px" preserveAspectRatio="none" style="width:726px;height:919px;background:#FFFFFF;" version="1.1" viewBox="0 0 726 919" width="726px" zoomAndPan="magnify"><title>Path Ready To Lidar Target State Signal Flow</title><defs/><g><text fill="#000000" font-family="Arial" font-size="22" font-weight="bold" lengthAdjust="spacing" textLength="474.2998" x="124.4838" y="35.9956">Path Ready To Lidar Target State Signal Flow</text><text fill="#000000" font-family="Arial" font-size="22" font-weight="bold" lengthAdjust="spacing" textLength="629.5674" x="46.85" y="61.2935">(path readiness + object safety -&gt; LDR health/target publish)</text><line style="stroke:#000000;stroke-width:1;" x1="81" x2="81" y1="116.8936" y2="874.957"/><line style="stroke:#000000;stroke-width:1;" x1="207.9976" x2="207.9976" y1="116.8936" y2="874.957"/><line style="stroke:#000000;stroke-width:1;" x1="465.9326" x2="465.9326" y1="116.8936" y2="874.957"/><line style="stroke:#000000;stroke-width:1;" x1="623.5559" x2="623.5559" y1="116.8936" y2="874.957"/><rect fill="#F4F7FB" height="39.2979" rx="2.5" ry="2.5" style="stroke:#000000;stroke-width:1;" width="98.9976" x="32" y="76.5957"/><text fill="#000000" font-family="Arial" font-size="11" lengthAdjust="spacing" textLength="70.3076" x="46.345" y="94.0935">Object safety /</text><text fill="#000000" font-family="Arial" font-size="11" lengthAdjust="spacing" textLength="84.9976" x="39" y="106.7424">path-ready inputs</text><rect fill="#F4F7FB" height="39.2979" rx="2.5" ry="2.5" style="stroke:#000000;stroke-width:1;" width="98.9976" x="32" y="873.957"/><text fill="#000000" font-family="Arial" font-size="11" lengthAdjust="spacing" textLength="70.3076" x="46.345" y="891.4548">Object safety /</text><text fill="#000000" font-family="Arial" font-size="11" lengthAdjust="spacing" textLength="84.9976" x="39" y="904.1038">path-ready inputs</text><rect fill="#E8F7E8" height="39.2979" rx="2.5" ry="2.5" style="stroke:#000000;stroke-width:1;" width="94.7061" x="160.9976" y="76.5957"/><text fill="#000000" font-family="Arial" font-size="11" lengthAdjust="spacing" textLength="22.0054" x="197.3479" y="94.0935">LDR</text><text fill="#000000" font-family="Arial" font-size="11" lengthAdjust="spacing" textLength="80.7061" x="167.9976" y="106.7424">lidar state owner</text><rect fill="#E8F7E8" height="39.2979" rx="2.5" ry="2.5" style="stroke:#000000;stroke-width:1;" width="94.7061" x="160.9976" y="873.957"/><text fill="#000000" font-family="Arial" font-size="11" lengthAdjust="spacing" textLength="22.0054" x="197.3479" y="891.4548">LDR</text><text fill="#000000" font-family="Arial" font-size="11" lengthAdjust="spacing" textLength="80.7061" x="167.9976" y="904.1038">lidar state owner</text><rect fill="#FFF4CC" height="26.6489" rx="2.5" ry="2.5" style="stroke:#000000;stroke-width:1;" width="86.1553" x="422.9326" y="89.2446"/><text fill="#000000" font-family="Arial" font-size="11" lengthAdjust="spacing" textLength="72.1553" x="429.9326" y="106.7424">Lidar state bus</text><rect fill="#FFF4CC" height="26.6489" rx="2.5" ry="2.5" style="stroke:#000000;stroke-width:1;" width="86.1553" x="422.9326" y="873.957"/><text fill="#000000" font-family="Arial" font-size="11" lengthAdjust="spacing" textLength="72.1553" x="429.9326" y="891.4548">Lidar state bus</text><rect fill="#E8F0FE" height="26.6489" rx="2.5" ry="2.5" style="stroke:#000000;stroke-width:1;" width="160.7114" x="543.5559" y="89.2446"/><text fill="#000000" font-family="Arial" font-size="11" lengthAdjust="spacing" textLength="146.7114" x="550.5559" y="106.7424">Observers / ADAS consumers</text><rect fill="#E8F0FE" height="26.6489" rx="2.5" ry="2.5" style="stroke:#000000;stroke-width:1;" width="160.7114" x="543.5559" y="873.957"/><text fill="#000000" font-family="Arial" font-size="11" lengthAdjust="spacing" textLength="146.7114" x="550.5559" y="891.4548">Observers / ADAS consumers</text><rect fill="#FFFFFF" height="3" style="stroke:#FFFFFF;stroke-width:1;" width="714.2673" x="5" y="146.218"/><line style="stroke:#000000;stroke-width:0.5;" x1="5" x2="719.2673" y1="146.218" y2="146.218"/><line style="stroke:#000000;stroke-width:0.5;" x1="5" x2="719.2673" y1="149.218" y2="149.218"/><rect fill="#FFFFFF" height="20.6489" style="stroke:#000000;stroke-width:1;" width="80" x="322.1337" y="136.8936"/><text fill="#000000" font-family="Arial" font-size="11" font-weight="bold" lengthAdjust="spacing" textLength="62.9438" x="328.1337" y="151.3914">Lidar Inputs</text><polygon fill="#000000" points="196.3506,232.7871,206.3506,236.7871,196.3506,240.7871,200.3506,236.7871" style="stroke:#000000;stroke-width:1;"/><line style="stroke:#000000;stroke-width:1;" x1="81.4988" x2="202.3506" y1="236.7871" y2="236.7871"/><text fill="#000000" font-family="Arial" font-size="11" lengthAdjust="spacing" textLength="85.0029" x="102.4232" y="182.0403">objectConfidence</text><text fill="#000000" font-family="Arial" font-size="11" lengthAdjust="spacing" textLength="83.7783" x="103.0355" y="194.6892">objectEventCode</text><text fill="#000000" font-family="Arial" font-size="11" lengthAdjust="spacing" textLength="81.313" x="104.2682" y="207.3381">objectTrackValid</text><text fill="#000000" font-family="Arial" font-size="11" lengthAdjust="spacing" textLength="97.2222" x="96.3136" y="219.9871">objectFailSafeMode</text><text fill="#000000" font-family="Arial" font-size="11" lengthAdjust="spacing" textLength="53.2061" x="118.3217" y="232.636">pathReady</text><line style="stroke:#000000;stroke-width:1;" x1="208.3506" x2="250.3506" y1="276.085" y2="276.085"/><line style="stroke:#000000;stroke-width:1;" x1="250.3506" x2="250.3506" y1="276.085" y2="289.085"/><line style="stroke:#000000;stroke-width:1;" x1="209.3506" x2="250.3506" y1="289.085" y2="289.085"/><polygon fill="#000000" points="219.3506,285.085,209.3506,289.085,219.3506,293.085,215.3506,289.085" style="stroke:#000000;stroke-width:1;"/><text fill="#000000" font-family="Arial" font-size="11" lengthAdjust="spacing" textLength="143.0967" x="237.8179" y="259.2849">if objectSafetyInputStale then</text><text fill="#000000" font-family="Arial" font-size="11" lengthAdjust="spacing" textLength="188.0313" x="215.3506" y="271.9338">confidence = 0 / track = 0 / failSafe = 0</text><line style="stroke:#000000;stroke-width:1;" x1="208.3506" x2="250.3506" y1="315.7339" y2="315.7339"/><line style="stroke:#000000;stroke-width:1;" x1="250.3506" x2="250.3506" y1="315.7339" y2="328.7339"/><line style="stroke:#000000;stroke-width:1;" x1="209.3506" x2="250.3506" y1="328.7339" y2="328.7339"/><polygon fill="#000000" points="219.3506,324.7339,209.3506,328.7339,219.3506,332.7339,215.3506,328.7339" style="stroke:#000000;stroke-width:1;"/><text fill="#000000" font-family="Arial" font-size="11" lengthAdjust="spacing" textLength="227.1328" x="215.3506" y="311.5828">targetDetected = clamp(objectTrackValid, 0, 1)</text><line style="stroke:#000000;stroke-width:1;" x1="208.3506" x2="250.3506" y1="368.0317" y2="368.0317"/><line style="stroke:#000000;stroke-width:1;" x1="250.3506" x2="250.3506" y1="368.0317" y2="381.0317"/><line style="stroke:#000000;stroke-width:1;" x1="209.3506" x2="250.3506" y1="381.0317" y2="381.0317"/><polygon fill="#000000" points="219.3506,377.0317,209.3506,381.0317,219.3506,385.0317,215.3506,381.0317" style="stroke:#000000;stroke-width:1;"/><text fill="#000000" font-family="Arial" font-size="11" lengthAdjust="spacing" textLength="164.5005" x="227.2825" y="351.2317">if pathReady == 0 or failSafe &gt;= 2</text><text fill="#000000" font-family="Arial" font-size="11" lengthAdjust="spacing" textLength="188.3643" x="215.3506" y="363.8806">then health = 0 and targetDetected = 0</text><line style="stroke:#000000;stroke-width:1;" x1="208.3506" x2="250.3506" y1="407.6807" y2="407.6807"/><line style="stroke:#000000;stroke-width:1;" x1="250.3506" x2="250.3506" y1="407.6807" y2="420.6807"/><line style="stroke:#000000;stroke-width:1;" x1="209.3506" x2="250.3506" y1="420.6807" y2="420.6807"/><polygon fill="#000000" points="219.3506,416.6807,209.3506,420.6807,219.3506,424.6807,215.3506,420.6807" style="stroke:#000000;stroke-width:1;"/><text fill="#000000" font-family="Arial" font-size="11" lengthAdjust="spacing" textLength="243.6597" x="215.3506" y="403.5295">freeSpaceClass from targetDetected + confidence</text><path d="M213,433.6807 L213,506.6807 L373,506.6807 L373,443.6807 L363,433.6807 L213,433.6807 " fill="#FFFFFF" style="stroke:#000000;stroke-width:1;"/><path d="M363,433.6807 L363,443.6807 L373,443.6807 L363,433.6807 " fill="#FFFFFF" style="stroke:#000000;stroke-width:1;"/><text fill="#000000" font-family="Arial" font-size="11" lengthAdjust="spacing" textLength="139.4229" x="219" y="449.1785">Representative gating inputs</text><text fill="#000000" font-family="Arial" font-size="11" lengthAdjust="spacing" textLength="59.9253" x="219" y="461.8274">- pathReady</text><text fill="#000000" font-family="Arial" font-size="11" lengthAdjust="spacing" textLength="88.0322" x="219" y="474.4763">- objectTrackValid</text><text fill="#000000" font-family="Arial" font-size="11" lengthAdjust="spacing" textLength="91.7222" x="219" y="487.1252">- objectConfidence</text><text fill="#000000" font-family="Arial" font-size="11" lengthAdjust="spacing" textLength="103.9414" x="219" y="499.7742">- objectFailSafeMode</text><rect fill="#FFFFFF" height="3" style="stroke:#FFFFFF;stroke-width:1;" width="714.2673" x="5" y="531.2498"/><line style="stroke:#000000;stroke-width:0.5;" x1="5" x2="719.2673" y1="531.2498" y2="531.2498"/><line style="stroke:#000000;stroke-width:0.5;" x1="5" x2="719.2673" y1="534.2498" y2="534.2498"/><rect fill="#FFFFFF" height="20.6489" style="stroke:#000000;stroke-width:1;" width="86.73" x="318.7687" y="521.9253"/><text fill="#000000" font-family="Arial" font-size="11" font-weight="bold" lengthAdjust="spacing" textLength="69.6738" x="324.7687" y="536.4231">Lidar Publish</text><polygon fill="#000000" points="454.0103,579.8721,464.0103,583.8721,454.0103,587.8721,458.0103,583.8721" style="stroke:#000000;stroke-width:1;"/><line style="stroke:#000000;stroke-width:1;" x1="208.3506" x2="460.0103" y1="583.8721" y2="583.8721"/><text fill="#000000" font-family="Arial" font-size="11" lengthAdjust="spacing" textLength="86.8076" x="293.7766" y="567.072">frmLidarStateMsg</text><text fill="#000000" font-family="Arial" font-size="11" lengthAdjust="spacing" textLength="231.7251" x="221.3179" y="579.7209">LidarHealth / TargetDetected / FreeSpaceClass</text><polygon fill="#000000" points="454.0103,606.521,464.0103,610.521,454.0103,614.521,458.0103,610.521" style="stroke:#000000;stroke-width:1;"/><line style="stroke:#000000;stroke-width:1;" x1="208.3506" x2="460.0103" y1="610.521" y2="610.521"/><text fill="#000000" font-family="Arial" font-size="11" lengthAdjust="spacing" textLength="130.8613" x="271.7498" y="606.3699">Confidence / RangeBucket</text><path d="M213,623.521 L213,696.521 L347,696.521 L347,633.521 L337,623.521 L213,623.521 " fill="#FFFFFF" style="stroke:#000000;stroke-width:1;"/><path d="M337,623.521 L337,633.521 L347,633.521 L337,623.521 " fill="#FFFFFF" style="stroke:#000000;stroke-width:1;"/><text fill="#000000" font-family="Arial" font-size="11" lengthAdjust="spacing" textLength="113.126" x="219" y="639.0188">Representative outputs</text><text fill="#000000" font-family="Arial" font-size="11" lengthAdjust="spacing" textLength="62.9761" x="219" y="651.6677">- LidarHealth</text><text fill="#000000" font-family="Arial" font-size="11" lengthAdjust="spacing" textLength="82.5376" x="219" y="664.3167">- TargetDetected</text><text fill="#000000" font-family="Arial" font-size="11" lengthAdjust="spacing" textLength="88.0322" x="219" y="676.9656">- FreeSpaceClass</text><text fill="#000000" font-family="Arial" font-size="11" lengthAdjust="spacing" textLength="62.3691" x="219" y="689.6145">- Confidence</text><rect fill="#FFFFFF" height="3" style="stroke:#FFFFFF;stroke-width:1;" width="714.2673" x="5" y="721.0901"/><line style="stroke:#000000;stroke-width:0.5;" x1="5" x2="719.2673" y1="721.0901" y2="721.0901"/><line style="stroke:#000000;stroke-width:0.5;" x1="5" x2="719.2673" y1="724.0901" y2="724.0901"/><rect fill="#FFFFFF" height="20.6489" style="stroke:#000000;stroke-width:1;" width="131.3638" x="296.4518" y="711.7656"/><text fill="#000000" font-family="Arial" font-size="11" font-weight="bold" lengthAdjust="spacing" textLength="114.3076" x="302.4518" y="726.2634">Downstream Visibility</text><polygon fill="#000000" points="611.9116,769.7124,621.9116,773.7124,611.9116,777.7124,615.9116,773.7124" style="stroke:#000000;stroke-width:1;"/><line style="stroke:#000000;stroke-width:1;" x1="466.0103" x2="617.9116" y1="773.7124" y2="773.7124"/><text fill="#000000" font-family="Arial" font-size="11" lengthAdjust="spacing" textLength="133.9014" x="478.0103" y="756.9124">lidar target-state readback /</text><text fill="#000000" font-family="Arial" font-size="11" lengthAdjust="spacing" textLength="122.8799" x="483.521" y="769.5613">ADAS sensor consumers</text><path d="M10,786.7124 L10,859.7124 L697,859.7124 L697,796.7124 L687,786.7124 L10,786.7124 " fill="#FFFFFF" style="stroke:#000000;stroke-width:1;"/><path d="M687,786.7124 L687,796.7124 L697,796.7124 L687,786.7124 " fill="#FFFFFF" style="stroke:#000000;stroke-width:1;"/><text fill="#000000" font-family="Arial" font-size="11" lengthAdjust="spacing" textLength="143.0752" x="189.2443" y="802.2102">Representative runtime chain</text><text fill="#000000" font-family="Arial" font-size="11" lengthAdjust="spacing" textLength="228.6851" x="189.2443" y="814.8591">1. Object safety and path readiness reach LDR</text><text fill="#000000" font-family="Arial" font-size="11" lengthAdjust="spacing" textLength="258.0005" x="189.2443" y="827.5081">2. LDR decides whether target tracking is trustworthy</text><text fill="#000000" font-family="Arial" font-size="11" lengthAdjust="spacing" textLength="299.6318" x="189.2443" y="840.157">3. LDR publishes health, target-detected, and freespace state</text><text fill="#000000" font-family="Arial" font-size="11" lengthAdjust="spacing" textLength="319.7788" x="189.2443" y="852.8059">4. ADAS and observers consume the effective lidar target posture</text><!--SRC=[XLJVRzem47xtNt5hNreLIkagjQf49Gf4crIs2ge-yMAII-8rs9djbB6_VcSxX91M6Y_4Pz_TztttuulDSODG5bn8Pjw4BBdc6rZp-2tJgfB9H1LAmsdaVwqN2QQyAcoafFt1AS9O2rvyVhyKVn66mzQbmTyLoXZdQ0pFS5o8J4ACqg9klT9eIYND_jKZ5cexrbfjmUeA6RF25WZFtEQmG9xiu4N1aqYuXXUkCxImjDmYB2auBo0YxvKyAzrpJS-5fB1m0Mhz2sCBXgTeTz1_WAVf0dBaXSq7DiGfgtKXJ7xE606p8XObbnPEVXvv3bRInUvh3uKuLDQS03UmzFSJ-uTKl8bkeyVZA9Hk9GiFstYyQYjHUq-7v7Hs5ztExZe-hUVhAgJnjiVA-5hTJ2PTh0RrEse30nXFnqk8ITbgGmRlJDS-qrKqOsmqgcNyxad0QCJOWKIjq7qjt4J9L2Ikc2iPBBDtAkH49OtXHLCtlNBYkBT4N1Gkujo_ShBv0Z8Nk8alqZf5oEt1K4MfvDIpSYNZ9ZECu8fuMPUd_axh3Evu73RKT8gM8cD2zt71D-LP5seFhdemFFy0gG5Bib0cceqcrSC8hbVIWQlxnsFXClcOiuCfrOZBaiSuAJWrPQhLfkjp0GU-J2egl1PPRa6bBWPRO4dZGi9pAzuHClgJMTs5h7z0JTzTfetfKCh6r2uKGsBYChSwv3bCXc-HFQDz7pfQ6t_oSpWtsKhwuxSWpg0UquRY0A8Z7Jw9U818hnTSqbQeuZUq_rT4LRRMeeM1JiSOoD31q6_bF5PWIeDgB8tx1bw54MjH2BiBIkm14tWtMVSGvZkKj1_crkq9jsRTul0JILWDjLCpc2oGKZIrXntISm6xt7GbhQ0T7ETkYmyluNWpkGxih3twYdClq_Mbxy44O-9eO9iZDV0UQXWftqd6BLrZjqhRVCU-1gzwCP9VQFZUdc9IwzdpoLrx6oTfM5divZBi87UdciLK4tVJ3PYcvE-ujPM3KXbRwLOT_W40]--></g></svg>