<svg xmlns="http://www.w3.org/2000/svg" xmlns:xlink="http://www.w3.org/1999/xlink" contentStyleType="text/css" height="1887px" preserveAspectRatio="none" style="width:1610px;height:1887px;background:#FFFFFF;" version="1.1" viewBox="0 0 1610 1887" width="1610px" zoomAndPan="magnify"><title>Route Warning To HMI Signal Flow</title><defs/><g><text fill="#000000" font-family="Arial" font-size="22" font-weight="bold" lengthAdjust="spacing" textLength="364.1924" x="621.4487" y="35.9956">Route Warning To HMI Signal Flow</text><text fill="#000000" font-family="Arial" font-size="22" font-weight="bold" lengthAdjust="spacing" textLength="603.1846" x="501.9526" y="61.2935">(Input_Console / NAV -&gt; ADAS -&gt; CGW -&gt; IVI / CLU / AMP)</text><rect fill="#FFFFFF" height="97.5957" style="stroke:#000000;stroke-width:1;" width="10" x="283.9858" y="244.8403"/><rect fill="#FFFFFF" height="204.5425" style="stroke:#000000;stroke-width:1;" width="10" x="445.7588" y="344.436"/><rect fill="#FFFFFF" height="270.4893" style="stroke:#000000;stroke-width:1;" width="10" x="603.8633" y="548.9785"/><rect fill="#FFFFFF" height="284.1382" style="stroke:#000000;stroke-width:1;" width="10" x="820.5723" y="819.4678"/><rect fill="#FFFFFF" height="350.436" style="stroke:#000000;stroke-width:1;" width="10" x="1070.9043" y="1103.606"/><rect fill="#FFFFFF" height="123.8936" style="stroke:#000000;stroke-width:1;" width="10" x="1306.0732" y="1454.042"/><rect fill="#FFFFFF" height="59.2979" style="stroke:#000000;stroke-width:1;" width="10" x="1457.6992" y="1577.9355"/><line style="stroke:#000000;stroke-width:1;" x1="62" x2="62" y1="162.8936" y2="1797.4248"/><line style="stroke:#000000;stroke-width:1;" x1="288.3567" x2="288.3567" y1="162.8936" y2="1797.4248"/><line style="stroke:#000000;stroke-width:1;" x1="450.7266" x2="450.7266" y1="162.8936" y2="1797.4248"/><line style="stroke:#000000;stroke-width:1;" x1="607.9487" x2="607.9487" y1="162.8936" y2="1797.4248"/><line style="stroke:#000000;stroke-width:1;" x1="825.4558" x2="825.4558" y1="162.8936" y2="1797.4248"/><line style="stroke:#000000;stroke-width:1;" x1="1075.4121" x2="1075.4121" y1="162.8936" y2="1797.4248"/><line style="stroke:#000000;stroke-width:1;" x1="1310.2656" x2="1310.2656" y1="162.8936" y2="1797.4248"/><line style="stroke:#000000;stroke-width:1;" x1="1461.8809" x2="1461.8809" y1="162.8936" y2="1797.4248"/><text fill="#000000" font-family="Arial" font-size="11" lengthAdjust="spacing" textLength="29.3315" x="44.9373" y="148.0935">Driver</text><text fill="#000000" font-family="Arial" font-size="11" lengthAdjust="spacing" textLength="75.2061" x="22" y="160.7424">(Input Console)</text><ellipse cx="62.603" cy="85.5957" fill="#F4F7FB" rx="8" ry="8" style="stroke:#000000;stroke-width:1;"/><path d="M62.603,93.5957 L62.603,120.5957 M49.603,101.5957 L75.603,101.5957 M62.603,120.5957 L49.603,135.5957 M62.603,120.5957 L75.603,135.5957 " fill="none" style="stroke:#000000;stroke-width:1;"/><text fill="#000000" font-family="Arial" font-size="11" lengthAdjust="spacing" textLength="29.3315" x="44.9373" y="1806.9226">Driver</text><text fill="#000000" font-family="Arial" font-size="11" lengthAdjust="spacing" textLength="75.2061" x="22" y="1819.5715">(Input Console)</text><ellipse cx="62.603" cy="1830.7227" fill="#F4F7FB" rx="8" ry="8" style="stroke:#000000;stroke-width:1;"/><path d="M62.603,1838.7227 L62.603,1865.7227 M49.603,1846.7227 L75.603,1846.7227 M62.603,1865.7227 L49.603,1880.7227 M62.603,1865.7227 L75.603,1880.7227 " fill="none" style="stroke:#000000;stroke-width:1;"/><rect fill="#E8F0FE" height="39.2979" rx="2.5" ry="2.5" style="stroke:#000000;stroke-width:1;" width="129.2583" x="224.3567" y="122.5957"/><text fill="#000000" font-family="Arial" font-size="11" lengthAdjust="spacing" textLength="70.9414" x="253.5151" y="140.0935">Input_Console</text><text fill="#000000" font-family="Arial" font-size="11" lengthAdjust="spacing" textLength="115.2583" x="231.3567" y="152.7424">Context &gt; Inject / Route</text><rect fill="#E8F0FE" height="39.2979" rx="2.5" ry="2.5" style="stroke:#000000;stroke-width:1;" width="129.2583" x="224.3567" y="1796.4248"/><text fill="#000000" font-family="Arial" font-size="11" lengthAdjust="spacing" textLength="70.9414" x="253.5151" y="1813.9226">Input_Console</text><text fill="#000000" font-family="Arial" font-size="11" lengthAdjust="spacing" textLength="115.2583" x="231.3567" y="1826.5715">Context &gt; Inject / Route</text><rect fill="#E8F7E8" height="39.2979" rx="2.5" ry="2.5" style="stroke:#000000;stroke-width:1;" width="124.0645" x="388.7266" y="122.5957"/><text fill="#000000" font-family="Arial" font-size="11" lengthAdjust="spacing" textLength="22.6177" x="439.45" y="140.0935">NAV</text><text fill="#000000" font-family="Arial" font-size="11" lengthAdjust="spacing" textLength="110.0645" x="395.7266" y="152.7424">route context producer</text><rect fill="#E8F7E8" height="39.2979" rx="2.5" ry="2.5" style="stroke:#000000;stroke-width:1;" width="124.0645" x="388.7266" y="1796.4248"/><text fill="#000000" font-family="Arial" font-size="11" lengthAdjust="spacing" textLength="22.6177" x="439.45" y="1813.9226">NAV</text><text fill="#000000" font-family="Arial" font-size="11" lengthAdjust="spacing" textLength="110.0645" x="395.7266" y="1826.5715">route context producer</text><rect fill="#FCE8FF" height="39.2979" rx="2.5" ry="2.5" style="stroke:#000000;stroke-width:1;" width="111.8291" x="552.9487" y="122.5957"/><text fill="#000000" font-family="Arial" font-size="11" lengthAdjust="spacing" textLength="29.9546" x="593.886" y="140.0935">ADAS</text><text fill="#000000" font-family="Arial" font-size="11" lengthAdjust="spacing" textLength="97.8291" x="559.9487" y="152.7424">alert decision owner</text><rect fill="#FCE8FF" height="39.2979" rx="2.5" ry="2.5" style="stroke:#000000;stroke-width:1;" width="111.8291" x="552.9487" y="1796.4248"/><text fill="#000000" font-family="Arial" font-size="11" lengthAdjust="spacing" textLength="29.9546" x="593.886" y="1813.9226">ADAS</text><text fill="#000000" font-family="Arial" font-size="11" lengthAdjust="spacing" textLength="97.8291" x="559.9487" y="1826.5715">alert decision owner</text><rect fill="#FFF4CC" height="39.2979" rx="2.5" ry="2.5" style="stroke:#000000;stroke-width:1;" width="144.2329" x="753.4558" y="122.5957"/><text fill="#000000" font-family="Arial" font-size="11" lengthAdjust="spacing" textLength="26.8823" x="812.1311" y="140.0935">CGW</text><text fill="#000000" font-family="Arial" font-size="11" lengthAdjust="spacing" textLength="130.2329" x="760.4558" y="152.7424">warning gateway / fail-safe</text><rect fill="#FFF4CC" height="39.2979" rx="2.5" ry="2.5" style="stroke:#000000;stroke-width:1;" width="144.2329" x="753.4558" y="1796.4248"/><text fill="#000000" font-family="Arial" font-size="11" lengthAdjust="spacing" textLength="26.8823" x="812.1311" y="1813.9226">CGW</text><text fill="#000000" font-family="Arial" font-size="11" lengthAdjust="spacing" textLength="130.2329" x="760.4558" y="1826.5715">warning gateway / fail-safe</text><rect fill="#E8F0FE" height="39.2979" rx="2.5" ry="2.5" style="stroke:#000000;stroke-width:1;" width="150.9844" x="1000.4121" y="122.5957"/><text fill="#000000" font-family="Arial" font-size="11" lengthAdjust="spacing" textLength="13.4492" x="1069.1797" y="140.0935">IVI</text><text fill="#000000" font-family="Arial" font-size="11" lengthAdjust="spacing" textLength="136.9844" x="1007.4121" y="152.7424">render / popup / audio focus</text><rect fill="#E8F0FE" height="39.2979" rx="2.5" ry="2.5" style="stroke:#000000;stroke-width:1;" width="150.9844" x="1000.4121" y="1796.4248"/><text fill="#000000" font-family="Arial" font-size="11" lengthAdjust="spacing" textLength="13.4492" x="1069.1797" y="1813.9226">IVI</text><text fill="#000000" font-family="Arial" font-size="11" lengthAdjust="spacing" textLength="136.9844" x="1007.4121" y="1826.5715">render / popup / audio focus</text><rect fill="#E8F0FE" height="39.2979" rx="2.5" ry="2.5" style="stroke:#000000;stroke-width:1;" width="121.6152" x="1250.2656" y="122.5957"/><text fill="#000000" font-family="Arial" font-size="11" lengthAdjust="spacing" textLength="22.0054" x="1300.0706" y="140.0935">CLU</text><text fill="#000000" font-family="Arial" font-size="11" lengthAdjust="spacing" textLength="107.6152" x="1257.2656" y="152.7424">cluster warning output</text><rect fill="#E8F0FE" height="39.2979" rx="2.5" ry="2.5" style="stroke:#000000;stroke-width:1;" width="121.6152" x="1250.2656" y="1796.4248"/><text fill="#000000" font-family="Arial" font-size="11" lengthAdjust="spacing" textLength="22.0054" x="1300.0706" y="1813.9226">CLU</text><text fill="#000000" font-family="Arial" font-size="11" lengthAdjust="spacing" textLength="107.6152" x="1257.2656" y="1826.5715">cluster warning output</text><rect fill="#FFE6E6" height="39.2979" rx="2.5" ry="2.5" style="stroke:#000000;stroke-width:1;" width="121.6367" x="1401.8809" y="122.5957"/><text fill="#000000" font-family="Arial" font-size="11" lengthAdjust="spacing" textLength="23.8369" x="1450.7808" y="140.0935">AMP</text><text fill="#000000" font-family="Arial" font-size="11" lengthAdjust="spacing" textLength="107.6367" x="1408.8809" y="152.7424">ducking / audio output</text><rect fill="#FFE6E6" height="39.2979" rx="2.5" ry="2.5" style="stroke:#000000;stroke-width:1;" width="121.6367" x="1401.8809" y="1796.4248"/><text fill="#000000" font-family="Arial" font-size="11" lengthAdjust="spacing" textLength="23.8369" x="1450.7808" y="1813.9226">AMP</text><text fill="#000000" font-family="Arial" font-size="11" lengthAdjust="spacing" textLength="107.6367" x="1408.8809" y="1826.5715">ducking / audio output</text><rect fill="#FFFFFF" height="97.5957" style="stroke:#000000;stroke-width:1;" width="10" x="283.9858" y="244.8403"/><rect fill="#FFFFFF" height="204.5425" style="stroke:#000000;stroke-width:1;" width="10" x="445.7588" y="344.436"/><rect fill="#FFFFFF" height="270.4893" style="stroke:#000000;stroke-width:1;" width="10" x="603.8633" y="548.9785"/><rect fill="#FFFFFF" height="284.1382" style="stroke:#000000;stroke-width:1;" width="10" x="820.5723" y="819.4678"/><rect fill="#FFFFFF" height="350.436" style="stroke:#000000;stroke-width:1;" width="10" x="1070.9043" y="1103.606"/><rect fill="#FFFFFF" height="123.8936" style="stroke:#000000;stroke-width:1;" width="10" x="1306.0732" y="1454.042"/><rect fill="#FFFFFF" height="59.2979" style="stroke:#000000;stroke-width:1;" width="10" x="1457.6992" y="1577.9355"/><rect fill="#FFFFFF" height="3" style="stroke:#FFFFFF;stroke-width:1;" width="1598.0898" x="5" y="192.218"/><line style="stroke:#000000;stroke-width:0.5;" x1="5" x2="1603.0898" y1="192.218" y2="192.218"/><line style="stroke:#000000;stroke-width:0.5;" x1="5" x2="1603.0898" y1="195.218" y2="195.218"/><rect fill="#FFFFFF" height="20.6489" style="stroke:#000000;stroke-width:1;" width="140.5" x="733.7949" y="182.8936"/><text fill="#000000" font-family="Arial" font-size="11" font-weight="bold" lengthAdjust="spacing" textLength="123.4438" x="739.7949" y="197.3914">Route Context Injection</text><polygon fill="#000000" points="271.9858,240.8403,281.9858,244.8403,271.9858,248.8403,275.9858,244.8403" style="stroke:#000000;stroke-width:1;"/><line style="stroke:#000000;stroke-width:1;" x1="62.603" x2="277.9858" y1="244.8403" y2="244.8403"/><text fill="#000000" font-family="Arial" font-size="11" lengthAdjust="spacing" textLength="138.7461" x="103.9214" y="228.0403">Set ROAD ZONE / NAV DIR</text><text fill="#000000" font-family="Arial" font-size="11" lengthAdjust="spacing" textLength="121.623" x="112.4829" y="240.6892">ZONE DIST / SPD LIMIT</text><line style="stroke:#000000;stroke-width:1;" x1="293.9858" x2="335.9858" y1="284.1382" y2="284.1382"/><line style="stroke:#000000;stroke-width:1;" x1="335.9858" x2="335.9858" y1="284.1382" y2="297.1382"/><line style="stroke:#000000;stroke-width:1;" x1="294.9858" x2="335.9858" y1="297.1382" y2="297.1382"/><polygon fill="#000000" points="304.9858,293.1382,294.9858,297.1382,304.9858,301.1382,300.9858,297.1382" style="stroke:#000000;stroke-width:1;"/><text fill="#000000" font-family="Arial" font-size="11" lengthAdjust="spacing" textLength="108.2114" x="300.9858" y="267.3381">Write Inject::roadZone</text><text fill="#000000" font-family="Arial" font-size="11" lengthAdjust="spacing" textLength="93.543" x="308.3201" y="279.9871">Inject::navDirection</text><line style="stroke:#000000;stroke-width:1;" x1="293.9858" x2="335.9858" y1="341.436" y2="341.436"/><line style="stroke:#000000;stroke-width:1;" x1="335.9858" x2="335.9858" y1="341.436" y2="354.436"/><line style="stroke:#000000;stroke-width:1;" x1="288.9858" x2="335.9858" y1="354.436" y2="354.436"/><polygon fill="#000000" points="298.9858,350.436,288.9858,354.436,298.9858,358.436,294.9858,354.436" style="stroke:#000000;stroke-width:1;"/><text fill="#000000" font-family="Arial" font-size="11" lengthAdjust="spacing" textLength="127.7729" x="300.9858" y="324.636">Write Inject::zoneDistance</text><text fill="#000000" font-family="Arial" font-size="11" lengthAdjust="spacing" textLength="85.5991" x="322.0728" y="337.2849">Inject::speedLimit</text><rect fill="#FFFFFF" height="3" style="stroke:#FFFFFF;stroke-width:1;" width="1598.0898" x="5" y="376.7605"/><line style="stroke:#000000;stroke-width:0.5;" x1="5" x2="1603.0898" y1="376.7605" y2="376.7605"/><line style="stroke:#000000;stroke-width:0.5;" x1="5" x2="1603.0898" y1="379.7605" y2="379.7605"/><rect fill="#FFFFFF" height="20.6489" style="stroke:#000000;stroke-width:1;" width="127.0615" x="740.5142" y="367.436"/><text fill="#000000" font-family="Arial" font-size="11" font-weight="bold" lengthAdjust="spacing" textLength="110.0054" x="746.5142" y="381.9338">NAV Context Publish</text><polygon fill="#000000" points="433.7588,412.7339,443.7588,416.7339,433.7588,420.7339,437.7588,416.7339" style="stroke:#000000;stroke-width:1;"/><line style="stroke:#000000;stroke-width:1;" x1="288.9858" x2="439.7588" y1="416.7339" y2="416.7339"/><text fill="#000000" font-family="Arial" font-size="11" lengthAdjust="spacing" textLength="103.3345" x="315.7051" y="412.5828">Inject::* route context</text><line style="stroke:#000000;stroke-width:1;" x1="455.7588" x2="497.7588" y1="456.0317" y2="456.0317"/><line style="stroke:#000000;stroke-width:1;" x1="497.7588" x2="497.7588" y1="456.0317" y2="469.0317"/><line style="stroke:#000000;stroke-width:1;" x1="456.7588" x2="497.7588" y1="469.0317" y2="469.0317"/><polygon fill="#000000" points="466.7588,465.0317,456.7588,469.0317,466.7588,473.0317,462.7588,469.0317" style="stroke:#000000;stroke-width:1;"/><text fill="#000000" font-family="Arial" font-size="11" lengthAdjust="spacing" textLength="114.9414" x="467.3403" y="439.2317">calcBaseZoneContext()</text><text fill="#000000" font-family="Arial" font-size="11" lengthAdjust="spacing" textLength="124.1045" x="462.7588" y="451.8806">calcEffectiveSpeedLimit()</text><polygon fill="#000000" points="596.8633,491.6807,606.8633,495.6807,596.8633,499.6807,600.8633,495.6807" style="stroke:#000000;stroke-width:1;"/><line style="stroke:#000000;stroke-width:1;" x1="455.7588" x2="602.8633" y1="495.6807" y2="495.6807"/><text fill="#000000" font-family="Arial" font-size="11" lengthAdjust="spacing" textLength="117.9868" x="473.3176" y="491.5295">frmNavModuleStateMsg</text><polygon fill="#000000" points="813.5723,518.3296,823.5723,522.3296,813.5723,526.3296,817.5723,522.3296" style="stroke:#000000;stroke-width:1;"/><line style="stroke:#000000;stroke-width:1;" x1="455.7588" x2="819.5723" y1="522.3296" y2="522.3296"/><text fill="#000000" font-family="Arial" font-size="11" lengthAdjust="spacing" textLength="117.9922" x="581.6694" y="518.1785">frmNavigationRouteMsg</text><polygon fill="#000000" points="1063.9043,544.9785,1073.9043,548.9785,1063.9043,552.9785,1067.9043,548.9785" style="stroke:#000000;stroke-width:1;"/><line style="stroke:#000000;stroke-width:1;" x1="450.7588" x2="1069.9043" y1="548.9785" y2="548.9785"/><text fill="#000000" font-family="Arial" font-size="11" lengthAdjust="spacing" textLength="117.9922" x="704.3354" y="544.8274">frmNavigationRouteMsg</text><path d="M455,561.9785 L455,621.9785 L683,621.9785 L683,571.9785 L673,561.9785 L455,561.9785 " fill="#FFFFFF" style="stroke:#000000;stroke-width:1;"/><path d="M673,561.9785 L673,571.9785 L683,571.9785 L673,561.9785 " fill="#FFFFFF" style="stroke:#000000;stroke-width:1;"/><text fill="#000000" font-family="Arial" font-size="11" lengthAdjust="spacing" textLength="113.126" x="461" y="577.4763">Representative outputs</text><text fill="#000000" font-family="Arial" font-size="11" lengthAdjust="spacing" textLength="124.7061" x="461" y="590.1252">- frmNavModuleStateMsg</text><text fill="#000000" font-family="Arial" font-size="11" lengthAdjust="spacing" textLength="124.7114" x="461" y="602.7742">- frmNavigationRouteMsg</text><text fill="#000000" font-family="Arial" font-size="11" lengthAdjust="spacing" textLength="207.8774" x="461" y="615.4231">- route class / guide / distance / speed limit</text><rect fill="#FFFFFF" height="3" style="stroke:#FFFFFF;stroke-width:1;" width="1598.0898" x="5" y="646.8987"/><line style="stroke:#000000;stroke-width:0.5;" x1="5" x2="1603.0898" y1="646.8987" y2="646.8987"/><line style="stroke:#000000;stroke-width:0.5;" x1="5" x2="1603.0898" y1="649.8987" y2="649.8987"/><rect fill="#FFFFFF" height="20.6489" style="stroke:#000000;stroke-width:1;" width="97.1284" x="755.4807" y="637.5742"/><text fill="#000000" font-family="Arial" font-size="11" font-weight="bold" lengthAdjust="spacing" textLength="80.0723" x="761.4807" y="652.072">ADAS Decision</text><polygon fill="#000000" points="591.8633,682.8721,601.8633,686.8721,591.8633,690.8721,595.8633,686.8721" style="stroke:#000000;stroke-width:1;"/><line style="stroke:#000000;stroke-width:1;" x1="450.7588" x2="597.8633" y1="686.8721" y2="686.8721"/><text fill="#000000" font-family="Arial" font-size="11" lengthAdjust="spacing" textLength="117.9868" x="468.3176" y="682.7209">frmNavModuleStateMsg</text><line style="stroke:#000000;stroke-width:1;" x1="613.8633" x2="655.8633" y1="713.521" y2="713.521"/><line style="stroke:#000000;stroke-width:1;" x1="655.8633" x2="655.8633" y1="713.521" y2="726.521"/><line style="stroke:#000000;stroke-width:1;" x1="614.8633" x2="655.8633" y1="726.521" y2="726.521"/><polygon fill="#000000" points="624.8633,722.521,614.8633,726.521,624.8633,730.521,620.8633,726.521" style="stroke:#000000;stroke-width:1;"/><text fill="#000000" font-family="Arial" font-size="11" lengthAdjust="spacing" textLength="176.0859" x="620.8633" y="709.3699">baseZoneContext / speedLimitNorm</text><line style="stroke:#000000;stroke-width:1;" x1="613.8633" x2="655.8633" y1="753.1699" y2="753.1699"/><line style="stroke:#000000;stroke-width:1;" x1="655.8633" x2="655.8633" y1="753.1699" y2="766.1699"/><line style="stroke:#000000;stroke-width:1;" x1="614.8633" x2="655.8633" y1="766.1699" y2="766.1699"/><polygon fill="#000000" points="624.8633,762.1699,614.8633,766.1699,624.8633,770.1699,620.8633,766.1699" style="stroke:#000000;stroke-width:1;"/><text fill="#000000" font-family="Arial" font-size="11" lengthAdjust="spacing" textLength="165.6929" x="620.8633" y="749.0188">selectedAlertDecisionLevel / Type</text><polygon fill="#000000" points="813.5723,788.8188,823.5723,792.8188,813.5723,796.8188,817.5723,792.8188" style="stroke:#000000;stroke-width:1;"/><line style="stroke:#000000;stroke-width:1;" x1="613.8633" x2="819.5723" y1="792.8188" y2="792.8188"/><text fill="#000000" font-family="Arial" font-size="11" lengthAdjust="spacing" textLength="187.709" x="625.8633" y="788.6677">CoreState::selectedAlertDecisionLevel</text><polygon fill="#000000" points="808.5723,815.4678,818.5723,819.4678,808.5723,823.4678,812.5723,819.4678" style="stroke:#000000;stroke-width:1;"/><line style="stroke:#000000;stroke-width:1;" x1="608.8633" x2="814.5723" y1="819.4678" y2="819.4678"/><text fill="#000000" font-family="Arial" font-size="11" lengthAdjust="spacing" textLength="185.8667" x="621.7844" y="815.3167">CoreState::selectedAlertDecisionType</text><path d="M613,832.4678 L613,892.4678 L787,892.4678 L787,842.4678 L777,832.4678 L613,832.4678 " fill="#FFFFFF" style="stroke:#000000;stroke-width:1;"/><path d="M777,832.4678 L777,842.4678 L787,842.4678 L777,832.4678 " fill="#FFFFFF" style="stroke:#000000;stroke-width:1;"/><text fill="#000000" font-family="Arial" font-size="11" lengthAdjust="spacing" textLength="99.666" x="619" y="847.9656">Representative logic</text><text fill="#000000" font-family="Arial" font-size="11" lengthAdjust="spacing" textLength="149.8105" x="619" y="860.6145">- road/speed warning selection</text><text fill="#000000" font-family="Arial" font-size="11" lengthAdjust="spacing" textLength="153.4629" x="619" y="873.2634">- zone-adjusted warning priority</text><text fill="#000000" font-family="Arial" font-size="11" lengthAdjust="spacing" textLength="150.9976" x="619" y="885.9124">- direct write to decision seams</text><rect fill="#FFFFFF" height="3" style="stroke:#FFFFFF;stroke-width:1;" width="1598.0898" x="5" y="917.3879"/><line style="stroke:#000000;stroke-width:0.5;" x1="5" x2="1603.0898" y1="917.3879" y2="917.3879"/><line style="stroke:#000000;stroke-width:0.5;" x1="5" x2="1603.0898" y1="920.3879" y2="920.3879"/><rect fill="#FFFFFF" height="20.6489" style="stroke:#000000;stroke-width:1;" width="120.3584" x="743.8657" y="908.0635"/><text fill="#000000" font-family="Arial" font-size="11" font-weight="bold" lengthAdjust="spacing" textLength="103.3022" x="749.8657" y="922.5613">CGW Effective Gate</text><polygon fill="#000000" points="808.5723,953.3613,818.5723,957.3613,808.5723,961.3613,812.5723,957.3613" style="stroke:#000000;stroke-width:1;"/><line style="stroke:#000000;stroke-width:1;" x1="450.7588" x2="814.5723" y1="957.3613" y2="957.3613"/><text fill="#000000" font-family="Arial" font-size="11" lengthAdjust="spacing" textLength="117.9922" x="576.6694" y="953.2102">frmNavigationRouteMsg</text><polygon fill="#000000" points="808.5723,980.0103,818.5723,984.0103,808.5723,988.0103,812.5723,984.0103" style="stroke:#000000;stroke-width:1;"/><line style="stroke:#000000;stroke-width:1;" x1="608.8633" x2="814.5723" y1="984.0103" y2="984.0103"/><text fill="#000000" font-family="Arial" font-size="11" lengthAdjust="spacing" textLength="75.813" x="676.8113" y="979.8591">decision seams</text><line style="stroke:#000000;stroke-width:1;" x1="830.5723" x2="872.5723" y1="1010.6592" y2="1010.6592"/><line style="stroke:#000000;stroke-width:1;" x1="872.5723" x2="872.5723" y1="1010.6592" y2="1023.6592"/><line style="stroke:#000000;stroke-width:1;" x1="831.5723" x2="872.5723" y1="1023.6592" y2="1023.6592"/><polygon fill="#000000" points="841.5723,1019.6592,831.5723,1023.6592,841.5723,1027.6592,837.5723,1023.6592" style="stroke:#000000;stroke-width:1;"/><text fill="#000000" font-family="Arial" font-size="11" lengthAdjust="spacing" textLength="192.6128" x="837.5723" y="1006.5081">apply timeout / boundary / fail-safe gate</text><polygon fill="#000000" points="1063.9043,1046.3081,1073.9043,1050.3081,1063.9043,1054.3081,1067.9043,1050.3081" style="stroke:#000000;stroke-width:1;"/><line style="stroke:#000000;stroke-width:1;" x1="830.5723" x2="1069.9043" y1="1050.3081" y2="1050.3081"/><text fill="#000000" font-family="Arial" font-size="11" lengthAdjust="spacing" textLength="221.332" x="842.5723" y="1046.157">CoreState::selectedAlertEffectiveLevel / Type</text><polygon fill="#000000" points="1299.0732,1072.957,1309.0732,1076.957,1299.0732,1080.957,1303.0732,1076.957" style="stroke:#000000;stroke-width:1;"/><line style="stroke:#000000;stroke-width:1;" x1="830.5723" x2="1305.0732" y1="1076.957" y2="1076.957"/><text fill="#000000" font-family="Arial" font-size="11" lengthAdjust="spacing" textLength="221.332" x="960.1567" y="1072.8059">CoreState::selectedAlertEffectiveLevel / Type</text><polygon fill="#000000" points="1450.6992,1099.606,1460.6992,1103.606,1450.6992,1107.606,1454.6992,1103.606" style="stroke:#000000;stroke-width:1;"/><line style="stroke:#000000;stroke-width:1;" x1="825.5723" x2="1456.6992" y1="1103.606" y2="1103.606"/><text fill="#000000" font-family="Arial" font-size="11" lengthAdjust="spacing" textLength="305.1157" x="991.5779" y="1099.4548">CoreState::selectedAlertEffectiveLevel via IVI audio focus path</text><path d="M830,1116.606 L830,1176.606 L989,1176.606 L989,1126.606 L979,1116.606 L830,1116.606 " fill="#FFFFFF" style="stroke:#000000;stroke-width:1;"/><path d="M979,1116.606 L979,1126.606 L989,1126.606 L979,1116.606 " fill="#FFFFFF" style="stroke:#000000;stroke-width:1;"/><text fill="#000000" font-family="Arial" font-size="11" lengthAdjust="spacing" textLength="81.3237" x="836" y="1132.1038">Effective outputs</text><text fill="#000000" font-family="Arial" font-size="11" lengthAdjust="spacing" textLength="138.7891" x="836" y="1144.7527">- selectedAlertEffectiveLevel</text><text fill="#000000" font-family="Arial" font-size="11" lengthAdjust="spacing" textLength="136.9468" x="836" y="1157.4016">- selectedAlertEffectiveType</text><text fill="#000000" font-family="Arial" font-size="11" lengthAdjust="spacing" textLength="132.0698" x="836" y="1170.0505">- selectedAlertGateReason</text><rect fill="#FFFFFF" height="3" style="stroke:#FFFFFF;stroke-width:1;" width="1598.0898" x="5" y="1201.5261"/><line style="stroke:#000000;stroke-width:0.5;" x1="5" x2="1603.0898" y1="1201.5261" y2="1201.5261"/><line style="stroke:#000000;stroke-width:0.5;" x1="5" x2="1603.0898" y1="1204.5261" y2="1204.5261"/><rect fill="#FFFFFF" height="20.6489" style="stroke:#000000;stroke-width:1;" width="94.6685" x="756.7107" y="1192.2017"/><text fill="#000000" font-family="Arial" font-size="11" font-weight="bold" lengthAdjust="spacing" textLength="77.6123" x="762.7107" y="1206.6995">HMI Rendering</text><polygon fill="#000000" points="1058.9043,1237.4995,1068.9043,1241.4995,1058.9043,1245.4995,1062.9043,1241.4995" style="stroke:#000000;stroke-width:1;"/><line style="stroke:#000000;stroke-width:1;" x1="825.5723" x2="1064.9043" y1="1241.4995" y2="1241.4995"/><text fill="#000000" font-family="Arial" font-size="11" lengthAdjust="spacing" textLength="100.8745" x="897.801" y="1237.3484">effective alert seams</text><line style="stroke:#000000;stroke-width:1;" x1="1080.9043" x2="1122.9043" y1="1268.1484" y2="1268.1484"/><line style="stroke:#000000;stroke-width:1;" x1="1122.9043" x2="1122.9043" y1="1268.1484" y2="1281.1484"/><line style="stroke:#000000;stroke-width:1;" x1="1081.9043" x2="1122.9043" y1="1281.1484" y2="1281.1484"/><polygon fill="#000000" points="1091.9043,1277.1484,1081.9043,1281.1484,1091.9043,1285.1484,1087.9043,1281.1484" style="stroke:#000000;stroke-width:1;"/><text fill="#000000" font-family="Arial" font-size="11" lengthAdjust="spacing" textLength="125.936" x="1087.9043" y="1263.9973">deriveWarningTextCode()</text><line style="stroke:#000000;stroke-width:1;" x1="1080.9043" x2="1122.9043" y1="1307.7974" y2="1307.7974"/><line style="stroke:#000000;stroke-width:1;" x1="1122.9043" x2="1122.9043" y1="1307.7974" y2="1320.7974"/><line style="stroke:#000000;stroke-width:1;" x1="1081.9043" x2="1122.9043" y1="1320.7974" y2="1320.7974"/><polygon fill="#000000" points="1091.9043,1316.7974,1081.9043,1320.7974,1091.9043,1324.7974,1087.9043,1320.7974" style="stroke:#000000;stroke-width:1;"/><text fill="#000000" font-family="Arial" font-size="11" lengthAdjust="spacing" textLength="201.1689" x="1087.9043" y="1303.6462">derive roadZoneColorCode / renderMode</text><polygon fill="#000000" points="1299.0732,1343.4463,1309.0732,1347.4463,1299.0732,1351.4463,1303.0732,1347.4463" style="stroke:#000000;stroke-width:1;"/><line style="stroke:#000000;stroke-width:1;" x1="1080.9043" x2="1305.0732" y1="1347.4463" y2="1347.4463"/><text fill="#000000" font-family="Arial" font-size="11" lengthAdjust="spacing" textLength="112.4653" x="1139.7561" y="1343.2952">frmClusterWarningMsg</text><polygon fill="#000000" points="1299.0732,1370.0952,1309.0732,1374.0952,1299.0732,1378.0952,1303.0732,1374.0952" style="stroke:#000000;stroke-width:1;"/><line style="stroke:#000000;stroke-width:1;" x1="1080.9043" x2="1305.0732" y1="1374.0952" y2="1374.0952"/><text fill="#000000" font-family="Arial" font-size="11" lengthAdjust="spacing" textLength="94.123" x="1148.9272" y="1369.9441">frmClusterNotifMsg</text><polygon fill="#000000" points="1299.0732,1396.7441,1309.0732,1400.7441,1299.0732,1404.7441,1303.0732,1400.7441" style="stroke:#000000;stroke-width:1;"/><line style="stroke:#000000;stroke-width:1;" x1="1080.9043" x2="1305.0732" y1="1400.7441" y2="1400.7441"/><text fill="#000000" font-family="Arial" font-size="11" lengthAdjust="spacing" textLength="113.7061" x="1139.1357" y="1396.593">frmHmiPopupStateMsg</text><polygon fill="#000000" points="1450.6992,1423.3931,1460.6992,1427.3931,1450.6992,1431.3931,1454.6992,1427.3931" style="stroke:#000000;stroke-width:1;"/><line style="stroke:#000000;stroke-width:1;" x1="1080.9043" x2="1456.6992" y1="1427.3931" y2="1427.3931"/><text fill="#000000" font-family="Arial" font-size="11" lengthAdjust="spacing" textLength="94.7515" x="1224.426" y="1423.2419">frmAudioFocusMsg</text><polygon fill="#000000" points="1450.6992,1450.042,1460.6992,1454.042,1450.6992,1458.042,1454.6992,1454.042" style="stroke:#000000;stroke-width:1;"/><line style="stroke:#000000;stroke-width:1;" x1="1075.9043" x2="1456.6992" y1="1454.042" y2="1454.042"/><text fill="#000000" font-family="Arial" font-size="11" lengthAdjust="spacing" textLength="92.3076" x="1223.1479" y="1449.8909">frmMediaStateMsg</text><path d="M1080,1467.042 L1080,1527.042 L1259,1527.042 L1259,1477.042 L1249,1467.042 L1080,1467.042 " fill="#FFFFFF" style="stroke:#000000;stroke-width:1;"/><path d="M1249,1467.042 L1249,1477.042 L1259,1477.042 L1249,1467.042 " fill="#FFFFFF" style="stroke:#000000;stroke-width:1;"/><text fill="#000000" font-family="Arial" font-size="11" lengthAdjust="spacing" textLength="102.7114" x="1086" y="1482.5398">Visible/render seams</text><text fill="#000000" font-family="Arial" font-size="11" lengthAdjust="spacing" textLength="149.1929" x="1086" y="1495.1887">- UiRender::warningBeepState</text><text fill="#000000" font-family="Arial" font-size="11" lengthAdjust="spacing" textLength="158.9683" x="1086" y="1507.8376">- UiRender::roadZoneColorCode</text><text fill="#000000" font-family="Arial" font-size="11" lengthAdjust="spacing" textLength="133.8853" x="1086" y="1520.4866">- Cluster::warningTextCode</text><polygon fill="#000000" points="1294.0732,1547.2866,1304.0732,1551.2866,1294.0732,1555.2866,1298.0732,1551.2866" style="stroke:#000000;stroke-width:1;"/><line style="stroke:#000000;stroke-width:1;" x1="1075.9043" x2="1300.0732" y1="1551.2866" y2="1551.2866"/><text fill="#000000" font-family="Arial" font-size="11" lengthAdjust="spacing" textLength="143.6929" x="1119.1423" y="1547.1355">cluster warning / notif / popup</text><polygon fill="#000000" points="299.9858,1573.9355,289.9858,1577.9355,299.9858,1581.9355,295.9858,1577.9355" style="stroke:#000000;stroke-width:1;"/><line style="stroke:#000000;stroke-width:1;" x1="293.9858" x2="1310.0732" y1="1577.9355" y2="1577.9355"/><text fill="#000000" font-family="Arial" font-size="11" lengthAdjust="spacing" textLength="137.5752" x="731.2419" y="1573.7844">warning text / notif readback</text><polygon fill="#000000" points="1445.6992,1600.5845,1455.6992,1604.5845,1445.6992,1608.5845,1449.6992,1604.5845" style="stroke:#000000;stroke-width:1;"/><line style="stroke:#000000;stroke-width:1;" x1="1075.9043" x2="1451.6992" y1="1604.5845" y2="1604.5845"/><text fill="#000000" font-family="Arial" font-size="11" lengthAdjust="spacing" textLength="122.2944" x="1205.6545" y="1600.4333">audio focus / media state</text><line style="stroke:#000000;stroke-width:1;" x1="1467.6992" x2="1509.6992" y1="1636.2334" y2="1636.2334"/><line style="stroke:#000000;stroke-width:1;" x1="1509.6992" x2="1509.6992" y1="1636.2334" y2="1649.2334"/><line style="stroke:#000000;stroke-width:1;" x1="1462.6992" x2="1509.6992" y1="1649.2334" y2="1649.2334"/><polygon fill="#000000" points="1472.6992,1645.2334,1462.6992,1649.2334,1472.6992,1653.2334,1468.6992,1649.2334" style="stroke:#000000;stroke-width:1;"/><text fill="#000000" font-family="Arial" font-size="11" lengthAdjust="spacing" textLength="106.3906" x="1474.6992" y="1632.0823">ducking / focus owner</text><polygon fill="#000000" points="73.603,1652.2334,63.603,1656.2334,73.603,1660.2334,69.603,1656.2334" style="stroke:#000000;stroke-width:1;"/><line style="stroke:#000000;stroke-width:1;" x1="67.603" x2="287.9858" y1="1656.2334" y2="1656.2334"/><text fill="#000000" font-family="Arial" font-size="11" lengthAdjust="spacing" textLength="202.3828" x="74.603" y="1667.7312">Route warning is visible in cluster / popup</text><text fill="#000000" font-family="Arial" font-size="11" lengthAdjust="spacing" textLength="168.1904" x="91.6992" y="1680.3801">and audible through audio ducking</text><path d="M10,1696.5313 L10,1781.5313 L1516,1781.5313 L1516,1706.5313 L1506,1696.5313 L10,1696.5313 " fill="#FFFFFF" style="stroke:#000000;stroke-width:1;"/><path d="M1506,1696.5313 L1506,1706.5313 L1516,1706.5313 L1506,1696.5313 " fill="#FFFFFF" style="stroke:#000000;stroke-width:1;"/><text fill="#000000" font-family="Arial" font-size="11" lengthAdjust="spacing" textLength="143.0752" x="640.4417" y="1712.0291">Representative runtime chain</text><text fill="#000000" font-family="Arial" font-size="11" lengthAdjust="spacing" textLength="184.0566" x="640.4417" y="1724.678">1. Input_Console injects route context</text><text fill="#000000" font-family="Arial" font-size="11" lengthAdjust="spacing" textLength="192.6021" x="640.4417" y="1737.3269">2. NAV publishes route/state messages</text><text fill="#000000" font-family="Arial" font-size="11" lengthAdjust="spacing" textLength="174.2598" x="640.4417" y="1749.9758">3. ADAS decides warning level/type</text><text fill="#000000" font-family="Arial" font-size="11" lengthAdjust="spacing" textLength="201.7598" x="640.4417" y="1762.6248">4. CGW gates decision into effective alert</text><text fill="#000000" font-family="Arial" font-size="11" lengthAdjust="spacing" textLength="236.6343" x="640.4417" y="1775.2737">5. IVI / CLU / AMP render text, popup, and audio</text><!--SRC=[dLTjRnf74Fv-ls9hVx4hO-hMJI9KLyAy94Y6ME0NAKAgrdS3R7piNdRteCwlxyo-77SKjsxp8RQPz-UPcHr-i2jO0ojoBcHYdeKikEPhziJJvwLMfSnwAbUQ7G_Tlvf61WjUvdQef9rmzD3LWkU7vJFn7TZ5HKreu5i9CeKn6CENqCt5Kh8Kf0LTqz9W2YLDrBg6N6sxMgijixg49B72vi2cghJ07hcMGYxPdMAVnYCsGuSyPqEqcCkJaInA-qSFVIaqQBD9zu6rVcVTVdT6FtiV7-d7w664ijxDFVxV7T-U9WbFBTP-rDTY0phwOS7FwH7ZXdaPudCvV3-yJZ1nAr9HS6dPKIFiNE8l5lwq32F9hv1Q3EDoTtvkkOIS7Gy-37yQ3ffkCDkvrAxADBWejChA5BGpfMh8yFtWGzEGwfiZ3A0jqf4A8vHaQYk3dIl_UDX3qs7J406Posr0TCajRFaBPhlW8cyPll0P4shK5fUztbxP3oFC5sI6kBHPeOgom9-yp8HY2vMMnfaJsWVBHGBcCirBWyt0OX9OFMBfuo911msHixb4M9x980Qi6QAS4Xwy6xnBagkhq3YH5Sy98NHrbII1LkmAJqo7pS2owUTkdttvF1c47kgFfdFf_kwFPdVuuUospsv6uz4TjOxO87BUFl5UQkuUjK2X3zhfQCMpBqfYayHF9D_qXVOP_PlrTxJi2sCvJjJEWoa0iXkn5ZR9O2yTAfyAYCNVba-vC2jNUgMA2hl8fDsf8lx86lsOX87oIYdFqsjkW0eA0KvEaLByUB1OK4aRc5N9dPmczN7ii8LUJ_XcZ0sUmynY8cEpZ2hKSr53O6CYE8x5cWhrrMigKc7EMYnNbgc5gsyA1MuPN3oSiWhTOfBMuInQh_XjHJXoRWosmR8K6UsPB922lpesMExemD5Wb4gT5qg6M74WzEEmDlWWqLkmYcijw3mrgOYvEF0dIg_tzGtao15aNTeRCPCRs60VjDdTIm59VMzsi8UqZuqjzwhfVxHnOPfikUhtwChLKgGEVPwrFS9nONYtD3mjHlFHujbNMYaxZK8BXMFqWWgPcpIsTLDbrMvP6k1hSv0lbmuHHWLLRSq-agp16ihVqhrDVFOI20-Kb_6Yo5-O5Mj0MwJaYLvfhXiBsYtjfFQklGvvbNk3uXWHT-t_DALj-sRJZU0kpTeZmGfkLtizG5ZkiDuDwp-uVbNgSjqJ4djJu0QxvX3d59uefmDZwjutwgC6srX44tQeqlNli2UKP9KA-Tb0E63kS4HxAWDSYmUKM7met5L6UeYwVsfn2K0qyRHXe_NyCnfyKv-zeZ5HLYmEoJ-jnIszuDLs2GgUNbJe4cL3OkoGT0oPu9Ljaqt2wW7R_2c7TZWNF3ejTYyylfrEcDPh09z2G_WtD50Q2gei8w076QKKQgDwSz-iV_yAQPC3iOXNJK9QjLSvgeKrwtKry8okwKOZOQ3QNX_VDd6hJq6RhGb2Pbpn9A_KTgUELtMNNMD7eUDuoVpMgjBqTqzCLXYSFaS24xAgE5I8roEYHlcGtAxmcLkkGduXVE9PLHJ4npfpWVTMjIubhIoMhkYBniKvQzxamXqMPk-i-FdSdHI5lquWYDiE2yJ5VIimoI_d_kcYfPcXKgmif_blMvhpotEtF6ahcjro5H9t_Tw09h-UxtyH20FcQ3tpk9onY8lQzTLV]--></g></svg>