<svg xmlns="http://www.w3.org/2000/svg" xmlns:xlink="http://www.w3.org/1999/xlink" contentStyleType="text/css" height="867px" preserveAspectRatio="none" style="width:808px;height:867px;background:#FFFFFF;" version="1.1" viewBox="0 0 808 867" width="808px" zoomAndPan="magnify"><title>Route Activity To IBOX Link State Signal Flow</title><defs/><g><text fill="#000000" font-family="Arial" font-size="22" font-weight="bold" lengthAdjust="spacing" textLength="480.3799" x="162.5782" y="35.9956">Route Activity To IBOX Link State Signal Flow</text><text fill="#000000" font-family="Arial" font-size="22" font-weight="bold" lengthAdjust="spacing" textLength="737.1934" x="34.1715" y="61.2935">(route activity + boundary/service context -&gt; IBOX link and route state)</text><line style="stroke:#000000;stroke-width:1;" x1="84" x2="84" y1="116.8936" y2="823.0103"/><line style="stroke:#000000;stroke-width:1;" x1="253.356" x2="253.356" y1="116.8936" y2="823.0103"/><line style="stroke:#000000;stroke-width:1;" x1="576.8528" x2="576.8528" y1="116.8936" y2="823.0103"/><line style="stroke:#000000;stroke-width:1;" x1="728.2795" x2="728.2795" y1="116.8936" y2="823.0103"/><rect fill="#F4F7FB" height="39.2979" rx="2.5" ry="2.5" style="stroke:#000000;stroke-width:1;" width="128.356" x="20" y="76.5957"/><text fill="#000000" font-family="Arial" font-size="11" lengthAdjust="spacing" textLength="114.356" x="27" y="94.0935">Road zone / boundary /</text><text fill="#000000" font-family="Arial" font-size="11" lengthAdjust="spacing" textLength="73.3638" x="47.4961" y="106.7424">service context</text><rect fill="#F4F7FB" height="39.2979" rx="2.5" ry="2.5" style="stroke:#000000;stroke-width:1;" width="128.356" x="20" y="822.0103"/><text fill="#000000" font-family="Arial" font-size="11" lengthAdjust="spacing" textLength="114.356" x="27" y="839.5081">Road zone / boundary /</text><text fill="#000000" font-family="Arial" font-size="11" lengthAdjust="spacing" textLength="73.3638" x="47.4961" y="852.157">service context</text><rect fill="#E8F7E8" height="39.2979" rx="2.5" ry="2.5" style="stroke:#000000;stroke-width:1;" width="150.9683" x="178.356" y="76.5957"/><text fill="#000000" font-family="Arial" font-size="11" lengthAdjust="spacing" textLength="26.2861" x="240.697" y="94.0935">IBOX</text><text fill="#000000" font-family="Arial" font-size="11" lengthAdjust="spacing" textLength="136.9683" x="185.356" y="106.7424">infotainment gateway owner</text><rect fill="#E8F7E8" height="39.2979" rx="2.5" ry="2.5" style="stroke:#000000;stroke-width:1;" width="150.9683" x="178.356" y="822.0103"/><text fill="#000000" font-family="Arial" font-size="11" lengthAdjust="spacing" textLength="26.2861" x="240.697" y="839.5081">IBOX</text><text fill="#000000" font-family="Arial" font-size="11" lengthAdjust="spacing" textLength="136.9683" x="185.356" y="852.157">infotainment gateway owner</text><rect fill="#FFF4CC" height="26.6489" rx="2.5" ry="2.5" style="stroke:#000000;stroke-width:1;" width="87.9814" x="533.8528" y="89.2446"/><text fill="#000000" font-family="Arial" font-size="11" lengthAdjust="spacing" textLength="73.9814" x="540.8528" y="106.7424">IBOX state bus</text><rect fill="#FFF4CC" height="26.6489" rx="2.5" ry="2.5" style="stroke:#000000;stroke-width:1;" width="87.9814" x="533.8528" y="822.0103"/><text fill="#000000" font-family="Arial" font-size="11" lengthAdjust="spacing" textLength="73.9814" x="540.8528" y="839.5081">IBOX state bus</text><rect fill="#E8F0FE" height="26.6489" rx="2.5" ry="2.5" style="stroke:#000000;stroke-width:1;" width="114.2568" x="671.2795" y="89.2446"/><text fill="#000000" font-family="Arial" font-size="11" lengthAdjust="spacing" textLength="100.2568" x="678.2795" y="106.7424">Observers / IVI state</text><rect fill="#E8F0FE" height="26.6489" rx="2.5" ry="2.5" style="stroke:#000000;stroke-width:1;" width="114.2568" x="671.2795" y="822.0103"/><text fill="#000000" font-family="Arial" font-size="11" lengthAdjust="spacing" textLength="100.2568" x="678.2795" y="839.5081">Observers / IVI state</text><rect fill="#FFFFFF" height="3" style="stroke:#FFFFFF;stroke-width:1;" width="796.5364" x="5" y="146.218"/><line style="stroke:#000000;stroke-width:0.5;" x1="5" x2="801.5364" y1="146.218" y2="146.218"/><line style="stroke:#000000;stroke-width:0.5;" x1="5" x2="801.5364" y1="149.218" y2="149.218"/><rect fill="#FFFFFF" height="20.6489" style="stroke:#000000;stroke-width:1;" width="84.27" x="361.1332" y="136.8936"/><text fill="#000000" font-family="Arial" font-size="11" font-weight="bold" lengthAdjust="spacing" textLength="67.2139" x="367.1332" y="151.3914">Route Inputs</text><polygon fill="#000000" points="241.8401,232.7871,251.8401,236.7871,241.8401,240.7871,245.8401,236.7871" style="stroke:#000000;stroke-width:1;"/><line style="stroke:#000000;stroke-width:1;" x1="84.178" x2="247.8401" y1="236.7871" y2="236.7871"/><text fill="#000000" font-family="Arial" font-size="11" lengthAdjust="spacing" textLength="47.0884" x="145.4648" y="182.0403">roadZone</text><text fill="#000000" font-family="Arial" font-size="11" lengthAdjust="spacing" textLength="69.7114" x="134.1533" y="194.6892">boundaryAlive</text><text fill="#000000" font-family="Arial" font-size="11" lengthAdjust="spacing" textLength="92.3345" x="122.8418" y="207.3381">warningPathStatus</text><text fill="#000000" font-family="Arial" font-size="11" lengthAdjust="spacing" textLength="64.2061" x="136.906" y="219.9871">failSafeMode</text><text fill="#000000" font-family="Arial" font-size="11" lengthAdjust="spacing" textLength="47.6953" x="145.1614" y="232.636">alertLevel</text><line style="stroke:#000000;stroke-width:1;" x1="253.8401" x2="295.8401" y1="263.436" y2="263.436"/><line style="stroke:#000000;stroke-width:1;" x1="295.8401" x2="295.8401" y1="263.436" y2="276.436"/><line style="stroke:#000000;stroke-width:1;" x1="254.8401" x2="295.8401" y1="276.436" y2="276.436"/><polygon fill="#000000" points="264.8401,272.436,254.8401,276.436,264.8401,280.436,260.8401,276.436" style="stroke:#000000;stroke-width:1;"/><text fill="#000000" font-family="Arial" font-size="11" lengthAdjust="spacing" textLength="174.2651" x="260.8401" y="259.2849">routeActive = (roadZone &gt; 0) ? 1 : 0</text><line style="stroke:#000000;stroke-width:1;" x1="253.8401" x2="295.8401" y1="303.085" y2="303.085"/><line style="stroke:#000000;stroke-width:1;" x1="295.8401" x2="295.8401" y1="303.085" y2="316.085"/><line style="stroke:#000000;stroke-width:1;" x1="254.8401" x2="295.8401" y1="316.085" y2="316.085"/><polygon fill="#000000" points="264.8401,312.085,254.8401,316.085,264.8401,320.085,260.8401,316.085" style="stroke:#000000;stroke-width:1;"/><text fill="#000000" font-family="Arial" font-size="11" lengthAdjust="spacing" textLength="250.4058" x="260.8401" y="298.9338">diagStage = ethDiagBoundaryStage(routeActive,...)</text><line style="stroke:#000000;stroke-width:1;" x1="253.8401" x2="295.8401" y1="355.3828" y2="355.3828"/><line style="stroke:#000000;stroke-width:1;" x1="295.8401" x2="295.8401" y1="355.3828" y2="368.3828"/><line style="stroke:#000000;stroke-width:1;" x1="254.8401" x2="295.8401" y1="368.3828" y2="368.3828"/><polygon fill="#000000" points="264.8401,364.3828,254.8401,368.3828,264.8401,372.3828,260.8401,368.3828" style="stroke:#000000;stroke-width:1;"/><text fill="#000000" font-family="Arial" font-size="11" lengthAdjust="spacing" textLength="190.1851" x="260.8401" y="338.5828">if diagStage == 1 and vehicle/nav fresh</text><text fill="#000000" font-family="Arial" font-size="11" lengthAdjust="spacing" textLength="113.1313" x="299.3669" y="351.2317">then linkMode elevated</text><line style="stroke:#000000;stroke-width:1;" x1="253.8401" x2="295.8401" y1="395.0317" y2="395.0317"/><line style="stroke:#000000;stroke-width:1;" x1="295.8401" x2="295.8401" y1="395.0317" y2="408.0317"/><line style="stroke:#000000;stroke-width:1;" x1="254.8401" x2="295.8401" y1="408.0317" y2="408.0317"/><polygon fill="#000000" points="264.8401,404.0317,254.8401,408.0317,264.8401,412.0317,260.8401,408.0317" style="stroke:#000000;stroke-width:1;"/><text fill="#000000" font-family="Arial" font-size="11" lengthAdjust="spacing" textLength="310.0034" x="260.8401" y="390.8806">routeState derived from routeActive / diagStage / link conditions</text><path d="M258,421.0317 L258,494.0317 L385,494.0317 L385,431.0317 L375,421.0317 L258,421.0317 " fill="#FFFFFF" style="stroke:#000000;stroke-width:1;"/><path d="M375,421.0317 L375,431.0317 L385,431.0317 L375,421.0317 " fill="#FFFFFF" style="stroke:#000000;stroke-width:1;"/><text fill="#000000" font-family="Arial" font-size="11" lengthAdjust="spacing" textLength="106.396" x="264" y="436.5295">Representative inputs</text><text fill="#000000" font-family="Arial" font-size="11" lengthAdjust="spacing" textLength="53.8076" x="264" y="449.1785">- roadZone</text><text fill="#000000" font-family="Arial" font-size="11" lengthAdjust="spacing" textLength="76.4307" x="264" y="461.8274">- boundaryAlive</text><text fill="#000000" font-family="Arial" font-size="11" lengthAdjust="spacing" textLength="99.0537" x="264" y="474.4763">- warningPathStatus</text><text fill="#000000" font-family="Arial" font-size="11" lengthAdjust="spacing" textLength="70.9253" x="264" y="487.1252">- failSafeMode</text><rect fill="#FFFFFF" height="3" style="stroke:#FFFFFF;stroke-width:1;" width="796.5364" x="5" y="518.6008"/><line style="stroke:#000000;stroke-width:0.5;" x1="5" x2="801.5364" y1="518.6008" y2="518.6008"/><line style="stroke:#000000;stroke-width:0.5;" x1="5" x2="801.5364" y1="521.6008" y2="521.6008"/><rect fill="#FFFFFF" height="20.6489" style="stroke:#000000;stroke-width:1;" width="122.7808" x="341.8778" y="509.2764"/><text fill="#000000" font-family="Arial" font-size="11" font-weight="bold" lengthAdjust="spacing" textLength="105.7246" x="347.8778" y="523.7742">Route / Link Publish</text><polygon fill="#000000" points="565.8435,554.5742,575.8435,558.5742,565.8435,562.5742,569.8435,558.5742" style="stroke:#000000;stroke-width:1;"/><line style="stroke:#000000;stroke-width:1;" x1="253.8401" x2="571.8435" y1="558.5742" y2="558.5742"/><text fill="#000000" font-family="Arial" font-size="11" lengthAdjust="spacing" textLength="235.3828" x="298.1504" y="554.4231">linkMode / routeState / signalBars / serviceFlags</text><path d="M258,571.5742 L258,644.5742 L392,644.5742 L392,581.5742 L382,571.5742 L258,571.5742 " fill="#FFFFFF" style="stroke:#000000;stroke-width:1;"/><path d="M382,571.5742 L382,581.5742 L392,581.5742 L382,571.5742 " fill="#FFFFFF" style="stroke:#000000;stroke-width:1;"/><text fill="#000000" font-family="Arial" font-size="11" lengthAdjust="spacing" textLength="113.126" x="264" y="587.072">Representative outputs</text><text fill="#000000" font-family="Arial" font-size="11" lengthAdjust="spacing" textLength="50.7407" x="264" y="599.7209">- linkMode</text><text fill="#000000" font-family="Arial" font-size="11" lengthAdjust="spacing" textLength="57.4761" x="264" y="612.3699">- routeState</text><text fill="#000000" font-family="Arial" font-size="11" lengthAdjust="spacing" textLength="58.0776" x="264" y="625.0188">- signalBars</text><text fill="#000000" font-family="Arial" font-size="11" lengthAdjust="spacing" textLength="68.46" x="264" y="637.6677">- serviceFlags</text><rect fill="#FFFFFF" height="3" style="stroke:#FFFFFF;stroke-width:1;" width="796.5364" x="5" y="669.1433"/><line style="stroke:#000000;stroke-width:0.5;" x1="5" x2="801.5364" y1="669.1433" y2="669.1433"/><line style="stroke:#000000;stroke-width:0.5;" x1="5" x2="801.5364" y1="672.1433" y2="672.1433"/><rect fill="#FFFFFF" height="20.6489" style="stroke:#000000;stroke-width:1;" width="131.3638" x="337.5863" y="659.8188"/><text fill="#000000" font-family="Arial" font-size="11" font-weight="bold" lengthAdjust="spacing" textLength="114.3076" x="343.5863" y="674.3167">Downstream Visibility</text><polygon fill="#000000" points="716.408,717.7656,726.408,721.7656,716.408,725.7656,720.408,721.7656" style="stroke:#000000;stroke-width:1;"/><line style="stroke:#000000;stroke-width:1;" x1="577.8435" x2="722.408" y1="721.7656" y2="721.7656"/><text fill="#000000" font-family="Arial" font-size="11" lengthAdjust="spacing" textLength="126.5645" x="589.8435" y="704.9656">infotainment connectivity /</text><text fill="#000000" font-family="Arial" font-size="11" lengthAdjust="spacing" textLength="100.8906" x="602.6804" y="717.6145">route-state readback</text><path d="M16,734.7656 L16,807.7656 L796,807.7656 L796,744.7656 L786,734.7656 L16,734.7656 " fill="#FFFFFF" style="stroke:#000000;stroke-width:1;"/><path d="M786,734.7656 L786,744.7656 L796,744.7656 L786,734.7656 " fill="#FFFFFF" style="stroke:#000000;stroke-width:1;"/><text fill="#000000" font-family="Arial" font-size="11" lengthAdjust="spacing" textLength="143.0752" x="265.4149" y="750.2634">Representative runtime chain</text><text fill="#000000" font-family="Arial" font-size="11" lengthAdjust="spacing" textLength="247.0273" x="265.4149" y="762.9124">1. Route activity and boundary context reach IBOX</text><text fill="#000000" font-family="Arial" font-size="11" lengthAdjust="spacing" textLength="203.6074" x="265.4149" y="775.5613">2. IBOX derives route state and link mode</text><text fill="#000000" font-family="Arial" font-size="11" lengthAdjust="spacing" textLength="272.0889" x="265.4149" y="788.2102">3. IBOX publishes infotainment route/connectivity status</text><text fill="#000000" font-family="Arial" font-size="11" lengthAdjust="spacing" textLength="272.7065" x="265.4149" y="800.8591">4. Observers expose the effective link and route posture</text><!--SRC=[ZLHHJzim47xthxZ12sZGq0q9X5GcMeXK2GQY4vgclhZ99R5mxSnsMk3Nxsmt9IayZ2VSt7rtttVVtHTNuHAXbbmePf-5ghdXIrZmxBaqkb7vH4jjO3yDVvs870lUI9TgvNvoGhWoWilFly_46y9msFbeyM-3AiCxj9QNU2L5gI13vT1qeWpQMYlRHerHwlMLCNeDpZJ8c1DE8Zpgnb7vp8cLSA_mIyDqVFyRReLwXfdZz6r6w5n2IkbpTM12F6_ZlyB2q-JcDR5eLY93oAXdV75mV1cXf8VYAeUOQZte8MFKf1EPgBboiFUeUGvlMY4aMq18vce7Sm-uZHrFt0kfUfgUfUC-aYyvLq8Lsj5CbYGAb5HmpLz1hnMQ017wshyvJyzkpZ-cnnPXqTWGxAKODpOCyNGowSVVBtoBQ2mrFdsQnjIGHbz2YPFqXh7HQ2FqLDMDip0QCRRbqGfrGGhn_0-fC5Uj23JR5JtNt12dye6xoW-biNDLS25dlC0xdLC0bsZSBQvGie3LnQGoORu88pXeIy0bd1p23nXIoCbkJYvuINLAdu6kkgRdUDDG-FcW0teq60mETm54qSKOKHLlW1LM8fEOABw2WknPpHNjZmeEyJG09Qv8l_nJ3j6DEHegcbE-NlQu9PsAIJGTkIONJj0ICAKfruYoSg2B0CiUiQOUo20yv8im6NQy7GBzsvi2lJ-CWNxhpe4XiVIbEXDFuYuzD0ifR1Kctx9hdNNnha3IvPg03Ritvi5VcsL89I__Xn3XR1Yrw85SYqwFTtJ_wABtU5pJubXda6xAax1Y8QJVV4-a9K1SlDrfxjsz8_aLjeU2bZdKFexBHMYvlv8i4j6qGjl5Fl9WksnCevoWGvbL_jGE1njrjuV8-sjxETeJH5MoAehpRH3D5FrZkySev0R3BBr8tpUHTPmOnVPOXSIanyr6BvmEuFqSu4kjBGBv6x0eC7fqvnHIX6jCnpN_0000]--></g></svg>