<svg xmlns="http://www.w3.org/2000/svg" xmlns:xlink="http://www.w3.org/1999/xlink" contentStyleType="text/css" height="1414px" preserveAspectRatio="none" style="width:1100px;height:1414px;background:#FFFFFF;" version="1.1" viewBox="0 0 1100 1414" width="1100px" zoomAndPan="magnify"><title>Scenario Lock To Manual Override Release Signal Flow</title><defs/><g><text fill="#000000" font-family="Arial" font-size="22" font-weight="bold" lengthAdjust="spacing" textLength="579.5088" x="258.8346" y="35.9956">Scenario Lock To Manual Override Release Signal Flow</text><text fill="#000000" font-family="Arial" font-size="22" font-weight="bold" lengthAdjust="spacing" textLength="635.6152" x="230.7814" y="61.2935">(Input_Console -&gt; TEST_SCN / TEST_BAS -&gt; Router compat)</text><rect fill="#FFFFFF" height="39.2979" style="stroke:#000000;stroke-width:1;" width="10" x="184.2234" y="232.1914"/><rect fill="#FFFFFF" height="26.6489" style="stroke:#000000;stroke-width:1;" width="10" x="184.2234" y="849.4146"/><rect fill="#FFFFFF" height="189.1914" style="stroke:#000000;stroke-width:1;" width="10" x="353.8386" y="271.4893"/><rect fill="#FFFFFF" height="118.5957" style="stroke:#000000;stroke-width:1;" width="10" x="353.8386" y="876.0635"/><rect fill="#FFFFFF" height="204.5425" style="stroke:#000000;stroke-width:1;" width="10" x="563.3015" y="460.6807"/><rect fill="#FFFFFF" height="66.2979" style="stroke:#000000;stroke-width:1;" width="10" x="563.3015" y="994.6592"/><rect fill="#FFFFFF" height="116.8936" style="stroke:#000000;stroke-width:1;" width="10" x="788.0559" y="665.2231"/><rect fill="#FFFFFF" height="78.9468" style="stroke:#000000;stroke-width:1;" width="10" x="788.0559" y="1060.957"/><line style="stroke:#000000;stroke-width:1;" x1="53" x2="53" y1="162.8936" y2="1324.3931"/><line style="stroke:#000000;stroke-width:1;" x1="188.73" x2="188.73" y1="162.8936" y2="1324.3931"/><line style="stroke:#000000;stroke-width:1;" x1="358.4468" x2="358.4468" y1="162.8936" y2="1324.3931"/><line style="stroke:#000000;stroke-width:1;" x1="567.4004" x2="567.4004" y1="162.8936" y2="1324.3931"/><line style="stroke:#000000;stroke-width:1;" x1="792.3206" x2="792.3206" y1="162.8936" y2="1324.3931"/><line style="stroke:#000000;stroke-width:1;" x1="1034.6458" x2="1034.6458" y1="162.8936" y2="1324.3931"/><text fill="#000000" font-family="Arial" font-size="11" lengthAdjust="spacing" textLength="43.4092" x="28.6711" y="148.0935">Operator</text><text fill="#000000" font-family="Arial" font-size="11" lengthAdjust="spacing" textLength="72.7515" x="14" y="160.7424">(Scenario Tab)</text><ellipse cx="53.3757" cy="85.5957" fill="#F4F7FB" rx="8" ry="8" style="stroke:#000000;stroke-width:1;"/><path d="M53.3757,93.5957 L53.3757,120.5957 M40.3757,101.5957 L66.3757,101.5957 M53.3757,120.5957 L40.3757,135.5957 M53.3757,120.5957 L66.3757,135.5957 " fill="none" style="stroke:#000000;stroke-width:1;"/><text fill="#000000" font-family="Arial" font-size="11" lengthAdjust="spacing" textLength="43.4092" x="28.6711" y="1333.8909">Operator</text><text fill="#000000" font-family="Arial" font-size="11" lengthAdjust="spacing" textLength="72.7515" x="14" y="1346.5398">(Scenario Tab)</text><ellipse cx="53.3757" cy="1357.6909" fill="#F4F7FB" rx="8" ry="8" style="stroke:#000000;stroke-width:1;"/><path d="M53.3757,1365.6909 L53.3757,1392.6909 M40.3757,1373.6909 L66.3757,1373.6909 M53.3757,1392.6909 L40.3757,1407.6909 M53.3757,1392.6909 L66.3757,1407.6909 " fill="none" style="stroke:#000000;stroke-width:1;"/><rect fill="#E8F0FE" height="39.2979" rx="2.5" ry="2.5" style="stroke:#000000;stroke-width:1;" width="98.9868" x="139.73" y="122.5957"/><text fill="#000000" font-family="Arial" font-size="11" lengthAdjust="spacing" textLength="70.9414" x="153.7527" y="140.0935">Input_Console</text><text fill="#000000" font-family="Arial" font-size="11" lengthAdjust="spacing" textLength="84.9868" x="146.73" y="152.7424">Scenario controls</text><rect fill="#E8F0FE" height="39.2979" rx="2.5" ry="2.5" style="stroke:#000000;stroke-width:1;" width="98.9868" x="139.73" y="1323.3931"/><text fill="#000000" font-family="Arial" font-size="11" lengthAdjust="spacing" textLength="70.9414" x="153.7527" y="1340.8909">Input_Console</text><text fill="#000000" font-family="Arial" font-size="11" lengthAdjust="spacing" textLength="84.9868" x="146.73" y="1353.5398">Scenario controls</text><rect fill="#FFE6E6" height="39.2979" rx="2.5" ry="2.5" style="stroke:#000000;stroke-width:1;" width="130.7837" x="293.4468" y="122.5957"/><text fill="#000000" font-family="Arial" font-size="11" lengthAdjust="spacing" textLength="57.4546" x="330.1113" y="140.0935">TEST_SCN</text><text fill="#000000" font-family="Arial" font-size="11" lengthAdjust="spacing" textLength="116.7837" x="300.4468" y="152.7424">scenario harness owner</text><rect fill="#FFE6E6" height="39.2979" rx="2.5" ry="2.5" style="stroke:#000000;stroke-width:1;" width="130.7837" x="293.4468" y="1323.3931"/><text fill="#000000" font-family="Arial" font-size="11" lengthAdjust="spacing" textLength="57.4546" x="330.1113" y="1340.8909">TEST_SCN</text><text fill="#000000" font-family="Arial" font-size="11" lengthAdjust="spacing" textLength="116.7837" x="300.4468" y="1353.5398">scenario harness owner</text><rect fill="#FFF4CC" height="39.2979" rx="2.5" ry="2.5" style="stroke:#000000;stroke-width:1;" width="111.8022" x="512.4004" y="122.5957"/><text fill="#000000" font-family="Arial" font-size="11" lengthAdjust="spacing" textLength="56.2407" x="540.1812" y="140.0935">TEST_BAS</text><text fill="#000000" font-family="Arial" font-size="11" lengthAdjust="spacing" textLength="97.8022" x="519.4004" y="152.7424">base lifecycle mirror</text><rect fill="#FFF4CC" height="39.2979" rx="2.5" ry="2.5" style="stroke:#000000;stroke-width:1;" width="111.8022" x="512.4004" y="1323.3931"/><text fill="#000000" font-family="Arial" font-size="11" lengthAdjust="spacing" textLength="56.2407" x="540.1812" y="1340.8909">TEST_BAS</text><text fill="#000000" font-family="Arial" font-size="11" lengthAdjust="spacing" textLength="97.8022" x="519.4004" y="1353.5398">base lifecycle mirror</text><rect fill="#E8F7E8" height="39.2979" rx="2.5" ry="2.5" style="stroke:#000000;stroke-width:1;" width="159.4707" x="713.3206" y="122.5957"/><text fill="#000000" font-family="Arial" font-size="11" lengthAdjust="spacing" textLength="145.4707" x="720.3206" y="140.0935">INPUT_CONSOLE_ROUTER</text><text fill="#000000" font-family="Arial" font-size="11" lengthAdjust="spacing" textLength="122.9014" x="731.6052" y="152.7424">manual compat publisher</text><rect fill="#E8F7E8" height="39.2979" rx="2.5" ry="2.5" style="stroke:#000000;stroke-width:1;" width="159.4707" x="713.3206" y="1323.3931"/><text fill="#000000" font-family="Arial" font-size="11" lengthAdjust="spacing" textLength="145.4707" x="720.3206" y="1340.8909">INPUT_CONSOLE_ROUTER</text><text fill="#000000" font-family="Arial" font-size="11" lengthAdjust="spacing" textLength="122.9014" x="731.6052" y="1353.5398">manual compat publisher</text><rect fill="#E8F0FE" height="39.2979" rx="2.5" ry="2.5" style="stroke:#000000;stroke-width:1;" width="85.5322" x="992.6458" y="122.5957"/><text fill="#000000" font-family="Arial" font-size="11" lengthAdjust="spacing" textLength="59.3022" x="1005.7607" y="140.0935">Core / Inject</text><text fill="#000000" font-family="Arial" font-size="11" lengthAdjust="spacing" textLength="71.5322" x="999.6458" y="152.7424">manual seams</text><rect fill="#E8F0FE" height="39.2979" rx="2.5" ry="2.5" style="stroke:#000000;stroke-width:1;" width="85.5322" x="992.6458" y="1323.3931"/><text fill="#000000" font-family="Arial" font-size="11" lengthAdjust="spacing" textLength="59.3022" x="1005.7607" y="1340.8909">Core / Inject</text><text fill="#000000" font-family="Arial" font-size="11" lengthAdjust="spacing" textLength="71.5322" x="999.6458" y="1353.5398">manual seams</text><rect fill="#FFFFFF" height="39.2979" style="stroke:#000000;stroke-width:1;" width="10" x="184.2234" y="232.1914"/><rect fill="#FFFFFF" height="26.6489" style="stroke:#000000;stroke-width:1;" width="10" x="184.2234" y="849.4146"/><rect fill="#FFFFFF" height="189.1914" style="stroke:#000000;stroke-width:1;" width="10" x="353.8386" y="271.4893"/><rect fill="#FFFFFF" height="118.5957" style="stroke:#000000;stroke-width:1;" width="10" x="353.8386" y="876.0635"/><rect fill="#FFFFFF" height="204.5425" style="stroke:#000000;stroke-width:1;" width="10" x="563.3015" y="460.6807"/><rect fill="#FFFFFF" height="66.2979" style="stroke:#000000;stroke-width:1;" width="10" x="563.3015" y="994.6592"/><rect fill="#FFFFFF" height="116.8936" style="stroke:#000000;stroke-width:1;" width="10" x="788.0559" y="665.2231"/><rect fill="#FFFFFF" height="78.9468" style="stroke:#000000;stroke-width:1;" width="10" x="788.0559" y="1060.957"/><rect fill="#FFFFFF" height="3" style="stroke:#FFFFFF;stroke-width:1;" width="1088.178" x="5" y="192.218"/><line style="stroke:#000000;stroke-width:0.5;" x1="5" x2="1093.178" y1="192.218" y2="192.218"/><line style="stroke:#000000;stroke-width:0.5;" x1="5" x2="1093.178" y1="195.218" y2="195.218"/><rect fill="#FFFFFF" height="20.6489" style="stroke:#000000;stroke-width:1;" width="91.6392" x="503.2694" y="182.8936"/><text fill="#000000" font-family="Arial" font-size="11" font-weight="bold" lengthAdjust="spacing" textLength="74.583" x="509.2694" y="197.3914">Scenario Start</text><polygon fill="#000000" points="172.2234,228.1914,182.2234,232.1914,172.2234,236.1914,176.2234,232.1914" style="stroke:#000000;stroke-width:1;"/><line style="stroke:#000000;stroke-width:1;" x1="53.3757" x2="178.2234" y1="232.1914" y2="232.1914"/><text fill="#000000" font-family="Arial" font-size="11" lengthAdjust="spacing" textLength="102.0938" x="67.7527" y="228.0403">Click scenario preset</text><polygon fill="#000000" points="341.8386,267.4893,351.8386,271.4893,341.8386,275.4893,345.8386,271.4893" style="stroke:#000000;stroke-width:1;"/><line style="stroke:#000000;stroke-width:1;" x1="189.2234" x2="347.8386" y1="271.4893" y2="271.4893"/><text fill="#000000" font-family="Arial" font-size="11" lengthAdjust="spacing" textLength="119.8237" x="211.6191" y="254.6892">Test::scenarioCommand</text><text fill="#000000" font-family="Arial" font-size="11" lengthAdjust="spacing" textLength="140.6152" x="201.2234" y="267.3381">or compat Test::testScenario</text><line style="stroke:#000000;stroke-width:1;" x1="363.8386" x2="405.8386" y1="298.1382" y2="298.1382"/><line style="stroke:#000000;stroke-width:1;" x1="405.8386" x2="405.8386" y1="298.1382" y2="311.1382"/><line style="stroke:#000000;stroke-width:1;" x1="364.8386" x2="405.8386" y1="311.1382" y2="311.1382"/><polygon fill="#000000" points="374.8386,307.1382,364.8386,311.1382,374.8386,315.1382,370.8386,311.1382" style="stroke:#000000;stroke-width:1;"/><text fill="#000000" font-family="Arial" font-size="11" lengthAdjust="spacing" textLength="146.1421" x="370.8386" y="293.9871">applyScenarioPanelRequest()</text><line style="stroke:#000000;stroke-width:1;" x1="363.8386" x2="405.8386" y1="337.7871" y2="337.7871"/><line style="stroke:#000000;stroke-width:1;" x1="405.8386" x2="405.8386" y1="337.7871" y2="350.7871"/><line style="stroke:#000000;stroke-width:1;" x1="364.8386" x2="405.8386" y1="350.7871" y2="350.7871"/><polygon fill="#000000" points="374.8386,346.7871,364.8386,350.7871,374.8386,354.7871,370.8386,350.7871" style="stroke:#000000;stroke-width:1;"/><text fill="#000000" font-family="Arial" font-size="11" lengthAdjust="spacing" textLength="175.4629" x="370.8386" y="333.636">set scenarioCommandAck / activeId</text><path d="M368,363.7871 L368,423.7871 L544,423.7871 L544,373.7871 L534,363.7871 L368,363.7871 " fill="#FFFFFF" style="stroke:#000000;stroke-width:1;"/><path d="M534,363.7871 L534,373.7871 L544,373.7871 L534,363.7871 " fill="#FFFFFF" style="stroke:#000000;stroke-width:1;"/><text fill="#000000" font-family="Arial" font-size="11" lengthAdjust="spacing" textLength="117.396" x="374" y="379.2849">Scenario harness owns:</text><text fill="#000000" font-family="Arial" font-size="11" lengthAdjust="spacing" textLength="155.9121" x="374" y="391.9338">- scenario start/stop acceptance</text><text fill="#000000" font-family="Arial" font-size="11" lengthAdjust="spacing" textLength="122.2676" x="374" y="404.5828">- active scenario lifecycle</text><text fill="#000000" font-family="Arial" font-size="11" lengthAdjust="spacing" textLength="151.0298" x="374" y="417.2317">- scenario lock payload staging</text><polygon fill="#000000" points="551.3015,456.6807,561.3015,460.6807,551.3015,464.6807,555.3015,460.6807" style="stroke:#000000;stroke-width:1;"/><line style="stroke:#000000;stroke-width:1;" x1="358.8386" x2="557.3015" y1="460.6807" y2="460.6807"/><text fill="#000000" font-family="Arial" font-size="11" lengthAdjust="spacing" textLength="138.1606" x="391.9897" y="443.8806">Test::scenarioCommandAck</text><text fill="#000000" font-family="Arial" font-size="11" lengthAdjust="spacing" textLength="108.2114" x="406.9644" y="456.5295">Test::scenarioActiveId</text><rect fill="#FFFFFF" height="3" style="stroke:#FFFFFF;stroke-width:1;" width="1088.178" x="5" y="488.0051"/><line style="stroke:#000000;stroke-width:0.5;" x1="5" x2="1093.178" y1="488.0051" y2="488.0051"/><line style="stroke:#000000;stroke-width:0.5;" x1="5" x2="1093.178" y1="491.0051" y2="491.0051"/><rect fill="#FFFFFF" height="20.6489" style="stroke:#000000;stroke-width:1;" width="128.3237" x="484.9271" y="478.6807"/><text fill="#000000" font-family="Arial" font-size="11" font-weight="bold" lengthAdjust="spacing" textLength="111.2676" x="490.9271" y="493.1785">Scenario Lock Active</text><line style="stroke:#000000;stroke-width:1;" x1="573.3015" x2="615.3015" y1="527.9785" y2="527.9785"/><line style="stroke:#000000;stroke-width:1;" x1="615.3015" x2="615.3015" y1="527.9785" y2="540.9785"/><line style="stroke:#000000;stroke-width:1;" x1="574.3015" x2="615.3015" y1="540.9785" y2="540.9785"/><polygon fill="#000000" points="584.3015,536.9785,574.3015,540.9785,584.3015,544.9785,580.3015,540.9785" style="stroke:#000000;stroke-width:1;"/><text fill="#000000" font-family="Arial" font-size="11" lengthAdjust="spacing" textLength="145.519" x="580.3015" y="523.8274">stageBaseScenarioLifecycle()</text><line style="stroke:#000000;stroke-width:1;" x1="573.3015" x2="615.3015" y1="567.6274" y2="567.6274"/><line style="stroke:#000000;stroke-width:1;" x1="615.3015" x2="615.3015" y1="567.6274" y2="580.6274"/><line style="stroke:#000000;stroke-width:1;" x1="574.3015" x2="615.3015" y1="580.6274" y2="580.6274"/><polygon fill="#000000" points="584.3015,576.6274,574.3015,580.6274,584.3015,584.6274,580.3015,580.6274" style="stroke:#000000;stroke-width:1;"/><text fill="#000000" font-family="Arial" font-size="11" lengthAdjust="spacing" textLength="181.6021" x="580.3015" y="563.4763">publishInputConsoleManualCompat()</text><path d="M578,593.6274 L578,640.6274 L772,640.6274 L772,603.6274 L762,593.6274 L578,593.6274 " fill="#FFFFFF" style="stroke:#000000;stroke-width:1;"/><path d="M762,593.6274 L762,603.6274 L772,603.6274 L762,593.6274 " fill="#FFFFFF" style="stroke:#000000;stroke-width:1;"/><text fill="#000000" font-family="Arial" font-size="11" lengthAdjust="spacing" textLength="168.7275" x="584" y="609.1252">While active, manual panel mirrors</text><text fill="#000000" font-family="Arial" font-size="11" lengthAdjust="spacing" textLength="173.6313" x="584" y="621.7742">follow scenario lifecycle state rather</text><text fill="#000000" font-family="Arial" font-size="11" lengthAdjust="spacing" textLength="172.4443" x="584" y="634.4231">than free manual exploration intent.</text><polygon fill="#000000" points="776.0559,661.2231,786.0559,665.2231,776.0559,669.2231,780.0559,665.2231" style="stroke:#000000;stroke-width:1;"/><line style="stroke:#000000;stroke-width:1;" x1="568.3015" x2="782.0559" y1="665.2231" y2="665.2231"/><text fill="#000000" font-family="Arial" font-size="11" lengthAdjust="spacing" textLength="108.2222" x="624.0676" y="661.072">compat publish trigger</text><line style="stroke:#000000;stroke-width:1;" x1="798.0559" x2="840.0559" y1="691.8721" y2="691.8721"/><line style="stroke:#000000;stroke-width:1;" x1="840.0559" x2="840.0559" y1="691.8721" y2="704.8721"/><line style="stroke:#000000;stroke-width:1;" x1="799.0559" x2="840.0559" y1="704.8721" y2="704.8721"/><polygon fill="#000000" points="809.0559,700.8721,799.0559,704.8721,809.0559,708.8721,805.0559,704.8721" style="stroke:#000000;stroke-width:1;"/><text fill="#000000" font-family="Arial" font-size="11" lengthAdjust="spacing" textLength="119.2329" x="805.0559" y="687.7209">isScenarioLocked() == 1</text><polygon fill="#000000" points="1023.4119,778.1167,1033.4119,782.1167,1023.4119,786.1167,1027.4119,782.1167" style="stroke:#000000;stroke-width:1;"/><line style="stroke:#000000;stroke-width:1;" x1="793.0559" x2="1029.4119" y1="782.1167" y2="782.1167"/><text fill="#000000" font-family="Arial" font-size="11" lengthAdjust="spacing" textLength="114.9414" x="856.7632" y="727.3699">compatPoliceDispatch /</text><text fill="#000000" font-family="Arial" font-size="11" lengthAdjust="spacing" textLength="140.0137" x="844.2271" y="740.0188">compatAmbulanceDispatch /</text><text fill="#000000" font-family="Arial" font-size="11" lengthAdjust="spacing" textLength="141.2222" x="843.6228" y="752.6677">compatEmergencyDirection /</text><text fill="#000000" font-family="Arial" font-size="11" lengthAdjust="spacing" textLength="114.3291" x="857.0693" y="765.3167">compatEmergencyEta /</text><text fill="#000000" font-family="Arial" font-size="11" lengthAdjust="spacing" textLength="135.7329" x="846.3674" y="777.9656">compatEmergencySourceId</text><rect fill="#FFFFFF" height="3" style="stroke:#FFFFFF;stroke-width:1;" width="1088.178" x="5" y="809.4412"/><line style="stroke:#000000;stroke-width:0.5;" x1="5" x2="1093.178" y1="809.4412" y2="809.4412"/><line style="stroke:#000000;stroke-width:0.5;" x1="5" x2="1093.178" y1="812.4412" y2="812.4412"/><rect fill="#FFFFFF" height="20.6489" style="stroke:#000000;stroke-width:1;" width="133.2007" x="482.4886" y="800.1167"/><text fill="#000000" font-family="Arial" font-size="11" font-weight="bold" lengthAdjust="spacing" textLength="116.1445" x="488.4886" y="814.6145">Stop / Manual Release</text><polygon fill="#000000" points="172.2234,845.4146,182.2234,849.4146,172.2234,853.4146,176.2234,849.4146" style="stroke:#000000;stroke-width:1;"/><line style="stroke:#000000;stroke-width:1;" x1="53.3757" x2="178.2234" y1="849.4146" y2="849.4146"/><text fill="#000000" font-family="Arial" font-size="11" lengthAdjust="spacing" textLength="111.8477" x="62.8757" y="845.2634">Click STOP / MANUAL</text><polygon fill="#000000" points="341.8386,872.0635,351.8386,876.0635,341.8386,880.0635,345.8386,876.0635" style="stroke:#000000;stroke-width:1;"/><line style="stroke:#000000;stroke-width:1;" x1="189.2234" x2="347.8386" y1="876.0635" y2="876.0635"/><text fill="#000000" font-family="Arial" font-size="11" lengthAdjust="spacing" textLength="130.5444" x="206.2588" y="871.9124">Test::scenarioStopReq = 1</text><line style="stroke:#000000;stroke-width:1;" x1="363.8386" x2="405.8386" y1="902.7124" y2="902.7124"/><line style="stroke:#000000;stroke-width:1;" x1="405.8386" x2="405.8386" y1="902.7124" y2="915.7124"/><line style="stroke:#000000;stroke-width:1;" x1="364.8386" x2="405.8386" y1="915.7124" y2="915.7124"/><polygon fill="#000000" points="374.8386,911.7124,364.8386,915.7124,374.8386,919.7124,370.8386,915.7124" style="stroke:#000000;stroke-width:1;"/><text fill="#000000" font-family="Arial" font-size="11" lengthAdjust="spacing" textLength="164.4897" x="370.8386" y="898.5613">applyScenarioPanelRequest(0, 1)</text><line style="stroke:#000000;stroke-width:1;" x1="363.8386" x2="405.8386" y1="955.0103" y2="955.0103"/><line style="stroke:#000000;stroke-width:1;" x1="405.8386" x2="405.8386" y1="955.0103" y2="968.0103"/><line style="stroke:#000000;stroke-width:1;" x1="364.8386" x2="405.8386" y1="968.0103" y2="968.0103"/><polygon fill="#000000" points="374.8386,964.0103,364.8386,968.0103,374.8386,972.0103,370.8386,968.0103" style="stroke:#000000;stroke-width:1;"/><text fill="#000000" font-family="Arial" font-size="11" lengthAdjust="spacing" textLength="113.7168" x="398.3386" y="938.2102">clear scenarioActiveId /</text><text fill="#000000" font-family="Arial" font-size="11" lengthAdjust="spacing" textLength="168.7168" x="370.8386" y="950.8591">commandAck / testScenario mirror</text><polygon fill="#000000" points="551.3015,990.6592,561.3015,994.6592,551.3015,998.6592,555.3015,994.6592" style="stroke:#000000;stroke-width:1;"/><line style="stroke:#000000;stroke-width:1;" x1="358.8386" x2="557.3015" y1="994.6592" y2="994.6592"/><text fill="#000000" font-family="Arial" font-size="11" lengthAdjust="spacing" textLength="99.3599" x="411.3901" y="990.5081">scenarioActiveId = 0</text><line style="stroke:#000000;stroke-width:1;" x1="573.3015" x2="615.3015" y1="1021.3081" y2="1021.3081"/><line style="stroke:#000000;stroke-width:1;" x1="615.3015" x2="615.3015" y1="1021.3081" y2="1034.3081"/><line style="stroke:#000000;stroke-width:1;" x1="574.3015" x2="615.3015" y1="1034.3081" y2="1034.3081"/><polygon fill="#000000" points="584.3015,1030.3081,574.3015,1034.3081,584.3015,1038.3081,580.3015,1034.3081" style="stroke:#000000;stroke-width:1;"/><text fill="#000000" font-family="Arial" font-size="11" lengthAdjust="spacing" textLength="190.7544" x="580.3015" y="1017.157">maybeClearBaseStateOnHarnessIdle()</text><polygon fill="#000000" points="776.0559,1056.957,786.0559,1060.957,776.0559,1064.957,780.0559,1060.957" style="stroke:#000000;stroke-width:1;"/><line style="stroke:#000000;stroke-width:1;" x1="568.3015" x2="782.0559" y1="1060.957" y2="1060.957"/><text fill="#000000" font-family="Arial" font-size="11" lengthAdjust="spacing" textLength="181.6021" x="587.3777" y="1056.8059">publishInputConsoleManualCompat()</text><line style="stroke:#000000;stroke-width:1;" x1="798.0559" x2="840.0559" y1="1087.606" y2="1087.606"/><line style="stroke:#000000;stroke-width:1;" x1="840.0559" x2="840.0559" y1="1087.606" y2="1100.606"/><line style="stroke:#000000;stroke-width:1;" x1="799.0559" x2="840.0559" y1="1100.606" y2="1100.606"/><polygon fill="#000000" points="809.0559,1096.606,799.0559,1100.606,809.0559,1104.606,805.0559,1100.606" style="stroke:#000000;stroke-width:1;"/><text fill="#000000" font-family="Arial" font-size="11" lengthAdjust="spacing" textLength="119.2329" x="805.0559" y="1083.4548">isScenarioLocked() == 0</text><polygon fill="#000000" points="1023.4119,1135.9038,1033.4119,1139.9038,1023.4119,1143.9038,1027.4119,1139.9038" style="stroke:#000000;stroke-width:1;"/><line style="stroke:#000000;stroke-width:1;" x1="793.0559" x2="1029.4119" y1="1139.9038" y2="1139.9038"/><text fill="#000000" font-family="Arial" font-size="11" lengthAdjust="spacing" textLength="130.2114" x="849.1282" y="1123.1038">manualAlertOverrideCmd /</text><text fill="#000000" font-family="Arial" font-size="11" lengthAdjust="spacing" textLength="213.356" x="807.5559" y="1135.7527">manual emergency compat mirrors restored</text><path d="M798,1152.9038 L798,1212.9038 L1019,1212.9038 L1019,1162.9038 L1009,1152.9038 L798,1152.9038 " fill="#FFFFFF" style="stroke:#000000;stroke-width:1;"/><path d="M1009,1152.9038 L1009,1162.9038 L1019,1162.9038 L1009,1152.9038 " fill="#FFFFFF" style="stroke:#000000;stroke-width:1;"/><text fill="#000000" font-family="Arial" font-size="11" lengthAdjust="spacing" textLength="70.3184" x="804" y="1168.4016">Release effect</text><text fill="#000000" font-family="Arial" font-size="11" lengthAdjust="spacing" textLength="173.6475" x="804" y="1181.0505">- scenario lock no longer dominates</text><text fill="#000000" font-family="Arial" font-size="11" lengthAdjust="spacing" textLength="165.0913" x="804" y="1193.6995">- Input_Console manual overrides</text><text fill="#000000" font-family="Arial" font-size="11" lengthAdjust="spacing" textLength="194.4497" x="810.1123" y="1206.3484">become the active manual source again</text><path d="M10,1223.4995 L10,1308.4995 L1079,1308.4995 L1079,1233.4995 L1069,1223.4995 L10,1223.4995 " fill="#FFFFFF" style="stroke:#000000;stroke-width:1;"/><path d="M1069,1223.4995 L1069,1233.4995 L1079,1233.4995 L1069,1223.4995 " fill="#FFFFFF" style="stroke:#000000;stroke-width:1;"/><text fill="#000000" font-family="Arial" font-size="11" lengthAdjust="spacing" textLength="143.0752" x="369.5219" y="1238.9973">Representative runtime chain</text><text fill="#000000" font-family="Arial" font-size="11" lengthAdjust="spacing" textLength="221.9121" x="369.5219" y="1251.6462">1. Scenario preset starts TEST_SCN lifecycle</text><text fill="#000000" font-family="Arial" font-size="11" lengthAdjust="spacing" textLength="341.1343" x="369.5219" y="1264.2952">2. TEST_BAS mirrors lifecycle and publishes lock-aware compat state</text><text fill="#000000" font-family="Arial" font-size="11" lengthAdjust="spacing" textLength="322.2012" x="369.5219" y="1276.9441">3. Router exposes scenario-dominant manual mirrors while locked</text><text fill="#000000" font-family="Arial" font-size="11" lengthAdjust="spacing" textLength="165.6553" x="369.5219" y="1289.593">4. STOP/MANUAL clears lifecycle</text><text fill="#000000" font-family="Arial" font-size="11" lengthAdjust="spacing" textLength="267.1904" x="369.5219" y="1302.2419">5. Router returns control to free manual override inputs</text><!--SRC=[jLPTR-Cs47pdhzZcNX8WYPCslJiOI057PwC1Sd4GE-YBWO2MrZORYbH9wjBqrtT9YfByaNu0xJta38aSxixEZFYTss29K4ak5BClGbNSy1AMF7zP6rsh8jDI6_Wm2VzwAmfSyLgwYLRkdXF2o0Wk3x-VYJyGBYzxBot-LgFAyIjQozSuacAj84VbqFHM6RILLZQjka6fNqV6w5TmfaR6d70IOKRxk14QxdJ-0dCDNxcgkOJfDpH650YFA95RMaY7qFC9eIpKyQsgQlUS4RucaBEVO3wUpPzdsJqCui-RqSm_VjGrLGMvBYlkJXZZkIC-ZgOL6aw_2AajOCwN9qV0BQINHDlLvDFaXb4_JkIYuih1qTR92zLkpuagewKD40zSeOGFuy-JYybuUtygTA5ishhXHX59e5yLch2_xOOcD_uu_dW0WXfSgALdHeeLvcyvyL0AuhU7u4dmix_AifqcxX-Uvi_Pz7uslHi_FqwVvkF7XIeZzP4igEgb57RJLDGGwLlwDFwyZPPfWyJxhVeLSzV2MEHbPACPQQA3NLztOvyvGeBhQyPQscbiaRyXP5AGAbgYAj8KEZz4yOqxZCjONDpNm13cQDrmc3PckgIYYeNIIGhD0aT_Kocim1tWxg24pDeZje_ZLINV4b3O_EWzOjtnoNjRg17OgMz4lGuW78gt1LEQJZPYlN6WLrq9imEoiKDsrj5aFQS3wtH5O3bMZfDPQK54xjQrmkblbjw75N-JcXSUQItKcg4gm9UptuoNs3jqKpiBjVrcb7hhSTqsjgMB40TnUL37zd8wbVLjtYl5bumtv8i4TPUwJBFOtzD8FLYxSNRKR1R4GXiFpCBNyCj6aEqYhwVG2ByAUenUj6ob9KNM0T9zfHwKKuORvZPSmSeW9XJylQBevave1OAYLRdpdJ5iHznmnxUKicAz9kHTgdtT7PrnDsj0-d32jWpIBB0uFg51m6LlQUFhTFA39hVY5s7fTxw1mKB5vwDoMKilmVrNunBDcZubRr-4eUpmlUw_6pj-uEbCroRVaLBJJ12IL_yWbPW-8d-TCxFvzC7l6Tq_ZUx-VShu8ydsu4dwNxBauXGktyqJKXGti6kqXhWkNVg9rsZqFLFlOLt3nM7Z_cDpblnjYPclD3ZK6s2gVeuvTbliMRJLujyRzBzL-SKXbKTZZYGQbsudMHaOJfPDsanMR3B0NuL8SBWRwQcgHfouecHmUrci_F-Ad0o5BeMYTYojsRu0DGNefYpB09P8HI1GkAJSJz_bO1pWQtzdR1FbW8j2iHwolH6TDcHGoU5Jh6Y07jdKoWawBDzupClpBiRZ5pj-aNhNckxBy_rvfuz4LnUH9Dls7c837MVybTDjeo4uH2ZxuJpDaq9JMrgP63oBbD4bfMa-7V4QWbk6aREhys3zGJH-T5Al2lPZYs_GrKRPTDa3fxSoE_5FWKtJiHsxVm80]--></g></svg>