<svg xmlns="http://www.w3.org/2000/svg" xmlns:xlink="http://www.w3.org/1999/xlink" contentStyleType="text/css" height="854px" preserveAspectRatio="none" style="width:707px;height:854px;background:#FFFFFF;" version="1.1" viewBox="0 0 707 854" width="707px" zoomAndPan="magnify"><title>Seat Comfort To Massage Intensity Signal Flow</title><defs/><g><text fill="#000000" font-family="Arial" font-size="22" font-weight="bold" lengthAdjust="spacing" textLength="495.0752" x="104.7925" y="35.9956">Seat Comfort To Massage Intensity Signal Flow</text><text fill="#000000" font-family="Arial" font-size="22" font-weight="bold" lengthAdjust="spacing" textLength="553.1582" x="75.751" y="61.2935">(BCM comfort commands -&gt; MSC massage intensity)</text><line style="stroke:#000000;stroke-width:1;" x1="87" x2="87" y1="116.8936" y2="810.3613"/><line style="stroke:#000000;stroke-width:1;" x1="242.0269" x2="242.0269" y1="116.8936" y2="810.3613"/><line style="stroke:#000000;stroke-width:1;" x1="492.2319" x2="492.2319" y1="116.8936" y2="810.3613"/><line style="stroke:#000000;stroke-width:1;" x1="628.3418" x2="628.3418" y1="116.8936" y2="810.3613"/><rect fill="#F4F7FB" height="26.6489" rx="2.5" ry="2.5" style="stroke:#000000;stroke-width:1;" width="135.0269" x="20" y="89.2446"/><text fill="#000000" font-family="Arial" font-size="11" lengthAdjust="spacing" textLength="121.0269" x="27" y="106.7424">BCM comfort commands</text><rect fill="#F4F7FB" height="26.6489" rx="2.5" ry="2.5" style="stroke:#000000;stroke-width:1;" width="135.0269" x="20" y="809.3613"/><text fill="#000000" font-family="Arial" font-size="11" lengthAdjust="spacing" textLength="121.0269" x="27" y="826.8591">BCM comfort commands</text><rect fill="#E8F7E8" height="39.2979" rx="2.5" ry="2.5" style="stroke:#000000;stroke-width:1;" width="115.4976" x="185.0269" y="76.5957"/><text fill="#000000" font-family="Arial" font-size="11" lengthAdjust="spacing" textLength="24.4438" x="230.5537" y="94.0935">MSC</text><text fill="#000000" font-family="Arial" font-size="11" lengthAdjust="spacing" textLength="101.4976" x="192.0269" y="106.7424">seat massage owner</text><rect fill="#E8F7E8" height="39.2979" rx="2.5" ry="2.5" style="stroke:#000000;stroke-width:1;" width="115.4976" x="185.0269" y="809.3613"/><text fill="#000000" font-family="Arial" font-size="11" lengthAdjust="spacing" textLength="24.4438" x="230.5537" y="826.8591">MSC</text><text fill="#000000" font-family="Arial" font-size="11" lengthAdjust="spacing" textLength="101.4976" x="192.0269" y="839.5081">seat massage owner</text><rect fill="#FFF4CC" height="26.6489" rx="2.5" ry="2.5" style="stroke:#000000;stroke-width:1;" width="105.1099" x="440.2319" y="89.2446"/><text fill="#000000" font-family="Arial" font-size="11" lengthAdjust="spacing" textLength="91.1099" x="447.2319" y="106.7424">Seat massage bus</text><rect fill="#FFF4CC" height="26.6489" rx="2.5" ry="2.5" style="stroke:#000000;stroke-width:1;" width="105.1099" x="440.2319" y="809.3613"/><text fill="#000000" font-family="Arial" font-size="11" lengthAdjust="spacing" textLength="91.1099" x="447.2319" y="826.8591">Seat massage bus</text><rect fill="#E8F0FE" height="26.6489" rx="2.5" ry="2.5" style="stroke:#000000;stroke-width:1;" width="106.3184" x="575.3418" y="89.2446"/><text fill="#000000" font-family="Arial" font-size="11" lengthAdjust="spacing" textLength="92.3184" x="582.3418" y="106.7424">Observers / panels</text><rect fill="#E8F0FE" height="26.6489" rx="2.5" ry="2.5" style="stroke:#000000;stroke-width:1;" width="106.3184" x="575.3418" y="809.3613"/><text fill="#000000" font-family="Arial" font-size="11" lengthAdjust="spacing" textLength="92.3184" x="582.3418" y="826.8591">Observers / panels</text><rect fill="#FFFFFF" height="3" style="stroke:#FFFFFF;stroke-width:1;" width="695.6602" x="5" y="146.218"/><line style="stroke:#000000;stroke-width:0.5;" x1="5" x2="700.6602" y1="146.218" y2="146.218"/><line style="stroke:#000000;stroke-width:0.5;" x1="5" x2="700.6602" y1="149.218" y2="149.218"/><rect fill="#FFFFFF" height="20.6489" style="stroke:#000000;stroke-width:1;" width="95.877" x="304.8916" y="136.8936"/><text fill="#000000" font-family="Arial" font-size="11" font-weight="bold" lengthAdjust="spacing" textLength="78.8208" x="310.8916" y="151.3914">Comfort Inputs</text><polygon fill="#000000" points="230.7756,220.1382,240.7756,224.1382,230.7756,228.1382,234.7756,224.1382" style="stroke:#000000;stroke-width:1;"/><line style="stroke:#000000;stroke-width:1;" x1="87.5134" x2="236.7756" y1="224.1382" y2="224.1382"/><text fill="#000000" font-family="Arial" font-size="11" lengthAdjust="spacing" textLength="66.043" x="132.123" y="182.0403">gSeatHeatLvl</text><text fill="#000000" font-family="Arial" font-size="11" lengthAdjust="spacing" textLength="65.436" x="132.4265" y="194.6892">gSeatVentLvl</text><text fill="#000000" font-family="Arial" font-size="11" lengthAdjust="spacing" textLength="90.4761" x="119.9065" y="207.3381">driveComfortMode</text><text fill="#000000" font-family="Arial" font-size="11" lengthAdjust="spacing" textLength="99.6606" x="115.3142" y="219.9871">seatDetail freshness</text><line style="stroke:#000000;stroke-width:1;" x1="242.7756" x2="284.7756" y1="263.436" y2="263.436"/><line style="stroke:#000000;stroke-width:1;" x1="284.7756" x2="284.7756" y1="263.436" y2="276.436"/><line style="stroke:#000000;stroke-width:1;" x1="243.7756" x2="284.7756" y1="276.436" y2="276.436"/><polygon fill="#000000" points="253.7756,272.436,243.7756,276.436,253.7756,280.436,249.7756,276.436" style="stroke:#000000;stroke-width:1;"/><text fill="#000000" font-family="Arial" font-size="11" lengthAdjust="spacing" textLength="84.9922" x="300.5352" y="246.636">if seat detail stale</text><text fill="#000000" font-family="Arial" font-size="11" lengthAdjust="spacing" textLength="186.5112" x="249.7756" y="259.2849">then seatHeatLvl = 0 / seatVentLvl = 0</text><line style="stroke:#000000;stroke-width:1;" x1="242.7756" x2="284.7756" y1="315.7339" y2="315.7339"/><line style="stroke:#000000;stroke-width:1;" x1="284.7756" x2="284.7756" y1="315.7339" y2="328.7339"/><line style="stroke:#000000;stroke-width:1;" x1="243.7756" x2="284.7756" y1="328.7339" y2="328.7339"/><polygon fill="#000000" points="253.7756,324.7339,243.7756,328.7339,253.7756,332.7339,249.7756,328.7339" style="stroke:#000000;stroke-width:1;"/><text fill="#000000" font-family="Arial" font-size="11" lengthAdjust="spacing" textLength="124.1099" x="305.7263" y="298.9338">if driveComfortMode &gt;= 1</text><text fill="#000000" font-family="Arial" font-size="11" lengthAdjust="spacing" textLength="236.0112" x="249.7756" y="311.5828">massageIntensity = 20 + driveComfortMode * 10</text><line style="stroke:#000000;stroke-width:1;" x1="242.7756" x2="284.7756" y1="368.0317" y2="368.0317"/><line style="stroke:#000000;stroke-width:1;" x1="284.7756" x2="284.7756" y1="368.0317" y2="381.0317"/><line style="stroke:#000000;stroke-width:1;" x1="243.7756" x2="284.7756" y1="381.0317" y2="381.0317"/><polygon fill="#000000" points="253.7756,377.0317,243.7756,381.0317,253.7756,385.0317,249.7756,381.0317" style="stroke:#000000;stroke-width:1;"/><text fill="#000000" font-family="Arial" font-size="11" lengthAdjust="spacing" textLength="190.1743" x="256.9675" y="351.2317">if seatHeatLvl &gt;= 2 or seatVentLvl &gt;= 2</text><text fill="#000000" font-family="Arial" font-size="11" lengthAdjust="spacing" textLength="204.5581" x="249.7756" y="363.8806">massageIntensity = 30 + heat*12 + vent*8</text><path d="M247,394.0317 L247,454.0317 L417,454.0317 L417,404.0317 L407,394.0317 L247,394.0317 " fill="#FFFFFF" style="stroke:#000000;stroke-width:1;"/><path d="M407,394.0317 L407,404.0317 L417,404.0317 L407,394.0317 " fill="#FFFFFF" style="stroke:#000000;stroke-width:1;"/><text fill="#000000" font-family="Arial" font-size="11" lengthAdjust="spacing" textLength="149.8052" x="253" y="409.5295">Representative intensity inputs</text><text fill="#000000" font-family="Arial" font-size="11" lengthAdjust="spacing" textLength="131.4575" x="253" y="422.1785">- seatHeatLvl / seatVentLvl</text><text fill="#000000" font-family="Arial" font-size="11" lengthAdjust="spacing" textLength="97.1953" x="253" y="434.8274">- driveComfortMode</text><text fill="#000000" font-family="Arial" font-size="11" lengthAdjust="spacing" textLength="108.2168" x="253" y="447.4763">- seat-detail freshness</text><rect fill="#FFFFFF" height="3" style="stroke:#FFFFFF;stroke-width:1;" width="695.6602" x="5" y="478.9519"/><line style="stroke:#000000;stroke-width:0.5;" x1="5" x2="700.6602" y1="478.9519" y2="478.9519"/><line style="stroke:#000000;stroke-width:0.5;" x1="5" x2="700.6602" y1="481.9519" y2="481.9519"/><rect fill="#FFFFFF" height="20.6489" style="stroke:#000000;stroke-width:1;" width="106.3076" x="299.6763" y="469.6274"/><text fill="#000000" font-family="Arial" font-size="11" font-weight="bold" lengthAdjust="spacing" textLength="89.2515" x="305.6763" y="484.1252">Massage Publish</text><line style="stroke:#000000;stroke-width:1;" x1="242.7756" x2="284.7756" y1="518.9253" y2="518.9253"/><line style="stroke:#000000;stroke-width:1;" x1="284.7756" x2="284.7756" y1="518.9253" y2="531.9253"/><line style="stroke:#000000;stroke-width:1;" x1="243.7756" x2="284.7756" y1="531.9253" y2="531.9253"/><polygon fill="#000000" points="253.7756,527.9253,243.7756,531.9253,253.7756,535.9253,249.7756,531.9253" style="stroke:#000000;stroke-width:1;"/><text fill="#000000" font-family="Arial" font-size="11" lengthAdjust="spacing" textLength="163.8667" x="249.7756" y="514.7742">clamp massageIntensity to 0..100</text><polygon fill="#000000" points="480.7869,567.2231,490.7869,571.2231,480.7869,575.2231,484.7869,571.2231" style="stroke:#000000;stroke-width:1;"/><line style="stroke:#000000;stroke-width:1;" x1="242.7756" x2="486.7869" y1="571.2231" y2="571.2231"/><text fill="#000000" font-family="Arial" font-size="11" lengthAdjust="spacing" textLength="106.9814" x="314.2905" y="554.4231">frmMassageStateMsg</text><text fill="#000000" font-family="Arial" font-size="11" lengthAdjust="spacing" textLength="165.0859" x="285.2383" y="567.072">MassageIntensity / MassageState</text><path d="M247,584.2231 L247,631.2231 L381,631.2231 L381,594.2231 L371,584.2231 L247,584.2231 " fill="#FFFFFF" style="stroke:#000000;stroke-width:1;"/><path d="M371,584.2231 L371,594.2231 L381,594.2231 L371,584.2231 " fill="#FFFFFF" style="stroke:#000000;stroke-width:1;"/><text fill="#000000" font-family="Arial" font-size="11" lengthAdjust="spacing" textLength="113.126" x="253" y="599.7209">Representative outputs</text><text fill="#000000" font-family="Arial" font-size="11" lengthAdjust="spacing" textLength="92.3184" x="253" y="612.3699">- MassageIntensity</text><text fill="#000000" font-family="Arial" font-size="11" lengthAdjust="spacing" textLength="77.0376" x="253" y="625.0188">- MassageState</text><rect fill="#FFFFFF" height="3" style="stroke:#FFFFFF;stroke-width:1;" width="695.6602" x="5" y="656.4944"/><line style="stroke:#000000;stroke-width:0.5;" x1="5" x2="700.6602" y1="656.4944" y2="656.4944"/><line style="stroke:#000000;stroke-width:0.5;" x1="5" x2="700.6602" y1="659.4944" y2="659.4944"/><rect fill="#FFFFFF" height="20.6489" style="stroke:#000000;stroke-width:1;" width="131.3638" x="287.1482" y="647.1699"/><text fill="#000000" font-family="Arial" font-size="11" font-weight="bold" lengthAdjust="spacing" textLength="114.3076" x="293.1482" y="661.6677">Downstream Visibility</text><polygon fill="#000000" points="616.501,705.1167,626.501,709.1167,616.501,713.1167,620.501,709.1167" style="stroke:#000000;stroke-width:1;"/><line style="stroke:#000000;stroke-width:1;" x1="492.7869" x2="622.501" y1="709.1167" y2="709.1167"/><text fill="#000000" font-family="Arial" font-size="11" lengthAdjust="spacing" textLength="66.6338" x="527.327" y="692.3167">seat comfort /</text><text fill="#000000" font-family="Arial" font-size="11" lengthAdjust="spacing" textLength="92.9414" x="514.1732" y="704.9656">massage readback</text><path d="M19,722.1167 L19,795.1167 L695,795.1167 L695,732.1167 L685,722.1167 L19,722.1167 " fill="#FFFFFF" style="stroke:#000000;stroke-width:1;"/><path d="M685,722.1167 L685,732.1167 L695,732.1167 L685,722.1167 " fill="#FFFFFF" style="stroke:#000000;stroke-width:1;"/><text fill="#000000" font-family="Arial" font-size="11" lengthAdjust="spacing" textLength="143.0752" x="214.9648" y="737.6145">Representative runtime chain</text><text fill="#000000" font-family="Arial" font-size="11" lengthAdjust="spacing" textLength="254.9175" x="214.9648" y="750.2634">1. BCM-derived seat comfort commands reach MSC</text><text fill="#000000" font-family="Arial" font-size="11" lengthAdjust="spacing" textLength="275.7305" x="214.9648" y="762.9124">2. MSC converts comfort demand into massage intensity</text><text fill="#000000" font-family="Arial" font-size="11" lengthAdjust="spacing" textLength="266.5996" x="214.9648" y="775.5613">3. Massage state is published on the seat comfort path</text><text fill="#000000" font-family="Arial" font-size="11" lengthAdjust="spacing" textLength="264.7358" x="214.9648" y="788.2102">4. Observers expose the comfort-to-massage coupling</text><!--SRC=[XLJ1Rjim3BthAxZsidLB6gS5MXHmWIQjiGBpDYn3JxaeDcCBbILFajDjNpzAjfCu2R00HcpfaO_a8_dEbLWXr98BnUohK3Ktl88LpruBenkLpxNK1iwJyDj3vBZcZNI9Lkuh9myFHd1v-duX_Y94qTwbnLyDgWnJj9ON-215eI13vT3ieGpQMYlResOezTk3CVeDd6cGCIUSH5WWTp3NrLeR1pyrf3oWuPcyAIlS7rYGTouX8VEbUZ-Rfv1rSFglkCejZEuXNSoXwcn5R_k1COh5YKpKN3auEsLy1jo2lpXFhfERP3Qq8BTBoe5Yx9thDuKc67dAywVRvERfTcYqsCUlcfR27yuQ6xIudi-75jzM5iq6ZOLBe1EKhGqT1uP9yiHO76_hzApgnbc8OyPyv5twTr1uai_qVDd8fGfVBoHB-CgDs63d8DKvjcazekD2mfh4AXK9nRoZhJ-nXf1xtgAiuvBigETKEE-O88O9nMrtRFxaoDDX070VGxHKNPrsUiSmdS37O_W5H9EJuVLXaByfKBVl1-BFJd9SUOwIa1VHbDusXB-uPKex12EAqe5UUnRs0skg3TroH_7iMelUl0PiD0XXK0MwEqoYWu_omxAZoi6J1vdx6VZUhAImPT1va7WcULN3KLPEmsGyZYRRClKzTqTCLUTrGPbWQekbIW_jBs4Vy_zYwCPrDJXqjJjgNGtIUwGHiiuWxOWNOSLAo2099Td7Iw7xrhzhkw-VsCkjaBHRUEwN76k3r3GwVeO_URF3A4sZdA0LbvL-IKPZ3oG1l3Bva62xJyXzLeQCf-DGyamheg2Hww4vUgHl1tsyTjZLUAkXzVc3i52tOXAdLa0ZDAIkkIlPzHXsYm1_rzfYG7QWaTEZdYlJJIs5AdQL_GS0]--></g></svg>