<svg xmlns="http://www.w3.org/2000/svg" xmlns:xlink="http://www.w3.org/1999/xlink" contentStyleType="text/css" height="945px" preserveAspectRatio="none" style="width:860px;height:945px;background:#FFFFFF;" version="1.1" viewBox="0 0 860 945" width="860px" zoomAndPan="magnify"><title>Service Context To SGW Route Owner Signal Flow</title><defs/><g><text fill="#000000" font-family="Arial" font-size="22" font-weight="bold" lengthAdjust="spacing" textLength="529.2891" x="163.8896" y="35.9956">Service Context To SGW Route Owner Signal Flow</text><text fill="#000000" font-family="Arial" font-size="22" font-weight="bold" lengthAdjust="spacing" textLength="752.5117" x="52.2783" y="61.2935">(route/service context -&gt; SGW security session and route-owner seams)</text><line style="stroke:#000000;stroke-width:1;" x1="63" x2="63" y1="116.8936" y2="901.606"/><line style="stroke:#000000;stroke-width:1;" x1="206.1392" x2="206.1392" y1="116.8936" y2="901.606"/><line style="stroke:#000000;stroke-width:1;" x1="577.9475" x2="577.9475" y1="116.8936" y2="901.606"/><line style="stroke:#000000;stroke-width:1;" x1="788.9346" x2="788.9346" y1="116.8936" y2="901.606"/><rect fill="#F4F7FB" height="39.2979" rx="2.5" ry="2.5" style="stroke:#000000;stroke-width:1;" width="86.1392" x="20" y="76.5957"/><text fill="#000000" font-family="Arial" font-size="11" lengthAdjust="spacing" textLength="72.1392" x="27" y="94.0935">NAV / vehicle /</text><text fill="#000000" font-family="Arial" font-size="11" lengthAdjust="spacing" textLength="59.9199" x="33.1096" y="106.7424">alert context</text><rect fill="#F4F7FB" height="39.2979" rx="2.5" ry="2.5" style="stroke:#000000;stroke-width:1;" width="86.1392" x="20" y="900.606"/><text fill="#000000" font-family="Arial" font-size="11" lengthAdjust="spacing" textLength="72.1392" x="27" y="918.1038">NAV / vehicle /</text><text fill="#000000" font-family="Arial" font-size="11" lengthAdjust="spacing" textLength="59.9199" x="33.1096" y="930.7527">alert context</text><rect fill="#E8F7E8" height="39.2979" rx="2.5" ry="2.5" style="stroke:#000000;stroke-width:1;" width="140.5752" x="136.1392" y="76.5957"/><text fill="#000000" font-family="Arial" font-size="11" lengthAdjust="spacing" textLength="26.2754" x="193.2891" y="94.0935">SGW</text><text fill="#000000" font-family="Arial" font-size="11" lengthAdjust="spacing" textLength="126.5752" x="143.1392" y="106.7424">diagnostic gateway owner</text><rect fill="#E8F7E8" height="39.2979" rx="2.5" ry="2.5" style="stroke:#000000;stroke-width:1;" width="140.5752" x="136.1392" y="900.606"/><text fill="#000000" font-family="Arial" font-size="11" lengthAdjust="spacing" textLength="26.2754" x="193.2891" y="918.1038">SGW</text><text fill="#000000" font-family="Arial" font-size="11" lengthAdjust="spacing" textLength="126.5752" x="143.1392" y="930.7527">diagnostic gateway owner</text><rect fill="#FFF4CC" height="26.6489" rx="2.5" ry="2.5" style="stroke:#000000;stroke-width:1;" width="106.9146" x="524.9475" y="89.2446"/><text fill="#000000" font-family="Arial" font-size="11" lengthAdjust="spacing" textLength="92.9146" x="531.9475" y="106.7424">Diag sysvar seams</text><rect fill="#FFF4CC" height="26.6489" rx="2.5" ry="2.5" style="stroke:#000000;stroke-width:1;" width="106.9146" x="524.9475" y="900.606"/><text fill="#000000" font-family="Arial" font-size="11" lengthAdjust="spacing" textLength="92.9146" x="531.9475" y="918.1038">Diag sysvar seams</text><rect fill="#E8F0FE" height="26.6489" rx="2.5" ry="2.5" style="stroke:#000000;stroke-width:1;" width="97.1338" x="740.9346" y="89.2446"/><text fill="#000000" font-family="Arial" font-size="11" lengthAdjust="spacing" textLength="83.1338" x="747.9346" y="106.7424">Observers / tests</text><rect fill="#E8F0FE" height="26.6489" rx="2.5" ry="2.5" style="stroke:#000000;stroke-width:1;" width="97.1338" x="740.9346" y="900.606"/><text fill="#000000" font-family="Arial" font-size="11" lengthAdjust="spacing" textLength="83.1338" x="747.9346" y="918.1038">Observers / tests</text><rect fill="#FFFFFF" height="3" style="stroke:#FFFFFF;stroke-width:1;" width="848.0684" x="5" y="146.218"/><line style="stroke:#000000;stroke-width:0.5;" x1="5" x2="853.0684" y1="146.218" y2="146.218"/><line style="stroke:#000000;stroke-width:0.5;" x1="5" x2="853.0684" y1="149.218" y2="149.218"/><rect fill="#FFFFFF" height="20.6489" style="stroke:#000000;stroke-width:1;" width="92.2515" x="382.9084" y="136.8936"/><text fill="#000000" font-family="Arial" font-size="11" font-weight="bold" lengthAdjust="spacing" textLength="75.1953" x="388.9084" y="151.3914">Service Inputs</text><polygon fill="#000000" points="194.4268,270.7339,204.4268,274.7339,194.4268,278.7339,198.4268,274.7339" style="stroke:#000000;stroke-width:1;"/><line style="stroke:#000000;stroke-width:1;" x1="63.0696" x2="200.4268" y1="274.7339" y2="274.7339"/><text fill="#000000" font-family="Arial" font-size="11" lengthAdjust="spacing" textLength="55.0269" x="107.2347" y="182.0403">routeActive</text><text fill="#000000" font-family="Arial" font-size="11" lengthAdjust="spacing" textLength="92.3398" x="88.5782" y="194.6892">guidedRouteActive</text><text fill="#000000" font-family="Arial" font-size="11" lengthAdjust="spacing" textLength="53.1953" x="108.1505" y="207.3381">speedLimit</text><text fill="#000000" font-family="Arial" font-size="11" lengthAdjust="spacing" textLength="66.0483" x="101.724" y="219.9871">vehicleSpeed</text><text fill="#000000" font-family="Arial" font-size="11" lengthAdjust="spacing" textLength="47.6953" x="110.9005" y="232.636">alertLevel</text><text fill="#000000" font-family="Arial" font-size="11" lengthAdjust="spacing" textLength="69.7114" x="99.8925" y="245.2849">boundaryAlive</text><text fill="#000000" font-family="Arial" font-size="11" lengthAdjust="spacing" textLength="92.3345" x="88.5809" y="257.9338">warningPathStatus</text><text fill="#000000" font-family="Arial" font-size="11" lengthAdjust="spacing" textLength="64.2061" x="102.6451" y="270.5828">failSafeMode</text><line style="stroke:#000000;stroke-width:1;" x1="206.4268" x2="248.4268" y1="301.3828" y2="301.3828"/><line style="stroke:#000000;stroke-width:1;" x1="248.4268" x2="248.4268" y1="301.3828" y2="314.3828"/><line style="stroke:#000000;stroke-width:1;" x1="207.4268" x2="248.4268" y1="314.3828" y2="314.3828"/><polygon fill="#000000" points="217.4268,310.3828,207.4268,314.3828,217.4268,318.3828,213.4268,314.3828" style="stroke:#000000;stroke-width:1;"/><text fill="#000000" font-family="Arial" font-size="11" lengthAdjust="spacing" textLength="357.978" x="213.4268" y="297.2317">serviceContext = ethHasBoundaryServiceContext(routeActive, alertLevel)</text><line style="stroke:#000000;stroke-width:1;" x1="206.4268" x2="248.4268" y1="341.0317" y2="341.0317"/><line style="stroke:#000000;stroke-width:1;" x1="248.4268" x2="248.4268" y1="341.0317" y2="354.0317"/><line style="stroke:#000000;stroke-width:1;" x1="207.4268" x2="248.4268" y1="354.0317" y2="354.0317"/><polygon fill="#000000" points="217.4268,350.0317,207.4268,354.0317,217.4268,358.0317,213.4268,354.0317" style="stroke:#000000;stroke-width:1;"/><text fill="#000000" font-family="Arial" font-size="11" lengthAdjust="spacing" textLength="192.3228" x="213.4268" y="336.8806">diagStage = ethDiagBoundaryStage(...)</text><line style="stroke:#000000;stroke-width:1;" x1="206.4268" x2="248.4268" y1="380.6807" y2="380.6807"/><line style="stroke:#000000;stroke-width:1;" x1="248.4268" x2="248.4268" y1="380.6807" y2="393.6807"/><line style="stroke:#000000;stroke-width:1;" x1="207.4268" x2="248.4268" y1="393.6807" y2="393.6807"/><polygon fill="#000000" points="217.4268,389.6807,207.4268,393.6807,217.4268,397.6807,213.4268,393.6807" style="stroke:#000000;stroke-width:1;"/><text fill="#000000" font-family="Arial" font-size="11" lengthAdjust="spacing" textLength="300.8027" x="213.4268" y="376.5295">securitySession from serviceContext / diagStage / routeActive</text><line style="stroke:#000000;stroke-width:1;" x1="206.4268" x2="248.4268" y1="420.3296" y2="420.3296"/><line style="stroke:#000000;stroke-width:1;" x1="248.4268" x2="248.4268" y1="420.3296" y2="433.3296"/><line style="stroke:#000000;stroke-width:1;" x1="207.4268" x2="248.4268" y1="433.3296" y2="433.3296"/><polygon fill="#000000" points="217.4268,429.3296,207.4268,433.3296,217.4268,437.3296,213.4268,433.3296" style="stroke:#000000;stroke-width:1;"/><text fill="#000000" font-family="Arial" font-size="11" lengthAdjust="spacing" textLength="311.8135" x="213.4268" y="416.1785">authState / securityFault / securityPolicy derived from diagStage</text><path d="M211,446.3296 L211,519.3296 L483,519.3296 L483,456.3296 L473,446.3296 L211,446.3296 " fill="#FFFFFF" style="stroke:#000000;stroke-width:1;"/><path d="M473,446.3296 L473,456.3296 L483,456.3296 L473,446.3296 " fill="#FFFFFF" style="stroke:#000000;stroke-width:1;"/><text fill="#000000" font-family="Arial" font-size="11" lengthAdjust="spacing" textLength="139.4229" x="217" y="461.8274">Representative gating inputs</text><text fill="#000000" font-family="Arial" font-size="11" lengthAdjust="spacing" textLength="163.2544" x="217" y="474.4763">- routeActive / guidedRouteActive</text><text fill="#000000" font-family="Arial" font-size="11" lengthAdjust="spacing" textLength="54.4146" x="217" y="487.1252">- alertLevel</text><text fill="#000000" font-family="Arial" font-size="11" lengthAdjust="spacing" textLength="251.3081" x="217" y="499.7742">- boundaryAlive / warningPathStatus / failSafeMode</text><text fill="#000000" font-family="Arial" font-size="11" lengthAdjust="spacing" textLength="135.1313" x="217" y="512.4231">- speedLimit / vehicleSpeed</text><rect fill="#FFFFFF" height="3" style="stroke:#FFFFFF;stroke-width:1;" width="848.0684" x="5" y="543.8987"/><line style="stroke:#000000;stroke-width:0.5;" x1="5" x2="853.0684" y1="543.8987" y2="543.8987"/><line style="stroke:#000000;stroke-width:0.5;" x1="5" x2="853.0684" y1="546.8987" y2="546.8987"/><rect fill="#FFFFFF" height="20.6489" style="stroke:#000000;stroke-width:1;" width="127.0562" x="365.5061" y="534.5742"/><text fill="#000000" font-family="Arial" font-size="11" font-weight="bold" lengthAdjust="spacing" textLength="110" x="371.5061" y="549.072">Route-owner Publish</text><polygon fill="#000000" points="566.4048,579.8721,576.4048,583.8721,566.4048,587.8721,570.4048,583.8721" style="stroke:#000000;stroke-width:1;"/><line style="stroke:#000000;stroke-width:1;" x1="206.4268" x2="572.4048" y1="583.8721" y2="583.8721"/><text fill="#000000" font-family="Arial" font-size="11" lengthAdjust="spacing" textLength="165.0752" x="309.8782" y="579.7209">Diag::SecurityState / RouteOwner</text><polygon fill="#000000" points="566.4048,606.521,576.4048,610.521,566.4048,614.521,570.4048,610.521" style="stroke:#000000;stroke-width:1;"/><line style="stroke:#000000;stroke-width:1;" x1="206.4268" x2="572.4048" y1="610.521" y2="610.521"/><text fill="#000000" font-family="Arial" font-size="11" lengthAdjust="spacing" textLength="281.2466" x="251.7925" y="606.3699">Diag::SessionState / GatewayOpen / TesterPresentActive</text><polygon fill="#000000" points="566.4048,633.1699,576.4048,637.1699,566.4048,641.1699,570.4048,637.1699" style="stroke:#000000;stroke-width:1;"/><line style="stroke:#000000;stroke-width:1;" x1="206.4268" x2="572.4048" y1="637.1699" y2="637.1699"/><text fill="#000000" font-family="Arial" font-size="11" lengthAdjust="spacing" textLength="228.6528" x="278.0894" y="633.0188">Diag::AuthState / SecurityFault / SecurityPolicy</text><path d="M211,650.1699 L211,723.1699 L387,723.1699 L387,660.1699 L377,650.1699 L211,650.1699 " fill="#FFFFFF" style="stroke:#000000;stroke-width:1;"/><path d="M377,650.1699 L377,660.1699 L387,660.1699 L377,650.1699 " fill="#FFFFFF" style="stroke:#000000;stroke-width:1;"/><text fill="#000000" font-family="Arial" font-size="11" lengthAdjust="spacing" textLength="113.126" x="217" y="665.6677">Representative outputs</text><text fill="#000000" font-family="Arial" font-size="11" lengthAdjust="spacing" textLength="72.1392" x="217" y="678.3167">- SecurityState</text><text fill="#000000" font-family="Arial" font-size="11" lengthAdjust="spacing" textLength="68.4707" x="217" y="690.9656">- RouteOwner</text><text fill="#000000" font-family="Arial" font-size="11" lengthAdjust="spacing" textLength="71.5376" x="217" y="703.6145">- SessionState</text><text fill="#000000" font-family="Arial" font-size="11" lengthAdjust="spacing" textLength="155.2837" x="217" y="716.2634">- GatewayOpen / SecurityPolicy</text><rect fill="#FFFFFF" height="3" style="stroke:#FFFFFF;stroke-width:1;" width="848.0684" x="5" y="747.739"/><line style="stroke:#000000;stroke-width:0.5;" x1="5" x2="853.0684" y1="747.739" y2="747.739"/><line style="stroke:#000000;stroke-width:0.5;" x1="5" x2="853.0684" y1="750.739" y2="750.739"/><rect fill="#FFFFFF" height="20.6489" style="stroke:#000000;stroke-width:1;" width="131.3638" x="363.3523" y="738.4146"/><text fill="#000000" font-family="Arial" font-size="11" font-weight="bold" lengthAdjust="spacing" textLength="114.3076" x="369.3523" y="752.9124">Downstream Visibility</text><polygon fill="#000000" points="777.5015,796.3613,787.5015,800.3613,777.5015,804.3613,781.5015,800.3613" style="stroke:#000000;stroke-width:1;"/><line style="stroke:#000000;stroke-width:1;" x1="578.4048" x2="783.5015" y1="800.3613" y2="800.3613"/><text fill="#000000" font-family="Arial" font-size="11" lengthAdjust="spacing" textLength="187.0967" x="590.4048" y="783.5613">gateway security/readiness readback /</text><text fill="#000000" font-family="Arial" font-size="11" lengthAdjust="spacing" textLength="64.8184" x="651.5439" y="796.2102">test evidence</text><path d="M10,813.3613 L10,886.3613 L843,886.3613 L843,823.3613 L833,813.3613 L10,813.3613 " fill="#FFFFFF" style="stroke:#000000;stroke-width:1;"/><path d="M833,813.3613 L833,823.3613 L843,823.3613 L833,813.3613 " fill="#FFFFFF" style="stroke:#000000;stroke-width:1;"/><text fill="#000000" font-family="Arial" font-size="11" lengthAdjust="spacing" textLength="143.0752" x="256.6475" y="828.8591">Representative runtime chain</text><text fill="#000000" font-family="Arial" font-size="11" lengthAdjust="spacing" textLength="223.7705" x="256.6475" y="841.5081">1. Route and alert service context reach SGW</text><text fill="#000000" font-family="Arial" font-size="11" lengthAdjust="spacing" textLength="291.6611" x="256.6475" y="854.157">2. SGW derives diagnostic stage, session, and auth posture</text><text fill="#000000" font-family="Arial" font-size="11" lengthAdjust="spacing" textLength="247.6074" x="256.6475" y="866.8059">3. SGW publishes route-owner and security seams</text><text fill="#000000" font-family="Arial" font-size="11" lengthAdjust="spacing" textLength="330.7734" x="256.6475" y="879.4548">4. Tests and observers consume the effective gateway-access state</text><!--SRC=[XLLTRzCm57tthxZ0ooRrWy4afaf5whfr806hcWbU-k8cjwb5QWVRQLT-FVVQIPjq2FfKVvnpZy_zo2k_mIr2MKYbXVkfT2cjtC9AfZzpQogTJKrXBBoPXL_hHePhMHL-PhJ_9ebXOfKi_dwUgDy8LrUjGuU_AjGfVaNdP8wJGkKQKjGURUkMHLSQxPfRjrYO_SHQimTlAnJ2AryW96XtAaMOKYHyzl1a87du0GjJUOJ7lKOB2T7B0cQ4N-eBooT3LyFI6jR_660EqyegVw0_pYcZGUeC0g9l0fT3kNMNGf14hr9LIktXzRV9TnZ23ZSg9KN39KL3wnlkro1T8tFgdydCwzc7sMsNWe8lTQPahesZNSYbnxqyG8WQ6KZUc_kRsOVxcoxqZb3W3cudQtdXEkycl0h9kvvEkw375Jk0rf5mZyv74Es666zdzqACnqTpF-koyWx6Oo5Q3waz6qM39gbNErpgl58PPelsbYiHiozgg_nIroubl5KRzGLtM2prYkjDsWEL0uFsqcgbyxdqcyHBNxcbNajL97ADNqs6WaCV5TJfR8fW3EWtdwIxhIcJpl55IsyFJX8kkvoS3OgSOwHZGuzyl7qn60mkpsN4yadgwbbRiptNDcmH3zlMTQba5T_DbnhQ6RTKQpqtXKeFr6kMu5cCTYGNsX3OgdpZmQoPLIomfAQYFfCSZskC30OLaYlwRIqKv4KUwSR9ArfqyaM05mcZlKx6-d0gX5E_X4eGI7t6WaFPBLeDDwzMXNARM7lHe5DfZyB_qIXfVAyD2mIX-V-52Jbg80-nuHvBrBHwefP0EuzkTTFpacdIIbLobggaawh_vuI4rzdel8dMhJVnuKayBRlYps9shBqZLvstf1- -AwTMgk1fn-QUtaMFv44mEWwXfjw6XCkKfjZ0__WhmTEEvmVWZig5Phg8RpGx7hp7MT5ZnlEtsafxHT-ETCDVdwj1FRHvvCO1UZwaAMYw2Qwz6uGsYPNle3Ku7TT-hvdVlSX62OAIpYkBuds4bh6k2DmUxtoxzGqWDyJr85I32sVcE3P9awj8F7r00TThJ9kMOiVwCatP9HVoSqp07m00]--></g></svg>