<svg xmlns="http://www.w3.org/2000/svg" xmlns:xlink="http://www.w3.org/1999/xlink" contentStyleType="text/css" height="705px" preserveAspectRatio="none" style="width:710px;height:705px;background:#FFFFFF;" version="1.1" viewBox="0 0 710 705" width="710px" zoomAndPan="magnify"><title>Steering Input To SAS Angle Raw Signal Flow</title><defs/><g><text fill="#000000" font-family="Arial" font-size="22" font-weight="bold" lengthAdjust="spacing" textLength="479.1338" x="114.4064" y="35.9956">Steering Input To SAS Angle Raw Signal Flow</text><text fill="#000000" font-family="Arial" font-size="22" font-weight="bold" lengthAdjust="spacing" textLength="594.1182" x="56.9142" y="61.2935">(steering input + vehicle speed -&gt; SAS angle publication)</text><rect fill="#FFFFFF" height="321.436" style="stroke:#000000;stroke-width:1;" width="10" x="389.7588" y="238.1382"/><line style="stroke:#000000;stroke-width:1;" x1="98" x2="98" y1="116.8936" y2="660.8188"/><line style="stroke:#000000;stroke-width:1;" x1="246.4736" x2="246.4736" y1="116.8936" y2="660.8188"/><line style="stroke:#000000;stroke-width:1;" x1="394.3589" x2="394.3589" y1="116.8936" y2="660.8188"/><line style="stroke:#000000;stroke-width:1;" x1="625.3582" x2="625.3582" y1="116.8936" y2="660.8188"/><rect fill="#F4F7FB" height="39.2979" rx="2.5" ry="2.5" style="stroke:#000000;stroke-width:1;" width="156.4736" x="20" y="76.5957"/><text fill="#000000" font-family="Arial" font-size="11" lengthAdjust="spacing" textLength="67.8799" x="64.2969" y="94.0935">Steering input</text><text fill="#000000" font-family="Arial" font-size="11" lengthAdjust="spacing" textLength="142.4736" x="27" y="106.7424">manual/feature steering state</text><rect fill="#F4F7FB" height="39.2979" rx="2.5" ry="2.5" style="stroke:#000000;stroke-width:1;" width="156.4736" x="20" y="659.8188"/><text fill="#000000" font-family="Arial" font-size="11" lengthAdjust="spacing" textLength="67.8799" x="64.2969" y="677.3167">Steering input</text><text fill="#000000" font-family="Arial" font-size="11" lengthAdjust="spacing" textLength="142.4736" x="27" y="689.9656">manual/feature steering state</text><rect fill="#E8F0FE" height="39.2979" rx="2.5" ry="2.5" style="stroke:#000000;stroke-width:1;" width="81.8853" x="206.4736" y="76.5957"/><text fill="#000000" font-family="Arial" font-size="11" lengthAdjust="spacing" textLength="62.9814" x="215.9255" y="94.0935">Vehicle state</text><text fill="#000000" font-family="Arial" font-size="11" lengthAdjust="spacing" textLength="67.8853" x="213.4736" y="106.7424">VehicleSpeed</text><rect fill="#E8F0FE" height="39.2979" rx="2.5" ry="2.5" style="stroke:#000000;stroke-width:1;" width="81.8853" x="206.4736" y="659.8188"/><text fill="#000000" font-family="Arial" font-size="11" lengthAdjust="spacing" textLength="62.9814" x="215.9255" y="677.3167">Vehicle state</text><text fill="#000000" font-family="Arial" font-size="11" lengthAdjust="spacing" textLength="67.8853" x="213.4736" y="689.9656">VehicleSpeed</text><rect fill="#FFF4CC" height="39.2979" rx="2.5" ry="2.5" style="stroke:#000000;stroke-width:1;" width="152.7998" x="318.3589" y="76.5957"/><text fill="#000000" font-family="Arial" font-size="11" lengthAdjust="spacing" textLength="22.0107" x="383.7534" y="94.0935">SAS</text><text fill="#000000" font-family="Arial" font-size="11" lengthAdjust="spacing" textLength="138.7998" x="325.3589" y="106.7424">steering-angle sensor owner</text><rect fill="#FFF4CC" height="39.2979" rx="2.5" ry="2.5" style="stroke:#000000;stroke-width:1;" width="152.7998" x="318.3589" y="659.8188"/><text fill="#000000" font-family="Arial" font-size="11" lengthAdjust="spacing" textLength="22.0107" x="383.7534" y="677.3167">SAS</text><text fill="#000000" font-family="Arial" font-size="11" lengthAdjust="spacing" textLength="138.7998" x="325.3589" y="689.9656">steering-angle sensor owner</text><rect fill="#FCE8FF" height="39.2979" rx="2.5" ry="2.5" style="stroke:#000000;stroke-width:1;" width="110.5884" x="570.3582" y="76.5957"/><text fill="#000000" font-family="Arial" font-size="11" lengthAdjust="spacing" textLength="96.5884" x="577.3582" y="94.0935">Chassis observers /</text><text fill="#000000" font-family="Arial" font-size="11" lengthAdjust="spacing" textLength="53.7969" x="598.7539" y="106.7424">consumers</text><rect fill="#FCE8FF" height="39.2979" rx="2.5" ry="2.5" style="stroke:#000000;stroke-width:1;" width="110.5884" x="570.3582" y="659.8188"/><text fill="#000000" font-family="Arial" font-size="11" lengthAdjust="spacing" textLength="96.5884" x="577.3582" y="677.3167">Chassis observers /</text><text fill="#000000" font-family="Arial" font-size="11" lengthAdjust="spacing" textLength="53.7969" x="598.7539" y="689.9656">consumers</text><rect fill="#FFFFFF" height="321.436" style="stroke:#000000;stroke-width:1;" width="10" x="389.7588" y="238.1382"/><rect fill="#FFFFFF" height="3" style="stroke:#FFFFFF;stroke-width:1;" width="698.9465" x="5" y="146.218"/><line style="stroke:#000000;stroke-width:0.5;" x1="5" x2="703.9465" y1="146.218" y2="146.218"/><line style="stroke:#000000;stroke-width:0.5;" x1="5" x2="703.9465" y1="149.218" y2="149.218"/><rect fill="#FFFFFF" height="20.6489" style="stroke:#000000;stroke-width:1;" width="75.7246" x="316.611" y="136.8936"/><text fill="#000000" font-family="Arial" font-size="11" font-weight="bold" lengthAdjust="spacing" textLength="58.6685" x="322.611" y="151.3914">SAS Inputs</text><polygon fill="#000000" points="382.7588,194.8403,392.7588,198.8403,382.7588,202.8403,386.7588,198.8403" style="stroke:#000000;stroke-width:1;"/><line style="stroke:#000000;stroke-width:1;" x1="98.2368" x2="388.7588" y1="198.8403" y2="198.8403"/><text fill="#000000" font-family="Arial" font-size="11" lengthAdjust="spacing" textLength="123.4976" x="184.749" y="182.0403">frmSteeringStateCanMsg</text><text fill="#000000" font-family="Arial" font-size="11" lengthAdjust="spacing" textLength="118.0137" x="187.491" y="194.6892">or manual steering input</text><polygon fill="#000000" points="377.7588,234.1382,387.7588,238.1382,377.7588,242.1382,381.7588,238.1382" style="stroke:#000000;stroke-width:1;"/><line style="stroke:#000000;stroke-width:1;" x1="247.4163" x2="383.7588" y1="238.1382" y2="238.1382"/><text fill="#000000" font-family="Arial" font-size="11" lengthAdjust="spacing" textLength="118.6045" x="259.2853" y="221.3381">frmVehicleStateCanMsg</text><text fill="#000000" font-family="Arial" font-size="11" lengthAdjust="spacing" textLength="67.8853" x="284.6449" y="233.9871">VehicleSpeed</text><line style="stroke:#000000;stroke-width:1;" x1="399.7588" x2="441.7588" y1="264.7871" y2="264.7871"/><line style="stroke:#000000;stroke-width:1;" x1="441.7588" x2="441.7588" y1="264.7871" y2="277.7871"/><line style="stroke:#000000;stroke-width:1;" x1="400.7588" x2="441.7588" y1="277.7871" y2="277.7871"/><polygon fill="#000000" points="410.7588,273.7871,400.7588,277.7871,410.7588,281.7871,406.7588,277.7871" style="stroke:#000000;stroke-width:1;"/><text fill="#000000" font-family="Arial" font-size="11" lengthAdjust="spacing" textLength="191.9844" x="406.7588" y="260.636">normalize stale steering / vehicle inputs</text><line style="stroke:#000000;stroke-width:1;" x1="399.7588" x2="441.7588" y1="317.085" y2="317.085"/><line style="stroke:#000000;stroke-width:1;" x1="441.7588" x2="441.7588" y1="317.085" y2="330.085"/><line style="stroke:#000000;stroke-width:1;" x1="400.7588" x2="441.7588" y1="330.085" y2="330.085"/><polygon fill="#000000" points="410.7588,326.085,400.7588,330.085,410.7588,334.085,406.7588,330.085" style="stroke:#000000;stroke-width:1;"/><text fill="#000000" font-family="Arial" font-size="11" lengthAdjust="spacing" textLength="180.3828" x="406.7588" y="300.2849">in manual mode derive steering input</text><text fill="#000000" font-family="Arial" font-size="11" lengthAdjust="spacing" textLength="137.5591" x="428.1707" y="312.9338">from Chassis::steeringAngle</text><line style="stroke:#000000;stroke-width:1;" x1="399.7588" x2="441.7588" y1="356.7339" y2="356.7339"/><line style="stroke:#000000;stroke-width:1;" x1="441.7588" x2="441.7588" y1="356.7339" y2="369.7339"/><line style="stroke:#000000;stroke-width:1;" x1="400.7588" x2="441.7588" y1="369.7339" y2="369.7339"/><polygon fill="#000000" points="410.7588,365.7339,400.7588,369.7339,410.7588,373.7339,406.7588,369.7339" style="stroke:#000000;stroke-width:1;"/><text fill="#000000" font-family="Arial" font-size="11" lengthAdjust="spacing" textLength="196.8936" x="406.7588" y="352.5828">map steering input to SteeringAngleRaw</text><path d="M404,382.7339 L404,467.7339 L538,467.7339 L538,392.7339 L528,382.7339 L404,382.7339 " fill="#FFFFFF" style="stroke:#000000;stroke-width:1;"/><path d="M528,382.7339 L528,392.7339 L538,392.7339 L528,382.7339 " fill="#FFFFFF" style="stroke:#000000;stroke-width:1;"/><text fill="#000000" font-family="Arial" font-size="11" lengthAdjust="spacing" textLength="113.126" x="410" y="398.2317">Representative outputs</text><text fill="#000000" font-family="Arial" font-size="11" lengthAdjust="spacing" textLength="97.8291" x="410" y="410.8806">- SteeringAngleRaw</text><text fill="#000000" font-family="Arial" font-size="11" lengthAdjust="spacing" textLength="3.0562" x="410" y="423.5295">&#160;</text><text fill="#000000" font-family="Arial" font-size="11" lengthAdjust="spacing" textLength="106.396" x="410" y="436.1785">Representative inputs</text><text fill="#000000" font-family="Arial" font-size="11" lengthAdjust="spacing" textLength="72.7622" x="410" y="448.8274">- steering input</text><text fill="#000000" font-family="Arial" font-size="11" lengthAdjust="spacing" textLength="73.9868" x="410" y="461.4763">- vehicle speed</text><rect fill="#FFFFFF" height="3" style="stroke:#FFFFFF;stroke-width:1;" width="698.9465" x="5" y="492.9519"/><line style="stroke:#000000;stroke-width:0.5;" x1="5" x2="703.9465" y1="492.9519" y2="492.9519"/><line style="stroke:#000000;stroke-width:0.5;" x1="5" x2="703.9465" y1="495.9519" y2="495.9519"/><rect fill="#FFFFFF" height="20.6489" style="stroke:#000000;stroke-width:1;" width="82.4546" x="313.246" y="483.6274"/><text fill="#000000" font-family="Arial" font-size="11" font-weight="bold" lengthAdjust="spacing" textLength="65.3984" x="319.246" y="498.1252">SAS Publish</text><polygon fill="#000000" points="613.6523,528.9253,623.6523,532.9253,613.6523,536.9253,617.6523,532.9253" style="stroke:#000000;stroke-width:1;"/><line style="stroke:#000000;stroke-width:1;" x1="399.7588" x2="619.6523" y1="532.9253" y2="532.9253"/><text fill="#000000" font-family="Arial" font-size="11" lengthAdjust="spacing" textLength="105.7676" x="459.8218" y="528.7742">frmSteeringAngleMsg</text><polygon fill="#000000" points="613.6523,555.5742,623.6523,559.5742,613.6523,563.5742,617.6523,559.5742" style="stroke:#000000;stroke-width:1;"/><line style="stroke:#000000;stroke-width:1;" x1="394.7588" x2="619.6523" y1="559.5742" y2="559.5742"/><text fill="#000000" font-family="Arial" font-size="11" lengthAdjust="spacing" textLength="179.749" x="420.3311" y="555.4231">traceable raw steering-angle visibility</text><path d="M23,572.5742 L23,645.5742 L698,645.5742 L698,582.5742 L688,572.5742 L23,572.5742 " fill="#FFFFFF" style="stroke:#000000;stroke-width:1;"/><path d="M688,572.5742 L688,582.5742 L698,582.5742 L688,572.5742 " fill="#FFFFFF" style="stroke:#000000;stroke-width:1;"/><text fill="#000000" font-family="Arial" font-size="11" lengthAdjust="spacing" textLength="143.0752" x="197.5023" y="588.072">Representative runtime chain</text><text fill="#000000" font-family="Arial" font-size="11" lengthAdjust="spacing" textLength="258.6128" x="197.5023" y="600.7209">1. Steering state arrives from chassis/manual context</text><text fill="#000000" font-family="Arial" font-size="11" lengthAdjust="spacing" textLength="185.8721" x="197.5023" y="613.3699">2. SAS combines it with vehicle speed</text><text fill="#000000" font-family="Arial" font-size="11" lengthAdjust="spacing" textLength="166.9229" x="197.5023" y="626.0188">3. SAS derives SteeringAngleRaw</text><text fill="#000000" font-family="Arial" font-size="11" lengthAdjust="spacing" textLength="317.9419" x="197.5023" y="638.6677">4. Chassis observers consume the raw steering-angle publication</text><!--SRC=[RLJ1RjD04BtlLmpj1GHfA5G2LGfI6jKIXmAg4ITVnix4NjMUDRlh1FXwPjTnQZlDpPbvC_FUczbNlgA6eArHit9Fcbkqs42EnLDfJSVRZQcDXSia_aOPMzfXL_l4iF-6Kc5jDTOlnrFzZ-3wUXHqzBiZBkY1dCEIrhKk6GfYJtQKPScrXjsGTKUrEQojDGVmjYEblFOrGUg9hEOIldBRUVXf85sdiEPIOezuW5HgOms9W3D-xOPi7RFVmfugNKYgQucsiFWIqHZHRPVNka2l3RzHIcRokj0jieUBT58cumQvmtgv8_ITbM93s7dqT07e-Z55nvlaKt8tBVPh624aPtpyJCD04If_mENzv-HzSZ-ROfrcFFHQz4CxOYU6cGEJxHiBds3VpMOpHMygT4uxCBaZkoVhO9bn8O9tZNn4xFVS2NOZlHEbLgjOAyhiOBLIgkTqrEmMThOPT4a3bGtoWoipbd5wVM2glWh4nkY1-HWyLaDXuVLUWW6Y0ko4bYODrc7HHCLwvC3ov73iwQOmpSDeZTcIBAtLUvgDcV7EcWQESjtU3j6uOjDo3ROpC7Xpsj08a9LKR8I2rMNbmUmYbqTgPTlb06JRP03J-JZhuXmxJpsoMiorNKmtMn5l8VGz-VWZRBUhUYDx4i7kYOsngzWmJV0M2y9SIbkvhzd-xRNJkQwr_wksDF6hfsraqtfMxqAvEHtRiTVod1HLU92khvxFEru7e0qEEOYM5BqbowE5ihkU_dZruIeIB4oJQvPSxU6WVJKJv6EVrLlkpeM-kOBp2pcU1yYh-HBvqOlnBFX_]--></g></svg>