<svg xmlns="http://www.w3.org/2000/svg" xmlns:xlink="http://www.w3.org/1999/xlink" contentStyleType="text/css" height="679px" preserveAspectRatio="none" style="width:770px;height:679px;background:#FFFFFF;" version="1.1" viewBox="0 0 770 679" width="770px" zoomAndPan="magnify"><title>Tailgate Control To TGM Position Signal Flow</title><defs/><g><text fill="#000000" font-family="Arial" font-size="22" font-weight="bold" lengthAdjust="spacing" textLength="476.6523" x="145.2153" y="35.9956">Tailgate Control To TGM Position Signal Flow</text><text fill="#000000" font-family="Arial" font-size="22" font-weight="bold" lengthAdjust="spacing" textLength="697.2969" x="34.8931" y="61.2935">(power-tailgate control request -&gt; TGM position/power publication)</text><rect fill="#FFFFFF" height="296.1382" style="stroke:#000000;stroke-width:1;" width="10" x="432.4207" y="238.1382"/><line style="stroke:#000000;stroke-width:1;" x1="102" x2="102" y1="116.8936" y2="635.521"/><line style="stroke:#000000;stroke-width:1;" x1="252.4175" x2="252.4175" y1="116.8936" y2="635.521"/><line style="stroke:#000000;stroke-width:1;" x1="437.1772" x2="437.1772" y1="116.8936" y2="635.521"/><line style="stroke:#000000;stroke-width:1;" x1="687.6577" x2="687.6577" y1="116.8936" y2="635.521"/><rect fill="#F4F7FB" height="39.2979" rx="2.5" ry="2.5" style="stroke:#000000;stroke-width:1;" width="164.4175" x="20" y="76.5957"/><text fill="#000000" font-family="Arial" font-size="11" lengthAdjust="spacing" textLength="111.2783" x="46.5696" y="94.0935">Tailgate control source</text><text fill="#000000" font-family="Arial" font-size="11" lengthAdjust="spacing" textLength="150.4175" x="27" y="106.7424">assist / open request / actuator</text><rect fill="#F4F7FB" height="39.2979" rx="2.5" ry="2.5" style="stroke:#000000;stroke-width:1;" width="164.4175" x="20" y="634.521"/><text fill="#000000" font-family="Arial" font-size="11" lengthAdjust="spacing" textLength="111.2783" x="46.5696" y="652.0188">Tailgate control source</text><text fill="#000000" font-family="Arial" font-size="11" lengthAdjust="spacing" textLength="150.4175" x="27" y="664.6677">assist / open request / actuator</text><rect fill="#E8F0FE" height="39.2979" rx="2.5" ry="2.5" style="stroke:#000000;stroke-width:1;" width="76.9814" x="214.4175" y="76.5957"/><text fill="#000000" font-family="Arial" font-size="11" lengthAdjust="spacing" textLength="62.9814" x="221.4175" y="94.0935">Vehicle state</text><text fill="#000000" font-family="Arial" font-size="11" lengthAdjust="spacing" textLength="51.353" x="227.2317" y="106.7424">DriveState</text><rect fill="#E8F0FE" height="39.2979" rx="2.5" ry="2.5" style="stroke:#000000;stroke-width:1;" width="76.9814" x="214.4175" y="634.521"/><text fill="#000000" font-family="Arial" font-size="11" lengthAdjust="spacing" textLength="62.9814" x="221.4175" y="652.0188">Vehicle state</text><text fill="#000000" font-family="Arial" font-size="11" lengthAdjust="spacing" textLength="51.353" x="227.2317" y="664.6677">DriveState</text><rect fill="#FFF4CC" height="39.2979" rx="2.5" ry="2.5" style="stroke:#000000;stroke-width:1;" width="82.4868" x="396.1772" y="76.5957"/><text fill="#000000" font-family="Arial" font-size="11" lengthAdjust="spacing" textLength="24.4385" x="425.2014" y="94.0935">TGM</text><text fill="#000000" font-family="Arial" font-size="11" lengthAdjust="spacing" textLength="68.4868" x="403.1772" y="106.7424">tailgate owner</text><rect fill="#FFF4CC" height="39.2979" rx="2.5" ry="2.5" style="stroke:#000000;stroke-width:1;" width="82.4868" x="396.1772" y="634.521"/><text fill="#000000" font-family="Arial" font-size="11" lengthAdjust="spacing" textLength="24.4385" x="425.2014" y="652.0188">TGM</text><text fill="#000000" font-family="Arial" font-size="11" lengthAdjust="spacing" textLength="68.4868" x="403.1772" y="664.6677">tailgate owner</text><rect fill="#FCE8FF" height="26.6489" rx="2.5" ry="2.5" style="stroke:#000000;stroke-width:1;" width="90.4253" x="642.6577" y="89.2446"/><text fill="#000000" font-family="Arial" font-size="11" lengthAdjust="spacing" textLength="76.4253" x="649.6577" y="106.7424">Body observers</text><rect fill="#FCE8FF" height="26.6489" rx="2.5" ry="2.5" style="stroke:#000000;stroke-width:1;" width="90.4253" x="642.6577" y="634.521"/><text fill="#000000" font-family="Arial" font-size="11" lengthAdjust="spacing" textLength="76.4253" x="649.6577" y="652.0188">Body observers</text><rect fill="#FFFFFF" height="296.1382" style="stroke:#000000;stroke-width:1;" width="10" x="432.4207" y="238.1382"/><rect fill="#FFFFFF" height="3" style="stroke:#FFFFFF;stroke-width:1;" width="758.083" x="5" y="146.218"/><line style="stroke:#000000;stroke-width:0.5;" x1="5" x2="763.083" y1="146.218" y2="146.218"/><line style="stroke:#000000;stroke-width:0.5;" x1="5" x2="763.083" y1="149.218" y2="149.218"/><rect fill="#FFFFFF" height="20.6489" style="stroke:#000000;stroke-width:1;" width="136.8315" x="315.6257" y="136.8936"/><text fill="#000000" font-family="Arial" font-size="11" font-weight="bold" lengthAdjust="spacing" textLength="119.7754" x="321.6257" y="151.3914">Tailgate Control Inputs</text><polygon fill="#000000" points="425.4207,194.8403,435.4207,198.8403,425.4207,202.8403,429.4207,198.8403" style="stroke:#000000;stroke-width:1;"/><line style="stroke:#000000;stroke-width:1;" x1="102.2087" x2="431.4207" y1="198.8403" y2="198.8403"/><text fill="#000000" font-family="Arial" font-size="11" lengthAdjust="spacing" textLength="149.7676" x="194.9309" y="182.0403">frmPowerTailgateCtrlStateMsg</text><text fill="#000000" font-family="Arial" font-size="11" lengthAdjust="spacing" textLength="311.2119" x="114.2087" y="194.6892">TailgateAssistMode / OpenRequestState / TailgateActuatorCmd</text><polygon fill="#000000" points="420.4207,234.1382,430.4207,238.1382,420.4207,242.1382,424.4207,238.1382" style="stroke:#000000;stroke-width:1;"/><line style="stroke:#000000;stroke-width:1;" x1="252.9082" x2="426.4207" y1="238.1382" y2="238.1382"/><text fill="#000000" font-family="Arial" font-size="11" lengthAdjust="spacing" textLength="118.6045" x="283.3622" y="221.3381">frmVehicleStateCanMsg</text><text fill="#000000" font-family="Arial" font-size="11" lengthAdjust="spacing" textLength="51.353" x="316.9879" y="233.9871">DriveState</text><line style="stroke:#000000;stroke-width:1;" x1="442.4207" x2="484.4207" y1="264.7871" y2="264.7871"/><line style="stroke:#000000;stroke-width:1;" x1="484.4207" x2="484.4207" y1="264.7871" y2="277.7871"/><line style="stroke:#000000;stroke-width:1;" x1="443.4207" x2="484.4207" y1="277.7871" y2="277.7871"/><polygon fill="#000000" points="453.4207,273.7871,443.4207,277.7871,453.4207,281.7871,449.4207,277.7871" style="stroke:#000000;stroke-width:1;"/><text fill="#000000" font-family="Arial" font-size="11" lengthAdjust="spacing" textLength="185.8667" x="449.4207" y="260.636">normalize stale control / vehicle inputs</text><line style="stroke:#000000;stroke-width:1;" x1="442.4207" x2="484.4207" y1="317.085" y2="317.085"/><line style="stroke:#000000;stroke-width:1;" x1="484.4207" x2="484.4207" y1="317.085" y2="330.085"/><line style="stroke:#000000;stroke-width:1;" x1="443.4207" x2="484.4207" y1="330.085" y2="330.085"/><polygon fill="#000000" points="453.4207,326.085,443.4207,330.085,453.4207,334.085,449.4207,330.085" style="stroke:#000000;stroke-width:1;"/><text fill="#000000" font-family="Arial" font-size="11" lengthAdjust="spacing" textLength="149.7998" x="479.0852" y="300.2849">derive TailgateOpenState from</text><text fill="#000000" font-family="Arial" font-size="11" lengthAdjust="spacing" textLength="209.1289" x="449.4207" y="312.9338">OpenRequestState and actuator command</text><line style="stroke:#000000;stroke-width:1;" x1="442.4207" x2="484.4207" y1="356.7339" y2="356.7339"/><line style="stroke:#000000;stroke-width:1;" x1="484.4207" x2="484.4207" y1="356.7339" y2="369.7339"/><line style="stroke:#000000;stroke-width:1;" x1="443.4207" x2="484.4207" y1="369.7339" y2="369.7339"/><polygon fill="#000000" points="453.4207,365.7339,443.4207,369.7339,453.4207,373.7339,449.4207,369.7339" style="stroke:#000000;stroke-width:1;"/><text fill="#000000" font-family="Arial" font-size="11" lengthAdjust="spacing" textLength="216.4497" x="449.4207" y="352.5828">derive TailgatePowerState / TailgatePosition</text><path d="M447,382.7339 L447,442.7339 L581,442.7339 L581,392.7339 L571,382.7339 L447,382.7339 " fill="#FFFFFF" style="stroke:#000000;stroke-width:1;"/><path d="M571,382.7339 L571,392.7339 L581,392.7339 L571,382.7339 " fill="#FFFFFF" style="stroke:#000000;stroke-width:1;"/><text fill="#000000" font-family="Arial" font-size="11" lengthAdjust="spacing" textLength="113.126" x="453" y="398.2317">Representative outputs</text><text fill="#000000" font-family="Arial" font-size="11" lengthAdjust="spacing" textLength="98.4468" x="453" y="410.8806">- TailgateOpenState</text><text fill="#000000" font-family="Arial" font-size="11" lengthAdjust="spacing" textLength="102.7168" x="453" y="423.5295">- TailgatePowerState</text><text fill="#000000" font-family="Arial" font-size="11" lengthAdjust="spacing" textLength="84.9868" x="453" y="436.1785">- TailgatePosition</text><rect fill="#FFFFFF" height="3" style="stroke:#FFFFFF;stroke-width:1;" width="758.083" x="5" y="467.6541"/><line style="stroke:#000000;stroke-width:0.5;" x1="5" x2="763.083" y1="467.6541" y2="467.6541"/><line style="stroke:#000000;stroke-width:0.5;" x1="5" x2="763.083" y1="470.6541" y2="470.6541"/><rect fill="#FFFFFF" height="20.6489" style="stroke:#000000;stroke-width:1;" width="101.4038" x="333.3396" y="458.3296"/><text fill="#000000" font-family="Arial" font-size="11" font-weight="bold" lengthAdjust="spacing" textLength="84.3477" x="339.3396" y="472.8274">Tailgate Publish</text><polygon fill="#000000" points="675.8704,503.6274,685.8704,507.6274,675.8704,511.6274,679.8704,507.6274" style="stroke:#000000;stroke-width:1;"/><line style="stroke:#000000;stroke-width:1;" x1="442.4207" x2="681.8704" y1="507.6274" y2="507.6274"/><text fill="#000000" font-family="Arial" font-size="11" lengthAdjust="spacing" textLength="101.4814" x="514.4048" y="503.4763">frmTailgateStateMsg</text><polygon fill="#000000" points="675.8704,530.2764,685.8704,534.2764,675.8704,538.2764,679.8704,534.2764" style="stroke:#000000;stroke-width:1;"/><line style="stroke:#000000;stroke-width:1;" x1="437.4207" x2="681.8704" y1="534.2764" y2="534.2764"/><text fill="#000000" font-family="Arial" font-size="11" lengthAdjust="spacing" textLength="184.6689" x="470.311" y="530.1252">traceable tailgate position/power state</text><path d="M30,547.2764 L30,620.2764 L758,620.2764 L758,557.2764 L748,547.2764 L30,547.2764 " fill="#FFFFFF" style="stroke:#000000;stroke-width:1;"/><path d="M748,547.2764 L748,557.2764 L758,557.2764 L748,547.2764 " fill="#FFFFFF" style="stroke:#000000;stroke-width:1;"/><text fill="#000000" font-family="Arial" font-size="11" lengthAdjust="spacing" textLength="143.0752" x="247.0894" y="562.7742">Representative runtime chain</text><text fill="#000000" font-family="Arial" font-size="11" lengthAdjust="spacing" textLength="188.3052" x="247.0894" y="575.4231">1. Tailgate control request enters TGM</text><text fill="#000000" font-family="Arial" font-size="11" lengthAdjust="spacing" textLength="219.5005" x="247.0894" y="588.072">2. TGM applies drive-state and control gating</text><text fill="#000000" font-family="Arial" font-size="11" lengthAdjust="spacing" textLength="203.6021" x="247.0894" y="600.7209">3. TGM derives power/open/position state</text><text fill="#000000" font-family="Arial" font-size="11" lengthAdjust="spacing" textLength="284.9043" x="247.0894" y="613.3699">4. Observers confirm the resulting tailgate movement state</text><!--SRC=[VLHDRzim3BthLt3jPGEMUja2R1YG0QbN5pjaBTfWfrmKct64ofGdoGcsNpzA_aYSRCifeFaU7nz9lV8xh11gBHK9zwAebbPMi97vIsbDGqLgjB5mdSNVIKQ1MzbedndotoKpBAoI-k_VdzLlXEdqvAF3dmrIZajqJfQuqAeao94ysfCiYwusvFgiMzJciB3M7C3R1eNmock4bLIwb1uXvLBMQ5WPMDqluT4uvPKXU6PogI5Zz9fUr-Q0Tk9xKDw1R53aF4o-H73TWPEO3dMpqIgN8V9625RdLQvgIHwkLkTCpZGsnpL9vnGJ9c1gf84_0PdxHdfZhq0wIBtLREui-vZTZdb_u4xbt9xpJBwchrRjyJdyZpZ-2jTtdx9tsTsPdFlbceRkp86mBHIQ2aESfUaOS6kANs0s3kqUhOkv3nl7kIdJPqBCvvSEVwEwyGxcSo5Y0vrfds5hgyTWM8y8NwFefIlNr4SNqPcbAP3jU61tdbfpOYQ7XhpEgRGgH6Zuj4ndJuIaaYB_qIF19gjzO6E02A01IyPMKeUDP6VrSMm9x3l7LUnkZ2emS0_AWkXMxTQQQaqNJKWgXa5pYQhYm7yPestd1lGhBCXmtAfovy5iOqzFMFDvyCNmKZADQNmKFRcKU18x5Xa5koB8caEXySmVm-gxNHnsrq3OZpY4FgaVyJZ1MvcZtB2ZmpwUdLNSRL7WQ5fjiuQtCLx7sy1stgvjo2j-TF9TUBQcDx3wrpt7DoMkltX_4wsNTQqLEYY2_nCtZAj7CesYKdneizinEOY2at3AITz49tzs4nIsvnD8jifMmAzgUBxu0MIkO_yLjrMnf0uwEFu7]--></g></svg>