<svg xmlns="http://www.w3.org/2000/svg" xmlns:xlink="http://www.w3.org/1999/xlink" contentStyleType="text/css" height="731px" preserveAspectRatio="none" style="width:856px;height:731px;background:#FFFFFF;" version="1.1" viewBox="0 0 856 731" width="856px" zoomAndPan="magnify"><title>TMU + DKEY To PAAK State Signal Flow</title><defs/><g><text fill="#000000" font-family="Arial" font-size="22" font-weight="bold" lengthAdjust="spacing" textLength="423.5322" x="214.7485" y="35.9956">TMU + DKEY To PAAK State Signal Flow</text><text fill="#000000" font-family="Arial" font-size="22" font-weight="bold" lengthAdjust="spacing" textLength="765.875" x="43.5771" y="61.2935">(DKEY auth + TMU proximity + vehicle state -&gt; Phone-as-Key publication)</text><rect fill="#FFFFFF" height="308.7871" style="stroke:#000000;stroke-width:1;" width="10" x="523.7695" y="277.436"/><line style="stroke:#000000;stroke-width:1;" x1="82" x2="82" y1="116.8936" y2="687.4678"/><line style="stroke:#000000;stroke-width:1;" x1="245.896" x2="245.896" y1="116.8936" y2="687.4678"/><line style="stroke:#000000;stroke-width:1;" x1="385.6743" x2="385.6743" y1="116.8936" y2="687.4678"/><line style="stroke:#000000;stroke-width:1;" x1="527.9365" x2="527.9365" y1="116.8936" y2="687.4678"/><line style="stroke:#000000;stroke-width:1;" x1="778.1094" x2="778.1094" y1="116.8936" y2="687.4678"/><rect fill="#E8F7E8" height="39.2979" rx="2.5" ry="2.5" style="stroke:#000000;stroke-width:1;" width="125.896" x="20" y="76.5957"/><text fill="#000000" font-family="Arial" font-size="11" lengthAdjust="spacing" textLength="29.9546" x="67.9707" y="94.0935">DKEY</text><text fill="#000000" font-family="Arial" font-size="11" lengthAdjust="spacing" textLength="111.896" x="27" y="106.7424">DKeyState / AuthMode</text><rect fill="#E8F7E8" height="39.2979" rx="2.5" ry="2.5" style="stroke:#000000;stroke-width:1;" width="125.896" x="20" y="686.4678"/><text fill="#000000" font-family="Arial" font-size="11" lengthAdjust="spacing" textLength="29.9546" x="67.9707" y="703.9656">DKEY</text><text fill="#000000" font-family="Arial" font-size="11" lengthAdjust="spacing" textLength="111.896" x="27" y="716.6145">DKeyState / AuthMode</text><rect fill="#E8F0FE" height="39.2979" rx="2.5" ry="2.5" style="stroke:#000000;stroke-width:1;" width="141.7783" x="175.896" y="76.5957"/><text fill="#000000" font-family="Arial" font-size="11" lengthAdjust="spacing" textLength="23.8262" x="234.8721" y="94.0935">TMU</text><text fill="#000000" font-family="Arial" font-size="11" lengthAdjust="spacing" textLength="127.7783" x="182.896" y="106.7424">SignalBars / service mode</text><rect fill="#E8F0FE" height="39.2979" rx="2.5" ry="2.5" style="stroke:#000000;stroke-width:1;" width="141.7783" x="175.896" y="686.4678"/><text fill="#000000" font-family="Arial" font-size="11" lengthAdjust="spacing" textLength="23.8262" x="234.8721" y="703.9656">TMU</text><text fill="#000000" font-family="Arial" font-size="11" lengthAdjust="spacing" textLength="127.7783" x="182.896" y="716.6145">SignalBars / service mode</text><rect fill="#F4F7FB" height="39.2979" rx="2.5" ry="2.5" style="stroke:#000000;stroke-width:1;" width="76.9814" x="347.6743" y="76.5957"/><text fill="#000000" font-family="Arial" font-size="11" lengthAdjust="spacing" textLength="62.9814" x="354.6743" y="94.0935">Vehicle state</text><text fill="#000000" font-family="Arial" font-size="11" lengthAdjust="spacing" textLength="51.353" x="360.4885" y="106.7424">DriveState</text><rect fill="#F4F7FB" height="39.2979" rx="2.5" ry="2.5" style="stroke:#000000;stroke-width:1;" width="76.9814" x="347.6743" y="686.4678"/><text fill="#000000" font-family="Arial" font-size="11" lengthAdjust="spacing" textLength="62.9814" x="354.6743" y="703.9656">Vehicle state</text><text fill="#000000" font-family="Arial" font-size="11" lengthAdjust="spacing" textLength="51.353" x="360.4885" y="716.6145">DriveState</text><rect fill="#FFF4CC" height="39.2979" rx="2.5" ry="2.5" style="stroke:#000000;stroke-width:1;" width="113.666" x="471.9365" y="76.5957"/><text fill="#000000" font-family="Arial" font-size="11" lengthAdjust="spacing" textLength="22.0107" x="517.7642" y="94.0935">PAK</text><text fill="#000000" font-family="Arial" font-size="11" lengthAdjust="spacing" textLength="99.666" x="478.9365" y="106.7424">phone-as-key owner</text><rect fill="#FFF4CC" height="39.2979" rx="2.5" ry="2.5" style="stroke:#000000;stroke-width:1;" width="113.666" x="471.9365" y="686.4678"/><text fill="#000000" font-family="Arial" font-size="11" lengthAdjust="spacing" textLength="22.0107" x="517.7642" y="703.9656">PAK</text><text fill="#000000" font-family="Arial" font-size="11" lengthAdjust="spacing" textLength="99.666" x="478.9365" y="716.6145">phone-as-key owner</text><rect fill="#FCE8FF" height="39.2979" rx="2.5" ry="2.5" style="stroke:#000000;stroke-width:1;" width="106.9199" x="725.1094" y="76.5957"/><text fill="#000000" font-family="Arial" font-size="11" lengthAdjust="spacing" textLength="92.9199" x="732.1094" y="94.0935">Access observers /</text><text fill="#000000" font-family="Arial" font-size="11" lengthAdjust="spacing" textLength="80.0776" x="738.5305" y="106.7424">consumer ECUs</text><rect fill="#FCE8FF" height="39.2979" rx="2.5" ry="2.5" style="stroke:#000000;stroke-width:1;" width="106.9199" x="725.1094" y="686.4678"/><text fill="#000000" font-family="Arial" font-size="11" lengthAdjust="spacing" textLength="92.9199" x="732.1094" y="703.9656">Access observers /</text><text fill="#000000" font-family="Arial" font-size="11" lengthAdjust="spacing" textLength="80.0776" x="738.5305" y="716.6145">consumer ECUs</text><rect fill="#FFFFFF" height="308.7871" style="stroke:#000000;stroke-width:1;" width="10" x="523.7695" y="277.436"/><rect fill="#FFFFFF" height="3" style="stroke:#FFFFFF;stroke-width:1;" width="844.0293" x="5" y="146.218"/><line style="stroke:#000000;stroke-width:0.5;" x1="5" x2="849.0293" y1="146.218" y2="146.218"/><line style="stroke:#000000;stroke-width:0.5;" x1="5" x2="849.0293" y1="149.218" y2="149.218"/><rect fill="#FFFFFF" height="20.6489" style="stroke:#000000;stroke-width:1;" width="84.2754" x="384.877" y="136.8936"/><text fill="#000000" font-family="Arial" font-size="11" font-weight="bold" lengthAdjust="spacing" textLength="67.2192" x="390.877" y="151.3914">PAAK Inputs</text><polygon fill="#000000" points="516.7695,194.8403,526.7695,198.8403,516.7695,202.8403,520.7695,198.8403" style="stroke:#000000;stroke-width:1;"/><line style="stroke:#000000;stroke-width:1;" x1="82.948" x2="522.7695" y1="198.8403" y2="198.8403"/><text fill="#000000" font-family="Arial" font-size="11" lengthAdjust="spacing" textLength="111.8691" x="249.9242" y="182.0403">frmDigitalKeyStateMsg</text><text fill="#000000" font-family="Arial" font-size="11" lengthAdjust="spacing" textLength="111.896" x="249.9108" y="194.6892">DKeyState / AuthMode</text><polygon fill="#000000" points="516.7695,234.1382,526.7695,238.1382,516.7695,242.1382,520.7695,238.1382" style="stroke:#000000;stroke-width:1;"/><line style="stroke:#000000;stroke-width:1;" x1="246.7852" x2="522.7695" y1="238.1382" y2="238.1382"/><text fill="#000000" font-family="Arial" font-size="11" lengthAdjust="spacing" textLength="121.0269" x="327.2639" y="221.3381">frmTmuServiceStateMsg</text><text fill="#000000" font-family="Arial" font-size="11" lengthAdjust="spacing" textLength="53.1953" x="361.1797" y="233.9871">SignalBars</text><polygon fill="#000000" points="511.7695,273.436,521.7695,277.436,511.7695,281.436,515.7695,277.436" style="stroke:#000000;stroke-width:1;"/><line style="stroke:#000000;stroke-width:1;" x1="386.165" x2="517.7695" y1="277.436" y2="277.436"/><text fill="#000000" font-family="Arial" font-size="11" lengthAdjust="spacing" textLength="118.6045" x="395.665" y="260.636">frmVehicleStateCanMsg</text><text fill="#000000" font-family="Arial" font-size="11" lengthAdjust="spacing" textLength="51.353" x="429.2908" y="273.2849">DriveState</text><line style="stroke:#000000;stroke-width:1;" x1="533.7695" x2="575.7695" y1="304.085" y2="304.085"/><line style="stroke:#000000;stroke-width:1;" x1="575.7695" x2="575.7695" y1="304.085" y2="317.085"/><line style="stroke:#000000;stroke-width:1;" x1="534.7695" x2="575.7695" y1="317.085" y2="317.085"/><polygon fill="#000000" points="544.7695,313.085,534.7695,317.085,544.7695,321.085,540.7695,317.085" style="stroke:#000000;stroke-width:1;"/><text fill="#000000" font-family="Arial" font-size="11" lengthAdjust="spacing" textLength="215.7998" x="540.7695" y="299.9338">normalize stale DKEY / TMU / vehicle inputs</text><line style="stroke:#000000;stroke-width:1;" x1="533.7695" x2="575.7695" y1="343.7339" y2="343.7339"/><line style="stroke:#000000;stroke-width:1;" x1="575.7695" x2="575.7695" y1="343.7339" y2="356.7339"/><line style="stroke:#000000;stroke-width:1;" x1="534.7695" x2="575.7695" y1="356.7339" y2="356.7339"/><polygon fill="#000000" points="544.7695,352.7339,534.7695,356.7339,544.7695,360.7339,540.7695,356.7339" style="stroke:#000000;stroke-width:1;"/><text fill="#000000" font-family="Arial" font-size="11" lengthAdjust="spacing" textLength="141.8667" x="540.7695" y="339.5828">derive PaakState / AuthLevel</text><line style="stroke:#000000;stroke-width:1;" x1="533.7695" x2="575.7695" y1="383.3828" y2="383.3828"/><line style="stroke:#000000;stroke-width:1;" x1="575.7695" x2="575.7695" y1="383.3828" y2="396.3828"/><line style="stroke:#000000;stroke-width:1;" x1="534.7695" x2="575.7695" y1="396.3828" y2="396.3828"/><polygon fill="#000000" points="544.7695,392.3828,534.7695,396.3828,544.7695,400.3828,540.7695,396.3828" style="stroke:#000000;stroke-width:1;"/><text fill="#000000" font-family="Arial" font-size="11" lengthAdjust="spacing" textLength="176.0752" x="540.7695" y="379.2317">derive ProximityState / SyncLatency</text><path d="M538,409.3828 L538,482.3828 L672,482.3828 L672,419.3828 L662,409.3828 L538,409.3828 " fill="#FFFFFF" style="stroke:#000000;stroke-width:1;"/><path d="M662,409.3828 L662,419.3828 L672,419.3828 L662,409.3828 " fill="#FFFFFF" style="stroke:#000000;stroke-width:1;"/><text fill="#000000" font-family="Arial" font-size="11" lengthAdjust="spacing" textLength="113.126" x="544" y="424.8806">Representative outputs</text><text fill="#000000" font-family="Arial" font-size="11" lengthAdjust="spacing" textLength="57.4761" x="544" y="437.5295">- PaakState</text><text fill="#000000" font-family="Arial" font-size="11" lengthAdjust="spacing" textLength="55.6445" x="544" y="450.1785">- AuthLevel</text><text fill="#000000" font-family="Arial" font-size="11" lengthAdjust="spacing" textLength="77.6284" x="544" y="462.8274">- ProximityState</text><text fill="#000000" font-family="Arial" font-size="11" lengthAdjust="spacing" textLength="69.7007" x="544" y="475.4763">- SyncLatency</text><rect fill="#FFFFFF" height="3" style="stroke:#FFFFFF;stroke-width:1;" width="844.0293" x="5" y="506.9519"/><line style="stroke:#000000;stroke-width:0.5;" x1="5" x2="849.0293" y1="506.9519" y2="506.9519"/><line style="stroke:#000000;stroke-width:0.5;" x1="5" x2="849.0293" y1="509.9519" y2="509.9519"/><rect fill="#FFFFFF" height="20.6489" style="stroke:#000000;stroke-width:1;" width="91.0054" x="381.512" y="497.6274"/><text fill="#000000" font-family="Arial" font-size="11" font-weight="bold" lengthAdjust="spacing" textLength="73.9492" x="387.512" y="512.1252">PAAK Publish</text><polygon fill="#000000" points="766.5693,542.9253,776.5693,546.9253,766.5693,550.9253,770.5693,546.9253" style="stroke:#000000;stroke-width:1;"/><line style="stroke:#000000;stroke-width:1;" x1="533.7695" x2="772.5693" y1="546.9253" y2="546.9253"/><text fill="#000000" font-family="Arial" font-size="11" lengthAdjust="spacing" textLength="125.9468" x="593.196" y="542.7742">frmPhoneAsKeyStateMsg</text><polygon fill="#000000" points="766.5693,582.2231,776.5693,586.2231,766.5693,590.2231,770.5693,586.2231" style="stroke:#000000;stroke-width:1;"/><line style="stroke:#000000;stroke-width:1;" x1="528.7695" x2="772.5693" y1="586.2231" y2="586.2231"/><text fill="#000000" font-family="Arial" font-size="11" lengthAdjust="spacing" textLength="142.4736" x="582.4326" y="569.4231">traceable phone-key state for</text><text fill="#000000" font-family="Arial" font-size="11" lengthAdjust="spacing" textLength="138.7837" x="584.2776" y="582.072">access consumers and tests</text><path d="M17,599.2231 L17,672.2231 L844,672.2231 L844,609.2231 L834,599.2231 L17,599.2231 " fill="#FFFFFF" style="stroke:#000000;stroke-width:1;"/><path d="M834,599.2231 L834,609.2231 L844,609.2231 L834,599.2231 " fill="#FFFFFF" style="stroke:#000000;stroke-width:1;"/><text fill="#000000" font-family="Arial" font-size="11" lengthAdjust="spacing" textLength="143.0752" x="303.4114" y="614.7209">Representative runtime chain</text><text fill="#000000" font-family="Arial" font-size="11" lengthAdjust="spacing" textLength="237.8535" x="303.4114" y="627.3699">1. DKEY provides digital-key state and auth level</text><text fill="#000000" font-family="Arial" font-size="11" lengthAdjust="spacing" textLength="217.6313" x="303.4114" y="640.0188">2. TMU provides signal-bar proximity context</text><text fill="#000000" font-family="Arial" font-size="11" lengthAdjust="spacing" textLength="190.7598" x="303.4114" y="652.6677">3. PAK combines those with drive state</text><text fill="#000000" font-family="Arial" font-size="11" lengthAdjust="spacing" textLength="245.2065" x="303.4114" y="665.3167">4. PAK publishes consolidated phone-as-key state</text><!--SRC=[RLHHRzCm47xthpYs5n1qOp1f4rAHigwHK5Uew8Q4r1V7kJPM7JlOJhlowpdRIvkWzIcrxxlxxllk_CPNM2CqYalDt5RgXbjUGy75TcDDgyk9KSR2UHv_lOWIrxnLFZVQV-UK8REIgzVlb_8lmjLLxzBXdnQrm3awnpUOARdH851xjBqeYwunsdLHTwZCFhFMxC7R5XdpqYk4n_aJl8VxsVGtF1fOPDaCbfvxX2KbvGfoGgtqsnZ0MrzHS80qrZpBMle3_TzX9GMbSX4t-WgBocWSSJUQuG6Qjb1IS2-DViSOKVDIo8Ph3sSXwKhVKrGgUGaPLPYR4i-0kqJgV7gRtqnlXq1YiDA9u1stZe0ExKuAXBe31v81-p6V3h6_-cofkfKxZEKZZ6x9hUly9hyRmXRPRAMRhh4jDMRs6cq4qLsq-7eo6O8o8KXyC4MWXu7eIWlofAtHmdJov2ByH-48FY6oEMFZSJBXcsvQxs0yPYpg46Ibuo-mjlMzt4ZFLQVRt6rULv454Vh0nxfT9g5Em9ECB3JV3t-HAiPEk4vrZdenBhpSXOe4O05qn6fZQwx2t9BAf7Niu39wSdaS5nax709B3EbXmVcstym3xb2z7jdDOHU-F6ZnG9zQ79WsT6Jbfl9Wrf7bJsneBMXJQ1u9RLeVEOnE5UdxL77qNtuwwET7NKAeSN9j4ORTLT6s5xh1tQXct8hCzLmRXdZB1VA2b4bZ5cOihTJQs9NcQPQwyN70gRf7H_HB75YH-ZOqS57u3o7__vtRLdj9xuwemijrTP4iegtUoH8Tb6d2UXn2jRZ_AYhpwQ9x1XB0nIaQ5TpsdWRYwl7PiyyNqJHXwa9g2lQLSGXxITdAw68imQvJM9CqnDIhKRAaon86kvS0H_t_0G00]--></g></svg>