<svg xmlns="http://www.w3.org/2000/svg" xmlns:xlink="http://www.w3.org/1999/xlink" contentStyleType="text/css" height="920px" preserveAspectRatio="none" style="width:718px;height:920px;background:#FFFFFF;" version="1.1" viewBox="0 0 718 920" width="718px" zoomAndPan="magnify"><title>TMU Remote Climate To Comfort Profile Signal Flow</title><defs/><g><text fill="#000000" font-family="Arial" font-size="22" font-weight="bold" lengthAdjust="spacing" textLength="547.583" x="84.1849" y="35.9956">TMU Remote Climate To Comfort Profile Signal Flow</text><text fill="#000000" font-family="Arial" font-size="22" font-weight="bold" lengthAdjust="spacing" textLength="673.4922" x="21.2303" y="61.2935">(TMU/HVAC -&gt; BCM -&gt; comfort profile / seat/sunroof commands)</text><line style="stroke:#000000;stroke-width:1;" x1="74" x2="74" y1="116.8936" y2="876.3081"/><line style="stroke:#000000;stroke-width:1;" x1="222.2368" x2="222.2368" y1="116.8936" y2="876.3081"/><line style="stroke:#000000;stroke-width:1;" x1="425.7598" x2="425.7598" y1="116.8936" y2="876.3081"/><line style="stroke:#000000;stroke-width:1;" x1="643.6345" x2="643.6345" y1="116.8936" y2="876.3081"/><rect fill="#F4F7FB" height="26.6489" rx="2.5" ry="2.5" style="stroke:#000000;stroke-width:1;" width="109.9653" x="20" y="89.2446"/><text fill="#000000" font-family="Arial" font-size="11" lengthAdjust="spacing" textLength="95.9653" x="27" y="106.7424">TMU / HVAC inputs</text><rect fill="#F4F7FB" height="26.6489" rx="2.5" ry="2.5" style="stroke:#000000;stroke-width:1;" width="109.9653" x="20" y="875.3081"/><text fill="#000000" font-family="Arial" font-size="11" lengthAdjust="spacing" textLength="95.9653" x="27" y="892.8059">TMU / HVAC inputs</text><rect fill="#E8F7E8" height="39.2979" rx="2.5" ry="2.5" style="stroke:#000000;stroke-width:1;" width="83.6899" x="181.2368" y="76.5957"/><text fill="#000000" font-family="Arial" font-size="11" lengthAdjust="spacing" textLength="24.4438" x="210.8599" y="94.0935">BCM</text><text fill="#000000" font-family="Arial" font-size="11" lengthAdjust="spacing" textLength="69.6899" x="188.2368" y="106.7424">comfort owner</text><rect fill="#E8F7E8" height="39.2979" rx="2.5" ry="2.5" style="stroke:#000000;stroke-width:1;" width="83.6899" x="181.2368" y="875.3081"/><text fill="#000000" font-family="Arial" font-size="11" lengthAdjust="spacing" textLength="24.4438" x="210.8599" y="892.8059">BCM</text><text fill="#000000" font-family="Arial" font-size="11" lengthAdjust="spacing" textLength="69.6899" x="188.2368" y="905.4548">comfort owner</text><rect fill="#FFF4CC" height="39.2979" rx="2.5" ry="2.5" style="stroke:#000000;stroke-width:1;" width="90.436" x="380.7598" y="76.5957"/><text fill="#000000" font-family="Arial" font-size="11" lengthAdjust="spacing" textLength="76.436" x="387.7598" y="94.0935">Seat / Sunroof /</text><text fill="#000000" font-family="Arial" font-size="11" lengthAdjust="spacing" textLength="59.9092" x="396.0232" y="106.7424">Comfort bus</text><rect fill="#FFF4CC" height="39.2979" rx="2.5" ry="2.5" style="stroke:#000000;stroke-width:1;" width="90.436" x="380.7598" y="875.3081"/><text fill="#000000" font-family="Arial" font-size="11" lengthAdjust="spacing" textLength="76.436" x="387.7598" y="892.8059">Seat / Sunroof /</text><text fill="#000000" font-family="Arial" font-size="11" lengthAdjust="spacing" textLength="59.9092" x="396.0232" y="905.4548">Comfort bus</text><rect fill="#E8F0FE" height="26.6489" rx="2.5" ry="2.5" style="stroke:#000000;stroke-width:1;" width="106.3184" x="590.6345" y="89.2446"/><text fill="#000000" font-family="Arial" font-size="11" lengthAdjust="spacing" textLength="92.3184" x="597.6345" y="106.7424">Observers / panels</text><rect fill="#E8F0FE" height="26.6489" rx="2.5" ry="2.5" style="stroke:#000000;stroke-width:1;" width="106.3184" x="590.6345" y="875.3081"/><text fill="#000000" font-family="Arial" font-size="11" lengthAdjust="spacing" textLength="92.3184" x="597.6345" y="892.8059">Observers / panels</text><rect fill="#FFFFFF" height="3" style="stroke:#FFFFFF;stroke-width:1;" width="706.9529" x="5" y="146.218"/><line style="stroke:#000000;stroke-width:0.5;" x1="5" x2="711.9529" y1="146.218" y2="146.218"/><line style="stroke:#000000;stroke-width:0.5;" x1="5" x2="711.9529" y1="149.218" y2="149.218"/><rect fill="#FFFFFF" height="20.6489" style="stroke:#000000;stroke-width:1;" width="136.2407" x="290.3561" y="136.8936"/><text fill="#000000" font-family="Arial" font-size="11" font-weight="bold" lengthAdjust="spacing" textLength="119.1846" x="296.3561" y="151.3914">Remote Climate Inputs</text><polygon fill="#000000" points="211.0818,245.436,221.0818,249.436,211.0818,253.436,215.0818,249.436" style="stroke:#000000;stroke-width:1;"/><line style="stroke:#000000;stroke-width:1;" x1="74.9827" x2="217.0818" y1="249.436" y2="249.436"/><text fill="#000000" font-family="Arial" font-size="11" lengthAdjust="spacing" textLength="124.0991" x="86.9827" y="182.0403">gTmuRemoteClimateReq</text><text fill="#000000" font-family="Arial" font-size="11" lengthAdjust="spacing" textLength="92.313" x="102.8757" y="194.6892">gTmuServiceMode</text><text fill="#000000" font-family="Arial" font-size="11" lengthAdjust="spacing" textLength="104.5483" x="96.7581" y="207.3381">gHvacCabinSetTemp</text><text fill="#000000" font-family="Arial" font-size="11" lengthAdjust="spacing" textLength="91.0991" x="103.4827" y="219.9871">gHvacBlowerLevel</text><text fill="#000000" font-family="Arial" font-size="11" lengthAdjust="spacing" textLength="58.6899" x="119.6873" y="232.636">gHvacAcOn</text><text fill="#000000" font-family="Arial" font-size="11" lengthAdjust="spacing" textLength="57.4707" x="120.2969" y="245.2849">gDriveState</text><line style="stroke:#000000;stroke-width:1;" x1="223.0818" x2="265.0818" y1="301.3828" y2="301.3828"/><line style="stroke:#000000;stroke-width:1;" x1="265.0818" x2="265.0818" y1="301.3828" y2="314.3828"/><line style="stroke:#000000;stroke-width:1;" x1="224.0818" x2="265.0818" y1="314.3828" y2="314.3828"/><polygon fill="#000000" points="234.0818,310.3828,224.0818,314.3828,234.0818,318.3828,230.0818,314.3828" style="stroke:#000000;stroke-width:1;"/><text fill="#000000" font-family="Arial" font-size="11" lengthAdjust="spacing" textLength="118.6367" x="239.8572" y="271.9338">if manualMode == 0 and</text><text fill="#000000" font-family="Arial" font-size="11" lengthAdjust="spacing" textLength="138.1875" x="230.0818" y="284.5828">remoteClimateReq == 1 and</text><text fill="#000000" font-family="Arial" font-size="11" lengthAdjust="spacing" textLength="87.436" x="255.4575" y="297.2317">serviceMode &gt;= 1</text><line style="stroke:#000000;stroke-width:1;" x1="223.0818" x2="265.0818" y1="341.0317" y2="341.0317"/><line style="stroke:#000000;stroke-width:1;" x1="265.0818" x2="265.0818" y1="341.0317" y2="354.0317"/><line style="stroke:#000000;stroke-width:1;" x1="224.0818" x2="265.0818" y1="354.0317" y2="354.0317"/><polygon fill="#000000" points="234.0818,350.0317,224.0818,354.0317,234.0818,358.0317,230.0818,354.0317" style="stroke:#000000;stroke-width:1;"/><text fill="#000000" font-family="Arial" font-size="11" lengthAdjust="spacing" textLength="182.2251" x="230.0818" y="336.8806">derive seatHeatLevel / seatVentLevel</text><line style="stroke:#000000;stroke-width:1;" x1="223.0818" x2="265.0818" y1="393.3296" y2="393.3296"/><line style="stroke:#000000;stroke-width:1;" x1="265.0818" x2="265.0818" y1="393.3296" y2="406.3296"/><line style="stroke:#000000;stroke-width:1;" x1="224.0818" x2="265.0818" y1="406.3296" y2="406.3296"/><polygon fill="#000000" points="234.0818,402.3296,224.0818,406.3296,234.0818,410.3296,230.0818,406.3296" style="stroke:#000000;stroke-width:1;"/><text fill="#000000" font-family="Arial" font-size="11" lengthAdjust="spacing" textLength="110.0591" x="266.4495" y="376.5295">derive sunshadeCmd /</text><text fill="#000000" font-family="Arial" font-size="11" lengthAdjust="spacing" textLength="182.7944" x="230.0818" y="389.1785">sunroofPositionCmd / sunroofTiltCmd</text><path d="M228,419.3296 L228,479.3296 L418,479.3296 L418,429.3296 L408,419.3296 L228,419.3296 " fill="#FFFFFF" style="stroke:#000000;stroke-width:1;"/><path d="M408,419.3296 L408,429.3296 L418,429.3296 L408,419.3296 " fill="#FFFFFF" style="stroke:#000000;stroke-width:1;"/><text fill="#000000" font-family="Arial" font-size="11" lengthAdjust="spacing" textLength="169.9736" x="234" y="434.8274">Representative derived commands</text><text fill="#000000" font-family="Arial" font-size="11" lengthAdjust="spacing" textLength="159.6021" x="234" y="447.4763">- SeatHeatLevel / SeatVentLevel</text><text fill="#000000" font-family="Arial" font-size="11" lengthAdjust="spacing" textLength="154.6606" x="234" y="460.1252">- SunroofPositionCmd / TiltCmd</text><text fill="#000000" font-family="Arial" font-size="11" lengthAdjust="spacing" textLength="79.4868" x="234" y="472.7742">- SunshadeCmd</text><rect fill="#FFFFFF" height="3" style="stroke:#FFFFFF;stroke-width:1;" width="706.9529" x="5" y="504.2498"/><line style="stroke:#000000;stroke-width:0.5;" x1="5" x2="711.9529" y1="504.2498" y2="504.2498"/><line style="stroke:#000000;stroke-width:0.5;" x1="5" x2="711.9529" y1="507.2498" y2="507.2498"/><rect fill="#FFFFFF" height="20.6489" style="stroke:#000000;stroke-width:1;" width="159.4438" x="278.7545" y="494.9253"/><text fill="#000000" font-family="Arial" font-size="11" font-weight="bold" lengthAdjust="spacing" textLength="142.3877" x="284.7545" y="509.4231">Comfort Command Publish</text><polygon fill="#000000" points="413.9778,540.2231,423.9778,544.2231,413.9778,548.2231,417.9778,544.2231" style="stroke:#000000;stroke-width:1;"/><line style="stroke:#000000;stroke-width:1;" x1="223.0818" x2="419.9778" y1="544.2231" y2="544.2231"/><text fill="#000000" font-family="Arial" font-size="11" lengthAdjust="spacing" textLength="94.7515" x="277.1541" y="540.072">frmSeatControlMsg</text><polygon fill="#000000" points="413.9778,566.8721,423.9778,570.8721,413.9778,574.8721,417.9778,570.8721" style="stroke:#000000;stroke-width:1;"/><line style="stroke:#000000;stroke-width:1;" x1="223.0818" x2="419.9778" y1="570.8721" y2="570.8721"/><text fill="#000000" font-family="Arial" font-size="11" lengthAdjust="spacing" textLength="110.6499" x="269.2048" y="566.7209">frmSunroofControlMsg</text><line style="stroke:#000000;stroke-width:1;" x1="223.0818" x2="265.0818" y1="610.1699" y2="610.1699"/><line style="stroke:#000000;stroke-width:1;" x1="265.0818" x2="265.0818" y1="610.1699" y2="623.1699"/><line style="stroke:#000000;stroke-width:1;" x1="224.0818" x2="265.0818" y1="623.1699" y2="623.1699"/><polygon fill="#000000" points="234.0818,619.1699,224.0818,623.1699,234.0818,627.1699,230.0818,623.1699" style="stroke:#000000;stroke-width:1;"/><text fill="#000000" font-family="Arial" font-size="11" lengthAdjust="spacing" textLength="188.896" x="230.0818" y="593.3699">if remote climate or seat comfort active</text><text fill="#000000" font-family="Arial" font-size="11" lengthAdjust="spacing" textLength="110.9722" x="269.0437" y="606.0188">then comfortProfile = 3</text><polygon fill="#000000" points="413.9778,645.8188,423.9778,649.8188,413.9778,653.8188,417.9778,649.8188" style="stroke:#000000;stroke-width:1;"/><line style="stroke:#000000;stroke-width:1;" x1="223.0818" x2="419.9778" y1="649.8188" y2="649.8188"/><text fill="#000000" font-family="Arial" font-size="11" lengthAdjust="spacing" textLength="126.5376" x="261.261" y="645.6677">frmBodyComfortStateMsg</text><path d="M228,662.8188 L228,709.8188 L512,709.8188 L512,672.8188 L502,662.8188 L228,662.8188 " fill="#FFFFFF" style="stroke:#000000;stroke-width:1;"/><path d="M502,662.8188 L502,672.8188 L512,672.8188 L502,662.8188 " fill="#FFFFFF" style="stroke:#000000;stroke-width:1;"/><text fill="#000000" font-family="Arial" font-size="11" lengthAdjust="spacing" textLength="147.356" x="234" y="678.3167">Representative comfort output</text><text fill="#000000" font-family="Arial" font-size="11" lengthAdjust="spacing" textLength="263.769" x="234" y="690.9656">- ComfortProfile = 3 for remote climate / comfort assist</text><text fill="#000000" font-family="Arial" font-size="11" lengthAdjust="spacing" textLength="149.7515" x="234" y="703.6145">- ComfortStatus / ComfortError</text><rect fill="#FFFFFF" height="3" style="stroke:#FFFFFF;stroke-width:1;" width="706.9529" x="5" y="735.0901"/><line style="stroke:#000000;stroke-width:0.5;" x1="5" x2="711.9529" y1="735.0901" y2="735.0901"/><line style="stroke:#000000;stroke-width:0.5;" x1="5" x2="711.9529" y1="738.0901" y2="738.0901"/><rect fill="#FFFFFF" height="20.6489" style="stroke:#000000;stroke-width:1;" width="131.3638" x="292.7946" y="725.7656"/><text fill="#000000" font-family="Arial" font-size="11" font-weight="bold" lengthAdjust="spacing" textLength="114.3076" x="298.7946" y="740.2634">Downstream Visibility</text><polygon fill="#000000" points="631.7937,771.0635,641.7937,775.0635,631.7937,779.0635,635.7937,775.0635" style="stroke:#000000;stroke-width:1;"/><line style="stroke:#000000;stroke-width:1;" x1="425.9778" x2="637.7937" y1="775.0635" y2="775.0635"/><text fill="#000000" font-family="Arial" font-size="11" lengthAdjust="spacing" textLength="193.8159" x="437.9778" y="770.9124">comfort profile / seat / sunroof readback</text><path d="M13,788.0635 L13,861.0635 L704,861.0635 L704,798.0635 L694,788.0635 L13,788.0635 " fill="#FFFFFF" style="stroke:#000000;stroke-width:1;"/><path d="M694,788.0635 L694,798.0635 L704,798.0635 L694,788.0635 " fill="#FFFFFF" style="stroke:#000000;stroke-width:1;"/><text fill="#000000" font-family="Arial" font-size="11" lengthAdjust="spacing" textLength="143.0752" x="186.329" y="803.5613">Representative runtime chain</text><text fill="#000000" font-family="Arial" font-size="11" lengthAdjust="spacing" textLength="253.6821" x="186.329" y="816.2102">1. TMU/HVAC remote-climate context reaches BCM</text><text fill="#000000" font-family="Arial" font-size="11" lengthAdjust="spacing" textLength="256.7759" x="186.329" y="828.8591">2. BCM derives seat and sunroof comfort commands</text><text fill="#000000" font-family="Arial" font-size="11" lengthAdjust="spacing" textLength="256.7437" x="186.329" y="841.5081">3. BCM lifts ComfortProfile into remote-climate mode</text><text fill="#000000" font-family="Arial" font-size="11" lengthAdjust="spacing" textLength="336.2949" x="186.329" y="854.157">4. Comfort buses and panels expose the resulting body-comfort state</text><!--SRC=[XLLHJzim47xthxZ1ooQjb0ua45AHsj2AIUj0fEEfBsvoQIqSEzXEWVtwdUsaJGjebQesPzzztzrtT_dYrbWYL98BnUoJK1Ktl8GbpvvMHjSgJxJK1ewduTEvaMF1Q-ccMhdVd2ACZE3ou_DK_4KO33g75fzhL1dEq5g-mf4KAmKPAeUcSykWhRIoxQqnIlqoCaQ_W3CrCkQ4amZpsHzum58xX4IAajFlN4EYoq8R1_T65u9kfOJ09Kmfn49z9P_-xUCeWTurZ9EP_yaQXwfnw1D9xlgsLaRhmX-NNENs6sD4pebCL5mvEFBeVGYnY7Rjx15msn99t2jLxdnwCHtlUn7cGhM8-aMX2MwUol7aSdenkTo_dn8LWaaRCls5QlDRrWrYV1xNDcXrdYJx4UwM5iq6ZQKmP44PtSWS44-d4yQ6myD2_WmfmN38M2UbfcXNi9gNTVHeJX_mUQ6yDIKmGVhg7Cbmk-5PmfT2fUZcM5QDQKnYeFc56vIDPPJTAVfxOyG6KqS1MQDEn1C5a0WrbpukiO9J84qMoXnmy4U3U6HtHE2QhFi1S_H8GUbR-WOgZVAFr8tX-MEFMjarpp4fSwz6qoNtsWedj0fMQ8np8HqPcFA5DMAr9iKB7uqzO4KjJZZS-PWnTBvjDTQ3z81OkaUirpR4FcuB68vRbWnL3fv2aBdjdYH2mNszbCAkWz1Dkfs6keB2b1uweM4sMixiwjDRaT3xYri1erQGDHr6kyLNUpj-FFErM2XQIwerjZCyXBFFSCSwVsjieMyyydyBlXt0sb6RKxsITtX0puUK-pkorWhRSVJGjP-mvdb2oyhiL_w6fjqwWxJU7eKLIo65Uui3jak94lI3UVN9Kjhr5b7ZkT_LB6QhQS8xo-Ux3tEOjQcL4xImixLV-OCJs2x3c6UlpJCZ4V7LUOniZM4xiHydGSdOgZQoyGtKMPE1yBQ7pwA358MpX_KLokb3q986bPsVG6U_4Ow7Y5iByBNI5e7wmxyVw0qZr0gM97-lnRPXSMoh_Wy0]--></g></svg>