<svg xmlns="http://www.w3.org/2000/svg" xmlns:xlink="http://www.w3.org/1999/xlink" contentStyleType="text/css" height="775px" preserveAspectRatio="none" style="width:877px;height:775px;background:#FFFFFF;" version="1.1" viewBox="0 0 877 775" width="877px" zoomAndPan="magnify"><title>TMU Service To Remote Climate Request Signal Flow</title><defs/><g><text fill="#000000" font-family="Arial" font-size="22" font-weight="bold" lengthAdjust="spacing" textLength="558.6689" x="157.8105" y="35.9956">TMU Service To Remote Climate Request Signal Flow</text><text fill="#000000" font-family="Arial" font-size="22" font-weight="bold" lengthAdjust="spacing" textLength="565.415" x="154.4375" y="61.2935">(connectivity/IVI/drive context -&gt; TMU service publish)</text><line style="stroke:#000000;stroke-width:1;" x1="83" x2="83" y1="116.8936" y2="731.0635"/><line style="stroke:#000000;stroke-width:1;" x1="230.5645" x2="230.5645" y1="116.8936" y2="731.0635"/><line style="stroke:#000000;stroke-width:1;" x1="585.3137" x2="585.3137" y1="116.8936" y2="731.0635"/><line style="stroke:#000000;stroke-width:1;" x1="773.9717" x2="773.9717" y1="116.8936" y2="731.0635"/><rect fill="#F4F7FB" height="39.2979" rx="2.5" ry="2.5" style="stroke:#000000;stroke-width:1;" width="102.6445" x="32" y="76.5957"/><text fill="#000000" font-family="Arial" font-size="11" lengthAdjust="spacing" textLength="88.6445" x="39" y="94.0935">Connectivity / IVI /</text><text fill="#000000" font-family="Arial" font-size="11" lengthAdjust="spacing" textLength="62.3638" x="52.1404" y="106.7424">drive context</text><rect fill="#F4F7FB" height="39.2979" rx="2.5" ry="2.5" style="stroke:#000000;stroke-width:1;" width="102.6445" x="32" y="730.0635"/><text fill="#000000" font-family="Arial" font-size="11" lengthAdjust="spacing" textLength="88.6445" x="39" y="747.5613">Connectivity / IVI /</text><text fill="#000000" font-family="Arial" font-size="11" lengthAdjust="spacing" textLength="62.3638" x="52.1404" y="760.2102">drive context</text><rect fill="#E8F7E8" height="39.2979" rx="2.5" ry="2.5" style="stroke:#000000;stroke-width:1;" width="96.5322" x="182.5645" y="76.5957"/><text fill="#000000" font-family="Arial" font-size="11" lengthAdjust="spacing" textLength="23.8262" x="218.9175" y="94.0935">TMU</text><text fill="#000000" font-family="Arial" font-size="11" lengthAdjust="spacing" textLength="82.5322" x="189.5645" y="106.7424">telematics owner</text><rect fill="#E8F7E8" height="39.2979" rx="2.5" ry="2.5" style="stroke:#000000;stroke-width:1;" width="96.5322" x="182.5645" y="730.0635"/><text fill="#000000" font-family="Arial" font-size="11" lengthAdjust="spacing" textLength="23.8262" x="218.9175" y="747.5613">TMU</text><text fill="#000000" font-family="Arial" font-size="11" lengthAdjust="spacing" textLength="82.5322" x="189.5645" y="760.2102">telematics owner</text><rect fill="#FFF4CC" height="26.6489" rx="2.5" ry="2.5" style="stroke:#000000;stroke-width:1;" width="96.5161" x="537.3137" y="89.2446"/><text fill="#000000" font-family="Arial" font-size="11" lengthAdjust="spacing" textLength="82.5161" x="544.3137" y="106.7424">TMU service bus</text><rect fill="#FFF4CC" height="26.6489" rx="2.5" ry="2.5" style="stroke:#000000;stroke-width:1;" width="96.5161" x="537.3137" y="730.0635"/><text fill="#000000" font-family="Arial" font-size="11" lengthAdjust="spacing" textLength="82.5161" x="544.3137" y="747.5613">TMU service bus</text><rect fill="#E8F0FE" height="26.6489" rx="2.5" ry="2.5" style="stroke:#000000;stroke-width:1;" width="161.3184" x="693.9717" y="89.2446"/><text fill="#000000" font-family="Arial" font-size="11" lengthAdjust="spacing" textLength="147.3184" x="700.9717" y="106.7424">Observers / HVAC consumers</text><rect fill="#E8F0FE" height="26.6489" rx="2.5" ry="2.5" style="stroke:#000000;stroke-width:1;" width="161.3184" x="693.9717" y="730.0635"/><text fill="#000000" font-family="Arial" font-size="11" lengthAdjust="spacing" textLength="147.3184" x="700.9717" y="747.5613">Observers / HVAC consumers</text><rect fill="#FFFFFF" height="3" style="stroke:#FFFFFF;stroke-width:1;" width="865.29" x="5" y="146.218"/><line style="stroke:#000000;stroke-width:0.5;" x1="5" x2="870.29" y1="146.218" y2="146.218"/><line style="stroke:#000000;stroke-width:0.5;" x1="5" x2="870.29" y1="149.218" y2="149.218"/><rect fill="#FFFFFF" height="20.6489" style="stroke:#000000;stroke-width:1;" width="76.9331" x="399.1785" y="136.8936"/><text fill="#000000" font-family="Arial" font-size="11" font-weight="bold" lengthAdjust="spacing" textLength="59.877" x="405.1785" y="151.3914">TMU Inputs</text><polygon fill="#000000" points="218.8306,207.4893,228.8306,211.4893,218.8306,215.4893,222.8306,211.4893" style="stroke:#000000;stroke-width:1;"/><line style="stroke:#000000;stroke-width:1;" x1="83.3223" x2="224.8306" y1="211.4893" y2="211.4893"/><text fill="#000000" font-family="Arial" font-size="11" lengthAdjust="spacing" textLength="108.8345" x="102.6592" y="182.0403">connType / signalBars</text><text fill="#000000" font-family="Arial" font-size="11" lengthAdjust="spacing" textLength="123.5083" x="95.3223" y="194.6892">iviCpuLoad / iviMemLoad</text><text fill="#000000" font-family="Arial" font-size="11" lengthAdjust="spacing" textLength="49.5269" x="132.313" y="207.3381">driveState</text><line style="stroke:#000000;stroke-width:1;" x1="230.8306" x2="272.8306" y1="238.1382" y2="238.1382"/><line style="stroke:#000000;stroke-width:1;" x1="272.8306" x2="272.8306" y1="238.1382" y2="251.1382"/><line style="stroke:#000000;stroke-width:1;" x1="231.8306" x2="272.8306" y1="251.1382" y2="251.1382"/><polygon fill="#000000" points="241.8306,247.1382,231.8306,251.1382,241.8306,255.1382,237.8306,251.1382" style="stroke:#000000;stroke-width:1;"/><text fill="#000000" font-family="Arial" font-size="11" lengthAdjust="spacing" textLength="303.2573" x="237.8306" y="233.9871">derive linkState / serviceMode from connectivity and IVI health</text><line style="stroke:#000000;stroke-width:1;" x1="230.8306" x2="272.8306" y1="303.085" y2="303.085"/><line style="stroke:#000000;stroke-width:1;" x1="272.8306" x2="272.8306" y1="303.085" y2="316.085"/><line style="stroke:#000000;stroke-width:1;" x1="231.8306" x2="272.8306" y1="316.085" y2="316.085"/><polygon fill="#000000" points="241.8306,312.085,231.8306,316.085,241.8306,320.085,237.8306,316.085" style="stroke:#000000;stroke-width:1;"/><text fill="#000000" font-family="Arial" font-size="11" lengthAdjust="spacing" textLength="162.9429" x="284.4731" y="273.636">remoteClimateReq = 1 only when</text><text fill="#000000" font-family="Arial" font-size="11" lengthAdjust="spacing" textLength="256.228" x="237.8306" y="286.2849">serviceMode == 1 and connType == 1 and bars &gt;= 3</text><text fill="#000000" font-family="Arial" font-size="11" lengthAdjust="spacing" textLength="207.3081" x="262.2905" y="298.9338">and IVI load is healthy and driveState == 0</text><path d="M235,329.085 L235,389.085 L395,389.085 L395,339.085 L385,329.085 L235,329.085 " fill="#FFFFFF" style="stroke:#000000;stroke-width:1;"/><path d="M385,329.085 L385,339.085 L395,339.085 L385,329.085 " fill="#FFFFFF" style="stroke:#000000;stroke-width:1;"/><text fill="#000000" font-family="Arial" font-size="11" lengthAdjust="spacing" textLength="139.4229" x="241" y="344.5828">Representative gating inputs</text><text fill="#000000" font-family="Arial" font-size="11" lengthAdjust="spacing" textLength="115.5537" x="241" y="357.2317">- connType / signalBars</text><text fill="#000000" font-family="Arial" font-size="11" lengthAdjust="spacing" textLength="130.2275" x="241" y="369.8806">- iviCpuLoad / iviMemLoad</text><text fill="#000000" font-family="Arial" font-size="11" lengthAdjust="spacing" textLength="56.2461" x="241" y="382.5295">- driveState</text><rect fill="#FFFFFF" height="3" style="stroke:#FFFFFF;stroke-width:1;" width="865.29" x="5" y="414.0051"/><line style="stroke:#000000;stroke-width:0.5;" x1="5" x2="870.29" y1="414.0051" y2="414.0051"/><line style="stroke:#000000;stroke-width:0.5;" x1="5" x2="870.29" y1="417.0051" y2="417.0051"/><rect fill="#FFFFFF" height="20.6489" style="stroke:#000000;stroke-width:1;" width="83.6631" x="395.8135" y="404.6807"/><text fill="#000000" font-family="Arial" font-size="11" font-weight="bold" lengthAdjust="spacing" textLength="66.6069" x="401.8135" y="419.1785">TMU Publish</text><polygon fill="#000000" points="573.5718,462.6274,583.5718,466.6274,573.5718,470.6274,577.5718,466.6274" style="stroke:#000000;stroke-width:1;"/><line style="stroke:#000000;stroke-width:1;" x1="230.8306" x2="579.5718" y1="466.6274" y2="466.6274"/><text fill="#000000" font-family="Arial" font-size="11" lengthAdjust="spacing" textLength="95.3423" x="360.53" y="449.8274">frmTmuServiceMsg</text><text fill="#000000" font-family="Arial" font-size="11" lengthAdjust="spacing" textLength="330.7412" x="242.8306" y="462.4763">TmuLinkState / TmuServiceMode / RemoteClimateReq / SignalBars</text><path d="M235,479.6274 L235,552.6274 L369,552.6274 L369,489.6274 L359,479.6274 L235,479.6274 " fill="#FFFFFF" style="stroke:#000000;stroke-width:1;"/><path d="M359,479.6274 L359,489.6274 L369,489.6274 L359,479.6274 " fill="#FFFFFF" style="stroke:#000000;stroke-width:1;"/><text fill="#000000" font-family="Arial" font-size="11" lengthAdjust="spacing" textLength="113.126" x="241" y="495.1252">Representative outputs</text><text fill="#000000" font-family="Arial" font-size="11" lengthAdjust="spacing" textLength="74.583" x="241" y="507.7742">- TmuLinkState</text><text fill="#000000" font-family="Arial" font-size="11" lengthAdjust="spacing" textLength="92.9146" x="241" y="520.4231">- TmuServiceMode</text><text fill="#000000" font-family="Arial" font-size="11" lengthAdjust="spacing" textLength="102.7007" x="241" y="533.072">- RemoteClimateReq</text><text fill="#000000" font-family="Arial" font-size="11" lengthAdjust="spacing" textLength="59.9146" x="241" y="545.7209">- SignalBars</text><rect fill="#FFFFFF" height="3" style="stroke:#FFFFFF;stroke-width:1;" width="865.29" x="5" y="577.1965"/><line style="stroke:#000000;stroke-width:0.5;" x1="5" x2="870.29" y1="577.1965" y2="577.1965"/><line style="stroke:#000000;stroke-width:0.5;" x1="5" x2="870.29" y1="580.1965" y2="580.1965"/><rect fill="#FFFFFF" height="20.6489" style="stroke:#000000;stroke-width:1;" width="131.3638" x="371.9631" y="567.8721"/><text fill="#000000" font-family="Arial" font-size="11" font-weight="bold" lengthAdjust="spacing" textLength="114.3076" x="377.9631" y="582.3699">Downstream Visibility</text><polygon fill="#000000" points="762.6309,625.8188,772.6309,629.8188,762.6309,633.8188,766.6309,629.8188" style="stroke:#000000;stroke-width:1;"/><line style="stroke:#000000;stroke-width:1;" x1="585.5718" x2="768.6309" y1="629.8188" y2="629.8188"/><text fill="#000000" font-family="Arial" font-size="11" lengthAdjust="spacing" textLength="165.0591" x="597.5718" y="613.0188">remote-climate service readback /</text><text fill="#000000" font-family="Arial" font-size="11" lengthAdjust="spacing" textLength="133.8799" x="613.1614" y="625.6677">DATC and VCS consumers</text><path d="M10,642.8188 L10,715.8188 L848,715.8188 L848,652.8188 L838,642.8188 L10,642.8188 " fill="#FFFFFF" style="stroke:#000000;stroke-width:1;"/><path d="M838,642.8188 L838,652.8188 L848,652.8188 L838,642.8188 " fill="#FFFFFF" style="stroke:#000000;stroke-width:1;"/><text fill="#000000" font-family="Arial" font-size="11" lengthAdjust="spacing" textLength="143.0752" x="242.4495" y="658.3167">Representative runtime chain</text><text fill="#000000" font-family="Arial" font-size="11" lengthAdjust="spacing" textLength="262.8989" x="242.4495" y="670.9656">1. Connectivity, IVI load, and drive context reach TMU</text><text fill="#000000" font-family="Arial" font-size="11" lengthAdjust="spacing" textLength="284.8774" x="242.4495" y="683.6145">2. TMU derives service mode and remote-climate eligibility</text><text fill="#000000" font-family="Arial" font-size="11" lengthAdjust="spacing" textLength="339.3081" x="242.4495" y="696.2634">3. TMU publishes telematics service state and remote climate request</text><text fill="#000000" font-family="Arial" font-size="11" lengthAdjust="spacing" textLength="364.3911" x="242.4495" y="708.9124">4. HVAC/audio consumers observe the effective telematics service posture</text><!--SRC=[XLNRJXin47ttLqpXfPM0a884GWfIiX0LYRGLeNdAYxCxoLfuxQql1FZwZhsNE9IgUTbTZ-VCd3ENV78bLWYrv48n-oHKpGslOCNpfutHNXMPbjh0uJJ-aXi5hhcNRggL-yu9OMm4bn_Rv-8DOJXCZ1P_UrGvpj1Qli6n51i5EIg79hbbqDPQsUxM1ANUZetHMt368sDEE8dmEFi5SpJF8gTt3GzOQOUGIL5nUZw4IDR1d29m2LE2MAhFkLOASoUUXNiTt2tk1eKHpmXqxF35mV5rHBKjQkrNKjZo2sEKbnEvgBboS90b8300We71KkqX7G2t4EvbxeKqF9zUJ2Vx81HdILSbKhOYjw2t2arq2naStbvEBsul_tBfKrjvsrok_CJRMARpBDk__sCLRgEnbEItnJWBoLbVqK5q9NECSpgzPMmqYd7lLEsTXT68iIxxLfEhuAqUNsiaD1j5dN1Zbufao6f_htb11lgOOHK-Ma7cZeh10a2FKs1KIWhr5Aq1hs4rqmN2skWAqZe1LqKKkKGkNRaFPcBLsw9JpM44Gz1AliAsHBLKAV8es09OpwG_MH4Lk1x1sL9rqMHW96mRjSbYHocudZ8LEiw8JUb0hqD6x05hwbvgQAegaTpGGsr0H5dPySSQqla_H2HBeY9I1Y5YNwsVJN_6SdMgDFrmHJ9MzDxEnynkbee-xnFD4siGPz0EK2Bbe1sUcED_gMhlMf9feEOp2KG7xmFHKH9eZ-KDZOLr1cafB8GLAo53GqI-3L6Y7FguQuJZl1t_Rax8jGWxBKpepVWnYsLSPFFTBB26cgP1wIRsA62-vsUySeBsNLw6ZJayWNGD7FKjSxHhb7wjK19v6JNxUX8Bruo0xREiGWM2tpiMIFkn9StE6jTs9v5piZmw71jhkmE23iWqsv2TdyHDCE2-47gd0UXcLG3zAG2krv4MVXIXrjPva_JY7m00]--></g></svg>