<svg xmlns="http://www.w3.org/2000/svg" xmlns:xlink="http://www.w3.org/1999/xlink" contentStyleType="text/css" height="983px" preserveAspectRatio="none" style="width:985px;height:983px;background:#FFFFFF;" version="1.1" viewBox="0 0 985 983" width="985px" zoomAndPan="magnify"><title>TMU Access To DKEY State Signal Flow</title><defs/><g><text fill="#000000" font-family="Arial" font-size="22" font-weight="bold" lengthAdjust="spacing" textLength="419.2998" x="281.4224" y="35.9956">TMU Access To DKEY State Signal Flow</text><text fill="#000000" font-family="Arial" font-size="22" font-weight="bold" lengthAdjust="spacing" textLength="703.6348" x="139.2549" y="61.2935">(TMU service / signal bars / drive state -&gt; DKEY access publication)</text><rect fill="#FFFFFF" height="436.9785" style="stroke:#000000;stroke-width:1;" width="10" x="450.4419" y="284.1382"/><line style="stroke:#000000;stroke-width:1;" x1="70" x2="70" y1="162.8936" y2="892.957"/><line style="stroke:#000000;stroke-width:1;" x1="285.9521" x2="285.9521" y1="162.8936" y2="892.957"/><line style="stroke:#000000;stroke-width:1;" x1="454.4766" x2="454.4766" y1="162.8936" y2="892.957"/><line style="stroke:#000000;stroke-width:1;" x1="698.6067" x2="698.6067" y1="162.8936" y2="892.957"/><line style="stroke:#000000;stroke-width:1;" x1="845.6951" x2="845.6951" y1="162.8936" y2="892.957"/><text fill="#000000" font-family="Arial" font-size="11" lengthAdjust="spacing" textLength="91.7061" x="21.8823" y="148.0935">Remote/User input</text><text fill="#000000" font-family="Arial" font-size="11" lengthAdjust="spacing" textLength="101.4707" x="17" y="160.7424">TMU service request</text><ellipse cx="70.7354" cy="85.5957" fill="#F4F7FB" rx="8" ry="8" style="stroke:#000000;stroke-width:1;"/><path d="M70.7354,93.5957 L70.7354,120.5957 M57.7354,101.5957 L83.7354,101.5957 M70.7354,120.5957 L57.7354,135.5957 M70.7354,120.5957 L83.7354,135.5957 " fill="none" style="stroke:#000000;stroke-width:1;"/><text fill="#000000" font-family="Arial" font-size="11" lengthAdjust="spacing" textLength="91.7061" x="21.8823" y="902.4548">Remote/User input</text><text fill="#000000" font-family="Arial" font-size="11" lengthAdjust="spacing" textLength="101.4707" x="17" y="915.1038">TMU service request</text><ellipse cx="70.7354" cy="926.2549" fill="#F4F7FB" rx="8" ry="8" style="stroke:#000000;stroke-width:1;"/><path d="M70.7354,934.2549 L70.7354,961.2549 M57.7354,942.2549 L83.7354,942.2549 M70.7354,961.2549 L57.7354,976.2549 M70.7354,961.2549 L83.7354,976.2549 " fill="none" style="stroke:#000000;stroke-width:1;"/><rect fill="#E8F0FE" height="39.2979" rx="2.5" ry="2.5" style="stroke:#000000;stroke-width:1;" width="181.5244" x="195.9521" y="122.5957"/><text fill="#000000" font-family="Arial" font-size="11" lengthAdjust="spacing" textLength="95.9814" x="238.7236" y="140.0935">TMU / Vehicle input</text><text fill="#000000" font-family="Arial" font-size="11" lengthAdjust="spacing" textLength="167.5244" x="202.9521" y="152.7424">service mode + signal bars + drive</text><rect fill="#E8F0FE" height="39.2979" rx="2.5" ry="2.5" style="stroke:#000000;stroke-width:1;" width="181.5244" x="195.9521" y="891.957"/><text fill="#000000" font-family="Arial" font-size="11" lengthAdjust="spacing" textLength="95.9814" x="238.7236" y="909.4548">TMU / Vehicle input</text><text fill="#000000" font-family="Arial" font-size="11" lengthAdjust="spacing" textLength="167.5244" x="202.9521" y="922.1038">service mode + signal bars + drive</text><rect fill="#E8F7E8" height="39.2979" rx="2.5" ry="2.5" style="stroke:#000000;stroke-width:1;" width="95.9307" x="407.4766" y="122.5957"/><text fill="#000000" font-family="Arial" font-size="11" lengthAdjust="spacing" textLength="29.9546" x="440.4646" y="140.0935">DKEY</text><text fill="#000000" font-family="Arial" font-size="11" lengthAdjust="spacing" textLength="81.9307" x="414.4766" y="152.7424">digital key owner</text><rect fill="#E8F7E8" height="39.2979" rx="2.5" ry="2.5" style="stroke:#000000;stroke-width:1;" width="95.9307" x="407.4766" y="891.957"/><text fill="#000000" font-family="Arial" font-size="11" lengthAdjust="spacing" textLength="29.9546" x="440.4646" y="909.4548">DKEY</text><text fill="#000000" font-family="Arial" font-size="11" lengthAdjust="spacing" textLength="81.9307" x="414.4766" y="922.1038">digital key owner</text><rect fill="#FFF4CC" height="39.2979" rx="2.5" ry="2.5" style="stroke:#000000;stroke-width:1;" width="105.0884" x="646.6067" y="122.5957"/><text fill="#000000" font-family="Arial" font-size="11" lengthAdjust="spacing" textLength="88.0269" x="655.1375" y="140.0935">Door / SMK / PAK</text><text fill="#000000" font-family="Arial" font-size="11" lengthAdjust="spacing" textLength="91.0884" x="653.6067" y="152.7424">access consumers</text><rect fill="#FFF4CC" height="39.2979" rx="2.5" ry="2.5" style="stroke:#000000;stroke-width:1;" width="105.0884" x="646.6067" y="891.957"/><text fill="#000000" font-family="Arial" font-size="11" lengthAdjust="spacing" textLength="88.0269" x="655.1375" y="909.4548">Door / SMK / PAK</text><text fill="#000000" font-family="Arial" font-size="11" lengthAdjust="spacing" textLength="91.0884" x="653.6067" y="922.1038">access consumers</text><rect fill="#FCE8FF" height="26.6489" rx="2.5" ry="2.5" style="stroke:#000000;stroke-width:1;" width="128.9199" x="781.6951" y="135.2446"/><text fill="#000000" font-family="Arial" font-size="11" lengthAdjust="spacing" textLength="114.9199" x="788.6951" y="152.7424">TEST_SCN / observers</text><rect fill="#FCE8FF" height="26.6489" rx="2.5" ry="2.5" style="stroke:#000000;stroke-width:1;" width="128.9199" x="781.6951" y="891.957"/><text fill="#000000" font-family="Arial" font-size="11" lengthAdjust="spacing" textLength="114.9199" x="788.6951" y="909.4548">TEST_SCN / observers</text><rect fill="#FFFFFF" height="436.9785" style="stroke:#000000;stroke-width:1;" width="10" x="450.4419" y="284.1382"/><rect fill="#FFFFFF" height="3" style="stroke:#FFFFFF;stroke-width:1;" width="973.1445" x="5" y="192.218"/><line style="stroke:#000000;stroke-width:0.5;" x1="5" x2="978.1445" y1="192.218" y2="192.218"/><line style="stroke:#000000;stroke-width:0.5;" x1="5" x2="978.1445" y1="195.218" y2="195.218"/><rect fill="#FFFFFF" height="20.6489" style="stroke:#000000;stroke-width:1;" width="91.6392" x="445.7527" y="182.8936"/><text fill="#000000" font-family="Arial" font-size="11" font-weight="bold" lengthAdjust="spacing" textLength="74.583" x="451.7527" y="197.3914">Access Inputs</text><polygon fill="#000000" points="274.7144,228.1914,284.7144,232.1914,274.7144,236.1914,278.7144,232.1914" style="stroke:#000000;stroke-width:1;"/><line style="stroke:#000000;stroke-width:1;" x1="70.7354" x2="280.7144" y1="232.1914" y2="232.1914"/><text fill="#000000" font-family="Arial" font-size="11" lengthAdjust="spacing" textLength="191.979" x="82.7354" y="228.0403">service request / radio proximity update</text><polygon fill="#000000" points="438.4419,280.1382,448.4419,284.1382,438.4419,288.1382,442.4419,284.1382" style="stroke:#000000;stroke-width:1;"/><line style="stroke:#000000;stroke-width:1;" x1="286.7144" x2="444.4419" y1="284.1382" y2="284.1382"/><text fill="#000000" font-family="Arial" font-size="11" lengthAdjust="spacing" textLength="82.5322" x="327.312" y="254.6892">tmuServiceMode</text><text fill="#000000" font-family="Arial" font-size="11" lengthAdjust="spacing" textLength="51.3584" x="342.8989" y="267.3381">signalBars</text><text fill="#000000" font-family="Arial" font-size="11" lengthAdjust="spacing" textLength="49.5269" x="343.8147" y="279.9871">driveState</text><line style="stroke:#000000;stroke-width:1;" x1="460.4419" x2="502.4419" y1="310.7871" y2="310.7871"/><line style="stroke:#000000;stroke-width:1;" x1="502.4419" x2="502.4419" y1="310.7871" y2="323.7871"/><line style="stroke:#000000;stroke-width:1;" x1="461.4419" x2="502.4419" y1="323.7871" y2="323.7871"/><polygon fill="#000000" points="471.4419,319.7871,461.4419,323.7871,471.4419,327.7871,467.4419,323.7871" style="stroke:#000000;stroke-width:1;"/><text fill="#000000" font-family="Arial" font-size="11" lengthAdjust="spacing" textLength="176.6768" x="467.4419" y="306.636">normalize stale TMU / vehicle inputs</text><line style="stroke:#000000;stroke-width:1;" x1="460.4419" x2="502.4419" y1="350.436" y2="350.436"/><line style="stroke:#000000;stroke-width:1;" x1="502.4419" x2="502.4419" y1="350.436" y2="363.436"/><line style="stroke:#000000;stroke-width:1;" x1="461.4419" x2="502.4419" y1="363.436" y2="363.436"/><polygon fill="#000000" points="471.4419,359.436,461.4419,363.436,471.4419,367.436,467.4419,363.436" style="stroke:#000000;stroke-width:1;"/><text fill="#000000" font-family="Arial" font-size="11" lengthAdjust="spacing" textLength="144.9121" x="467.4419" y="346.2849">derive DKeyState / AuthMode</text><line style="stroke:#000000;stroke-width:1;" x1="460.4419" x2="502.4419" y1="390.085" y2="390.085"/><line style="stroke:#000000;stroke-width:1;" x1="502.4419" x2="502.4419" y1="390.085" y2="403.085"/><line style="stroke:#000000;stroke-width:1;" x1="461.4419" x2="502.4419" y1="403.085" y2="403.085"/><polygon fill="#000000" points="471.4419,399.085,461.4419,403.085,471.4419,407.085,467.4419,403.085" style="stroke:#000000;stroke-width:1;"/><text fill="#000000" font-family="Arial" font-size="11" lengthAdjust="spacing" textLength="209.709" x="467.4419" y="385.9338">derive VehicleAccessState / SecurityGrade</text><line style="stroke:#000000;stroke-width:1;" x1="460.4419" x2="502.4419" y1="429.7339" y2="429.7339"/><line style="stroke:#000000;stroke-width:1;" x1="502.4419" x2="502.4419" y1="429.7339" y2="442.7339"/><line style="stroke:#000000;stroke-width:1;" x1="461.4419" x2="502.4419" y1="442.7339" y2="442.7339"/><polygon fill="#000000" points="471.4419,438.7339,461.4419,442.7339,471.4419,446.7339,467.4419,442.7339" style="stroke:#000000;stroke-width:1;"/><text fill="#000000" font-family="Arial" font-size="11" lengthAdjust="spacing" textLength="174.2759" x="467.4419" y="425.5828">update KeySyncAge / KeyPresence</text><path d="M465,455.7339 L465,616.7339 L638,616.7339 L638,465.7339 L628,455.7339 L465,455.7339 " fill="#FFFFFF" style="stroke:#000000;stroke-width:1;"/><path d="M628,455.7339 L628,465.7339 L638,465.7339 L628,455.7339 " fill="#FFFFFF" style="stroke:#000000;stroke-width:1;"/><text fill="#000000" font-family="Arial" font-size="11" lengthAdjust="spacing" textLength="106.396" x="471" y="471.2317">Representative inputs</text><text fill="#000000" font-family="Arial" font-size="11" lengthAdjust="spacing" textLength="89.2515" x="471" y="483.8806">- tmuServiceMode</text><text fill="#000000" font-family="Arial" font-size="11" lengthAdjust="spacing" textLength="58.0776" x="471" y="496.5295">- signalBars</text><text fill="#000000" font-family="Arial" font-size="11" lengthAdjust="spacing" textLength="56.2461" x="471" y="509.1785">- driveState</text><text fill="#000000" font-family="Arial" font-size="11" lengthAdjust="spacing" textLength="3.0562" x="471" y="521.8274">&#160;</text><text fill="#000000" font-family="Arial" font-size="11" lengthAdjust="spacing" textLength="152.2598" x="471" y="534.4763">Representative internal outputs</text><text fill="#000000" font-family="Arial" font-size="11" lengthAdjust="spacing" textLength="59.3022" x="471" y="547.1252">- DKeyState</text><text fill="#000000" font-family="Arial" font-size="11" lengthAdjust="spacing" textLength="56.8638" x="471" y="559.7742">- AuthMode</text><text fill="#000000" font-family="Arial" font-size="11" lengthAdjust="spacing" textLength="103.936" x="471" y="572.4231">- VehicleAccessState</text><text fill="#000000" font-family="Arial" font-size="11" lengthAdjust="spacing" textLength="77.0269" x="471" y="585.072">- SecurityGrade</text><text fill="#000000" font-family="Arial" font-size="11" lengthAdjust="spacing" textLength="72.1445" x="471" y="597.7209">- KeyPresence</text><text fill="#000000" font-family="Arial" font-size="11" lengthAdjust="spacing" textLength="69.7007" x="471" y="610.3699">- KeySyncAge</text><rect fill="#FFFFFF" height="3" style="stroke:#FFFFFF;stroke-width:1;" width="973.1445" x="5" y="641.8455"/><line style="stroke:#000000;stroke-width:0.5;" x1="5" x2="978.1445" y1="641.8455" y2="641.8455"/><line style="stroke:#000000;stroke-width:0.5;" x1="5" x2="978.1445" y1="644.8455" y2="644.8455"/><rect fill="#FFFFFF" height="20.6489" style="stroke:#000000;stroke-width:1;" width="98.3691" x="442.3877" y="632.521"/><text fill="#000000" font-family="Arial" font-size="11" font-weight="bold" lengthAdjust="spacing" textLength="81.313" x="448.3877" y="647.0188">Access Publish</text><polygon fill="#000000" points="687.1509,677.8188,697.1509,681.8188,687.1509,685.8188,691.1509,681.8188" style="stroke:#000000;stroke-width:1;"/><line style="stroke:#000000;stroke-width:1;" x1="460.4419" x2="693.1509" y1="681.8188" y2="681.8188"/><text fill="#000000" font-family="Arial" font-size="11" lengthAdjust="spacing" textLength="87.4092" x="536.0918" y="677.6677">frmDkeyStateMsg</text><polygon fill="#000000" points="834.155,717.1167,844.155,721.1167,834.155,725.1167,838.155,721.1167" style="stroke:#000000;stroke-width:1;"/><line style="stroke:#000000;stroke-width:1;" x1="455.4419" x2="840.155" y1="721.1167" y2="721.1167"/><text fill="#000000" font-family="Arial" font-size="11" lengthAdjust="spacing" textLength="121.0591" x="590.2689" y="704.3167">traceable DKEY state for</text><text fill="#000000" font-family="Arial" font-size="11" lengthAdjust="spacing" textLength="122.2891" x="589.6539" y="716.9656">scenario/test observation</text><path d="M704,734.1167 L704,794.1167 L973,794.1167 L973,744.1167 L963,734.1167 L704,734.1167 " fill="#FFFFFF" style="stroke:#000000;stroke-width:1;"/><path d="M963,734.1167 L963,744.1167 L973,744.1167 L963,734.1167 " fill="#FFFFFF" style="stroke:#000000;stroke-width:1;"/><text fill="#000000" font-family="Arial" font-size="11" lengthAdjust="spacing" textLength="130.8398" x="710" y="749.6145">Representative consumers</text><text fill="#000000" font-family="Arial" font-size="11" lengthAdjust="spacing" textLength="248.1445" x="710" y="762.2634">- DOOR_FL / DOOR_FR / DOOR_RL / DOOR_RR</text><text fill="#000000" font-family="Arial" font-size="11" lengthAdjust="spacing" textLength="30.5562" x="710" y="774.9124">- SMK</text><text fill="#000000" font-family="Arial" font-size="11" lengthAdjust="spacing" textLength="28.73" x="710" y="787.5613">- PAK</text><path d="M10,804.7124 L10,877.7124 L908,877.7124 L908,814.7124 L898,804.7124 L10,804.7124 " fill="#FFFFFF" style="stroke:#000000;stroke-width:1;"/><path d="M898,804.7124 L898,814.7124 L908,814.7124 L898,804.7124 " fill="#FFFFFF" style="stroke:#000000;stroke-width:1;"/><text fill="#000000" font-family="Arial" font-size="11" lengthAdjust="spacing" textLength="143.0752" x="289.735" y="820.2102">Representative runtime chain</text><text fill="#000000" font-family="Arial" font-size="11" lengthAdjust="spacing" textLength="322.7974" x="289.735" y="832.8591">1. TMU service state and signal bars arrive with vehicle drive state</text><text fill="#000000" font-family="Arial" font-size="11" lengthAdjust="spacing" textLength="278.8081" x="289.735" y="845.5081">2. DKEY derives access/auth/security state and sync age</text><text fill="#000000" font-family="Arial" font-size="11" lengthAdjust="spacing" textLength="330.145" x="289.735" y="858.157">3. DKEY publishes frmDkeyStateMsg to door and key-related ECUs</text><text fill="#000000" font-family="Arial" font-size="11" lengthAdjust="spacing" textLength="308.752" x="289.735" y="870.8059">4. Test and observer paths can confirm access-state transitions</text><!--SRC=[TLHXJzim4FtkNt63BvjOoTYGG4XCAgMPfgw0MfWq2GcvoRMrIEpCTc3ir-_EJjeqi7wealZk-TwxT_VEhx54g0gfj72FIbVIoX8MCdjSMLFhV6GAOs4_3RzEH8vBMHS-DTfVIK8OMYMBjy_dwY_2qL7dqE7l6dM6KtHEhd1Og9M63BL7sucow2gZNHjrWOLv7bfhdi7R6eNmoXS8jzCx66OPnS2jWSl9-1VClVG8SmAL1QIKTQ_VSvX3-wGoX0HSF5j8w-Wjj-e9mOMimTU88IDaLIyAbKclZFuWXCmyYR4tmz9uJEu83wZOsj_hBhnbTixlWNGGOlRJu_GalH14owjCLL9xsEEC17xYMcN4ee5f8KgJ8npib7aGomoettK5- -FJz5CwtWNbqkzrhbRAKzuZle1vrcX3Kg35MIVZqrwM8LO9pASJ-hyPJkvrmpuZ-UiIhGi0ZShiXUFHgCTcFBzzc8-k2C0ic4MRTBtWZ15TcmfnVjw2V6U-3ixFXGWIaUnCwgml8k5PcIi3bJL_LAdy2zHLJeqI7DuswmnyMSzZvfIa8o63SXSa7Cd1kWLFS0FL4xUPqqJ8tM9eOqjPi5d92esp4dZgTiZrSt8CthcSu4jqNGB3sg-vYF-4DXsFEhGvSyngI-I-4TbNYP4my1KlEXkkE85URcW-U8Y49ZE2LQkr1xECp6POXLE2vpkRsWSzcUZ3LYTwwGZr6e5caxreQjzWRJZJyuRpu0r-z76Nts2d_467cK2T0_FfUkM6Pz2jWrbQQPgZCrZQylAnAMJgLfi0zXtPmieCvQA83Mz6V6ai6OJMZRJA99vT5ZqRnhmdPxoeByTcC5Y7w-lPG_g3cXAVPktJRFDjDcCDfXFwf_7Qainnrv3nRaF34nR7HsRHlzhMsYjQkDcQL_RH8NHNJoGe2R-xEgGDpdjMVhsnSsVdYS-7KPxeKDVilaHIKnFNTAuBJRq2MiZYIvDNnGPHPgyRu0tal5muZRuFB1PqaiDuTEV4CTNEulDXkpIWadvDYqTgrdYfRDbKCuZtKqDfjhbFRYlZFm00]--></g></svg>