<svg xmlns="http://www.w3.org/2000/svg" xmlns:xlink="http://www.w3.org/1999/xlink" contentStyleType="text/css" height="1142px" preserveAspectRatio="none" style="width:1207px;height:1142px;background:#FFFFFF;" version="1.1" viewBox="0 0 1207 1142" width="1207px" zoomAndPan="magnify"><title>Turn Signal To Body Gateway Signal Flow</title><defs/><g><text fill="#000000" font-family="Arial" font-size="22" font-weight="bold" lengthAdjust="spacing" textLength="440.043" x="382.3258" y="35.9956">Turn Signal To Body Gateway Signal Flow</text><text fill="#000000" font-family="Arial" font-size="22" font-weight="bold" lengthAdjust="spacing" textLength="553.083" x="325.8058" y="61.2935">(Input_Console -&gt; Router -&gt; BCM -&gt; CoreState / CLU)</text><rect fill="#FFFFFF" height="39.2979" style="stroke:#000000;stroke-width:1;" width="10" x="245.103" y="232.1914"/><rect fill="#FFFFFF" height="179.2446" style="stroke:#000000;stroke-width:1;" width="10" x="410.5945" y="271.4893"/><rect fill="#FFFFFF" height="348.7871" style="stroke:#000000;stroke-width:1;" width="10" x="632.2605" y="450.7339"/><rect fill="#FFFFFF" height="151.8936" style="stroke:#000000;stroke-width:1;" width="10" x="1111.9431" y="799.521"/><line style="stroke:#000000;stroke-width:1;" x1="66" x2="66" y1="162.8936" y2="1052.6592"/><line style="stroke:#000000;stroke-width:1;" x1="249.3469" x2="249.3469" y1="162.8936" y2="1052.6592"/><line style="stroke:#000000;stroke-width:1;" x1="414.8591" x2="414.8591" y1="162.8936" y2="1052.6592"/><line style="stroke:#000000;stroke-width:1;" x1="636.3767" x2="636.3767" y1="162.8936" y2="1052.6592"/><line style="stroke:#000000;stroke-width:1;" x1="971.5686" x2="971.5686" y1="162.8936" y2="1052.6592"/><line style="stroke:#000000;stroke-width:1;" x1="1116.1917" x2="1116.1917" y1="162.8936" y2="1052.6592"/><text fill="#000000" font-family="Arial" font-size="11" lengthAdjust="spacing" textLength="29.3315" x="48.9373" y="148.0935">Driver</text><text fill="#000000" font-family="Arial" font-size="11" lengthAdjust="spacing" textLength="75.2061" x="26" y="160.7424">(Input Console)</text><ellipse cx="66.603" cy="85.5957" fill="#F4F7FB" rx="8" ry="8" style="stroke:#000000;stroke-width:1;"/><path d="M66.603,93.5957 L66.603,120.5957 M53.603,101.5957 L79.603,101.5957 M66.603,120.5957 L53.603,135.5957 M66.603,120.5957 L79.603,135.5957 " fill="none" style="stroke:#000000;stroke-width:1;"/><text fill="#000000" font-family="Arial" font-size="11" lengthAdjust="spacing" textLength="29.3315" x="48.9373" y="1062.157">Driver</text><text fill="#000000" font-family="Arial" font-size="11" lengthAdjust="spacing" textLength="75.2061" x="26" y="1074.8059">(Input Console)</text><ellipse cx="66.603" cy="1085.957" fill="#F4F7FB" rx="8" ry="8" style="stroke:#000000;stroke-width:1;"/><path d="M66.603,1093.957 L66.603,1120.957 M53.603,1101.957 L79.603,1101.957 M66.603,1120.957 L53.603,1135.957 M66.603,1120.957 L79.603,1135.957 " fill="none" style="stroke:#000000;stroke-width:1;"/><rect fill="#E8F0FE" height="39.2979" rx="2.5" ry="2.5" style="stroke:#000000;stroke-width:1;" width="111.5122" x="194.3469" y="122.5957"/><text fill="#000000" font-family="Arial" font-size="11" lengthAdjust="spacing" textLength="70.9414" x="214.6323" y="140.0935">Input_Console</text><text fill="#000000" font-family="Arial" font-size="11" lengthAdjust="spacing" textLength="97.5122" x="201.3469" y="152.7424">Vehicle &gt; Turn Cmd</text><rect fill="#E8F0FE" height="39.2979" rx="2.5" ry="2.5" style="stroke:#000000;stroke-width:1;" width="111.5122" x="194.3469" y="1051.6592"/><text fill="#000000" font-family="Arial" font-size="11" lengthAdjust="spacing" textLength="70.9414" x="214.6323" y="1069.157">Input_Console</text><text fill="#000000" font-family="Arial" font-size="11" lengthAdjust="spacing" textLength="97.5122" x="201.3469" y="1081.8059">Vehicle &gt; Turn Cmd</text><rect fill="#FFF4CC" height="39.2979" rx="2.5" ry="2.5" style="stroke:#000000;stroke-width:1;" width="159.4707" x="335.8591" y="122.5957"/><text fill="#000000" font-family="Arial" font-size="11" lengthAdjust="spacing" textLength="145.4707" x="342.8591" y="140.0935">INPUT_CONSOLE_ROUTER</text><text fill="#000000" font-family="Arial" font-size="11" lengthAdjust="spacing" textLength="124.7114" x="353.2388" y="152.7424">turn command normalizer</text><rect fill="#FFF4CC" height="39.2979" rx="2.5" ry="2.5" style="stroke:#000000;stroke-width:1;" width="159.4707" x="335.8591" y="1051.6592"/><text fill="#000000" font-family="Arial" font-size="11" lengthAdjust="spacing" textLength="145.4707" x="342.8591" y="1069.157">INPUT_CONSOLE_ROUTER</text><text fill="#000000" font-family="Arial" font-size="11" lengthAdjust="spacing" textLength="124.7114" x="353.2388" y="1081.8059">turn command normalizer</text><rect fill="#E8F7E8" height="39.2979" rx="2.5" ry="2.5" style="stroke:#000000;stroke-width:1;" width="97.7676" x="588.3767" y="122.5957"/><text fill="#000000" font-family="Arial" font-size="11" lengthAdjust="spacing" textLength="24.4438" x="625.0386" y="140.0935">BCM</text><text fill="#000000" font-family="Arial" font-size="11" lengthAdjust="spacing" textLength="83.7676" x="595.3767" y="152.7424">body lamp owner</text><rect fill="#E8F7E8" height="39.2979" rx="2.5" ry="2.5" style="stroke:#000000;stroke-width:1;" width="97.7676" x="588.3767" y="1051.6592"/><text fill="#000000" font-family="Arial" font-size="11" lengthAdjust="spacing" textLength="24.4438" x="625.0386" y="1069.157">BCM</text><text fill="#000000" font-family="Arial" font-size="11" lengthAdjust="spacing" textLength="83.7676" x="595.3767" y="1081.8059">body lamp owner</text><rect fill="#FCE8FF" height="39.2979" rx="2.5" ry="2.5" style="stroke:#000000;stroke-width:1;" width="91.623" x="926.5686" y="122.5957"/><text fill="#000000" font-family="Arial" font-size="11" lengthAdjust="spacing" textLength="49.5269" x="947.6167" y="140.0935">CoreState</text><text fill="#000000" font-family="Arial" font-size="11" lengthAdjust="spacing" textLength="77.623" x="933.5686" y="152.7424">turn lamp mirror</text><rect fill="#FCE8FF" height="39.2979" rx="2.5" ry="2.5" style="stroke:#000000;stroke-width:1;" width="91.623" x="926.5686" y="1051.6592"/><text fill="#000000" font-family="Arial" font-size="11" lengthAdjust="spacing" textLength="49.5269" x="947.6167" y="1069.157">CoreState</text><text fill="#000000" font-family="Arial" font-size="11" lengthAdjust="spacing" textLength="77.623" x="933.5686" y="1081.8059">turn lamp mirror</text><rect fill="#E8F0FE" height="39.2979" rx="2.5" ry="2.5" style="stroke:#000000;stroke-width:1;" width="137.5029" x="1048.1917" y="122.5957"/><text fill="#000000" font-family="Arial" font-size="11" lengthAdjust="spacing" textLength="22.0054" x="1105.9404" y="140.0935">CLU</text><text fill="#000000" font-family="Arial" font-size="11" lengthAdjust="spacing" textLength="123.5029" x="1055.1917" y="152.7424">lamp readback consumer</text><rect fill="#E8F0FE" height="39.2979" rx="2.5" ry="2.5" style="stroke:#000000;stroke-width:1;" width="137.5029" x="1048.1917" y="1051.6592"/><text fill="#000000" font-family="Arial" font-size="11" lengthAdjust="spacing" textLength="22.0054" x="1105.9404" y="1069.157">CLU</text><text fill="#000000" font-family="Arial" font-size="11" lengthAdjust="spacing" textLength="123.5029" x="1055.1917" y="1081.8059">lamp readback consumer</text><rect fill="#FFFFFF" height="39.2979" style="stroke:#000000;stroke-width:1;" width="10" x="245.103" y="232.1914"/><rect fill="#FFFFFF" height="179.2446" style="stroke:#000000;stroke-width:1;" width="10" x="410.5945" y="271.4893"/><rect fill="#FFFFFF" height="348.7871" style="stroke:#000000;stroke-width:1;" width="10" x="632.2605" y="450.7339"/><rect fill="#FFFFFF" height="151.8936" style="stroke:#000000;stroke-width:1;" width="10" x="1111.9431" y="799.521"/><rect fill="#FFFFFF" height="3" style="stroke:#FFFFFF;stroke-width:1;" width="1195.6946" x="5" y="192.218"/><line style="stroke:#000000;stroke-width:0.5;" x1="5" x2="1200.6946" y1="192.218" y2="192.218"/><line style="stroke:#000000;stroke-width:0.5;" x1="5" x2="1200.6946" y1="195.218" y2="195.218"/><rect fill="#FFFFFF" height="20.6489" style="stroke:#000000;stroke-width:1;" width="128.2646" x="538.715" y="182.8936"/><text fill="#000000" font-family="Arial" font-size="11" font-weight="bold" lengthAdjust="spacing" textLength="111.2085" x="544.715" y="197.3914">Turn Command Input</text><polygon fill="#000000" points="233.103,228.1914,243.103,232.1914,233.103,236.1914,237.103,232.1914" style="stroke:#000000;stroke-width:1;"/><line style="stroke:#000000;stroke-width:1;" x1="66.603" x2="239.103" y1="232.1914" y2="232.1914"/><text fill="#000000" font-family="Arial" font-size="11" lengthAdjust="spacing" textLength="159.5" x="76.103" y="228.0403">Click OFF / LEFT / RIGHT / HAZ</text><polygon fill="#000000" points="398.5945,267.4893,408.5945,271.4893,398.5945,275.4893,402.5945,271.4893" style="stroke:#000000;stroke-width:1;"/><line style="stroke:#000000;stroke-width:1;" x1="250.103" x2="404.5945" y1="271.4893" y2="271.4893"/><text fill="#000000" font-family="Arial" font-size="11" lengthAdjust="spacing" textLength="115.543" x="272.5773" y="254.6892">Cmd::turnOff / turnLeft /</text><text fill="#000000" font-family="Arial" font-size="11" lengthAdjust="spacing" textLength="108.2168" x="276.2404" y="267.3381">turnRight / turnHazard</text><path d="M255,284.4893 L255,306.4893 L450,306.4893 L450,294.4893 L440,284.4893 L255,284.4893 " fill="#FFFFFF" style="stroke:#000000;stroke-width:1;"/><path d="M440,284.4893 L440,294.4893 L450,294.4893 L440,284.4893 " fill="#FFFFFF" style="stroke:#000000;stroke-width:1;"/><text fill="#000000" font-family="Arial" font-size="11" lengthAdjust="spacing" textLength="174.8828" x="261" y="299.9871">Panel emits one-shot button pulses.</text><rect fill="#FFFFFF" height="3" style="stroke:#FFFFFF;stroke-width:1;" width="1195.6946" x="5" y="331.4626"/><line style="stroke:#000000;stroke-width:0.5;" x1="5" x2="1200.6946" y1="331.4626" y2="331.4626"/><line style="stroke:#000000;stroke-width:0.5;" x1="5" x2="1200.6946" y1="334.4626" y2="334.4626"/><rect fill="#FFFFFF" height="20.6489" style="stroke:#000000;stroke-width:1;" width="128.2861" x="538.7042" y="322.1382"/><text fill="#000000" font-family="Arial" font-size="11" font-weight="bold" lengthAdjust="spacing" textLength="111.23" x="544.7042" y="336.636">Router Normalization</text><line style="stroke:#000000;stroke-width:1;" x1="420.5945" x2="462.5945" y1="371.436" y2="371.436"/><line style="stroke:#000000;stroke-width:1;" x1="462.5945" x2="462.5945" y1="371.436" y2="384.436"/><line style="stroke:#000000;stroke-width:1;" x1="421.5945" x2="462.5945" y1="384.436" y2="384.436"/><polygon fill="#000000" points="431.5945,380.436,421.5945,384.436,431.5945,388.436,427.5945,384.436" style="stroke:#000000;stroke-width:1;"/><text fill="#000000" font-family="Arial" font-size="11" lengthAdjust="spacing" textLength="173.6313" x="427.5945" y="367.2849">map pulses to Cmd::turnSignalCmd</text><line style="stroke:#000000;stroke-width:1;" x1="420.5945" x2="462.5945" y1="411.085" y2="411.085"/><line style="stroke:#000000;stroke-width:1;" x1="462.5945" x2="462.5945" y1="411.085" y2="424.085"/><line style="stroke:#000000;stroke-width:1;" x1="421.5945" x2="462.5945" y1="424.085" y2="424.085"/><polygon fill="#000000" points="431.5945,420.085,421.5945,424.085,431.5945,428.085,427.5945,424.085" style="stroke:#000000;stroke-width:1;"/><text fill="#000000" font-family="Arial" font-size="11" lengthAdjust="spacing" textLength="187.666" x="427.5945" y="406.9338">OFF=0 LEFT=1 RIGHT=2 HAZARD=3</text><polygon fill="#000000" points="620.2605,446.7339,630.2605,450.7339,620.2605,454.7339,624.2605,450.7339" style="stroke:#000000;stroke-width:1;"/><line style="stroke:#000000;stroke-width:1;" x1="415.5945" x2="626.2605" y1="450.7339" y2="450.7339"/><text fill="#000000" font-family="Arial" font-size="11" lengthAdjust="spacing" textLength="102.0938" x="472.8806" y="446.5828">Cmd::turnSignalCmd</text><path d="M420,463.7339 L420,510.7339 L550,510.7339 L550,473.7339 L540,463.7339 L420,463.7339 " fill="#FFFFFF" style="stroke:#000000;stroke-width:1;"/><path d="M540,463.7339 L540,473.7339 L550,473.7339 L540,463.7339 " fill="#FFFFFF" style="stroke:#000000;stroke-width:1;"/><text fill="#000000" font-family="Arial" font-size="11" lengthAdjust="spacing" textLength="109.4414" x="426" y="479.2317">Representative seams</text><text fill="#000000" font-family="Arial" font-size="11" lengthAdjust="spacing" textLength="108.813" x="426" y="491.8806">- Cmd::turnSignalCmd</text><text fill="#000000" font-family="Arial" font-size="11" lengthAdjust="spacing" textLength="90.4707" x="426" y="504.5295">- Cmd::turnHazard</text><rect fill="#FFFFFF" height="3" style="stroke:#FFFFFF;stroke-width:1;" width="1195.6946" x="5" y="536.0051"/><line style="stroke:#000000;stroke-width:0.5;" x1="5" x2="1200.6946" y1="536.0051" y2="536.0051"/><line style="stroke:#000000;stroke-width:0.5;" x1="5" x2="1200.6946" y1="539.0051" y2="539.0051"/><rect fill="#FFFFFF" height="20.6489" style="stroke:#000000;stroke-width:1;" width="134.3984" x="535.6481" y="526.6807"/><text fill="#000000" font-family="Arial" font-size="11" font-weight="bold" lengthAdjust="spacing" textLength="117.3423" x="541.6481" y="541.1785">BCM Lamp Ownership</text><line style="stroke:#000000;stroke-width:1;" x1="642.2605" x2="684.2605" y1="575.9785" y2="575.9785"/><line style="stroke:#000000;stroke-width:1;" x1="684.2605" x2="684.2605" y1="575.9785" y2="588.9785"/><line style="stroke:#000000;stroke-width:1;" x1="643.2605" x2="684.2605" y1="588.9785" y2="588.9785"/><polygon fill="#000000" points="653.2605,584.9785,643.2605,588.9785,653.2605,592.9785,649.2605,588.9785" style="stroke:#000000;stroke-width:1;"/><text fill="#000000" font-family="Arial" font-size="11" lengthAdjust="spacing" textLength="216.7451" x="649.2605" y="571.8274">manualMode = (Test::scenarioActiveId == 0)</text><line style="stroke:#000000;stroke-width:1;" x1="642.2605" x2="684.2605" y1="615.6274" y2="615.6274"/><line style="stroke:#000000;stroke-width:1;" x1="684.2605" x2="684.2605" y1="615.6274" y2="628.6274"/><line style="stroke:#000000;stroke-width:1;" x1="643.2605" x2="684.2605" y1="628.6274" y2="628.6274"/><polygon fill="#000000" points="653.2605,624.6274,643.2605,628.6274,653.2605,632.6274,649.2605,628.6274" style="stroke:#000000;stroke-width:1;"/><text fill="#000000" font-family="Arial" font-size="11" lengthAdjust="spacing" textLength="207.8774" x="649.2605" y="611.4763">hazardActive from effective alert level &gt;= 6</text><line style="stroke:#000000;stroke-width:1;" x1="642.2605" x2="684.2605" y1="655.2764" y2="655.2764"/><line style="stroke:#000000;stroke-width:1;" x1="684.2605" x2="684.2605" y1="655.2764" y2="668.2764"/><line style="stroke:#000000;stroke-width:1;" x1="643.2605" x2="684.2605" y1="668.2764" y2="668.2764"/><polygon fill="#000000" points="653.2605,664.2764,643.2605,668.2764,653.2605,672.2764,649.2605,668.2764" style="stroke:#000000;stroke-width:1;"/><text fill="#000000" font-family="Arial" font-size="11" lengthAdjust="spacing" textLength="275.1343" x="649.2605" y="651.1252">if manualMode -&gt; turnLampState = Cmd::turnSignalCmd</text><line style="stroke:#000000;stroke-width:1;" x1="642.2605" x2="684.2605" y1="694.9253" y2="694.9253"/><line style="stroke:#000000;stroke-width:1;" x1="684.2605" x2="684.2605" y1="694.9253" y2="707.9253"/><line style="stroke:#000000;stroke-width:1;" x1="643.2605" x2="684.2605" y1="707.9253" y2="707.9253"/><polygon fill="#000000" points="653.2605,703.9253,643.2605,707.9253,653.2605,711.9253,649.2605,707.9253" style="stroke:#000000;stroke-width:1;"/><text fill="#000000" font-family="Arial" font-size="11" lengthAdjust="spacing" textLength="301.1196" x="649.2605" y="690.7742">else if ETH turn-lamp input fresh -&gt; use gTurnLampInputState</text><line style="stroke:#000000;stroke-width:1;" x1="642.2605" x2="684.2605" y1="759.8721" y2="759.8721"/><line style="stroke:#000000;stroke-width:1;" x1="684.2605" x2="684.2605" y1="759.8721" y2="772.8721"/><line style="stroke:#000000;stroke-width:1;" x1="643.2605" x2="684.2605" y1="772.8721" y2="772.8721"/><polygon fill="#000000" points="653.2605,768.8721,643.2605,772.8721,653.2605,776.8721,649.2605,772.8721" style="stroke:#000000;stroke-width:1;"/><text fill="#000000" font-family="Arial" font-size="11" lengthAdjust="spacing" textLength="143.666" x="649.2605" y="730.4231">publish frmLampControlMsg /</text><text fill="#000000" font-family="Arial" font-size="11" lengthAdjust="spacing" textLength="113.6953" x="664.2458" y="743.072">frmHazardControlMsg /</text><text fill="#000000" font-family="Arial" font-size="11" lengthAdjust="spacing" textLength="130.8291" x="655.679" y="755.7209">frmBodyGatewayStateMsg</text><polygon fill="#000000" points="960.3801,795.521,970.3801,799.521,960.3801,803.521,964.3801,799.521" style="stroke:#000000;stroke-width:1;"/><line style="stroke:#000000;stroke-width:1;" x1="637.2605" x2="966.3801" y1="799.521" y2="799.521"/><text fill="#000000" font-family="Arial" font-size="11" lengthAdjust="spacing" textLength="72.1553" x="768.7427" y="795.3699">turnLampState</text><path d="M642,812.521 L642,847.521 L831,847.521 L831,822.521 L821,812.521 L642,812.521 " fill="#FFFFFF" style="stroke:#000000;stroke-width:1;"/><path d="M821,812.521 L821,822.521 L831,822.521 L821,812.521 " fill="#FFFFFF" style="stroke:#000000;stroke-width:1;"/><text fill="#000000" font-family="Arial" font-size="11" lengthAdjust="spacing" textLength="168.749" x="648" y="828.0188">BCM is the effective body gateway</text><text fill="#000000" font-family="Arial" font-size="11" lengthAdjust="spacing" textLength="125.3291" x="648" y="840.6677">owner for turn-lamp state.</text><rect fill="#FFFFFF" height="3" style="stroke:#FFFFFF;stroke-width:1;" width="1195.6946" x="5" y="872.1433"/><line style="stroke:#000000;stroke-width:0.5;" x1="5" x2="1200.6946" y1="872.1433" y2="872.1433"/><line style="stroke:#000000;stroke-width:0.5;" x1="5" x2="1200.6946" y1="875.1433" y2="875.1433"/><rect fill="#FFFFFF" height="20.6489" style="stroke:#000000;stroke-width:1;" width="131.3638" x="537.1654" y="862.8188"/><text fill="#000000" font-family="Arial" font-size="11" font-weight="bold" lengthAdjust="spacing" textLength="114.3076" x="543.1654" y="877.3167">Downstream Visibility</text><polygon fill="#000000" points="1099.9431,920.7656,1109.9431,924.7656,1099.9431,928.7656,1103.9431,924.7656" style="stroke:#000000;stroke-width:1;"/><line style="stroke:#000000;stroke-width:1;" x1="637.2605" x2="1105.9431" y1="924.7656" y2="924.7656"/><text fill="#000000" font-family="Arial" font-size="11" lengthAdjust="spacing" textLength="127.7944" x="810.7046" y="907.9656">CoreState::turnLampState</text><text fill="#000000" font-family="Arial" font-size="11" lengthAdjust="spacing" textLength="108.8345" x="820.1846" y="920.6145">and body lamp frames</text><polygon fill="#000000" points="261.103,947.4146,251.103,951.4146,261.103,955.4146,257.103,951.4146" style="stroke:#000000;stroke-width:1;"/><line style="stroke:#000000;stroke-width:1;" x1="255.103" x2="1115.9431" y1="951.4146" y2="951.4146"/><text fill="#000000" font-family="Arial" font-size="11" lengthAdjust="spacing" textLength="100.2568" x="633.3947" y="947.2634">FRM / turn readback</text><path d="M10,964.4146 L10,1037.4146 L1174,1037.4146 L1174,974.4146 L1164,964.4146 L10,964.4146 " fill="#FFFFFF" style="stroke:#000000;stroke-width:1;"/><path d="M1164,964.4146 L1164,974.4146 L1174,974.4146 L1164,964.4146 " fill="#FFFFFF" style="stroke:#000000;stroke-width:1;"/><text fill="#000000" font-family="Arial" font-size="11" lengthAdjust="spacing" textLength="143.0752" x="449.0448" y="979.9124">Representative runtime chain</text><text fill="#000000" font-family="Arial" font-size="11" lengthAdjust="spacing" textLength="221.332" x="449.0448" y="992.5613">1. Input_Console emits turn-command pulses</text><text fill="#000000" font-family="Arial" font-size="11" lengthAdjust="spacing" textLength="218.8667" x="449.0448" y="1005.2102">2. Router normalizes to Cmd::turnSignalCmd</text><text fill="#000000" font-family="Arial" font-size="11" lengthAdjust="spacing" textLength="277.605" x="449.0448" y="1017.8591">3. BCM owns final turnLampState and hazard publication</text><text fill="#000000" font-family="Arial" font-size="11" lengthAdjust="spacing" textLength="258.6343" x="449.0448" y="1030.5081">4. CoreState / CLU expose the visible lamp readback</text><!--SRC=[TLLDRziu4BtpLymcbmROk4aRR0i32k0eLXF0ZWl7wM5X8A2jaKrK8hKavMpwwtU6b3_aUdsnJV8zphoPUVp3hx52g4kfj70_bQwbbHKivFBdoff6vwafZONpB7mEJkHOoARqcT7-IHB3m2fPdjv_LhyGhgyFDXt-qw1UuXYTaoiSb6gbOOdQepquPT7LHhljgJiipTl0MlC6tZOeX5U-H9WrLiCp4SWIPWRkJFuEtwJ7D_c-NSu8EDSV7dNT-DUKA0tXBczXQXgwaN_TfMF-Iet5PqzW-0ZfwEL22BdqbFxPlLKRj5iEQ3akpa0wY7iaqKts9RiJ5BjNIrLBxU6iS-LS_y2rMjBTjp7gjCe3mtUfiOJpuTViAXiU4JnzVvczffEdvybe-3gTlCo6qxdsZ5wQgf8w1sri9KlIs0QoDYcks4sQTjaepRbUi4Abh6emRxe5SVvy_vVXrovYfqXxQS1LYgeGWNl5phEK2B8Z-EXbhWF6eiovgoXixPgglPVsTtcB96bbQHEBMYU94At4LA4eLH_IKX7N9CkeKgDXDgElwUEt1_v-6FpDPLCRZYgS5n6rhtYVfU_tEQD9KH26VusmyF0nvZbLgxLlrn_aBsbpeGtHsR1kYWulLiexC1eltTfuM3JU6mrrKpfqFO6XH1v5ZaTHSS9jG4zj3QLN1EMKTsVZ2R7lrLqEbQpRMy2RVKQnwUdlAGmfbbm5nPBhg5ZoYHKRJE-Jpw8x4FrJd5qPji5XJSDAyqlnRv36MrPEN9w27ooskfxIfwLbWJYG4JVGX9lLhLNTbOVsHJkzCMPgdKQMOvCZ9F1XXixt-uwyHLfb1ep2nvmeuEgYYrk7SE89AAof08i2urzPelLGueQgVPl0NrsaAWulfUNGJHHp78pab0uT0gGQCijmzX2mbs5YL6Z_WeHTyz66pgncBNCOZK3VPQgRHQdeV64hFaR6uwqfnsx5ZKsBKVFVbjaqMyyCfBGZVhF4VZUleqxOra5HCwxnGBjWDwj8BeBZG46Mki_JCTlfEM5IRe9xmZbF5bB13-NKGfNAltVxW9na5pAPIdyVU9H-5_TSixViJR2WfmQTOD21lsJJSJl-E-Sw38nlYm8ODgReJt-6vQDPi8tsYjx7vPfVsEiUT5-Xw1r1ZAsVnv4MdthRgTqP_F_D-UTUA3-B18NY5w_RWSmQspiso3BOZBZf7JzuWF_MXlgCAxXXeId2Zdllg_GV]--></g></svg>