<svg xmlns="http://www.w3.org/2000/svg" xmlns:xlink="http://www.w3.org/1999/xlink" contentStyleType="text/css" height="1297px" preserveAspectRatio="none" style="width:1182px;height:1297px;background:#FFFFFF;" version="1.1" viewBox="0 0 1182 1297" width="1182px" zoomAndPan="magnify"><title>Warning Beep To Audio Focus Signal Flow</title><defs/><g><text fill="#000000" font-family="Arial" font-size="22" font-weight="bold" lengthAdjust="spacing" textLength="448.5508" x="365.4597" y="35.9956">Warning Beep To Audio Focus Signal Flow</text><text fill="#000000" font-family="Arial" font-size="22" font-weight="bold" lengthAdjust="spacing" textLength="254.8477" x="462.3113" y="61.2935">(Core / IVI -&gt; CLU / AMP)</text><rect fill="#FFFFFF" height="125.5957" style="stroke:#000000;stroke-width:1;" width="10" x="638.1284" y="639.2231"/><rect fill="#FFFFFF" height="307.4893" style="stroke:#000000;stroke-width:1;" width="10" x="848.8052" y="766.8188"/><line style="stroke:#000000;stroke-width:1;" x1="94" x2="94" y1="116.8936" y2="1253.1484"/><line style="stroke:#000000;stroke-width:1;" x1="284.0571" x2="284.0571" y1="116.8936" y2="1253.1484"/><line style="stroke:#000000;stroke-width:1;" x1="642.3677" x2="642.3677" y1="116.8936" y2="1253.1484"/><line style="stroke:#000000;stroke-width:1;" x1="853.3545" x2="853.3545" y1="116.8936" y2="1253.1484"/><rect fill="#FFF4CC" height="39.2979" rx="2.5" ry="2.5" style="stroke:#000000;stroke-width:1;" width="149.7383" x="20" y="76.5957"/><text fill="#000000" font-family="Arial" font-size="11" lengthAdjust="spacing" textLength="82.5376" x="53.6003" y="94.0935">Core / CoreState</text><text fill="#000000" font-family="Arial" font-size="11" lengthAdjust="spacing" textLength="135.7383" x="27" y="106.7424">alert decision/effective state</text><rect fill="#FFF4CC" height="39.2979" rx="2.5" ry="2.5" style="stroke:#000000;stroke-width:1;" width="149.7383" x="20" y="1252.1484"/><text fill="#000000" font-family="Arial" font-size="11" lengthAdjust="spacing" textLength="82.5376" x="53.6003" y="1269.6462">Core / CoreState</text><text fill="#000000" font-family="Arial" font-size="11" lengthAdjust="spacing" textLength="135.7383" x="27" y="1282.2952">alert decision/effective state</text><rect fill="#E8F0FE" height="39.2979" rx="2.5" ry="2.5" style="stroke:#000000;stroke-width:1;" width="147.0098" x="211.0571" y="76.5957"/><text fill="#000000" font-family="Arial" font-size="11" lengthAdjust="spacing" textLength="13.4492" x="277.8374" y="94.0935">IVI</text><text fill="#000000" font-family="Arial" font-size="11" lengthAdjust="spacing" textLength="133.0098" x="218.0571" y="106.7424">presentation + audio owner</text><rect fill="#E8F0FE" height="39.2979" rx="2.5" ry="2.5" style="stroke:#000000;stroke-width:1;" width="147.0098" x="211.0571" y="1252.1484"/><text fill="#000000" font-family="Arial" font-size="11" lengthAdjust="spacing" textLength="13.4492" x="277.8374" y="1269.6462">IVI</text><text fill="#000000" font-family="Arial" font-size="11" lengthAdjust="spacing" textLength="133.0098" x="218.0571" y="1282.2952">presentation + audio owner</text><rect fill="#E8F7E8" height="39.2979" rx="2.5" ry="2.5" style="stroke:#000000;stroke-width:1;" width="129.5215" x="578.3677" y="76.5957"/><text fill="#000000" font-family="Arial" font-size="11" lengthAdjust="spacing" textLength="22.0054" x="632.1257" y="94.0935">CLU</text><text fill="#000000" font-family="Arial" font-size="11" lengthAdjust="spacing" textLength="115.5215" x="585.3677" y="106.7424">cluster mirror consumer</text><rect fill="#E8F7E8" height="39.2979" rx="2.5" ry="2.5" style="stroke:#000000;stroke-width:1;" width="129.5215" x="578.3677" y="1252.1484"/><text fill="#000000" font-family="Arial" font-size="11" lengthAdjust="spacing" textLength="22.0054" x="632.1257" y="1269.6462">CLU</text><text fill="#000000" font-family="Arial" font-size="11" lengthAdjust="spacing" textLength="115.5215" x="585.3677" y="1282.2952">cluster mirror consumer</text><rect fill="#FFE6E6" height="39.2979" rx="2.5" ry="2.5" style="stroke:#000000;stroke-width:1;" width="114.9014" x="796.3545" y="76.5957"/><text fill="#000000" font-family="Arial" font-size="11" lengthAdjust="spacing" textLength="23.8369" x="841.8867" y="94.0935">AMP</text><text fill="#000000" font-family="Arial" font-size="11" lengthAdjust="spacing" textLength="100.9014" x="803.3545" y="106.7424">audio ducking owner</text><rect fill="#FFE6E6" height="39.2979" rx="2.5" ry="2.5" style="stroke:#000000;stroke-width:1;" width="114.9014" x="796.3545" y="1252.1484"/><text fill="#000000" font-family="Arial" font-size="11" lengthAdjust="spacing" textLength="23.8369" x="841.8867" y="1269.6462">AMP</text><text fill="#000000" font-family="Arial" font-size="11" lengthAdjust="spacing" textLength="100.9014" x="803.3545" y="1282.2952">audio ducking owner</text><rect fill="#FFFFFF" height="125.5957" style="stroke:#000000;stroke-width:1;" width="10" x="638.1284" y="639.2231"/><rect fill="#FFFFFF" height="307.4893" style="stroke:#000000;stroke-width:1;" width="10" x="848.8052" y="766.8188"/><rect fill="#FFFFFF" height="3" style="stroke:#FFFFFF;stroke-width:1;" width="1170.4702" x="5" y="146.218"/><line style="stroke:#000000;stroke-width:0.5;" x1="5" x2="1175.4702" y1="146.218" y2="146.218"/><line style="stroke:#000000;stroke-width:0.5;" x1="5" x2="1175.4702" y1="149.218" y2="149.218"/><rect fill="#FFFFFF" height="20.6489" style="stroke:#000000;stroke-width:1;" width="172.8984" x="503.7859" y="136.8936"/><text fill="#000000" font-family="Arial" font-size="11" font-weight="bold" lengthAdjust="spacing" textLength="155.8423" x="509.7859" y="151.3914">Warning / Presentation Inputs</text><polygon fill="#000000" points="272.562,194.8403,282.562,198.8403,272.562,202.8403,276.562,198.8403" style="stroke:#000000;stroke-width:1;"/><line style="stroke:#000000;stroke-width:1;" x1="94.8691" x2="278.562" y1="198.8403" y2="198.8403"/><text fill="#000000" font-family="Arial" font-size="11" lengthAdjust="spacing" textLength="165.6929" x="106.8691" y="182.0403">selectedAlertEffectiveLevel / Type</text><text fill="#000000" font-family="Arial" font-size="11" lengthAdjust="spacing" textLength="163.8506" x="107.7903" y="194.6892">emergencyContext / timeoutClear</text><line style="stroke:#000000;stroke-width:1;" x1="284.562" x2="326.562" y1="225.4893" y2="225.4893"/><line style="stroke:#000000;stroke-width:1;" x1="326.562" x2="326.562" y1="225.4893" y2="238.4893"/><line style="stroke:#000000;stroke-width:1;" x1="285.562" x2="326.562" y1="238.4893" y2="238.4893"/><polygon fill="#000000" points="295.562,234.4893,285.562,238.4893,295.562,242.4893,291.562,238.4893" style="stroke:#000000;stroke-width:1;"/><text fill="#000000" font-family="Arial" font-size="11" lengthAdjust="spacing" textLength="126.5645" x="291.562" y="221.3381">derivePresentationMode()</text><line style="stroke:#000000;stroke-width:1;" x1="284.562" x2="326.562" y1="265.1382" y2="265.1382"/><line style="stroke:#000000;stroke-width:1;" x1="326.562" x2="326.562" y1="265.1382" y2="278.1382"/><line style="stroke:#000000;stroke-width:1;" x1="285.562" x2="326.562" y1="278.1382" y2="278.1382"/><polygon fill="#000000" points="295.562,274.1382,285.562,278.1382,295.562,282.1382,291.562,278.1382" style="stroke:#000000;stroke-width:1;"/><text fill="#000000" font-family="Arial" font-size="11" lengthAdjust="spacing" textLength="97.2007" x="291.562" y="260.9871">deriveAlertVolume()</text><line style="stroke:#000000;stroke-width:1;" x1="284.562" x2="326.562" y1="304.7871" y2="304.7871"/><line style="stroke:#000000;stroke-width:1;" x1="326.562" x2="326.562" y1="304.7871" y2="317.7871"/><line style="stroke:#000000;stroke-width:1;" x1="285.562" x2="326.562" y1="317.7871" y2="317.7871"/><polygon fill="#000000" points="295.562,313.7871,285.562,317.7871,295.562,321.7871,291.562,317.7871" style="stroke:#000000;stroke-width:1;"/><text fill="#000000" font-family="Arial" font-size="11" lengthAdjust="spacing" textLength="178.5405" x="291.562" y="300.636">compatBeepEmergency / IC / Speed</text><line style="stroke:#000000;stroke-width:1;" x1="284.562" x2="326.562" y1="344.436" y2="344.436"/><line style="stroke:#000000;stroke-width:1;" x1="326.562" x2="326.562" y1="344.436" y2="357.436"/><line style="stroke:#000000;stroke-width:1;" x1="285.562" x2="326.562" y1="357.436" y2="357.436"/><polygon fill="#000000" points="295.562,353.436,285.562,357.436,295.562,361.436,291.562,357.436" style="stroke:#000000;stroke-width:1;"/><text fill="#000000" font-family="Arial" font-size="11" lengthAdjust="spacing" textLength="174.8989" x="291.562" y="340.2849">warningBeepState = any(beep*) &gt; 0</text><path d="M289,370.436 L289,443.436 L459,443.436 L459,380.436 L449,370.436 L289,370.436 " fill="#FFFFFF" style="stroke:#000000;stroke-width:1;"/><path d="M449,370.436 L449,380.436 L459,380.436 L449,370.436 " fill="#FFFFFF" style="stroke:#000000;stroke-width:1;"/><text fill="#000000" font-family="Arial" font-size="11" lengthAdjust="spacing" textLength="119.2329" x="295" y="385.9338">Key render/audio seams</text><text fill="#000000" font-family="Arial" font-size="11" lengthAdjust="spacing" textLength="139.4014" x="295" y="398.5828">- UiRender::beepEmergency</text><text fill="#000000" font-family="Arial" font-size="11" lengthAdjust="spacing" textLength="94.7676" x="295" y="411.2317">- UiRender::beepIC</text><text fill="#000000" font-family="Arial" font-size="11" lengthAdjust="spacing" textLength="115.5752" x="295" y="423.8806">- UiRender::beepSpeed</text><text fill="#000000" font-family="Arial" font-size="11" lengthAdjust="spacing" textLength="149.1929" x="295" y="436.5295">- UiRender::warningBeepState</text><rect fill="#FFFFFF" height="3" style="stroke:#FFFFFF;stroke-width:1;" width="1170.4702" x="5" y="468.0051"/><line style="stroke:#000000;stroke-width:0.5;" x1="5" x2="1175.4702" y1="468.0051" y2="468.0051"/><line style="stroke:#000000;stroke-width:0.5;" x1="5" x2="1175.4702" y1="471.0051" y2="471.0051"/><rect fill="#FFFFFF" height="20.6489" style="stroke:#000000;stroke-width:1;" width="146" x="517.2351" y="458.6807"/><text fill="#000000" font-family="Arial" font-size="11" font-weight="bold" lengthAdjust="spacing" textLength="128.9438" x="523.2351" y="473.1785">Audio Focus Publication</text><line style="stroke:#000000;stroke-width:1;" x1="284.562" x2="326.562" y1="507.9785" y2="507.9785"/><line style="stroke:#000000;stroke-width:1;" x1="326.562" x2="326.562" y1="507.9785" y2="520.9785"/><line style="stroke:#000000;stroke-width:1;" x1="285.562" x2="326.562" y1="520.9785" y2="520.9785"/><polygon fill="#000000" points="295.562,516.9785,285.562,520.9785,295.562,524.9785,291.562,520.9785" style="stroke:#000000;stroke-width:1;"/><text fill="#000000" font-family="Arial" font-size="11" lengthAdjust="spacing" textLength="344.5664" x="291.562" y="503.8274">AudioFocusOwner = (alertLevel &gt; 0 and presentationMode != 1) ? 1 : 0</text><line style="stroke:#000000;stroke-width:1;" x1="284.562" x2="326.562" y1="547.6274" y2="547.6274"/><line style="stroke:#000000;stroke-width:1;" x1="326.562" x2="326.562" y1="547.6274" y2="560.6274"/><line style="stroke:#000000;stroke-width:1;" x1="285.562" x2="326.562" y1="560.6274" y2="560.6274"/><polygon fill="#000000" points="295.562,556.6274,285.562,560.6274,295.562,564.6274,291.562,560.6274" style="stroke:#000000;stroke-width:1;"/><text fill="#000000" font-family="Arial" font-size="11" lengthAdjust="spacing" textLength="201.7813" x="291.562" y="543.4763">AudioDuckingLvl = (alertLevel &gt; 0) ? 4 : 1</text><polygon fill="#000000" points="631.1284,595.9253,641.1284,599.9253,631.1284,603.9253,635.1284,599.9253" style="stroke:#000000;stroke-width:1;"/><line style="stroke:#000000;stroke-width:1;" x1="284.562" x2="637.1284" y1="599.9253" y2="599.9253"/><text fill="#000000" font-family="Arial" font-size="11" lengthAdjust="spacing" textLength="94.7515" x="416.4695" y="583.1252">frmAudioFocusMsg</text><text fill="#000000" font-family="Arial" font-size="11" lengthAdjust="spacing" textLength="92.3076" x="417.6914" y="595.7742">frmMediaStateMsg</text><polygon fill="#000000" points="841.8052,635.2231,851.8052,639.2231,841.8052,643.2231,845.8052,639.2231" style="stroke:#000000;stroke-width:1;"/><line style="stroke:#000000;stroke-width:1;" x1="284.562" x2="847.8052" y1="639.2231" y2="639.2231"/><text fill="#000000" font-family="Arial" font-size="11" lengthAdjust="spacing" textLength="94.7515" x="521.8079" y="622.4231">frmAudioFocusMsg</text><text fill="#000000" font-family="Arial" font-size="11" lengthAdjust="spacing" textLength="92.3076" x="523.0298" y="635.072">frmMediaStateMsg</text><rect fill="#FFFFFF" height="3" style="stroke:#FFFFFF;stroke-width:1;" width="1170.4702" x="5" y="666.5476"/><line style="stroke:#000000;stroke-width:0.5;" x1="5" x2="1175.4702" y1="666.5476" y2="666.5476"/><line style="stroke:#000000;stroke-width:0.5;" x1="5" x2="1175.4702" y1="669.5476" y2="669.5476"/><rect fill="#FFFFFF" height="20.6489" style="stroke:#000000;stroke-width:1;" width="74.5" x="552.9851" y="657.2231"/><text fill="#000000" font-family="Arial" font-size="11" font-weight="bold" lengthAdjust="spacing" textLength="57.4438" x="558.9851" y="671.7209">CLU Mirror</text><line style="stroke:#000000;stroke-width:1;" x1="648.1284" x2="690.1284" y1="706.521" y2="706.521"/><line style="stroke:#000000;stroke-width:1;" x1="690.1284" x2="690.1284" y1="706.521" y2="719.521"/><line style="stroke:#000000;stroke-width:1;" x1="649.1284" x2="690.1284" y1="719.521" y2="719.521"/><polygon fill="#000000" points="659.1284,715.521,649.1284,719.521,659.1284,723.521,655.1284,719.521" style="stroke:#000000;stroke-width:1;"/><text fill="#000000" font-family="Arial" font-size="11" lengthAdjust="spacing" textLength="142.4414" x="655.1284" y="702.3699">consume frmAudioFocusMsg</text><line style="stroke:#000000;stroke-width:1;" x1="648.1284" x2="690.1284" y1="763.8188" y2="763.8188"/><line style="stroke:#000000;stroke-width:1;" x1="690.1284" x2="690.1284" y1="763.8188" y2="776.8188"/><line style="stroke:#000000;stroke-width:1;" x1="643.1284" x2="690.1284" y1="776.8188" y2="776.8188"/><polygon fill="#000000" points="653.1284,772.8188,643.1284,776.8188,653.1284,780.8188,649.1284,776.8188" style="stroke:#000000;stroke-width:1;"/><text fill="#000000" font-family="Arial" font-size="11" lengthAdjust="spacing" textLength="176.6768" x="655.1284" y="747.0188">mirror CoreState::audioFocusOwner</text><text fill="#000000" font-family="Arial" font-size="11" lengthAdjust="spacing" textLength="136.356" x="675.2888" y="759.6677">CoreState::audioDuckingLvl</text><path d="M648,784.8188 L648,831.8188 L834,831.8188 L834,794.8188 L824,784.8188 L648,784.8188 " fill="#FFFFFF" style="stroke:#000000;stroke-width:1;"/><path d="M824,784.8188 L824,794.8188 L834,794.8188 L824,784.8188 " fill="#FFFFFF" style="stroke:#000000;stroke-width:1;"/><text fill="#000000" font-family="Arial" font-size="11" lengthAdjust="spacing" textLength="165.043" x="654" y="800.3167">CLU keeps a cluster-visible mirror</text><text fill="#000000" font-family="Arial" font-size="11" lengthAdjust="spacing" textLength="145.5405" x="654" y="812.9656">of the current audio focus and</text><text fill="#000000" font-family="Arial" font-size="11" lengthAdjust="spacing" textLength="158.3452" x="654" y="825.6145">ducking state for runtime review.</text><rect fill="#FFFFFF" height="3" style="stroke:#FFFFFF;stroke-width:1;" width="1170.4702" x="5" y="857.0901"/><line style="stroke:#000000;stroke-width:0.5;" x1="5" x2="1175.4702" y1="857.0901" y2="857.0901"/><line style="stroke:#000000;stroke-width:0.5;" x1="5" x2="1175.4702" y1="860.0901" y2="860.0901"/><rect fill="#FFFFFF" height="20.6489" style="stroke:#000000;stroke-width:1;" width="147.8477" x="516.3113" y="847.7656"/><text fill="#000000" font-family="Arial" font-size="11" font-weight="bold" lengthAdjust="spacing" textLength="130.7915" x="522.3113" y="862.2634">AMP Ducking Ownership</text><line style="stroke:#000000;stroke-width:1;" x1="858.8052" x2="900.8052" y1="897.0635" y2="897.0635"/><line style="stroke:#000000;stroke-width:1;" x1="900.8052" x2="900.8052" y1="897.0635" y2="910.0635"/><line style="stroke:#000000;stroke-width:1;" x1="859.8052" x2="900.8052" y1="910.0635" y2="910.0635"/><polygon fill="#000000" points="869.8052,906.0635,859.8052,910.0635,869.8052,914.0635,865.8052,910.0635" style="stroke:#000000;stroke-width:1;"/><text fill="#000000" font-family="Arial" font-size="11" lengthAdjust="spacing" textLength="187.0752" x="865.8052" y="892.9124">consume media/focus/voice/tts frames</text><line style="stroke:#000000;stroke-width:1;" x1="858.8052" x2="900.8052" y1="936.7124" y2="936.7124"/><line style="stroke:#000000;stroke-width:1;" x1="900.8052" x2="900.8052" y1="936.7124" y2="949.7124"/><line style="stroke:#000000;stroke-width:1;" x1="859.8052" x2="900.8052" y1="949.7124" y2="949.7124"/><polygon fill="#000000" points="869.8052,945.7124,859.8052,949.7124,869.8052,953.7124,865.8052,949.7124" style="stroke:#000000;stroke-width:1;"/><text fill="#000000" font-family="Arial" font-size="11" lengthAdjust="spacing" textLength="136.979" x="865.8052" y="932.5613">expire stale inputs if needed</text><line style="stroke:#000000;stroke-width:1;" x1="858.8052" x2="900.8052" y1="976.3613" y2="976.3613"/><line style="stroke:#000000;stroke-width:1;" x1="900.8052" x2="900.8052" y1="976.3613" y2="989.3613"/><line style="stroke:#000000;stroke-width:1;" x1="859.8052" x2="900.8052" y1="989.3613" y2="989.3613"/><polygon fill="#000000" points="869.8052,985.3613,859.8052,989.3613,869.8052,993.3613,865.8052,989.3613" style="stroke:#000000;stroke-width:1;"/><text fill="#000000" font-family="Arial" font-size="11" lengthAdjust="spacing" textLength="287.665" x="865.8052" y="972.2102">baseVolume = deriveBaseVolume(Inject::alertVolumeCmd)</text><line style="stroke:#000000;stroke-width:1;" x1="858.8052" x2="900.8052" y1="1028.6592" y2="1028.6592"/><line style="stroke:#000000;stroke-width:1;" x1="900.8052" x2="900.8052" y1="1028.6592" y2="1041.6592"/><line style="stroke:#000000;stroke-width:1;" x1="859.8052" x2="900.8052" y1="1041.6592" y2="1041.6592"/><polygon fill="#000000" points="869.8052,1037.6592,859.8052,1041.6592,869.8052,1045.6592,865.8052,1041.6592" style="stroke:#000000;stroke-width:1;"/><text fill="#000000" font-family="Arial" font-size="11" lengthAdjust="spacing" textLength="181.8921" x="865.8052" y="1011.8591">ampDucking = max(audioDuckingLvl,</text><text fill="#000000" font-family="Arial" font-size="11" lengthAdjust="spacing" textLength="73.9653" x="919.7686" y="1024.5081">voice/tts floors)</text><line style="stroke:#000000;stroke-width:1;" x1="858.8052" x2="900.8052" y1="1073.3081" y2="1073.3081"/><line style="stroke:#000000;stroke-width:1;" x1="900.8052" x2="900.8052" y1="1073.3081" y2="1086.3081"/><line style="stroke:#000000;stroke-width:1;" x1="853.8052" x2="900.8052" y1="1086.3081" y2="1086.3081"/><polygon fill="#000000" points="863.8052,1082.3081,853.8052,1086.3081,863.8052,1090.3081,859.8052,1086.3081" style="stroke:#000000;stroke-width:1;"/><text fill="#000000" font-family="Arial" font-size="11" lengthAdjust="spacing" textLength="269.0166" x="865.8052" y="1069.157">publish AmpMode / AmpDuckingLvl / AmpVolumeLevel</text><path d="M858,1094.3081 L858,1154.3081 L1027,1154.3081 L1027,1104.3081 L1017,1094.3081 L858,1094.3081 " fill="#FFFFFF" style="stroke:#000000;stroke-width:1;"/><path d="M1017,1094.3081 L1017,1104.3081 L1027,1104.3081 L1017,1094.3081 " fill="#FFFFFF" style="stroke:#000000;stroke-width:1;"/><text fill="#000000" font-family="Arial" font-size="11" lengthAdjust="spacing" textLength="113.126" x="864" y="1109.8059">Representative outputs</text><text fill="#000000" font-family="Arial" font-size="11" lengthAdjust="spacing" textLength="123.5083" x="864" y="1122.4548">- CoreState::baseVolume</text><text fill="#000000" font-family="Arial" font-size="11" lengthAdjust="spacing" textLength="148.5698" x="864" y="1135.1038">- UiRender::renderVolumLevel</text><text fill="#000000" font-family="Arial" font-size="11" lengthAdjust="spacing" textLength="111.853" x="864" y="1147.7527">- frmAmplifierStateMsg</text><path d="M21,1164.9038 L21,1237.9038 L927,1237.9038 L927,1174.9038 L917,1164.9038 L21,1164.9038 " fill="#FFFFFF" style="stroke:#000000;stroke-width:1;"/><path d="M917,1164.9038 L917,1174.9038 L927,1174.9038 L917,1164.9038 " fill="#FFFFFF" style="stroke:#000000;stroke-width:1;"/><text fill="#000000" font-family="Arial" font-size="11" lengthAdjust="spacing" textLength="143.0752" x="331.1423" y="1180.4016">Representative runtime chain</text><text fill="#000000" font-family="Arial" font-size="11" lengthAdjust="spacing" textLength="190.1475" x="331.1423" y="1193.0505">1. Core effective alert state reaches IVI</text><text fill="#000000" font-family="Arial" font-size="11" lengthAdjust="spacing" textLength="236.022" x="331.1423" y="1205.6995">2. IVI derives beep flags and audio-focus frames</text><text fill="#000000" font-family="Arial" font-size="11" lengthAdjust="spacing" textLength="220.0537" x="331.1423" y="1218.3484">3. CLU mirrors focus state for cluster visibility</text><text fill="#000000" font-family="Arial" font-size="11" lengthAdjust="spacing" textLength="276.9712" x="331.1423" y="1230.9973">4. AMP turns focus/ducking into actual amplifier behavior</text><!--SRC=[ZLLDSzis4BtZLsoIYzH6ejLuqencb8pCIZEQMgqdZjEBBX2vb12J00k0afLVtmL0IYIjGtsmpSN3VhnzktXZzrWWb3aNafbd8KkkUG5RdZpljAfa6gjSQNYtz3yjH8ePhtAxLDB-nSd3N0kUNpz_53yH9fFMeS5_AvG9hj4OliDvBdOI4fGMTGkbqPHAcWPrXxawphLMHx2wGiQii3d2FrnB8NTmXrZ2DmNpAXKAbYgf33oINvx3aYvkv21M6Y62rVSLZ3v3VFz47_Frmv0nYcT58aekBRojOUxFe-KMD-G2jQMA4c64aX5c6IPM712CEtyBt7YqP-asZhlkADn6bbGBbSSjtOTVWViSrL6YzhTTIkyMdvOtoqKlb_kdZKpooX0pK0WgNaD2d5H5VTDLuMx-llZKlKc5KU8-JbebpuwXIpmwTCakFYu-CZQRdJcCuA6Tw4gMbJKmcp7cwoFMNAPJwbzE360wTyGi6ZhkyO0v-VXsAeaqafNUKPDFCKa0NomTM56WgcoS8zUiRaDmcA8c1-tWQvNYO7WDvOD-Lpbnq0SagYYvTKfODD5TmsFwzLWYfbtqCLJjuBxHC0CkJuCjVVyoXCzmmwGYgnQxlGMLkLliJpoHBYLb4WLo3VB2i14yYQ_UF9rks-5VdQpYLwQGMjlQpuoH7LmolbjjXJzKsrmaeLskJvq2FT3Z_dQjf_e6NigXKLGWrPj2sMCTtinWCeGlC24NDrSy_X7qT7_8Ntjqzsu9E66jCPj2fejBCckpsqYoh34LtDT7bWRlfFc_y8u9vtmTfi8LpvqCNIF9pjpPENuzCw_yTb7rW9qdVphbNGOtidzsuQ8dbYQ5P-gX0Gxr48yEj4EsjBP2B4P8si2GL9fKPUl5aFdMKczOCxf-qP1TWwwa6oCIuK7WSNnHHegTyhrGYCiwGV3vcxqekqmHX3dOcVc6gSAH7VbCeeCI2KQMLa56UnbDzmQ-b4BxNKXbYR0oH0QIH4soxa2tt62ON59EcEQxiscmaZzeaH2nbm6FYtJOTS6BiYbf1WL_6VJQy7uZM-dcIcdJyr2waJ5xc1Ubbtla_cjfsd-7y5xMlSOwnhxYPMZe6Q2Tvggc4Mx9ur9hPxJ3yl07mVl8Yx8eSv49r6TvN-kh2nsoKGSCEdr_BPz68ydUlUgJSNYTBizMUC-2fZIvtwD_WjXlOp_ceJ46t6uY2ldEQp5eSnIqMUlWmzXFJj2ogNLxqMhpS7dDYrpO4xiT-oxOIiiQ7pKQ5z8ge5ehUh5vmmSbiUS7GPDo9kG_]--></g></svg>