<svg xmlns="http://www.w3.org/2000/svg" width="1600" height="1102" viewBox="0 0 1600 1102">
  <defs>
    <linearGradient id="heroGradient" x1="0%" y1="0%" x2="100%" y2="100%">
      <stop offset="0%" stop-color="#dbeafe"/>
      <stop offset="100%" stop-color="#ffffff"/>
    </linearGradient>
    <marker id="arrow" viewBox="0 0 10 10" refX="9" refY="5" markerWidth="8" markerHeight="8" orient="auto-start-reverse">
      <path d="M 0 0 L 10 5 L 0 10 z" fill="#475569"/>
    </marker>
  </defs>
  <style>
    .bg { fill: #f7f7f5; }
    .title { font: 700 32px 'Segoe UI', sans-serif; fill: #0f172a; }
    .sub { font: 500 16px 'Segoe UI', sans-serif; fill: #475569; }
    .label { font: 700 19px 'Segoe UI', sans-serif; fill: #0f172a; }
    .text { font: 600 16px 'Segoe UI', sans-serif; fill: #1f2937; }
    .small { font: 500 14px 'Segoe UI', sans-serif; fill: #475569; }
    .heroRole { font: 700 23px 'Segoe UI', sans-serif; fill: #111827; }
    .statement { font: 700 26px 'Segoe UI', sans-serif; fill: #111827; }
    .node { font: 700 19px 'Segoe UI', sans-serif; fill: #111827; }
    .box { rx: 22; ry: 22; stroke: #334155; stroke-width: 1.6; }
    .lane { stroke: #64748b; stroke-width: 3; fill: none; marker-end: url(#arrow); }
  </style>
  <rect x="0" y="0" width="1600" height="1102" class="bg"/>
  <text x="34" y="44" class="title">ECU Reference - ESC</text>
  <text x="34" y="72" class="sub">p3 | inbound runtime inventory</text>
  <rect x="30" y="100" width="1540" height="232" class="box" fill="url(#heroGradient)"/> <text x="52" y="134" class="small">Inbound inventory | p3</text> <text x="52" y="172" class="title">ESC</text> <text x="52" y="202" class="text">Group 01 Base Vehicle Dynamics | Chassis</text> <text x="52" y="228" class="small">Role focus</text> <text x="52" y="248" class="heroRole">Stability and brake intervention</text> <rect x="1034" y="134" width="250" height="82" rx="18" ry="18" fill="#ffffff" stroke="#cbd5e1" stroke-width="1.2"/>
<text x="1052" y="162" class="small">Rx msgs</text>
<text x="1052" y="192" class="node">23</text> <rect x="1298" y="134" width="250" height="82" rx="18" ry="18" fill="#ffffff" stroke="#cbd5e1" stroke-width="1.2"/>
<text x="1316" y="162" class="small">Tx msgs</text>
<text x="1316" y="192" class="node">10</text> <rect x="1034" y="228" width="250" height="82" rx="18" ry="18" fill="#ffffff" stroke="#cbd5e1" stroke-width="1.2"/>
<text x="1052" y="256" class="small">Linked ECU</text>
<text x="1052" y="286" class="node">12</text> <rect x="1298" y="228" width="250" height="82" rx="18" ry="18" fill="#ffffff" stroke="#cbd5e1" stroke-width="1.2"/>
<text x="1316" y="256" class="small">Owner seams</text>
<text x="1316" y="286" class="node">3</text>
  <rect x="30" y="350" width="1540" height="142" class="box" fill="#fff7ed"/>
<text x="52" y="384" class="small">What this ECU does</text>
<text x="52" y="426" class="statement">Consumes vehicle and AEB state, then publishes brake and stability state</text>
<text x="52" y="452" class="statement">to downstream readers</text>
  <rect x="30" y="510" width="1540" height="542" class="box" fill="#e0f2fe"/>
<text x="52" y="546" class="label">Inbound / Rx messages</text>
<text x="52" y="572" class="small">23 rx messages</text>
<text x="52" y="598" class="text">Decel Assist Request</text>
<text x="52" y="620" class="small">ethDecelAssistReqMsg</text>
<line x1="52" y1="642" x2="538" y2="642" stroke="#e2e8f0" stroke-width="1.0"/>
<text x="52" y="652" class="text">ABS State</text>
<text x="52" y="674" class="small">frmAbsStateMsg</text>
<line x1="52" y1="696" x2="538" y2="696" stroke="#e2e8f0" stroke-width="1.0"/>
<text x="52" y="706" class="text">Accel Status</text>
<text x="52" y="728" class="small">frmAccelStatusMsg</text>
<line x1="52" y1="750" x2="538" y2="750" stroke="#e2e8f0" stroke-width="1.0"/>
<text x="52" y="760" class="text">ADAS Chassis Status</text>
<text x="52" y="782" class="small">frmAdasChassisStatusMsg</text>
<line x1="52" y1="804" x2="538" y2="804" stroke="#e2e8f0" stroke-width="1.0"/>
<text x="52" y="814" class="text">AEB Domain State</text>
<text x="52" y="836" class="small">frmAebDomainStateMsg</text>
<line x1="52" y1="858" x2="538" y2="858" stroke="#e2e8f0" stroke-width="1.0"/>
<text x="52" y="868" class="text">Air Suspension State</text>
<text x="52" y="890" class="small">frmAirSuspensionStateMsg</text>
<line x1="52" y1="912" x2="538" y2="912" stroke="#e2e8f0" stroke-width="1.0"/>
<text x="52" y="922" class="text">Brake Status</text>
<text x="52" y="944" class="small">frmBrakeStatusMsg</text>
<line x1="52" y1="966" x2="538" y2="966" stroke="#e2e8f0" stroke-width="1.0"/>
<text x="52" y="976" class="text">Brake Temp</text>
<text x="52" y="998" class="small">frmBrakeTempMsg</text>
<text x="556" y="598" class="text">Brake Wear</text>
<text x="556" y="620" class="small">frmBrakeWearMsg</text>
<line x1="556" y1="642" x2="1042" y2="642" stroke="#e2e8f0" stroke-width="1.0"/>
<text x="556" y="652" class="text">Chassis Diagnostic Request</text>
<text x="556" y="674" class="small">frmChassisDiagReqMsg</text>
<line x1="556" y1="696" x2="1042" y2="696" stroke="#e2e8f0" stroke-width="1.0"/>
<text x="556" y="706" class="text">Eps State</text>
<text x="556" y="728" class="small">frmEpsStateMsg</text>
<line x1="556" y1="750" x2="1042" y2="750" stroke="#e2e8f0" stroke-width="1.0"/>
<text x="556" y="760" class="text">ESC State</text>
<text x="556" y="782" class="small">frmEscStateMsg</text>
<line x1="556" y1="804" x2="1042" y2="804" stroke="#e2e8f0" stroke-width="1.0"/>
<text x="556" y="814" class="text">FCA State</text>
<text x="556" y="836" class="small">frmFcaStateMsg</text>
<line x1="556" y1="858" x2="1042" y2="858" stroke="#e2e8f0" stroke-width="1.0"/>
<text x="556" y="868" class="text">Pedal Input Can</text>
<text x="556" y="890" class="small">frmPedalInputCanMsg</text>
<line x1="556" y1="912" x2="1042" y2="912" stroke="#e2e8f0" stroke-width="1.0"/>
<text x="556" y="922" class="text">RSPA State</text>
<text x="556" y="944" class="small">frmRspaStateMsg</text>
<line x1="556" y1="966" x2="1042" y2="966" stroke="#e2e8f0" stroke-width="1.0"/>
<text x="556" y="976" class="text">RWS State</text>
<text x="556" y="998" class="small">frmRwsStateMsg</text>
<text x="1060" y="598" class="text">Steering Angle</text>
<text x="1060" y="620" class="small">frmSteeringAngleMsg</text>
<line x1="1060" y1="642" x2="1546" y2="642" stroke="#e2e8f0" stroke-width="1.0"/>
<text x="1060" y="652" class="text">Steering Can</text>
<text x="1060" y="674" class="small">frmSteeringCanMsg</text>
<line x1="1060" y1="696" x2="1546" y2="696" stroke="#e2e8f0" stroke-width="1.0"/>
<text x="1060" y="706" class="text">Steering Torque</text>
<text x="1060" y="728" class="small">frmSteeringTorqueMsg</text>
<line x1="1060" y1="750" x2="1546" y2="750" stroke="#e2e8f0" stroke-width="1.0"/>
<text x="1060" y="760" class="text">Tcs State</text>
<text x="1060" y="782" class="small">frmTcsStateMsg</text>
<line x1="1060" y1="804" x2="1546" y2="804" stroke="#e2e8f0" stroke-width="1.0"/>
<text x="1060" y="814" class="text">State Can</text>
<text x="1060" y="836" class="small">frmVehicleStateCanMsg</text>
<line x1="1060" y1="858" x2="1546" y2="858" stroke="#e2e8f0" stroke-width="1.0"/>
<text x="1060" y="868" class="text">Wheel Speed</text>
<text x="1060" y="890" class="small">frmWheelSpeedMsg</text>
<line x1="1060" y1="912" x2="1546" y2="912" stroke="#e2e8f0" stroke-width="1.0"/>
<text x="1060" y="922" class="text">Yaw Accel</text>
<text x="1060" y="944" class="small">frmYawAccelMsg</text>
</svg>
