<svg xmlns="http://www.w3.org/2000/svg" width="1600" height="1828" viewBox="0 0 1600 1828">
  <defs>
    <linearGradient id="heroGradient" x1="0%" y1="0%" x2="100%" y2="100%">
      <stop offset="0%" stop-color="#dbeafe"/>
      <stop offset="100%" stop-color="#ffffff"/>
    </linearGradient>
    <marker id="arrow" viewBox="0 0 10 10" refX="9" refY="5" markerWidth="8" markerHeight="8" orient="auto-start-reverse">
      <path d="M 0 0 L 10 5 L 0 10 z" fill="#475569"/>
    </marker>
  </defs>
  <style>
    .bg { fill: #f7f7f5; }
    .title { font: 700 32px 'Segoe UI', sans-serif; fill: #0f172a; }
    .sub { font: 500 16px 'Segoe UI', sans-serif; fill: #475569; }
    .label { font: 700 19px 'Segoe UI', sans-serif; fill: #0f172a; }
    .text { font: 600 16px 'Segoe UI', sans-serif; fill: #1f2937; }
    .small { font: 500 14px 'Segoe UI', sans-serif; fill: #475569; }
    .heroRole { font: 700 23px 'Segoe UI', sans-serif; fill: #111827; }
    .statement { font: 700 26px 'Segoe UI', sans-serif; fill: #111827; }
    .node { font: 700 19px 'Segoe UI', sans-serif; fill: #111827; }
    .box { rx: 22; ry: 22; stroke: #334155; stroke-width: 1.6; }
    .lane { stroke: #64748b; stroke-width: 3; fill: none; marker-end: url(#arrow); }
  </style>
  <rect x="0" y="0" width="1600" height="1828" class="bg"/>
  <text x="34" y="44" class="title">ECU Reference - TCU</text>
  <text x="34" y="72" class="sub">p2 | runtime inventory, anchors, and linked ECU bank</text>
  <rect x="30" y="100" width="1540" height="232" class="box" fill="url(#heroGradient)"/> <text x="52" y="134" class="small">Reference | p2</text> <text x="52" y="172" class="title">TCU</text> <text x="52" y="202" class="text">Group 01 Base Vehicle Dynamics | Powertrain</text> <text x="52" y="228" class="small">Role focus</text> <text x="52" y="248" class="heroRole">transmission state</text> <rect x="1034" y="134" width="250" height="82" rx="18" ry="18" fill="#ffffff" stroke="#cbd5e1" stroke-width="1.2"/>
<text x="1052" y="162" class="small">Rx msgs</text>
<text x="1052" y="192" class="node">10</text> <rect x="1298" y="134" width="250" height="82" rx="18" ry="18" fill="#ffffff" stroke="#cbd5e1" stroke-width="1.2"/>
<text x="1316" y="162" class="small">Tx msgs</text>
<text x="1316" y="192" class="node">2</text> <rect x="1034" y="228" width="250" height="82" rx="18" ry="18" fill="#ffffff" stroke="#cbd5e1" stroke-width="1.2"/>
<text x="1052" y="256" class="small">Linked ECU</text>
<text x="1052" y="286" class="node">5</text> <rect x="1298" y="228" width="250" height="82" rx="18" ry="18" fill="#ffffff" stroke="#cbd5e1" stroke-width="1.2"/>
<text x="1316" y="256" class="small">Owner seams</text>
<text x="1316" y="286" class="node">0</text>
  <rect x="30" y="350" width="1540" height="142" class="box" fill="#fff7ed"/>
<text x="52" y="384" class="small">What this ECU does</text>
<text x="52" y="426" class="statement">Publishes transmission state for longitudinal control and driver-facing</text>
<text x="52" y="452" class="statement">vehicle status</text>
  <rect x="30" y="510" width="760" height="634" class="box" fill="#e0f2fe"/>
<text x="52" y="546" class="label">Inbound / Rx messages</text>
<text x="52" y="582" class="text">Cruise State</text>
<text x="52" y="604" class="small">frmCruiseStateMsg</text>
<line x1="52" y1="626" x2="768" y2="626" stroke="#e2e8f0" stroke-width="1.0"/>
<text x="52" y="636" class="text">Energy Flow State</text>
<text x="52" y="658" class="small">frmEnergyFlowStateMsg</text>
<line x1="52" y1="680" x2="768" y2="680" stroke="#e2e8f0" stroke-width="1.0"/>
<text x="52" y="690" class="text">Engine Speed Temp</text>
<text x="52" y="712" class="small">frmEngineSpeedTempMsg</text>
<line x1="52" y1="734" x2="768" y2="734" stroke="#e2e8f0" stroke-width="1.0"/>
<text x="52" y="744" class="text">Gear State</text>
<text x="52" y="766" class="small">frmGearStateMsg</text>
<line x1="52" y1="788" x2="768" y2="788" stroke="#e2e8f0" stroke-width="1.0"/>
<text x="52" y="798" class="text">LVR State</text>
<text x="52" y="820" class="small">frmLvrStateMsg</text>
<line x1="52" y1="842" x2="768" y2="842" stroke="#e2e8f0" stroke-width="1.0"/>
<text x="52" y="852" class="text">Power Limit</text>
<text x="52" y="874" class="small">frmPowerLimitMsg</text>
<line x1="52" y1="896" x2="768" y2="896" stroke="#e2e8f0" stroke-width="1.0"/>
<text x="52" y="906" class="text">Powertrain Ctrl Auth</text>
<text x="52" y="928" class="small">frmPowertrainCtrlAuthMsg</text>
<line x1="52" y1="950" x2="768" y2="950" stroke="#e2e8f0" stroke-width="1.0"/>
<text x="52" y="960" class="text">Powertrain Gateway</text>
<text x="52" y="982" class="small">frmPowertrainGatewayMsg</text>
<line x1="52" y1="1004" x2="768" y2="1004" stroke="#e2e8f0" stroke-width="1.0"/>
<text x="52" y="1014" class="text">Throttle State</text>
<text x="52" y="1036" class="small">frmThrottleStateMsg</text>
<line x1="52" y1="1058" x2="768" y2="1058" stroke="#e2e8f0" stroke-width="1.0"/>
<text x="52" y="1068" class="text">Mode</text>
<text x="52" y="1090" class="small">frmVehicleModeMsg</text>
<rect x="810" y="510" width="760" height="202" class="box" fill="#dbeafe"/>
<text x="832" y="546" class="label">Outbound / Tx messages</text>
<text x="832" y="582" class="text">Trans Shift State</text>
<text x="832" y="604" class="small">frmTransShiftStateMsg</text>
<line x1="832" y1="626" x2="1548" y2="626" stroke="#e2e8f0" stroke-width="1.0"/>
<text x="832" y="636" class="text">Transmission Temp</text>
<text x="832" y="658" class="small">frmTransmissionTempMsg</text>
<rect x="30" y="1162" width="630" height="306" class="box" fill="#ffffff"/>
<text x="52" y="1198" class="label">Runtime anchors</text>
<rect x="52" y="1216" width="284" height="110" rx="18" ry="18" fill="#f8fafc" stroke="#cbd5e1" stroke-width="1.2"/>
<text x="70" y="1244" class="small">Lead test asset</text>
<text x="70" y="1270" class="small">No direct test asset</text>
<rect x="354" y="1216" width="284" height="110" rx="18" ry="18" fill="#f8fafc" stroke="#cbd5e1" stroke-width="1.2"/>
<text x="372" y="1244" class="small">Owner seam</text>
<text x="372" y="1268" class="small">-</text>
<rect x="52" y="1344" width="586" height="102" rx="18" ry="18" fill="#ffffff" stroke="#cbd5e1" stroke-width="1.2"/>
<text x="70" y="1372" class="small">Linked sysvars</text>
<text x="70" y="1396" class="small">-</text>
<rect x="680" y="1162" width="890" height="616" class="box" fill="#eff6ff"/>
<text x="702" y="1198" class="label">Linked ECU bank</text>
<text x="702" y="1226" class="small">5 linked ECU</text>
<text x="702" y="1246" class="small">Upstream 5 | Downstream 2</text>
<rect x="702" y="1284" width="846" height="106" rx="18" ry="18" fill="#ffffff" stroke="#cbd5e1" stroke-width="1.2"/>
<text x="720" y="1312" class="small">Powertrain · 2 ECU</text>
<rect x="880" y="1328" width="240" height="34" rx="14" ry="14" fill="#ffffff" stroke="#bfdbfe" stroke-width="1.2"/>
<text x="1000.0" y="1350" text-anchor="middle" class="small">EMS</text>
<rect x="1130" y="1328" width="240" height="34" rx="14" ry="14" fill="#ffffff" stroke="#bfdbfe" stroke-width="1.2"/>
<text x="1250.0" y="1350" text-anchor="middle" class="small">LVR</text>
<rect x="702" y="1406" width="846" height="106" rx="18" ry="18" fill="#ffffff" stroke="#cbd5e1" stroke-width="1.2"/>
<text x="720" y="1434" class="small">Chassis · 1 ECU</text>
<rect x="995" y="1450" width="260" height="34" rx="14" ry="14" fill="#ffffff" stroke="#bfdbfe" stroke-width="1.2"/>
<text x="1125.0" y="1472" text-anchor="middle" class="small">VCU</text>
<rect x="702" y="1528" width="846" height="106" rx="18" ry="18" fill="#ffffff" stroke="#cbd5e1" stroke-width="1.2"/>
<text x="720" y="1556" class="small">ADAS · 1 ECU</text>
<rect x="995" y="1572" width="260" height="34" rx="14" ry="14" fill="#ffffff" stroke="#bfdbfe" stroke-width="1.2"/>
<text x="1125.0" y="1594" text-anchor="middle" class="small">SCC</text>
<rect x="702" y="1650" width="846" height="106" rx="18" ry="18" fill="#ffffff" stroke="#cbd5e1" stroke-width="1.2"/>
<text x="720" y="1678" class="small">ETH Backbone · 1 ECU</text>
<rect x="995" y="1694" width="260" height="34" rx="14" ry="14" fill="#ffffff" stroke="#bfdbfe" stroke-width="1.2"/>
<text x="1125.0" y="1716" text-anchor="middle" class="small">TEST_SCN</text>
</svg>
