<svg xmlns="http://www.w3.org/2000/svg" width="1600" height="1436" viewBox="0 0 1600 1436">
  <defs>
    <linearGradient id="heroGradient" x1="0%" y1="0%" x2="100%" y2="100%">
      <stop offset="0%" stop-color="#fce7f3"/>
      <stop offset="100%" stop-color="#ffffff"/>
    </linearGradient>
    <marker id="arrow" viewBox="0 0 10 10" refX="9" refY="5" markerWidth="8" markerHeight="8" orient="auto-start-reverse">
      <path d="M 0 0 L 10 5 L 0 10 z" fill="#475569"/>
    </marker>
  </defs>
  <style>
    .bg { fill: #f7f7f5; }
    .title { font: 700 32px 'Segoe UI', sans-serif; fill: #0f172a; }
    .sub { font: 500 16px 'Segoe UI', sans-serif; fill: #475569; }
    .label { font: 700 19px 'Segoe UI', sans-serif; fill: #0f172a; }
    .text { font: 600 16px 'Segoe UI', sans-serif; fill: #1f2937; }
    .small { font: 500 14px 'Segoe UI', sans-serif; fill: #475569; }
    .heroRole { font: 700 23px 'Segoe UI', sans-serif; fill: #111827; }
    .statement { font: 700 26px 'Segoe UI', sans-serif; fill: #111827; }
    .node { font: 700 19px 'Segoe UI', sans-serif; fill: #111827; }
    .box { rx: 22; ry: 22; stroke: #334155; stroke-width: 1.6; }
    .lane { stroke: #64748b; stroke-width: 3; fill: none; marker-end: url(#arrow); }
  </style>
  <rect x="0" y="0" width="1600" height="1436" class="bg"/>
  <text x="34" y="44" class="title">ECU Reference - CGW</text>
  <text x="34" y="72" class="sub">p2 | runtime inventory, anchors, and linked ECU bank</text>
  <rect x="30" y="100" width="1540" height="232" class="box" fill="url(#heroGradient)"/> <text x="52" y="134" class="small">Reference | p2</text> <text x="52" y="172" class="title">CGW</text> <text x="52" y="202" class="text">Group 06 Backbone Gateway Diagnostics | ETH_Backbone</text> <text x="52" y="228" class="small">Role focus</text> <text x="52" y="248" class="heroRole">Cross-domain gate control</text> <rect x="1034" y="134" width="250" height="82" rx="18" ry="18" fill="#ffffff" stroke="#cbd5e1" stroke-width="1.2"/>
<text x="1052" y="162" class="small">Rx msgs</text>
<text x="1052" y="192" class="node">5</text> <rect x="1298" y="134" width="250" height="82" rx="18" ry="18" fill="#ffffff" stroke="#cbd5e1" stroke-width="1.2"/>
<text x="1316" y="162" class="small">Tx msgs</text>
<text x="1316" y="192" class="node">0</text> <rect x="1034" y="228" width="250" height="82" rx="18" ry="18" fill="#ffffff" stroke="#cbd5e1" stroke-width="1.2"/>
<text x="1052" y="256" class="small">Linked ECU</text>
<text x="1052" y="286" class="node">5</text> <rect x="1298" y="228" width="250" height="82" rx="18" ry="18" fill="#ffffff" stroke="#cbd5e1" stroke-width="1.2"/>
<text x="1316" y="256" class="small">Owner seams</text>
<text x="1316" y="286" class="node">1</text>
  <rect x="30" y="350" width="1540" height="142" class="box" fill="#fff7ed"/>
<text x="52" y="384" class="small">What this ECU does</text>
<text x="52" y="426" class="statement">Bridges domain outputs toward IVI, CLU, BCM, and AMP while enforcing</text>
<text x="52" y="452" class="statement">gate logic</text>
  <rect x="30" y="510" width="760" height="364" class="box" fill="#e0f2fe"/>
<text x="52" y="546" class="label">Inbound / Rx messages</text>
<text x="52" y="582" class="text">ACU State</text>
<text x="52" y="604" class="small">frmAcuStateMsg</text>
<line x1="52" y1="626" x2="768" y2="626" stroke="#e2e8f0" stroke-width="1.0"/>
<text x="52" y="636" class="text">Body Health</text>
<text x="52" y="658" class="small">frmBodyHealthMsg</text>
<line x1="52" y1="680" x2="768" y2="680" stroke="#e2e8f0" stroke-width="1.0"/>
<text x="52" y="690" class="text">Chassis Health</text>
<text x="52" y="712" class="small">frmChassisHealthMsg</text>
<line x1="52" y1="734" x2="768" y2="734" stroke="#e2e8f0" stroke-width="1.0"/>
<text x="52" y="744" class="text">Infotainment Health</text>
<text x="52" y="766" class="small">frmInfotainmentHealthMsg</text>
<line x1="52" y1="788" x2="768" y2="788" stroke="#e2e8f0" stroke-width="1.0"/>
<text x="52" y="798" class="text">ODS State</text>
<text x="52" y="820" class="small">frmOdsStateMsg</text>
<rect x="810" y="510" width="760" height="132" class="box" fill="#dbeafe"/>
<text x="832" y="546" class="label">Outbound / Tx messages</text>
<text x="832" y="582" class="small">-</text>
<rect x="30" y="892" width="630" height="334" class="box" fill="#ffffff"/>
<text x="52" y="928" class="label">Runtime anchors</text>
<rect x="52" y="946" width="284" height="120" rx="18" ry="18" fill="#f8fafc" stroke="#cbd5e1" stroke-width="1.2"/>
<text x="70" y="974" class="small">Lead test asset</text>
<text x="70" y="1000" class="small">UT_CORE_001_CGW</text>
<text x="70" y="1018" class="small">covers backbone diagnostic routing</text>
<rect x="354" y="946" width="284" height="120" rx="18" ry="18" fill="#f8fafc" stroke="#cbd5e1" stroke-width="1.2"/>
<text x="372" y="974" class="small">Owner seam</text>
<text x="372" y="998" class="text">Alert Gate Reason</text>
<text x="372" y="1020" class="small">CoreState::selectedAlertGateReason</text>
<rect x="52" y="1084" width="586" height="120" rx="18" ry="18" fill="#ffffff" stroke="#cbd5e1" stroke-width="1.2"/>
<text x="70" y="1112" class="small">Linked sysvars</text>
<text x="70" y="1136" class="text">Alert Gate Reason</text>
<text x="70" y="1158" class="small">CoreState::selectedAlertGateReason</text>
<rect x="680" y="892" width="890" height="494" class="box" fill="#eff6ff"/>
<text x="702" y="928" class="label">Linked ECU bank</text>
<text x="702" y="956" class="small">5 linked ECU</text>
<text x="702" y="976" class="small">Upstream 5 | Downstream 0</text>
<rect x="702" y="1014" width="846" height="106" rx="18" ry="18" fill="#ffffff" stroke="#cbd5e1" stroke-width="1.2"/>
<text x="720" y="1042" class="small">Chassis · 3 ECU</text>
<rect x="720" y="1058" width="263" height="34" rx="14" ry="14" fill="#ffffff" stroke="#bfdbfe" stroke-width="1.2"/>
<text x="851.5" y="1080" text-anchor="middle" class="small">ACU</text>
<rect x="993" y="1058" width="263" height="34" rx="14" ry="14" fill="#ffffff" stroke="#bfdbfe" stroke-width="1.2"/>
<text x="1124.5" y="1080" text-anchor="middle" class="small">ESC</text>
<rect x="1266" y="1058" width="263" height="34" rx="14" ry="14" fill="#ffffff" stroke="#bfdbfe" stroke-width="1.2"/>
<text x="1397.5" y="1080" text-anchor="middle" class="small">ODS</text>
<rect x="702" y="1136" width="846" height="106" rx="18" ry="18" fill="#ffffff" stroke="#cbd5e1" stroke-width="1.2"/>
<text x="720" y="1164" class="small">Body · 1 ECU</text>
<rect x="995" y="1180" width="260" height="34" rx="14" ry="14" fill="#ffffff" stroke="#bfdbfe" stroke-width="1.2"/>
<text x="1125.0" y="1202" text-anchor="middle" class="small">BCM</text>
<rect x="702" y="1258" width="846" height="106" rx="18" ry="18" fill="#ffffff" stroke="#cbd5e1" stroke-width="1.2"/>
<text x="720" y="1286" class="small">Infotainment · 1 ECU</text>
<rect x="995" y="1302" width="260" height="34" rx="14" ry="14" fill="#ffffff" stroke="#bfdbfe" stroke-width="1.2"/>
<text x="1125.0" y="1324" text-anchor="middle" class="small">IVI</text>
</svg>
