<svg xmlns="http://www.w3.org/2000/svg" width="1600" height="1180" viewBox="0 0 1600 1180">
  <defs>
    <linearGradient id="heroGradient" x1="0%" y1="0%" x2="100%" y2="100%">
      <stop offset="0%" stop-color="#dbeafe"/>
      <stop offset="100%" stop-color="#ffffff"/>
    </linearGradient>
    <marker id="arrow" viewBox="0 0 10 10" refX="9" refY="5" markerWidth="8" markerHeight="8" orient="auto-start-reverse">
      <path d="M 0 0 L 10 5 L 0 10 z" fill="#475569"/>
    </marker>
  </defs>
  <style>
    .bg { fill: #f7f7f5; }
    .title { font: 700 32px 'Segoe UI', sans-serif; fill: #0f172a; }
    .sub { font: 500 15px 'Segoe UI', sans-serif; fill: #475569; }
    .label { font: 700 18px 'Segoe UI', sans-serif; fill: #0f172a; }
    .text { font: 600 15px 'Segoe UI', sans-serif; fill: #1f2937; }
    .small { font: 500 13px 'Segoe UI', sans-serif; fill: #475569; }
    .statement { font: 700 26px 'Segoe UI', sans-serif; fill: #111827; }
    .node { font: 700 18px 'Segoe UI', sans-serif; fill: #111827; }
    .box { rx: 22; ry: 22; stroke: #334155; stroke-width: 1.6; }
    .lane { stroke: #64748b; stroke-width: 3; fill: none; marker-end: url(#arrow); }
  </style>
  <rect x="0" y="0" width="1600" height="1180" class="bg"/>
  <text x="34" y="44" class="title">ECU Reference Card - EMS</text>
  <text x="34" y="72" class="sub">page 2 | grouped reference bank with balanced network layout</text>
  <rect x="30" y="100" width="1540" height="142" class="box" fill="url(#heroGradient)"/> <text x="52" y="134" class="small">Reference bank | page 2</text> <text x="52" y="172" class="title">EMS</text> <text x="52" y="202" class="text">Group 01 Base Vehicle Dynamics | Powertrain</text> <text x="52" y="226" class="text">Primary flow: FLOW_03</text>
  <rect x="30" y="266" width="1540" height="268" class="box" fill="#eff6ff"/>
<text x="52" y="302" class="label">Linked ECU bank</text>
<text x="52" y="330" class="small">Linked ECU visible: 10</text>
<text x="52" y="350" class="small">Upstream 10 | Downstream 2 | Peer 0</text>
<rect x="52" y="388" width="366" height="34" rx="14" ry="14" fill="#ffffff" stroke="#bfdbfe" stroke-width="1.2"/>
<text x="235.0" y="410" text-anchor="middle" class="small">EOP</text>
<rect x="428" y="388" width="366" height="34" rx="14" ry="14" fill="#ffffff" stroke="#bfdbfe" stroke-width="1.2"/>
<text x="611.0" y="410" text-anchor="middle" class="small">EWP</text>
<rect x="804" y="388" width="366" height="34" rx="14" ry="14" fill="#ffffff" stroke="#bfdbfe" stroke-width="1.2"/>
<text x="987.0" y="410" text-anchor="middle" class="small">FPCM</text>
<rect x="1180" y="388" width="366" height="34" rx="14" ry="14" fill="#ffffff" stroke="#bfdbfe" stroke-width="1.2"/>
<text x="1363.0" y="410" text-anchor="middle" class="small">INVERTER</text>
<rect x="52" y="432" width="366" height="34" rx="14" ry="14" fill="#ffffff" stroke="#bfdbfe" stroke-width="1.2"/>
<text x="235.0" y="454" text-anchor="middle" class="small">ISG</text>
<rect x="428" y="432" width="366" height="34" rx="14" ry="14" fill="#ffffff" stroke="#bfdbfe" stroke-width="1.2"/>
<text x="611.0" y="454" text-anchor="middle" class="small">MCU</text>
<rect x="804" y="432" width="366" height="34" rx="14" ry="14" fill="#ffffff" stroke="#bfdbfe" stroke-width="1.2"/>
<text x="987.0" y="454" text-anchor="middle" class="small">SCC</text>
<rect x="1180" y="432" width="366" height="34" rx="14" ry="14" fill="#ffffff" stroke="#bfdbfe" stroke-width="1.2"/>
<text x="1363.0" y="454" text-anchor="middle" class="small">TCU</text>
<rect x="52" y="476" width="366" height="34" rx="14" ry="14" fill="#ffffff" stroke="#bfdbfe" stroke-width="1.2"/>
<text x="235.0" y="498" text-anchor="middle" class="small">TEST_SCN</text>
<rect x="428" y="476" width="366" height="34" rx="14" ry="14" fill="#ffffff" stroke="#bfdbfe" stroke-width="1.2"/>
<text x="611.0" y="498" text-anchor="middle" class="small">VCU</text>
  <rect x="550" y="552" width="500" height="578" class="box" fill="#ffffff"/>
<text x="572" y="588" class="label">Reference snapshot</text>
<rect x="572" y="614" width="222" height="82" rx="18" ry="18" fill="#f8fafc" stroke="#cbd5e1" stroke-width="1.2"/>
<text x="590" y="642" class="small">Flows</text>
<text x="590" y="672" class="node">2</text>
<rect x="806" y="614" width="222" height="82" rx="18" ry="18" fill="#f8fafc" stroke="#cbd5e1" stroke-width="1.2"/>
<text x="824" y="642" class="small">Owner seams</text>
<text x="824" y="672" class="node">0</text>
<rect x="572" y="708" width="222" height="82" rx="18" ry="18" fill="#f8fafc" stroke="#cbd5e1" stroke-width="1.2"/>
<text x="590" y="736" class="small">Sysvars</text>
<text x="590" y="766" class="node">0</text>
<rect x="806" y="708" width="222" height="82" rx="18" ry="18" fill="#f8fafc" stroke="#cbd5e1" stroke-width="1.2"/>
<text x="824" y="736" class="small">Tests</text>
<text x="824" y="766" class="node">1</text>
<text x="572" y="812" class="small">Primary flow</text>
<rect x="572" y="826" width="456" height="34" rx="14" ry="14" fill="#ffffff" stroke="#cbd5e1" stroke-width="1.2"/>
<text x="586" y="848" class="small">FLOW_03</text>
<text x="572" y="874" class="small">Support pack</text>
<rect x="572" y="888" width="456" height="34" rx="14" ry="14" fill="#ffffff" stroke="#cbd5e1" stroke-width="1.2"/>
<text x="586" y="910" class="small">1 supporting flows</text>
<text x="572" y="936" class="small">Key seam</text>
<rect x="572" y="950" width="456" height="34" rx="14" ry="14" fill="#ffffff" stroke="#cbd5e1" stroke-width="1.2"/>
<text x="586" y="972" class="small">-</text>
<text x="572" y="998" class="small">Verification</text>
<rect x="572" y="1012" width="456" height="34" rx="14" ry="14" fill="#ffffff" stroke="#cbd5e1" stroke-width="1.2"/>
<text x="586" y="1034" class="small">TC_CANOE_UT_CORE_010_EMS_ALERT_TXRX</text>
<text x="572" y="1060" class="small">Source pack</text>
<rect x="572" y="1074" width="456" height="34" rx="14" ry="14" fill="#ffffff" stroke="#cbd5e1" stroke-width="1.2"/>
<text x="586" y="1096" class="small">2 CAPL / 6 docs</text>
  <rect x="30" y="552" width="500" height="144" class="box" fill="#fff7ed"/>
<text x="52" y="586" class="small">What this ECU does</text>
<text x="52" y="630" class="statement">Publishes engine and propulsion health state</text>
<text x="52" y="658" class="statement">for vehicle control and display readers</text>
  <rect x="1070" y="552" width="500" height="180" class="box" fill="#ffffff"/>
<text x="1092" y="586" class="small">Interaction sketch</text>
<rect x="1092" y="618" width="140" height="88" rx="18" ry="18" fill="#e0f2fe" stroke="#cbd5e1" stroke-width="1.2"/>
<text x="1110" y="644" class="small">Input</text>
<text x="1110" y="670" class="node">10 inbound</text>
<text x="1110" y="692" class="small">EOP, EWP</text>
<rect x="1250" y="618" width="140" height="88" rx="18" ry="18" fill="#dcfce7" stroke="#cbd5e1" stroke-width="1.2"/>
<text x="1268" y="644" class="small">ECU</text>
<text x="1268" y="670" class="node">EMS</text>
<text x="1268" y="692" class="small">Publishes engine and …</text>
<rect x="1408" y="618" width="140" height="88" rx="18" ry="18" fill="#dbeafe" stroke="#cbd5e1" stroke-width="1.2"/>
<text x="1426" y="644" class="small">Output</text>
<text x="1426" y="670" class="node">2 outbound</text>
<text x="1426" y="692" class="small">TCU, VCU</text>
<line x1="1232" y1="662" x2="1250" y2="662" stroke="#64748b" stroke-width="3" marker-end="url(#arrow)"/>
<line x1="1390" y1="662" x2="1408" y2="662" stroke="#64748b" stroke-width="3" marker-end="url(#arrow)"/>
</svg>
