<svg xmlns="http://www.w3.org/2000/svg" width="1600" height="1244" viewBox="0 0 1600 1244">
  <defs>
    <linearGradient id="heroGradient" x1="0%" y1="0%" x2="100%" y2="100%">
      <stop offset="0%" stop-color="#fce7f3"/>
      <stop offset="100%" stop-color="#ffffff"/>
    </linearGradient>
    <marker id="arrow" viewBox="0 0 10 10" refX="9" refY="5" markerWidth="8" markerHeight="8" orient="auto-start-reverse">
      <path d="M 0 0 L 10 5 L 0 10 z" fill="#475569"/>
    </marker>
  </defs>
  <style>
    .bg { fill: #f7f7f5; }
    .title { font: 700 32px 'Segoe UI', sans-serif; fill: #0f172a; }
    .sub { font: 500 16px 'Segoe UI', sans-serif; fill: #475569; }
    .label { font: 700 19px 'Segoe UI', sans-serif; fill: #0f172a; }
    .text { font: 600 16px 'Segoe UI', sans-serif; fill: #1f2937; }
    .small { font: 500 14px 'Segoe UI', sans-serif; fill: #475569; }
    .heroRole { font: 700 23px 'Segoe UI', sans-serif; fill: #111827; }
    .statement { font: 700 26px 'Segoe UI', sans-serif; fill: #111827; }
    .node { font: 700 19px 'Segoe UI', sans-serif; fill: #111827; }
    .box { rx: 22; ry: 22; stroke: #334155; stroke-width: 1.6; }
    .lane { stroke: #64748b; stroke-width: 3; fill: none; marker-end: url(#arrow); }
  </style>
  <rect x="0" y="0" width="1600" height="1244" class="bg"/>
  <text x="34" y="44" class="title">ECU Reference - V2X</text>
  <text x="34" y="72" class="sub">p2 | runtime inventory, anchors, and linked ECU bank</text>
  <rect x="30" y="100" width="1540" height="232" class="box" fill="url(#heroGradient)"/> <text x="52" y="134" class="small">Reference | p2</text> <text x="52" y="172" class="title">V2X</text> <text x="52" y="202" class="text">Group 06 Backbone Gateway Diagnostics | ETH_Backbone</text> <text x="52" y="228" class="small">Role focus</text> <text x="52" y="248" class="heroRole">Emergency ingress and ETA context</text> <rect x="1034" y="134" width="250" height="82" rx="18" ry="18" fill="#ffffff" stroke="#cbd5e1" stroke-width="1.2"/>
<text x="1052" y="162" class="small">Rx msgs</text>
<text x="1052" y="192" class="node">0</text> <rect x="1298" y="134" width="250" height="82" rx="18" ry="18" fill="#ffffff" stroke="#cbd5e1" stroke-width="1.2"/>
<text x="1316" y="162" class="small">Tx msgs</text>
<text x="1316" y="192" class="node">0</text> <rect x="1034" y="228" width="250" height="82" rx="18" ry="18" fill="#ffffff" stroke="#cbd5e1" stroke-width="1.2"/>
<text x="1052" y="256" class="small">Linked ECU</text>
<text x="1052" y="286" class="node">0</text> <rect x="1298" y="228" width="250" height="82" rx="18" ry="18" fill="#ffffff" stroke="#cbd5e1" stroke-width="1.2"/>
<text x="1316" y="256" class="small">Owner seams</text>
<text x="1316" y="286" class="node">3</text>
  <rect x="30" y="350" width="1540" height="142" class="box" fill="#fff7ed"/>
<text x="52" y="384" class="small">What this ECU does</text>
<text x="52" y="426" class="statement">Owns emergency ingress context before ADAS and CGW perform</text>
<text x="52" y="452" class="statement">prioritization</text>
  <rect x="30" y="510" width="760" height="132" class="box" fill="#e0f2fe"/>
<text x="52" y="546" class="label">Inbound / Rx messages</text>
<text x="52" y="582" class="small">-</text>
<rect x="810" y="510" width="760" height="132" class="box" fill="#dbeafe"/>
<text x="832" y="546" class="label">Outbound / Tx messages</text>
<text x="832" y="582" class="small">-</text>
<rect x="30" y="660" width="630" height="534" class="box" fill="#ffffff"/>
<text x="52" y="696" class="label">Runtime anchors</text>
<rect x="52" y="714" width="284" height="220" rx="18" ry="18" fill="#f8fafc" stroke="#cbd5e1" stroke-width="1.2"/>
<text x="70" y="742" class="small">Lead test asset</text>
<text x="70" y="768" class="small">UT_CORE_004_V2X</text>
<text x="70" y="786" class="small">covers backbone diagnostic routing</text>
<rect x="354" y="714" width="284" height="220" rx="18" ry="18" fill="#f8fafc" stroke="#cbd5e1" stroke-width="1.2"/>
<text x="372" y="742" class="small">Owner seam</text>
<text x="372" y="766" class="text">V2X Frame</text>
<text x="372" y="788" class="small">V2X::v2xFrame</text>
<line x1="372" y1="808" x2="620" y2="808" stroke="#e2e8f0" stroke-width="1.0"/>
<text x="372" y="816" class="text">Ambient Frame</text>
<text x="372" y="838" class="small">V2X::AmbFrame</text>
<line x1="372" y1="858" x2="620" y2="858" stroke="#e2e8f0" stroke-width="1.0"/>
<text x="372" y="866" class="text">My Car Frame</text>
<text x="372" y="888" class="small">V2X::MyCarFrame</text>
<rect x="52" y="952" width="586" height="220" rx="18" ry="18" fill="#ffffff" stroke="#cbd5e1" stroke-width="1.2"/>
<text x="70" y="980" class="small">Linked sysvars</text>
<text x="70" y="1004" class="text">V2X Frame</text>
<text x="70" y="1026" class="small">V2X::v2xFrame</text>
<line x1="70" y1="1046" x2="620" y2="1046" stroke="#e2e8f0" stroke-width="1.0"/>
<text x="70" y="1054" class="text">Ambient Frame</text>
<text x="70" y="1076" class="small">V2X::AmbFrame</text>
<line x1="70" y1="1096" x2="620" y2="1096" stroke="#e2e8f0" stroke-width="1.0"/>
<text x="70" y="1104" class="text">My Car Frame</text>
<text x="70" y="1126" class="small">V2X::MyCarFrame</text>
<rect x="680" y="660" width="890" height="250" class="box" fill="#eff6ff"/>
<text x="702" y="696" class="label">Linked ECU bank</text>
<text x="702" y="724" class="small">0 linked ECU</text>
<text x="702" y="744" class="small">Upstream 0 | Downstream 0</text>
<rect x="702" y="782" width="846" height="106" rx="18" ry="18" fill="#ffffff" stroke="#cbd5e1" stroke-width="1.2"/>
<text x="720" y="810" class="small">Unknown · 1 ECU</text>
<rect x="995" y="826" width="260" height="34" rx="14" ry="14" fill="#ffffff" stroke="#bfdbfe" stroke-width="1.2"/>
<text x="1125.0" y="848" text-anchor="middle" class="small">-</text>
</svg>
