<svg xmlns="http://www.w3.org/2000/svg" width="1600" height="1388" viewBox="0 0 1600 1388">
  <defs>
    <linearGradient id="heroGradient" x1="0%" y1="0%" x2="100%" y2="100%">
      <stop offset="0%" stop-color="#fee2e2"/>
      <stop offset="100%" stop-color="#ffffff"/>
    </linearGradient>
    <marker id="arrow" viewBox="0 0 10 10" refX="9" refY="5" markerWidth="8" markerHeight="8" orient="auto-start-reverse">
      <path d="M 0 0 L 10 5 L 0 10 z" fill="#475569"/>
    </marker>
  </defs>
  <style>
    .bg { fill: #f7f7f5; }
    .title { font: 700 32px 'Segoe UI', sans-serif; fill: #0f172a; }
    .sub { font: 500 15px 'Segoe UI', sans-serif; fill: #475569; }
    .label { font: 700 18px 'Segoe UI', sans-serif; fill: #0f172a; }
    .text { font: 600 15px 'Segoe UI', sans-serif; fill: #1f2937; }
    .small { font: 500 13px 'Segoe UI', sans-serif; fill: #475569; }
    .node { font: 700 18px 'Segoe UI', sans-serif; fill: #111827; }
    .box { rx: 22; ry: 22; stroke: #334155; stroke-width: 1.6; }
    .lane { stroke: #64748b; stroke-width: 3; fill: none; marker-end: url(#arrow); }
  </style>
  <rect x="0" y="0" width="1600" height="1388" class="bg"/>
  <text x="34" y="44" class="title">ECU Overview Card - TRM</text>
  <text x="34" y="72" class="sub">page 1 | hierarchy-first overview with action rail and network footprint</text>
  <rect x="30" y="100" width="1540" height="208" class="box" fill="url(#heroGradient)"/>
<text x="52" y="134" class="small">Story overview</text>
<text x="52" y="172" class="title">TRM</text>
<text x="52" y="204" class="text">Group 02 ADAS AEB Brake Assist | ADAS</text>
<text x="52" y="224" class="text"></text>
<text x="52" y="244" class="text">Publishes trailer-management state</text>
<text x="52" y="264" class="text"></text>
<text x="52" y="284" class="text">Primary action flow</text>
<text x="52" y="304" class="text">FLOW_06 Object Risk Fusion</text>
<rect x="940" y="134" width="309" height="82" rx="18" ry="18" fill="#ffffff" stroke="#cbd5e1" stroke-width="1.2"/>
<text x="958" y="162" class="small">Inbound actors</text>
<text x="958" y="192" class="node">0</text>
<rect x="1261" y="134" width="309" height="82" rx="18" ry="18" fill="#ffffff" stroke="#cbd5e1" stroke-width="1.2"/>
<text x="1279" y="162" class="small">Outbound actors</text>
<text x="1279" y="192" class="node">3</text>
<rect x="940" y="228" width="309" height="82" rx="18" ry="18" fill="#ffffff" stroke="#cbd5e1" stroke-width="1.2"/>
<text x="958" y="256" class="small">Linked ECU</text>
<text x="958" y="286" class="node">3</text>
<rect x="1261" y="228" width="309" height="82" rx="18" ry="18" fill="#ffffff" stroke="#cbd5e1" stroke-width="1.2"/>
<text x="1279" y="256" class="small">Native Tests</text>
<text x="1279" y="286" class="node">0</text>
  <rect x="30" y="332" width="1540" height="194" class="box" fill="#ffffff"/>
<text x="52" y="368" class="label">ECU metadata</text>
<rect x="52" y="386" width="363" height="118" rx="18" ry="18" fill="#ffffff" stroke="#cbd5e1" stroke-width="1.2"/>
<text x="70" y="414" class="small">Key seam</text>
<text x="70" y="440" class="small">-</text>
<rect x="429" y="386" width="363" height="118" rx="18" ry="18" fill="#ffffff" stroke="#cbd5e1" stroke-width="1.2"/>
<text x="447" y="414" class="small">Runtime contract</text>
<text x="447" y="440" class="small">Publish: frmTrailerCtrlStateMsg</text>
<text x="447" y="458" class="small">Consume: -</text>
<rect x="806" y="386" width="363" height="118" rx="18" ry="18" fill="#ffffff" stroke="#cbd5e1" stroke-width="1.2"/>
<text x="824" y="414" class="small">Verification</text>
<text x="824" y="440" class="small">No direct test asset</text>
<rect x="1183" y="386" width="363" height="118" rx="18" ry="18" fill="#fff7ed" stroke="#cbd5e1" stroke-width="1.2"/>
<text x="1201" y="414" class="small">Risk focus</text>
<text x="1201" y="440" class="small">Trailer state must remain</text>
<text x="1201" y="458" class="small">aligned with VCU and ADAS</text>
<text x="1201" y="476" class="small">behavior adaptations</text>
  <rect x="30" y="550" width="1540" height="276" class="box" fill="#ffffff"/>
<text x="52" y="586" class="label">Action rail</text>
<rect x="52" y="616" width="484" height="188" rx="20" ry="20" fill="#e0f2fe" stroke="#bfdbfe" stroke-width="1.6"/>
<text x="70" y="646" class="small">Inbound</text>
<text x="70" y="672" class="text">0 upstream actor / 0 reads</text>
<rect x="70" y="700" width="219" height="34" rx="14" ry="14" fill="#ffffff" stroke="#cbd5e1" stroke-width="1.2"/>
<text x="179.5" y="722" text-anchor="middle" class="small">-</text>
<rect x="558" y="616" width="484" height="188" rx="20" ry="20" fill="#dcfce7" stroke="#86efac" stroke-width="1.6"/>
<text x="576" y="646" class="small">ECU Core</text>
<text x="576" y="672" class="text">FLOW_06</text>
<rect x="576" y="700" width="219" height="34" rx="14" ry="14" fill="#ffffff" stroke="#cbd5e1" stroke-width="1.2"/>
<text x="685.5" y="722" text-anchor="middle" class="small">Publishes trailer-managemen…</text>
<rect x="805" y="700" width="219" height="34" rx="14" ry="14" fill="#ffffff" stroke="#cbd5e1" stroke-width="1.2"/>
<text x="914.5" y="722" text-anchor="middle" class="small">-</text>
<rect x="1064" y="616" width="484" height="188" rx="20" ry="20" fill="#dbeafe" stroke="#93c5fd" stroke-width="1.6"/>
<text x="1082" y="646" class="small">Outbound</text>
<text x="1082" y="672" class="text">3 downstream actor / 1 writes</text>
<rect x="1082" y="700" width="219" height="34" rx="14" ry="14" fill="#ffffff" stroke="#cbd5e1" stroke-width="1.2"/>
<text x="1191.5" y="722" text-anchor="middle" class="small">ADAS</text>
<rect x="1311" y="700" width="219" height="34" rx="14" ry="14" fill="#ffffff" stroke="#cbd5e1" stroke-width="1.2"/>
<text x="1420.5" y="722" text-anchor="middle" class="small">CLU</text>
<rect x="1082" y="744" width="219" height="34" rx="14" ry="14" fill="#ffffff" stroke="#cbd5e1" stroke-width="1.2"/>
<text x="1191.5" y="766" text-anchor="middle" class="small">VCU</text>
<line x1="536" y1="710.0" x2="558" y2="710.0" class="lane"/>
<line x1="1042" y1="710.0" x2="1064" y2="710.0" class="lane"/>
  <rect x="30" y="850" width="1540" height="206" class="box" fill="#eff6ff"/>
<text x="52" y="886" class="label">Representative signal flow</text>
<rect x="690" y="920" width="220" height="58" rx="16" ry="16" fill="#dcfce7" stroke="#86efac" stroke-width="1.5"/>
<text x="800" y="954" text-anchor="middle" class="node">TRM</text>
<rect x="1322" y="920" width="220" height="58" rx="16" ry="16" fill="#ffffff" stroke="#86efac" stroke-width="1.5"/>
<text x="1340" y="954" class="node">ADAS</text>
<line x1="910" y1="949" x2="1322" y2="949" class="lane"/>
<text x="926" y="982" class="small">Tx frmTrailerCtrlStateMsg</text>
<text x="52" y="1032" class="text">TRM -&gt; ADAS</text>
  <rect x="30" y="1080" width="1540" height="258" class="box" fill="#eff6ff"/>
<text x="52" y="1116" class="label">Network footprint</text>
<rect x="52" y="1146" width="486" height="170" rx="20" ry="20" fill="#e0f2fe" stroke="#bfdbfe" stroke-width="1.4"/>
<text x="70" y="1174" class="small">Upstream</text>
<text x="70" y="1202" class="node">0</text>
<text x="140" y="1202" class="small">Domain clusters</text>
<rect x="70" y="1220" width="220" height="34" rx="14" ry="14" fill="#ffffff" stroke="#cbd5e1" stroke-width="1.1"/>
<text x="180.0" y="1242" text-anchor="middle" class="small">-</text>
<rect x="556" y="1146" width="486" height="170" rx="20" ry="20" fill="#f8fafc" stroke="#cbd5e1" stroke-width="1.4"/>
<text x="574" y="1174" class="small">Peer / linked</text>
<text x="574" y="1202" class="node">0</text>
<text x="644" y="1202" class="small">Domain clusters</text>
<rect x="574" y="1220" width="220" height="34" rx="14" ry="14" fill="#ffffff" stroke="#cbd5e1" stroke-width="1.1"/>
<text x="684.0" y="1242" text-anchor="middle" class="small">-</text>
<rect x="1060" y="1146" width="486" height="170" rx="20" ry="20" fill="#dbeafe" stroke="#93c5fd" stroke-width="1.4"/>
<text x="1078" y="1174" class="small">Downstream</text>
<text x="1078" y="1202" class="node">3</text>
<text x="1148" y="1202" class="small">Domain clusters</text>
<rect x="1078" y="1220" width="220" height="34" rx="14" ry="14" fill="#ffffff" stroke="#cbd5e1" stroke-width="1.1"/>
<text x="1188.0" y="1242" text-anchor="middle" class="small">ADAS · 1</text>
<rect x="1308" y="1220" width="220" height="34" rx="14" ry="14" fill="#ffffff" stroke="#cbd5e1" stroke-width="1.1"/>
<text x="1418.0" y="1242" text-anchor="middle" class="small">Chassis · 1</text>
<rect x="1078" y="1264" width="220" height="34" rx="14" ry="14" fill="#ffffff" stroke="#cbd5e1" stroke-width="1.1"/>
<text x="1188.0" y="1286" text-anchor="middle" class="small">Display · 1</text>
<line x1="538" y1="1231.0" x2="556" y2="1231.0" class="lane"/>
<line x1="1042" y1="1231.0" x2="1060" y2="1231.0" class="lane"/>
</svg>
