<svg xmlns="http://www.w3.org/2000/svg" width="1600" height="1428" viewBox="0 0 1600 1428">
  <defs>
    <linearGradient id="heroGradient" x1="0%" y1="0%" x2="100%" y2="100%">
      <stop offset="0%" stop-color="#fee2e2"/>
      <stop offset="100%" stop-color="#ffffff"/>
    </linearGradient>
    <marker id="arrow" viewBox="0 0 10 10" refX="9" refY="5" markerWidth="8" markerHeight="8" orient="auto-start-reverse">
      <path d="M 0 0 L 10 5 L 0 10 z" fill="#475569"/>
    </marker>
  </defs>
  <style>
    .bg { fill: #f7f7f5; }
    .title { font: 700 32px 'Segoe UI', sans-serif; fill: #0f172a; }
    .sub { font: 500 15px 'Segoe UI', sans-serif; fill: #475569; }
    .label { font: 700 18px 'Segoe UI', sans-serif; fill: #0f172a; }
    .text { font: 600 15px 'Segoe UI', sans-serif; fill: #1f2937; }
    .small { font: 500 13px 'Segoe UI', sans-serif; fill: #475569; }
    .node { font: 700 18px 'Segoe UI', sans-serif; fill: #111827; }
    .box { rx: 22; ry: 22; stroke: #334155; stroke-width: 1.6; }
    .lane { stroke: #64748b; stroke-width: 3; fill: none; marker-end: url(#arrow); }
  </style>
  <rect x="0" y="0" width="1600" height="1428" class="bg"/>
  <text x="34" y="44" class="title">ECU Overview Card - AEB</text>
  <text x="34" y="72" class="sub">page 1 | hierarchy-first overview with action rail and network footprint</text>
  <rect x="30" y="100" width="1540" height="248" class="box" fill="url(#heroGradient)"/>
<text x="52" y="134" class="small">Story overview</text>
<text x="52" y="172" class="title">AEB</text>
<text x="52" y="204" class="text">Group 02 ADAS AEB Brake Assist | ADAS</text>
<text x="52" y="224" class="text"></text>
<text x="52" y="244" class="text">One AEB profile change can appear as</text>
<text x="52" y="264" class="text">multiple simultaneous chassis ECU</text>
<text x="52" y="284" class="text">reactions</text>
<text x="52" y="304" class="text"></text>
<text x="52" y="324" class="text">Primary action flow</text>
<text x="52" y="344" class="text">FLOW_06 Object Risk Fusion</text>
<rect x="940" y="134" width="309" height="82" rx="18" ry="18" fill="#ffffff" stroke="#cbd5e1" stroke-width="1.2"/>
<text x="958" y="162" class="small">Inbound actors</text>
<text x="958" y="192" class="node">1</text>
<rect x="1261" y="134" width="309" height="82" rx="18" ry="18" fill="#ffffff" stroke="#cbd5e1" stroke-width="1.2"/>
<text x="1279" y="162" class="small">Outbound actors</text>
<text x="1279" y="192" class="node">3</text>
<rect x="940" y="228" width="309" height="82" rx="18" ry="18" fill="#ffffff" stroke="#cbd5e1" stroke-width="1.2"/>
<text x="958" y="256" class="small">Linked ECU</text>
<text x="958" y="286" class="node">3</text>
<rect x="1261" y="228" width="309" height="82" rx="18" ry="18" fill="#ffffff" stroke="#cbd5e1" stroke-width="1.2"/>
<text x="1279" y="256" class="small">Native Tests</text>
<text x="1279" y="286" class="node">0</text>
  <rect x="30" y="372" width="1540" height="194" class="box" fill="#ffffff"/>
<text x="52" y="408" class="label">ECU metadata</text>
<rect x="52" y="426" width="363" height="118" rx="18" ry="18" fill="#ffffff" stroke="#cbd5e1" stroke-width="1.2"/>
<text x="70" y="454" class="small">Key seam</text>
<text x="70" y="480" class="small">AEB StopReq / DecelProfile /</text>
<text x="70" y="498" class="small">DomainHealth</text>
<rect x="429" y="426" width="363" height="118" rx="18" ry="18" fill="#ffffff" stroke="#cbd5e1" stroke-width="1.2"/>
<text x="447" y="454" class="small">Runtime contract</text>
<text x="447" y="480" class="small">Publish: frmAebDomainStateMsg</text>
<text x="447" y="498" class="small">Consume: frmAdasDomainStateMsg</text>
<rect x="806" y="426" width="363" height="118" rx="18" ry="18" fill="#ffffff" stroke="#cbd5e1" stroke-width="1.2"/>
<text x="824" y="454" class="small">Verification</text>
<text x="824" y="480" class="small">No direct test asset</text>
<rect x="1183" y="426" width="363" height="118" rx="18" ry="18" fill="#fff7ed" stroke="#cbd5e1" stroke-width="1.2"/>
<text x="1201" y="454" class="small">Risk focus</text>
<text x="1201" y="480" class="small">This is the most likely</text>
<text x="1201" y="498" class="small">producer of stepped brake</text>
<text x="1201" y="516" class="small">feel across ESC, EHB, and</text>
  <rect x="30" y="590" width="1540" height="276" class="box" fill="#ffffff"/>
<text x="52" y="626" class="label">Action rail</text>
<rect x="52" y="656" width="484" height="188" rx="20" ry="20" fill="#e0f2fe" stroke="#bfdbfe" stroke-width="1.6"/>
<text x="70" y="686" class="small">Inbound</text>
<text x="70" y="712" class="text">1 upstream actor / 1 reads</text>
<rect x="70" y="740" width="219" height="34" rx="14" ry="14" fill="#ffffff" stroke="#cbd5e1" stroke-width="1.2"/>
<text x="179.5" y="762" text-anchor="middle" class="small">ADAS</text>
<rect x="558" y="656" width="484" height="188" rx="20" ry="20" fill="#dcfce7" stroke="#86efac" stroke-width="1.6"/>
<text x="576" y="686" class="small">ECU Core</text>
<text x="576" y="712" class="text">FLOW_06</text>
<rect x="576" y="740" width="219" height="34" rx="14" ry="14" fill="#ffffff" stroke="#cbd5e1" stroke-width="1.2"/>
<text x="685.5" y="762" text-anchor="middle" class="small">One AEB profile change can …</text>
<rect x="805" y="740" width="219" height="34" rx="14" ry="14" fill="#ffffff" stroke="#cbd5e1" stroke-width="1.2"/>
<text x="914.5" y="762" text-anchor="middle" class="small">AEB StopReq / DecelProf…</text>
<rect x="1064" y="656" width="484" height="188" rx="20" ry="20" fill="#dbeafe" stroke="#93c5fd" stroke-width="1.6"/>
<text x="1082" y="686" class="small">Outbound</text>
<text x="1082" y="712" class="text">3 downstream actor / 1 writes</text>
<rect x="1082" y="740" width="219" height="34" rx="14" ry="14" fill="#ffffff" stroke="#cbd5e1" stroke-width="1.2"/>
<text x="1191.5" y="762" text-anchor="middle" class="small">ADAS</text>
<rect x="1311" y="740" width="219" height="34" rx="14" ry="14" fill="#ffffff" stroke="#cbd5e1" stroke-width="1.2"/>
<text x="1420.5" y="762" text-anchor="middle" class="small">CLU</text>
<rect x="1082" y="784" width="219" height="34" rx="14" ry="14" fill="#ffffff" stroke="#cbd5e1" stroke-width="1.2"/>
<text x="1191.5" y="806" text-anchor="middle" class="small">ESC</text>
<line x1="536" y1="750.0" x2="558" y2="750.0" class="lane"/>
<line x1="1042" y1="750.0" x2="1064" y2="750.0" class="lane"/>
  <rect x="30" y="890" width="1540" height="206" class="box" fill="#eff6ff"/>
<text x="52" y="926" class="label">Representative signal flow</text>
<rect x="58" y="960" width="220" height="58" rx="16" ry="16" fill="#ffffff" stroke="#93c5fd" stroke-width="1.5"/>
<text x="76" y="994" class="node">ADAS</text>
<rect x="690" y="960" width="220" height="58" rx="16" ry="16" fill="#dcfce7" stroke="#86efac" stroke-width="1.5"/>
<text x="800" y="994" text-anchor="middle" class="node">AEB</text>
<rect x="1322" y="960" width="220" height="58" rx="16" ry="16" fill="#ffffff" stroke="#86efac" stroke-width="1.5"/>
<text x="1340" y="994" class="node">ADAS</text>
<line x1="278" y1="989" x2="690" y2="989" class="lane"/>
<text x="294" y="1022" class="small">Rx frmAdasDomainStateMsg</text>
<line x1="910" y1="989" x2="1322" y2="989" class="lane"/>
<text x="926" y="1022" class="small">Tx frmAebDomainStateMsg</text>
<text x="52" y="1072" class="text">ADAS -&gt; AEB -&gt; ADAS</text>
  <rect x="30" y="1120" width="1540" height="258" class="box" fill="#eff6ff"/>
<text x="52" y="1156" class="label">Network footprint</text>
<rect x="52" y="1186" width="486" height="170" rx="20" ry="20" fill="#e0f2fe" stroke="#bfdbfe" stroke-width="1.4"/>
<text x="70" y="1214" class="small">Upstream</text>
<text x="70" y="1242" class="node">1</text>
<text x="140" y="1242" class="small">Domain clusters</text>
<rect x="70" y="1260" width="220" height="34" rx="14" ry="14" fill="#ffffff" stroke="#cbd5e1" stroke-width="1.1"/>
<text x="180.0" y="1282" text-anchor="middle" class="small">ADAS · 1</text>
<rect x="556" y="1186" width="486" height="170" rx="20" ry="20" fill="#f8fafc" stroke="#cbd5e1" stroke-width="1.4"/>
<text x="574" y="1214" class="small">Peer / linked</text>
<text x="574" y="1242" class="node">0</text>
<text x="644" y="1242" class="small">Domain clusters</text>
<rect x="574" y="1260" width="220" height="34" rx="14" ry="14" fill="#ffffff" stroke="#cbd5e1" stroke-width="1.1"/>
<text x="684.0" y="1282" text-anchor="middle" class="small">-</text>
<rect x="1060" y="1186" width="486" height="170" rx="20" ry="20" fill="#dbeafe" stroke="#93c5fd" stroke-width="1.4"/>
<text x="1078" y="1214" class="small">Downstream</text>
<text x="1078" y="1242" class="node">3</text>
<text x="1148" y="1242" class="small">Domain clusters</text>
<rect x="1078" y="1260" width="220" height="34" rx="14" ry="14" fill="#ffffff" stroke="#cbd5e1" stroke-width="1.1"/>
<text x="1188.0" y="1282" text-anchor="middle" class="small">ADAS · 1</text>
<rect x="1308" y="1260" width="220" height="34" rx="14" ry="14" fill="#ffffff" stroke="#cbd5e1" stroke-width="1.1"/>
<text x="1418.0" y="1282" text-anchor="middle" class="small">Chassis · 1</text>
<rect x="1078" y="1304" width="220" height="34" rx="14" ry="14" fill="#ffffff" stroke="#cbd5e1" stroke-width="1.1"/>
<text x="1188.0" y="1326" text-anchor="middle" class="small">Display · 1</text>
<line x1="538" y1="1271.0" x2="556" y2="1271.0" class="lane"/>
<line x1="1042" y1="1271.0" x2="1060" y2="1271.0" class="lane"/>
</svg>
