<svg xmlns="http://www.w3.org/2000/svg" width="1600" height="1488" viewBox="0 0 1600 1488">
  <defs>
    <linearGradient id="heroGradient" x1="0%" y1="0%" x2="100%" y2="100%">
      <stop offset="0%" stop-color="#fef3c7"/>
      <stop offset="100%" stop-color="#ffffff"/>
    </linearGradient>
    <marker id="arrow" viewBox="0 0 10 10" refX="9" refY="5" markerWidth="8" markerHeight="8" orient="auto-start-reverse">
      <path d="M 0 0 L 10 5 L 0 10 z" fill="#475569"/>
    </marker>
  </defs>
  <style>
    .bg { fill: #f7f7f5; }
    .title { font: 700 32px 'Segoe UI', sans-serif; fill: #0f172a; }
    .sub { font: 500 15px 'Segoe UI', sans-serif; fill: #475569; }
    .label { font: 700 18px 'Segoe UI', sans-serif; fill: #0f172a; }
    .text { font: 600 15px 'Segoe UI', sans-serif; fill: #1f2937; }
    .small { font: 500 13px 'Segoe UI', sans-serif; fill: #475569; }
    .statement { font: 700 26px 'Segoe UI', sans-serif; fill: #111827; }
    .node { font: 700 18px 'Segoe UI', sans-serif; fill: #111827; }
    .box { rx: 22; ry: 22; stroke: #334155; stroke-width: 1.6; }
    .lane { stroke: #64748b; stroke-width: 3; fill: none; marker-end: url(#arrow); }
  </style>
  <rect x="0" y="0" width="1600" height="1488" class="bg"/>
  <text x="34" y="44" class="title">ECU Reference Card - TEST_SCN</text>
  <text x="34" y="72" class="sub">page 2 | grouped reference bank with balanced network layout</text>
  <rect x="30" y="100" width="1540" height="142" class="box" fill="url(#heroGradient)"/> <text x="52" y="134" class="small">Reference bank | page 2</text> <text x="52" y="172" class="title">TEST_SCN</text> <text x="52" y="202" class="text">Group 05 Validation Scenario | ETH_Backbone</text> <text x="52" y="226" class="text">Primary flow: FLOW_19</text>
  <rect x="30" y="266" width="1540" height="576" class="box" fill="#eff6ff"/>
<text x="52" y="302" class="label">Linked ECU bank</text>
<text x="52" y="330" class="small">Linked ECU visible: 39</text>
<text x="52" y="350" class="small">Upstream 29 | Downstream 36 | Peer 0</text>
<rect x="52" y="388" width="366" height="34" rx="14" ry="14" fill="#ffffff" stroke="#bfdbfe" stroke-width="1.2"/>
<text x="235.0" y="410" text-anchor="middle" class="small">ABS</text>
<rect x="428" y="388" width="366" height="34" rx="14" ry="14" fill="#ffffff" stroke="#bfdbfe" stroke-width="1.2"/>
<text x="611.0" y="410" text-anchor="middle" class="small">ACU</text>
<rect x="804" y="388" width="366" height="34" rx="14" ry="14" fill="#ffffff" stroke="#bfdbfe" stroke-width="1.2"/>
<text x="987.0" y="410" text-anchor="middle" class="small">ADAS</text>
<rect x="1180" y="388" width="366" height="34" rx="14" ry="14" fill="#ffffff" stroke="#bfdbfe" stroke-width="1.2"/>
<text x="1363.0" y="410" text-anchor="middle" class="small">AFLS</text>
<rect x="52" y="432" width="366" height="34" rx="14" ry="14" fill="#ffffff" stroke="#bfdbfe" stroke-width="1.2"/>
<text x="235.0" y="454" text-anchor="middle" class="small">AMP</text>
<rect x="428" y="432" width="366" height="34" rx="14" ry="14" fill="#ffffff" stroke="#bfdbfe" stroke-width="1.2"/>
<text x="611.0" y="454" text-anchor="middle" class="small">BCM</text>
<rect x="804" y="432" width="366" height="34" rx="14" ry="14" fill="#ffffff" stroke="#bfdbfe" stroke-width="1.2"/>
<text x="987.0" y="454" text-anchor="middle" class="small">CDC</text>
<rect x="1180" y="432" width="366" height="34" rx="14" ry="14" fill="#ffffff" stroke="#bfdbfe" stroke-width="1.2"/>
<text x="1363.0" y="454" text-anchor="middle" class="small">CLU</text>
<rect x="52" y="476" width="366" height="34" rx="14" ry="14" fill="#ffffff" stroke="#bfdbfe" stroke-width="1.2"/>
<text x="235.0" y="498" text-anchor="middle" class="small">DATC</text>
<rect x="428" y="476" width="366" height="34" rx="14" ry="14" fill="#ffffff" stroke="#bfdbfe" stroke-width="1.2"/>
<text x="611.0" y="498" text-anchor="middle" class="small">DKEY</text>
<rect x="804" y="476" width="366" height="34" rx="14" ry="14" fill="#ffffff" stroke="#bfdbfe" stroke-width="1.2"/>
<text x="987.0" y="498" text-anchor="middle" class="small">DMS</text>
<rect x="1180" y="476" width="366" height="34" rx="14" ry="14" fill="#ffffff" stroke="#bfdbfe" stroke-width="1.2"/>
<text x="1363.0" y="498" text-anchor="middle" class="small">ECS</text>
<rect x="52" y="520" width="366" height="34" rx="14" ry="14" fill="#ffffff" stroke="#bfdbfe" stroke-width="1.2"/>
<text x="235.0" y="542" text-anchor="middle" class="small">EHB</text>
<rect x="428" y="520" width="366" height="34" rx="14" ry="14" fill="#ffffff" stroke="#bfdbfe" stroke-width="1.2"/>
<text x="611.0" y="542" text-anchor="middle" class="small">EMS</text>
<rect x="804" y="520" width="366" height="34" rx="14" ry="14" fill="#ffffff" stroke="#bfdbfe" stroke-width="1.2"/>
<text x="987.0" y="542" text-anchor="middle" class="small">EPB</text>
<rect x="1180" y="520" width="366" height="34" rx="14" ry="14" fill="#ffffff" stroke="#bfdbfe" stroke-width="1.2"/>
<text x="1363.0" y="542" text-anchor="middle" class="small">ESC</text>
<rect x="52" y="564" width="366" height="34" rx="14" ry="14" fill="#ffffff" stroke="#bfdbfe" stroke-width="1.2"/>
<text x="235.0" y="586" text-anchor="middle" class="small">FCAM</text>
<rect x="428" y="564" width="366" height="34" rx="14" ry="14" fill="#ffffff" stroke="#bfdbfe" stroke-width="1.2"/>
<text x="611.0" y="586" text-anchor="middle" class="small">FRADAR</text>
<rect x="804" y="564" width="366" height="34" rx="14" ry="14" fill="#ffffff" stroke="#bfdbfe" stroke-width="1.2"/>
<text x="987.0" y="586" text-anchor="middle" class="small">HUD</text>
<rect x="1180" y="564" width="366" height="34" rx="14" ry="14" fill="#ffffff" stroke="#bfdbfe" stroke-width="1.2"/>
<text x="1363.0" y="586" text-anchor="middle" class="small">IVI</text>
<rect x="52" y="608" width="366" height="34" rx="14" ry="14" fill="#ffffff" stroke="#bfdbfe" stroke-width="1.2"/>
<text x="235.0" y="630" text-anchor="middle" class="small">LDR</text>
<rect x="428" y="608" width="366" height="34" rx="14" ry="14" fill="#ffffff" stroke="#bfdbfe" stroke-width="1.2"/>
<text x="611.0" y="630" text-anchor="middle" class="small">MDPS</text>
<rect x="804" y="608" width="366" height="34" rx="14" ry="14" fill="#ffffff" stroke="#bfdbfe" stroke-width="1.2"/>
<text x="987.0" y="630" text-anchor="middle" class="small">NAV</text>
<rect x="1180" y="608" width="366" height="34" rx="14" ry="14" fill="#ffffff" stroke="#bfdbfe" stroke-width="1.2"/>
<text x="1363.0" y="630" text-anchor="middle" class="small">ODS</text>
<rect x="52" y="652" width="366" height="34" rx="14" ry="14" fill="#ffffff" stroke="#bfdbfe" stroke-width="1.2"/>
<text x="235.0" y="674" text-anchor="middle" class="small">OMS</text>
<rect x="428" y="652" width="366" height="34" rx="14" ry="14" fill="#ffffff" stroke="#bfdbfe" stroke-width="1.2"/>
<text x="611.0" y="674" text-anchor="middle" class="small">OTA</text>
<rect x="804" y="652" width="366" height="34" rx="14" ry="14" fill="#ffffff" stroke="#bfdbfe" stroke-width="1.2"/>
<text x="987.0" y="674" text-anchor="middle" class="small">SAS</text>
<rect x="1180" y="652" width="366" height="34" rx="14" ry="14" fill="#ffffff" stroke="#bfdbfe" stroke-width="1.2"/>
<text x="1363.0" y="674" text-anchor="middle" class="small">SCC</text>
<rect x="52" y="696" width="366" height="34" rx="14" ry="14" fill="#ffffff" stroke="#bfdbfe" stroke-width="1.2"/>
<text x="235.0" y="718" text-anchor="middle" class="small">SMK</text>
<rect x="428" y="696" width="366" height="34" rx="14" ry="14" fill="#ffffff" stroke="#bfdbfe" stroke-width="1.2"/>
<text x="611.0" y="718" text-anchor="middle" class="small">SRR_FL</text>
<rect x="804" y="696" width="366" height="34" rx="14" ry="14" fill="#ffffff" stroke="#bfdbfe" stroke-width="1.2"/>
<text x="987.0" y="718" text-anchor="middle" class="small">SRR_FR</text>
<rect x="1180" y="696" width="366" height="34" rx="14" ry="14" fill="#ffffff" stroke="#bfdbfe" stroke-width="1.2"/>
<text x="1363.0" y="718" text-anchor="middle" class="small">SRR_RL</text>
<rect x="52" y="740" width="366" height="34" rx="14" ry="14" fill="#ffffff" stroke="#bfdbfe" stroke-width="1.2"/>
<text x="235.0" y="762" text-anchor="middle" class="small">SRR_RR</text>
<rect x="428" y="740" width="366" height="34" rx="14" ry="14" fill="#ffffff" stroke="#bfdbfe" stroke-width="1.2"/>
<text x="611.0" y="762" text-anchor="middle" class="small">TCU</text>
<rect x="804" y="740" width="366" height="34" rx="14" ry="14" fill="#ffffff" stroke="#bfdbfe" stroke-width="1.2"/>
<text x="987.0" y="762" text-anchor="middle" class="small">TMU</text>
<rect x="1180" y="740" width="366" height="34" rx="14" ry="14" fill="#ffffff" stroke="#bfdbfe" stroke-width="1.2"/>
<text x="1363.0" y="762" text-anchor="middle" class="small">TPMS</text>
<rect x="52" y="784" width="366" height="34" rx="14" ry="14" fill="#ffffff" stroke="#bfdbfe" stroke-width="1.2"/>
<text x="235.0" y="806" text-anchor="middle" class="small">VCU</text>
<rect x="428" y="784" width="366" height="34" rx="14" ry="14" fill="#ffffff" stroke="#bfdbfe" stroke-width="1.2"/>
<text x="611.0" y="806" text-anchor="middle" class="small">VSM</text>
<rect x="804" y="784" width="366" height="34" rx="14" ry="14" fill="#ffffff" stroke="#bfdbfe" stroke-width="1.2"/>
<text x="987.0" y="806" text-anchor="middle" class="small">WIP</text>
  <rect x="550" y="860" width="500" height="578" class="box" fill="#ffffff"/>
<text x="572" y="896" class="label">Reference snapshot</text>
<rect x="572" y="922" width="222" height="82" rx="18" ry="18" fill="#f8fafc" stroke="#cbd5e1" stroke-width="1.2"/>
<text x="590" y="950" class="small">Flows</text>
<text x="590" y="980" class="node">2</text>
<rect x="806" y="922" width="222" height="82" rx="18" ry="18" fill="#f8fafc" stroke="#cbd5e1" stroke-width="1.2"/>
<text x="824" y="950" class="small">Owner seams</text>
<text x="824" y="980" class="node">3</text>
<rect x="572" y="1016" width="222" height="82" rx="18" ry="18" fill="#f8fafc" stroke="#cbd5e1" stroke-width="1.2"/>
<text x="590" y="1044" class="small">Sysvars</text>
<text x="590" y="1074" class="node">3</text>
<rect x="806" y="1016" width="222" height="82" rx="18" ry="18" fill="#f8fafc" stroke="#cbd5e1" stroke-width="1.2"/>
<text x="824" y="1044" class="small">Tests</text>
<text x="824" y="1074" class="node">0</text>
<text x="572" y="1120" class="small">Primary flow</text>
<rect x="572" y="1134" width="456" height="34" rx="14" ry="14" fill="#ffffff" stroke="#cbd5e1" stroke-width="1.2"/>
<text x="586" y="1156" class="small">FLOW_19</text>
<text x="572" y="1182" class="small">Support pack</text>
<rect x="572" y="1196" width="456" height="34" rx="14" ry="14" fill="#ffffff" stroke="#cbd5e1" stroke-width="1.2"/>
<text x="586" y="1218" class="small">1 supporting flows</text>
<text x="572" y="1244" class="small">Key seam</text>
<rect x="572" y="1258" width="456" height="34" rx="14" ry="14" fill="#ffffff" stroke="#cbd5e1" stroke-width="1.2"/>
<text x="586" y="1280" class="small">Test::scenarioCommand</text>
<text x="572" y="1306" class="small">Verification</text>
<rect x="572" y="1320" width="456" height="34" rx="14" ry="14" fill="#ffffff" stroke="#cbd5e1" stroke-width="1.2"/>
<text x="586" y="1342" class="small">No direct test asset</text>
<text x="572" y="1368" class="small">Source pack</text>
<rect x="572" y="1382" width="456" height="34" rx="14" ry="14" fill="#ffffff" stroke="#cbd5e1" stroke-width="1.2"/>
<text x="586" y="1404" class="small">1 CAPL / 6 docs</text>
  <rect x="30" y="860" width="500" height="172" class="box" fill="#fff7ed"/>
<text x="52" y="894" class="small">What this ECU does</text>
<text x="52" y="938" class="statement">Scenario entry point for validation presets,</text>
<text x="52" y="966" class="statement">stop/manual logic, and scenario verdict</text>
<text x="52" y="994" class="statement">readback</text>
  <rect x="1070" y="860" width="500" height="180" class="box" fill="#ffffff"/>
<text x="1092" y="894" class="small">Interaction sketch</text>
<rect x="1092" y="926" width="140" height="88" rx="18" ry="18" fill="#e0f2fe" stroke="#cbd5e1" stroke-width="1.2"/>
<text x="1110" y="952" class="small">Input</text>
<text x="1110" y="978" class="node">29 inbound</text>
<text x="1110" y="1000" class="small">ABS, ACU</text>
<rect x="1250" y="926" width="140" height="88" rx="18" ry="18" fill="#dcfce7" stroke="#cbd5e1" stroke-width="1.2"/>
<text x="1268" y="952" class="small">ECU</text>
<text x="1268" y="978" class="node">TEST_SCN</text>
<text x="1268" y="1000" class="small">Scenario entry point</text>
<rect x="1408" y="926" width="140" height="88" rx="18" ry="18" fill="#dbeafe" stroke="#cbd5e1" stroke-width="1.2"/>
<text x="1426" y="952" class="small">Output</text>
<text x="1426" y="978" class="node">36 outbound</text>
<text x="1426" y="1000" class="small">ABS, ACU</text>
<line x1="1232" y1="970" x2="1250" y2="970" stroke="#64748b" stroke-width="3" marker-end="url(#arrow)"/>
<line x1="1390" y1="970" x2="1408" y2="970" stroke="#64748b" stroke-width="3" marker-end="url(#arrow)"/>
</svg>
