<svg xmlns="http://www.w3.org/2000/svg" width="1600" height="1268" viewBox="0 0 1600 1268">
  <defs>
    <linearGradient id="heroGradient" x1="0%" y1="0%" x2="100%" y2="100%">
      <stop offset="0%" stop-color="#ede9fe"/>
      <stop offset="100%" stop-color="#ffffff"/>
    </linearGradient>
    <marker id="arrow" viewBox="0 0 10 10" refX="9" refY="5" markerWidth="8" markerHeight="8" orient="auto-start-reverse">
      <path d="M 0 0 L 10 5 L 0 10 z" fill="#475569"/>
    </marker>
  </defs>
  <style>
    .bg { fill: #f7f7f5; }
    .title { font: 700 32px 'Segoe UI', sans-serif; fill: #0f172a; }
    .sub { font: 500 15px 'Segoe UI', sans-serif; fill: #475569; }
    .label { font: 700 18px 'Segoe UI', sans-serif; fill: #0f172a; }
    .text { font: 600 15px 'Segoe UI', sans-serif; fill: #1f2937; }
    .small { font: 500 13px 'Segoe UI', sans-serif; fill: #475569; }
    .statement { font: 700 26px 'Segoe UI', sans-serif; fill: #111827; }
    .node { font: 700 18px 'Segoe UI', sans-serif; fill: #111827; }
    .box { rx: 22; ry: 22; stroke: #334155; stroke-width: 1.6; }
    .lane { stroke: #64748b; stroke-width: 3; fill: none; marker-end: url(#arrow); }
  </style>
  <rect x="0" y="0" width="1600" height="1268" class="bg"/>
  <text x="34" y="44" class="title">ECU Reference Card - IVI</text>
  <text x="34" y="72" class="sub">page 2 | grouped reference bank with balanced network layout</text>
  <rect x="30" y="100" width="1540" height="142" class="box" fill="url(#heroGradient)"/> <text x="52" y="134" class="small">Reference bank | page 2</text> <text x="52" y="172" class="title">IVI</text> <text x="52" y="202" class="text">Group 03 Display Warning Audio | Infotainment</text> <text x="52" y="226" class="text">Primary flow: FLOW_11</text>
  <rect x="30" y="266" width="1540" height="356" class="box" fill="#eff6ff"/>
<text x="52" y="302" class="label">Linked ECU bank</text>
<text x="52" y="330" class="small">Linked ECU visible: 17</text>
<text x="52" y="350" class="small">Upstream 15 | Downstream 3 | Peer 0</text>
<rect x="52" y="388" width="366" height="34" rx="14" ry="14" fill="#ffffff" stroke="#bfdbfe" stroke-width="1.2"/>
<text x="235.0" y="410" text-anchor="middle" class="small">ADAS</text>
<rect x="428" y="388" width="366" height="34" rx="14" ry="14" fill="#ffffff" stroke="#bfdbfe" stroke-width="1.2"/>
<text x="611.0" y="410" text-anchor="middle" class="small">AMP</text>
<rect x="804" y="388" width="366" height="34" rx="14" ry="14" fill="#ffffff" stroke="#bfdbfe" stroke-width="1.2"/>
<text x="987.0" y="410" text-anchor="middle" class="small">AVM</text>
<rect x="1180" y="388" width="366" height="34" rx="14" ry="14" fill="#ffffff" stroke="#bfdbfe" stroke-width="1.2"/>
<text x="1363.0" y="410" text-anchor="middle" class="small">CGW</text>
<rect x="52" y="432" width="366" height="34" rx="14" ry="14" fill="#ffffff" stroke="#bfdbfe" stroke-width="1.2"/>
<text x="235.0" y="454" text-anchor="middle" class="small">CLU</text>
<rect x="428" y="432" width="366" height="34" rx="14" ry="14" fill="#ffffff" stroke="#bfdbfe" stroke-width="1.2"/>
<text x="611.0" y="454" text-anchor="middle" class="small">CPAY</text>
<rect x="804" y="432" width="366" height="34" rx="14" ry="14" fill="#ffffff" stroke="#bfdbfe" stroke-width="1.2"/>
<text x="987.0" y="454" text-anchor="middle" class="small">DKEY</text>
<rect x="1180" y="432" width="366" height="34" rx="14" ry="14" fill="#ffffff" stroke="#bfdbfe" stroke-width="1.2"/>
<text x="1363.0" y="454" text-anchor="middle" class="small">HUD</text>
<rect x="52" y="476" width="366" height="34" rx="14" ry="14" fill="#ffffff" stroke="#bfdbfe" stroke-width="1.2"/>
<text x="235.0" y="498" text-anchor="middle" class="small">NAV</text>
<rect x="428" y="476" width="366" height="34" rx="14" ry="14" fill="#ffffff" stroke="#bfdbfe" stroke-width="1.2"/>
<text x="611.0" y="498" text-anchor="middle" class="small">OTA</text>
<rect x="804" y="476" width="366" height="34" rx="14" ry="14" fill="#ffffff" stroke="#bfdbfe" stroke-width="1.2"/>
<text x="987.0" y="498" text-anchor="middle" class="small">PGS</text>
<rect x="1180" y="476" width="366" height="34" rx="14" ry="14" fill="#ffffff" stroke="#bfdbfe" stroke-width="1.2"/>
<text x="1363.0" y="498" text-anchor="middle" class="small">PKM</text>
<rect x="52" y="520" width="366" height="34" rx="14" ry="14" fill="#ffffff" stroke="#bfdbfe" stroke-width="1.2"/>
<text x="235.0" y="542" text-anchor="middle" class="small">PUS</text>
<rect x="428" y="520" width="366" height="34" rx="14" ry="14" fill="#ffffff" stroke="#bfdbfe" stroke-width="1.2"/>
<text x="611.0" y="542" text-anchor="middle" class="small">RSE</text>
<rect x="804" y="520" width="366" height="34" rx="14" ry="14" fill="#ffffff" stroke="#bfdbfe" stroke-width="1.2"/>
<text x="987.0" y="542" text-anchor="middle" class="small">SPM</text>
<rect x="1180" y="520" width="366" height="34" rx="14" ry="14" fill="#ffffff" stroke="#bfdbfe" stroke-width="1.2"/>
<text x="1363.0" y="542" text-anchor="middle" class="small">TEST_SCN</text>
<rect x="52" y="564" width="366" height="34" rx="14" ry="14" fill="#ffffff" stroke="#bfdbfe" stroke-width="1.2"/>
<text x="235.0" y="586" text-anchor="middle" class="small">TMU</text>
  <rect x="550" y="640" width="500" height="578" class="box" fill="#ffffff"/>
<text x="572" y="676" class="label">Reference snapshot</text>
<rect x="572" y="702" width="222" height="82" rx="18" ry="18" fill="#f8fafc" stroke="#cbd5e1" stroke-width="1.2"/>
<text x="590" y="730" class="small">Flows</text>
<text x="590" y="760" class="node">4</text>
<rect x="806" y="702" width="222" height="82" rx="18" ry="18" fill="#f8fafc" stroke="#cbd5e1" stroke-width="1.2"/>
<text x="824" y="730" class="small">Owner seams</text>
<text x="824" y="760" class="node">2</text>
<rect x="572" y="796" width="222" height="82" rx="18" ry="18" fill="#f8fafc" stroke="#cbd5e1" stroke-width="1.2"/>
<text x="590" y="824" class="small">Sysvars</text>
<text x="590" y="854" class="node">2</text>
<rect x="806" y="796" width="222" height="82" rx="18" ry="18" fill="#f8fafc" stroke="#cbd5e1" stroke-width="1.2"/>
<text x="824" y="824" class="small">Tests</text>
<text x="824" y="854" class="node">5</text>
<text x="572" y="900" class="small">Primary flow</text>
<rect x="572" y="914" width="456" height="34" rx="14" ry="14" fill="#ffffff" stroke="#cbd5e1" stroke-width="1.2"/>
<text x="586" y="936" class="small">FLOW_11</text>
<text x="572" y="962" class="small">Support pack</text>
<rect x="572" y="976" width="456" height="34" rx="14" ry="14" fill="#ffffff" stroke="#cbd5e1" stroke-width="1.2"/>
<text x="586" y="998" class="small">3 supporting flows</text>
<text x="572" y="1024" class="small">Key seam</text>
<rect x="572" y="1038" width="456" height="34" rx="14" ry="14" fill="#ffffff" stroke="#cbd5e1" stroke-width="1.2"/>
<text x="586" y="1060" class="small">Cluster::warningTextCode</text>
<text x="572" y="1086" class="small">Verification</text>
<rect x="572" y="1100" width="456" height="34" rx="14" ry="14" fill="#ffffff" stroke="#cbd5e1" stroke-width="1.2"/>
<text x="586" y="1122" class="small">TC_CANOE_UT_CORE_013_IVI_GW_ROUTE</text>
<text x="572" y="1148" class="small">Source pack</text>
<rect x="572" y="1162" width="456" height="34" rx="14" ry="14" fill="#ffffff" stroke="#cbd5e1" stroke-width="1.2"/>
<text x="586" y="1184" class="small">1 CAPL / 6 docs</text>
  <rect x="30" y="640" width="500" height="144" class="box" fill="#fff7ed"/>
<text x="52" y="674" class="small">What this ECU does</text>
<text x="52" y="718" class="statement">Routes gated alert state into visible</text>
<text x="52" y="746" class="statement">display, map, and audio focus paths</text>
  <rect x="1070" y="640" width="500" height="180" class="box" fill="#ffffff"/>
<text x="1092" y="674" class="small">Interaction sketch</text>
<rect x="1092" y="706" width="140" height="88" rx="18" ry="18" fill="#e0f2fe" stroke="#cbd5e1" stroke-width="1.2"/>
<text x="1110" y="732" class="small">Input</text>
<text x="1110" y="758" class="node">15 inbound</text>
<text x="1110" y="780" class="small">ADAS, AMP</text>
<rect x="1250" y="706" width="140" height="88" rx="18" ry="18" fill="#dcfce7" stroke="#cbd5e1" stroke-width="1.2"/>
<text x="1268" y="732" class="small">ECU</text>
<text x="1268" y="758" class="node">IVI</text>
<text x="1268" y="780" class="small">Routes gated alert st…</text>
<rect x="1408" y="706" width="140" height="88" rx="18" ry="18" fill="#dbeafe" stroke="#cbd5e1" stroke-width="1.2"/>
<text x="1426" y="732" class="small">Output</text>
<text x="1426" y="758" class="node">3 outbound</text>
<text x="1426" y="780" class="small">CGW, CLU</text>
<line x1="1232" y1="750" x2="1250" y2="750" stroke="#64748b" stroke-width="3" marker-end="url(#arrow)"/>
<line x1="1390" y1="750" x2="1408" y2="750" stroke="#64748b" stroke-width="3" marker-end="url(#arrow)"/>
</svg>
