<svg xmlns="http://www.w3.org/2000/svg" width="1600" height="1422" viewBox="0 0 1600 1422">
  <defs>
    <linearGradient id="heroGradient" x1="0%" y1="0%" x2="100%" y2="100%">
      <stop offset="0%" stop-color="#dbeafe"/>
      <stop offset="100%" stop-color="#ffffff"/>
    </linearGradient>
    <marker id="arrow" viewBox="0 0 10 10" refX="9" refY="5" markerWidth="8" markerHeight="8" orient="auto-start-reverse">
      <path d="M 0 0 L 10 5 L 0 10 z" fill="#475569"/>
    </marker>
  </defs>
  <style>
    .bg { fill: #f7f7f5; }
    .title { font: 700 32px 'Segoe UI', sans-serif; fill: #0f172a; }
    .sub { font: 500 16px 'Segoe UI', sans-serif; fill: #475569; }
    .label { font: 700 19px 'Segoe UI', sans-serif; fill: #0f172a; }
    .text { font: 600 16px 'Segoe UI', sans-serif; fill: #1f2937; }
    .small { font: 500 14px 'Segoe UI', sans-serif; fill: #475569; }
    .heroRole { font: 700 23px 'Segoe UI', sans-serif; fill: #111827; }
    .statement { font: 700 26px 'Segoe UI', sans-serif; fill: #111827; }
    .node { font: 700 19px 'Segoe UI', sans-serif; fill: #111827; }
    .box { rx: 22; ry: 22; stroke: #334155; stroke-width: 1.6; }
    .lane { stroke: #64748b; stroke-width: 3; fill: none; marker-end: url(#arrow); }
  </style>
  <rect x="0" y="0" width="1600" height="1422" class="bg"/>
  <text x="34" y="44" class="title">ECU Reference - ESC</text>
  <text x="34" y="72" class="sub">p2 | runtime inventory, anchors, and linked ECU bank</text>
  <rect x="30" y="100" width="1540" height="232" class="box" fill="url(#heroGradient)"/> <text x="52" y="134" class="small">Reference | p2</text> <text x="52" y="172" class="title">ESC</text> <text x="52" y="202" class="text">Group 01 Base Vehicle Dynamics | Chassis</text> <text x="52" y="228" class="small">Role focus</text> <text x="52" y="248" class="heroRole">Stability and brake intervention</text> <rect x="1034" y="134" width="250" height="82" rx="18" ry="18" fill="#ffffff" stroke="#cbd5e1" stroke-width="1.2"/>
<text x="1052" y="162" class="small">Rx msgs</text>
<text x="1052" y="192" class="node">23</text> <rect x="1298" y="134" width="250" height="82" rx="18" ry="18" fill="#ffffff" stroke="#cbd5e1" stroke-width="1.2"/>
<text x="1316" y="162" class="small">Tx msgs</text>
<text x="1316" y="192" class="node">10</text> <rect x="1034" y="228" width="250" height="82" rx="18" ry="18" fill="#ffffff" stroke="#cbd5e1" stroke-width="1.2"/>
<text x="1052" y="256" class="small">Linked ECU</text>
<text x="1052" y="286" class="node">12</text> <rect x="1298" y="228" width="250" height="82" rx="18" ry="18" fill="#ffffff" stroke="#cbd5e1" stroke-width="1.2"/>
<text x="1316" y="256" class="small">Owner seams</text>
<text x="1316" y="286" class="node">3</text>
  <rect x="30" y="350" width="1540" height="142" class="box" fill="#fff7ed"/>
<text x="52" y="384" class="small">What this ECU does</text>
<text x="52" y="426" class="statement">Consumes vehicle and AEB state, then publishes brake and stability state</text>
<text x="52" y="452" class="statement">to downstream readers</text>
  <rect x="30" y="510" width="760" height="310" class="box" fill="#e0f2fe"/>
<text x="52" y="546" class="label">Inbound / Rx messages</text>
<text x="52" y="582" class="text">Decel Assist Request</text>
<text x="52" y="604" class="small">ethDecelAssistReqMsg</text>
<line x1="52" y1="626" x2="768" y2="626" stroke="#e2e8f0" stroke-width="1.0"/>
<text x="52" y="636" class="text">ABS State</text>
<text x="52" y="658" class="small">frmAbsStateMsg</text>
<line x1="52" y1="680" x2="768" y2="680" stroke="#e2e8f0" stroke-width="1.0"/>
<text x="52" y="690" class="text">Accel Status</text>
<text x="52" y="712" class="small">frmAccelStatusMsg</text>
<line x1="52" y1="734" x2="768" y2="734" stroke="#e2e8f0" stroke-width="1.0"/>
<text x="52" y="744" class="text">ADAS Chassis Status</text>
<text x="52" y="766" class="small">frmAdasChassisStatusMsg</text>
<rect x="810" y="510" width="760" height="310" class="box" fill="#dbeafe"/>
<text x="832" y="546" class="label">Outbound / Tx messages</text>
<text x="832" y="582" class="text">Brake Status</text>
<text x="832" y="604" class="small">frmBrakeStatusMsg</text>
<line x1="832" y1="626" x2="1548" y2="626" stroke="#e2e8f0" stroke-width="1.0"/>
<text x="832" y="636" class="text">Brake Temp</text>
<text x="832" y="658" class="small">frmBrakeTempMsg</text>
<line x1="832" y1="680" x2="1548" y2="680" stroke="#e2e8f0" stroke-width="1.0"/>
<text x="832" y="690" class="text">Brake Wear</text>
<text x="832" y="712" class="small">frmBrakeWearMsg</text>
<line x1="832" y1="734" x2="1548" y2="734" stroke="#e2e8f0" stroke-width="1.0"/>
<text x="832" y="744" class="text">Chassis Diagnostic Res</text>
<text x="832" y="766" class="small">frmChassisDiagResMsg</text>
<rect x="30" y="838" width="630" height="534" class="box" fill="#ffffff"/>
<text x="52" y="874" class="label">Runtime anchors</text>
<rect x="52" y="892" width="284" height="220" rx="18" ry="18" fill="#f8fafc" stroke="#cbd5e1" stroke-width="1.2"/>
<text x="70" y="920" class="small">Lead test asset</text>
<text x="70" y="946" class="small">No direct test asset</text>
<rect x="354" y="892" width="284" height="220" rx="18" ry="18" fill="#f8fafc" stroke="#cbd5e1" stroke-width="1.2"/>
<text x="372" y="920" class="small">Owner seam</text>
<text x="372" y="944" class="text">Brake Pressure</text>
<text x="372" y="966" class="small">Chassis::brakePressure</text>
<line x1="372" y1="986" x2="620" y2="986" stroke="#e2e8f0" stroke-width="1.0"/>
<text x="372" y="994" class="text">Brake Lamp</text>
<text x="372" y="1016" class="small">Chassis::brakeLamp</text>
<line x1="372" y1="1036" x2="620" y2="1036" stroke="#e2e8f0" stroke-width="1.0"/>
<text x="372" y="1044" class="text">ABS Active</text>
<text x="372" y="1066" class="small">Chassis::absActive</text>
<rect x="52" y="1130" width="586" height="220" rx="18" ry="18" fill="#ffffff" stroke="#cbd5e1" stroke-width="1.2"/>
<text x="70" y="1158" class="small">Linked sysvars</text>
<text x="70" y="1182" class="text">Brake Pressure</text>
<text x="70" y="1204" class="small">Chassis::brakePressure</text>
<line x1="70" y1="1224" x2="620" y2="1224" stroke="#e2e8f0" stroke-width="1.0"/>
<text x="70" y="1232" class="text">Brake Lamp</text>
<text x="70" y="1254" class="small">Chassis::brakeLamp</text>
<line x1="70" y1="1274" x2="620" y2="1274" stroke="#e2e8f0" stroke-width="1.0"/>
<text x="70" y="1282" class="text">ABS Active</text>
<text x="70" y="1304" class="small">Chassis::absActive</text>
<rect x="680" y="838" width="890" height="494" class="box" fill="#eff6ff"/>
<text x="702" y="874" class="label">Linked ECU bank</text>
<text x="702" y="902" class="small">12 linked ECU</text>
<text x="702" y="922" class="small">Upstream 11 | Downstream 5</text>
<rect x="702" y="960" width="846" height="106" rx="18" ry="18" fill="#ffffff" stroke="#cbd5e1" stroke-width="1.2"/>
<text x="720" y="988" class="small">Chassis · 6 ECU</text>
<rect x="720" y="1004" width="126" height="34" rx="14" ry="14" fill="#ffffff" stroke="#bfdbfe" stroke-width="1.2"/>
<text x="783.0" y="1026" text-anchor="middle" class="small">ABS</text>
<rect x="856" y="1004" width="126" height="34" rx="14" ry="14" fill="#ffffff" stroke="#bfdbfe" stroke-width="1.2"/>
<text x="919.0" y="1026" text-anchor="middle" class="small">ASM</text>
<rect x="992" y="1004" width="126" height="34" rx="14" ry="14" fill="#ffffff" stroke="#bfdbfe" stroke-width="1.2"/>
<text x="1055.0" y="1026" text-anchor="middle" class="small">MDPS</text>
<rect x="1128" y="1004" width="126" height="34" rx="14" ry="14" fill="#ffffff" stroke="#bfdbfe" stroke-width="1.2"/>
<text x="1191.0" y="1026" text-anchor="middle" class="small">RWS</text>
<rect x="1264" y="1004" width="126" height="34" rx="14" ry="14" fill="#ffffff" stroke="#bfdbfe" stroke-width="1.2"/>
<text x="1327.0" y="1026" text-anchor="middle" class="small">SAS</text>
<rect x="1400" y="1004" width="126" height="34" rx="14" ry="14" fill="#ffffff" stroke="#bfdbfe" stroke-width="1.2"/>
<text x="1463.0" y="1026" text-anchor="middle" class="small">VCU</text>
<rect x="702" y="1082" width="846" height="106" rx="18" ry="18" fill="#ffffff" stroke="#cbd5e1" stroke-width="1.2"/>
<text x="720" y="1110" class="small">ADAS · 4 ECU</text>
<rect x="720" y="1126" width="195" height="34" rx="14" ry="14" fill="#ffffff" stroke="#bfdbfe" stroke-width="1.2"/>
<text x="817.5" y="1148" text-anchor="middle" class="small">ADAS</text>
<rect x="925" y="1126" width="195" height="34" rx="14" ry="14" fill="#ffffff" stroke="#bfdbfe" stroke-width="1.2"/>
<text x="1022.5" y="1148" text-anchor="middle" class="small">AEB</text>
<rect x="1130" y="1126" width="195" height="34" rx="14" ry="14" fill="#ffffff" stroke="#bfdbfe" stroke-width="1.2"/>
<text x="1227.5" y="1148" text-anchor="middle" class="small">FCA</text>
<rect x="1335" y="1126" width="195" height="34" rx="14" ry="14" fill="#ffffff" stroke="#bfdbfe" stroke-width="1.2"/>
<text x="1432.5" y="1148" text-anchor="middle" class="small">RSPA</text>
<rect x="702" y="1204" width="846" height="106" rx="18" ry="18" fill="#ffffff" stroke="#cbd5e1" stroke-width="1.2"/>
<text x="720" y="1232" class="small">ETH Backbone · 2 ECU</text>
<rect x="880" y="1248" width="240" height="34" rx="14" ry="14" fill="#ffffff" stroke="#bfdbfe" stroke-width="1.2"/>
<text x="1000.0" y="1270" text-anchor="middle" class="small">CGW</text>
<rect x="1130" y="1248" width="240" height="34" rx="14" ry="14" fill="#ffffff" stroke="#bfdbfe" stroke-width="1.2"/>
<text x="1250.0" y="1270" text-anchor="middle" class="small">TEST_SCN</text>
</svg>
