<svg xmlns="http://www.w3.org/2000/svg" width="1600" height="1846" viewBox="0 0 1600 1846">
  <defs>
    <linearGradient id="heroGradient" x1="0%" y1="0%" x2="100%" y2="100%">
      <stop offset="0%" stop-color="#ede9fe"/>
      <stop offset="100%" stop-color="#ffffff"/>
    </linearGradient>
    <marker id="arrow" viewBox="0 0 10 10" refX="9" refY="5" markerWidth="8" markerHeight="8" orient="auto-start-reverse">
      <path d="M 0 0 L 10 5 L 0 10 z" fill="#475569"/>
    </marker>
  </defs>
  <style>
    .bg { fill: #f7f7f5; }
    .title { font: 700 32px 'Segoe UI', sans-serif; fill: #0f172a; }
    .sub { font: 500 16px 'Segoe UI', sans-serif; fill: #475569; }
    .label { font: 700 19px 'Segoe UI', sans-serif; fill: #0f172a; }
    .text { font: 600 16px 'Segoe UI', sans-serif; fill: #1f2937; }
    .small { font: 500 14px 'Segoe UI', sans-serif; fill: #475569; }
    .heroRole { font: 700 23px 'Segoe UI', sans-serif; fill: #111827; }
    .statement { font: 700 26px 'Segoe UI', sans-serif; fill: #111827; }
    .node { font: 700 19px 'Segoe UI', sans-serif; fill: #111827; }
    .box { rx: 22; ry: 22; stroke: #334155; stroke-width: 1.6; }
    .lane { stroke: #64748b; stroke-width: 3; fill: none; marker-end: url(#arrow); }
  </style>
  <rect x="0" y="0" width="1600" height="1846" class="bg"/>
  <text x="34" y="44" class="title">ECU Reference - CLU</text>
  <text x="34" y="72" class="sub">p2 | runtime inventory, anchors, and linked ECU bank</text>
  <rect x="30" y="100" width="1540" height="232" class="box" fill="url(#heroGradient)"/> <text x="52" y="134" class="small">Reference | p2</text> <text x="52" y="172" class="title">CLU</text> <text x="52" y="202" class="text">Group 03 Display Warning Audio | Infotainment</text> <text x="52" y="228" class="small">Role focus</text> <text x="52" y="248" class="heroRole">Warning and drive-status display</text> <rect x="1034" y="134" width="250" height="82" rx="18" ry="18" fill="#ffffff" stroke="#cbd5e1" stroke-width="1.2"/>
<text x="1052" y="162" class="small">Rx msgs</text>
<text x="1052" y="192" class="node">49</text> <rect x="1298" y="134" width="250" height="82" rx="18" ry="18" fill="#ffffff" stroke="#cbd5e1" stroke-width="1.2"/>
<text x="1316" y="162" class="small">Tx msgs</text>
<text x="1316" y="192" class="node">1</text> <rect x="1034" y="228" width="250" height="82" rx="18" ry="18" fill="#ffffff" stroke="#cbd5e1" stroke-width="1.2"/>
<text x="1052" y="256" class="small">Linked ECU</text>
<text x="1052" y="286" class="node">38</text> <rect x="1298" y="228" width="250" height="82" rx="18" ry="18" fill="#ffffff" stroke="#cbd5e1" stroke-width="1.2"/>
<text x="1316" y="256" class="small">Owner seams</text>
<text x="1316" y="286" class="node">2</text>
  <rect x="30" y="350" width="1540" height="142" class="box" fill="#fff7ed"/>
<text x="52" y="384" class="small">What this ECU does</text>
<text x="52" y="426" class="statement">Consumes selected alert state and vehicle state to build cluster-facing</text>
<text x="52" y="452" class="statement">output</text>
  <rect x="30" y="510" width="760" height="310" class="box" fill="#e0f2fe"/>
<text x="52" y="546" class="label">Inbound / Rx messages</text>
<text x="52" y="582" class="text">ADAS Domain State</text>
<text x="52" y="604" class="small">frmAdasDomainStateMsg</text>
<line x1="52" y1="626" x2="768" y2="626" stroke="#e2e8f0" stroke-width="1.0"/>
<text x="52" y="636" class="text">AEB Domain State</text>
<text x="52" y="658" class="small">frmAebDomainStateMsg</text>
<line x1="52" y1="680" x2="768" y2="680" stroke="#e2e8f0" stroke-width="1.0"/>
<text x="52" y="690" class="text">AMP State</text>
<text x="52" y="712" class="small">frmAmpStateMsg</text>
<line x1="52" y1="734" x2="768" y2="734" stroke="#e2e8f0" stroke-width="1.0"/>
<text x="52" y="744" class="text">Audio Focus</text>
<text x="52" y="766" class="small">frmAudioFocusMsg</text>
<rect x="810" y="510" width="760" height="148" class="box" fill="#dbeafe"/>
<text x="832" y="546" class="label">Outbound / Tx messages</text>
<text x="832" y="582" class="text">CLU Diagnostic Res</text>
<text x="832" y="604" class="small">frmCluDiagResMsg</text>
<rect x="30" y="838" width="630" height="434" class="box" fill="#ffffff"/>
<text x="52" y="874" class="label">Runtime anchors</text>
<rect x="52" y="892" width="284" height="170" rx="18" ry="18" fill="#f8fafc" stroke="#cbd5e1" stroke-width="1.2"/>
<text x="70" y="920" class="small">Lead test asset</text>
<text x="70" y="946" class="small">UT_EXT_007_CLU</text>
<text x="70" y="964" class="small">covers zone context ingress</text>
<rect x="354" y="892" width="284" height="170" rx="18" ry="18" fill="#f8fafc" stroke="#cbd5e1" stroke-width="1.2"/>
<text x="372" y="920" class="small">Owner seam</text>
<text x="372" y="944" class="text">Warning Text Code</text>
<text x="372" y="966" class="small">Cluster::warningTextCode</text>
<line x1="372" y1="986" x2="620" y2="986" stroke="#e2e8f0" stroke-width="1.0"/>
<text x="372" y="994" class="text">Steering Frame</text>
<text x="372" y="1016" class="small">Display::steeringFrame</text>
<rect x="52" y="1080" width="586" height="170" rx="18" ry="18" fill="#ffffff" stroke="#cbd5e1" stroke-width="1.2"/>
<text x="70" y="1108" class="small">Linked sysvars</text>
<text x="70" y="1132" class="text">Warning Text Code</text>
<text x="70" y="1154" class="small">Cluster::warningTextCode</text>
<line x1="70" y1="1174" x2="620" y2="1174" stroke="#e2e8f0" stroke-width="1.0"/>
<text x="70" y="1182" class="text">Steering Frame</text>
<text x="70" y="1204" class="small">Display::steeringFrame</text>
<rect x="680" y="838" width="890" height="958" class="box" fill="#eff6ff"/>
<text x="702" y="874" class="label">Linked ECU bank</text>
<text x="702" y="902" class="small">38 linked ECU</text>
<text x="702" y="922" class="small">Upstream 38 | Downstream 1</text>
<rect x="702" y="960" width="846" height="106" rx="18" ry="18" fill="#ffffff" stroke="#cbd5e1" stroke-width="1.2"/>
<text x="720" y="988" class="small">Chassis · 1 ECU</text>
<rect x="995" y="1004" width="260" height="34" rx="14" ry="14" fill="#ffffff" stroke="#bfdbfe" stroke-width="1.2"/>
<text x="1125.0" y="1026" text-anchor="middle" class="small">EPB</text>
<rect x="702" y="1082" width="846" height="282" rx="18" ry="18" fill="#ffffff" stroke="#cbd5e1" stroke-width="1.2"/>
<text x="720" y="1110" class="small">ADAS · 25 ECU</text>
<rect x="720" y="1126" width="126" height="34" rx="14" ry="14" fill="#ffffff" stroke="#bfdbfe" stroke-width="1.2"/>
<text x="783.0" y="1148" text-anchor="middle" class="small">ADAS</text>
<rect x="856" y="1126" width="126" height="34" rx="14" ry="14" fill="#ffffff" stroke="#bfdbfe" stroke-width="1.2"/>
<text x="919.0" y="1148" text-anchor="middle" class="small">AEB</text>
<rect x="992" y="1126" width="126" height="34" rx="14" ry="14" fill="#ffffff" stroke="#bfdbfe" stroke-width="1.2"/>
<text x="1055.0" y="1148" text-anchor="middle" class="small">AVM</text>
<rect x="1128" y="1126" width="126" height="34" rx="14" ry="14" fill="#ffffff" stroke="#bfdbfe" stroke-width="1.2"/>
<text x="1191.0" y="1148" text-anchor="middle" class="small">BCW</text>
<rect x="1264" y="1126" width="126" height="34" rx="14" ry="14" fill="#ffffff" stroke="#bfdbfe" stroke-width="1.2"/>
<text x="1327.0" y="1148" text-anchor="middle" class="small">DMS</text>
<rect x="1400" y="1126" width="126" height="34" rx="14" ry="14" fill="#ffffff" stroke="#bfdbfe" stroke-width="1.2"/>
<text x="1463.0" y="1148" text-anchor="middle" class="small">FCA</text>
<rect x="720" y="1170" width="126" height="34" rx="14" ry="14" fill="#ffffff" stroke="#bfdbfe" stroke-width="1.2"/>
<text x="783.0" y="1192" text-anchor="middle" class="small">FCAM</text>
<rect x="856" y="1170" width="126" height="34" rx="14" ry="14" fill="#ffffff" stroke="#bfdbfe" stroke-width="1.2"/>
<text x="919.0" y="1192" text-anchor="middle" class="small">FRADAR</text>
<rect x="992" y="1170" width="126" height="34" rx="14" ry="14" fill="#ffffff" stroke="#bfdbfe" stroke-width="1.2"/>
<text x="1055.0" y="1192" text-anchor="middle" class="small">HWP</text>
<rect x="1128" y="1170" width="126" height="34" rx="14" ry="14" fill="#ffffff" stroke="#bfdbfe" stroke-width="1.2"/>
<text x="1191.0" y="1192" text-anchor="middle" class="small">LCA</text>
<rect x="1264" y="1170" width="126" height="34" rx="14" ry="14" fill="#ffffff" stroke="#bfdbfe" stroke-width="1.2"/>
<text x="1327.0" y="1192" text-anchor="middle" class="small">LDR</text>
<rect x="1400" y="1170" width="126" height="34" rx="14" ry="14" fill="#ffffff" stroke="#bfdbfe" stroke-width="1.2"/>
<text x="1463.0" y="1192" text-anchor="middle" class="small">LDWS_LKAS</text>
<rect x="720" y="1214" width="126" height="34" rx="14" ry="14" fill="#ffffff" stroke="#bfdbfe" stroke-width="1.2"/>
<text x="783.0" y="1236" text-anchor="middle" class="small">OMS</text>
<rect x="856" y="1214" width="126" height="34" rx="14" ry="14" fill="#ffffff" stroke="#bfdbfe" stroke-width="1.2"/>
<text x="919.0" y="1236" text-anchor="middle" class="small">PKM</text>
<rect x="992" y="1214" width="126" height="34" rx="14" ry="14" fill="#ffffff" stroke="#bfdbfe" stroke-width="1.2"/>
<text x="1055.0" y="1236" text-anchor="middle" class="small">PUS</text>
<rect x="1128" y="1214" width="126" height="34" rx="14" ry="14" fill="#ffffff" stroke="#bfdbfe" stroke-width="1.2"/>
<text x="1191.0" y="1236" text-anchor="middle" class="small">RPC</text>
<rect x="1264" y="1214" width="126" height="34" rx="14" ry="14" fill="#ffffff" stroke="#bfdbfe" stroke-width="1.2"/>
<text x="1327.0" y="1236" text-anchor="middle" class="small">RRM</text>
<rect x="1400" y="1214" width="126" height="34" rx="14" ry="14" fill="#ffffff" stroke="#bfdbfe" stroke-width="1.2"/>
<text x="1463.0" y="1236" text-anchor="middle" class="small">RSPA</text>
<rect x="720" y="1258" width="126" height="34" rx="14" ry="14" fill="#ffffff" stroke="#bfdbfe" stroke-width="1.2"/>
<text x="783.0" y="1280" text-anchor="middle" class="small">SPAS</text>
<rect x="856" y="1258" width="126" height="34" rx="14" ry="14" fill="#ffffff" stroke="#bfdbfe" stroke-width="1.2"/>
<text x="919.0" y="1280" text-anchor="middle" class="small">SPM</text>
<rect x="992" y="1258" width="126" height="34" rx="14" ry="14" fill="#ffffff" stroke="#bfdbfe" stroke-width="1.2"/>
<text x="1055.0" y="1280" text-anchor="middle" class="small">SRR_FL</text>
<rect x="1128" y="1258" width="126" height="34" rx="14" ry="14" fill="#ffffff" stroke="#bfdbfe" stroke-width="1.2"/>
<text x="1191.0" y="1280" text-anchor="middle" class="small">SRR_FR</text>
<rect x="1264" y="1258" width="126" height="34" rx="14" ry="14" fill="#ffffff" stroke="#bfdbfe" stroke-width="1.2"/>
<text x="1327.0" y="1280" text-anchor="middle" class="small">SRR_RL</text>
<rect x="1400" y="1258" width="126" height="34" rx="14" ry="14" fill="#ffffff" stroke="#bfdbfe" stroke-width="1.2"/>
<text x="1463.0" y="1280" text-anchor="middle" class="small">SRR_RR</text>
<rect x="720" y="1302" width="126" height="34" rx="14" ry="14" fill="#ffffff" stroke="#bfdbfe" stroke-width="1.2"/>
<text x="783.0" y="1324" text-anchor="middle" class="small">TRM</text>
<rect x="702" y="1380" width="846" height="106" rx="18" ry="18" fill="#ffffff" stroke="#cbd5e1" stroke-width="1.2"/>
<text x="720" y="1408" class="small">Body · 1 ECU</text>
<rect x="995" y="1424" width="260" height="34" rx="14" ry="14" fill="#ffffff" stroke="#bfdbfe" stroke-width="1.2"/>
<text x="1125.0" y="1446" text-anchor="middle" class="small">MSC</text>
<rect x="702" y="1502" width="846" height="150" rx="18" ry="18" fill="#ffffff" stroke="#cbd5e1" stroke-width="1.2"/>
<text x="720" y="1530" class="small">Infotainment · 10 ECU</text>
<rect x="720" y="1546" width="154" height="34" rx="14" ry="14" fill="#ffffff" stroke="#bfdbfe" stroke-width="1.2"/>
<text x="797.0" y="1568" text-anchor="middle" class="small">AMP</text>
<rect x="884" y="1546" width="154" height="34" rx="14" ry="14" fill="#ffffff" stroke="#bfdbfe" stroke-width="1.2"/>
<text x="961.0" y="1568" text-anchor="middle" class="small">DKEY</text>
<rect x="1048" y="1546" width="154" height="34" rx="14" ry="14" fill="#ffffff" stroke="#bfdbfe" stroke-width="1.2"/>
<text x="1125.0" y="1568" text-anchor="middle" class="small">HUD</text>
<rect x="1212" y="1546" width="154" height="34" rx="14" ry="14" fill="#ffffff" stroke="#bfdbfe" stroke-width="1.2"/>
<text x="1289.0" y="1568" text-anchor="middle" class="small">IVI</text>
<rect x="1376" y="1546" width="154" height="34" rx="14" ry="14" fill="#ffffff" stroke="#bfdbfe" stroke-width="1.2"/>
<text x="1453.0" y="1568" text-anchor="middle" class="small">NAV</text>
<rect x="720" y="1590" width="154" height="34" rx="14" ry="14" fill="#ffffff" stroke="#bfdbfe" stroke-width="1.2"/>
<text x="797.0" y="1612" text-anchor="middle" class="small">OTA</text>
<rect x="884" y="1590" width="154" height="34" rx="14" ry="14" fill="#ffffff" stroke="#bfdbfe" stroke-width="1.2"/>
<text x="961.0" y="1612" text-anchor="middle" class="small">PGS</text>
<rect x="1048" y="1590" width="154" height="34" rx="14" ry="14" fill="#ffffff" stroke="#bfdbfe" stroke-width="1.2"/>
<text x="1125.0" y="1612" text-anchor="middle" class="small">RSE</text>
<rect x="1212" y="1590" width="154" height="34" rx="14" ry="14" fill="#ffffff" stroke="#bfdbfe" stroke-width="1.2"/>
<text x="1289.0" y="1612" text-anchor="middle" class="small">TMU</text>
<rect x="1376" y="1590" width="154" height="34" rx="14" ry="14" fill="#ffffff" stroke="#bfdbfe" stroke-width="1.2"/>
<text x="1453.0" y="1612" text-anchor="middle" class="small">VCS</text>
<rect x="702" y="1668" width="846" height="106" rx="18" ry="18" fill="#ffffff" stroke="#cbd5e1" stroke-width="1.2"/>
<text x="720" y="1696" class="small">ETH Backbone · 1 ECU</text>
<rect x="995" y="1712" width="260" height="34" rx="14" ry="14" fill="#ffffff" stroke="#bfdbfe" stroke-width="1.2"/>
<text x="1125.0" y="1734" text-anchor="middle" class="small">TEST_SCN</text>
</svg>
