<svg xmlns="http://www.w3.org/2000/svg" width="1600" height="2376" viewBox="0 0 1600 2376">
  <defs>
    <marker id="arrow" viewBox="0 0 10 10" refX="9" refY="5" markerWidth="8" markerHeight="8" orient="auto-start-reverse">
      <path d="M 0 0 L 10 5 L 0 10 z" fill="#475569"/>
    </marker>
  </defs>
  <style>
    .bg { fill: #f8fafc; }
    .title { font: 700 30px 'Segoe UI', sans-serif; fill: #0f172a; }
    .sub { font: 500 15px 'Segoe UI', sans-serif; fill: #475569; }
    .label { font: 700 18px 'Segoe UI', sans-serif; fill: #0f172a; }
    .text { font: 600 15px 'Segoe UI', sans-serif; fill: #1f2937; }
    .small { font: 500 14px 'Segoe UI', sans-serif; fill: #475569; }
    .node { font: 700 18px 'Segoe UI', sans-serif; fill: #111827; }
    .box { rx: 20; ry: 20; stroke: #475569; stroke-width: 2; }
    .lane { stroke: #64748b; stroke-width: 3; fill: none; marker-end: url(#arrow); }
  </style>
  <rect x="0" y="0" width="1600" height="2376" class="bg"/>
  <text x="34" y="44" class="title">ECU Network Flow - ESC</text>
  <text x="34" y="72" class="sub">Group 01 Base Vehicle Dynamics | Domain Chassis | generated internal OEM-style network flow card</text>

  <rect x="30" y="100" width="1540" height="126" class="box" fill="#dbeafe"/>
  <text x="52" y="136" class="label">ECU placement</text>
  <text x="52" y="168" class="text">Group: Group 01 Base Vehicle Dynamics</text>
  <text x="450" y="168" class="text">Domain: Chassis</text>
  <text x="52" y="198" class="text">Chassis brake controller</text>

  <rect x="30" y="250" width="1540" height="140" class="box" fill="#ffffff"/>
  <text x="52" y="286" class="label">Network surface</text>
  <rect x="52" y="302" width="430" height="70" rx="16" ry="16" fill="#eff6ff" stroke="#93c5fd" stroke-width="1.5"/>
  <text x="74" y="332" class="small">Inbound DBC / bus surface</text>
  <text x="74" y="358" class="text">- adas_can.dbc</text>
<text x="74" y="378" class="text">- chassis_can.dbc</text>
  <rect x="585" y="302" width="430" height="70" rx="16" ry="16" fill="#ecfeff" stroke="#67e8f9" stroke-width="1.5"/>
  <text x="607" y="332" class="small">Current ECU lane</text>
  <text x="607" y="360" class="node">ESC</text>
  <text x="607" y="388" class="small">Chassis / Group 01 Base Vehicle Dynamics</text>
  <rect x="1118" y="302" width="430" height="70" rx="16" ry="16" fill="#f0fdf4" stroke="#86efac" stroke-width="1.5"/>
  <text x="1140" y="332" class="small">Outbound DBC / bus surface</text>
  <text x="1140" y="358" class="text">- chassis_can.dbc</text>

  <rect x="30" y="414" width="1540" height="1124" class="box" fill="#ffffff"/>
<text x="52" y="448" class="label">Runtime network flow</text>
<rect x="40" y="440" width="450" height="1078" class="box" fill="#e0f2fe"/>
<text x="64" y="476" class="label">Inbound Flow</text>
<rect x="54" y="498" width="422" height="70" rx="16" ry="16" fill="#ffffff" stroke="#94a3b8" stroke-width="1.5"/>
<text x="70" y="526" class="node">ABS</text>
<text x="70" y="550" class="small">frmAbsStateMsg</text>
<rect x="54" y="582" width="422" height="88" rx="16" ry="16" fill="#ffffff" stroke="#94a3b8" stroke-width="1.5"/>
<text x="70" y="610" class="node">ADAS</text>
<text x="70" y="634" class="small">ethDecelAssistReqMsg,</text>
<text x="70" y="652" class="small">frmAdasChassisStatusMsg</text>
<rect x="54" y="684" width="422" height="70" rx="16" ry="16" fill="#ffffff" stroke="#94a3b8" stroke-width="1.5"/>
<text x="70" y="712" class="node">AEB</text>
<text x="70" y="736" class="small">frmAebDomainStateMsg</text>
<rect x="54" y="768" width="422" height="70" rx="16" ry="16" fill="#ffffff" stroke="#94a3b8" stroke-width="1.5"/>
<text x="70" y="796" class="node">ASM</text>
<text x="70" y="820" class="small">frmAirSuspensionStateMsg</text>
<rect x="54" y="852" width="422" height="124" rx="16" ry="16" fill="#ffffff" stroke="#94a3b8" stroke-width="1.5"/>
<text x="70" y="880" class="node">ESC</text>
<text x="70" y="904" class="small">frmBrakeStatusMsg,</text>
<text x="70" y="922" class="small">frmBrakeTempMsg,</text>
<text x="70" y="940" class="small">frmBrakeWearMsg, frmEscStateMsg,</text>
<text x="70" y="958" class="small">frmWheelSpeedMsg, frmYawAccelMsg</text>
<rect x="54" y="990" width="422" height="70" rx="16" ry="16" fill="#ffffff" stroke="#94a3b8" stroke-width="1.5"/>
<text x="70" y="1018" class="node">FCA</text>
<text x="70" y="1042" class="small">frmFcaStateMsg</text>
<rect x="54" y="1074" width="422" height="88" rx="16" ry="16" fill="#ffffff" stroke="#94a3b8" stroke-width="1.5"/>
<text x="70" y="1102" class="node">MDPS</text>
<text x="70" y="1126" class="small">frmEpsStateMsg,</text>
<text x="70" y="1144" class="small">frmSteeringTorqueMsg</text>
<rect x="54" y="1176" width="422" height="70" rx="16" ry="16" fill="#ffffff" stroke="#94a3b8" stroke-width="1.5"/>
<text x="70" y="1204" class="node">RSPA</text>
<text x="70" y="1228" class="small">frmRspaStateMsg</text>
<rect x="54" y="1260" width="422" height="70" rx="16" ry="16" fill="#ffffff" stroke="#94a3b8" stroke-width="1.5"/>
<text x="70" y="1288" class="node">RWS</text>
<text x="70" y="1312" class="small">frmRwsStateMsg</text>
<rect x="54" y="1344" width="422" height="70" rx="16" ry="16" fill="#ffffff" stroke="#94a3b8" stroke-width="1.5"/>
<text x="70" y="1372" class="node">SAS</text>
<text x="70" y="1396" class="small">frmSteeringAngleMsg</text>
<rect x="54" y="1428" width="422" height="70" rx="16" ry="16" fill="#ffffff" stroke="#94a3b8" stroke-width="1.5"/>
<text x="70" y="1456" class="node">... +2 more ECU edges</text>
<text x="70" y="1480" class="small">-</text>
<rect x="1110" y="440" width="450" height="676" class="box" fill="#dbeafe"/>
<text x="1134" y="476" class="label">Outbound Flow</text>
<rect x="1124" y="498" width="422" height="106" rx="16" ry="16" fill="#ffffff" stroke="#94a3b8" stroke-width="1.5"/>
<text x="1140" y="526" class="node">ADAS</text>
<text x="1140" y="550" class="small">frmBrakeTempMsg, frmEscStateMsg,</text>
<text x="1140" y="568" class="small">frmRoadFrictionMsg,</text>
<text x="1140" y="586" class="small">frmSuspensionStateMsg</text>
<rect x="1124" y="618" width="422" height="70" rx="16" ry="16" fill="#ffffff" stroke="#94a3b8" stroke-width="1.5"/>
<text x="1140" y="646" class="node">CGW</text>
<text x="1140" y="670" class="small">frmChassisHealthMsg</text>
<rect x="1124" y="702" width="422" height="124" rx="16" ry="16" fill="#ffffff" stroke="#94a3b8" stroke-width="1.5"/>
<text x="1140" y="730" class="node">ESC</text>
<text x="1140" y="754" class="small">frmBrakeStatusMsg,</text>
<text x="1140" y="772" class="small">frmBrakeTempMsg,</text>
<text x="1140" y="790" class="small">frmBrakeWearMsg, frmEscStateMsg,</text>
<text x="1140" y="808" class="small">frmWheelSpeedMsg, frmYawAccelMsg</text>
<rect x="1124" y="840" width="422" height="70" rx="16" ry="16" fill="#ffffff" stroke="#94a3b8" stroke-width="1.5"/>
<text x="1140" y="868" class="node">MDPS</text>
<text x="1140" y="892" class="small">frmWheelSpeedMsg, frmYawAccelMsg</text>
<rect x="1124" y="924" width="422" height="88" rx="16" ry="16" fill="#ffffff" stroke="#94a3b8" stroke-width="1.5"/>
<text x="1140" y="952" class="node">TEST_SCN</text>
<text x="1140" y="976" class="small">frmChassisDiagResMsg,</text>
<text x="1140" y="994" class="small">frmChassisHealthMsg</text>
<rect x="1124" y="1026" width="422" height="70" rx="16" ry="16" fill="#ffffff" stroke="#94a3b8" stroke-width="1.5"/>
<text x="1140" y="1054" class="node">VCU</text>
<text x="1140" y="1078" class="small">frmWheelSpeedMsg</text>
<rect x="570" y="480" width="460" height="420" class="box" fill="#dcfce7"/>
<text x="800" y="520" text-anchor="middle" class="node">ESC</text>
<text x="604" y="554" class="text">Chassis brake controller</text>
<text x="604" y="634" class="small">Owner seam</text>
<text x="604" y="660" class="small">- Chassis::brakePressure</text>
<text x="604" y="680" class="small">- Chassis::brakeLamp</text>
<text x="604" y="700" class="small">- Chassis::absActive</text>
<text x="604" y="790" class="small">Primary sysvar</text>
<text x="604" y="818" class="text">@Chassis::brakePressure</text>
<text x="604" y="866" class="small">Representative path: ABS -&gt; ESC -&gt; ADAS</text>
<line x1="490" y1="690" x2="570" y2="690" class="lane"/>
<line x1="1030" y1="690" x2="1110" y2="690" class="lane"/>
<text x="510" y="664" class="small">Representative Rx:</text>
<text x="510" y="682" class="small">frmAbsStateMsg</text>
<text x="1050" y="664" class="small">Representative Tx:</text>
<text x="1050" y="682" class="small">frmBrakeTempMsg,</text>
<text x="1050" y="700" class="small">frmEscStateMsg,</text>
<text x="1050" y="718" class="small">frmRoadFrictionMsg,</text>
<text x="1050" y="736" class="small">frmSuspensionStateMsg</text>

  <rect x="30" y="1562" width="1540" height="764" class="box" fill="#f8fafc"/>
<text x="52" y="1596" class="label">ECU metadata</text>
<rect x="44" y="1616" width="220" height="50" rx="12" ry="12" fill="#e5eefb" stroke="#c7d2fe" stroke-width="1.2"/>
<rect x="270" y="1616" width="1276" height="50" rx="12" ry="12" fill="#ffffff" stroke="#d1d5db" stroke-width="1.2"/>
<text x="62" y="1644" class="text">ECU</text>
<text x="284" y="1642" class="text">ESC</text>
<rect x="44" y="1678" width="220" height="50" rx="12" ry="12" fill="#e5eefb" stroke="#c7d2fe" stroke-width="1.2"/>
<rect x="270" y="1678" width="1276" height="50" rx="12" ry="12" fill="#ffffff" stroke="#d1d5db" stroke-width="1.2"/>
<text x="62" y="1706" class="text">Layer/Group</text>
<text x="284" y="1704" class="text">Chassis / Group 01 Base Vehicle Dynamics</text>
<rect x="44" y="1740" width="220" height="50" rx="12" ry="12" fill="#e5eefb" stroke="#c7d2fe" stroke-width="1.2"/>
<rect x="270" y="1740" width="1276" height="50" rx="12" ry="12" fill="#ffffff" stroke="#d1d5db" stroke-width="1.2"/>
<text x="62" y="1768" class="text">Owner seam</text>
<text x="284" y="1766" class="text">Chassis::brakePressure, Chassis::brakeLamp, Chassis::absActive</text>
<rect x="44" y="1802" width="220" height="50" rx="12" ry="12" fill="#e5eefb" stroke="#c7d2fe" stroke-width="1.2"/>
<rect x="270" y="1802" width="1276" height="50" rx="12" ry="12" fill="#ffffff" stroke="#d1d5db" stroke-width="1.2"/>
<text x="62" y="1830" class="text">Rx message</text>
<text x="284" y="1828" class="text">frmAbsStateMsg, ethDecelAssistReqMsg, frmAdasChassisStatusMsg, frmAebDomainStateMsg</text>
<rect x="44" y="1864" width="220" height="50" rx="12" ry="12" fill="#e5eefb" stroke="#c7d2fe" stroke-width="1.2"/>
<rect x="270" y="1864" width="1276" height="50" rx="12" ry="12" fill="#ffffff" stroke="#d1d5db" stroke-width="1.2"/>
<text x="62" y="1892" class="text">Tx message</text>
<text x="284" y="1890" class="text">frmBrakeTempMsg, frmEscStateMsg, frmRoadFrictionMsg, frmSuspensionStateMsg</text>
<rect x="44" y="1926" width="220" height="50" rx="12" ry="12" fill="#e5eefb" stroke="#c7d2fe" stroke-width="1.2"/>
<rect x="270" y="1926" width="1276" height="50" rx="12" ry="12" fill="#ffffff" stroke="#d1d5db" stroke-width="1.2"/>
<text x="62" y="1954" class="text">Linked ECU</text>
<text x="284" y="1952" class="text">ABS, ADAS, AEB, ASM, CGW, FCA (+6 more)</text>
<rect x="44" y="1988" width="220" height="50" rx="12" ry="12" fill="#e5eefb" stroke="#c7d2fe" stroke-width="1.2"/>
<rect x="270" y="1988" width="1276" height="50" rx="12" ry="12" fill="#ffffff" stroke="#d1d5db" stroke-width="1.2"/>
<text x="62" y="2016" class="text">Primary sysvar</text>
<text x="284" y="2014" class="text">@Chassis::brakePressure</text>
<rect x="44" y="2050" width="220" height="50" rx="12" ry="12" fill="#e5eefb" stroke="#c7d2fe" stroke-width="1.2"/>
<rect x="270" y="2050" width="1276" height="50" rx="12" ry="12" fill="#ffffff" stroke="#d1d5db" stroke-width="1.2"/>
<text x="62" y="2078" class="text">Primary test asset</text>
<text x="284" y="2076" class="text">No direct native test asset matched</text>
<rect x="44" y="2112" width="220" height="50" rx="12" ry="12" fill="#e5eefb" stroke="#c7d2fe" stroke-width="1.2"/>
<rect x="270" y="2112" width="1276" height="50" rx="12" ry="12" fill="#ffffff" stroke="#d1d5db" stroke-width="1.2"/>
<text x="62" y="2140" class="text">Doc source</text>
<text x="284" y="2138" class="text">0301, 0302, 0303, 0304 (+2 more)</text>
<rect x="44" y="2174" width="220" height="50" rx="12" ry="12" fill="#e5eefb" stroke="#c7d2fe" stroke-width="1.2"/>
<rect x="270" y="2174" width="1276" height="50" rx="12" ry="12" fill="#ffffff" stroke="#d1d5db" stroke-width="1.2"/>
<text x="62" y="2202" class="text">Gap/Issue</text>
<text x="284" y="2200" class="text">assistPressureFloor remains the strongest current dynamics risk during AEB overlay.</text>
<rect x="44" y="2236" width="220" height="68" rx="12" ry="12" fill="#e5eefb" stroke="#c7d2fe" stroke-width="1.2"/>
<rect x="270" y="2236" width="1276" height="68" rx="12" ry="12" fill="#ffffff" stroke="#d1d5db" stroke-width="1.2"/>
<text x="62" y="2264" class="text">Runtime note</text>
<text x="284" y="2262" class="text">Consumes vehicle and AEB state, then publishes brake and stability state to downstream</text>
<text x="284" y="2280" class="text">readers.</text>
</svg>
