<svg xmlns="http://www.w3.org/2000/svg" width="1600" height="1856" viewBox="0 0 1600 1856">
  <defs>
    <marker id="arrow" viewBox="0 0 10 10" refX="9" refY="5" markerWidth="8" markerHeight="8" orient="auto-start-reverse">
      <path d="M 0 0 L 10 5 L 0 10 z" fill="#475569"/>
    </marker>
  </defs>
  <style>
    .bg { fill: #f8fafc; }
    .title { font: 700 30px 'Segoe UI', sans-serif; fill: #0f172a; }
    .sub { font: 500 15px 'Segoe UI', sans-serif; fill: #475569; }
    .label { font: 700 18px 'Segoe UI', sans-serif; fill: #0f172a; }
    .text { font: 600 15px 'Segoe UI', sans-serif; fill: #1f2937; }
    .small { font: 500 14px 'Segoe UI', sans-serif; fill: #475569; }
    .node { font: 700 18px 'Segoe UI', sans-serif; fill: #111827; }
    .box { rx: 20; ry: 20; stroke: #475569; stroke-width: 2; }
    .lane { stroke: #64748b; stroke-width: 3; fill: none; marker-end: url(#arrow); }
  </style>
  <rect x="0" y="0" width="1600" height="1856" class="bg"/>
  <text x="34" y="44" class="title">ECU Network Flow - CGW</text>
  <text x="34" y="72" class="sub">Group 06 Backbone Gateway Diagnostics | Domain ETH_Backbone | generated internal OEM-style network flow card</text>

  <rect x="30" y="100" width="1540" height="144" class="box" fill="#fce7f3"/>
  <text x="52" y="136" class="label">ECU placement</text>
  <text x="52" y="168" class="text">Group: Group 06 Backbone Gateway Diagnostics</text>
  <text x="450" y="168" class="text">Domain: ETH_Backbone</text>
  <text x="52" y="198" class="text">Central gateway and</text>
<text x="52" y="220" class="text">gatekeeper</text>

  <rect x="30" y="268" width="1540" height="158" class="box" fill="#ffffff"/>
  <text x="52" y="304" class="label">Network surface</text>
  <rect x="52" y="320" width="430" height="88" rx="16" ry="16" fill="#eff6ff" stroke="#93c5fd" stroke-width="1.5"/>
  <text x="74" y="350" class="small">Inbound DBC / bus surface</text>
  <text x="74" y="376" class="text">- body_can.dbc</text>
<text x="74" y="396" class="text">- chassis_can.dbc</text>
<text x="74" y="416" class="text">- infotainment_can.dbc</text>
  <rect x="585" y="320" width="430" height="88" rx="16" ry="16" fill="#ecfeff" stroke="#67e8f9" stroke-width="1.5"/>
  <text x="607" y="350" class="small">Current ECU lane</text>
  <text x="607" y="378" class="node">CGW</text>
  <text x="607" y="406" class="small">ETH_Backbone / Group 06 Backbone Gateway Diagnostics</text>
  <rect x="1118" y="320" width="430" height="88" rx="16" ry="16" fill="#f0fdf4" stroke="#86efac" stroke-width="1.5"/>
  <text x="1140" y="350" class="small">Outbound DBC / bus surface</text>
  <text x="1140" y="376" class="text">- body_can.dbc</text>
<text x="1140" y="396" class="text">- chassis_can.dbc</text>
<text x="1140" y="416" class="text">- infotainment_can.dbc</text>

  <rect x="30" y="450" width="1540" height="586" class="box" fill="#ffffff"/>
<text x="52" y="484" class="label">Runtime network flow</text>
<rect x="40" y="476" width="450" height="484" class="box" fill="#e0f2fe"/>
<text x="64" y="512" class="label">Inbound Flow</text>
<rect x="54" y="534" width="422" height="70" rx="16" ry="16" fill="#ffffff" stroke="#94a3b8" stroke-width="1.5"/>
<text x="70" y="562" class="node">ACU</text>
<text x="70" y="586" class="small">frmAcuStateMsg</text>
<rect x="54" y="618" width="422" height="70" rx="16" ry="16" fill="#ffffff" stroke="#94a3b8" stroke-width="1.5"/>
<text x="70" y="646" class="node">BCM</text>
<text x="70" y="670" class="small">frmBodyHealthMsg</text>
<rect x="54" y="702" width="422" height="70" rx="16" ry="16" fill="#ffffff" stroke="#94a3b8" stroke-width="1.5"/>
<text x="70" y="730" class="node">ESC</text>
<text x="70" y="754" class="small">frmChassisHealthMsg</text>
<rect x="54" y="786" width="422" height="70" rx="16" ry="16" fill="#ffffff" stroke="#94a3b8" stroke-width="1.5"/>
<text x="70" y="814" class="node">IVI</text>
<text x="70" y="838" class="small">frmInfotainmentHealthMsg</text>
<rect x="54" y="870" width="422" height="70" rx="16" ry="16" fill="#ffffff" stroke="#94a3b8" stroke-width="1.5"/>
<text x="70" y="898" class="node">ODS</text>
<text x="70" y="922" class="small">frmOdsStateMsg</text>
<rect x="1110" y="476" width="450" height="220" class="box" fill="#dbeafe"/>
<text x="1134" y="512" class="label">Outbound Flow</text>
<rect x="1124" y="534" width="422" height="70" rx="16" ry="16" fill="#ffffff" stroke="#94a3b8" stroke-width="1.5"/>
<text x="1140" y="562" class="node">-</text>
<text x="1140" y="586" class="small">no direct DBC edge extracted</text>
<rect x="570" y="516" width="460" height="420" class="box" fill="#dcfce7"/>
<text x="800" y="556" text-anchor="middle" class="node">CGW</text>
<text x="604" y="590" class="text">Central gateway and</text>
<text x="604" y="612" class="text">gatekeeper</text>
<text x="604" y="692" class="small">Owner seam</text>
<text x="604" y="718" class="small">- CoreState::selectedAlertGateReason</text>
<text x="604" y="826" class="small">Primary sysvar</text>
<text x="604" y="854" class="text">@CoreState::selectedAlertGateReason</text>
<text x="604" y="902" class="small">Representative path: ACU -&gt; CGW</text>
<line x1="490" y1="726" x2="570" y2="726" class="lane"/>
<line x1="1030" y1="726" x2="1110" y2="726" class="lane"/>
<text x="510" y="700" class="small">Representative Rx:</text>
<text x="510" y="718" class="small">frmAcuStateMsg</text>
<text x="1050" y="716" class="small">Representative Tx: -</text>

  <rect x="30" y="1060" width="1540" height="746" class="box" fill="#f8fafc"/>
<text x="52" y="1094" class="label">ECU metadata</text>
<rect x="44" y="1114" width="220" height="50" rx="12" ry="12" fill="#e5eefb" stroke="#c7d2fe" stroke-width="1.2"/>
<rect x="270" y="1114" width="1276" height="50" rx="12" ry="12" fill="#ffffff" stroke="#d1d5db" stroke-width="1.2"/>
<text x="62" y="1142" class="text">ECU</text>
<text x="284" y="1140" class="text">CGW</text>
<rect x="44" y="1176" width="220" height="50" rx="12" ry="12" fill="#e5eefb" stroke="#c7d2fe" stroke-width="1.2"/>
<rect x="270" y="1176" width="1276" height="50" rx="12" ry="12" fill="#ffffff" stroke="#d1d5db" stroke-width="1.2"/>
<text x="62" y="1204" class="text">Layer/Group</text>
<text x="284" y="1202" class="text">ETH_Backbone / Group 06 Backbone Gateway Diagnostics</text>
<rect x="44" y="1238" width="220" height="50" rx="12" ry="12" fill="#e5eefb" stroke="#c7d2fe" stroke-width="1.2"/>
<rect x="270" y="1238" width="1276" height="50" rx="12" ry="12" fill="#ffffff" stroke="#d1d5db" stroke-width="1.2"/>
<text x="62" y="1266" class="text">Owner seam</text>
<text x="284" y="1264" class="text">CoreState::selectedAlertGateReason</text>
<rect x="44" y="1300" width="220" height="50" rx="12" ry="12" fill="#e5eefb" stroke="#c7d2fe" stroke-width="1.2"/>
<rect x="270" y="1300" width="1276" height="50" rx="12" ry="12" fill="#ffffff" stroke="#d1d5db" stroke-width="1.2"/>
<text x="62" y="1328" class="text">Rx message</text>
<text x="284" y="1326" class="text">frmAcuStateMsg, frmBodyHealthMsg, frmChassisHealthMsg, frmInfotainmentHealthMsg</text>
<rect x="44" y="1362" width="220" height="50" rx="12" ry="12" fill="#e5eefb" stroke="#c7d2fe" stroke-width="1.2"/>
<rect x="270" y="1362" width="1276" height="50" rx="12" ry="12" fill="#ffffff" stroke="#d1d5db" stroke-width="1.2"/>
<text x="62" y="1390" class="text">Tx message</text>
<text x="284" y="1388" class="text">-</text>
<rect x="44" y="1424" width="220" height="50" rx="12" ry="12" fill="#e5eefb" stroke="#c7d2fe" stroke-width="1.2"/>
<rect x="270" y="1424" width="1276" height="50" rx="12" ry="12" fill="#ffffff" stroke="#d1d5db" stroke-width="1.2"/>
<text x="62" y="1452" class="text">Linked ECU</text>
<text x="284" y="1450" class="text">ACU, BCM, ESC, IVI, ODS</text>
<rect x="44" y="1486" width="220" height="50" rx="12" ry="12" fill="#e5eefb" stroke="#c7d2fe" stroke-width="1.2"/>
<rect x="270" y="1486" width="1276" height="50" rx="12" ry="12" fill="#ffffff" stroke="#d1d5db" stroke-width="1.2"/>
<text x="62" y="1514" class="text">Primary sysvar</text>
<text x="284" y="1512" class="text">@CoreState::selectedAlertGateReason</text>
<rect x="44" y="1548" width="220" height="50" rx="12" ry="12" fill="#e5eefb" stroke="#c7d2fe" stroke-width="1.2"/>
<rect x="270" y="1548" width="1276" height="50" rx="12" ry="12" fill="#ffffff" stroke="#d1d5db" stroke-width="1.2"/>
<text x="62" y="1576" class="text">Primary test asset</text>
<text x="284" y="1574" class="text">TC_CANOE_UT_CORE_001_CGW_CHS_GW</text>
<rect x="44" y="1610" width="220" height="50" rx="12" ry="12" fill="#e5eefb" stroke="#c7d2fe" stroke-width="1.2"/>
<rect x="270" y="1610" width="1276" height="50" rx="12" ry="12" fill="#ffffff" stroke="#d1d5db" stroke-width="1.2"/>
<text x="62" y="1638" class="text">Doc source</text>
<text x="284" y="1636" class="text">0301, 0302, 0303, 0304 (+2 more)</text>
<rect x="44" y="1672" width="220" height="50" rx="12" ry="12" fill="#e5eefb" stroke="#c7d2fe" stroke-width="1.2"/>
<rect x="270" y="1672" width="1276" height="50" rx="12" ry="12" fill="#ffffff" stroke="#d1d5db" stroke-width="1.2"/>
<text x="62" y="1700" class="text">Gap/Issue</text>
<text x="284" y="1698" class="text">Downstream display behavior depends heavily on gate reason consistency.</text>
<rect x="44" y="1734" width="220" height="50" rx="12" ry="12" fill="#e5eefb" stroke="#c7d2fe" stroke-width="1.2"/>
<rect x="270" y="1734" width="1276" height="50" rx="12" ry="12" fill="#ffffff" stroke="#d1d5db" stroke-width="1.2"/>
<text x="62" y="1762" class="text">Runtime note</text>
<text x="284" y="1760" class="text">Bridges domain outputs toward IVI, CLU, BCM, and AMP while enforcing gate logic.</text>
</svg>
