<svg xmlns="http://www.w3.org/2000/svg" width="1600" height="2376" viewBox="0 0 1600 2376">
  <defs>
    <marker id="arrow" viewBox="0 0 10 10" refX="9" refY="5" markerWidth="8" markerHeight="8" orient="auto-start-reverse">
      <path d="M 0 0 L 10 5 L 0 10 z" fill="#475569"/>
    </marker>
  </defs>
  <style>
    .bg { fill: #f8fafc; }
    .title { font: 700 30px 'Segoe UI', sans-serif; fill: #0f172a; }
    .sub { font: 500 15px 'Segoe UI', sans-serif; fill: #475569; }
    .label { font: 700 18px 'Segoe UI', sans-serif; fill: #0f172a; }
    .text { font: 600 15px 'Segoe UI', sans-serif; fill: #1f2937; }
    .small { font: 500 14px 'Segoe UI', sans-serif; fill: #475569; }
    .node { font: 700 18px 'Segoe UI', sans-serif; fill: #111827; }
    .box { rx: 20; ry: 20; stroke: #475569; stroke-width: 2; }
    .lane { stroke: #64748b; stroke-width: 3; fill: none; marker-end: url(#arrow); }
  </style>
  <rect x="0" y="0" width="1600" height="2376" class="bg"/>
  <text x="34" y="44" class="title">ECU Network Flow - VCU</text>
  <text x="34" y="72" class="sub">Group 01 Base Vehicle Dynamics | Domain Chassis | generated internal OEM-style network flow card</text>

  <rect x="30" y="100" width="1540" height="126" class="box" fill="#dbeafe"/>
  <text x="52" y="136" class="label">ECU placement</text>
  <text x="52" y="168" class="text">Group: Group 01 Base Vehicle Dynamics</text>
  <text x="450" y="168" class="text">Domain: Chassis</text>
  <text x="52" y="198" class="text">Powertrain controller</text>

  <rect x="30" y="250" width="1540" height="158" class="box" fill="#ffffff"/>
  <text x="52" y="286" class="label">Network surface</text>
  <rect x="52" y="302" width="430" height="88" rx="16" ry="16" fill="#eff6ff" stroke="#93c5fd" stroke-width="1.5"/>
  <text x="74" y="332" class="small">Inbound DBC / bus surface</text>
  <text x="74" y="358" class="text">- adas_can.dbc</text>
<text x="74" y="378" class="text">- chassis_can.dbc</text>
<text x="74" y="398" class="text">- powertrain_can.dbc</text>
  <rect x="585" y="302" width="430" height="88" rx="16" ry="16" fill="#ecfeff" stroke="#67e8f9" stroke-width="1.5"/>
  <text x="607" y="332" class="small">Current ECU lane</text>
  <text x="607" y="360" class="node">VCU</text>
  <text x="607" y="388" class="small">Chassis / Group 01 Base Vehicle Dynamics</text>
  <rect x="1118" y="302" width="430" height="88" rx="16" ry="16" fill="#f0fdf4" stroke="#86efac" stroke-width="1.5"/>
  <text x="1140" y="332" class="small">Outbound DBC / bus surface</text>
  <text x="1140" y="358" class="text">- chassis_can.dbc</text>
<text x="1140" y="378" class="text">- powertrain_can.dbc</text>

  <rect x="30" y="432" width="1540" height="1124" class="box" fill="#ffffff"/>
<text x="52" y="466" class="label">Runtime network flow</text>
<rect x="40" y="458" width="450" height="1078" class="box" fill="#e0f2fe"/>
<text x="64" y="494" class="label">Inbound Flow</text>
<rect x="54" y="516" width="422" height="70" rx="16" ry="16" fill="#ffffff" stroke="#94a3b8" stroke-width="1.5"/>
<text x="70" y="544" class="node">BAT_BMS</text>
<text x="70" y="568" class="small">frmBatBmsStateMsg</text>
<rect x="54" y="600" width="422" height="70" rx="16" ry="16" fill="#ffffff" stroke="#94a3b8" stroke-width="1.5"/>
<text x="70" y="628" class="node">CPC</text>
<text x="70" y="652" class="small">frmChargePortCtrlStateMsg</text>
<rect x="54" y="684" width="422" height="70" rx="16" ry="16" fill="#ffffff" stroke="#94a3b8" stroke-width="1.5"/>
<text x="70" y="712" class="node">DCDC</text>
<text x="70" y="736" class="small">frmDcdcStateMsg</text>
<rect x="54" y="768" width="422" height="160" rx="16" ry="16" fill="#ffffff" stroke="#94a3b8" stroke-width="1.5"/>
<text x="70" y="796" class="node">EMS</text>
<text x="70" y="820" class="small">frmEngineLoadMsg,</text>
<text x="70" y="838" class="small">frmEngineSpeedTempMsg,</text>
<text x="70" y="856" class="small">frmEngineTorqueMsg,</text>
<text x="70" y="874" class="small">frmFuelBatteryStateMsg,</text>
<text x="70" y="892" class="small">frmThermalMgmtStateMsg,</text>
<text x="70" y="910" class="small">frmThrottleStateMsg</text>
<rect x="54" y="942" width="422" height="70" rx="16" ry="16" fill="#ffffff" stroke="#94a3b8" stroke-width="1.5"/>
<text x="70" y="970" class="node">EOP</text>
<text x="70" y="994" class="small">frmEopStateMsg</text>
<rect x="54" y="1026" width="422" height="70" rx="16" ry="16" fill="#ffffff" stroke="#94a3b8" stroke-width="1.5"/>
<text x="70" y="1054" class="node">ESC</text>
<text x="70" y="1078" class="small">frmWheelSpeedMsg</text>
<rect x="54" y="1110" width="422" height="70" rx="16" ry="16" fill="#ffffff" stroke="#94a3b8" stroke-width="1.5"/>
<text x="70" y="1138" class="node">EWP</text>
<text x="70" y="1162" class="small">frmEwpStateMsg</text>
<rect x="54" y="1194" width="422" height="70" rx="16" ry="16" fill="#ffffff" stroke="#94a3b8" stroke-width="1.5"/>
<text x="70" y="1222" class="node">FPCM</text>
<text x="70" y="1246" class="small">frmFpcmStateMsg</text>
<rect x="54" y="1278" width="422" height="70" rx="16" ry="16" fill="#ffffff" stroke="#94a3b8" stroke-width="1.5"/>
<text x="70" y="1306" class="node">INVERTER</text>
<text x="70" y="1330" class="small">frmInverterStateMsg</text>
<rect x="54" y="1362" width="422" height="70" rx="16" ry="16" fill="#ffffff" stroke="#94a3b8" stroke-width="1.5"/>
<text x="70" y="1390" class="node">ISG</text>
<text x="70" y="1414" class="small">frmIsgStateMsg</text>
<rect x="54" y="1446" width="422" height="70" rx="16" ry="16" fill="#ffffff" stroke="#94a3b8" stroke-width="1.5"/>
<text x="70" y="1474" class="node">... +7 more ECU edges</text>
<text x="70" y="1498" class="small">-</text>
<rect x="1110" y="458" width="450" height="718" class="box" fill="#dbeafe"/>
<text x="1134" y="494" class="label">Outbound Flow</text>
<rect x="1124" y="516" width="422" height="106" rx="16" ry="16" fill="#ffffff" stroke="#94a3b8" stroke-width="1.5"/>
<text x="1140" y="544" class="node">ADAS</text>
<text x="1140" y="568" class="small">frmTcsStateMsg,</text>
<text x="1140" y="586" class="small">frmVehicleStateCanMsg,</text>
<text x="1140" y="604" class="small">frmWheelPulseMsg</text>
<rect x="1124" y="636" width="422" height="142" rx="16" ry="16" fill="#ffffff" stroke="#94a3b8" stroke-width="1.5"/>
<text x="1140" y="664" class="node">EMS</text>
<text x="1140" y="688" class="small">frmEnergyFlowStateMsg,</text>
<text x="1140" y="706" class="small">frmPowerLimitMsg,</text>
<text x="1140" y="724" class="small">frmPowertrainCtrlAuthMsg,</text>
<text x="1140" y="742" class="small">frmPowertrainGatewayMsg,</text>
<text x="1140" y="760" class="small">frmVehicleModeMsg</text>
<rect x="1124" y="792" width="422" height="106" rx="16" ry="16" fill="#ffffff" stroke="#94a3b8" stroke-width="1.5"/>
<text x="1140" y="820" class="node">ESC</text>
<text x="1140" y="844" class="small">frmAccelStatusMsg,</text>
<text x="1140" y="862" class="small">frmTcsStateMsg,</text>
<text x="1140" y="880" class="small">frmVehicleStateCanMsg</text>
<rect x="1124" y="912" width="422" height="142" rx="16" ry="16" fill="#ffffff" stroke="#94a3b8" stroke-width="1.5"/>
<text x="1140" y="940" class="node">TCU</text>
<text x="1140" y="964" class="small">frmEnergyFlowStateMsg,</text>
<text x="1140" y="982" class="small">frmPowerLimitMsg,</text>
<text x="1140" y="1000" class="small">frmPowertrainCtrlAuthMsg,</text>
<text x="1140" y="1018" class="small">frmPowertrainGatewayMsg,</text>
<text x="1140" y="1036" class="small">frmVehicleModeMsg</text>
<rect x="1124" y="1068" width="422" height="88" rx="16" ry="16" fill="#ffffff" stroke="#94a3b8" stroke-width="1.5"/>
<text x="1140" y="1096" class="node">TEST_SCN</text>
<text x="1140" y="1120" class="small">frmPowertrainHealthMsg,</text>
<text x="1140" y="1138" class="small">frmPtDiagResMsg</text>
<rect x="570" y="498" width="460" height="420" class="box" fill="#dcfce7"/>
<text x="800" y="538" text-anchor="middle" class="node">VCU</text>
<text x="604" y="572" class="text">Powertrain controller</text>
<text x="604" y="652" class="small">Owner seam</text>
<text x="604" y="678" class="small">- Chassis::vehicleSpeed</text>
<text x="604" y="698" class="small">- Chassis::driveState</text>
<text x="604" y="718" class="small">- Chassis::throttlePosition</text>
<text x="604" y="808" class="small">Primary sysvar</text>
<text x="604" y="836" class="text">@Chassis::vehicleSpeed</text>
<text x="604" y="884" class="small">Representative path: BAT_BMS -&gt; VCU -&gt; ADAS</text>
<line x1="490" y1="708" x2="570" y2="708" class="lane"/>
<line x1="1030" y1="708" x2="1110" y2="708" class="lane"/>
<text x="510" y="682" class="small">Representative Rx:</text>
<text x="510" y="700" class="small">frmBatBmsStateMsg</text>
<text x="1050" y="682" class="small">Representative Tx:</text>
<text x="1050" y="700" class="small">frmTcsStateMsg,</text>
<text x="1050" y="718" class="small">frmVehicleStateCanMsg,</text>
<text x="1050" y="736" class="small">frmWheelPulseMsg</text>

  <rect x="30" y="1580" width="1540" height="746" class="box" fill="#f8fafc"/>
<text x="52" y="1614" class="label">ECU metadata</text>
<rect x="44" y="1634" width="220" height="50" rx="12" ry="12" fill="#e5eefb" stroke="#c7d2fe" stroke-width="1.2"/>
<rect x="270" y="1634" width="1276" height="50" rx="12" ry="12" fill="#ffffff" stroke="#d1d5db" stroke-width="1.2"/>
<text x="62" y="1662" class="text">ECU</text>
<text x="284" y="1660" class="text">VCU</text>
<rect x="44" y="1696" width="220" height="50" rx="12" ry="12" fill="#e5eefb" stroke="#c7d2fe" stroke-width="1.2"/>
<rect x="270" y="1696" width="1276" height="50" rx="12" ry="12" fill="#ffffff" stroke="#d1d5db" stroke-width="1.2"/>
<text x="62" y="1724" class="text">Layer/Group</text>
<text x="284" y="1722" class="text">Chassis / Group 01 Base Vehicle Dynamics</text>
<rect x="44" y="1758" width="220" height="50" rx="12" ry="12" fill="#e5eefb" stroke="#c7d2fe" stroke-width="1.2"/>
<rect x="270" y="1758" width="1276" height="50" rx="12" ry="12" fill="#ffffff" stroke="#d1d5db" stroke-width="1.2"/>
<text x="62" y="1786" class="text">Owner seam</text>
<text x="284" y="1784" class="text">Chassis::vehicleSpeed, Chassis::driveState, Chassis::throttlePosition</text>
<rect x="44" y="1820" width="220" height="50" rx="12" ry="12" fill="#e5eefb" stroke="#c7d2fe" stroke-width="1.2"/>
<rect x="270" y="1820" width="1276" height="50" rx="12" ry="12" fill="#ffffff" stroke="#d1d5db" stroke-width="1.2"/>
<text x="62" y="1848" class="text">Rx message</text>
<text x="284" y="1846" class="text">frmBatBmsStateMsg, frmChargePortCtrlStateMsg, frmDcdcStateMsg, frmEngineLoadMsg</text>
<rect x="44" y="1882" width="220" height="50" rx="12" ry="12" fill="#e5eefb" stroke="#c7d2fe" stroke-width="1.2"/>
<rect x="270" y="1882" width="1276" height="50" rx="12" ry="12" fill="#ffffff" stroke="#d1d5db" stroke-width="1.2"/>
<text x="62" y="1910" class="text">Tx message</text>
<text x="284" y="1908" class="text">frmTcsStateMsg, frmVehicleStateCanMsg, frmWheelPulseMsg, frmEnergyFlowStateMsg</text>
<rect x="44" y="1944" width="220" height="50" rx="12" ry="12" fill="#e5eefb" stroke="#c7d2fe" stroke-width="1.2"/>
<rect x="270" y="1944" width="1276" height="50" rx="12" ry="12" fill="#ffffff" stroke="#d1d5db" stroke-width="1.2"/>
<text x="62" y="1972" class="text">Linked ECU</text>
<text x="284" y="1970" class="text">ADAS, BAT_BMS, CPC, DCDC, EMS, EOP (+12 more)</text>
<rect x="44" y="2006" width="220" height="50" rx="12" ry="12" fill="#e5eefb" stroke="#c7d2fe" stroke-width="1.2"/>
<rect x="270" y="2006" width="1276" height="50" rx="12" ry="12" fill="#ffffff" stroke="#d1d5db" stroke-width="1.2"/>
<text x="62" y="2034" class="text">Primary sysvar</text>
<text x="284" y="2032" class="text">@Chassis::vehicleSpeed</text>
<rect x="44" y="2068" width="220" height="50" rx="12" ry="12" fill="#e5eefb" stroke="#c7d2fe" stroke-width="1.2"/>
<rect x="270" y="2068" width="1276" height="50" rx="12" ry="12" fill="#ffffff" stroke="#d1d5db" stroke-width="1.2"/>
<text x="62" y="2096" class="text">Primary test asset</text>
<text x="284" y="2094" class="text">No direct native test asset matched</text>
<rect x="44" y="2130" width="220" height="50" rx="12" ry="12" fill="#e5eefb" stroke="#c7d2fe" stroke-width="1.2"/>
<rect x="270" y="2130" width="1276" height="50" rx="12" ry="12" fill="#ffffff" stroke="#d1d5db" stroke-width="1.2"/>
<text x="62" y="2158" class="text">Doc source</text>
<text x="284" y="2156" class="text">0301, 0302, 0303, 0304 (+2 more)</text>
<rect x="44" y="2192" width="220" height="50" rx="12" ry="12" fill="#e5eefb" stroke="#c7d2fe" stroke-width="1.2"/>
<rect x="270" y="2192" width="1276" height="50" rx="12" ry="12" fill="#ffffff" stroke="#d1d5db" stroke-width="1.2"/>
<text x="62" y="2220" class="text">Gap/Issue</text>
<text x="284" y="2218" class="text">Manual speed target and pedal dynamics can still fight if stale assist hints are reasserted.</text>
<rect x="44" y="2254" width="220" height="50" rx="12" ry="12" fill="#e5eefb" stroke="#c7d2fe" stroke-width="1.2"/>
<rect x="270" y="2254" width="1276" height="50" rx="12" ry="12" fill="#ffffff" stroke="#d1d5db" stroke-width="1.2"/>
<text x="62" y="2282" class="text">Runtime note</text>
<text x="284" y="2280" class="text">Primary dynamics producer for speed, drive state, and throttle interpretation.</text>
</svg>
