<svg width="41" height="41" xmlns="http://www.w3.org/2000/svg" xmlns:xlink="http://www.w3.org/1999/xlink" xml:space="preserve" overflow="hidden"><defs><clipPath id="clip0"><rect x="467" y="132" width="41" height="41"/></clipPath></defs><g clip-path="url(#clip0)" transform="translate(-467 -132)"><path d="M475.846 147.362C475.907 147.603 476.09 148.289 476.401 149.159 476.609 148.92 476.834 148.697 477.073 148.49 476.84 147.793 476.74 147.393 476.702 147.235 476.686 147.168 476.665 147.103 476.638 147.04 476.322 146.234 475.941 145.455 475.499 144.71 475.067 144.005 474.879 143.737 474.819 143.655 474.809 143.643 474.8 143.631 474.79 143.62 474.392 143.184 474.422 142.509 474.858 142.111 474.999 141.982 475.173 141.893 475.361 141.854 475.433 141.839 475.507 141.832 475.581 141.831 475.788 141.832 475.991 141.893 476.164 142.007 476.334 142.117 476.454 142.197 477.185 143.373 477.309 143.574 477.572 143.635 477.773 143.51 477.885 143.441 477.959 143.323 477.972 143.192 477.988 143.042 478.005 142.893 478.026 142.74 478.225 141.305 478.314 141.044 478.413 140.88 478.699 140.364 479.348 140.177 479.864 140.463 480.32 140.715 480.527 141.26 480.354 141.752 480.349 141.767 480.322 141.886 480.306 141.972 480.272 142.157 480.218 142.485 480.141 143.034 480.034 143.896 479.997 144.766 480.031 145.635 480.034 145.682 480.035 145.75 480.036 145.828 480.031 146.083 480.049 146.339 480.088 146.591 480.114 146.714 480.163 146.917 480.244 147.189L480.249 147.189C480.575 147.143 480.858 147.111 481.106 147.087 481.008 146.775 480.952 146.543 480.924 146.415 480.898 146.217 480.886 146.017 480.89 145.817 480.89 145.726 480.89 145.646 480.884 145.591 480.853 144.777 480.887 143.961 480.987 143.152 481.09 142.413 481.149 142.104 481.171 142.004 481.499 140.991 480.945 139.902 479.931 139.574 479.875 139.555 479.819 139.54 479.761 139.527 478.972 139.347 478.155 139.687 477.725 140.373 477.543 140.656 477.442 140.907 477.281 141.942 477.281 141.948 477.276 141.948 477.273 141.942 477.123 141.707 476.93 141.502 476.705 141.338 476.423 141.132 476.09 141.008 475.742 140.978 474.682 140.892 473.752 141.681 473.666 142.741 473.623 143.264 473.796 143.782 474.144 144.175 474.202 144.255 474.378 144.51 474.773 145.155 475.174 145.833 475.523 146.541 475.815 147.272 475.824 147.305 475.843 147.355 475.846 147.362Z"/><path d="M499.539 154.062C498.506 150.723 496.699 148.058 495.802 147.161 495.516 146.891 495.205 146.648 494.874 146.435 494.637 146.603 494.4 146.788 494.163 146.991 494.534 147.212 494.881 147.471 495.198 147.763 495.906 148.471 497.699 151.004 498.722 154.314 499.573 157.1 499.81 160.037 499.418 162.924 499.182 164.76 498.022 167.43 496.825 168.25 495.554 169.119 491.743 169.471 489.13 168.962 486.362 168.329 483.75 167.147 481.448 165.485 480.802 165.011 480.183 164.502 479.593 163.96 478.716 163.017 477.902 162.017 477.159 160.965 476.076 159.444 475.54 157.601 475.638 155.736 475.759 152.84 476.816 151.288 477.6 150.373 478.411 149.428 479.084 149.079 480.486 148.88 481.019 148.8 481.558 148.752 482.097 148.737 482.243 148.768 482.395 148.739 482.518 148.655L482.709 148.492 482.713 148.279C482.717 148.015 482.719 147.757 482.721 147.503 482.674 146.219 482.803 144.935 483.105 143.687 483.442 142.41 484.093 141.238 484.999 140.277L485.169 140.1 485.103 139.865C485.02 139.573 484.949 139.289 484.892 139.02 484.572 137.521 484.603 137.388 484.636 137.259 484.716 136.914 485.06 136.7 485.405 136.78 485.695 136.848 485.901 137.107 485.9 137.405L485.903 137.453C485.914 137.552 485.96 137.869 486.138 138.708L486.249 139.235 486.736 139.006C486.768 138.991 486.8 138.979 486.833 138.966L487.175 138.821 487.163 138.527C487.157 138.346 487.152 138.163 487.154 137.978 487.163 136.446 487.223 136.323 487.282 136.203 487.435 135.884 487.818 135.75 488.137 135.903 488.405 136.032 488.549 136.328 488.485 136.618L488.477 136.664C488.467 136.762 488.441 137.087 488.434 137.988 488.434 138.03 488.434 138.069 488.437 138.109L488.461 138.566 489.285 138.628 489.407 138.15C489.438 138.027 489.469 137.904 489.505 137.781 489.948 136.313 490.039 136.211 490.128 136.114 490.366 135.852 490.771 135.832 491.033 136.069 491.252 136.268 491.307 136.591 491.165 136.851L491.145 136.894C491.107 136.987 490.99 137.295 490.732 138.15 490.668 138.364 490.61 138.583 490.559 138.797L490.49 139.082 490.733 139.248C490.903 139.368 491.063 139.499 491.214 139.642 491.465 139.485 491.719 139.335 491.976 139.194 491.814 139.026 491.642 138.869 491.459 138.724 491.487 138.615 491.518 138.506 491.55 138.398 491.786 137.614 491.895 137.32 491.927 137.239 492.311 136.508 492.03 135.605 491.299 135.22 490.695 134.903 489.953 135.035 489.495 135.541 489.391 135.652 489.305 135.78 489.242 135.919 488.919 135.154 488.036 134.796 487.272 135.12 486.752 135.34 486.4 135.831 486.358 136.393 485.798 135.787 484.852 135.749 484.246 136.309 484.027 136.512 483.873 136.775 483.805 137.065 483.733 137.368 483.714 137.586 484.061 139.2 484.107 139.414 484.161 139.638 484.221 139.865 483.304 140.897 482.641 142.129 482.286 143.463 481.963 144.783 481.824 146.141 481.873 147.498 481.873 147.628 481.872 147.759 481.87 147.891 481.577 147.903 481.066 147.938 480.372 148.037 478.767 148.265 477.905 148.715 476.958 149.819 476.091 150.831 474.923 152.541 474.791 155.703 474.684 157.759 475.276 159.791 476.471 161.469 477.265 162.558 477.903 163.337 478.299 163.798 478.518 164.07 478.752 164.329 479.001 164.574 479.615 165.14 480.261 165.672 480.934 166.167 483.341 167.903 486.073 169.139 488.967 169.8 489.921 169.976 490.89 170.062 491.861 170.056 494.081 170.056 496.291 169.649 497.307 168.954 498.747 167.968 500 165.096 500.266 163.032 500.673 160.025 500.425 156.965 499.539 154.062Z"/><path d="M491.651 149.867C491.618 149.866 491.586 149.863 491.554 149.855 491.324 149.802 491.181 149.573 491.234 149.343 491.234 149.343 491.234 149.343 491.234 149.343 491.457 148.384 491.96 146.659 492.835 145.879 493.865 144.925 495.084 144.198 496.413 143.744 497.53 143.364 498.127 142.151 497.747 141.034 497.367 139.918 496.154 139.321 495.037 139.701 493.168 140.339 491.452 141.357 489.995 142.69 488.227 144.265 487.382 146.876 486.984 148.787 486.936 149.018 486.71 149.167 486.479 149.119 486.248 149.071 486.1 148.845 486.148 148.614 486.572 146.575 487.485 143.782 489.427 142.052 490.968 140.643 492.784 139.567 494.76 138.892 496.323 138.36 498.022 139.196 498.554 140.759 499.086 142.322 498.25 144.02 496.687 144.552 495.467 144.971 494.348 145.64 493.401 146.517 492.892 146.971 492.404 148.072 492.065 149.536 492.021 149.729 491.849 149.866 491.651 149.867Z"/><path d="M497.579 162.238C497.393 161.484 497.058 160.774 496.595 160.151 496.279 159.772 495.843 159.275 495.391 158.761 494.851 158.148 494.293 157.513 493.896 157.029 493.71 156.802 493.497 156.537 493.288 156.243 493.645 156.08 494.03 155.986 494.422 155.969 494.878 156.008 495.325 156.128 495.739 156.323 495.941 156.444 496.204 156.379 496.325 156.177 496.447 155.975 496.382 155.712 496.18 155.591 495.666 155.328 495.105 155.169 494.53 155.121 493.941 155.119 493.359 155.251 492.828 155.505 492.509 154.939 492.333 154.303 492.315 153.653 492.361 152.444 492.789 151.282 493.537 150.332 493.69 150.152 493.668 149.882 493.488 149.73 493.308 149.577 493.039 149.599 492.886 149.779 492.001 150.883 491.501 152.245 491.461 153.66 491.476 155.385 492.532 156.709 493.194 157.518 493.462 158.392 493.453 159.328 493.169 160.198 493.003 160.721 492.79 161.227 492.532 161.711 492.289 162.168 492.088 162.645 491.93 163.137 491.759 163.941 491.68 164.761 491.697 165.582 491.701 165.815 491.891 166.002 492.124 166.002L492.131 166.002C492.367 165.998 492.555 165.803 492.551 165.567 492.551 165.567 492.551 165.567 492.551 165.567 492.536 164.828 492.604 164.089 492.753 163.365 492.898 162.924 493.08 162.497 493.299 162.088 493.581 161.556 493.813 161 493.992 160.425 494.147 159.875 494.228 159.307 494.233 158.736 494.403 158.931 494.574 159.127 494.745 159.323 495.191 159.831 495.623 160.322 495.935 160.696 496.313 161.218 496.588 161.808 496.744 162.434 496.79 162.626 496.961 162.761 497.159 162.761 497.193 162.761 497.228 162.758 497.261 162.75 497.49 162.696 497.633 162.467 497.579 162.238Z"/></g></svg>