<svg xmlns="http://www.w3.org/2000/svg" xmlns:xlink="http://www.w3.org/1999/xlink" contentStyleType="text/css" height="1037px" preserveAspectRatio="none" style="width:1032px;height:1037px;background:#FFFFFF;" version="1.1" viewBox="0 0 1032 1037" width="1032px" zoomAndPan="magnify"><title>Access Auth To Door FR Unlock Gate Signal Flow</title><defs/><g><text fill="#000000" font-family="Arial" font-size="22" font-weight="bold" lengthAdjust="spacing" textLength="521.9521" x="254.016" y="35.9956">Access Auth To Door FR Unlock Gate Signal Flow</text><text fill="#000000" font-family="Arial" font-size="22" font-weight="bold" lengthAdjust="spacing" textLength="712.626" x="158.6791" y="61.2935">(front-door control + access authorization -&gt; DOOR_FR unlock gate)</text><rect fill="#FFFFFF" height="575.2231" style="stroke:#000000;stroke-width:1;" width="10" x="514.9099" y="316.7339"/><line style="stroke:#000000;stroke-width:1;" x1="67" x2="67" y1="116.8936" y2="993.2017"/><line style="stroke:#000000;stroke-width:1;" x1="193.313" x2="193.313" y1="116.8936" y2="993.2017"/><line style="stroke:#000000;stroke-width:1;" x1="324.0859" x2="324.0859" y1="116.8936" y2="993.2017"/><line style="stroke:#000000;stroke-width:1;" x1="519.3296" x2="519.3296" y1="116.8936" y2="993.2017"/><line style="stroke:#000000;stroke-width:1;" x1="828.8835" x2="828.8835" y1="116.8936" y2="993.2017"/><line style="stroke:#000000;stroke-width:1;" x1="970.7781" x2="970.7781" y1="116.8936" y2="993.2017"/><rect fill="#F4F7FB" height="26.6489" rx="2.5" ry="2.5" style="stroke:#000000;stroke-width:1;" width="95.313" x="20" y="89.2446"/><text fill="#000000" font-family="Arial" font-size="11" lengthAdjust="spacing" textLength="81.313" x="27" y="106.7424">Door-control bus</text><rect fill="#F4F7FB" height="26.6489" rx="2.5" ry="2.5" style="stroke:#000000;stroke-width:1;" width="95.313" x="20" y="992.2017"/><text fill="#000000" font-family="Arial" font-size="11" lengthAdjust="spacing" textLength="81.313" x="27" y="1009.6995">Door-control bus</text><rect fill="#E8F0FE" height="26.6489" rx="2.5" ry="2.5" style="stroke:#000000;stroke-width:1;" width="97.7729" x="145.313" y="89.2446"/><text fill="#000000" font-family="Arial" font-size="11" lengthAdjust="spacing" textLength="83.7729" x="152.313" y="106.7424">Vehicle state bus</text><rect fill="#E8F0FE" height="26.6489" rx="2.5" ry="2.5" style="stroke:#000000;stroke-width:1;" width="97.7729" x="145.313" y="992.2017"/><text fill="#000000" font-family="Arial" font-size="11" lengthAdjust="spacing" textLength="83.7729" x="152.313" y="1009.6995">Vehicle state bus</text><rect fill="#FCE8FF" height="39.2979" rx="2.5" ry="2.5" style="stroke:#000000;stroke-width:1;" width="102.0269" x="273.0859" y="76.5957"/><text fill="#000000" font-family="Arial" font-size="11" lengthAdjust="spacing" textLength="57.46" x="295.3694" y="94.0935">Digital-key /</text><text fill="#000000" font-family="Arial" font-size="11" lengthAdjust="spacing" textLength="88.0269" x="280.0859" y="106.7424">immobilizer buses</text><rect fill="#FCE8FF" height="39.2979" rx="2.5" ry="2.5" style="stroke:#000000;stroke-width:1;" width="102.0269" x="273.0859" y="992.2017"/><text fill="#000000" font-family="Arial" font-size="11" lengthAdjust="spacing" textLength="57.46" x="295.3694" y="1009.6995">Digital-key /</text><text fill="#000000" font-family="Arial" font-size="11" lengthAdjust="spacing" textLength="88.0269" x="280.0859" y="1022.3484">immobilizer buses</text><rect fill="#E8F7E8" height="39.2979" rx="2.5" ry="2.5" style="stroke:#000000;stroke-width:1;" width="119.1606" x="460.3296" y="76.5957"/><text fill="#000000" font-family="Arial" font-size="11" lengthAdjust="spacing" textLength="53.7808" x="493.0195" y="94.0935">DOOR_FR</text><text fill="#000000" font-family="Arial" font-size="11" lengthAdjust="spacing" textLength="105.1606" x="467.3296" y="106.7424">front-right door owner</text><rect fill="#E8F7E8" height="39.2979" rx="2.5" ry="2.5" style="stroke:#000000;stroke-width:1;" width="119.1606" x="460.3296" y="992.2017"/><text fill="#000000" font-family="Arial" font-size="11" lengthAdjust="spacing" textLength="53.7808" x="493.0195" y="1009.6995">DOOR_FR</text><text fill="#000000" font-family="Arial" font-size="11" lengthAdjust="spacing" textLength="105.1606" x="467.3296" y="1022.3484">front-right door owner</text><rect fill="#FFF4CC" height="26.6489" rx="2.5" ry="2.5" style="stroke:#000000;stroke-width:1;" width="103.2568" x="777.8835" y="89.2446"/><text fill="#000000" font-family="Arial" font-size="11" lengthAdjust="spacing" textLength="89.2568" x="784.8835" y="106.7424">Door FR state bus</text><rect fill="#FFF4CC" height="26.6489" rx="2.5" ry="2.5" style="stroke:#000000;stroke-width:1;" width="103.2568" x="777.8835" y="992.2017"/><text fill="#000000" font-family="Arial" font-size="11" lengthAdjust="spacing" textLength="89.2568" x="784.8835" y="1009.6995">Door FR state bus</text><rect fill="#FFF4CC" height="39.2979" rx="2.5" ry="2.5" style="stroke:#000000;stroke-width:1;" width="78.2061" x="931.7781" y="76.5957"/><text fill="#000000" font-family="Arial" font-size="11" lengthAdjust="spacing" textLength="56.8477" x="942.4573" y="94.0935">Observers /</text><text fill="#000000" font-family="Arial" font-size="11" lengthAdjust="spacing" textLength="64.2061" x="938.7781" y="106.7424">body readers</text><rect fill="#FFF4CC" height="39.2979" rx="2.5" ry="2.5" style="stroke:#000000;stroke-width:1;" width="78.2061" x="931.7781" y="992.2017"/><text fill="#000000" font-family="Arial" font-size="11" lengthAdjust="spacing" textLength="56.8477" x="942.4573" y="1009.6995">Observers /</text><text fill="#000000" font-family="Arial" font-size="11" lengthAdjust="spacing" textLength="64.2061" x="938.7781" y="1022.3484">body readers</text><rect fill="#FFFFFF" height="575.2231" style="stroke:#000000;stroke-width:1;" width="10" x="514.9099" y="316.7339"/><rect fill="#FFFFFF" height="3" style="stroke:#FFFFFF;stroke-width:1;" width="1020.9841" x="5" y="146.218"/><line style="stroke:#000000;stroke-width:0.5;" x1="5" x2="1025.9841" y1="146.218" y2="146.218"/><line style="stroke:#000000;stroke-width:0.5;" x1="5" x2="1025.9841" y1="149.218" y2="149.218"/><rect fill="#FFFFFF" height="20.6489" style="stroke:#000000;stroke-width:1;" width="96.4893" x="467.2474" y="136.8936"/><text fill="#000000" font-family="Arial" font-size="11" font-weight="bold" lengthAdjust="spacing" textLength="79.4331" x="473.2474" y="151.3914">Door FR Inputs</text><polygon fill="#000000" points="507.9099,194.8403,517.9099,198.8403,507.9099,202.8403,511.9099,198.8403" style="stroke:#000000;stroke-width:1;"/><line style="stroke:#000000;stroke-width:1;" x1="67.6565" x2="513.9099" y1="198.8403" y2="198.8403"/><text fill="#000000" font-family="Arial" font-size="11" lengthAdjust="spacing" textLength="95.9653" x="245.8005" y="182.0403">frmDoorControlMsg</text><text fill="#000000" font-family="Arial" font-size="11" lengthAdjust="spacing" textLength="82.5269" x="252.5198" y="194.6892">DoorControlCmd</text><polygon fill="#000000" points="507.9099,234.1382,517.9099,238.1382,507.9099,242.1382,511.9099,238.1382" style="stroke:#000000;stroke-width:1;"/><line style="stroke:#000000;stroke-width:1;" x1="194.1995" x2="513.9099" y1="238.1382" y2="238.1382"/><text fill="#000000" font-family="Arial" font-size="11" lengthAdjust="spacing" textLength="118.6045" x="297.7524" y="221.3381">frmVehicleStateCanMsg</text><text fill="#000000" font-family="Arial" font-size="11" lengthAdjust="spacing" textLength="57.4707" x="328.3193" y="233.9871">gDriveState</text><polygon fill="#000000" points="507.9099,273.436,517.9099,277.436,507.9099,281.436,511.9099,277.436" style="stroke:#000000;stroke-width:1;"/><line style="stroke:#000000;stroke-width:1;" x1="324.0994" x2="513.9099" y1="277.436" y2="277.436"/><text fill="#000000" font-family="Arial" font-size="11" lengthAdjust="spacing" textLength="111.8691" x="366.0701" y="260.636">frmDigitalKeyStateMsg</text><text fill="#000000" font-family="Arial" font-size="11" lengthAdjust="spacing" textLength="171.8105" x="336.0994" y="273.2849">VehicleAccessState / KeyPresence</text><polygon fill="#000000" points="502.9099,312.7339,512.9099,316.7339,502.9099,320.7339,506.9099,316.7339" style="stroke:#000000;stroke-width:1;"/><line style="stroke:#000000;stroke-width:1;" x1="324.0994" x2="508.9099" y1="316.7339" y2="316.7339"/><text fill="#000000" font-family="Arial" font-size="11" lengthAdjust="spacing" textLength="118.5776" x="360.2158" y="299.9338">frmImmobilizerStateMsg</text><text fill="#000000" font-family="Arial" font-size="11" lengthAdjust="spacing" textLength="158.3506" x="340.3293" y="312.5828">ImmobilizerState / KeyAuthState</text><line style="stroke:#000000;stroke-width:1;" x1="524.9099" x2="566.9099" y1="356.0317" y2="356.0317"/><line style="stroke:#000000;stroke-width:1;" x1="566.9099" x2="566.9099" y1="356.0317" y2="369.0317"/><line style="stroke:#000000;stroke-width:1;" x1="525.9099" x2="566.9099" y1="369.0317" y2="369.0317"/><polygon fill="#000000" points="535.9099,365.0317,525.9099,369.0317,535.9099,373.0317,531.9099,369.0317" style="stroke:#000000;stroke-width:1;"/><text fill="#000000" font-family="Arial" font-size="11" lengthAdjust="spacing" textLength="100.8745" x="561.8672" y="339.2317">freshness checks for</text><text fill="#000000" font-family="Arial" font-size="11" lengthAdjust="spacing" textLength="160.7891" x="531.9099" y="351.8806">door control, vehicle, dkey, immo</text><line style="stroke:#000000;stroke-width:1;" x1="524.9099" x2="566.9099" y1="408.3296" y2="408.3296"/><line style="stroke:#000000;stroke-width:1;" x1="566.9099" x2="566.9099" y1="408.3296" y2="421.3296"/><line style="stroke:#000000;stroke-width:1;" x1="525.9099" x2="566.9099" y1="421.3296" y2="421.3296"/><polygon fill="#000000" points="535.9099,417.3296,525.9099,421.3296,535.9099,425.3296,531.9099,421.3296" style="stroke:#000000;stroke-width:1;"/><text fill="#000000" font-family="Arial" font-size="11" lengthAdjust="spacing" textLength="112.5029" x="541.9888" y="391.5295">manualMode may read</text><text fill="#000000" font-family="Arial" font-size="11" lengthAdjust="spacing" textLength="132.6606" x="531.9099" y="404.1785">Chassis::driveState directly</text><line style="stroke:#000000;stroke-width:1;" x1="524.9099" x2="566.9099" y1="460.6274" y2="460.6274"/><line style="stroke:#000000;stroke-width:1;" x1="566.9099" x2="566.9099" y1="460.6274" y2="473.6274"/><line style="stroke:#000000;stroke-width:1;" x1="525.9099" x2="566.9099" y1="473.6274" y2="473.6274"/><polygon fill="#000000" points="535.9099,469.6274,525.9099,473.6274,535.9099,477.6274,531.9099,473.6274" style="stroke:#000000;stroke-width:1;"/><text fill="#000000" font-family="Arial" font-size="11" lengthAdjust="spacing" textLength="96.3037" x="583.1179" y="443.8274">accessAuthorized =</text><text fill="#000000" font-family="Arial" font-size="11" lengthAdjust="spacing" textLength="198.7197" x="531.9099" y="456.4763">parked vehicle and dkey/immo auth valid</text><line style="stroke:#000000;stroke-width:1;" x1="524.9099" x2="566.9099" y1="512.9253" y2="512.9253"/><line style="stroke:#000000;stroke-width:1;" x1="566.9099" x2="566.9099" y1="512.9253" y2="525.9253"/><line style="stroke:#000000;stroke-width:1;" x1="525.9099" x2="566.9099" y1="525.9253" y2="525.9253"/><polygon fill="#000000" points="535.9099,521.9253,525.9099,525.9253,535.9099,529.9253,531.9099,525.9253" style="stroke:#000000;stroke-width:1;"/><text fill="#000000" font-family="Arial" font-size="11" lengthAdjust="spacing" textLength="82.2476" x="541.3765" y="496.1252">unlockRequest =</text><text fill="#000000" font-family="Arial" font-size="11" lengthAdjust="spacing" textLength="101.1807" x="531.9099" y="508.7742">DoorControlCmd &gt; 0</text><line style="stroke:#000000;stroke-width:1;" x1="524.9099" x2="566.9099" y1="565.2231" y2="565.2231"/><line style="stroke:#000000;stroke-width:1;" x1="566.9099" x2="566.9099" y1="565.2231" y2="578.2231"/><line style="stroke:#000000;stroke-width:1;" x1="525.9099" x2="566.9099" y1="578.2231" y2="578.2231"/><polygon fill="#000000" points="535.9099,574.2231,525.9099,578.2231,535.9099,582.2231,531.9099,578.2231" style="stroke:#000000;stroke-width:1;"/><text fill="#000000" font-family="Arial" font-size="11" lengthAdjust="spacing" textLength="84.3853" x="552.0972" y="548.4231">unlock only when</text><text fill="#000000" font-family="Arial" font-size="11" lengthAdjust="spacing" textLength="124.7598" x="531.9099" y="561.072">authorized and requested</text><path d="M529,591.2231 L529,664.2231 L728,664.2231 L728,601.2231 L718,591.2231 L529,591.2231 " fill="#FFFFFF" style="stroke:#000000;stroke-width:1;"/><path d="M718,591.2231 L718,601.2231 L728,601.2231 L718,591.2231 " fill="#FFFFFF" style="stroke:#000000;stroke-width:1;"/><text fill="#000000" font-family="Arial" font-size="11" lengthAdjust="spacing" textLength="139.4229" x="535" y="606.7209">Representative gating inputs</text><text fill="#000000" font-family="Arial" font-size="11" lengthAdjust="spacing" textLength="89.2461" x="535" y="619.3699">- DoorControlCmd</text><text fill="#000000" font-family="Arial" font-size="11" lengthAdjust="spacing" textLength="64.1899" x="535" y="632.0188">- gDriveState</text><text fill="#000000" font-family="Arial" font-size="11" lengthAdjust="spacing" textLength="178.5298" x="535" y="644.6677">- VehicleAccessState / KeyPresence</text><text fill="#000000" font-family="Arial" font-size="11" lengthAdjust="spacing" textLength="165.0698" x="535" y="657.3167">- ImmobilizerState / KeyAuthState</text><rect fill="#FFFFFF" height="3" style="stroke:#FFFFFF;stroke-width:1;" width="1020.9841" x="5" y="688.7922"/><line style="stroke:#000000;stroke-width:0.5;" x1="5" x2="1025.9841" y1="688.7922" y2="688.7922"/><line style="stroke:#000000;stroke-width:0.5;" x1="5" x2="1025.9841" y1="691.7922" y2="691.7922"/><rect fill="#FFFFFF" height="20.6489" style="stroke:#000000;stroke-width:1;" width="103.2192" x="463.8824" y="679.4678"/><text fill="#000000" font-family="Arial" font-size="11" font-weight="bold" lengthAdjust="spacing" textLength="86.1631" x="469.8824" y="693.9656">Door FR Publish</text><polygon fill="#000000" points="817.512,737.4146,827.512,741.4146,817.512,745.4146,821.512,741.4146" style="stroke:#000000;stroke-width:1;"/><line style="stroke:#000000;stroke-width:1;" x1="524.9099" x2="823.512" y1="741.4146" y2="741.4146"/><text fill="#000000" font-family="Arial" font-size="11" lengthAdjust="spacing" textLength="96.5723" x="628.9248" y="724.6145">frmDoorFrStateMsg</text><text fill="#000000" font-family="Arial" font-size="11" lengthAdjust="spacing" textLength="280.6021" x="536.9099" y="737.2634">DoorFrLockState / DoorFrOpenState / DoorFrWindowPos</text><path d="M529,754.4146 L529,814.4146 L663,814.4146 L663,764.4146 L653,754.4146 L529,754.4146 " fill="#FFFFFF" style="stroke:#000000;stroke-width:1;"/><path d="M653,754.4146 L653,764.4146 L663,764.4146 L653,754.4146 " fill="#FFFFFF" style="stroke:#000000;stroke-width:1;"/><text fill="#000000" font-family="Arial" font-size="11" lengthAdjust="spacing" textLength="113.126" x="535" y="769.9124">Representative outputs</text><text fill="#000000" font-family="Arial" font-size="11" lengthAdjust="spacing" textLength="89.8638" x="535" y="782.5613">- DoorFrLockState</text><text fill="#000000" font-family="Arial" font-size="11" lengthAdjust="spacing" textLength="93.5376" x="535" y="795.2102">- DoorFrOpenState</text><text fill="#000000" font-family="Arial" font-size="11" lengthAdjust="spacing" textLength="99.0215" x="535" y="807.8591">- DoorFrWindowPos</text><rect fill="#FFFFFF" height="3" style="stroke:#FFFFFF;stroke-width:1;" width="1020.9841" x="5" y="839.3347"/><line style="stroke:#000000;stroke-width:0.5;" x1="5" x2="1025.9841" y1="839.3347" y2="839.3347"/><line style="stroke:#000000;stroke-width:0.5;" x1="5" x2="1025.9841" y1="842.3347" y2="842.3347"/><rect fill="#FFFFFF" height="20.6489" style="stroke:#000000;stroke-width:1;" width="131.3638" x="449.8102" y="830.0103"/><text fill="#000000" font-family="Arial" font-size="11" font-weight="bold" lengthAdjust="spacing" textLength="114.3076" x="455.8102" y="844.5081">Downstream Visibility</text><polygon fill="#000000" points="958.8811,887.957,968.8811,891.957,958.8811,895.957,962.8811,891.957" style="stroke:#000000;stroke-width:1;"/><line style="stroke:#000000;stroke-width:1;" x1="829.512" x2="964.8811" y1="891.957" y2="891.957"/><text fill="#000000" font-family="Arial" font-size="11" lengthAdjust="spacing" textLength="117.3691" x="841.512" y="875.157">front-door lock visibility /</text><text fill="#000000" font-family="Arial" font-size="11" lengthAdjust="spacing" textLength="75.2061" x="862.5935" y="887.8059">body observers</text><path d="M16,904.957 L16,977.957 L1020,977.957 L1020,914.957 L1010,904.957 L16,904.957 " fill="#FFFFFF" style="stroke:#000000;stroke-width:1;"/><path d="M1010,904.957 L1010,914.957 L1020,914.957 L1010,904.957 " fill="#FFFFFF" style="stroke:#000000;stroke-width:1;"/><text fill="#000000" font-family="Arial" font-size="11" lengthAdjust="spacing" textLength="143.0752" x="311.6361" y="920.4548">Representative runtime chain</text><text fill="#000000" font-family="Arial" font-size="11" lengthAdjust="spacing" textLength="404.7119" x="311.6361" y="933.1038">1. Front-door control, vehicle, digital-key, and immobilizer context reach DOOR_FR</text><text fill="#000000" font-family="Arial" font-size="11" lengthAdjust="spacing" textLength="277.562" x="311.6361" y="945.7527">2. DOOR_FR resolves parked-state access authorization</text><text fill="#000000" font-family="Arial" font-size="11" lengthAdjust="spacing" textLength="245.1904" x="311.6361" y="958.4016">3. Unlock request is gated by access authorization</text><text fill="#000000" font-family="Arial" font-size="11" lengthAdjust="spacing" textLength="263.5005" x="311.6361" y="971.0505">4. DOOR_FR publishes final front-right door lock state</text><!--SRC=[ZLLHRzCm47xFhpZO2uXcOp09DAb8NRSW16FJ1kEb4dAJQsBLjOljj9HVpvtTf6dM2VgKddtVVNV-xkwPht21i5H2wiJDfLuAAnOm5VcyjARMnTWeO-4e2x_EZG9debO-Czf_5OGmibAem-VtyW_2wMddqE6l6dMEr-YSA76aPAaXH-tHTcvPT4kZNNFh0fLPZwmrQ_2snYJnqYiAdETq3gFQL_3DmAKXkjaTVDVAv7FuA3p2FS4B1HdvJ_IBcILEQS7tSlgoHi4h415548gnye_mqcX8Fy3bpStTJuAh8rn9S2-JXFXvcSkbq1wUSyIqGPhMxZa85sYClQB2dMNliejzZmUiP4xKdMTsZGjPuUZgVVOwk-e5aANqGgLptC39HCl5maobeg9QziNelIt3KJOcYAm749EOw9YwbMNb8HJ0h3NQbZ3boGJUNRr_d27NT9ylMozg5xHnDXxlkznC7TeLMiUCfwROq6kAWlu7LpfjtPBXi7sqJtfPUmV3OP8q1UGtYDJEOMONmHnhVUtAYUxy7o-AX6lOyzWM-vwvZuKENkMbbQjeIhQ5wyU9DV-Cct0hU6sHeaCmmmdGZLiIAglv2QXFk_VQOVMD4Ob575c9tCiLsoDIiWNSXqPNQGwOLvZF7SoCdUYkhWUmYfG7K91u1i3IEGIr4BeMwjeKI9_ngIPwN0ddf3i_BzfYGI4jvbvj3e745XfjEmWB64wuaUVqjQK1GXU1oGaJ2Sq6Aw5aSGWkTjmTJmhd6Ml_gU43l7xQ3OnM6rXNg2TQx1XnV1iHiKYqeOnYCvXPK-WxN8Rdf7GfQsvugKkGGPX92ZszfT2LKWh_b4WA_tfv98xCRAynRkkfagvgEsEND7TWsnbPHs7n_nSgHXCcMcwMgFSjFoIfPdrht7zLnDI-KujEXDRIHcWjkmYzxDRQULBR0XwaarmLlsbpvCmeIPuLd60xjCFxhdRtcm5Zcf6J5DXldvYPeTDcCWyOk9-RhRMNjCpoYjVXwJ5aZtP5jwTsStaGfDMTp7mTVtlkfRngraZovhZTA1JNg1KwY3sInk5wQ0ybRu-RTROLBqWNLb41qyrXbxDTe6NK3aMQILw3ZvP0G7RxuliB]--></g></svg>