<svg xmlns="http://www.w3.org/2000/svg" xmlns:xlink="http://www.w3.org/1999/xlink" contentStyleType="text/css" height="856px" preserveAspectRatio="none" style="width:839px;height:856px;background:#FFFFFF;" version="1.1" viewBox="0 0 839 856" width="839px" zoomAndPan="magnify"><title>AFLS Input To AHLS High Beam Permit Signal Flow</title><defs/><g><text fill="#000000" font-family="Arial" font-size="22" font-weight="bold" lengthAdjust="spacing" textLength="540.2354" x="147.9868" y="35.9956">AFLS Input To AHLS High Beam Permit Signal Flow</text><text fill="#000000" font-family="Arial" font-size="22" font-weight="bold" lengthAdjust="spacing" textLength="695.6211" x="70.2939" y="61.2935">(AFLS state + vehicle speed -&gt; AHLS assist and high-beam permit)</text><line style="stroke:#000000;stroke-width:1;" x1="71" x2="71" y1="116.8936" y2="812.0635"/><line style="stroke:#000000;stroke-width:1;" x1="266.5859" x2="266.5859" y1="116.8936" y2="812.0635"/><line style="stroke:#000000;stroke-width:1;" x1="589.1216" x2="589.1216" y1="116.8936" y2="812.0635"/><line style="stroke:#000000;stroke-width:1;" x1="747.4922" x2="747.4922" y1="116.8936" y2="812.0635"/><rect fill="#F4F7FB" height="39.2979" rx="2.5" ry="2.5" style="stroke:#000000;stroke-width:1;" width="81.2676" x="31" y="76.5957"/><text fill="#000000" font-family="Arial" font-size="11" lengthAdjust="spacing" textLength="60.5269" x="41.3704" y="94.0935">AFLS state /</text><text fill="#000000" font-family="Arial" font-size="11" lengthAdjust="spacing" textLength="67.2676" x="38" y="106.7424">vehicle speed</text><rect fill="#F4F7FB" height="39.2979" rx="2.5" ry="2.5" style="stroke:#000000;stroke-width:1;" width="81.2676" x="31" y="811.0635"/><text fill="#000000" font-family="Arial" font-size="11" lengthAdjust="spacing" textLength="60.5269" x="41.3704" y="828.5613">AFLS state /</text><text fill="#000000" font-family="Arial" font-size="11" lengthAdjust="spacing" textLength="67.2676" x="38" y="841.2102">vehicle speed</text><rect fill="#E8F7E8" height="39.2979" rx="2.5" ry="2.5" style="stroke:#000000;stroke-width:1;" width="126.5029" x="203.5859" y="76.5957"/><text fill="#000000" font-family="Arial" font-size="11" lengthAdjust="spacing" textLength="28.7354" x="252.4697" y="94.0935">AHLS</text><text fill="#000000" font-family="Arial" font-size="11" lengthAdjust="spacing" textLength="112.5029" x="210.5859" y="106.7424">headlamp assist owner</text><rect fill="#E8F7E8" height="39.2979" rx="2.5" ry="2.5" style="stroke:#000000;stroke-width:1;" width="126.5029" x="203.5859" y="811.0635"/><text fill="#000000" font-family="Arial" font-size="11" lengthAdjust="spacing" textLength="28.7354" x="252.4697" y="828.5613">AHLS</text><text fill="#000000" font-family="Arial" font-size="11" lengthAdjust="spacing" textLength="112.5029" x="210.5859" y="841.2102">headlamp assist owner</text><rect fill="#FFF4CC" height="26.6489" rx="2.5" ry="2.5" style="stroke:#000000;stroke-width:1;" width="90.4307" x="544.1216" y="89.2446"/><text fill="#000000" font-family="Arial" font-size="11" lengthAdjust="spacing" textLength="76.4307" x="551.1216" y="106.7424">AHLS state bus</text><rect fill="#FFF4CC" height="26.6489" rx="2.5" ry="2.5" style="stroke:#000000;stroke-width:1;" width="90.4307" x="544.1216" y="811.0635"/><text fill="#000000" font-family="Arial" font-size="11" lengthAdjust="spacing" textLength="76.4307" x="551.1216" y="828.5613">AHLS state bus</text><rect fill="#E8F0FE" height="26.6489" rx="2.5" ry="2.5" style="stroke:#000000;stroke-width:1;" width="138.7168" x="678.4922" y="89.2446"/><text fill="#000000" font-family="Arial" font-size="11" lengthAdjust="spacing" textLength="124.7168" x="685.4922" y="106.7424">Observers / lighting users</text><rect fill="#E8F0FE" height="26.6489" rx="2.5" ry="2.5" style="stroke:#000000;stroke-width:1;" width="138.7168" x="678.4922" y="811.0635"/><text fill="#000000" font-family="Arial" font-size="11" lengthAdjust="spacing" textLength="124.7168" x="685.4922" y="828.5613">Observers / lighting users</text><rect fill="#FFFFFF" height="3" style="stroke:#FFFFFF;stroke-width:1;" width="827.209" x="5" y="146.218"/><line style="stroke:#000000;stroke-width:0.5;" x1="5" x2="832.209" y1="146.218" y2="146.218"/><line style="stroke:#000000;stroke-width:0.5;" x1="5" x2="832.209" y1="149.218" y2="149.218"/><rect fill="#FFFFFF" height="20.6489" style="stroke:#000000;stroke-width:1;" width="96.4785" x="370.3652" y="136.8936"/><text fill="#000000" font-family="Arial" font-size="11" font-weight="bold" lengthAdjust="spacing" textLength="79.4224" x="376.3652" y="151.3914">Lighting Inputs</text><polygon fill="#000000" points="254.8374,194.8403,264.8374,198.8403,254.8374,202.8403,258.8374,198.8403" style="stroke:#000000;stroke-width:1;"/><line style="stroke:#000000;stroke-width:1;" x1="71.6338" x2="260.8374" y1="198.8403" y2="198.8403"/><text fill="#000000" font-family="Arial" font-size="11" lengthAdjust="spacing" textLength="171.2036" x="83.6338" y="182.0403">aflsMode / beamPattern / levelStep</text><text fill="#000000" font-family="Arial" font-size="11" lengthAdjust="spacing" textLength="66.0483" x="136.2114" y="194.6892">vehicleSpeed</text><line style="stroke:#000000;stroke-width:1;" x1="266.8374" x2="308.8374" y1="238.1382" y2="238.1382"/><line style="stroke:#000000;stroke-width:1;" x1="308.8374" x2="308.8374" y1="238.1382" y2="251.1382"/><line style="stroke:#000000;stroke-width:1;" x1="267.8374" x2="308.8374" y1="251.1382" y2="251.1382"/><polygon fill="#000000" points="277.8374,247.1382,267.8374,251.1382,277.8374,255.1382,273.8374,251.1382" style="stroke:#000000;stroke-width:1;"/><text fill="#000000" font-family="Arial" font-size="11" lengthAdjust="spacing" textLength="86.8237" x="344.0081" y="221.3381">if AFLS stale then</text><text fill="#000000" font-family="Arial" font-size="11" lengthAdjust="spacing" textLength="227.165" x="273.8374" y="233.9871">aflsMode = 0 / beamPattern = 0 / levelStep = 0</text><line style="stroke:#000000;stroke-width:1;" x1="266.8374" x2="308.8374" y1="290.436" y2="290.436"/><line style="stroke:#000000;stroke-width:1;" x1="308.8374" x2="308.8374" y1="290.436" y2="303.436"/><line style="stroke:#000000;stroke-width:1;" x1="267.8374" x2="308.8374" y1="303.436" y2="303.436"/><polygon fill="#000000" points="277.8374,299.436,267.8374,303.436,277.8374,307.436,273.8374,303.436" style="stroke:#000000;stroke-width:1;"/><text fill="#000000" font-family="Arial" font-size="11" lengthAdjust="spacing" textLength="93.5537" x="273.8374" y="273.636">if vehicle stale then</text><text fill="#000000" font-family="Arial" font-size="11" lengthAdjust="spacing" textLength="48.6245" x="296.302" y="286.2849">speed = 0</text><line style="stroke:#000000;stroke-width:1;" x1="266.8374" x2="308.8374" y1="330.085" y2="330.085"/><line style="stroke:#000000;stroke-width:1;" x1="308.8374" x2="308.8374" y1="330.085" y2="343.085"/><line style="stroke:#000000;stroke-width:1;" x1="267.8374" x2="308.8374" y1="343.085" y2="343.085"/><polygon fill="#000000" points="277.8374,339.085,267.8374,343.085,277.8374,347.085,273.8374,343.085" style="stroke:#000000;stroke-width:1;"/><text fill="#000000" font-family="Arial" font-size="11" lengthAdjust="spacing" textLength="170.5859" x="273.8374" y="325.9338">assistState = (aflsMode &gt; 0) ? 1 : 0</text><line style="stroke:#000000;stroke-width:1;" x1="266.8374" x2="308.8374" y1="369.7339" y2="369.7339"/><line style="stroke:#000000;stroke-width:1;" x1="308.8374" x2="308.8374" y1="369.7339" y2="382.7339"/><line style="stroke:#000000;stroke-width:1;" x1="267.8374" x2="308.8374" y1="382.7339" y2="382.7339"/><polygon fill="#000000" points="277.8374,378.7339,267.8374,382.7339,277.8374,386.7339,273.8374,382.7339" style="stroke:#000000;stroke-width:1;"/><text fill="#000000" font-family="Arial" font-size="11" lengthAdjust="spacing" textLength="308.4995" x="273.8374" y="365.5828">highBeamPermit = (speed &gt;= 50 and beamPattern &lt;= 2) ? 1 : 0</text><line style="stroke:#000000;stroke-width:1;" x1="266.8374" x2="308.8374" y1="409.3828" y2="409.3828"/><line style="stroke:#000000;stroke-width:1;" x1="308.8374" x2="308.8374" y1="409.3828" y2="422.3828"/><line style="stroke:#000000;stroke-width:1;" x1="267.8374" x2="308.8374" y1="422.3828" y2="422.3828"/><polygon fill="#000000" points="277.8374,418.3828,267.8374,422.3828,277.8374,426.3828,273.8374,422.3828" style="stroke:#000000;stroke-width:1;"/><text fill="#000000" font-family="Arial" font-size="11" lengthAdjust="spacing" textLength="210.9604" x="273.8374" y="405.2317">glareCutLevel = levelStep/2 + permit bonus</text><path d="M271,435.3828 L271,482.3828 L469,482.3828 L469,445.3828 L459,435.3828 L271,435.3828 " fill="#FFFFFF" style="stroke:#000000;stroke-width:1;"/><path d="M459,435.3828 L459,445.3828 L469,445.3828 L459,435.3828 " fill="#FFFFFF" style="stroke:#000000;stroke-width:1;"/><text fill="#000000" font-family="Arial" font-size="11" lengthAdjust="spacing" textLength="139.4229" x="277" y="450.8806">Representative gating inputs</text><text fill="#000000" font-family="Arial" font-size="11" lengthAdjust="spacing" textLength="177.9229" x="277" y="463.5295">- aflsMode / beamPattern / levelStep</text><text fill="#000000" font-family="Arial" font-size="11" lengthAdjust="spacing" textLength="72.7676" x="277" y="476.1785">- vehicleSpeed</text><rect fill="#FFFFFF" height="3" style="stroke:#FFFFFF;stroke-width:1;" width="827.209" x="5" y="507.6541"/><line style="stroke:#000000;stroke-width:0.5;" x1="5" x2="832.209" y1="507.6541" y2="507.6541"/><line style="stroke:#000000;stroke-width:0.5;" x1="5" x2="832.209" y1="510.6541" y2="510.6541"/><rect fill="#FFFFFF" height="20.6489" style="stroke:#000000;stroke-width:1;" width="89.7808" x="373.7141" y="498.3296"/><text fill="#000000" font-family="Arial" font-size="11" font-weight="bold" lengthAdjust="spacing" textLength="72.7246" x="379.7141" y="512.8274">AHLS Publish</text><polygon fill="#000000" points="577.3369,556.2764,587.3369,560.2764,577.3369,564.2764,581.3369,560.2764" style="stroke:#000000;stroke-width:1;"/><line style="stroke:#000000;stroke-width:1;" x1="266.8374" x2="583.3369" y1="560.2764" y2="560.2764"/><text fill="#000000" font-family="Arial" font-size="11" lengthAdjust="spacing" textLength="83.7461" x="386.2141" y="543.4763">frmAhlsStateMsg</text><text fill="#000000" font-family="Arial" font-size="11" lengthAdjust="spacing" textLength="248.209" x="303.9827" y="556.1252">AhlsAssistState / HighBeamPermit / GlareCutLevel</text><path d="M271,573.2764 L271,633.2764 L405,633.2764 L405,583.2764 L395,573.2764 L271,573.2764 " fill="#FFFFFF" style="stroke:#000000;stroke-width:1;"/><path d="M395,573.2764 L395,583.2764 L405,583.2764 L395,573.2764 " fill="#FFFFFF" style="stroke:#000000;stroke-width:1;"/><text fill="#000000" font-family="Arial" font-size="11" lengthAdjust="spacing" textLength="113.126" x="277" y="588.7742">Representative outputs</text><text fill="#000000" font-family="Arial" font-size="11" lengthAdjust="spacing" textLength="83.1392" x="277" y="601.4231">- AhlsAssistState</text><text fill="#000000" font-family="Arial" font-size="11" lengthAdjust="spacing" textLength="89.8584" x="277" y="614.072">- HighBeamPermit</text><text fill="#000000" font-family="Arial" font-size="11" lengthAdjust="spacing" textLength="77.0322" x="277" y="626.7209">- GlareCutLevel</text><rect fill="#FFFFFF" height="3" style="stroke:#FFFFFF;stroke-width:1;" width="827.209" x="5" y="658.1965"/><line style="stroke:#000000;stroke-width:0.5;" x1="5" x2="832.209" y1="658.1965" y2="658.1965"/><line style="stroke:#000000;stroke-width:0.5;" x1="5" x2="832.209" y1="661.1965" y2="661.1965"/><rect fill="#FFFFFF" height="20.6489" style="stroke:#000000;stroke-width:1;" width="131.3638" x="352.9226" y="648.8721"/><text fill="#000000" font-family="Arial" font-size="11" font-weight="bold" lengthAdjust="spacing" textLength="114.3076" x="358.9226" y="663.3699">Downstream Visibility</text><polygon fill="#000000" points="735.8506,706.8188,745.8506,710.8188,735.8506,714.8188,739.8506,710.8188" style="stroke:#000000;stroke-width:1;"/><line style="stroke:#000000;stroke-width:1;" x1="589.3369" x2="741.8506" y1="710.8188" y2="710.8188"/><text fill="#000000" font-family="Arial" font-size="11" lengthAdjust="spacing" textLength="134.5137" x="601.3369" y="694.0188">headlamp-assist readback /</text><text fill="#000000" font-family="Arial" font-size="11" lengthAdjust="spacing" textLength="91.7114" x="622.738" y="706.6677">lighting consumers</text><path d="M10,723.8188 L10,796.8188 L811,796.8188 L811,733.8188 L801,723.8188 L10,723.8188 " fill="#FFFFFF" style="stroke:#000000;stroke-width:1;"/><path d="M801,723.8188 L801,733.8188 L811,733.8188 L801,723.8188 " fill="#FFFFFF" style="stroke:#000000;stroke-width:1;"/><text fill="#000000" font-family="Arial" font-size="11" lengthAdjust="spacing" textLength="143.0752" x="238.5693" y="739.3167">Representative runtime chain</text><text fill="#000000" font-family="Arial" font-size="11" lengthAdjust="spacing" textLength="220.7412" x="238.5693" y="751.9656">1. AFLS state and vehicle speed reach AHLS</text><text fill="#000000" font-family="Arial" font-size="11" lengthAdjust="spacing" textLength="282.4658" x="238.5693" y="764.6145">2. AHLS decides assist activity and high-beam permission</text><text fill="#000000" font-family="Arial" font-size="11" lengthAdjust="spacing" textLength="218.2813" x="238.5693" y="777.2634">3. AHLS publishes glare-cut and permit state</text><text fill="#000000" font-family="Arial" font-size="11" lengthAdjust="spacing" textLength="335.0703" x="238.5693" y="789.9124">4. Lighting observers consume the effective headlamp-assist posture</text><!--SRC=[ZLHDRzD04BtlhnZQIn6aIKjHgmeN9Q6cI2rK177APMDFx5KtksO_Kk3NCxlhk4uQfFfcU-RDl3VpvfMhSONGI2uKimz2DTpm5InuyL0PxLKvrL8RECpZquieSSczTBbMxYidXB4HNEx_FnD_4KvEUZyj_lAe2hn3Qtc5Ooag1GKgXwONPT0sMjbDr0IbVXmRen_16O-CEU4a5SvlP_15DTx13mtZ6tgx4LKD4oI8UpGhuM16-5n2JW1pTHGphECEuGsiiHO5mTW6iOJ1LKBWrWhhWAiIQW8RB09O4y5UCqRjEL68XYi71psquLnjmHqG3jnIlfkwtwJXMNwUJtQogTfSrSXBoLVDfgv-L6XYTkpcyFeYFx- -U9xPrbrucu9hQIVUnccTJQVRyTyM5iqQZOKXoD2JK1Lu-fPowNUiCygl6Skor7O8YT9Qo3B6EYeRcIw1BwMzqoLnXw3HFNSqGnLAu1hbp67JQJ8Bah2OzvGlbh0Ha5IZPLHprM5cCDh1JLywxF2-1x4RGWyqpNTFV99y5eNCuAWhVWMZr_0HJYZaMKxOYR1VxNfHMeA_ok3zA6vDl-aF6Pp-5wgItE3Kkzl0YP0wRiDJsiwqSh3GobkcDBLemWn0BsC- -uuDkOICmvrO8rGyZap4aR712wP3GLlZGUezr8ax45kyzmifR1qNeEkzNRHBM9fLU8dotTbghiBRk2VfCBgn9zOGFlSflu2LzgxbimDENxR1wSCs-1QTJsGhwqomyazXnK98uVuaNYqVeXPyG0Dk3Jbe3Kb9PRY9mUATUGewJdv51cA9X2PtTNP_6v1scHYldA1ZMTJXt9uSG-zuXAtPFaPKjAYJ8gV7QHWb5g94szsdWc03YJs7YYAqOk_Qn2PDaLBZmWqAdwvRks2n1NPs_6HxtPsBbcRm4U1oYKMaigjGewtp1fyK_mS0]--></g></svg>