<svg xmlns="http://www.w3.org/2000/svg" xmlns:xlink="http://www.w3.org/1999/xlink" contentStyleType="text/css" height="751px" preserveAspectRatio="none" style="width:935px;height:751px;background:#FFFFFF;" version="1.1" viewBox="0 0 935 751" width="935px" zoomAndPan="magnify"><title>Ambient Mode To BCM Cabin Light Signal Flow</title><defs/><g><text fill="#000000" font-family="Arial" font-size="22" font-weight="bold" lengthAdjust="spacing" textLength="496.1816" x="218.0958" y="35.9956">Ambient Mode To BCM Cabin Light Signal Flow</text><text fill="#000000" font-family="Arial" font-size="22" font-weight="bold" lengthAdjust="spacing" textLength="383.1523" x="274.6105" y="61.2935">(ambient mode -&gt; BCM light publish)</text><line style="stroke:#000000;stroke-width:1;" x1="80" x2="80" y1="116.8936" y2="707.4678"/><line style="stroke:#000000;stroke-width:1;" x1="331.0713" x2="331.0713" y1="116.8936" y2="707.4678"/><line style="stroke:#000000;stroke-width:1;" x1="698.282" x2="698.282" y1="116.8936" y2="707.4678"/><line style="stroke:#000000;stroke-width:1;" x1="841.3811" x2="841.3811" y1="116.8936" y2="707.4678"/><rect fill="#F4F7FB" height="39.2979" rx="2.5" ry="2.5" style="stroke:#000000;stroke-width:1;" width="111.8184" x="25" y="76.5957"/><text fill="#000000" font-family="Arial" font-size="11" lengthAdjust="spacing" textLength="97.8184" x="32" y="94.0935">Ambient command /</text><text fill="#000000" font-family="Arial" font-size="11" lengthAdjust="spacing" textLength="62.3745" x="49.7219" y="106.7424">body context</text><rect fill="#F4F7FB" height="39.2979" rx="2.5" ry="2.5" style="stroke:#000000;stroke-width:1;" width="111.8184" x="25" y="706.4678"/><text fill="#000000" font-family="Arial" font-size="11" lengthAdjust="spacing" textLength="97.8184" x="32" y="723.9656">Ambient command /</text><text fill="#000000" font-family="Arial" font-size="11" lengthAdjust="spacing" textLength="62.3745" x="49.7219" y="736.6145">body context</text><rect fill="#E8F7E8" height="39.2979" rx="2.5" ry="2.5" style="stroke:#000000;stroke-width:1;" width="94.1045" x="284.0713" y="76.5957"/><text fill="#000000" font-family="Arial" font-size="11" lengthAdjust="spacing" textLength="24.4438" x="318.9016" y="94.0935">BCM</text><text fill="#000000" font-family="Arial" font-size="11" lengthAdjust="spacing" textLength="80.1045" x="291.0713" y="106.7424">body/light owner</text><rect fill="#E8F7E8" height="39.2979" rx="2.5" ry="2.5" style="stroke:#000000;stroke-width:1;" width="94.1045" x="284.0713" y="706.4678"/><text fill="#000000" font-family="Arial" font-size="11" lengthAdjust="spacing" textLength="24.4438" x="318.9016" y="723.9656">BCM</text><text fill="#000000" font-family="Arial" font-size="11" lengthAdjust="spacing" textLength="80.1045" x="291.0713" y="736.6145">body/light owner</text><rect fill="#FFF4CC" height="26.6489" rx="2.5" ry="2.5" style="stroke:#000000;stroke-width:1;" width="83.0991" x="657.282" y="89.2446"/><text fill="#000000" font-family="Arial" font-size="11" lengthAdjust="spacing" textLength="69.0991" x="664.282" y="106.7424">Body light bus</text><rect fill="#FFF4CC" height="26.6489" rx="2.5" ry="2.5" style="stroke:#000000;stroke-width:1;" width="83.0991" x="657.282" y="706.4678"/><text fill="#000000" font-family="Arial" font-size="11" lengthAdjust="spacing" textLength="69.0991" x="664.282" y="723.9656">Body light bus</text><rect fill="#E8F0FE" height="26.6489" rx="2.5" ry="2.5" style="stroke:#000000;stroke-width:1;" width="142.9922" x="770.3811" y="89.2446"/><text fill="#000000" font-family="Arial" font-size="11" lengthAdjust="spacing" textLength="128.9922" x="777.3811" y="106.7424">Observers / ambient users</text><rect fill="#E8F0FE" height="26.6489" rx="2.5" ry="2.5" style="stroke:#000000;stroke-width:1;" width="142.9922" x="770.3811" y="706.4678"/><text fill="#000000" font-family="Arial" font-size="11" lengthAdjust="spacing" textLength="128.9922" x="777.3811" y="723.9656">Observers / ambient users</text><rect fill="#FFFFFF" height="3" style="stroke:#FFFFFF;stroke-width:1;" width="923.3733" x="5" y="146.218"/><line style="stroke:#000000;stroke-width:0.5;" x1="5" x2="928.3733" y1="146.218" y2="146.218"/><line style="stroke:#000000;stroke-width:0.5;" x1="5" x2="928.3733" y1="149.218" y2="149.218"/><rect fill="#FFFFFF" height="20.6489" style="stroke:#000000;stroke-width:1;" width="79.9839" x="426.6947" y="136.8936"/><text fill="#000000" font-family="Arial" font-size="11" font-weight="bold" lengthAdjust="spacing" textLength="62.9277" x="432.6947" y="151.3914">Light Inputs</text><polygon fill="#000000" points="319.1235,194.8403,329.1235,198.8403,319.1235,202.8403,323.1235,198.8403" style="stroke:#000000;stroke-width:1;"/><line style="stroke:#000000;stroke-width:1;" x1="80.9092" x2="325.1235" y1="198.8403" y2="198.8403"/><text fill="#000000" font-family="Arial" font-size="11" lengthAdjust="spacing" textLength="226.2144" x="92.9092" y="182.0403">Cmd::ambientModeCmd / Body::ambientMode</text><text fill="#000000" font-family="Arial" font-size="11" lengthAdjust="spacing" textLength="169.979" x="121.0269" y="194.6892">driveState / scenario manual mode</text><line style="stroke:#000000;stroke-width:1;" x1="331.1235" x2="373.1235" y1="225.4893" y2="225.4893"/><line style="stroke:#000000;stroke-width:1;" x1="373.1235" x2="373.1235" y1="225.4893" y2="238.4893"/><line style="stroke:#000000;stroke-width:1;" x1="332.1235" x2="373.1235" y1="238.4893" y2="238.4893"/><polygon fill="#000000" points="342.1235,234.4893,332.1235,238.4893,342.1235,242.4893,338.1235,238.4893" style="stroke:#000000;stroke-width:1;"/><text fill="#000000" font-family="Arial" font-size="11" lengthAdjust="spacing" textLength="353.708" x="338.1235" y="221.3381">ambientMode = manual ? Cmd::ambientModeCmd : Body::ambientMode</text><line style="stroke:#000000;stroke-width:1;" x1="331.1235" x2="373.1235" y1="265.1382" y2="265.1382"/><line style="stroke:#000000;stroke-width:1;" x1="373.1235" x2="373.1235" y1="265.1382" y2="278.1382"/><line style="stroke:#000000;stroke-width:1;" x1="332.1235" x2="373.1235" y1="278.1382" y2="278.1382"/><polygon fill="#000000" points="342.1235,274.1382,332.1235,278.1382,342.1235,282.1382,338.1235,278.1382" style="stroke:#000000;stroke-width:1;"/><text fill="#000000" font-family="Arial" font-size="11" lengthAdjust="spacing" textLength="190.4805" x="338.1235" y="260.9871">CabinLightMode = ambientMode &amp; 0x7</text><line style="stroke:#000000;stroke-width:1;" x1="331.1235" x2="373.1235" y1="304.7871" y2="304.7871"/><line style="stroke:#000000;stroke-width:1;" x1="373.1235" x2="373.1235" y1="304.7871" y2="317.7871"/><line style="stroke:#000000;stroke-width:1;" x1="332.1235" x2="373.1235" y1="317.7871" y2="317.7871"/><polygon fill="#000000" points="342.1235,313.7871,332.1235,317.7871,342.1235,321.7871,338.1235,317.7871" style="stroke:#000000;stroke-width:1;"/><text fill="#000000" font-family="Arial" font-size="11" lengthAdjust="spacing" textLength="224.4097" x="338.1235" y="300.636">DomeLightLevel = (ambientMode &gt; 0) ? 20 : 4</text><path d="M336,330.7871 L336,390.7871 L496,390.7871 L496,340.7871 L486,330.7871 L336,330.7871 " fill="#FFFFFF" style="stroke:#000000;stroke-width:1;"/><path d="M486,330.7871 L486,340.7871 L496,340.7871 L486,330.7871 " fill="#FFFFFF" style="stroke:#000000;stroke-width:1;"/><text fill="#000000" font-family="Arial" font-size="11" lengthAdjust="spacing" textLength="139.4229" x="342" y="346.2849">Representative gating inputs</text><text fill="#000000" font-family="Arial" font-size="11" lengthAdjust="spacing" textLength="125.9307" x="342" y="358.9338">- Cmd::ambientModeCmd</text><text fill="#000000" font-family="Arial" font-size="11" lengthAdjust="spacing" textLength="104.5537" x="342" y="371.5828">- Body::ambientMode</text><text fill="#000000" font-family="Arial" font-size="11" lengthAdjust="spacing" textLength="129.0083" x="342" y="384.2317">- manualMode / driveState</text><rect fill="#FFFFFF" height="3" style="stroke:#FFFFFF;stroke-width:1;" width="923.3733" x="5" y="415.7073"/><line style="stroke:#000000;stroke-width:0.5;" x1="5" x2="928.3733" y1="415.7073" y2="415.7073"/><line style="stroke:#000000;stroke-width:0.5;" x1="5" x2="928.3733" y1="418.7073" y2="418.7073"/><rect fill="#FFFFFF" height="20.6489" style="stroke:#000000;stroke-width:1;" width="86.7139" x="423.3297" y="406.3828"/><text fill="#000000" font-family="Arial" font-size="11" font-weight="bold" lengthAdjust="spacing" textLength="69.6577" x="429.3297" y="420.8806">Light Publish</text><polygon fill="#000000" points="686.8315,464.3296,696.8315,468.3296,686.8315,472.3296,690.8315,468.3296" style="stroke:#000000;stroke-width:1;"/><line style="stroke:#000000;stroke-width:1;" x1="331.1235" x2="692.8315" y1="468.3296" y2="468.3296"/><text fill="#000000" font-family="Arial" font-size="11" lengthAdjust="spacing" textLength="86.2007" x="471.8772" y="451.5295">frmLightStateMsg</text><text fill="#000000" font-family="Arial" font-size="11" lengthAdjust="spacing" textLength="168.7705" x="430.5923" y="464.1785">CabinLightMode / DomeLightLevel</text><path d="M336,481.3296 L336,528.3296 L470,528.3296 L470,491.3296 L460,481.3296 L336,481.3296 " fill="#FFFFFF" style="stroke:#000000;stroke-width:1;"/><path d="M460,481.3296 L460,491.3296 L470,491.3296 L460,481.3296 " fill="#FFFFFF" style="stroke:#000000;stroke-width:1;"/><text fill="#000000" font-family="Arial" font-size="11" lengthAdjust="spacing" textLength="113.126" x="342" y="496.8274">Representative outputs</text><text fill="#000000" font-family="Arial" font-size="11" lengthAdjust="spacing" textLength="86.8291" x="342" y="509.4763">- CabinLightMode</text><text fill="#000000" font-family="Arial" font-size="11" lengthAdjust="spacing" textLength="86.2114" x="342" y="522.1252">- DomeLightLevel</text><rect fill="#FFFFFF" height="3" style="stroke:#FFFFFF;stroke-width:1;" width="923.3733" x="5" y="553.6008"/><line style="stroke:#000000;stroke-width:0.5;" x1="5" x2="928.3733" y1="553.6008" y2="553.6008"/><line style="stroke:#000000;stroke-width:0.5;" x1="5" x2="928.3733" y1="556.6008" y2="556.6008"/><rect fill="#FFFFFF" height="20.6489" style="stroke:#000000;stroke-width:1;" width="131.3638" x="401.0048" y="544.2764"/><text fill="#000000" font-family="Arial" font-size="11" font-weight="bold" lengthAdjust="spacing" textLength="114.3076" x="407.0048" y="558.7742">Downstream Visibility</text><polygon fill="#000000" points="829.8772,602.2231,839.8772,606.2231,829.8772,610.2231,833.8772,606.2231" style="stroke:#000000;stroke-width:1;"/><line style="stroke:#000000;stroke-width:1;" x1="698.8315" x2="835.8772" y1="606.2231" y2="606.2231"/><text fill="#000000" font-family="Arial" font-size="11" lengthAdjust="spacing" textLength="104.5591" x="718.0748" y="589.4231">cabin-light readback /</text><text fill="#000000" font-family="Arial" font-size="11" lengthAdjust="spacing" textLength="95.9868" x="722.361" y="602.072">ambient consumers</text><path d="M10,619.2231 L10,692.2231 L913,692.2231 L913,629.2231 L903,619.2231 L10,619.2231 " fill="#FFFFFF" style="stroke:#000000;stroke-width:1;"/><path d="M903,619.2231 L903,629.2231 L913,629.2231 L903,619.2231 " fill="#FFFFFF" style="stroke:#000000;stroke-width:1;"/><text fill="#000000" font-family="Arial" font-size="11" lengthAdjust="spacing" textLength="143.0752" x="297.3053" y="634.7209">Representative runtime chain</text><text fill="#000000" font-family="Arial" font-size="11" lengthAdjust="spacing" textLength="319.7627" x="297.3053" y="647.3699">1. Ambient mode reaches BCM from manual or body-owned state</text><text fill="#000000" font-family="Arial" font-size="11" lengthAdjust="spacing" textLength="260.4658" x="297.3053" y="660.0188">2. BCM translates ambient mode into cabin light state</text><text fill="#000000" font-family="Arial" font-size="11" lengthAdjust="spacing" textLength="270.2627" x="297.3053" y="672.6677">3. BCM publishes cabin light mode and dome light level</text><text fill="#000000" font-family="Arial" font-size="11" lengthAdjust="spacing" textLength="296.5488" x="297.3053" y="685.3167">4. Observers expose the effective body-light ambient posture</text><!--SRC=[XLJRRjim37tNLt0jCBJ0ScaNe4M0T4ZS6XZGRCCwx2aliiquGcN9qwLDz_MZP3krqmBBIs3fd4CUYkG7jyCAePPSA6OVXQgvuHLaF7yiZVQgIBJK1axJ-EiX2jnoBrsgbVl6IM5f19Vltp-8lmWN5xrBYtyygXpNQ2qlSIb5gI17vT3qK0PjhPNjK2kK-dbfZ7u6PpmoveIJ5BZA135XhGk4NnfMoHeIdWa5zwBSENWWRIuX9V96dV4MNGNqw2QYPSJLFfF2xiuPe-XEvABcX3lfv7DTLLmLCDceJ1Slz4tPxjq9SDkbaBWz5MgMNgMheGO5QLYJ9fH-LcWYCuG_lRjEh-wkZoWXHeFEl8tOQ6VbRNoCMP8C2TypY-O9ZOK9T2Oz7JLSkernfkaTOuj5MvglglREmcB1MCz2MvKv95KndxTQeRhqJU8Xiy7nHXL6FE63umxftj8xSYCqKBay5JvKcWN1WswF2uiEzkNTSFEtuOPQyQMZcrQkB_uHflkh8VvMLnZXz_Y4al1dVS8DJCyfayif8MTCQJ9acXVR1ZxxYJKr9Q6v8yTGqfygGSGoij5x3kZqhODHQph6dC1h-HXIXuMmlKVwqVHbVANMog4Jvh0rLVoAzBKjD-ge8fCZo_ztfRth_0oawE18Qf3jBNMrTGPfS7yBAp8XXNk9MH_IfTH38yuX3yAZfhs9KOHr4oQB7uPDMLzHyx8cNKsDtPkoJq7cE6tZbHEqYF9TM6KNuyDYYADEKV8TDWEtDRhgsevsMnZCKHZ90cnyXCjnX3d3bPLqO66mDOHokd7G3cZ3-jomsZL2f3ua4iFwAAY2xPcCDPoDuNLqSLzhYq0x6N2xnJmQY_arb2uFGZblUkto3m00]--></g></svg>