<svg xmlns="http://www.w3.org/2000/svg" xmlns:xlink="http://www.w3.org/1999/xlink" contentStyleType="text/css" height="1367px" preserveAspectRatio="none" style="width:1086px;height:1367px;background:#FFFFFF;" version="1.1" viewBox="0 0 1086 1367" width="1086px" zoomAndPan="magnify"><title>Audio Ducking From Alert Signal Flow</title><defs/><g><text fill="#000000" font-family="Arial" font-size="22" font-weight="bold" lengthAdjust="spacing" textLength="400.8984" x="341.4269" y="35.9956">Audio Ducking From Alert Signal Flow</text><text fill="#000000" font-family="Arial" font-size="22" font-weight="bold" lengthAdjust="spacing" textLength="272.5508" x="405.6007" y="61.2935">(CGW -&gt; IVI -&gt; CLU / AMP)</text><rect fill="#FFFFFF" height="85.9468" style="stroke:#000000;stroke-width:1;" width="10" x="66.9426" y="126.8936"/><rect fill="#FFFFFF" height="416.7339" style="stroke:#000000;stroke-width:1;" width="10" x="317.2747" y="212.8403"/><rect fill="#FFFFFF" height="276.1382" style="stroke:#000000;stroke-width:1;" width="10" x="653.3396" y="629.5742"/><rect fill="#FFFFFF" height="236.1914" style="stroke:#000000;stroke-width:1;" width="10" x="832.2463" y="907.7124"/><line style="stroke:#000000;stroke-width:1;" x1="71" x2="71" y1="116.8936" y2="1322.7441"/><line style="stroke:#000000;stroke-width:1;" x1="321.6655" x2="321.6655" y1="116.8936" y2="1322.7441"/><line style="stroke:#000000;stroke-width:1;" x1="657.7473" x2="657.7473" y1="116.8936" y2="1322.7441"/><line style="stroke:#000000;stroke-width:1;" x1="836.4841" x2="836.4841" y1="116.8936" y2="1322.7441"/><rect fill="#FFF4CC" height="39.2979" rx="2.5" ry="2.5" style="stroke:#000000;stroke-width:1;" width="103.8853" x="20" y="76.5957"/><text fill="#000000" font-family="Arial" font-size="11" lengthAdjust="spacing" textLength="26.8823" x="58.5015" y="94.0935">CGW</text><text fill="#000000" font-family="Arial" font-size="11" lengthAdjust="spacing" textLength="89.8853" x="27" y="106.7424">effective alert gate</text><rect fill="#FFF4CC" height="39.2979" rx="2.5" ry="2.5" style="stroke:#000000;stroke-width:1;" width="103.8853" x="20" y="1321.7441"/><text fill="#000000" font-family="Arial" font-size="11" lengthAdjust="spacing" textLength="26.8823" x="58.5015" y="1339.2419">CGW</text><text fill="#000000" font-family="Arial" font-size="11" lengthAdjust="spacing" textLength="89.8853" x="27" y="1351.8909">effective alert gate</text><rect fill="#E8F0FE" height="39.2979" rx="2.5" ry="2.5" style="stroke:#000000;stroke-width:1;" width="159.2183" x="242.6655" y="76.5957"/><text fill="#000000" font-family="Arial" font-size="11" lengthAdjust="spacing" textLength="13.4492" x="315.55" y="94.0935">IVI</text><text fill="#000000" font-family="Arial" font-size="11" lengthAdjust="spacing" textLength="145.2183" x="249.6655" y="106.7424">warning render + focus owner</text><rect fill="#E8F0FE" height="39.2979" rx="2.5" ry="2.5" style="stroke:#000000;stroke-width:1;" width="159.2183" x="242.6655" y="1321.7441"/><text fill="#000000" font-family="Arial" font-size="11" lengthAdjust="spacing" textLength="13.4492" x="315.55" y="1339.2419">IVI</text><text fill="#000000" font-family="Arial" font-size="11" lengthAdjust="spacing" textLength="145.2183" x="249.6655" y="1351.8909">warning render + focus owner</text><rect fill="#E8F0FE" height="39.2979" rx="2.5" ry="2.5" style="stroke:#000000;stroke-width:1;" width="111.1846" x="602.7473" y="76.5957"/><text fill="#000000" font-family="Arial" font-size="11" lengthAdjust="spacing" textLength="22.0054" x="647.3369" y="94.0935">CLU</text><text fill="#000000" font-family="Arial" font-size="11" lengthAdjust="spacing" textLength="97.1846" x="609.7473" y="106.7424">cluster/media mirror</text><rect fill="#E8F0FE" height="39.2979" rx="2.5" ry="2.5" style="stroke:#000000;stroke-width:1;" width="111.1846" x="602.7473" y="1321.7441"/><text fill="#000000" font-family="Arial" font-size="11" lengthAdjust="spacing" textLength="22.0054" x="647.3369" y="1339.2419">CLU</text><text fill="#000000" font-family="Arial" font-size="11" lengthAdjust="spacing" textLength="97.1846" x="609.7473" y="1351.8909">cluster/media mirror</text><rect fill="#FFE6E6" height="39.2979" rx="2.5" ry="2.5" style="stroke:#000000;stroke-width:1;" width="115.5244" x="779.4841" y="76.5957"/><text fill="#000000" font-family="Arial" font-size="11" lengthAdjust="spacing" textLength="23.8369" x="825.3279" y="94.0935">AMP</text><text fill="#000000" font-family="Arial" font-size="11" lengthAdjust="spacing" textLength="101.5244" x="786.4841" y="106.7424">audio ducking output</text><rect fill="#FFE6E6" height="39.2979" rx="2.5" ry="2.5" style="stroke:#000000;stroke-width:1;" width="115.5244" x="779.4841" y="1321.7441"/><text fill="#000000" font-family="Arial" font-size="11" lengthAdjust="spacing" textLength="23.8369" x="825.3279" y="1339.2419">AMP</text><text fill="#000000" font-family="Arial" font-size="11" lengthAdjust="spacing" textLength="101.5244" x="786.4841" y="1351.8909">audio ducking output</text><rect fill="#FFFFFF" height="85.9468" style="stroke:#000000;stroke-width:1;" width="10" x="66.9426" y="126.8936"/><rect fill="#FFFFFF" height="416.7339" style="stroke:#000000;stroke-width:1;" width="10" x="317.2747" y="212.8403"/><rect fill="#FFFFFF" height="276.1382" style="stroke:#000000;stroke-width:1;" width="10" x="653.3396" y="629.5742"/><rect fill="#FFFFFF" height="236.1914" style="stroke:#000000;stroke-width:1;" width="10" x="832.2463" y="907.7124"/><rect fill="#FFFFFF" height="3" style="stroke:#FFFFFF;stroke-width:1;" width="1074.7522" x="5" y="146.218"/><line style="stroke:#000000;stroke-width:0.5;" x1="5" x2="1079.7522" y1="146.218" y2="146.218"/><line style="stroke:#000000;stroke-width:0.5;" x1="5" x2="1079.7522" y1="149.218" y2="149.218"/><rect fill="#FFFFFF" height="20.6489" style="stroke:#000000;stroke-width:1;" width="125.8745" x="479.4388" y="136.8936"/><text fill="#000000" font-family="Arial" font-size="11" font-weight="bold" lengthAdjust="spacing" textLength="108.8184" x="485.4388" y="151.3914">Effective Alert Intake</text><polygon fill="#000000" points="310.2747,182.1914,320.2747,186.1914,310.2747,190.1914,314.2747,186.1914" style="stroke:#000000;stroke-width:1;"/><line style="stroke:#000000;stroke-width:1;" x1="76.9426" x2="316.2747" y1="186.1914" y2="186.1914"/><text fill="#000000" font-family="Arial" font-size="11" lengthAdjust="spacing" textLength="221.332" x="88.9426" y="182.0403">CoreState::selectedAlertEffectiveLevel / Type</text><polygon fill="#000000" points="305.2747,208.8403,315.2747,212.8403,305.2747,216.8403,309.2747,212.8403" style="stroke:#000000;stroke-width:1;"/><line style="stroke:#000000;stroke-width:1;" x1="71.9426" x2="311.2747" y1="212.8403" y2="212.8403"/><text fill="#000000" font-family="Arial" font-size="11" lengthAdjust="spacing" textLength="92.313" x="148.4521" y="208.6892">Core::timeoutClear</text><path d="M76,225.8403 L76,285.8403 L235,285.8403 L235,235.8403 L225,225.8403 L76,225.8403 " fill="#FFFFFF" style="stroke:#000000;stroke-width:1;"/><path d="M225,225.8403 L225,235.8403 L235,235.8403 L225,225.8403 " fill="#FFFFFF" style="stroke:#000000;stroke-width:1;"/><text fill="#000000" font-family="Arial" font-size="11" lengthAdjust="spacing" textLength="110.0591" x="82" y="241.3381">Representative source</text><text fill="#000000" font-family="Arial" font-size="11" lengthAdjust="spacing" textLength="138.7891" x="82" y="253.9871">- selectedAlertEffectiveLevel</text><text fill="#000000" font-family="Arial" font-size="11" lengthAdjust="spacing" textLength="136.9468" x="82" y="266.636">- selectedAlertEffectiveType</text><text fill="#000000" font-family="Arial" font-size="11" lengthAdjust="spacing" textLength="69.0776" x="82" y="279.2849">- timeoutClear</text><rect fill="#FFFFFF" height="3" style="stroke:#FFFFFF;stroke-width:1;" width="1074.7522" x="5" y="310.7605"/><line style="stroke:#000000;stroke-width:0.5;" x1="5" x2="1079.7522" y1="310.7605" y2="310.7605"/><line style="stroke:#000000;stroke-width:0.5;" x1="5" x2="1079.7522" y1="313.7605" y2="313.7605"/><rect fill="#FFFFFF" height="20.6489" style="stroke:#000000;stroke-width:1;" width="172.2808" x="456.2357" y="301.436"/><text fill="#000000" font-family="Arial" font-size="11" font-weight="bold" lengthAdjust="spacing" textLength="155.2246" x="462.2357" y="315.9338">IVI HMI / Audio Focus Publish</text><polygon fill="#000000" points="305.2747,346.7339,315.2747,350.7339,305.2747,354.7339,309.2747,350.7339" style="stroke:#000000;stroke-width:1;"/><line style="stroke:#000000;stroke-width:1;" x1="71.9426" x2="311.2747" y1="350.7339" y2="350.7339"/><text fill="#000000" font-family="Arial" font-size="11" lengthAdjust="spacing" textLength="100.8745" x="144.1714" y="346.5828">effective alert seams</text><line style="stroke:#000000;stroke-width:1;" x1="327.2747" x2="369.2747" y1="377.3828" y2="377.3828"/><line style="stroke:#000000;stroke-width:1;" x1="369.2747" x2="369.2747" y1="377.3828" y2="390.3828"/><line style="stroke:#000000;stroke-width:1;" x1="328.2747" x2="369.2747" y1="390.3828" y2="390.3828"/><polygon fill="#000000" points="338.2747,386.3828,328.2747,390.3828,338.2747,394.3828,334.2747,390.3828" style="stroke:#000000;stroke-width:1;"/><text fill="#000000" font-family="Arial" font-size="11" lengthAdjust="spacing" textLength="125.936" x="334.2747" y="373.2317">deriveWarningTextCode()</text><line style="stroke:#000000;stroke-width:1;" x1="327.2747" x2="369.2747" y1="417.0317" y2="417.0317"/><line style="stroke:#000000;stroke-width:1;" x1="369.2747" x2="369.2747" y1="417.0317" y2="430.0317"/><line style="stroke:#000000;stroke-width:1;" x1="328.2747" x2="369.2747" y1="430.0317" y2="430.0317"/><polygon fill="#000000" points="338.2747,426.0317,328.2747,430.0317,338.2747,434.0317,334.2747,430.0317" style="stroke:#000000;stroke-width:1;"/><text fill="#000000" font-family="Arial" font-size="11" lengthAdjust="spacing" textLength="302.0649" x="334.2747" y="412.8806">compatBeepEmergency / compatBeepIC / compatBeepSpeed</text><line style="stroke:#000000;stroke-width:1;" x1="327.2747" x2="369.2747" y1="456.6807" y2="456.6807"/><line style="stroke:#000000;stroke-width:1;" x1="369.2747" x2="369.2747" y1="456.6807" y2="469.6807"/><line style="stroke:#000000;stroke-width:1;" x1="328.2747" x2="369.2747" y1="469.6807" y2="469.6807"/><polygon fill="#000000" points="338.2747,465.6807,328.2747,469.6807,338.2747,473.6807,334.2747,469.6807" style="stroke:#000000;stroke-width:1;"/><text fill="#000000" font-family="Arial" font-size="11" lengthAdjust="spacing" textLength="142.4736" x="334.2747" y="452.5295">UiRender::warningBeepState</text><polygon fill="#000000" points="646.3396,492.3296,656.3396,496.3296,646.3396,500.3296,650.3396,496.3296" style="stroke:#000000;stroke-width:1;"/><line style="stroke:#000000;stroke-width:1;" x1="327.2747" x2="652.3396" y1="496.3296" y2="496.3296"/><text fill="#000000" font-family="Arial" font-size="11" lengthAdjust="spacing" textLength="112.4653" x="436.5745" y="492.1785">frmClusterWarningMsg</text><polygon fill="#000000" points="646.3396,518.9785,656.3396,522.9785,646.3396,526.9785,650.3396,522.9785" style="stroke:#000000;stroke-width:1;"/><line style="stroke:#000000;stroke-width:1;" x1="327.2747" x2="652.3396" y1="522.9785" y2="522.9785"/><text fill="#000000" font-family="Arial" font-size="11" lengthAdjust="spacing" textLength="113.7061" x="435.9541" y="518.8274">frmHmiPopupStateMsg</text><polygon fill="#000000" points="646.3396,545.6274,656.3396,549.6274,646.3396,553.6274,650.3396,549.6274" style="stroke:#000000;stroke-width:1;"/><line style="stroke:#000000;stroke-width:1;" x1="327.2747" x2="652.3396" y1="549.6274" y2="549.6274"/><text fill="#000000" font-family="Arial" font-size="11" lengthAdjust="spacing" textLength="92.3076" x="446.6533" y="545.4763">frmMediaStateMsg</text><polygon fill="#000000" points="646.3396,572.2764,656.3396,576.2764,646.3396,580.2764,650.3396,576.2764" style="stroke:#000000;stroke-width:1;"/><line style="stroke:#000000;stroke-width:1;" x1="327.2747" x2="652.3396" y1="576.2764" y2="576.2764"/><text fill="#000000" font-family="Arial" font-size="11" lengthAdjust="spacing" textLength="94.7515" x="445.4314" y="572.1252">frmAudioFocusMsg</text><polygon fill="#000000" points="825.2463,598.9253,835.2463,602.9253,825.2463,606.9253,829.2463,602.9253" style="stroke:#000000;stroke-width:1;"/><line style="stroke:#000000;stroke-width:1;" x1="327.2747" x2="831.2463" y1="602.9253" y2="602.9253"/><text fill="#000000" font-family="Arial" font-size="11" lengthAdjust="spacing" textLength="92.3076" x="536.1067" y="598.7742">frmMediaStateMsg</text><polygon fill="#000000" points="825.2463,625.5742,835.2463,629.5742,825.2463,633.5742,829.2463,629.5742" style="stroke:#000000;stroke-width:1;"/><line style="stroke:#000000;stroke-width:1;" x1="322.2747" x2="831.2463" y1="629.5742" y2="629.5742"/><text fill="#000000" font-family="Arial" font-size="11" lengthAdjust="spacing" textLength="94.7515" x="532.3848" y="625.4231">frmAudioFocusMsg</text><path d="M327,642.5742 L327,715.5742 L497,715.5742 L497,652.5742 L487,642.5742 L327,642.5742 " fill="#FFFFFF" style="stroke:#000000;stroke-width:1;"/><path d="M487,642.5742 L487,652.5742 L497,652.5742 L487,642.5742 " fill="#FFFFFF" style="stroke:#000000;stroke-width:1;"/><text fill="#000000" font-family="Arial" font-size="11" lengthAdjust="spacing" textLength="113.126" x="333" y="658.072">Representative outputs</text><text fill="#000000" font-family="Arial" font-size="11" lengthAdjust="spacing" textLength="101.4707" x="333" y="670.7209">- frmAudioFocusMsg</text><text fill="#000000" font-family="Arial" font-size="11" lengthAdjust="spacing" textLength="99.0269" x="333" y="683.3699">- frmMediaStateMsg</text><text fill="#000000" font-family="Arial" font-size="11" lengthAdjust="spacing" textLength="119.1846" x="333" y="696.0188">- frmClusterWarningMsg</text><text fill="#000000" font-family="Arial" font-size="11" lengthAdjust="spacing" textLength="149.1929" x="333" y="708.6677">- UiRender::warningBeepState</text><rect fill="#FFFFFF" height="3" style="stroke:#FFFFFF;stroke-width:1;" width="1074.7522" x="5" y="740.1433"/><line style="stroke:#000000;stroke-width:0.5;" x1="5" x2="1079.7522" y1="740.1433" y2="740.1433"/><line style="stroke:#000000;stroke-width:0.5;" x1="5" x2="1079.7522" y1="743.1433" y2="743.1433"/><rect fill="#FFFFFF" height="20.6489" style="stroke:#000000;stroke-width:1;" width="89.7915" x="497.4803" y="730.8188"/><text fill="#000000" font-family="Arial" font-size="11" font-weight="bold" lengthAdjust="spacing" textLength="72.7354" x="503.4803" y="745.3167">Cluster Mirror</text><polygon fill="#000000" points="641.3396,776.1167,651.3396,780.1167,641.3396,784.1167,645.3396,780.1167" style="stroke:#000000;stroke-width:1;"/><line style="stroke:#000000;stroke-width:1;" x1="322.2747" x2="647.3396" y1="780.1167" y2="780.1167"/><text fill="#000000" font-family="Arial" font-size="11" lengthAdjust="spacing" textLength="94.7515" x="440.4314" y="775.9656">frmAudioFocusMsg</text><polygon fill="#000000" points="641.3396,802.7656,651.3396,806.7656,641.3396,810.7656,645.3396,806.7656" style="stroke:#000000;stroke-width:1;"/><line style="stroke:#000000;stroke-width:1;" x1="322.2747" x2="647.3396" y1="806.7656" y2="806.7656"/><text fill="#000000" font-family="Arial" font-size="11" lengthAdjust="spacing" textLength="92.3076" x="441.6533" y="802.6145">frmMediaStateMsg</text><polygon fill="#000000" points="641.3396,829.4146,651.3396,833.4146,641.3396,837.4146,645.3396,833.4146" style="stroke:#000000;stroke-width:1;"/><line style="stroke:#000000;stroke-width:1;" x1="322.2747" x2="647.3396" y1="833.4146" y2="833.4146"/><text fill="#000000" font-family="Arial" font-size="11" lengthAdjust="spacing" textLength="112.4653" x="431.5745" y="829.2634">frmClusterWarningMsg</text><line style="stroke:#000000;stroke-width:1;" x1="663.3396" x2="705.3396" y1="860.0635" y2="860.0635"/><line style="stroke:#000000;stroke-width:1;" x1="705.3396" x2="705.3396" y1="860.0635" y2="873.0635"/><line style="stroke:#000000;stroke-width:1;" x1="664.3396" x2="705.3396" y1="873.0635" y2="873.0635"/><polygon fill="#000000" points="674.3396,869.0635,664.3396,873.0635,674.3396,877.0635,670.3396,873.0635" style="stroke:#000000;stroke-width:1;"/><text fill="#000000" font-family="Arial" font-size="11" lengthAdjust="spacing" textLength="144.9067" x="670.3396" y="855.9124">CoreState::audioFocusOwner</text><line style="stroke:#000000;stroke-width:1;" x1="663.3396" x2="705.3396" y1="904.7124" y2="904.7124"/><line style="stroke:#000000;stroke-width:1;" x1="705.3396" x2="705.3396" y1="904.7124" y2="917.7124"/><line style="stroke:#000000;stroke-width:1;" x1="658.3396" x2="705.3396" y1="917.7124" y2="917.7124"/><polygon fill="#000000" points="668.3396,913.7124,658.3396,917.7124,668.3396,921.7124,664.3396,917.7124" style="stroke:#000000;stroke-width:1;"/><text fill="#000000" font-family="Arial" font-size="11" lengthAdjust="spacing" textLength="136.356" x="670.3396" y="900.5613">CoreState::audioDuckingLvl</text><rect fill="#FFFFFF" height="3" style="stroke:#FFFFFF;stroke-width:1;" width="1074.7522" x="5" y="940.0369"/><line style="stroke:#000000;stroke-width:0.5;" x1="5" x2="1079.7522" y1="940.0369" y2="940.0369"/><line style="stroke:#000000;stroke-width:0.5;" x1="5" x2="1079.7522" y1="943.0369" y2="943.0369"/><rect fill="#FFFFFF" height="20.6489" style="stroke:#000000;stroke-width:1;" width="87.9492" x="498.4015" y="930.7124"/><text fill="#000000" font-family="Arial" font-size="11" font-weight="bold" lengthAdjust="spacing" textLength="70.8931" x="504.4015" y="945.2102">AMP Ducking</text><polygon fill="#000000" points="820.2463,976.0103,830.2463,980.0103,820.2463,984.0103,824.2463,980.0103" style="stroke:#000000;stroke-width:1;"/><line style="stroke:#000000;stroke-width:1;" x1="322.2747" x2="826.2463" y1="980.0103" y2="980.0103"/><text fill="#000000" font-family="Arial" font-size="11" lengthAdjust="spacing" textLength="92.3076" x="531.1067" y="975.8591">frmMediaStateMsg</text><polygon fill="#000000" points="820.2463,1002.6592,830.2463,1006.6592,820.2463,1010.6592,824.2463,1006.6592" style="stroke:#000000;stroke-width:1;"/><line style="stroke:#000000;stroke-width:1;" x1="322.2747" x2="826.2463" y1="1006.6592" y2="1006.6592"/><text fill="#000000" font-family="Arial" font-size="11" lengthAdjust="spacing" textLength="94.7515" x="529.8848" y="1002.5081">frmAudioFocusMsg</text><line style="stroke:#000000;stroke-width:1;" x1="842.2463" x2="884.2463" y1="1033.3081" y2="1033.3081"/><line style="stroke:#000000;stroke-width:1;" x1="884.2463" x2="884.2463" y1="1033.3081" y2="1046.3081"/><line style="stroke:#000000;stroke-width:1;" x1="843.2463" x2="884.2463" y1="1046.3081" y2="1046.3081"/><polygon fill="#000000" points="853.2463,1042.3081,843.2463,1046.3081,853.2463,1050.3081,849.2463,1046.3081" style="stroke:#000000;stroke-width:1;"/><text fill="#000000" font-family="Arial" font-size="11" lengthAdjust="spacing" textLength="110.6606" x="849.2463" y="1029.157">traceAmpInputHealth()</text><line style="stroke:#000000;stroke-width:1;" x1="842.2463" x2="884.2463" y1="1085.606" y2="1085.606"/><line style="stroke:#000000;stroke-width:1;" x1="884.2463" x2="884.2463" y1="1085.606" y2="1098.606"/><line style="stroke:#000000;stroke-width:1;" x1="843.2463" x2="884.2463" y1="1098.606" y2="1098.606"/><polygon fill="#000000" points="853.2463,1094.606,843.2463,1098.606,853.2463,1102.606,849.2463,1098.606" style="stroke:#000000;stroke-width:1;"/><text fill="#000000" font-family="Arial" font-size="11" lengthAdjust="spacing" textLength="90.4976" x="908.2505" y="1068.8059">if input lease valid,</text><text fill="#000000" font-family="Arial" font-size="11" lengthAdjust="spacing" textLength="208.5059" x="849.2463" y="1081.4548">apply audioFocusOwner / audioDuckingLvl</text><line style="stroke:#000000;stroke-width:1;" x1="842.2463" x2="884.2463" y1="1142.9038" y2="1142.9038"/><line style="stroke:#000000;stroke-width:1;" x1="884.2463" x2="884.2463" y1="1142.9038" y2="1155.9038"/><line style="stroke:#000000;stroke-width:1;" x1="837.2463" x2="884.2463" y1="1155.9038" y2="1155.9038"/><polygon fill="#000000" points="847.2463,1151.9038,837.2463,1155.9038,847.2463,1159.9038,843.2463,1155.9038" style="stroke:#000000;stroke-width:1;"/><text fill="#000000" font-family="Arial" font-size="11" lengthAdjust="spacing" textLength="103.9468" x="871.5659" y="1126.1038">if focus input expired,</text><text fill="#000000" font-family="Arial" font-size="11" lengthAdjust="spacing" textLength="148.5859" x="849.2463" y="1138.7527">clear focus owner and ducking</text><path d="M842,1163.9038 L842,1223.9038 L976,1223.9038 L976,1173.9038 L966,1163.9038 L842,1163.9038 " fill="#FFFFFF" style="stroke:#000000;stroke-width:1;"/><path d="M966,1163.9038 L966,1173.9038 L976,1173.9038 L966,1163.9038 " fill="#FFFFFF" style="stroke:#000000;stroke-width:1;"/><text fill="#000000" font-family="Arial" font-size="11" lengthAdjust="spacing" textLength="113.126" x="848" y="1179.4016">Representative outputs</text><text fill="#000000" font-family="Arial" font-size="11" lengthAdjust="spacing" textLength="67.8584" x="848" y="1192.0505">- ampDucking</text><text fill="#000000" font-family="Arial" font-size="11" lengthAdjust="spacing" textLength="95.9976" x="848" y="1204.6995">- audio focus owner</text><text fill="#000000" font-family="Arial" font-size="11" lengthAdjust="spacing" textLength="70.313" x="848" y="1217.3484">- ducking level</text><path d="M10,1234.4995 L10,1307.4995 L900,1307.4995 L900,1244.4995 L890,1234.4995 L10,1234.4995 " fill="#FFFFFF" style="stroke:#000000;stroke-width:1;"/><path d="M890,1234.4995 L890,1244.4995 L900,1244.4995 L890,1234.4995 " fill="#FFFFFF" style="stroke:#000000;stroke-width:1;"/><text fill="#000000" font-family="Arial" font-size="11" lengthAdjust="spacing" textLength="143.0752" x="314.3041" y="1249.9973">Representative runtime chain</text><text fill="#000000" font-family="Arial" font-size="11" lengthAdjust="spacing" textLength="184.0244" x="314.3041" y="1262.6462">1. CGW publishes effective alert state</text><text fill="#000000" font-family="Arial" font-size="11" lengthAdjust="spacing" textLength="240.9258" x="314.3041" y="1275.2952">2. IVI derives warning text / beep and audio focus</text><text fill="#000000" font-family="Arial" font-size="11" lengthAdjust="spacing" textLength="272.4004" x="314.3041" y="1287.9441">3. IVI sends audio focus + media state to CLU and AMP</text><text fill="#000000" font-family="Arial" font-size="11" lengthAdjust="spacing" textLength="261.6582" x="314.3041" y="1300.593">4. AMP applies ducking while CLU mirrors focus state</text><!--SRC=[fLNRRjD047ttLmpm0chJKgWg52b8gKbef0IgNk0bBrjxagowtbrsrqdBrpEpTeATIuL4NwfuxcVEd7qL5bWWM2MaJloZr5OuKS23o1xdpfGwJuqo3juCur_38yUPA5KO6Xs-2ShGTrAe_VPR-HlXxAnXzFYhH9tX1BqNS-mhETUGeGxe6buElJNQhxqkKPbLtpcpWk1AJ98WWwB2PIuDV2apYfl3q9a2-WfTW5jAAXGCAMggtwPVVqBdCun-ZFXVEhw7K-XFhjyb2HKBCfDMw02loMsgSJR3BCWbWeYPvYBWQn0UE0b3SPwcxJ1AEzKhuJJtu53dwE08PYOhFPYLHXV3kVYRmQVX- -5Wg-huVgepLNe2uBJ0N0ee94rQXN6pUyEe_waMSVwydj-KmPOXXf6LcnrS32wIfDU3mMQg2f-H3k8HeTTB4i7VQKWUC6aWrONKEBmDPEfsFIgAnpn6RvADSOcAiBnxjhWRskq6MI0rbIeKBj66QZWvNmGmirZi1YsjcJOlOcVUb2x3f0Cl53jeZIrqe5MHLW5SDScnDIG3mcrUJKPCX8ZXCAxhkdnGqY_Qk91hUxXjYdWKXKzgTbKkn06o_wn8SOTF8JKvldtNTifCOKMuHBI30jsSZkAP-ldxTPIsVjvQnBoTuLxUHBvrkpN_eX-lB6cGlGipLwGLm-gM9dw-ut5Lo6jZoof-dyE4oNdG6d6CC3QipCF3iHjhExRD58P_YoaLqJtjUoUsirkiit_ypalexQCEDyBKgLF195xfrWsDx_yDc7y4TRTjDcqy6XSgDbM-i-Qyx5ShvdYfMhT1pVE0l9QrfhQc8yD_BPO_Rwp1YGpxXHrfskKL2XKMT20j5pa3oLQWS_O8Iw5aVaogPwrwXgs1wLIsHzlELKbobH6Vh7J8sJBMYgPSWw3brvgwnKK6u20NHM7hulmZgaeZAtrRwxIAIhQFOfo_AccMr0Yfpl6-cgxKB7IGBVZbFZk9RvEjj0lzhZv5IdyuYQ9HAPE7zOCLI9m8kmUYVXoyqNZoiGgXmhblJNG4rKCLCqCmaMOSpSsUdqJ8UKkI2gsdNYsaYXohdpTVv_BjW_i3]--></g></svg>