<svg xmlns="http://www.w3.org/2000/svg" xmlns:xlink="http://www.w3.org/1999/xlink" contentStyleType="text/css" height="973px" preserveAspectRatio="none" style="width:845px;height:973px;background:#FFFFFF;" version="1.1" viewBox="0 0 845 973" width="845px" zoomAndPan="magnify"><title>Audio Focus To VCS TTS Signal Flow</title><defs/><g><text fill="#000000" font-family="Arial" font-size="22" font-weight="bold" lengthAdjust="spacing" textLength="393.5508" x="224.5723" y="35.9956">Audio Focus To VCS TTS Signal Flow</text><text fill="#000000" font-family="Arial" font-size="22" font-weight="bold" lengthAdjust="spacing" textLength="715.752" x="63.4717" y="61.2935">(audio focus + TMU service + cluster notif -&gt; VCS voice/TTS publish)</text><line style="stroke:#000000;stroke-width:1;" x1="87" x2="87" y1="116.8936" y2="928.957"/><line style="stroke:#000000;stroke-width:1;" x1="289.9951" x2="289.9951" y1="116.8936" y2="928.957"/><line style="stroke:#000000;stroke-width:1;" x1="602.7671" x2="602.7671" y1="116.8936" y2="928.957"/><line style="stroke:#000000;stroke-width:1;" x1="757.9224" x2="757.9224" y1="116.8936" y2="928.957"/><rect fill="#F4F7FB" height="39.2979" rx="2.5" ry="2.5" style="stroke:#000000;stroke-width:1;" width="134.4521" x="20" y="76.5957"/><text fill="#000000" font-family="Arial" font-size="11" lengthAdjust="spacing" textLength="96.5884" x="38.9319" y="94.0935">Audio focus / TMU /</text><text fill="#000000" font-family="Arial" font-size="11" lengthAdjust="spacing" textLength="120.4521" x="27" y="106.7424">cluster notification inputs</text><rect fill="#F4F7FB" height="39.2979" rx="2.5" ry="2.5" style="stroke:#000000;stroke-width:1;" width="134.4521" x="20" y="927.957"/><text fill="#000000" font-family="Arial" font-size="11" lengthAdjust="spacing" textLength="96.5884" x="38.9319" y="945.4548">Audio focus / TMU /</text><text fill="#000000" font-family="Arial" font-size="11" lengthAdjust="spacing" textLength="120.4521" x="27" y="958.1038">cluster notification inputs</text><rect fill="#E8F7E8" height="39.2979" rx="2.5" ry="2.5" style="stroke:#000000;stroke-width:1;" width="108.7676" x="235.9951" y="76.5957"/><text fill="#000000" font-family="Arial" font-size="11" lengthAdjust="spacing" textLength="22.6177" x="279.0701" y="94.0935">VCS</text><text fill="#000000" font-family="Arial" font-size="11" lengthAdjust="spacing" textLength="94.7676" x="242.9951" y="106.7424">voice control owner</text><rect fill="#E8F7E8" height="39.2979" rx="2.5" ry="2.5" style="stroke:#000000;stroke-width:1;" width="108.7676" x="235.9951" y="927.957"/><text fill="#000000" font-family="Arial" font-size="11" lengthAdjust="spacing" textLength="22.6177" x="279.0701" y="945.4548">VCS</text><text fill="#000000" font-family="Arial" font-size="11" lengthAdjust="spacing" textLength="94.7676" x="242.9951" y="958.1038">voice control owner</text><rect fill="#FFF4CC" height="26.6489" rx="2.5" ry="2.5" style="stroke:#000000;stroke-width:1;" width="119.1553" x="543.7671" y="89.2446"/><text fill="#000000" font-family="Arial" font-size="11" lengthAdjust="spacing" textLength="105.1553" x="550.7671" y="106.7424">Voice / TTS state bus</text><rect fill="#FFF4CC" height="26.6489" rx="2.5" ry="2.5" style="stroke:#000000;stroke-width:1;" width="119.1553" x="543.7671" y="927.957"/><text fill="#000000" font-family="Arial" font-size="11" lengthAdjust="spacing" textLength="105.1553" x="550.7671" y="945.4548">Voice / TTS state bus</text><rect fill="#E8F0FE" height="26.6489" rx="2.5" ry="2.5" style="stroke:#000000;stroke-width:1;" width="130.7729" x="692.9224" y="89.2446"/><text fill="#000000" font-family="Arial" font-size="11" lengthAdjust="spacing" textLength="116.7729" x="699.9224" y="106.7424">Observers / audio users</text><rect fill="#E8F0FE" height="26.6489" rx="2.5" ry="2.5" style="stroke:#000000;stroke-width:1;" width="130.7729" x="692.9224" y="927.957"/><text fill="#000000" font-family="Arial" font-size="11" lengthAdjust="spacing" textLength="116.7729" x="699.9224" y="945.4548">Observers / audio users</text><rect fill="#FFFFFF" height="3" style="stroke:#FFFFFF;stroke-width:1;" width="833.6953" x="5" y="146.218"/><line style="stroke:#000000;stroke-width:0.5;" x1="5" x2="838.6953" y1="146.218" y2="146.218"/><line style="stroke:#000000;stroke-width:0.5;" x1="5" x2="838.6953" y1="149.218" y2="149.218"/><rect fill="#FFFFFF" height="20.6489" style="stroke:#000000;stroke-width:1;" width="82.4546" x="380.6204" y="136.8936"/><text fill="#000000" font-family="Arial" font-size="11" font-weight="bold" lengthAdjust="spacing" textLength="65.3984" x="386.6204" y="151.3914">Voice Inputs</text><polygon fill="#000000" points="278.3789,207.4893,288.3789,211.4893,278.3789,215.4893,282.3789,211.4893" style="stroke:#000000;stroke-width:1;"/><line style="stroke:#000000;stroke-width:1;" x1="87.2261" x2="284.3789" y1="211.4893" y2="211.4893"/><text fill="#000000" font-family="Arial" font-size="11" lengthAdjust="spacing" textLength="179.1528" x="99.2261" y="182.0403">audioFocusOwner / audioDuckingLvl</text><text fill="#000000" font-family="Arial" font-size="11" lengthAdjust="spacing" textLength="143.0591" x="117.2729" y="194.6892">tmuServiceMode / signalBars</text><text fill="#000000" font-family="Arial" font-size="11" lengthAdjust="spacing" textLength="160.7729" x="108.416" y="207.3381">clusterNotifType / clusterNotifArg</text><line style="stroke:#000000;stroke-width:1;" x1="290.3789" x2="332.3789" y1="250.7871" y2="250.7871"/><line style="stroke:#000000;stroke-width:1;" x1="332.3789" x2="332.3789" y1="250.7871" y2="263.7871"/><line style="stroke:#000000;stroke-width:1;" x1="291.3789" x2="332.3789" y1="263.7871" y2="263.7871"/><polygon fill="#000000" points="301.3789,259.7871,291.3789,263.7871,301.3789,267.7871,297.3789,263.7871" style="stroke:#000000;stroke-width:1;"/><text fill="#000000" font-family="Arial" font-size="11" lengthAdjust="spacing" textLength="91.1099" x="328.2573" y="233.9871">if audio focus stale</text><text fill="#000000" font-family="Arial" font-size="11" lengthAdjust="spacing" textLength="152.8667" x="297.3789" y="246.636">then focusOwner = 0 / duck = 0</text><line style="stroke:#000000;stroke-width:1;" x1="290.3789" x2="332.3789" y1="303.085" y2="303.085"/><line style="stroke:#000000;stroke-width:1;" x1="332.3789" x2="332.3789" y1="303.085" y2="316.085"/><line style="stroke:#000000;stroke-width:1;" x1="291.3789" x2="332.3789" y1="316.085" y2="316.085"/><polygon fill="#000000" points="301.3789,312.085,291.3789,316.085,301.3789,320.085,297.3789,316.085" style="stroke:#000000;stroke-width:1;"/><text fill="#000000" font-family="Arial" font-size="11" lengthAdjust="spacing" textLength="58.6738" x="345.3911" y="286.2849">if TMU stale</text><text fill="#000000" font-family="Arial" font-size="11" lengthAdjust="spacing" textLength="154.6982" x="297.3789" y="298.9338">then serviceMode = 0 / bars = 0</text><line style="stroke:#000000;stroke-width:1;" x1="290.3789" x2="332.3789" y1="355.3828" y2="355.3828"/><line style="stroke:#000000;stroke-width:1;" x1="332.3789" x2="332.3789" y1="355.3828" y2="368.3828"/><line style="stroke:#000000;stroke-width:1;" x1="291.3789" x2="332.3789" y1="368.3828" y2="368.3828"/><polygon fill="#000000" points="301.3789,364.3828,291.3789,368.3828,301.3789,372.3828,297.3789,368.3828" style="stroke:#000000;stroke-width:1;"/><text fill="#000000" font-family="Arial" font-size="11" lengthAdjust="spacing" textLength="55.6392" x="346.6077" y="338.5828">if notif stale</text><text fill="#000000" font-family="Arial" font-size="11" lengthAdjust="spacing" textLength="154.0967" x="297.3789" y="351.2317">then notifType = 0 / notifArg = 0</text><line style="stroke:#000000;stroke-width:1;" x1="290.3789" x2="332.3789" y1="395.0317" y2="395.0317"/><line style="stroke:#000000;stroke-width:1;" x1="332.3789" x2="332.3789" y1="395.0317" y2="408.0317"/><line style="stroke:#000000;stroke-width:1;" x1="291.3789" x2="332.3789" y1="408.0317" y2="408.0317"/><polygon fill="#000000" points="301.3789,404.0317,291.3789,408.0317,301.3789,412.0317,297.3789,408.0317" style="stroke:#000000;stroke-width:1;"/><text fill="#000000" font-family="Arial" font-size="11" lengthAdjust="spacing" textLength="239.0298" x="297.3789" y="390.8806">voiceAssistState from serviceMode / focusOwner</text><line style="stroke:#000000;stroke-width:1;" x1="290.3789" x2="332.3789" y1="434.6807" y2="434.6807"/><line style="stroke:#000000;stroke-width:1;" x1="332.3789" x2="332.3789" y1="434.6807" y2="447.6807"/><line style="stroke:#000000;stroke-width:1;" x1="291.3789" x2="332.3789" y1="447.6807" y2="447.6807"/><polygon fill="#000000" points="301.3789,443.6807,291.3789,447.6807,301.3789,451.6807,297.3789,447.6807" style="stroke:#000000;stroke-width:1;"/><text fill="#000000" font-family="Arial" font-size="11" lengthAdjust="spacing" textLength="268.4312" x="297.3789" y="430.5295">wakeWordState when serviceMode == 1 and bars &gt;= 2</text><line style="stroke:#000000;stroke-width:1;" x1="290.3789" x2="332.3789" y1="474.3296" y2="474.3296"/><line style="stroke:#000000;stroke-width:1;" x1="332.3789" x2="332.3789" y1="474.3296" y2="487.3296"/><line style="stroke:#000000;stroke-width:1;" x1="291.3789" x2="332.3789" y1="487.3296" y2="487.3296"/><polygon fill="#000000" points="301.3789,483.3296,291.3789,487.3296,301.3789,491.3296,297.3789,487.3296" style="stroke:#000000;stroke-width:1;"/><text fill="#000000" font-family="Arial" font-size="11" lengthAdjust="spacing" textLength="298.9658" x="297.3789" y="470.1785">ttsState / ttsPriority / ttsQueueDepth from notif + focus + duck</text><path d="M295,500.3296 L295,560.3296 L501,560.3296 L501,510.3296 L491,500.3296 L295,500.3296 " fill="#FFFFFF" style="stroke:#000000;stroke-width:1;"/><path d="M491,500.3296 L491,510.3296 L501,510.3296 L491,500.3296 " fill="#FFFFFF" style="stroke:#000000;stroke-width:1;"/><text fill="#000000" font-family="Arial" font-size="11" lengthAdjust="spacing" textLength="139.4229" x="301" y="515.8274">Representative gating inputs</text><text fill="#000000" font-family="Arial" font-size="11" lengthAdjust="spacing" textLength="185.8721" x="301" y="528.4763">- audioFocusOwner / audioDuckingLvl</text><text fill="#000000" font-family="Arial" font-size="11" lengthAdjust="spacing" textLength="149.7783" x="301" y="541.1252">- tmuServiceMode / signalBars</text><text fill="#000000" font-family="Arial" font-size="11" lengthAdjust="spacing" textLength="167.4922" x="301" y="553.7742">- clusterNotifType / clusterNotifArg</text><rect fill="#FFFFFF" height="3" style="stroke:#FFFFFF;stroke-width:1;" width="833.6953" x="5" y="585.2498"/><line style="stroke:#000000;stroke-width:0.5;" x1="5" x2="838.6953" y1="585.2498" y2="585.2498"/><line style="stroke:#000000;stroke-width:0.5;" x1="5" x2="838.6953" y1="588.2498" y2="588.2498"/><rect fill="#FFFFFF" height="20.6489" style="stroke:#000000;stroke-width:1;" width="89.1846" x="377.2554" y="575.9253"/><text fill="#000000" font-family="Arial" font-size="11" font-weight="bold" lengthAdjust="spacing" textLength="72.1284" x="383.2554" y="590.4231">Voice Publish</text><polygon fill="#000000" points="591.3447,633.8721,601.3447,637.8721,591.3447,641.8721,595.3447,637.8721" style="stroke:#000000;stroke-width:1;"/><line style="stroke:#000000;stroke-width:1;" x1="290.3789" x2="597.3447" y1="637.8721" y2="637.8721"/><text fill="#000000" font-family="Arial" font-size="11" lengthAdjust="spacing" textLength="119.2007" x="387.2615" y="621.072">frmVoiceAssistStateMsg</text><text fill="#000000" font-family="Arial" font-size="11" lengthAdjust="spacing" textLength="171.7891" x="360.9673" y="633.7209">VoiceAssistState / WakeWordState</text><polygon fill="#000000" points="591.3447,673.1699,601.3447,677.1699,591.3447,681.1699,595.3447,677.1699" style="stroke:#000000;stroke-width:1;"/><line style="stroke:#000000;stroke-width:1;" x1="290.3789" x2="597.3447" y1="677.1699" y2="677.1699"/><text fill="#000000" font-family="Arial" font-size="11" lengthAdjust="spacing" textLength="114.9307" x="389.3965" y="660.3699">frmSpeechTtsStateMsg</text><text fill="#000000" font-family="Arial" font-size="11" lengthAdjust="spacing" textLength="186.4521" x="353.6357" y="673.0188">TtsState / TtsPriority / TtsQueueDepth</text><path d="M295,690.1699 L295,750.1699 L478,750.1699 L478,700.1699 L468,690.1699 L295,690.1699 " fill="#FFFFFF" style="stroke:#000000;stroke-width:1;"/><path d="M468,690.1699 L468,700.1699 L478,700.1699 L468,690.1699 " fill="#FFFFFF" style="stroke:#000000;stroke-width:1;"/><text fill="#000000" font-family="Arial" font-size="11" lengthAdjust="spacing" textLength="113.126" x="301" y="705.6677">Representative outputs</text><text fill="#000000" font-family="Arial" font-size="11" lengthAdjust="spacing" textLength="89.2568" x="301" y="718.3167">- VoiceAssistState</text><text fill="#000000" font-family="Arial" font-size="11" lengthAdjust="spacing" textLength="86.8022" x="301" y="730.9656">- WakeWordState</text><text fill="#000000" font-family="Arial" font-size="11" lengthAdjust="spacing" textLength="162.6206" x="301" y="743.6145">- TtsState / Priority / QueueDepth</text><rect fill="#FFFFFF" height="3" style="stroke:#FFFFFF;stroke-width:1;" width="833.6953" x="5" y="775.0901"/><line style="stroke:#000000;stroke-width:0.5;" x1="5" x2="838.6953" y1="775.0901" y2="775.0901"/><line style="stroke:#000000;stroke-width:0.5;" x1="5" x2="838.6953" y1="778.0901" y2="778.0901"/><rect fill="#FFFFFF" height="20.6489" style="stroke:#000000;stroke-width:1;" width="131.3638" x="356.1658" y="765.7656"/><text fill="#000000" font-family="Arial" font-size="11" font-weight="bold" lengthAdjust="spacing" textLength="114.3076" x="362.1658" y="780.2634">Downstream Visibility</text><polygon fill="#000000" points="746.3088,823.7124,756.3088,827.7124,746.3088,831.7124,750.3088,827.7124" style="stroke:#000000;stroke-width:1;"/><line style="stroke:#000000;stroke-width:1;" x1="603.3447" x2="752.3088" y1="827.7124" y2="827.7124"/><text fill="#000000" font-family="Arial" font-size="11" lengthAdjust="spacing" textLength="103.9307" x="628.8615" y="810.9124">voice/TTS readback /</text><text fill="#000000" font-family="Arial" font-size="11" lengthAdjust="spacing" textLength="121.0645" x="620.2946" y="823.5613">audio-routing consumers</text><path d="M13,840.7124 L13,913.7124 L831,913.7124 L831,850.7124 L821,840.7124 L13,840.7124 " fill="#FFFFFF" style="stroke:#000000;stroke-width:1;"/><path d="M821,840.7124 L821,850.7124 L831,850.7124 L821,840.7124 " fill="#FFFFFF" style="stroke:#000000;stroke-width:1;"/><text fill="#000000" font-family="Arial" font-size="11" lengthAdjust="spacing" textLength="143.0752" x="235.0183" y="856.2102">Representative runtime chain</text><text fill="#000000" font-family="Arial" font-size="11" lengthAdjust="spacing" textLength="274.5273" x="235.0183" y="868.8591">1. Audio focus, TMU, and notification context reach VCS</text><text fill="#000000" font-family="Arial" font-size="11" lengthAdjust="spacing" textLength="267.7598" x="235.0183" y="881.5081">2. VCS determines assist, wake-word, and TTS activity</text><text fill="#000000" font-family="Arial" font-size="11" lengthAdjust="spacing" textLength="221.9336" x="235.0183" y="894.157">3. VCS publishes voice and TTS state frames</text><text fill="#000000" font-family="Arial" font-size="11" lengthAdjust="spacing" textLength="365.6587" x="235.0183" y="906.8059">4. Audio users and observers consume the effective spoken-output posture</text><!--SRC=[ZLLDRnen4BtlhvWcbrQ14D98YI8H2KYGAfKaBLjouM9sXyLYiRV-WAI_lcDx8LuIDUK2s3Dlthpvy2Upn3L2LJ8k4htYecAAhM7EibMXf1NvK9PImV78VoAB71VCbcOaXRbdXD1Nd9Nltq_u7uHkDxhK-DkYo72CMhC2-oKl16Ge3Ah8Ig6kfD0xgm6MSjjNIcx1A8j9OhWfAR3DkOIHpAo6LC9qE84qdS2485a98_APYS_C6osyqGcaurz4GMruXlGlAwscm22auGjettY8ZQJBZWEgxBpaUlabIOYLuHclc31mr8yGEnwnCnCDA9unmwK0IiSQVGHCmzIX3iqpwNankXmDcf0KToPyOCX8DYLBa5k1AhWIgUExgz7btTM1btVe-AIrOGPXRgDe0-BdgdSn73Rz7kPE0bIEVf37qa7mf3iVx6nqboIzNa22RpuHwFMIP9z8BTTrWF1LU72STw2tDgDw5jytvKoOjPq4rSSoTvIrhz60ARsNxjufbxvKxZe-wgiYSO7syQXKSL4fyn8fn195E0aiUd16G3cHS3_V8FX6Y3nrH2-upedSkwwXMs9diQSUN4ND-wsxht5VQwxDn5TieUIw4RmJ9T7qtR8LFacL1yVj6zOzw08JUI1-quFpfhinEdXstCz7nQNYvYNy-s7HuYrMPXa8XHHFzcFZP4pe447nOcb0BXneyXChcbGQNcht3K91NwAekpvfVzmOPFEFpg3R_sWDf8mTiwXR7yFSXdQj9TWDn3Kbk9uUL66iYvauFAHOJx7YxqDDAiHicTRQUg3qLUYq8NGQ2_sndDAQMiX3QdJKfDQ6A6WKCGhNqEcMjeis2cdLJhdcSruw-_ruk-meKxSBhgDzIFQvUnxSllELRDCxuKjEIqlRDUsG9AGbQRliLrxB0Hqcfwmmd1wFREcUd-ufH5krvQQpvNkviKxTQiHdutXaIw_O-QblxXof8zPSeAOLvbHg-M5fRqcWWEFeiumYKvx9r-1LhtTo2fjtPwVhmQItJISNEsP-HNeRkL-VTTf0Im1miS3CfqPFrmf5EvGFAgcDLVYg_ry0]--></g></svg>