<svg xmlns="http://www.w3.org/2000/svg" xmlns:xlink="http://www.w3.org/1999/xlink" contentStyleType="text/css" height="868px" preserveAspectRatio="none" style="width:843px;height:868px;background:#FFFFFF;" version="1.1" viewBox="0 0 843 868" width="843px" zoomAndPan="magnify"><title>Audio Focus To AMP Ducking Signal Flow</title><defs/><g><text fill="#000000" font-family="Arial" font-size="22" font-weight="bold" lengthAdjust="spacing" textLength="442.4385" x="198.8984" y="35.9956">Audio Focus To AMP Ducking Signal Flow</text><text fill="#000000" font-family="Arial" font-size="22" font-weight="bold" lengthAdjust="spacing" textLength="712.0566" x="64.0894" y="61.2935">(audio focus / TTS / media state -&gt; AMP ducking and render volume)</text><line style="stroke:#000000;stroke-width:1;" x1="79" x2="79" y1="116.8936" y2="824.3613"/><line style="stroke:#000000;stroke-width:1;" x1="288.1475" x2="288.1475" y1="116.8936" y2="824.3613"/><line style="stroke:#000000;stroke-width:1;" x1="600.0879" x2="600.0879" y1="116.8936" y2="824.3613"/><line style="stroke:#000000;stroke-width:1;" x1="755.4624" x2="755.4624" y1="116.8936" y2="824.3613"/><rect fill="#F4F7FB" height="39.2979" rx="2.5" ry="2.5" style="stroke:#000000;stroke-width:1;" width="116.1099" x="21" y="76.5957"/><text fill="#000000" font-family="Arial" font-size="11" lengthAdjust="spacing" textLength="102.1099" x="28" y="94.0935">Media / audio-focus /</text><text fill="#000000" font-family="Arial" font-size="11" lengthAdjust="spacing" textLength="64.2007" x="46.9546" y="106.7424">voice context</text><rect fill="#F4F7FB" height="39.2979" rx="2.5" ry="2.5" style="stroke:#000000;stroke-width:1;" width="116.1099" x="21" y="823.3613"/><text fill="#000000" font-family="Arial" font-size="11" lengthAdjust="spacing" textLength="102.1099" x="28" y="840.8591">Media / audio-focus /</text><text fill="#000000" font-family="Arial" font-size="11" lengthAdjust="spacing" textLength="64.2007" x="46.9546" y="853.5081">voice context</text><rect fill="#E8F7E8" height="39.2979" rx="2.5" ry="2.5" style="stroke:#000000;stroke-width:1;" width="107.5698" x="235.1475" y="76.5957"/><text fill="#000000" font-family="Arial" font-size="11" lengthAdjust="spacing" textLength="23.8369" x="277.0139" y="94.0935">AMP</text><text fill="#000000" font-family="Arial" font-size="11" lengthAdjust="spacing" textLength="93.5698" x="242.1475" y="106.7424">audio output owner</text><rect fill="#E8F7E8" height="39.2979" rx="2.5" ry="2.5" style="stroke:#000000;stroke-width:1;" width="107.5698" x="235.1475" y="823.3613"/><text fill="#000000" font-family="Arial" font-size="11" lengthAdjust="spacing" textLength="23.8369" x="277.0139" y="840.8591">AMP</text><text fill="#000000" font-family="Arial" font-size="11" lengthAdjust="spacing" textLength="93.5698" x="242.1475" y="853.5081">audio output owner</text><rect fill="#FFF4CC" height="26.6489" rx="2.5" ry="2.5" style="stroke:#000000;stroke-width:1;" width="120.3745" x="540.0879" y="89.2446"/><text fill="#000000" font-family="Arial" font-size="11" lengthAdjust="spacing" textLength="106.3745" x="547.0879" y="106.7424">AMP state / UiRender</text><rect fill="#FFF4CC" height="26.6489" rx="2.5" ry="2.5" style="stroke:#000000;stroke-width:1;" width="120.3745" x="540.0879" y="823.3613"/><text fill="#000000" font-family="Arial" font-size="11" lengthAdjust="spacing" textLength="106.3745" x="547.0879" y="840.8591">AMP state / UiRender</text><rect fill="#E8F0FE" height="26.6489" rx="2.5" ry="2.5" style="stroke:#000000;stroke-width:1;" width="130.7729" x="690.4624" y="89.2446"/><text fill="#000000" font-family="Arial" font-size="11" lengthAdjust="spacing" textLength="116.7729" x="697.4624" y="106.7424">Observers / audio users</text><rect fill="#E8F0FE" height="26.6489" rx="2.5" ry="2.5" style="stroke:#000000;stroke-width:1;" width="130.7729" x="690.4624" y="823.3613"/><text fill="#000000" font-family="Arial" font-size="11" lengthAdjust="spacing" textLength="116.7729" x="697.4624" y="840.8591">Observers / audio users</text><rect fill="#FFFFFF" height="3" style="stroke:#FFFFFF;stroke-width:1;" width="831.2354" x="5" y="146.218"/><line style="stroke:#000000;stroke-width:0.5;" x1="5" x2="836.2354" y1="146.218" y2="146.218"/><line style="stroke:#000000;stroke-width:0.5;" x1="5" x2="836.2354" y1="149.218" y2="149.218"/><rect fill="#FFFFFF" height="20.6489" style="stroke:#000000;stroke-width:1;" width="84.2646" x="378.4854" y="136.8936"/><text fill="#000000" font-family="Arial" font-size="11" font-weight="bold" lengthAdjust="spacing" textLength="67.2085" x="384.4854" y="151.3914">Audio Inputs</text><polygon fill="#000000" points="276.9324,207.4893,286.9324,211.4893,276.9324,215.4893,280.9324,211.4893" style="stroke:#000000;stroke-width:1;"/><line style="stroke:#000000;stroke-width:1;" x1="79.0549" x2="282.9324" y1="211.4893" y2="211.4893"/><text fill="#000000" font-family="Arial" font-size="11" lengthAdjust="spacing" textLength="185.8774" x="91.0549" y="182.0403">mediaState / muteState / volumeLevel</text><text fill="#000000" font-family="Arial" font-size="11" lengthAdjust="spacing" textLength="179.1528" x="94.4172" y="194.6892">audioFocusOwner / audioDuckingLvl</text><text fill="#000000" font-family="Arial" font-size="11" lengthAdjust="spacing" textLength="127.166" x="120.4106" y="207.3381">voiceAssistState / ttsState</text><line style="stroke:#000000;stroke-width:1;" x1="288.9324" x2="330.9324" y1="238.1382" y2="238.1382"/><line style="stroke:#000000;stroke-width:1;" x1="330.9324" x2="330.9324" y1="238.1382" y2="251.1382"/><line style="stroke:#000000;stroke-width:1;" x1="289.9324" x2="330.9324" y1="251.1382" y2="251.1382"/><polygon fill="#000000" points="299.9324,247.1382,289.9324,251.1382,299.9324,255.1382,295.9324,251.1382" style="stroke:#000000;stroke-width:1;"/><text fill="#000000" font-family="Arial" font-size="11" lengthAdjust="spacing" textLength="287.665" x="295.9324" y="233.9871">baseVolume = deriveBaseVolume(Inject::alertVolumeCmd)</text><line style="stroke:#000000;stroke-width:1;" x1="288.9324" x2="330.9324" y1="277.7871" y2="277.7871"/><line style="stroke:#000000;stroke-width:1;" x1="330.9324" x2="330.9324" y1="277.7871" y2="290.7871"/><line style="stroke:#000000;stroke-width:1;" x1="289.9324" x2="330.9324" y1="290.7871" y2="290.7871"/><polygon fill="#000000" points="299.9324,286.7871,289.9324,290.7871,299.9324,294.7871,295.9324,290.7871" style="stroke:#000000;stroke-width:1;"/><text fill="#000000" font-family="Arial" font-size="11" lengthAdjust="spacing" textLength="199.2891" x="295.9324" y="273.636">ampMode from media / voice / tts activity</text><line style="stroke:#000000;stroke-width:1;" x1="288.9324" x2="330.9324" y1="317.436" y2="317.436"/><line style="stroke:#000000;stroke-width:1;" x1="330.9324" x2="330.9324" y1="317.436" y2="330.436"/><line style="stroke:#000000;stroke-width:1;" x1="289.9324" x2="330.9324" y1="330.436" y2="330.436"/><polygon fill="#000000" points="299.9324,326.436,289.9324,330.436,299.9324,334.436,295.9324,330.436" style="stroke:#000000;stroke-width:1;"/><text fill="#000000" font-family="Arial" font-size="11" lengthAdjust="spacing" textLength="276.9497" x="295.9324" y="313.2849">ampDucking escalates when TTS / voice / focus is active</text><line style="stroke:#000000;stroke-width:1;" x1="288.9324" x2="330.9324" y1="369.7339" y2="369.7339"/><line style="stroke:#000000;stroke-width:1;" x1="330.9324" x2="330.9324" y1="369.7339" y2="382.7339"/><line style="stroke:#000000;stroke-width:1;" x1="289.9324" x2="330.9324" y1="382.7339" y2="382.7339"/><polygon fill="#000000" points="299.9324,378.7339,289.9324,382.7339,299.9324,386.7339,295.9324,382.7339" style="stroke:#000000;stroke-width:1;"/><text fill="#000000" font-family="Arial" font-size="11" lengthAdjust="spacing" textLength="154.0967" x="329.8643" y="352.9338">if volume &gt;= 90 or ducking &gt;= 6</text><text fill="#000000" font-family="Arial" font-size="11" lengthAdjust="spacing" textLength="221.9604" x="295.9324" y="365.5828">then raise ducking and force voice-safe mode</text><path d="M293,395.7339 L293,455.7339 L499,455.7339 L499,405.7339 L489,395.7339 L293,395.7339 " fill="#FFFFFF" style="stroke:#000000;stroke-width:1;"/><path d="M489,395.7339 L489,405.7339 L499,405.7339 L489,395.7339 " fill="#FFFFFF" style="stroke:#000000;stroke-width:1;"/><text fill="#000000" font-family="Arial" font-size="11" lengthAdjust="spacing" textLength="139.4229" x="299" y="411.2317">Representative gating inputs</text><text fill="#000000" font-family="Arial" font-size="11" lengthAdjust="spacing" textLength="185.8721" x="299" y="423.8806">- audioFocusOwner / audioDuckingLvl</text><text fill="#000000" font-family="Arial" font-size="11" lengthAdjust="spacing" textLength="133.8853" x="299" y="436.5295">- voiceAssistState / ttsState</text><text fill="#000000" font-family="Arial" font-size="11" lengthAdjust="spacing" textLength="133.2891" x="299" y="449.1785">- mediaState / volumeLevel</text><rect fill="#FFFFFF" height="3" style="stroke:#FFFFFF;stroke-width:1;" width="831.2354" x="5" y="480.6541"/><line style="stroke:#000000;stroke-width:0.5;" x1="5" x2="836.2354" y1="480.6541" y2="480.6541"/><line style="stroke:#000000;stroke-width:0.5;" x1="5" x2="836.2354" y1="483.6541" y2="483.6541"/><rect fill="#FFFFFF" height="20.6489" style="stroke:#000000;stroke-width:1;" width="84.2808" x="378.4773" y="471.3296"/><text fill="#000000" font-family="Arial" font-size="11" font-weight="bold" lengthAdjust="spacing" textLength="67.2246" x="384.4773" y="485.8274">AMP Publish</text><polygon fill="#000000" points="588.2751,529.2764,598.2751,533.2764,588.2751,537.2764,592.2751,533.2764" style="stroke:#000000;stroke-width:1;"/><line style="stroke:#000000;stroke-width:1;" x1="288.9324" x2="594.2751" y1="533.2764" y2="533.2764"/><text fill="#000000" font-family="Arial" font-size="11" lengthAdjust="spacing" textLength="84.9653" x="402.1211" y="516.4763">frmAmpStateMsg</text><text fill="#000000" font-family="Arial" font-size="11" lengthAdjust="spacing" textLength="287.3428" x="300.9324" y="529.1252">AmpMode / AmpMute / AmpDuckingLvl / AmpVolumeLevel</text><polygon fill="#000000" points="588.2751,555.9253,598.2751,559.9253,588.2751,563.9253,592.2751,559.9253" style="stroke:#000000;stroke-width:1;"/><line style="stroke:#000000;stroke-width:1;" x1="288.9324" x2="594.2751" y1="559.9253" y2="559.9253"/><text fill="#000000" font-family="Arial" font-size="11" lengthAdjust="spacing" textLength="141.8506" x="373.6785" y="555.7742">UiRender::renderVolumLevel</text><path d="M293,572.9253 L293,645.9253 L427,645.9253 L427,582.9253 L417,572.9253 L293,572.9253 " fill="#FFFFFF" style="stroke:#000000;stroke-width:1;"/><path d="M417,572.9253 L417,582.9253 L427,582.9253 L417,572.9253 " fill="#FFFFFF" style="stroke:#000000;stroke-width:1;"/><text fill="#000000" font-family="Arial" font-size="11" lengthAdjust="spacing" textLength="113.126" x="299" y="588.4231">Representative outputs</text><text fill="#000000" font-family="Arial" font-size="11" lengthAdjust="spacing" textLength="56.853" x="299" y="601.072">- AmpMode</text><text fill="#000000" font-family="Arial" font-size="11" lengthAdjust="spacing" textLength="83.1392" x="299" y="613.7209">- AmpDuckingLvl</text><text fill="#000000" font-family="Arial" font-size="11" lengthAdjust="spacing" textLength="92.9307" x="299" y="626.3699">- AmpVolumeLevel</text><text fill="#000000" font-family="Arial" font-size="11" lengthAdjust="spacing" textLength="95.9922" x="299" y="639.0188">- renderVolumLevel</text><rect fill="#FFFFFF" height="3" style="stroke:#FFFFFF;stroke-width:1;" width="831.2354" x="5" y="670.4944"/><line style="stroke:#000000;stroke-width:0.5;" x1="5" x2="836.2354" y1="670.4944" y2="670.4944"/><line style="stroke:#000000;stroke-width:0.5;" x1="5" x2="836.2354" y1="673.4944" y2="673.4944"/><rect fill="#FFFFFF" height="20.6489" style="stroke:#000000;stroke-width:1;" width="131.3638" x="354.9358" y="661.1699"/><text fill="#000000" font-family="Arial" font-size="11" font-weight="bold" lengthAdjust="spacing" textLength="114.3076" x="360.9358" y="675.6677">Downstream Visibility</text><polygon fill="#000000" points="743.8489,719.1167,753.8489,723.1167,743.8489,727.1167,747.8489,723.1167" style="stroke:#000000;stroke-width:1;"/><line style="stroke:#000000;stroke-width:1;" x1="600.2751" x2="749.8489" y1="723.1167" y2="723.1167"/><text fill="#000000" font-family="Arial" font-size="11" lengthAdjust="spacing" textLength="115.5806" x="620.2717" y="706.3167">audio-output readback /</text><text fill="#000000" font-family="Arial" font-size="11" lengthAdjust="spacing" textLength="127.7729" x="614.1755" y="718.9656">render-volume consumers</text><path d="M10,736.1167 L10,809.1167 L825,809.1167 L825,746.1167 L815,736.1167 L10,736.1167 " fill="#FFFFFF" style="stroke:#000000;stroke-width:1;"/><path d="M815,736.1167 L815,746.1167 L825,746.1167 L815,736.1167 " fill="#FFFFFF" style="stroke:#000000;stroke-width:1;"/><text fill="#000000" font-family="Arial" font-size="11" lengthAdjust="spacing" textLength="143.0752" x="278.2979" y="751.6145">Representative runtime chain</text><text fill="#000000" font-family="Arial" font-size="11" lengthAdjust="spacing" textLength="233.5728" x="278.2979" y="764.2634">1. Media, focus, and speech context reach AMP</text><text fill="#000000" font-family="Arial" font-size="11" lengthAdjust="spacing" textLength="229.3081" x="278.2979" y="776.9124">2. AMP decides ducking level and output mode</text><text fill="#000000" font-family="Arial" font-size="11" lengthAdjust="spacing" textLength="237.252" x="278.2979" y="789.5613">3. AMP publishes audio state and render volume</text><text fill="#000000" font-family="Arial" font-size="11" lengthAdjust="spacing" textLength="269.6396" x="278.2979" y="802.2102">4. Observers expose the effective audio priority posture</text><!--SRC=[XLJRJXin47ttLqpX1IH2e4M5HWfI4bW9YHH4A4zvSNPd4nUllRMz2UtNTtpPa4jLyf3rUkTovioP-UGMM27KaWl5xAjGDJUyWXdFN-T6DweOQQaD76RXjs5HOCaRwJAjt7TE4GP6SFdlxnFn1-7yVEEZnLyDgXp7Q2sVuq2AkO8SbKEpOMNGrbhPrcg8Kgy6nkWLEDCWOquuIOcRGcZ8TDvOUDOm63_2JPDJa3bCA2oNa97VL1tnO5W6mouyFq_ely92SB2EEuJETN0kaZDN1I5G1HfOQjbKUCmOuN8Y5pLN3Wx6mRSB8MudnPsgfHOvGavruvix06uZmf5x8nOliijik1s6SavLnAORLpSEz4gXYPw4v_3sAhkylTfpIgYxy4Cy1PZHewg7XCFtws8qsdPwc5aqIpIs1GqDNTZWHzz2fhFibh5-Fx5wfmYFXNwViNKHYQPUv6wIG5IDm_OSwRh79SfKMUZEWo-hJPrQTB-KYR61jSAwDeHpDXoPJxNEEECMNq9mw9F0Z5ZYS7rrTAT-OkvwFIxHk7WtgehZxH2ygiUwG2YDhbBtFM3Vif0LUEx4KhZVUswjgD3cN18q2wi5ggIZDa9KWKXXTk2BCb43rttuTWOqLwtOwEBhL3aVq71XSKk5fJOKFAJeM5uYL5G1KvgOCcA-8C6KFWDxmff6XgQ8-zmmfmT54A67h0CVTe9i_jUApdR7DxhCI7_WyKJfKB6FpKmAkuZAIHn4PVQ8-ehE8SpOpgTga5hIzIRZngNJEwxu_hAHRpTaEmAzNfpOO1jDFwGf3fqdA069forQTj9tO2_D5WCtDC7M6QGTzYAic0b9WefSHCI4tGzSB-sEDFVaKFZ5wxT8JD19Ug5jOkbfB8lrQ9hYzLevyR5sgpADSi9xBlnYFp-5iArEea1FWgniZPWlsatbizER9-ZpQLo4c8k2PDvAKVf2WsV26sJu9HhNiU5a7ZTBN4vxEvHTdCBx6iAtMfFMIVQ0PObXP99_ROGsdZMoS8t1TuB_0W00]--></g></svg>