<svg xmlns="http://www.w3.org/2000/svg" xmlns:xlink="http://www.w3.org/1999/xlink" contentStyleType="text/css" height="945px" preserveAspectRatio="none" style="width:1023px;height:945px;background:#FFFFFF;" version="1.1" viewBox="0 0 1023 945" width="1023px" zoomAndPan="magnify"><title>Audio Popup Sync To CLU Duplicate Guard Signal Flow</title><defs/><g><text fill="#000000" font-family="Arial" font-size="22" font-weight="bold" lengthAdjust="spacing" textLength="584.2354" x="218.17" y="35.9956">Audio Popup Sync To CLU Duplicate Guard Signal Flow</text><text fill="#000000" font-family="Arial" font-size="22" font-weight="bold" lengthAdjust="spacing" textLength="960.8135" x="29.881" y="61.2935">(audio focus + popup + sync state + cluster warning -&gt; CLU duplicate-guarded warning text)</text><rect fill="#FFFFFF" height="562.2231" style="stroke:#000000;stroke-width:1;" width="10" x="498.998" y="238.1382"/><line style="stroke:#000000;stroke-width:1;" x1="75" x2="75" y1="116.8936" y2="901.606"/><line style="stroke:#000000;stroke-width:1;" x1="234.2114" x2="234.2114" y1="116.8936" y2="901.606"/><line style="stroke:#000000;stroke-width:1;" x1="503.5608" x2="503.5608" y1="116.8936" y2="901.606"/><line style="stroke:#000000;stroke-width:1;" x1="769.7754" x2="769.7754" y1="116.8936" y2="901.606"/><line style="stroke:#000000;stroke-width:1;" x1="954.824" x2="954.824" y1="116.8936" y2="901.606"/><rect fill="#F4F7FB" height="26.6489" rx="2.5" ry="2.5" style="stroke:#000000;stroke-width:1;" width="111.2114" x="20" y="89.2446"/><text fill="#000000" font-family="Arial" font-size="11" lengthAdjust="spacing" textLength="97.2114" x="27" y="106.7424">Cluster warning bus</text><rect fill="#F4F7FB" height="26.6489" rx="2.5" ry="2.5" style="stroke:#000000;stroke-width:1;" width="111.2114" x="20" y="900.606"/><text fill="#000000" font-family="Arial" font-size="11" lengthAdjust="spacing" textLength="97.2114" x="27" y="918.1038">Cluster warning bus</text><rect fill="#E8F0FE" height="26.6489" rx="2.5" ry="2.5" style="stroke:#000000;stroke-width:1;" width="146.0859" x="161.2114" y="89.2446"/><text fill="#000000" font-family="Arial" font-size="11" lengthAdjust="spacing" textLength="132.0859" x="168.2114" y="106.7424">Popup / audio / sync buses</text><rect fill="#E8F0FE" height="26.6489" rx="2.5" ry="2.5" style="stroke:#000000;stroke-width:1;" width="146.0859" x="161.2114" y="900.606"/><text fill="#000000" font-family="Arial" font-size="11" lengthAdjust="spacing" textLength="132.0859" x="168.2114" y="918.1038">Popup / audio / sync buses</text><rect fill="#E8F7E8" height="39.2979" rx="2.5" ry="2.5" style="stroke:#000000;stroke-width:1;" width="114.8745" x="446.5608" y="76.5957"/><text fill="#000000" font-family="Arial" font-size="11" lengthAdjust="spacing" textLength="22.0054" x="492.9954" y="94.0935">CLU</text><text fill="#000000" font-family="Arial" font-size="11" lengthAdjust="spacing" textLength="100.8745" x="453.5608" y="106.7424">cluster-render owner</text><rect fill="#E8F7E8" height="39.2979" rx="2.5" ry="2.5" style="stroke:#000000;stroke-width:1;" width="114.8745" x="446.5608" y="900.606"/><text fill="#000000" font-family="Arial" font-size="11" lengthAdjust="spacing" textLength="22.0054" x="492.9954" y="918.1038">CLU</text><text fill="#000000" font-family="Arial" font-size="11" lengthAdjust="spacing" textLength="100.8745" x="453.5608" y="930.7527">cluster-render owner</text><rect fill="#FFF4CC" height="26.6489" rx="2.5" ry="2.5" style="stroke:#000000;stroke-width:1;" width="111.1953" x="714.7754" y="89.2446"/><text fill="#000000" font-family="Arial" font-size="11" lengthAdjust="spacing" textLength="97.1953" x="721.7754" y="106.7424">Cluster/Core seams</text><rect fill="#FFF4CC" height="26.6489" rx="2.5" ry="2.5" style="stroke:#000000;stroke-width:1;" width="111.1953" x="714.7754" y="900.606"/><text fill="#000000" font-family="Arial" font-size="11" lengthAdjust="spacing" textLength="97.1953" x="721.7754" y="918.1038">Cluster/Core seams</text><rect fill="#FFF4CC" height="39.2979" rx="2.5" ry="2.5" style="stroke:#000000;stroke-width:1;" width="86.7515" x="911.824" y="76.5957"/><text fill="#000000" font-family="Arial" font-size="11" lengthAdjust="spacing" textLength="56.8477" x="926.7759" y="94.0935">Observers /</text><text fill="#000000" font-family="Arial" font-size="11" lengthAdjust="spacing" textLength="72.7515" x="918.824" y="106.7424">cluster readers</text><rect fill="#FFF4CC" height="39.2979" rx="2.5" ry="2.5" style="stroke:#000000;stroke-width:1;" width="86.7515" x="911.824" y="900.606"/><text fill="#000000" font-family="Arial" font-size="11" lengthAdjust="spacing" textLength="56.8477" x="926.7759" y="918.1038">Observers /</text><text fill="#000000" font-family="Arial" font-size="11" lengthAdjust="spacing" textLength="72.7515" x="918.824" y="930.7527">cluster readers</text><rect fill="#FFFFFF" height="562.2231" style="stroke:#000000;stroke-width:1;" width="10" x="498.998" y="238.1382"/><rect fill="#FFFFFF" height="3" style="stroke:#FFFFFF;stroke-width:1;" width="1011.5754" x="5" y="146.218"/><line style="stroke:#000000;stroke-width:0.5;" x1="5" x2="1016.5754" y1="146.218" y2="146.218"/><line style="stroke:#000000;stroke-width:0.5;" x1="5" x2="1016.5754" y1="149.218" y2="149.218"/><rect fill="#FFFFFF" height="20.6489" style="stroke:#000000;stroke-width:1;" width="75.7139" x="472.9308" y="136.8936"/><text fill="#000000" font-family="Arial" font-size="11" font-weight="bold" lengthAdjust="spacing" textLength="58.6577" x="478.9308" y="151.3914">CLU Inputs</text><polygon fill="#000000" points="491.998,194.8403,501.998,198.8403,491.998,202.8403,495.998,198.8403" style="stroke:#000000;stroke-width:1;"/><line style="stroke:#000000;stroke-width:1;" x1="75.6057" x2="497.998" y1="198.8403" y2="198.8403"/><text fill="#000000" font-family="Arial" font-size="11" lengthAdjust="spacing" textLength="112.4653" x="233.5692" y="182.0403">frmClusterWarningMsg</text><text fill="#000000" font-family="Arial" font-size="11" lengthAdjust="spacing" textLength="88.6499" x="245.4769" y="194.6892">WarningTextCode</text><polygon fill="#000000" points="486.998,234.1382,496.998,238.1382,486.998,242.1382,490.998,238.1382" style="stroke:#000000;stroke-width:1;"/><line style="stroke:#000000;stroke-width:1;" x1="234.2544" x2="492.998" y1="238.1382" y2="238.1382"/><text fill="#000000" font-family="Arial" font-size="11" lengthAdjust="spacing" textLength="223.7383" x="254.7571" y="221.3381">frmHmiPopupStateMsg / frmAudioFocusMsg /</text><text fill="#000000" font-family="Arial" font-size="11" lengthAdjust="spacing" textLength="245.7437" x="243.7544" y="233.9871">frmSpeechTtsStateMsg / frmClusterSyncStateMsg</text><line style="stroke:#000000;stroke-width:1;" x1="508.998" x2="550.998" y1="264.7871" y2="264.7871"/><line style="stroke:#000000;stroke-width:1;" x1="550.998" x2="550.998" y1="264.7871" y2="277.7871"/><line style="stroke:#000000;stroke-width:1;" x1="509.998" x2="550.998" y1="277.7871" y2="277.7871"/><polygon fill="#000000" points="519.998,273.7871,509.998,277.7871,519.998,281.7871,515.998,277.7871" style="stroke:#000000;stroke-width:1;"/><text fill="#000000" font-family="Arial" font-size="11" lengthAdjust="spacing" textLength="143.0537" x="515.998" y="260.636">applyDisplayPolicy(rawCode)</text><line style="stroke:#000000;stroke-width:1;" x1="508.998" x2="550.998" y1="317.085" y2="317.085"/><line style="stroke:#000000;stroke-width:1;" x1="550.998" x2="550.998" y1="317.085" y2="330.085"/><line style="stroke:#000000;stroke-width:1;" x1="509.998" x2="550.998" y1="330.085" y2="330.085"/><polygon fill="#000000" points="519.998,326.085,509.998,330.085,519.998,334.085,515.998,330.085" style="stroke:#000000;stroke-width:1;"/><text fill="#000000" font-family="Arial" font-size="11" lengthAdjust="spacing" textLength="121.6714" x="571.3499" y="300.2849">applyRobustPolicy(code)</text><text fill="#000000" font-family="Arial" font-size="11" lengthAdjust="spacing" textLength="232.375" x="515.998" y="312.9338">using popup/audio/tts/sync/backbone alert state</text><line style="stroke:#000000;stroke-width:1;" x1="508.998" x2="550.998" y1="369.3828" y2="369.3828"/><line style="stroke:#000000;stroke-width:1;" x1="550.998" x2="550.998" y1="369.3828" y2="382.3828"/><line style="stroke:#000000;stroke-width:1;" x1="509.998" x2="550.998" y1="382.3828" y2="382.3828"/><polygon fill="#000000" points="519.998,378.3828,509.998,382.3828,519.998,386.3828,515.998,382.3828" style="stroke:#000000;stroke-width:1;"/><text fill="#000000" font-family="Arial" font-size="11" lengthAdjust="spacing" textLength="193.2036" x="521.8203" y="352.5828">if same warning repeats within 1000 ms</text><text fill="#000000" font-family="Arial" font-size="11" lengthAdjust="spacing" textLength="204.8481" x="515.998" y="365.2317">then duplicatePopupGuard remains active</text><line style="stroke:#000000;stroke-width:1;" x1="508.998" x2="550.998" y1="421.6807" y2="421.6807"/><line style="stroke:#000000;stroke-width:1;" x1="550.998" x2="550.998" y1="421.6807" y2="434.6807"/><line style="stroke:#000000;stroke-width:1;" x1="509.998" x2="550.998" y1="434.6807" y2="434.6807"/><polygon fill="#000000" points="519.998,430.6807,509.998,434.6807,519.998,438.6807,515.998,434.6807" style="stroke:#000000;stroke-width:1;"/><text fill="#000000" font-family="Arial" font-size="11" lengthAdjust="spacing" textLength="176.0913" x="515.998" y="404.8806">if code changes then pushHistory() /</text><text fill="#000000" font-family="Arial" font-size="11" lengthAdjust="spacing" textLength="111.2568" x="548.4153" y="417.5295">respondHistoryQuery()</text><path d="M513,447.6807 L513,532.6807 L722,532.6807 L722,457.6807 L712,447.6807 L513,447.6807 " fill="#FFFFFF" style="stroke:#000000;stroke-width:1;"/><path d="M712,447.6807 L712,457.6807 L722,457.6807 L712,447.6807 " fill="#FFFFFF" style="stroke:#000000;stroke-width:1;"/><text fill="#000000" font-family="Arial" font-size="11" lengthAdjust="spacing" textLength="139.4229" x="519" y="463.1785">Representative gating inputs</text><text fill="#000000" font-family="Arial" font-size="11" lengthAdjust="spacing" textLength="95.3691" x="519" y="475.8274">- WarningTextCode</text><text fill="#000000" font-family="Arial" font-size="11" lengthAdjust="spacing" textLength="143.6821" x="519" y="488.4763">- PopupPriority / PopupActive</text><text fill="#000000" font-family="Arial" font-size="11" lengthAdjust="spacing" textLength="188.3105" x="519" y="501.1252">- AudioFocusOwner / AudioDuckingLvl</text><text fill="#000000" font-family="Arial" font-size="11" lengthAdjust="spacing" textLength="47.6792" x="519" y="513.7742">- TtsState</text><text fill="#000000" font-family="Arial" font-size="11" lengthAdjust="spacing" textLength="179.7383" x="519" y="526.4231">- ClusterSyncState / ClusterSyncAge</text><rect fill="#FFFFFF" height="3" style="stroke:#FFFFFF;stroke-width:1;" width="1011.5754" x="5" y="557.8987"/><line style="stroke:#000000;stroke-width:0.5;" x1="5" x2="1016.5754" y1="557.8987" y2="557.8987"/><line style="stroke:#000000;stroke-width:0.5;" x1="5" x2="1016.5754" y1="560.8987" y2="560.8987"/><rect fill="#FFFFFF" height="20.6489" style="stroke:#000000;stroke-width:1;" width="82.4438" x="469.5658" y="548.5742"/><text fill="#000000" font-family="Arial" font-size="11" font-weight="bold" lengthAdjust="spacing" textLength="65.3877" x="475.5658" y="563.072">CLU Publish</text><polygon fill="#000000" points="758.373,593.8721,768.373,597.8721,758.373,601.8721,762.373,597.8721" style="stroke:#000000;stroke-width:1;"/><line style="stroke:#000000;stroke-width:1;" x1="508.998" x2="764.373" y1="597.8721" y2="597.8721"/><text fill="#000000" font-family="Arial" font-size="11" lengthAdjust="spacing" textLength="127.166" x="576.1025" y="593.7209">Cluster::warningTextCode</text><polygon fill="#000000" points="758.373,633.1699,768.373,637.1699,758.373,641.1699,762.373,637.1699" style="stroke:#000000;stroke-width:1;"/><line style="stroke:#000000;stroke-width:1;" x1="508.998" x2="764.373" y1="637.1699" y2="637.1699"/><text fill="#000000" font-family="Arial" font-size="11" lengthAdjust="spacing" textLength="168.1636" x="555.6038" y="620.3699">CoreState::duplicatePopupGuard /</text><text fill="#000000" font-family="Arial" font-size="11" lengthAdjust="spacing" textLength="163.2168" x="558.0771" y="633.0188">clusterNotifType / clusterNotifPrio</text><path d="M513,650.1699 L513,723.1699 L647,723.1699 L647,660.1699 L637,650.1699 L513,650.1699 " fill="#FFFFFF" style="stroke:#000000;stroke-width:1;"/><path d="M637,650.1699 L637,660.1699 L647,660.1699 L637,650.1699 " fill="#FFFFFF" style="stroke:#000000;stroke-width:1;"/><text fill="#000000" font-family="Arial" font-size="11" lengthAdjust="spacing" textLength="113.126" x="519" y="665.6677">Representative outputs</text><text fill="#000000" font-family="Arial" font-size="11" lengthAdjust="spacing" textLength="92.9307" x="519" y="678.3167">- warningTextCode</text><text fill="#000000" font-family="Arial" font-size="11" lengthAdjust="spacing" textLength="113.1313" x="519" y="690.9656">- duplicatePopupGuard</text><text fill="#000000" font-family="Arial" font-size="11" lengthAdjust="spacing" textLength="86.1899" x="519" y="703.6145">- clusterNotifType</text><text fill="#000000" font-family="Arial" font-size="11" lengthAdjust="spacing" textLength="81.2969" x="519" y="716.2634">- clusterNotifPrio</text><rect fill="#FFFFFF" height="3" style="stroke:#FFFFFF;stroke-width:1;" width="1011.5754" x="5" y="747.739"/><line style="stroke:#000000;stroke-width:0.5;" x1="5" x2="1016.5754" y1="747.739" y2="747.739"/><line style="stroke:#000000;stroke-width:0.5;" x1="5" x2="1016.5754" y1="750.739" y2="750.739"/><rect fill="#FFFFFF" height="20.6489" style="stroke:#000000;stroke-width:1;" width="131.3638" x="445.1058" y="738.4146"/><text fill="#000000" font-family="Arial" font-size="11" font-weight="bold" lengthAdjust="spacing" textLength="114.3076" x="451.1058" y="752.9124">Downstream Visibility</text><polygon fill="#000000" points="943.1997,796.3613,953.1997,800.3613,943.1997,804.3613,947.1997,800.3613" style="stroke:#000000;stroke-width:1;"/><line style="stroke:#000000;stroke-width:1;" x1="770.373" x2="949.1997" y1="800.3613" y2="800.3613"/><text fill="#000000" font-family="Arial" font-size="11" lengthAdjust="spacing" textLength="100.2461" x="812.6633" y="783.5613">cluster text visibility /</text><text fill="#000000" font-family="Arial" font-size="11" lengthAdjust="spacing" textLength="160.8267" x="782.373" y="796.2102">duplicate-popup guard observers</text><path d="M18,813.3613 L18,886.3613 L1011,886.3613 L1011,823.3613 L1001,813.3613 L18,813.3613 " fill="#FFFFFF" style="stroke:#000000;stroke-width:1;"/><path d="M1001,813.3613 L1001,823.3613 L1011,823.3613 L1001,813.3613 " fill="#FFFFFF" style="stroke:#000000;stroke-width:1;"/><text fill="#000000" font-family="Arial" font-size="11" lengthAdjust="spacing" textLength="143.0752" x="341.8341" y="828.8591">Representative runtime chain</text><text fill="#000000" font-family="Arial" font-size="11" lengthAdjust="spacing" textLength="336.9072" x="341.8341" y="841.5081">1. Cluster warning and auxiliary popup/audio/sync context reach CLU</text><text fill="#000000" font-family="Arial" font-size="11" lengthAdjust="spacing" textLength="302.0757" x="341.8341" y="854.157">2. CLU applies robust policy and duplicate-popup suppression</text><text fill="#000000" font-family="Arial" font-size="11" lengthAdjust="spacing" textLength="273.9419" x="341.8341" y="866.8059">3. CLU updates warning text and duplicate guard seams</text><text fill="#000000" font-family="Arial" font-size="11" lengthAdjust="spacing" textLength="317.3511" x="341.8341" y="879.4548">4. Cluster observers read the guarded warning presentation state</text><!--SRC=[XLNRRjiu47tdLyocBmbIryasG0i3MS1nukq2QPl6QVlY5reQoqGbaijB7E_NxmmfNwGOg5yiaNCzPyxeZx321i7MKcdXVobjfPCDB6Jngt8cwd9YQkFWpJJz3YnANCfOXwdHuOka26EdP7tyVgR-GxYyFBZq-6z4NU1dz5vMEAvLfQ507T0TM3dqrcY_jRh1sgp7pfar11THYA12JObZgGmy61ijp3QwW2S3a_llS1jjhGeP4FwEqfKmenooXYa5cUjJcRoMfeWUpi4cxtFmxEy3Evr3KKTF1S5QEgrq1OE_Kjno6tTGSLmiTmO1NyAP45HyK8MoKWSucVI2BA8_0UdX9xqJgbVJ3zERhaVkP0Yvmc6kYTmmEuxZ2xov-pYzcDxrCjr_d-ksve53NL9MizReaXjNpcuVxZuUBN0uCGw95zdaD7HyGz0mxrUJITVbwyAZUqRdORZBI6H9ofYToM3dAQwlK_9_j8t1m_Mr4Adt5iqHB5tJrl0pO_JPLtFTFZyHf1DJek2s3rq-DIe1DMEoo8E0ejCq2rCcDHtDDPtDB6AnUWg-Qzhcv8dPNWXP1FNCv5CQmQbs6QMrzUPMUTB9vi4G_vjJ9zTSsTaHmqT3V8NMhc2ZkOwUwK-3DapK3aFmGoPto69R68qWQtGXprytgbg2Pv5jfyYXHKbehbLOAGsN5nSNqFYv9Z7h_O0cWFBmEsn8u1vIXw-3SurGhAIkq4CAOgDVVL8-6BSvFMCainZBzknRHBuGsX1QJbMh06QPO7j4IwOaPScPeA8_AbWbziK0-hmEid8Vd39EXGrnazx7kSu1x1dzohDCz-daDXQq9ghxvvfijjpIOvzLiZyu6bSeI1Z0LUy6yo4kQkLNQJAtkEJX7srzHwDrh-nNXgIUb70qEWR_NYTVJ53BfutboWwF683VesbYQ75SlyBnI5uwxQVj7QMq7KXkQMVuG6fku8VoQg5gfYM1avkbjbdVezr-vBK7ptjRQdQ_8_DcJPiIp7PlY18xKikD6xfAy_6M4_HRTr47rQGffI_LvJleRrP9NSZuGZL8j-a8BMtGWZv4N2XrLgnIrZ_V9VvPiOh6tYNHaYEhDaNhT-6ZvPAyCbgypyxHbdJlEv-0hc_RUzgiucfVzWwCj3bPTD3_dkpxDxhT2Zkg_WS0]--></g></svg>