<svg xmlns="http://www.w3.org/2000/svg" xmlns:xlink="http://www.w3.org/1999/xlink" contentStyleType="text/css" height="1062px" preserveAspectRatio="none" style="width:986px;height:1062px;background:#FFFFFF;" version="1.1" viewBox="0 0 986 1062" width="986px" zoomAndPan="magnify"><title>Audio Focus TMU Notif To VCS Voice State Signal Flow</title><defs/><g><text fill="#000000" font-family="Arial" font-size="22" font-weight="bold" lengthAdjust="spacing" textLength="580.5723" x="201.345" y="35.9956">Audio Focus TMU Notif To VCS Voice State Signal Flow</text><text fill="#000000" font-family="Arial" font-size="22" font-weight="bold" lengthAdjust="spacing" textLength="805.0195" x="89.1213" y="61.2935">(audio focus + TMU service + cluster notification -&gt; VCS voice and TTS state)</text><rect fill="#FFFFFF" height="639.8188" style="stroke:#000000;stroke-width:1;" width="10" x="500.1904" y="277.436"/><line style="stroke:#000000;stroke-width:1;" x1="66" x2="66" y1="116.8936" y2="1018.4995"/><line style="stroke:#000000;stroke-width:1;" x1="190.2729" x2="190.2729" y1="116.8936" y2="1018.4995"/><line style="stroke:#000000;stroke-width:1;" x1="314.7891" x2="314.7891" y1="116.8936" y2="1018.4995"/><line style="stroke:#000000;stroke-width:1;" x1="504.9524" x2="504.9524" y1="116.8936" y2="1018.4995"/><line style="stroke:#000000;stroke-width:1;" x1="764.739" x2="764.739" y1="116.8936" y2="1018.4995"/><line style="stroke:#000000;stroke-width:1;" x1="914.4946" x2="914.4946" y1="116.8936" y2="1018.4995"/><rect fill="#F4F7FB" height="26.6489" rx="2.5" ry="2.5" style="stroke:#000000;stroke-width:1;" width="92.2729" x="20" y="89.2446"/><text fill="#000000" font-family="Arial" font-size="11" lengthAdjust="spacing" textLength="78.2729" x="27" y="106.7424">Audio focus bus</text><rect fill="#F4F7FB" height="26.6489" rx="2.5" ry="2.5" style="stroke:#000000;stroke-width:1;" width="92.2729" x="20" y="1017.4995"/><text fill="#000000" font-family="Arial" font-size="11" lengthAdjust="spacing" textLength="78.2729" x="27" y="1034.9973">Audio focus bus</text><rect fill="#E8F0FE" height="26.6489" rx="2.5" ry="2.5" style="stroke:#000000;stroke-width:1;" width="96.5161" x="142.2729" y="89.2446"/><text fill="#000000" font-family="Arial" font-size="11" lengthAdjust="spacing" textLength="82.5161" x="149.2729" y="106.7424">TMU service bus</text><rect fill="#E8F0FE" height="26.6489" rx="2.5" ry="2.5" style="stroke:#000000;stroke-width:1;" width="96.5161" x="142.2729" y="1017.4995"/><text fill="#000000" font-family="Arial" font-size="11" lengthAdjust="spacing" textLength="82.5161" x="149.2729" y="1034.9973">TMU service bus</text><rect fill="#FCE8FF" height="26.6489" rx="2.5" ry="2.5" style="stroke:#000000;stroke-width:1;" width="93.4814" x="268.7891" y="89.2446"/><text fill="#000000" font-family="Arial" font-size="11" lengthAdjust="spacing" textLength="79.4814" x="275.7891" y="106.7424">Cluster notif bus</text><rect fill="#FCE8FF" height="26.6489" rx="2.5" ry="2.5" style="stroke:#000000;stroke-width:1;" width="93.4814" x="268.7891" y="1017.4995"/><text fill="#000000" font-family="Arial" font-size="11" lengthAdjust="spacing" textLength="79.4814" x="275.7891" y="1034.9973">Cluster notif bus</text><rect fill="#E8F7E8" height="39.2979" rx="2.5" ry="2.5" style="stroke:#000000;stroke-width:1;" width="104.4761" x="452.9524" y="76.5957"/><text fill="#000000" font-family="Arial" font-size="11" lengthAdjust="spacing" textLength="22.6177" x="493.8816" y="94.0935">VCS</text><text fill="#000000" font-family="Arial" font-size="11" lengthAdjust="spacing" textLength="90.4761" x="459.9524" y="106.7424">voice-assist owner</text><rect fill="#E8F7E8" height="39.2979" rx="2.5" ry="2.5" style="stroke:#000000;stroke-width:1;" width="104.4761" x="452.9524" y="1017.4995"/><text fill="#000000" font-family="Arial" font-size="11" lengthAdjust="spacing" textLength="22.6177" x="493.8816" y="1034.9973">VCS</text><text fill="#000000" font-family="Arial" font-size="11" lengthAdjust="spacing" textLength="90.4761" x="459.9524" y="1047.6462">voice-assist owner</text><rect fill="#FFF4CC" height="26.6489" rx="2.5" ry="2.5" style="stroke:#000000;stroke-width:1;" width="86.1392" x="721.739" y="89.2446"/><text fill="#000000" font-family="Arial" font-size="11" lengthAdjust="spacing" textLength="72.1392" x="728.739" y="106.7424">Voice/TTS bus</text><rect fill="#FFF4CC" height="26.6489" rx="2.5" ry="2.5" style="stroke:#000000;stroke-width:1;" width="86.1392" x="721.739" y="1017.4995"/><text fill="#000000" font-family="Arial" font-size="11" lengthAdjust="spacing" textLength="72.1392" x="728.739" y="1034.9973">Voice/TTS bus</text><rect fill="#FFF4CC" height="39.2979" rx="2.5" ry="2.5" style="stroke:#000000;stroke-width:1;" width="97.7676" x="866.4946" y="76.5957"/><text fill="#000000" font-family="Arial" font-size="11" lengthAdjust="spacing" textLength="56.8477" x="886.9546" y="94.0935">Observers /</text><text fill="#000000" font-family="Arial" font-size="11" lengthAdjust="spacing" textLength="83.7676" x="873.4946" y="106.7424">audio consumers</text><rect fill="#FFF4CC" height="39.2979" rx="2.5" ry="2.5" style="stroke:#000000;stroke-width:1;" width="97.7676" x="866.4946" y="1017.4995"/><text fill="#000000" font-family="Arial" font-size="11" lengthAdjust="spacing" textLength="56.8477" x="886.9546" y="1034.9973">Observers /</text><text fill="#000000" font-family="Arial" font-size="11" lengthAdjust="spacing" textLength="83.7676" x="873.4946" y="1047.6462">audio consumers</text><rect fill="#FFFFFF" height="639.8188" style="stroke:#000000;stroke-width:1;" width="10" x="500.1904" y="277.436"/><rect fill="#FFFFFF" height="3" style="stroke:#FFFFFF;stroke-width:1;" width="974.2622" x="5" y="146.218"/><line style="stroke:#000000;stroke-width:0.5;" x1="5" x2="979.2622" y1="146.218" y2="146.218"/><line style="stroke:#000000;stroke-width:0.5;" x1="5" x2="979.2622" y1="149.218" y2="149.218"/><rect fill="#FFFFFF" height="20.6489" style="stroke:#000000;stroke-width:1;" width="75.7246" x="454.2688" y="136.8936"/><text fill="#000000" font-family="Arial" font-size="11" font-weight="bold" lengthAdjust="spacing" textLength="58.6685" x="460.2688" y="151.3914">VCS Inputs</text><polygon fill="#000000" points="493.1904,194.8403,503.1904,198.8403,493.1904,202.8403,497.1904,198.8403" style="stroke:#000000;stroke-width:1;"/><line style="stroke:#000000;stroke-width:1;" x1="66.1365" x2="499.1904" y1="198.8403" y2="198.8403"/><text fill="#000000" font-family="Arial" font-size="11" lengthAdjust="spacing" textLength="94.7515" x="238.2877" y="182.0403">frmAudioFocusMsg</text><text fill="#000000" font-family="Arial" font-size="11" lengthAdjust="spacing" textLength="181.5913" x="194.8678" y="194.6892">AudioFocusOwner / AudioDuckingLvl</text><polygon fill="#000000" points="493.1904,234.1382,503.1904,238.1382,493.1904,242.1382,497.1904,238.1382" style="stroke:#000000;stroke-width:1;"/><line style="stroke:#000000;stroke-width:1;" x1="190.531" x2="499.1904" y1="238.1382" y2="238.1382"/><text fill="#000000" font-family="Arial" font-size="11" lengthAdjust="spacing" textLength="121.0269" x="287.3473" y="221.3381">frmTmuServiceStateMsg</text><text fill="#000000" font-family="Arial" font-size="11" lengthAdjust="spacing" textLength="148.5591" x="273.5812" y="233.9871">TmuServiceMode / SignalBars</text><polygon fill="#000000" points="488.1904,273.436,498.1904,277.436,488.1904,281.436,492.1904,277.436" style="stroke:#000000;stroke-width:1;"/><line style="stroke:#000000;stroke-width:1;" x1="315.5298" x2="494.1904" y1="277.436" y2="277.436"/><text fill="#000000" font-family="Arial" font-size="11" lengthAdjust="spacing" textLength="94.123" x="360.7986" y="260.636">frmClusterNotifMsg</text><text fill="#000000" font-family="Arial" font-size="11" lengthAdjust="spacing" textLength="165.6606" x="325.0298" y="273.2849">ClusterNotifType / ClusterNotifArg</text><line style="stroke:#000000;stroke-width:1;" x1="510.1904" x2="552.1904" y1="304.085" y2="304.085"/><line style="stroke:#000000;stroke-width:1;" x1="552.1904" x2="552.1904" y1="304.085" y2="317.085"/><line style="stroke:#000000;stroke-width:1;" x1="511.1904" x2="552.1904" y1="317.085" y2="317.085"/><polygon fill="#000000" points="521.1904,313.085,511.1904,317.085,521.1904,321.085,517.1904,317.085" style="stroke:#000000;stroke-width:1;"/><text fill="#000000" font-family="Arial" font-size="11" lengthAdjust="spacing" textLength="225.6182" x="517.1904" y="299.9338">clear stale inputs using 300 ms lease windows</text><line style="stroke:#000000;stroke-width:1;" x1="510.1904" x2="552.1904" y1="356.3828" y2="356.3828"/><line style="stroke:#000000;stroke-width:1;" x1="552.1904" x2="552.1904" y1="356.3828" y2="369.3828"/><line style="stroke:#000000;stroke-width:1;" x1="511.1904" x2="552.1904" y1="369.3828" y2="369.3828"/><polygon fill="#000000" points="521.1904,365.3828,511.1904,369.3828,521.1904,373.3828,517.1904,369.3828" style="stroke:#000000;stroke-width:1;"/><text fill="#000000" font-family="Arial" font-size="11" lengthAdjust="spacing" textLength="90.1807" x="561.6685" y="339.5828">voiceAssistState =</text><text fill="#000000" font-family="Arial" font-size="11" lengthAdjust="spacing" textLength="179.1367" x="517.1904" y="352.2317">TMU service ? 1 : audio focus ? 2 : 0</text><line style="stroke:#000000;stroke-width:1;" x1="510.1904" x2="552.1904" y1="408.6807" y2="408.6807"/><line style="stroke:#000000;stroke-width:1;" x1="552.1904" x2="552.1904" y1="408.6807" y2="421.6807"/><line style="stroke:#000000;stroke-width:1;" x1="511.1904" x2="552.1904" y1="421.6807" y2="421.6807"/><polygon fill="#000000" points="521.1904,417.6807,511.1904,421.6807,521.1904,425.6807,517.1904,421.6807" style="stroke:#000000;stroke-width:1;"/><text fill="#000000" font-family="Arial" font-size="11" lengthAdjust="spacing" textLength="87.1245" x="575.7327" y="391.8806">wakeWordState =</text><text fill="#000000" font-family="Arial" font-size="11" lengthAdjust="spacing" textLength="204.209" x="517.1904" y="404.5295">TMU service mode 1 and signal bars &gt;= 2</text><line style="stroke:#000000;stroke-width:1;" x1="510.1904" x2="552.1904" y1="460.9785" y2="460.9785"/><line style="stroke:#000000;stroke-width:1;" x1="552.1904" x2="552.1904" y1="460.9785" y2="473.9785"/><line style="stroke:#000000;stroke-width:1;" x1="511.1904" x2="552.1904" y1="473.9785" y2="473.9785"/><polygon fill="#000000" points="521.1904,469.9785,511.1904,473.9785,521.1904,477.9785,517.1904,473.9785" style="stroke:#000000;stroke-width:1;"/><text fill="#000000" font-family="Arial" font-size="11" lengthAdjust="spacing" textLength="46.7769" x="604.0195" y="444.1785">ttsState =</text><text fill="#000000" font-family="Arial" font-size="11" lengthAdjust="spacing" textLength="220.4351" x="517.1904" y="456.8274">cluster notif active and audio focus owner &gt; 0</text><line style="stroke:#000000;stroke-width:1;" x1="510.1904" x2="552.1904" y1="513.2764" y2="513.2764"/><line style="stroke:#000000;stroke-width:1;" x1="552.1904" x2="552.1904" y1="513.2764" y2="526.2764"/><line style="stroke:#000000;stroke-width:1;" x1="511.1904" x2="552.1904" y1="526.2764" y2="526.2764"/><polygon fill="#000000" points="521.1904,522.2764,511.1904,526.2764,521.1904,530.2764,517.1904,526.2764" style="stroke:#000000;stroke-width:1;"/><text fill="#000000" font-family="Arial" font-size="11" lengthAdjust="spacing" textLength="133.563" x="523.7915" y="496.4763">ttsPriority = clusterNotifArg,</text><text fill="#000000" font-family="Arial" font-size="11" lengthAdjust="spacing" textLength="146.7651" x="517.1904" y="509.1252">raised to 4 when ducking &gt;= 4</text><path d="M515,539.2764 L515,624.2764 L675,624.2764 L675,549.2764 L665,539.2764 L515,539.2764 " fill="#FFFFFF" style="stroke:#000000;stroke-width:1;"/><path d="M665,539.2764 L665,549.2764 L675,549.2764 L665,539.2764 " fill="#FFFFFF" style="stroke:#000000;stroke-width:1;"/><text fill="#000000" font-family="Arial" font-size="11" lengthAdjust="spacing" textLength="139.4229" x="521" y="554.7742">Representative gating inputs</text><text fill="#000000" font-family="Arial" font-size="11" lengthAdjust="spacing" textLength="97.2061" x="521" y="567.4231">- AudioFocusOwner</text><text fill="#000000" font-family="Arial" font-size="11" lengthAdjust="spacing" textLength="88.6553" x="521" y="580.072">- AudioDuckingLvl</text><text fill="#000000" font-family="Arial" font-size="11" lengthAdjust="spacing" textLength="92.9146" x="521" y="592.7209">- TmuServiceMode</text><text fill="#000000" font-family="Arial" font-size="11" lengthAdjust="spacing" textLength="59.9146" x="521" y="605.3699">- SignalBars</text><text fill="#000000" font-family="Arial" font-size="11" lengthAdjust="spacing" textLength="114.9199" x="521" y="618.0188">- ClusterNotifType / Arg</text><rect fill="#FFFFFF" height="3" style="stroke:#FFFFFF;stroke-width:1;" width="974.2622" x="5" y="649.4944"/><line style="stroke:#000000;stroke-width:0.5;" x1="5" x2="979.2622" y1="649.4944" y2="649.4944"/><line style="stroke:#000000;stroke-width:0.5;" x1="5" x2="979.2622" y1="652.4944" y2="652.4944"/><rect fill="#FFFFFF" height="20.6489" style="stroke:#000000;stroke-width:1;" width="82.4546" x="450.9038" y="640.1699"/><text fill="#000000" font-family="Arial" font-size="11" font-weight="bold" lengthAdjust="spacing" textLength="65.3984" x="456.9038" y="654.6677">VCS Publish</text><polygon fill="#000000" points="752.8086,698.1167,762.8086,702.1167,752.8086,706.1167,756.8086,702.1167" style="stroke:#000000;stroke-width:1;"/><line style="stroke:#000000;stroke-width:1;" x1="510.1904" x2="758.8086" y1="702.1167" y2="702.1167"/><text fill="#000000" font-family="Arial" font-size="11" lengthAdjust="spacing" textLength="119.2007" x="577.8992" y="685.3167">frmVoiceAssistStateMsg</text><text fill="#000000" font-family="Arial" font-size="11" lengthAdjust="spacing" textLength="171.7891" x="551.605" y="697.9656">VoiceAssistState / WakeWordState</text><polygon fill="#000000" points="752.8086,737.4146,762.8086,741.4146,752.8086,745.4146,756.8086,741.4146" style="stroke:#000000;stroke-width:1;"/><line style="stroke:#000000;stroke-width:1;" x1="510.1904" x2="758.8086" y1="741.4146" y2="741.4146"/><text fill="#000000" font-family="Arial" font-size="11" lengthAdjust="spacing" textLength="114.9307" x="580.0342" y="724.6145">frmSpeechTtsStateMsg</text><text fill="#000000" font-family="Arial" font-size="11" lengthAdjust="spacing" textLength="186.4521" x="544.2734" y="737.2634">TtsState / TtsPriority / TtsQueueDepth</text><path d="M515,754.4146 L515,839.4146 L649,839.4146 L649,764.4146 L639,754.4146 L515,754.4146 " fill="#FFFFFF" style="stroke:#000000;stroke-width:1;"/><path d="M639,754.4146 L639,764.4146 L649,764.4146 L639,754.4146 " fill="#FFFFFF" style="stroke:#000000;stroke-width:1;"/><text fill="#000000" font-family="Arial" font-size="11" lengthAdjust="spacing" textLength="113.126" x="521" y="769.9124">Representative outputs</text><text fill="#000000" font-family="Arial" font-size="11" lengthAdjust="spacing" textLength="89.2568" x="521" y="782.5613">- VoiceAssistState</text><text fill="#000000" font-family="Arial" font-size="11" lengthAdjust="spacing" textLength="86.8022" x="521" y="795.2102">- WakeWordState</text><text fill="#000000" font-family="Arial" font-size="11" lengthAdjust="spacing" textLength="47.6792" x="521" y="807.8591">- TtsState</text><text fill="#000000" font-family="Arial" font-size="11" lengthAdjust="spacing" textLength="56.2192" x="521" y="820.5081">- TtsPriority</text><text fill="#000000" font-family="Arial" font-size="11" lengthAdjust="spacing" textLength="84.3745" x="521" y="833.157">- TtsQueueDepth</text><rect fill="#FFFFFF" height="3" style="stroke:#FFFFFF;stroke-width:1;" width="974.2622" x="5" y="864.6326"/><line style="stroke:#000000;stroke-width:0.5;" x1="5" x2="979.2622" y1="864.6326" y2="864.6326"/><line style="stroke:#000000;stroke-width:0.5;" x1="5" x2="979.2622" y1="867.6326" y2="867.6326"/><rect fill="#FFFFFF" height="20.6489" style="stroke:#000000;stroke-width:1;" width="131.3638" x="426.4492" y="855.3081"/><text fill="#000000" font-family="Arial" font-size="11" font-weight="bold" lengthAdjust="spacing" textLength="114.3076" x="432.4492" y="869.8059">Downstream Visibility</text><polygon fill="#000000" points="903.3784,913.2549,913.3784,917.2549,903.3784,921.2549,907.3784,917.2549" style="stroke:#000000;stroke-width:1;"/><line style="stroke:#000000;stroke-width:1;" x1="764.8086" x2="909.3784" y1="917.2549" y2="917.2549"/><text fill="#000000" font-family="Arial" font-size="11" lengthAdjust="spacing" textLength="96.5723" x="791.8074" y="900.4548">voice/TTS visibility /</text><text fill="#000000" font-family="Arial" font-size="11" lengthAdjust="spacing" textLength="126.5698" x="776.8086" y="913.1038">AMP and audio observers</text><path d="M11,930.2549 L11,1003.2549 L970,1003.2549 L970,940.2549 L960,930.2549 L11,930.2549 " fill="#FFFFFF" style="stroke:#000000;stroke-width:1;"/><path d="M960,930.2549 L960,940.2549 L970,940.2549 L960,930.2549 " fill="#FFFFFF" style="stroke:#000000;stroke-width:1;"/><text fill="#000000" font-family="Arial" font-size="11" lengthAdjust="spacing" textLength="143.0752" x="310.6575" y="945.7527">Representative runtime chain</text><text fill="#000000" font-family="Arial" font-size="11" lengthAdjust="spacing" textLength="309.3589" x="310.6575" y="958.4016">1. Audio focus, TMU service, and cluster notification reach VCS</text><text fill="#000000" font-family="Arial" font-size="11" lengthAdjust="spacing" textLength="310.5781" x="310.6575" y="971.0505">2. VCS resolves voice-assist posture and wake-word availability</text><text fill="#000000" font-family="Arial" font-size="11" lengthAdjust="spacing" textLength="204.1929" x="310.6575" y="983.6995">3. VCS derives TTS activation and priority</text><text fill="#000000" font-family="Arial" font-size="11" lengthAdjust="spacing" textLength="350.9473" x="310.6575" y="996.3484">4. VCS publishes voice and TTS state for downstream audio consumers</text><!--SRC=[XLLDRnf13Btlht2RIwj24nAaLfL8H4XMgbIIjD3amcNODJ3AChET3r3ww-lni32Ba9f3alNOp_Rp6yyxjy8rGbq9gJBxAbKjZ5Z3N1IlIwEzAaUwqWRESlv9F4fS25-vN2lt80XXQAIeJfzFv5-4NYyvjFZ7eofmZDQA9GuhkLHGe79e4Y-3jjRADbwtMEdjq1Yz1MSyPfcJhgB4lfGQSbru2zFnRtZGJYvWgk5vD85dBGk4YHEEVbCIKK5EA3FrGN3OWiC-SQ15imdUdw2elALIG0KeMGWdjOBkDIDk656e4gRJ2TY0_37Bg60d2raBvU3zC86UU_iUXDrLUPRtyo_vRTizpTsu1zlP_TVy8hzlEu_IqlRkiUUpV4GXUJk0QfufBhehh9NMWTugD1mM-WbPljn_FGeA_kUXmIO3MswfeQ24_cZKzd-SXmRGM3YVgSXiGPFpQp9nE3di8xF1W3D_LxLt5WQ3B8lix1Z-1WkpPWiFTMoNCtNuV0pLmtaazCuNf9RbZqsL1SPIWEdQJoAfF7r6ETZ6kaG2YPAu5SPcaS8KOKSr7t1uQfY-rG4WDGtDCXE5aviWDaB90j8UiAXGcA0NagoCdNjBjSFLnGMiBT2nHTXALUgjROVoz8OylAZa0RMIYEO6UkIL2le6BiboqORPYbTyqQOyYR4EXFHOrpRUapcn0jS3k6oZE6Vt0Arx0jnxl1ffBImtk3wkXd2UZDH6kZSOD3UkuR4pKqP8YoKu3NtOhb116MSTIkfdb171oEMAvBnWidzXJVk2LeZWAfRqXvmZqraNZWJKM181TQ4j3p8aykZ2YUc7YIEr6whPo_h9pojfLwphfkFcyh2kde_6oTewDXBwIpglqr2J6h5OJNSZYHflvdCEquHY_lhfqUCTrcxrVmArTplgZaiZKxkqBZH9uxzDqlYL96rnTKV2iCuWBVfdQULSLYo5m5hJ8_KR5iVk1l0-sXnSQTKCnq-9tdIpXR8IMnSnTglfA4wz4s2F6pPUEKaFMR4AJs7lCoHhl9C-41rEUVADe6wA5QUy_CnYe0Iwsg25rWQkjNNUnAiIRcLtIro2s0XPYTXSTXNZIpGoX8VMTos5F26mRbZkHzSwwgx9rNwYg0q3vO7nenrzcCm_]--></g></svg>