<svg xmlns="http://www.w3.org/2000/svg" xmlns:xlink="http://www.w3.org/1999/xlink" contentStyleType="text/css" height="907px" preserveAspectRatio="none" style="width:926px;height:907px;background:#FFFFFF;" version="1.1" viewBox="0 0 926 907" width="926px" zoomAndPan="magnify"><title>Battery SOC To BMS Pack State Signal Flow</title><defs/><g><text fill="#000000" font-family="Arial" font-size="22" font-weight="bold" lengthAdjust="spacing" textLength="463.3213" x="229.9866" y="35.9956">Battery SOC To BMS Pack State Signal Flow</text><text fill="#000000" font-family="Arial" font-size="22" font-weight="bold" lengthAdjust="spacing" textLength="487.7598" x="217.7673" y="61.2935">(energy input -&gt; BAT_BMS -&gt; CPC / observers)</text><rect fill="#FFFFFF" height="386.3828" style="stroke:#000000;stroke-width:1;" width="10" x="421.6272" y="271.4893"/><line style="stroke:#000000;stroke-width:1;" x1="64" x2="64" y1="162.8936" y2="817.0635"/><line style="stroke:#000000;stroke-width:1;" x1="269.1602" x2="269.1602" y1="162.8936" y2="817.0635"/><line style="stroke:#000000;stroke-width:1;" x1="426.1592" x2="426.1592" y1="162.8936" y2="817.0635"/><line style="stroke:#000000;stroke-width:1;" x1="667.2144" x2="667.2144" y1="162.8936" y2="817.0635"/><line style="stroke:#000000;stroke-width:1;" x1="793.5273" x2="793.5273" y1="162.8936" y2="817.0635"/><text fill="#000000" font-family="Arial" font-size="11" lengthAdjust="spacing" textLength="70.9253" x="26.2073" y="148.0935">Energy source</text><text fill="#000000" font-family="Arial" font-size="11" lengthAdjust="spacing" textLength="103.3398" x="10" y="160.7424">battery / charge input</text><ellipse cx="64.6699" cy="85.5957" fill="#F4F7FB" rx="8" ry="8" style="stroke:#000000;stroke-width:1;"/><path d="M64.6699,93.5957 L64.6699,120.5957 M51.6699,101.5957 L77.6699,101.5957 M64.6699,120.5957 L51.6699,135.5957 M64.6699,120.5957 L77.6699,135.5957 " fill="none" style="stroke:#000000;stroke-width:1;"/><text fill="#000000" font-family="Arial" font-size="11" lengthAdjust="spacing" textLength="70.9253" x="26.2073" y="826.5613">Energy source</text><text fill="#000000" font-family="Arial" font-size="11" lengthAdjust="spacing" textLength="103.3398" x="10" y="839.2102">battery / charge input</text><ellipse cx="64.6699" cy="850.3613" fill="#F4F7FB" rx="8" ry="8" style="stroke:#000000;stroke-width:1;"/><path d="M64.6699,858.3613 L64.6699,885.3613 M51.6699,866.3613 L77.6699,866.3613 M64.6699,885.3613 L51.6699,900.3613 M64.6699,885.3613 L77.6699,900.3613 " fill="none" style="stroke:#000000;stroke-width:1;"/><rect fill="#E8F0FE" height="39.2979" rx="2.5" ry="2.5" style="stroke:#000000;stroke-width:1;" width="146.999" x="196.1602" y="122.5957"/><text fill="#000000" font-family="Arial" font-size="11" lengthAdjust="spacing" textLength="62.9868" x="238.1663" y="140.0935">Input context</text><text fill="#000000" font-family="Arial" font-size="11" lengthAdjust="spacing" textLength="132.999" x="203.1602" y="152.7424">batterySoc + chargingState</text><rect fill="#E8F0FE" height="39.2979" rx="2.5" ry="2.5" style="stroke:#000000;stroke-width:1;" width="146.999" x="196.1602" y="816.0635"/><text fill="#000000" font-family="Arial" font-size="11" lengthAdjust="spacing" textLength="62.9868" x="238.1663" y="833.5613">Input context</text><text fill="#000000" font-family="Arial" font-size="11" lengthAdjust="spacing" textLength="132.999" x="203.1602" y="846.2102">batterySoc + chargingState</text><rect fill="#E8F7E8" height="39.2979" rx="2.5" ry="2.5" style="stroke:#000000;stroke-width:1;" width="106.936" x="373.1592" y="122.5957"/><text fill="#000000" font-family="Arial" font-size="11" lengthAdjust="spacing" textLength="51.3477" x="400.9534" y="140.0935">BAT_BMS</text><text fill="#000000" font-family="Arial" font-size="11" lengthAdjust="spacing" textLength="92.936" x="380.1592" y="152.7424">battery pack owner</text><rect fill="#E8F7E8" height="39.2979" rx="2.5" ry="2.5" style="stroke:#000000;stroke-width:1;" width="106.936" x="373.1592" y="816.0635"/><text fill="#000000" font-family="Arial" font-size="11" lengthAdjust="spacing" textLength="51.3477" x="400.9534" y="833.5613">BAT_BMS</text><text fill="#000000" font-family="Arial" font-size="11" lengthAdjust="spacing" textLength="92.936" x="380.1592" y="846.2102">battery pack owner</text><rect fill="#FFF4CC" height="39.2979" rx="2.5" ry="2.5" style="stroke:#000000;stroke-width:1;" width="95.313" x="620.2144" y="122.5957"/><text fill="#000000" font-family="Arial" font-size="11" lengthAdjust="spacing" textLength="23.2246" x="656.2585" y="140.0935">CPC</text><text fill="#000000" font-family="Arial" font-size="11" lengthAdjust="spacing" textLength="81.313" x="627.2144" y="152.7424">power consumer</text><rect fill="#FFF4CC" height="39.2979" rx="2.5" ry="2.5" style="stroke:#000000;stroke-width:1;" width="95.313" x="620.2144" y="816.0635"/><text fill="#000000" font-family="Arial" font-size="11" lengthAdjust="spacing" textLength="23.2246" x="656.2585" y="833.5613">CPC</text><text fill="#000000" font-family="Arial" font-size="11" lengthAdjust="spacing" textLength="81.313" x="627.2144" y="846.2102">power consumer</text><rect fill="#FCE8FF" height="26.6489" rx="2.5" ry="2.5" style="stroke:#000000;stroke-width:1;" width="97.1338" x="745.5273" y="135.2446"/><text fill="#000000" font-family="Arial" font-size="11" lengthAdjust="spacing" textLength="83.1338" x="752.5273" y="152.7424">Observers / tests</text><rect fill="#FCE8FF" height="26.6489" rx="2.5" ry="2.5" style="stroke:#000000;stroke-width:1;" width="97.1338" x="745.5273" y="816.0635"/><text fill="#000000" font-family="Arial" font-size="11" lengthAdjust="spacing" textLength="83.1338" x="752.5273" y="833.5613">Observers / tests</text><rect fill="#FFFFFF" height="386.3828" style="stroke:#000000;stroke-width:1;" width="10" x="421.6272" y="271.4893"/><rect fill="#FFFFFF" height="3" style="stroke:#FFFFFF;stroke-width:1;" width="914.2944" x="5" y="192.218"/><line style="stroke:#000000;stroke-width:0.5;" x1="5" x2="919.2944" y1="192.218" y2="192.218"/><line style="stroke:#000000;stroke-width:0.5;" x1="5" x2="919.2944" y1="195.218" y2="195.218"/><rect fill="#FFFFFF" height="20.6489" style="stroke:#000000;stroke-width:1;" width="109.3584" x="407.468" y="182.8936"/><text fill="#000000" font-family="Arial" font-size="11" font-weight="bold" lengthAdjust="spacing" textLength="92.3022" x="413.468" y="197.3914">Pack-State Inputs</text><polygon fill="#000000" points="257.6597,228.1914,267.6597,232.1914,257.6597,236.1914,261.6597,232.1914" style="stroke:#000000;stroke-width:1;"/><line style="stroke:#000000;stroke-width:1;" x1="64.6699" x2="263.6597" y1="232.1914" y2="232.1914"/><text fill="#000000" font-family="Arial" font-size="11" lengthAdjust="spacing" textLength="180.9897" x="76.6699" y="228.0403">battery SOC / charging status update</text><polygon fill="#000000" points="409.6272,267.4893,419.6272,271.4893,409.6272,275.4893,413.6272,271.4893" style="stroke:#000000;stroke-width:1;"/><line style="stroke:#000000;stroke-width:1;" x1="269.6597" x2="415.6272" y1="271.4893" y2="271.4893"/><text fill="#000000" font-family="Arial" font-size="11" lengthAdjust="spacing" textLength="59.9199" x="315.6835" y="254.6892">gBatterySoc</text><text fill="#000000" font-family="Arial" font-size="11" lengthAdjust="spacing" textLength="76.4414" x="307.4227" y="267.3381">gChargingState</text><line style="stroke:#000000;stroke-width:1;" x1="431.6272" x2="473.6272" y1="310.7871" y2="310.7871"/><line style="stroke:#000000;stroke-width:1;" x1="473.6272" x2="473.6272" y1="310.7871" y2="323.7871"/><line style="stroke:#000000;stroke-width:1;" x1="432.6272" x2="473.6272" y1="323.7871" y2="323.7871"/><polygon fill="#000000" points="442.6272,319.7871,432.6272,323.7871,442.6272,327.7871,438.6272,323.7871" style="stroke:#000000;stroke-width:1;"/><text fill="#000000" font-family="Arial" font-size="11" lengthAdjust="spacing" textLength="120.4575" x="444.1326" y="293.9871">apply stale-input fallback</text><text fill="#000000" font-family="Arial" font-size="11" lengthAdjust="spacing" textLength="131.4683" x="438.6272" y="306.636">when source age is broken</text><line style="stroke:#000000;stroke-width:1;" x1="431.6272" x2="473.6272" y1="350.436" y2="350.436"/><line style="stroke:#000000;stroke-width:1;" x1="473.6272" x2="473.6272" y1="350.436" y2="363.436"/><line style="stroke:#000000;stroke-width:1;" x1="432.6272" x2="473.6272" y1="363.436" y2="363.436"/><polygon fill="#000000" points="442.6272,359.436,432.6272,363.436,442.6272,367.436,438.6272,363.436" style="stroke:#000000;stroke-width:1;"/><text fill="#000000" font-family="Arial" font-size="11" lengthAdjust="spacing" textLength="80.7007" x="438.6272" y="346.2849">derive BmsState</text><line style="stroke:#000000;stroke-width:1;" x1="431.6272" x2="473.6272" y1="390.085" y2="390.085"/><line style="stroke:#000000;stroke-width:1;" x1="473.6272" x2="473.6272" y1="390.085" y2="403.085"/><line style="stroke:#000000;stroke-width:1;" x1="432.6272" x2="473.6272" y1="403.085" y2="403.085"/><polygon fill="#000000" points="442.6272,399.085,432.6272,403.085,442.6272,407.085,438.6272,403.085" style="stroke:#000000;stroke-width:1;"/><text fill="#000000" font-family="Arial" font-size="11" lengthAdjust="spacing" textLength="105.7622" x="438.6272" y="385.9338">map PackSoc directly</text><line style="stroke:#000000;stroke-width:1;" x1="431.6272" x2="473.6272" y1="429.7339" y2="429.7339"/><line style="stroke:#000000;stroke-width:1;" x1="473.6272" x2="473.6272" y1="429.7339" y2="442.7339"/><line style="stroke:#000000;stroke-width:1;" x1="432.6272" x2="473.6272" y1="442.7339" y2="442.7339"/><polygon fill="#000000" points="442.6272,438.7339,432.6272,442.7339,442.6272,446.7339,438.6272,442.7339" style="stroke:#000000;stroke-width:1;"/><text fill="#000000" font-family="Arial" font-size="11" lengthAdjust="spacing" textLength="207.2437" x="438.6272" y="425.5828">derive PackTemp from SOC / charge state</text><path d="M436,455.7339 L436,566.7339 L570,566.7339 L570,465.7339 L560,455.7339 L436,455.7339 " fill="#FFFFFF" style="stroke:#000000;stroke-width:1;"/><path d="M560,455.7339 L560,465.7339 L570,465.7339 L560,455.7339 " fill="#FFFFFF" style="stroke:#000000;stroke-width:1;"/><text fill="#000000" font-family="Arial" font-size="11" lengthAdjust="spacing" textLength="106.396" x="442" y="471.2317">Representative inputs</text><text fill="#000000" font-family="Arial" font-size="11" lengthAdjust="spacing" textLength="59.3022" x="442" y="483.8806">- batterySoc</text><text fill="#000000" font-family="Arial" font-size="11" lengthAdjust="spacing" textLength="74.5991" x="442" y="496.5295">- chargingState</text><text fill="#000000" font-family="Arial" font-size="11" lengthAdjust="spacing" textLength="3.0562" x="442" y="509.1785">&#160;</text><text fill="#000000" font-family="Arial" font-size="11" lengthAdjust="spacing" textLength="113.126" x="442" y="521.8274">Representative outputs</text><text fill="#000000" font-family="Arial" font-size="11" lengthAdjust="spacing" textLength="54.4038" x="442" y="534.4763">- BmsState</text><text fill="#000000" font-family="Arial" font-size="11" lengthAdjust="spacing" textLength="50.1284" x="442" y="547.1252">- PackSoc</text><text fill="#000000" font-family="Arial" font-size="11" lengthAdjust="spacing" textLength="59.2915" x="442" y="559.7742">- PackTemp</text><rect fill="#FFFFFF" height="3" style="stroke:#FFFFFF;stroke-width:1;" width="914.2944" x="5" y="591.2498"/><line style="stroke:#000000;stroke-width:0.5;" x1="5" x2="919.2944" y1="591.2498" y2="591.2498"/><line style="stroke:#000000;stroke-width:0.5;" x1="5" x2="919.2944" y1="594.2498" y2="594.2498"/><rect fill="#FFFFFF" height="20.6489" style="stroke:#000000;stroke-width:1;" width="116.0884" x="404.103" y="581.9253"/><text fill="#000000" font-family="Arial" font-size="11" font-weight="bold" lengthAdjust="spacing" textLength="99.0322" x="410.103" y="596.4231">Pack-State Publish</text><polygon fill="#000000" points="655.8708,627.2231,665.8708,631.2231,655.8708,635.2231,659.8708,631.2231" style="stroke:#000000;stroke-width:1;"/><line style="stroke:#000000;stroke-width:1;" x1="431.6272" x2="661.8708" y1="631.2231" y2="631.2231"/><text fill="#000000" font-family="Arial" font-size="11" lengthAdjust="spacing" textLength="100.8584" x="499.3198" y="627.072">frmBatBmsStateMsg</text><polygon fill="#000000" points="782.0942,653.8721,792.0942,657.8721,782.0942,661.8721,786.0942,657.8721" style="stroke:#000000;stroke-width:1;"/><line style="stroke:#000000;stroke-width:1;" x1="426.6272" x2="788.0942" y1="657.8721" y2="657.8721"/><text fill="#000000" font-family="Arial" font-size="11" lengthAdjust="spacing" textLength="155.8853" x="532.4181" y="653.7209">BAT_BMS trace / observer view</text><path d="M672,670.8721 L672,717.8721 L914,717.8721 L914,680.8721 L904,670.8721 L672,670.8721 " fill="#FFFFFF" style="stroke:#000000;stroke-width:1;"/><path d="M904,670.8721 L904,680.8721 L914,680.8721 L904,670.8721 " fill="#FFFFFF" style="stroke:#000000;stroke-width:1;"/><text fill="#000000" font-family="Arial" font-size="11" lengthAdjust="spacing" textLength="125.3398" x="678" y="686.3699">Representative consumer</text><text fill="#000000" font-family="Arial" font-size="11" lengthAdjust="spacing" textLength="221.2944" x="678" y="699.0188">- CPC uses BmsState / PackSoc / PackTemp</text><text fill="#000000" font-family="Arial" font-size="11" lengthAdjust="spacing" textLength="205.4443" x="684.1123" y="711.6677">for energy and downstream power context</text><path d="M10,728.8188 L10,801.8188 L847,801.8188 L847,738.8188 L837,728.8188 L10,728.8188 " fill="#FFFFFF" style="stroke:#000000;stroke-width:1;"/><path d="M837,728.8188 L837,738.8188 L847,738.8188 L837,728.8188 " fill="#FFFFFF" style="stroke:#000000;stroke-width:1;"/><text fill="#000000" font-family="Arial" font-size="11" lengthAdjust="spacing" textLength="143.0752" x="278.8196" y="744.3167">Representative runtime chain</text><text fill="#000000" font-family="Arial" font-size="11" lengthAdjust="spacing" textLength="252.5112" x="278.8196" y="756.9656">1. Battery SOC and charging state reach BAT_BMS</text><text fill="#000000" font-family="Arial" font-size="11" lengthAdjust="spacing" textLength="291.022" x="278.8196" y="769.6145">2. BAT_BMS normalizes stale cases and derives pack state</text><text fill="#000000" font-family="Arial" font-size="11" lengthAdjust="spacing" textLength="212.749" x="278.8196" y="782.2634">3. frmBatBmsStateMsg is published to CPC</text><text fill="#000000" font-family="Arial" font-size="11" lengthAdjust="spacing" textLength="248.2144" x="278.8196" y="794.9124">4. Tests and observers verify pack-state transitions</text><!--SRC=[RLHDRzf04BtlhvWcbrOjqBIH4Y5H2ImizP0cAXoHgiKUp2hshhkxXj9VtvbTss0Q3iZWcJVllVbuv_TO8TIbL5guLwLhQMK5Mvcz5jOqEazCQIpSfk5p4P7ZJZQbJutsFoGXpAsIvTllL-elmjtTnKk7lnlK6JwXSxB0UQaA3HbgZ_OYogAhZNPTr09BSvnRQuxWROD2UELBX8Nqb7Q2rNC2QmEBfnMy47jOUUaHLeGiIqWfTQFVeqPRd80AD1v6ts0nN__Y17fCNXAOWDawj0UqxeCGClEa_6OPSvnfR8ORlMtBJI3RIrjW1Bi1wQ2Dl4tlquTq8KY4LvcgfVPmypsKpCWD_EDxb9N9u6C4Khe8Z0CIHSFjyZ7zd2w7C2tXCusQfPeZLGw9B8OJ7vQFmqIIjz6rEQ9b4gwfsWIMpSszJv9XmdFd12drwBmBuVGlXITK8HLYDWjEZwBJGQ63sKo8rWXobOLCONlHeaal5npbDGwQEgTymQ7S4b8mXMBH6xJHHN9f4FT57RWYXOgsUp5BrdLvOjWIHx77ErcMFCiRVToZRfi8ajlcO6lDA-eXH8vM7GYwSh7Ou6Kbww2OsvOhYvalJs-cSz0QgnfsrbINiZ68Hg4DyRUgs7imko3a9zOqxxG2qZD2eE_42CwJGZy6aoAkSqpZswIU_gZZspunAO4w1oPmtS6NPbigjmyjlDYAAQceg1yTw9ChkjSy3jD-YxoLPEvvYU2Wy7WbbG2lQNVpI1IvNEFGzG88hJDySXO0iAFDR9TPafgSDi1vYtGq-XddHJjBpN4mDf6LOP9nM3-nbcjcjj5UqMqZs-awteq7juRh3aQPugd8lhD3V1dtpcXZArdI6NHnEY6Jh39G3nFZuYB7uVWw_jzndjSwzWTpy2OOUJ-6DQzc0EfF5z2NsiNJC8h4g3FQAQ_8wRCb_m00]--></g></svg>