<svg xmlns="http://www.w3.org/2000/svg" xmlns:xlink="http://www.w3.org/1999/xlink" contentStyleType="text/css" height="1433px" preserveAspectRatio="none" style="width:1219px;height:1433px;background:#FFFFFF;" version="1.1" viewBox="0 0 1219 1433" width="1219px" zoomAndPan="magnify"><title>Body Lock To Ambient Change Signal Flow</title><defs/><g><text fill="#000000" font-family="Arial" font-size="22" font-weight="bold" lengthAdjust="spacing" textLength="454.6846" x="381.1191" y="35.9956">Body Lock To Ambient Change Signal Flow</text><text fill="#000000" font-family="Arial" font-size="22" font-weight="bold" lengthAdjust="spacing" textLength="412.5107" x="402.2061" y="61.2935">(Input_Console -&gt; Router -&gt; BCM -&gt; IVI)</text><rect fill="#FFFFFF" height="45.2979" style="stroke:#000000;stroke-width:1;" width="10" x="260.2666" y="244.8403"/><rect fill="#FFFFFF" height="242.1914" style="stroke:#000000;stroke-width:1;" width="10" x="491.7188" y="292.1382"/><rect fill="#FFFFFF" height="476.3296" style="stroke:#000000;stroke-width:1;" width="10" x="714.0239" y="536.3296"/><rect fill="#FFFFFF" height="119.5957" style="stroke:#000000;stroke-width:1;" width="10" x="999.2144" y="1012.6592"/><line style="stroke:#000000;stroke-width:1;" x1="67" x2="67" y1="162.8936" y2="1343.3931"/><line style="stroke:#000000;stroke-width:1;" x1="265.1167" x2="265.1167" y1="162.8936" y2="1343.3931"/><line style="stroke:#000000;stroke-width:1;" x1="495.9834" x2="495.9834" y1="162.8936" y2="1343.3931"/><line style="stroke:#000000;stroke-width:1;" x1="718.6682" x2="718.6682" y1="162.8936" y2="1343.3931"/><line style="stroke:#000000;stroke-width:1;" x1="1003.5444" x2="1003.5444" y1="162.8936" y2="1343.3931"/><text fill="#000000" font-family="Arial" font-size="11" lengthAdjust="spacing" textLength="29.3315" x="49.9373" y="148.0935">Driver</text><text fill="#000000" font-family="Arial" font-size="11" lengthAdjust="spacing" textLength="75.2061" x="27" y="160.7424">(Input Console)</text><ellipse cx="67.603" cy="85.5957" fill="#F4F7FB" rx="8" ry="8" style="stroke:#000000;stroke-width:1;"/><path d="M67.603,93.5957 L67.603,120.5957 M54.603,101.5957 L80.603,101.5957 M67.603,120.5957 L54.603,135.5957 M67.603,120.5957 L80.603,135.5957 " fill="none" style="stroke:#000000;stroke-width:1;"/><text fill="#000000" font-family="Arial" font-size="11" lengthAdjust="spacing" textLength="29.3315" x="49.9373" y="1352.8909">Driver</text><text fill="#000000" font-family="Arial" font-size="11" lengthAdjust="spacing" textLength="75.2061" x="27" y="1365.5398">(Input Console)</text><ellipse cx="67.603" cy="1376.6909" fill="#F4F7FB" rx="8" ry="8" style="stroke:#000000;stroke-width:1;"/><path d="M67.603,1384.6909 L67.603,1411.6909 M54.603,1392.6909 L80.603,1392.6909 M67.603,1411.6909 L54.603,1426.6909 M67.603,1411.6909 L80.603,1426.6909 " fill="none" style="stroke:#000000;stroke-width:1;"/><rect fill="#E8F0FE" height="39.2979" rx="2.5" ry="2.5" style="stroke:#000000;stroke-width:1;" width="136.2998" x="197.1167" y="122.5957"/><text fill="#000000" font-family="Arial" font-size="11" lengthAdjust="spacing" textLength="70.9414" x="229.7959" y="140.0935">Input_Console</text><text fill="#000000" font-family="Arial" font-size="11" lengthAdjust="spacing" textLength="122.2998" x="204.1167" y="152.7424">Vehicle &gt; Body + Signals</text><rect fill="#E8F0FE" height="39.2979" rx="2.5" ry="2.5" style="stroke:#000000;stroke-width:1;" width="136.2998" x="197.1167" y="1342.3931"/><text fill="#000000" font-family="Arial" font-size="11" lengthAdjust="spacing" textLength="70.9414" x="229.7959" y="1359.8909">Input_Console</text><text fill="#000000" font-family="Arial" font-size="11" lengthAdjust="spacing" textLength="122.2998" x="204.1167" y="1372.5398">Vehicle &gt; Body + Signals</text><rect fill="#FFF4CC" height="39.2979" rx="2.5" ry="2.5" style="stroke:#000000;stroke-width:1;" width="159.4707" x="416.9834" y="122.5957"/><text fill="#000000" font-family="Arial" font-size="11" lengthAdjust="spacing" textLength="145.4707" x="423.9834" y="140.0935">INPUT_CONSOLE_ROUTER</text><text fill="#000000" font-family="Arial" font-size="11" lengthAdjust="spacing" textLength="114.3398" x="439.5488" y="152.7424">button pulse normalizer</text><rect fill="#FFF4CC" height="39.2979" rx="2.5" ry="2.5" style="stroke:#000000;stroke-width:1;" width="159.4707" x="416.9834" y="1342.3931"/><text fill="#000000" font-family="Arial" font-size="11" lengthAdjust="spacing" textLength="145.4707" x="423.9834" y="1359.8909">INPUT_CONSOLE_ROUTER</text><text fill="#000000" font-family="Arial" font-size="11" lengthAdjust="spacing" textLength="114.3398" x="439.5488" y="1372.5398">button pulse normalizer</text><rect fill="#E8F7E8" height="39.2979" rx="2.5" ry="2.5" style="stroke:#000000;stroke-width:1;" width="116.7114" x="660.6682" y="122.5957"/><text fill="#000000" font-family="Arial" font-size="11" lengthAdjust="spacing" textLength="24.4438" x="706.802" y="140.0935">BCM</text><text fill="#000000" font-family="Arial" font-size="11" lengthAdjust="spacing" textLength="102.7114" x="667.6682" y="152.7424">body / comfort owner</text><rect fill="#E8F7E8" height="39.2979" rx="2.5" ry="2.5" style="stroke:#000000;stroke-width:1;" width="116.7114" x="660.6682" y="1342.3931"/><text fill="#000000" font-family="Arial" font-size="11" lengthAdjust="spacing" textLength="24.4438" x="706.802" y="1359.8909">BCM</text><text fill="#000000" font-family="Arial" font-size="11" lengthAdjust="spacing" textLength="102.7114" x="667.6682" y="1372.5398">body / comfort owner</text><rect fill="#E8F0FE" height="39.2979" rx="2.5" ry="2.5" style="stroke:#000000;stroke-width:1;" width="139.3398" x="934.5444" y="122.5957"/><text fill="#000000" font-family="Arial" font-size="11" lengthAdjust="spacing" textLength="13.4492" x="997.4897" y="140.0935">IVI</text><text fill="#000000" font-family="Arial" font-size="11" lengthAdjust="spacing" textLength="125.3398" x="941.5444" y="152.7424">ambient render consumer</text><rect fill="#E8F0FE" height="39.2979" rx="2.5" ry="2.5" style="stroke:#000000;stroke-width:1;" width="139.3398" x="934.5444" y="1342.3931"/><text fill="#000000" font-family="Arial" font-size="11" lengthAdjust="spacing" textLength="13.4492" x="997.4897" y="1359.8909">IVI</text><text fill="#000000" font-family="Arial" font-size="11" lengthAdjust="spacing" textLength="125.3398" x="941.5444" y="1372.5398">ambient render consumer</text><rect fill="#FFFFFF" height="45.2979" style="stroke:#000000;stroke-width:1;" width="10" x="260.2666" y="244.8403"/><rect fill="#FFFFFF" height="242.1914" style="stroke:#000000;stroke-width:1;" width="10" x="491.7188" y="292.1382"/><rect fill="#FFFFFF" height="476.3296" style="stroke:#000000;stroke-width:1;" width="10" x="714.0239" y="536.3296"/><rect fill="#FFFFFF" height="119.5957" style="stroke:#000000;stroke-width:1;" width="10" x="999.2144" y="1012.6592"/><rect fill="#FFFFFF" height="3" style="stroke:#FFFFFF;stroke-width:1;" width="1207.9229" x="5" y="192.218"/><line style="stroke:#000000;stroke-width:0.5;" x1="5" x2="1212.9229" y1="192.218" y2="192.218"/><line style="stroke:#000000;stroke-width:0.5;" x1="5" x2="1212.9229" y1="195.218" y2="195.218"/><rect fill="#FFFFFF" height="20.6489" style="stroke:#000000;stroke-width:1;" width="193.1045" x="512.4092" y="182.8936"/><text fill="#000000" font-family="Arial" font-size="11" font-weight="bold" lengthAdjust="spacing" textLength="176.0483" x="518.4092" y="197.3914">Manual Cabin Access Commands</text><polygon fill="#000000" points="248.2666,240.8403,258.2666,244.8403,248.2666,248.8403,252.2666,244.8403" style="stroke:#000000;stroke-width:1;"/><line style="stroke:#000000;stroke-width:1;" x1="67.603" x2="254.2666" y1="244.8403" y2="244.8403"/><text fill="#000000" font-family="Arial" font-size="11" lengthAdjust="spacing" textLength="111.853" x="108.0083" y="228.0403">Click UNLOCK / LOCK</text><text fill="#000000" font-family="Arial" font-size="11" lengthAdjust="spacing" textLength="101.4976" x="113.186" y="240.6892">select ambient mode</text><line style="stroke:#000000;stroke-width:1;" x1="270.2666" x2="312.2666" y1="289.1382" y2="289.1382"/><line style="stroke:#000000;stroke-width:1;" x1="312.2666" x2="312.2666" y1="289.1382" y2="302.1382"/><line style="stroke:#000000;stroke-width:1;" x1="265.2666" x2="312.2666" y1="302.1382" y2="302.1382"/><polygon fill="#000000" points="275.2666,298.1382,265.2666,302.1382,275.2666,306.1382,271.2666,302.1382" style="stroke:#000000;stroke-width:1;"/><text fill="#000000" font-family="Arial" font-size="11" lengthAdjust="spacing" textLength="197.4521" x="277.2666" y="272.3381">Write Cmd::doorUnlock / Cmd::doorLock</text><text fill="#000000" font-family="Arial" font-size="11" lengthAdjust="spacing" textLength="140.6206" x="305.6824" y="284.9871">and Cmd::ambientModeCmd</text><path d="M270,310.1382 L270,357.1382 L514,357.1382 L514,320.1382 L504,310.1382 L270,310.1382 " fill="#FFFFFF" style="stroke:#000000;stroke-width:1;"/><path d="M504,310.1382 L504,320.1382 L514,320.1382 L504,310.1382 " fill="#FFFFFF" style="stroke:#000000;stroke-width:1;"/><text fill="#000000" font-family="Arial" font-size="11" lengthAdjust="spacing" textLength="59.9199" x="276" y="325.636">Input seams</text><text fill="#000000" font-family="Arial" font-size="11" lengthAdjust="spacing" textLength="223.1582" x="276" y="338.2849">- Cmd::doorUnlock / doorLock / doorLockHold</text><text fill="#000000" font-family="Arial" font-size="11" lengthAdjust="spacing" textLength="125.9307" x="276" y="350.9338">- Cmd::ambientModeCmd</text><rect fill="#FFFFFF" height="3" style="stroke:#FFFFFF;stroke-width:1;" width="1207.9229" x="5" y="382.4094"/><line style="stroke:#000000;stroke-width:0.5;" x1="5" x2="1212.9229" y1="382.4094" y2="382.4094"/><line style="stroke:#000000;stroke-width:0.5;" x1="5" x2="1212.9229" y1="385.4094" y2="385.4094"/><rect fill="#FFFFFF" height="20.6489" style="stroke:#000000;stroke-width:1;" width="128.2861" x="544.8184" y="373.085"/><text fill="#000000" font-family="Arial" font-size="11" font-weight="bold" lengthAdjust="spacing" textLength="111.23" x="550.8184" y="387.5828">Router Normalization</text><polygon fill="#000000" points="479.7188,418.3828,489.7188,422.3828,479.7188,426.3828,483.7188,422.3828" style="stroke:#000000;stroke-width:1;"/><line style="stroke:#000000;stroke-width:1;" x1="265.2666" x2="485.7188" y1="422.3828" y2="422.3828"/><text fill="#000000" font-family="Arial" font-size="11" lengthAdjust="spacing" textLength="102.1099" x="327.4377" y="418.2317">Cmd::* button pulses</text><line style="stroke:#000000;stroke-width:1;" x1="501.7188" x2="543.7188" y1="449.0317" y2="449.0317"/><line style="stroke:#000000;stroke-width:1;" x1="543.7188" x2="543.7188" y1="449.0317" y2="462.0317"/><line style="stroke:#000000;stroke-width:1;" x1="502.7188" x2="543.7188" y1="462.0317" y2="462.0317"/><polygon fill="#000000" points="512.7188,458.0317,502.7188,462.0317,512.7188,466.0317,508.7188,462.0317" style="stroke:#000000;stroke-width:1;"/><text fill="#000000" font-family="Arial" font-size="11" lengthAdjust="spacing" textLength="188.3052" x="508.7188" y="444.8806">doorUnlock -&gt; Cmd::doorLockCmd = 1</text><line style="stroke:#000000;stroke-width:1;" x1="501.7188" x2="543.7188" y1="488.6807" y2="488.6807"/><line style="stroke:#000000;stroke-width:1;" x1="543.7188" x2="543.7188" y1="488.6807" y2="501.6807"/><line style="stroke:#000000;stroke-width:1;" x1="502.7188" x2="543.7188" y1="501.6807" y2="501.6807"/><polygon fill="#000000" points="512.7188,497.6807,502.7188,501.6807,512.7188,505.6807,508.7188,501.6807" style="stroke:#000000;stroke-width:1;"/><text fill="#000000" font-family="Arial" font-size="11" lengthAdjust="spacing" textLength="177.9175" x="508.7188" y="484.5295">doorLock -&gt; Cmd::doorLockCmd = 2</text><line style="stroke:#000000;stroke-width:1;" x1="501.7188" x2="543.7188" y1="533.3296" y2="533.3296"/><line style="stroke:#000000;stroke-width:1;" x1="543.7188" x2="543.7188" y1="533.3296" y2="546.3296"/><line style="stroke:#000000;stroke-width:1;" x1="496.7188" x2="543.7188" y1="546.3296" y2="546.3296"/><polygon fill="#000000" points="506.7188,542.3296,496.7188,546.3296,506.7188,550.3296,502.7188,546.3296" style="stroke:#000000;stroke-width:1;"/><text fill="#000000" font-family="Arial" font-size="11" lengthAdjust="spacing" textLength="122.896" x="508.7188" y="529.1785">clear one-shot pulse vars</text><path d="M501,554.3296 L501,601.3296 L707,601.3296 L707,564.3296 L697,554.3296 L501,554.3296 " fill="#FFFFFF" style="stroke:#000000;stroke-width:1;"/><path d="M697,554.3296 L697,564.3296 L707,564.3296 L697,554.3296 " fill="#FFFFFF" style="stroke:#000000;stroke-width:1;"/><text fill="#000000" font-family="Arial" font-size="11" lengthAdjust="spacing" textLength="162.6421" x="507" y="569.8274">Router keeps the panel UI simple</text><text fill="#000000" font-family="Arial" font-size="11" lengthAdjust="spacing" textLength="162.6152" x="507" y="582.4763">while BCM consumes normalized</text><text fill="#000000" font-family="Arial" font-size="11" lengthAdjust="spacing" textLength="185.8721" x="507" y="595.1252">doorLockCmd and ambientModeCmd.</text><rect fill="#FFFFFF" height="3" style="stroke:#FFFFFF;stroke-width:1;" width="1207.9229" x="5" y="626.6008"/><line style="stroke:#000000;stroke-width:0.5;" x1="5" x2="1212.9229" y1="626.6008" y2="626.6008"/><line style="stroke:#000000;stroke-width:0.5;" x1="5" x2="1212.9229" y1="629.6008" y2="629.6008"/><rect fill="#FFFFFF" height="20.6489" style="stroke:#000000;stroke-width:1;" width="102.0054" x="557.9587" y="617.2764"/><text fill="#000000" font-family="Arial" font-size="11" font-weight="bold" lengthAdjust="spacing" textLength="84.9492" x="563.9587" y="631.7742">BCM Ownership</text><polygon fill="#000000" points="702.0239,675.2231,712.0239,679.2231,702.0239,683.2231,706.0239,679.2231" style="stroke:#000000;stroke-width:1;"/><line style="stroke:#000000;stroke-width:1;" x1="496.7188" x2="708.0239" y1="679.2231" y2="679.2231"/><text fill="#000000" font-family="Arial" font-size="11" lengthAdjust="spacing" textLength="97.813" x="556.4648" y="662.4231">Cmd::doorLockCmd</text><text fill="#000000" font-family="Arial" font-size="11" lengthAdjust="spacing" textLength="119.2114" x="545.7656" y="675.072">Cmd::ambientModeCmd</text><line style="stroke:#000000;stroke-width:1;" x1="724.0239" x2="766.0239" y1="705.8721" y2="705.8721"/><line style="stroke:#000000;stroke-width:1;" x1="766.0239" x2="766.0239" y1="705.8721" y2="718.8721"/><line style="stroke:#000000;stroke-width:1;" x1="725.0239" x2="766.0239" y1="718.8721" y2="718.8721"/><polygon fill="#000000" points="735.0239,714.8721,725.0239,718.8721,735.0239,722.8721,731.0239,718.8721" style="stroke:#000000;stroke-width:1;"/><text fill="#000000" font-family="Arial" font-size="11" lengthAdjust="spacing" textLength="216.7451" x="731.0239" y="701.7209">manualMode = (Test::scenarioActiveId == 0)</text><line style="stroke:#000000;stroke-width:1;" x1="724.0239" x2="766.0239" y1="758.1699" y2="758.1699"/><line style="stroke:#000000;stroke-width:1;" x1="766.0239" x2="766.0239" y1="758.1699" y2="771.1699"/><line style="stroke:#000000;stroke-width:1;" x1="725.0239" x2="766.0239" y1="771.1699" y2="771.1699"/><polygon fill="#000000" points="735.0239,767.1699,725.0239,771.1699,735.0239,775.1699,731.0239,771.1699" style="stroke:#000000;stroke-width:1;"/><text fill="#000000" font-family="Arial" font-size="11" lengthAdjust="spacing" textLength="198.3975" x="731.0239" y="741.3699">ambientMode = Cmd::ambientModeCmd</text><text fill="#000000" font-family="Arial" font-size="11" lengthAdjust="spacing" textLength="92.9468" x="783.7493" y="754.0188">when manualMode</text><line style="stroke:#000000;stroke-width:1;" x1="724.0239" x2="766.0239" y1="797.8188" y2="797.8188"/><line style="stroke:#000000;stroke-width:1;" x1="766.0239" x2="766.0239" y1="797.8188" y2="810.8188"/><line style="stroke:#000000;stroke-width:1;" x1="725.0239" x2="766.0239" y1="810.8188" y2="810.8188"/><polygon fill="#000000" points="735.0239,806.8188,725.0239,810.8188,735.0239,814.8188,731.0239,810.8188" style="stroke:#000000;stroke-width:1;"/><text fill="#000000" font-family="Arial" font-size="11" lengthAdjust="spacing" textLength="157.1045" x="731.0239" y="793.6677">deriveAmbientColorFromMode()</text><line style="stroke:#000000;stroke-width:1;" x1="724.0239" x2="766.0239" y1="837.4678" y2="837.4678"/><line style="stroke:#000000;stroke-width:1;" x1="766.0239" x2="766.0239" y1="837.4678" y2="850.4678"/><line style="stroke:#000000;stroke-width:1;" x1="725.0239" x2="766.0239" y1="850.4678" y2="850.4678"/><polygon fill="#000000" points="735.0239,846.4678,725.0239,850.4678,735.0239,854.4678,731.0239,850.4678" style="stroke:#000000;stroke-width:1;"/><text fill="#000000" font-family="Arial" font-size="11" lengthAdjust="spacing" textLength="166.2837" x="731.0239" y="833.3167">deriveAmbientPatternFromMode()</text><line style="stroke:#000000;stroke-width:1;" x1="724.0239" x2="766.0239" y1="877.1167" y2="877.1167"/><line style="stroke:#000000;stroke-width:1;" x1="766.0239" x2="766.0239" y1="877.1167" y2="890.1167"/><line style="stroke:#000000;stroke-width:1;" x1="725.0239" x2="766.0239" y1="890.1167" y2="890.1167"/><polygon fill="#000000" points="735.0239,886.1167,725.0239,890.1167,735.0239,894.1167,731.0239,890.1167" style="stroke:#000000;stroke-width:1;"/><text fill="#000000" font-family="Arial" font-size="11" lengthAdjust="spacing" textLength="200.5566" x="731.0239" y="872.9656">compute doorLockState / doorOpenWarn</text><path d="M729,903.1167 L729,988.1167 L1012,988.1167 L1012,913.1167 L1002,903.1167 L729,903.1167 " fill="#FFFFFF" style="stroke:#000000;stroke-width:1;"/><path d="M1002,903.1167 L1002,913.1167 L1012,913.1167 L1002,903.1167 " fill="#FFFFFF" style="stroke:#000000;stroke-width:1;"/><text fill="#000000" font-family="Arial" font-size="11" lengthAdjust="spacing" textLength="140.626" x="735" y="918.6145">Representative BCM outputs</text><text fill="#000000" font-family="Arial" font-size="11" lengthAdjust="spacing" textLength="262.9097" x="735" y="931.2634">- Body::ambientMode / ambientColor / ambientPattern</text><text fill="#000000" font-family="Arial" font-size="11" lengthAdjust="spacing" textLength="119.1953" x="735" y="943.9124">- frmAmbientControlMsg</text><text fill="#000000" font-family="Arial" font-size="11" lengthAdjust="spacing" textLength="101.4707" x="735" y="956.5613">- frmInteriorLightMsg</text><text fill="#000000" font-family="Arial" font-size="11" lengthAdjust="spacing" textLength="92.9092" x="735" y="969.2102">- frmDoorStateMsg</text><text fill="#000000" font-family="Arial" font-size="11" lengthAdjust="spacing" textLength="133.2568" x="735" y="981.8591">- frmBodyComfortStateMsg</text><polygon fill="#000000" points="987.2144,1008.6592,997.2144,1012.6592,987.2144,1016.6592,991.2144,1012.6592" style="stroke:#000000;stroke-width:1;"/><line style="stroke:#000000;stroke-width:1;" x1="719.0239" x2="993.2144" y1="1012.6592" y2="1012.6592"/><text fill="#000000" font-family="Arial" font-size="11" lengthAdjust="spacing" textLength="256.1904" x="731.0239" y="1008.5081">Body::ambientMode / ambientColor / ambientPattern</text><rect fill="#FFFFFF" height="3" style="stroke:#FFFFFF;stroke-width:1;" width="1207.9229" x="5" y="1039.9836"/><line style="stroke:#000000;stroke-width:0.5;" x1="5" x2="1212.9229" y1="1039.9836" y2="1039.9836"/><line style="stroke:#000000;stroke-width:0.5;" x1="5" x2="1212.9229" y1="1042.9836" y2="1042.9836"/><rect fill="#FFFFFF" height="20.6489" style="stroke:#000000;stroke-width:1;" width="136.8584" x="540.5322" y="1030.6592"/><text fill="#000000" font-family="Arial" font-size="11" font-weight="bold" lengthAdjust="spacing" textLength="119.8022" x="546.5322" y="1045.157">Visible Cabin Outcome</text><line style="stroke:#000000;stroke-width:1;" x1="1009.2144" x2="1051.2144" y1="1092.606" y2="1092.606"/><line style="stroke:#000000;stroke-width:1;" x1="1051.2144" x2="1051.2144" y1="1092.606" y2="1105.606"/><line style="stroke:#000000;stroke-width:1;" x1="1010.2144" x2="1051.2144" y1="1105.606" y2="1105.606"/><polygon fill="#000000" points="1020.2144,1101.606,1010.2144,1105.606,1020.2144,1109.606,1016.2144,1105.606" style="stroke:#000000;stroke-width:1;"/><text fill="#000000" font-family="Arial" font-size="11" lengthAdjust="spacing" textLength="132.6768" x="1034.8628" y="1075.8059">renderMode / renderColor /</text><text fill="#000000" font-family="Arial" font-size="11" lengthAdjust="spacing" textLength="169.9736" x="1016.2144" y="1088.4548">renderPattern from Body::ambient*</text><polygon fill="#000000" points="276.2666,1128.2549,266.2666,1132.2549,276.2666,1136.2549,272.2666,1132.2549" style="stroke:#000000;stroke-width:1;"/><line style="stroke:#000000;stroke-width:1;" x1="270.2666" x2="1003.2144" y1="1132.2549" y2="1132.2549"/><text fill="#000000" font-family="Arial" font-size="11" lengthAdjust="spacing" textLength="153.4414" x="558.0198" y="1128.1038">UiRender / Infotainment mirrors</text><path d="M1009,1145.2549 L1009,1205.2549 L1207,1205.2549 L1207,1155.2549 L1197,1145.2549 L1009,1145.2549 " fill="#FFFFFF" style="stroke:#000000;stroke-width:1;"/><path d="M1197,1145.2549 L1197,1155.2549 L1207,1155.2549 L1197,1145.2549 " fill="#FFFFFF" style="stroke:#000000;stroke-width:1;"/><text fill="#000000" font-family="Arial" font-size="11" lengthAdjust="spacing" textLength="126.5645" x="1015" y="1160.7527">Ambient rendering follows</text><text fill="#000000" font-family="Arial" font-size="11" lengthAdjust="spacing" textLength="145.5137" x="1015" y="1173.4016">BCM-owned body state, while</text><text fill="#000000" font-family="Arial" font-size="11" lengthAdjust="spacing" textLength="139.4014" x="1015" y="1186.0505">door lock remains part of the</text><text fill="#000000" font-family="Arial" font-size="11" lengthAdjust="spacing" textLength="177.9229" x="1015" y="1198.6995">same cabin-access interaction zone.</text><polygon fill="#000000" points="78.603,1210.8506,68.603,1214.8506,78.603,1218.8506,74.603,1214.8506" style="stroke:#000000;stroke-width:1;"/><line style="stroke:#000000;stroke-width:1;" x1="72.603" x2="264.2666" y1="1214.8506" y2="1214.8506"/><text fill="#000000" font-family="Arial" font-size="11" lengthAdjust="spacing" textLength="130.8506" x="101.0095" y="1226.3484">Lock state / ambient scene</text><text fill="#000000" font-family="Arial" font-size="11" lengthAdjust="spacing" textLength="173.6636" x="79.603" y="1238.9973">appear as one body-access context</text><path d="M10,1255.1484 L10,1328.1484 L1061,1328.1484 L1061,1265.1484 L1051,1255.1484 L10,1255.1484 " fill="#FFFFFF" style="stroke:#000000;stroke-width:1;"/><path d="M1051,1255.1484 L1051,1265.1484 L1061,1265.1484 L1051,1255.1484 " fill="#FFFFFF" style="stroke:#000000;stroke-width:1;"/><text fill="#000000" font-family="Arial" font-size="11" lengthAdjust="spacing" textLength="143.0752" x="386.8335" y="1270.6462">Representative runtime chain</text><text fill="#000000" font-family="Arial" font-size="11" lengthAdjust="spacing" textLength="258.0327" x="386.8335" y="1283.2952">1. Input_Console emits door and ambient commands</text><text fill="#000000" font-family="Arial" font-size="11" lengthAdjust="spacing" textLength="251.2813" x="386.8335" y="1295.9441">2. Router normalizes lock pulses into doorLockCmd</text><text fill="#000000" font-family="Arial" font-size="11" lengthAdjust="spacing" textLength="289.2173" x="386.8335" y="1308.593">3. BCM owns both door-state and ambient-state publication</text><text fill="#000000" font-family="Arial" font-size="11" lengthAdjust="spacing" textLength="254.9766" x="386.8335" y="1321.2419">4. IVI consumes ambient outputs for cabin rendering</text><!--SRC=[bLPHR-8u47xthvZhlhHx2ztkLTeLEbQYMT2XAr2rfVk2L9d4WDN4pjbEkTjVVpEs4nAMddIyG6BFDpFVp7p3Bsud2W5bpgLYzaMgaXjUm9gdBrkZAvKbEjS6tatyftKZ4njUvMwYbPjpH1WPoVFJvm_oXu2hgzQX5NzLGgLY9gpbMp7AvLP1AfGJfdNB25jgPUjRDoBN-v4nUW_EL88n9rqku4Pd_y2jJb_WKSEeM4k4WMJ7rLR00-Bo72Pek5BdKrLMxZb1I8rslQzmholqIBzkaXbzJP-c5upnr67APz-CV1McjeDeTt46t48uGrgk9vydDmpZTJAL9KVNPnqtA_KaTZ95Vrz3fB_6eAp7kUDAvF1k_6NoSJ8-WfdVBH-VayNyON4xVhvVB1_7zokrhfpJ2iegjmAKDWNFaLtZmM8wLAlh9EcYOO9eJ05SGggBZJOEz5v5IqgVWlWy_d8KnDDqfNWarGYL8NwAcLL5jCGBJVXiE8GPLnKodl2rL31AKomTCbSKN6KMXaF68dD8TiXz04akiNZB-UqY-HEZewyLLZqNgOFQTQ4pGNMHhzo9OCc2VGlekv5uc1JPO91fRPOgfwwuFBoXBi5qL1PUHV0POkCpKngjZTpka9bDz15ARmKlBEkTWAvHMp__q7bMtptoWFm1UM6PECg5g8lbcyUYSYUnq4HPSpVSE2GUBGR1sNjeDuTbX-vkxhLYnzSTNl01Xd3rbjNjspQVJjbWntC3MecUtMaN-_ML6tj4Sqmfshq8KLf0IOBIvxYSWfL5cGkstqcQTUpJs7xsqFqPQmT4vUtotZz9VFHCp1FiWeR1xcJPfHoFM5Sc1Zzni5AdYXqb9PWKVYpe20axVnJM3GOM1OyRgKVaIqoHoY5ylEZQjJ3Hy8IRbThlX6hXT-rnNX4xggANyedH1Tqxl_YFctVSOSRghRie83WMeccC1qTKXH5Ob49zvqOTrTdpA4gKT8JdbB37GcOHYMQBnB6J7EBnLjo7nnWSscnCqQIcdD7vp6x3wocj4edHaV_cxJUCpyVQl26lIP33vg1fbiDIm9p_VtojNgFigT6Uf9LhxECWZulA8PEYst3eZP77nd5GtUWnF4I7AnKUeqFCHnVTED_NKBL4BkLz4F5BcAgDThZr2w-l4lVgJyD9iOmwuY_L5ZOwntrgYPuUhP0C_5wnnDy7y8Fg1nAypXXHe1CBj5O84uURMVh3a187FHvMXAHw4GSeNpzGDKwFBCLJBv3VUqrINfjixC5wOz1quVRbPKb2X9iAKNsWjKlK4IV-TYpah0apG7_mVewQrLJAIOfwHt-KhlhG_JCX2kcix_-s_j2W-Ct7FlLhQMnKomP-WbWJ0HfQci9-wuS1sIDtQ-rs_h0NicovY6_AQerRrAyCTjttdTFeP1rCd3Midmda7sfwOFjV]--></g></svg>