<svg xmlns="http://www.w3.org/2000/svg" xmlns:xlink="http://www.w3.org/1999/xlink" contentStyleType="text/css" height="1129px" preserveAspectRatio="none" style="width:989px;height:1129px;background:#FFFFFF;" version="1.1" viewBox="0 0 989 1129" width="989px" zoomAndPan="magnify"><title>Boundary Route Context To DCM Security Session Policy Signal Flow</title><defs/><g><text fill="#000000" font-family="Arial" font-size="22" font-weight="bold" lengthAdjust="spacing" textLength="730.9844" x="127.5656" y="35.9956">Boundary Route Context To DCM Security Session Policy Signal Flow</text><text fill="#000000" font-family="Arial" font-size="22" font-weight="bold" lengthAdjust="spacing" textLength="797.0811" x="94.5172" y="61.2935">(route/alert + boundary/fail-safe context -&gt; DCM security session and policy)</text><rect fill="#FFFFFF" height="706.8188" style="stroke:#000000;stroke-width:1;" width="10" x="449.5464" y="277.436"/><line style="stroke:#000000;stroke-width:1;" x1="72" x2="72" y1="116.8936" y2="1085.4995"/><line style="stroke:#000000;stroke-width:1;" x1="219.4976" x2="219.4976" y1="116.8936" y2="1085.4995"/><line style="stroke:#000000;stroke-width:1;" x1="454.2722" x2="454.2722" y1="116.8936" y2="1085.4995"/><line style="stroke:#000000;stroke-width:1;" x1="763.1472" x2="763.1472" y1="116.8936" y2="1085.4995"/><line style="stroke:#000000;stroke-width:1;" x1="924.9656" x2="924.9656" y1="116.8936" y2="1085.4995"/><rect fill="#F4F7FB" height="26.6489" rx="2.5" ry="2.5" style="stroke:#000000;stroke-width:1;" width="104.4976" x="20" y="89.2446"/><text fill="#000000" font-family="Arial" font-size="11" lengthAdjust="spacing" textLength="90.4976" x="27" y="106.7424">Navigation context</text><rect fill="#F4F7FB" height="26.6489" rx="2.5" ry="2.5" style="stroke:#000000;stroke-width:1;" width="104.4976" x="20" y="1084.4995"/><text fill="#000000" font-family="Arial" font-size="11" lengthAdjust="spacing" textLength="90.4976" x="27" y="1101.9973">Navigation context</text><rect fill="#E8F0FE" height="26.6489" rx="2.5" ry="2.5" style="stroke:#000000;stroke-width:1;" width="130.1768" x="154.4976" y="89.2446"/><text fill="#000000" font-family="Arial" font-size="11" lengthAdjust="spacing" textLength="116.1768" x="161.4976" y="106.7424">Alert / boundary context</text><rect fill="#E8F0FE" height="26.6489" rx="2.5" ry="2.5" style="stroke:#000000;stroke-width:1;" width="130.1768" x="154.4976" y="1084.4995"/><text fill="#000000" font-family="Arial" font-size="11" lengthAdjust="spacing" textLength="116.1768" x="161.4976" y="1101.9973">Alert / boundary context</text><rect fill="#E8F7E8" height="39.2979" rx="2.5" ry="2.5" style="stroke:#000000;stroke-width:1;" width="96.5483" x="406.2722" y="76.5957"/><text fill="#000000" font-family="Arial" font-size="11" lengthAdjust="spacing" textLength="25.0508" x="442.021" y="94.0935">DCM</text><text fill="#000000" font-family="Arial" font-size="11" lengthAdjust="spacing" textLength="82.5483" x="413.2722" y="106.7424">diagnostic owner</text><rect fill="#E8F7E8" height="39.2979" rx="2.5" ry="2.5" style="stroke:#000000;stroke-width:1;" width="96.5483" x="406.2722" y="1084.4995"/><text fill="#000000" font-family="Arial" font-size="11" lengthAdjust="spacing" textLength="25.0508" x="442.021" y="1101.9973">DCM</text><text fill="#000000" font-family="Arial" font-size="11" lengthAdjust="spacing" textLength="82.5483" x="413.2722" y="1114.6462">diagnostic owner</text><rect fill="#FFF4CC" height="26.6489" rx="2.5" ry="2.5" style="stroke:#000000;stroke-width:1;" width="105.6899" x="711.1472" y="89.2446"/><text fill="#000000" font-family="Arial" font-size="11" lengthAdjust="spacing" textLength="91.6899" x="718.1472" y="106.7424">DCM runtime state</text><rect fill="#FFF4CC" height="26.6489" rx="2.5" ry="2.5" style="stroke:#000000;stroke-width:1;" width="105.6899" x="711.1472" y="1084.4995"/><text fill="#000000" font-family="Arial" font-size="11" lengthAdjust="spacing" textLength="91.6899" x="718.1472" y="1101.9973">DCM runtime state</text><rect fill="#FCE8FF" height="39.2979" rx="2.5" ry="2.5" style="stroke:#000000;stroke-width:1;" width="75.1499" x="887.9656" y="76.5957"/><text fill="#000000" font-family="Arial" font-size="11" lengthAdjust="spacing" textLength="56.8477" x="897.1167" y="94.0935">Observers /</text><text fill="#000000" font-family="Arial" font-size="11" lengthAdjust="spacing" textLength="61.1499" x="894.9656" y="106.7424">diag readers</text><rect fill="#FCE8FF" height="39.2979" rx="2.5" ry="2.5" style="stroke:#000000;stroke-width:1;" width="75.1499" x="887.9656" y="1084.4995"/><text fill="#000000" font-family="Arial" font-size="11" lengthAdjust="spacing" textLength="56.8477" x="897.1167" y="1101.9973">Observers /</text><text fill="#000000" font-family="Arial" font-size="11" lengthAdjust="spacing" textLength="61.1499" x="894.9656" y="1114.6462">diag readers</text><rect fill="#FFFFFF" height="706.8188" style="stroke:#000000;stroke-width:1;" width="10" x="449.5464" y="277.436"/><rect fill="#FFFFFF" height="3" style="stroke:#FFFFFF;stroke-width:1;" width="977.1155" x="5" y="146.218"/><line style="stroke:#000000;stroke-width:0.5;" x1="5" x2="982.1155" y1="146.218" y2="146.218"/><line style="stroke:#000000;stroke-width:0.5;" x1="5" x2="982.1155" y1="149.218" y2="149.218"/><rect fill="#FFFFFF" height="20.6489" style="stroke:#000000;stroke-width:1;" width="78.1577" x="454.4789" y="136.8936"/><text fill="#000000" font-family="Arial" font-size="11" font-weight="bold" lengthAdjust="spacing" textLength="61.1016" x="460.4789" y="151.3914">DCM Inputs</text><polygon fill="#000000" points="442.5464,194.8403,452.5464,198.8403,442.5464,202.8403,446.5464,198.8403" style="stroke:#000000;stroke-width:1;"/><line style="stroke:#000000;stroke-width:1;" x1="72.2488" x2="448.5464" y1="198.8403" y2="198.8403"/><text fill="#000000" font-family="Arial" font-size="11" lengthAdjust="spacing" textLength="117.9868" x="204.4042" y="182.0403">frmNavModuleStateMsg</text><text fill="#000000" font-family="Arial" font-size="11" lengthAdjust="spacing" textLength="169.9683" x="178.4135" y="194.6892">NavSessionState / NavRouteClass</text><polygon fill="#000000" points="442.5464,234.1382,452.5464,238.1382,442.5464,242.1382,446.5464,238.1382" style="stroke:#000000;stroke-width:1;"/><line style="stroke:#000000;stroke-width:1;" x1="219.5859" x2="448.5464" y1="238.1382" y2="238.1382"/><text fill="#000000" font-family="Arial" font-size="11" lengthAdjust="spacing" textLength="94.123" x="290.0046" y="221.3381">frmClusterNotifMsg</text><text fill="#000000" font-family="Arial" font-size="11" lengthAdjust="spacing" textLength="74.5776" x="299.7773" y="233.9871">ClusterNotifArg</text><polygon fill="#000000" points="437.5464,273.436,447.5464,277.436,437.5464,281.436,441.5464,277.436" style="stroke:#000000;stroke-width:1;"/><line style="stroke:#000000;stroke-width:1;" x1="219.5859" x2="443.5464" y1="277.436" y2="277.436"/><text fill="#000000" font-family="Arial" font-size="11" lengthAdjust="spacing" textLength="176.1021" x="246.5151" y="260.636">CoreState::domainBoundaryStatus /</text><text fill="#000000" font-family="Arial" font-size="11" lengthAdjust="spacing" textLength="210.9604" x="229.0859" y="273.2849">warningPathStatus and Core::failSafeMode</text><line style="stroke:#000000;stroke-width:1;" x1="459.5464" x2="501.5464" y1="304.085" y2="304.085"/><line style="stroke:#000000;stroke-width:1;" x1="501.5464" x2="501.5464" y1="304.085" y2="317.085"/><line style="stroke:#000000;stroke-width:1;" x1="460.5464" x2="501.5464" y1="317.085" y2="317.085"/><polygon fill="#000000" points="470.5464,313.085,460.5464,317.085,470.5464,321.085,466.5464,317.085" style="stroke:#000000;stroke-width:1;"/><text fill="#000000" font-family="Arial" font-size="11" lengthAdjust="spacing" textLength="215.5259" x="466.5464" y="299.9338">routeActive = recent nav session/route class</text><line style="stroke:#000000;stroke-width:1;" x1="459.5464" x2="501.5464" y1="343.7339" y2="343.7339"/><line style="stroke:#000000;stroke-width:1;" x1="501.5464" x2="501.5464" y1="343.7339" y2="356.7339"/><line style="stroke:#000000;stroke-width:1;" x1="460.5464" x2="501.5464" y1="356.7339" y2="356.7339"/><polygon fill="#000000" points="470.5464,352.7339,460.5464,356.7339,470.5464,360.7339,466.5464,356.7339" style="stroke:#000000;stroke-width:1;"/><text fill="#000000" font-family="Arial" font-size="11" lengthAdjust="spacing" textLength="169.6675" x="466.5464" y="339.5828">alertLevel = recent cluster-notif arg</text><line style="stroke:#000000;stroke-width:1;" x1="459.5464" x2="501.5464" y1="396.0317" y2="396.0317"/><line style="stroke:#000000;stroke-width:1;" x1="501.5464" x2="501.5464" y1="396.0317" y2="409.0317"/><line style="stroke:#000000;stroke-width:1;" x1="460.5464" x2="501.5464" y1="409.0317" y2="409.0317"/><polygon fill="#000000" points="470.5464,405.0317,460.5464,409.0317,470.5464,413.0317,466.5464,409.0317" style="stroke:#000000;stroke-width:1;"/><text fill="#000000" font-family="Arial" font-size="11" lengthAdjust="spacing" textLength="82.2314" x="561.7759" y="379.2317">serviceContext =</text><text fill="#000000" font-family="Arial" font-size="11" lengthAdjust="spacing" textLength="272.6904" x="466.5464" y="391.8806">ethHasBoundaryServiceContext(routeActive, alertLevel)</text><line style="stroke:#000000;stroke-width:1;" x1="459.5464" x2="501.5464" y1="448.3296" y2="448.3296"/><line style="stroke:#000000;stroke-width:1;" x1="501.5464" x2="501.5464" y1="448.3296" y2="461.3296"/><line style="stroke:#000000;stroke-width:1;" x1="460.5464" x2="501.5464" y1="461.3296" y2="461.3296"/><polygon fill="#000000" points="470.5464,457.3296,460.5464,461.3296,470.5464,465.3296,466.5464,461.3296" style="stroke:#000000;stroke-width:1;"/><text fill="#000000" font-family="Arial" font-size="11" lengthAdjust="spacing" textLength="192.3228" x="472.186" y="431.5295">diagStage = ethDiagBoundaryStage(...)</text><text fill="#000000" font-family="Arial" font-size="11" lengthAdjust="spacing" textLength="203.6021" x="466.5464" y="444.1785">from route/alert/boundary/fail-safe context</text><line style="stroke:#000000;stroke-width:1;" x1="459.5464" x2="501.5464" y1="500.6274" y2="500.6274"/><line style="stroke:#000000;stroke-width:1;" x1="501.5464" x2="501.5464" y1="500.6274" y2="513.6274"/><line style="stroke:#000000;stroke-width:1;" x1="460.5464" x2="501.5464" y1="513.6274" y2="513.6274"/><polygon fill="#000000" points="470.5464,509.6274,460.5464,513.6274,470.5464,517.6274,466.5464,513.6274" style="stroke:#000000;stroke-width:1;"/><text fill="#000000" font-family="Arial" font-size="11" lengthAdjust="spacing" textLength="203.9028" x="466.5464" y="483.8274">securitySession = 1 when serviceContext,</text><text fill="#000000" font-family="Arial" font-size="11" lengthAdjust="spacing" textLength="192.6396" x="472.178" y="496.4763">2 when diagStage == 1 and routeActive</text><line style="stroke:#000000;stroke-width:1;" x1="459.5464" x2="501.5464" y1="552.9253" y2="552.9253"/><line style="stroke:#000000;stroke-width:1;" x1="501.5464" x2="501.5464" y1="552.9253" y2="565.9253"/><line style="stroke:#000000;stroke-width:1;" x1="460.5464" x2="501.5464" y1="565.9253" y2="565.9253"/><polygon fill="#000000" points="470.5464,561.9253,460.5464,565.9253,470.5464,569.9253,466.5464,565.9253" style="stroke:#000000;stroke-width:1;"/><text fill="#000000" font-family="Arial" font-size="11" lengthAdjust="spacing" textLength="173.9644" x="466.5464" y="536.1252">authState = 1 when serviceContext,</text><text fill="#000000" font-family="Arial" font-size="11" lengthAdjust="spacing" textLength="113.1475" x="496.9548" y="548.7742">2 when diagStage == 1</text><line style="stroke:#000000;stroke-width:1;" x1="459.5464" x2="501.5464" y1="592.5742" y2="592.5742"/><line style="stroke:#000000;stroke-width:1;" x1="501.5464" x2="501.5464" y1="592.5742" y2="605.5742"/><line style="stroke:#000000;stroke-width:1;" x1="460.5464" x2="501.5464" y1="605.5742" y2="605.5742"/><polygon fill="#000000" points="470.5464,601.5742,460.5464,605.5742,470.5464,609.5742,466.5464,605.5742" style="stroke:#000000;stroke-width:1;"/><text fill="#000000" font-family="Arial" font-size="11" lengthAdjust="spacing" textLength="275.4458" x="466.5464" y="588.4231">securityFault = ethDiagStageToSecurityFault(diagStage)</text><line style="stroke:#000000;stroke-width:1;" x1="459.5464" x2="501.5464" y1="632.2231" y2="632.2231"/><line style="stroke:#000000;stroke-width:1;" x1="501.5464" x2="501.5464" y1="632.2231" y2="645.2231"/><line style="stroke:#000000;stroke-width:1;" x1="460.5464" x2="501.5464" y1="645.2231" y2="645.2231"/><polygon fill="#000000" points="470.5464,641.2231,460.5464,645.2231,470.5464,649.2231,466.5464,645.2231" style="stroke:#000000;stroke-width:1;"/><text fill="#000000" font-family="Arial" font-size="11" lengthAdjust="spacing" textLength="245.4858" x="466.5464" y="628.072">securityPolicy = ethDiagStageToPolicy(diagStage)</text><path d="M464,658.2231 L464,743.2231 L661,743.2231 L661,668.2231 L651,658.2231 L464,658.2231 " fill="#FFFFFF" style="stroke:#000000;stroke-width:1;"/><path d="M651,658.2231 L651,668.2231 L661,668.2231 L651,658.2231 " fill="#FFFFFF" style="stroke:#000000;stroke-width:1;"/><text fill="#000000" font-family="Arial" font-size="11" lengthAdjust="spacing" textLength="139.4229" x="470" y="673.7209">Representative gating inputs</text><text fill="#000000" font-family="Arial" font-size="11" lengthAdjust="spacing" textLength="176.6875" x="470" y="686.3699">- NavSessionState / NavRouteClass</text><text fill="#000000" font-family="Arial" font-size="11" lengthAdjust="spacing" textLength="81.2969" x="470" y="699.0188">- ClusterNotifArg</text><text fill="#000000" font-family="Arial" font-size="11" lengthAdjust="spacing" textLength="121.0698" x="470" y="711.6677">- domainBoundaryStatus</text><text fill="#000000" font-family="Arial" font-size="11" lengthAdjust="spacing" textLength="99.0537" x="470" y="724.3167">- warningPathStatus</text><text fill="#000000" font-family="Arial" font-size="11" lengthAdjust="spacing" textLength="70.9253" x="470" y="736.9656">- failSafeMode</text><rect fill="#FFFFFF" height="3" style="stroke:#FFFFFF;stroke-width:1;" width="977.1155" x="5" y="768.4412"/><line style="stroke:#000000;stroke-width:0.5;" x1="5" x2="982.1155" y1="768.4412" y2="768.4412"/><line style="stroke:#000000;stroke-width:0.5;" x1="5" x2="982.1155" y1="771.4412" y2="771.4412"/><rect fill="#FFFFFF" height="20.6489" style="stroke:#000000;stroke-width:1;" width="109.3477" x="438.8839" y="759.1167"/><text fill="#000000" font-family="Arial" font-size="11" font-weight="bold" lengthAdjust="spacing" textLength="92.2915" x="444.8839" y="773.6145">Runtime Visibility</text><polygon fill="#000000" points="751.9922,817.0635,761.9922,821.0635,751.9922,825.0635,755.9922,821.0635" style="stroke:#000000;stroke-width:1;"/><line style="stroke:#000000;stroke-width:1;" x1="459.5464" x2="757.9922" y1="821.0635" y2="821.0635"/><text fill="#000000" font-family="Arial" font-size="11" lengthAdjust="spacing" textLength="139.4067" x="542.0659" y="804.2634">securitySession / authState /</text><text fill="#000000" font-family="Arial" font-size="11" lengthAdjust="spacing" textLength="138.7622" x="542.3882" y="816.9124">securityFault / securityPolicy</text><path d="M464,834.0635 L464,907.0635 L598,907.0635 L598,844.0635 L588,834.0635 L464,834.0635 " fill="#FFFFFF" style="stroke:#000000;stroke-width:1;"/><path d="M588,834.0635 L588,844.0635 L598,844.0635 L588,834.0635 " fill="#FFFFFF" style="stroke:#000000;stroke-width:1;"/><text fill="#000000" font-family="Arial" font-size="11" lengthAdjust="spacing" textLength="113.126" x="470" y="849.5613">Representative outputs</text><text fill="#000000" font-family="Arial" font-size="11" lengthAdjust="spacing" textLength="83.7515" x="470" y="862.2102">- securitySession</text><text fill="#000000" font-family="Arial" font-size="11" lengthAdjust="spacing" textLength="53.813" x="470" y="874.8591">- authState</text><text fill="#000000" font-family="Arial" font-size="11" lengthAdjust="spacing" textLength="69.0723" x="470" y="887.5081">- securityFault</text><text fill="#000000" font-family="Arial" font-size="11" lengthAdjust="spacing" textLength="73.96" x="470" y="900.157">- securityPolicy</text><rect fill="#FFFFFF" height="3" style="stroke:#FFFFFF;stroke-width:1;" width="977.1155" x="5" y="931.6326"/><line style="stroke:#000000;stroke-width:0.5;" x1="5" x2="982.1155" y1="931.6326" y2="931.6326"/><line style="stroke:#000000;stroke-width:0.5;" x1="5" x2="982.1155" y1="934.6326" y2="934.6326"/><rect fill="#FFFFFF" height="20.6489" style="stroke:#000000;stroke-width:1;" width="131.3638" x="427.8759" y="922.3081"/><text fill="#000000" font-family="Arial" font-size="11" font-weight="bold" lengthAdjust="spacing" textLength="114.3076" x="433.8759" y="936.8059">Downstream Visibility</text><polygon fill="#000000" points="913.5405,980.2549,923.5405,984.2549,913.5405,988.2549,917.5405,984.2549" style="stroke:#000000;stroke-width:1;"/><line style="stroke:#000000;stroke-width:1;" x1="763.9922" x2="919.5405" y1="984.2549" y2="984.2549"/><text fill="#000000" font-family="Arial" font-size="11" lengthAdjust="spacing" textLength="137.5483" x="775.9922" y="967.4548">diagnostic security visibility /</text><text fill="#000000" font-family="Arial" font-size="11" lengthAdjust="spacing" textLength="86.1953" x="801.6687" y="980.1038">service observers</text><path d="M19,997.2549 L19,1070.2549 L977,1070.2549 L977,1007.2549 L967,997.2549 L19,997.2549 " fill="#FFFFFF" style="stroke:#000000;stroke-width:1;"/><path d="M967,997.2549 L967,1007.2549 L977,1007.2549 L967,997.2549 " fill="#FFFFFF" style="stroke:#000000;stroke-width:1;"/><text fill="#000000" font-family="Arial" font-size="11" lengthAdjust="spacing" textLength="143.0752" x="348.9572" y="1012.7527">Representative runtime chain</text><text fill="#000000" font-family="Arial" font-size="11" lengthAdjust="spacing" textLength="239.6851" x="348.9572" y="1025.4016">1. Route, alert, and boundary context reach DCM</text><text fill="#000000" font-family="Arial" font-size="11" lengthAdjust="spacing" textLength="256.1797" x="348.9572" y="1038.0505">2. DCM derives service context and diagnostic stage</text><text fill="#000000" font-family="Arial" font-size="11" lengthAdjust="spacing" textLength="270.2358" x="348.9572" y="1050.6995">3. DCM maps the stage into security session and policy</text><text fill="#000000" font-family="Arial" font-size="11" lengthAdjust="spacing" textLength="289.2012" x="348.9572" y="1063.3484">4. Diagnostic readers observe the effective security posture</text><!--SRC=[bLRTRzCm47_FNt6mbqsi3OD9GvMAr6MBG69ZMX5FVV7IIsejjOFjj8o_dZldOqvMGFIfFj_zxdxtvRno6zmYLAMGAhAFKbN2Y2qyYEonCBfMwqINsi1Hwd-1nXfpKPSkrShT2a9O62dAm_TB-GlXx2oujFYZHfNX3Leh2boKib2GeN9e0Ys3jjBATbgNMEhzmXYz1sTgZ28dNObmoL4AymJtkdO82Jd4dmw-QRXARc29MMsaUw8_ragju4wNCgCZUHGbf0IvKiU6JMDHed7m1XvQn3WNifnOaIDaBUhaeqUr7QfjKOLQG-MHJwA8edSoavLG3bxVYfqiX6Eb5kGr20iafgIUfnVfvL1_uOE8-o06LZtNe-iFwTlqUcXAaQtKMef2QKjIq7k5njjnp6noSVtXXGcOMZb95RHEE6pKi-sI3xxivqaojFdwOD7iq5Y86tTKAB6cixUbMp9Bo5aQHVEvT_rPLRMpC9z74VDkapY3t6pfVAFNTOdUuOqjLef4RR6Q869EbYzkKWfhepu98KvIrfQwvrOxcNkKKB0mnG6hH9l6wsosrblg_qw5XRLdjnT6ILNS2RTfXLneDfpDk3cMr1iKFaOYStB7mH9qnF2z5zzQ2xv6c5EckCj1KHRQrecz0cIUsi3Ij-CNt67vR9Wrh2QAQO4WNWCJBepCi9k1-KgXstmIjcSsk3yEOZiDt9qCGRd4nBxW-0dkYev1fWeydawd9okL6xs5O93YFu_HEEXccBe9dSCPx3UeHcnEL-fT8my2ObqkIS1abCIwAHt-B-pX65FUQSzvyEhVz3AyFUvnJWvZj1je3DA8GsigCeAHnSQ1pdrdtMD5Iv4QGVX-uhsY2f1-lA89_6jo9Z2UYWaSQdqIl-XyaWqw7Ydh7A0VyljsXNoNLZx8aZSZ3tj7lridBsiT1mMYUHkcEHwbxDy98QfjAaQEID8x2cwzd-3S-Xbmkw8rQXsjkEqBUXqluiXhhncLTldsJyJksSWpzCq7kbkYqHe7owCXgUcAYtVAm6EMtSBEDlnedqsRbw-Tu5C_3-FNWrTqjl4EtarzFzB29YpRJKEloDOX3Mx5w7rZinML1VfWQAJKTqx_xIcCpidi6Qfz9Jhg7WZp79lTsEDKf5sReC5-0m00]--></g></svg>