<svg xmlns="http://www.w3.org/2000/svg" xmlns:xlink="http://www.w3.org/1999/xlink" contentStyleType="text/css" height="816px" preserveAspectRatio="none" style="width:1124px;height:816px;background:#FFFFFF;" version="1.1" viewBox="0 0 1124 816" width="1124px" zoomAndPan="magnify"><title>Boundary Stage To DCM Service Response Signal Flow</title><defs/><g><text fill="#000000" font-family="Arial" font-size="22" font-weight="bold" lengthAdjust="spacing" textLength="581.8936" x="269.9429" y="35.9956">Boundary Stage To DCM Service Response Signal Flow</text><text fill="#000000" font-family="Arial" font-size="22" font-weight="bold" lengthAdjust="spacing" textLength="615.5381" x="253.1206" y="61.2935">(route/boundary context -&gt; DCM diagnostic service seams)</text><line style="stroke:#000000;stroke-width:1;" x1="69" x2="69" y1="116.8936" y2="772.0635"/><line style="stroke:#000000;stroke-width:1;" x1="336.9939" x2="336.9939" y1="116.8936" y2="772.0635"/><line style="stroke:#000000;stroke-width:1;" x1="887.3738" x2="887.3738" y1="116.8936" y2="772.0635"/><line style="stroke:#000000;stroke-width:1;" x1="1053.6455" x2="1053.6455" y1="116.8936" y2="772.0635"/><rect fill="#F4F7FB" height="39.2979" rx="2.5" ry="2.5" style="stroke:#000000;stroke-width:1;" width="98.3906" x="20" y="76.5957"/><text fill="#000000" font-family="Arial" font-size="11" lengthAdjust="spacing" textLength="59.2969" x="39.5469" y="94.0935">NAV / alert /</text><text fill="#000000" font-family="Arial" font-size="11" lengthAdjust="spacing" textLength="84.3906" x="27" y="106.7424">boundary context</text><rect fill="#F4F7FB" height="39.2979" rx="2.5" ry="2.5" style="stroke:#000000;stroke-width:1;" width="98.3906" x="20" y="771.0635"/><text fill="#000000" font-family="Arial" font-size="11" lengthAdjust="spacing" textLength="59.2969" x="39.5469" y="788.5613">NAV / alert /</text><text fill="#000000" font-family="Arial" font-size="11" lengthAdjust="spacing" textLength="84.3906" x="27" y="801.2102">boundary context</text><rect fill="#E8F7E8" height="39.2979" rx="2.5" ry="2.5" style="stroke:#000000;stroke-width:1;" width="173.5806" x="250.9939" y="76.5957"/><text fill="#000000" font-family="Arial" font-size="11" lengthAdjust="spacing" textLength="25.0508" x="325.2588" y="94.0935">DCM</text><text fill="#000000" font-family="Arial" font-size="11" lengthAdjust="spacing" textLength="159.5806" x="257.9939" y="106.7424">diagnostic communication owner</text><rect fill="#E8F7E8" height="39.2979" rx="2.5" ry="2.5" style="stroke:#000000;stroke-width:1;" width="173.5806" x="250.9939" y="771.0635"/><text fill="#000000" font-family="Arial" font-size="11" lengthAdjust="spacing" textLength="25.0508" x="325.2588" y="788.5613">DCM</text><text fill="#000000" font-family="Arial" font-size="11" lengthAdjust="spacing" textLength="159.5806" x="257.9939" y="801.2102">diagnostic communication owner</text><rect fill="#FFF4CC" height="26.6489" rx="2.5" ry="2.5" style="stroke:#000000;stroke-width:1;" width="109.9761" x="833.3738" y="89.2446"/><text fill="#000000" font-family="Arial" font-size="11" lengthAdjust="spacing" textLength="95.9761" x="840.3738" y="106.7424">Diag service seams</text><rect fill="#FFF4CC" height="26.6489" rx="2.5" ry="2.5" style="stroke:#000000;stroke-width:1;" width="109.9761" x="833.3738" y="771.0635"/><text fill="#000000" font-family="Arial" font-size="11" lengthAdjust="spacing" textLength="95.9761" x="840.3738" y="788.5613">Diag service seams</text><rect fill="#E8F0FE" height="26.6489" rx="2.5" ry="2.5" style="stroke:#000000;stroke-width:1;" width="97.1338" x="1005.6455" y="89.2446"/><text fill="#000000" font-family="Arial" font-size="11" lengthAdjust="spacing" textLength="83.1338" x="1012.6455" y="106.7424">Observers / tests</text><rect fill="#E8F0FE" height="26.6489" rx="2.5" ry="2.5" style="stroke:#000000;stroke-width:1;" width="97.1338" x="1005.6455" y="771.0635"/><text fill="#000000" font-family="Arial" font-size="11" lengthAdjust="spacing" textLength="83.1338" x="1012.6455" y="788.5613">Observers / tests</text><rect fill="#FFFFFF" height="3" style="stroke:#FFFFFF;stroke-width:1;" width="1112.7793" x="5" y="146.218"/><line style="stroke:#000000;stroke-width:0.5;" x1="5" x2="1117.7793" y1="146.218" y2="146.218"/><line style="stroke:#000000;stroke-width:0.5;" x1="5" x2="1117.7793" y1="149.218" y2="149.218"/><rect fill="#FFFFFF" height="20.6489" style="stroke:#000000;stroke-width:1;" width="109.3369" x="506.7212" y="136.8936"/><text fill="#000000" font-family="Arial" font-size="11" font-weight="bold" lengthAdjust="spacing" textLength="92.2808" x="512.7212" y="151.3914">Diagnostic Inputs</text><polygon fill="#000000" points="325.7842,194.8403,335.7842,198.8403,325.7842,202.8403,329.7842,198.8403" style="stroke:#000000;stroke-width:1;"/><line style="stroke:#000000;stroke-width:1;" x1="69.1953" x2="331.7842" y1="198.8403" y2="198.8403"/><text fill="#000000" font-family="Arial" font-size="11" lengthAdjust="spacing" textLength="111.8906" x="147.5444" y="182.0403">routeActive / alertLevel</text><text fill="#000000" font-family="Arial" font-size="11" lengthAdjust="spacing" textLength="244.5889" x="81.1953" y="194.6892">boundaryAlive / warningPathStatus / failSafeMode</text><line style="stroke:#000000;stroke-width:1;" x1="337.7842" x2="379.7842" y1="225.4893" y2="225.4893"/><line style="stroke:#000000;stroke-width:1;" x1="379.7842" x2="379.7842" y1="225.4893" y2="238.4893"/><line style="stroke:#000000;stroke-width:1;" x1="338.7842" x2="379.7842" y1="238.4893" y2="238.4893"/><polygon fill="#000000" points="348.7842,234.4893,338.7842,238.4893,348.7842,242.4893,344.7842,238.4893" style="stroke:#000000;stroke-width:1;"/><text fill="#000000" font-family="Arial" font-size="11" lengthAdjust="spacing" textLength="357.978" x="344.7842" y="221.3381">serviceContext = ethHasBoundaryServiceContext(routeActive, alertLevel)</text><line style="stroke:#000000;stroke-width:1;" x1="337.7842" x2="379.7842" y1="265.1382" y2="265.1382"/><line style="stroke:#000000;stroke-width:1;" x1="379.7842" x2="379.7842" y1="265.1382" y2="278.1382"/><line style="stroke:#000000;stroke-width:1;" x1="338.7842" x2="379.7842" y1="278.1382" y2="278.1382"/><polygon fill="#000000" points="348.7842,274.1382,338.7842,278.1382,348.7842,282.1382,344.7842,278.1382" style="stroke:#000000;stroke-width:1;"/><text fill="#000000" font-family="Arial" font-size="11" lengthAdjust="spacing" textLength="536.5776" x="344.7842" y="260.9871">diagStage = ethDiagBoundaryStage(routeActive, alertLevel, boundaryAlive, warningPathStatus, failSafeMode)</text><line style="stroke:#000000;stroke-width:1;" x1="337.7842" x2="379.7842" y1="304.7871" y2="304.7871"/><line style="stroke:#000000;stroke-width:1;" x1="379.7842" x2="379.7842" y1="304.7871" y2="317.7871"/><line style="stroke:#000000;stroke-width:1;" x1="338.7842" x2="379.7842" y1="317.7871" y2="317.7871"/><polygon fill="#000000" points="348.7842,313.7871,338.7842,317.7871,348.7842,321.7871,344.7842,317.7871" style="stroke:#000000;stroke-width:1;"/><text fill="#000000" font-family="Arial" font-size="11" lengthAdjust="spacing" textLength="347.3003" x="344.7842" y="300.636">securitySession and authState derived from serviceContext / diagStage</text><path d="M342,330.7871 L342,415.7871 L502,415.7871 L502,340.7871 L492,330.7871 L342,330.7871 " fill="#FFFFFF" style="stroke:#000000;stroke-width:1;"/><path d="M492,330.7871 L492,340.7871 L502,340.7871 L492,330.7871 " fill="#FFFFFF" style="stroke:#000000;stroke-width:1;"/><text fill="#000000" font-family="Arial" font-size="11" lengthAdjust="spacing" textLength="139.4229" x="348" y="346.2849">Representative gating inputs</text><text fill="#000000" font-family="Arial" font-size="11" lengthAdjust="spacing" textLength="61.7461" x="348" y="358.9338">- routeActive</text><text fill="#000000" font-family="Arial" font-size="11" lengthAdjust="spacing" textLength="54.4146" x="348" y="371.5828">- alertLevel</text><text fill="#000000" font-family="Arial" font-size="11" lengthAdjust="spacing" textLength="76.4307" x="348" y="384.2317">- boundaryAlive</text><text fill="#000000" font-family="Arial" font-size="11" lengthAdjust="spacing" textLength="99.0537" x="348" y="396.8806">- warningPathStatus</text><text fill="#000000" font-family="Arial" font-size="11" lengthAdjust="spacing" textLength="70.9253" x="348" y="409.5295">- failSafeMode</text><rect fill="#FFFFFF" height="3" style="stroke:#FFFFFF;stroke-width:1;" width="1112.7793" x="5" y="441.0051"/><line style="stroke:#000000;stroke-width:0.5;" x1="5" x2="1117.7793" y1="441.0051" y2="441.0051"/><line style="stroke:#000000;stroke-width:0.5;" x1="5" x2="1117.7793" y1="444.0051" y2="444.0051"/><rect fill="#FFFFFF" height="20.6489" style="stroke:#000000;stroke-width:1;" width="130.7783" x="496.0005" y="431.6807"/><text fill="#000000" font-family="Arial" font-size="11" font-weight="bold" lengthAdjust="spacing" textLength="113.7222" x="502.0005" y="446.1785">Service-seam Publish</text><polygon fill="#000000" points="876.3618,476.9785,886.3618,480.9785,876.3618,484.9785,880.3618,480.9785" style="stroke:#000000;stroke-width:1;"/><line style="stroke:#000000;stroke-width:1;" x1="337.7842" x2="882.3618" y1="480.9785" y2="480.9785"/><text fill="#000000" font-family="Arial" font-size="11" lengthAdjust="spacing" textLength="245.1958" x="490.4751" y="476.8274">Diag::ServiceState / ResponseKind / ReasonCode</text><polygon fill="#000000" points="876.3618,503.6274,886.3618,507.6274,876.3618,511.6274,880.3618,507.6274" style="stroke:#000000;stroke-width:1;"/><line style="stroke:#000000;stroke-width:1;" x1="337.7842" x2="882.3618" y1="507.6274" y2="507.6274"/><text fill="#000000" font-family="Arial" font-size="11" lengthAdjust="spacing" textLength="291.6128" x="467.2666" y="503.4763">request/response trace sysvars via publishDcmStateTrace()</text><path d="M342,520.6274 L342,593.6274 L520,593.6274 L520,530.6274 L510,520.6274 L342,520.6274 " fill="#FFFFFF" style="stroke:#000000;stroke-width:1;"/><path d="M510,520.6274 L510,530.6274 L520,530.6274 L510,520.6274 " fill="#FFFFFF" style="stroke:#000000;stroke-width:1;"/><text fill="#000000" font-family="Arial" font-size="11" lengthAdjust="spacing" textLength="113.126" x="348" y="536.1252">Representative outputs</text><text fill="#000000" font-family="Arial" font-size="11" lengthAdjust="spacing" textLength="69.083" x="348" y="548.7742">- ServiceState</text><text fill="#000000" font-family="Arial" font-size="11" lengthAdjust="spacing" textLength="78.2676" x="348" y="561.4231">- ResponseKind</text><text fill="#000000" font-family="Arial" font-size="11" lengthAdjust="spacing" textLength="70.9307" x="348" y="574.072">- ReasonCode</text><text fill="#000000" font-family="Arial" font-size="11" lengthAdjust="spacing" textLength="157.749" x="348" y="586.7209">- request/response trace context</text><rect fill="#FFFFFF" height="3" style="stroke:#FFFFFF;stroke-width:1;" width="1112.7793" x="5" y="618.1965"/><line style="stroke:#000000;stroke-width:0.5;" x1="5" x2="1117.7793" y1="618.1965" y2="618.1965"/><line style="stroke:#000000;stroke-width:0.5;" x1="5" x2="1117.7793" y1="621.1965" y2="621.1965"/><rect fill="#FFFFFF" height="20.6489" style="stroke:#000000;stroke-width:1;" width="131.3638" x="495.7078" y="608.8721"/><text fill="#000000" font-family="Arial" font-size="11" font-weight="bold" lengthAdjust="spacing" textLength="114.3076" x="501.7078" y="623.3699">Downstream Visibility</text><polygon fill="#000000" points="1042.2124,666.8188,1052.2124,670.8188,1042.2124,674.8188,1046.2124,670.8188" style="stroke:#000000;stroke-width:1;"/><line style="stroke:#000000;stroke-width:1;" x1="888.3618" x2="1048.2124" y1="670.8188" y2="670.8188"/><text fill="#000000" font-family="Arial" font-size="11" lengthAdjust="spacing" textLength="141.8506" x="900.3618" y="654.0188">diagnostic service readback /</text><text fill="#000000" font-family="Arial" font-size="11" lengthAdjust="spacing" textLength="100.2729" x="921.1506" y="666.6677">test verdict evidence</text><path d="M12,683.8188 L12,756.8188 L1109,756.8188 L1109,693.8188 L1099,683.8188 L12,683.8188 " fill="#FFFFFF" style="stroke:#000000;stroke-width:1;"/><path d="M1099,683.8188 L1099,693.8188 L1109,693.8188 L1099,683.8188 " fill="#FFFFFF" style="stroke:#000000;stroke-width:1;"/><text fill="#000000" font-family="Arial" font-size="11" lengthAdjust="spacing" textLength="143.0752" x="381.5176" y="699.3167">Representative runtime chain</text><text fill="#000000" font-family="Arial" font-size="11" lengthAdjust="spacing" textLength="209.1182" x="381.5176" y="711.9656">1. Route and boundary context reach DCM</text><text fill="#000000" font-family="Arial" font-size="11" lengthAdjust="spacing" textLength="267.8135" x="381.5176" y="724.6145">2. DCM derives diagnostic stage and response posture</text><text fill="#000000" font-family="Arial" font-size="11" lengthAdjust="spacing" textLength="257.3936" x="381.5176" y="737.2634">3. DCM publishes service-state and response seams</text><text fill="#000000" font-family="Arial" font-size="11" lengthAdjust="spacing" textLength="349.7441" x="381.5176" y="749.9124">4. Tests and observers consume the effective diagnostic response state</text><!--SRC=[XLLTJzim57tthxY35ogrT6n8e4gTrAP4cxOoH15FlBZ9JMAHs9djjB1Vlsldeqa1hI-jF-xnEUT-z9FDi40eSouaCyz2bbpp0hOyUawrgcGSg5nfE0tzftSZneHNkGsLjBUS41PQyFpzyutuYt1nqJiq-AT26U4QZU4fBdAHIeXGMjIzMnfDgQHfRoqnL_k5rceFLbV8c1KsHrWwbbo_miRI9NXGi0hMi46z4n72VOC16tg2vn0InfCy8saMfzisD2AM-69Xyiq7nuAdKXah8c9QunZaXHanHineMvHSMZYvNJp257YEsiBqIHx3dG0ti2AimBwGWvVXLRWS0j1ZJxBtMgIAef8YubOe2MelKTSWHEhqvZgykha-0g3O8SVkqMLbVDekWs0Oytlh0b0RucxHs3g4TlqJdyCRnkPp3z6m-Y7BoXgOpnbhrJH6pS0RkOYis65hnI_SONvmWvBhp_PSIo7JEsupofIjtFC95_c69xXMCJ87sE4sce8cCND0cttdfatsPd1yrcCnxf4O3J6TqNMHU3XlKeldjZ-26SD0o_YjbF50oUXOIbHfOOcpCIwjNCR0gpeKgKyqOSQGQ5KSgvuUA3EfwB8MQMP19GwPtMD97K9DmxtxANt958HF5flqCqEhWnfQ3EJG-eqUsXka1eco8-0he_5-uieDxgfjBanM5qUZkYc-cVyrcpNtQxdJhYD_2W9rIswK3Fe5qCLhDoQCdRQ3WFgUkpf_DJjEvRiJ7Chw_LLKUFm7T-5iz7-to9p6fpuzMlRf-ML7R_8HdwRTXowjg7kDrSwZHs74LkHK0bqFENqarJNTxBrnGt6ncy5khBWU1UhNM4GMS2TYDpbPBL7HVZjYnWxkMAUkf1KqdgFC3VYBSxXtPU5hyCtqeqUZp9lrvRoUWxuspO2WxnyNtfbGqacbaNsjWvgCK9Xf2yLdVX3ZHnMxF8S7Du3ycUh64l4n5N6cloR09C5wklH8761yqZhV_m40]--></g></svg>