<svg xmlns="http://www.w3.org/2000/svg" xmlns:xlink="http://www.w3.org/1999/xlink" contentStyleType="text/css" height="1140px" preserveAspectRatio="none" style="width:903px;height:1140px;background:#FFFFFF;" version="1.1" viewBox="0 0 903 1140" width="903px" zoomAndPan="magnify"><title>Cabin Air Temp To DATC Defog Vent Mode Signal Flow</title><defs/><g><text fill="#000000" font-family="Arial" font-size="22" font-weight="bold" lengthAdjust="spacing" textLength="576.8877" x="161.5681" y="35.9956">Cabin Air Temp To DATC Defog Vent Mode Signal Flow</text><text fill="#000000" font-family="Arial" font-size="22" font-weight="bold" lengthAdjust="spacing" textLength="781.7305" x="59.1467" y="61.2935">(cabin-air temperature -&gt; DATC local HVAC defog and vent-mode decision)</text><rect fill="#FFFFFF" height="744.4146" style="stroke:#000000;stroke-width:1;" width="10" x="411.8762" y="250.7871"/><line style="stroke:#000000;stroke-width:1;" x1="77" x2="77" y1="116.8936" y2="1096.4463"/><line style="stroke:#000000;stroke-width:1;" x1="213.4922" x2="213.4922" y1="116.8936" y2="1096.4463"/><line style="stroke:#000000;stroke-width:1;" x1="416.0874" x2="416.0874" y1="116.8936" y2="1096.4463"/><line style="stroke:#000000;stroke-width:1;" x1="687.5557" x2="687.5557" y1="116.8936" y2="1096.4463"/><line style="stroke:#000000;stroke-width:1;" x1="831.9971" x2="831.9971" y1="116.8936" y2="1096.4463"/><rect fill="#F4F7FB" height="26.6489" rx="2.5" ry="2.5" style="stroke:#000000;stroke-width:1;" width="115.4922" x="20" y="89.2446"/><text fill="#000000" font-family="Arial" font-size="11" lengthAdjust="spacing" textLength="101.4922" x="27" y="106.7424">Cabin-air sensor bus</text><rect fill="#F4F7FB" height="26.6489" rx="2.5" ry="2.5" style="stroke:#000000;stroke-width:1;" width="115.4922" x="20" y="1095.4463"/><text fill="#000000" font-family="Arial" font-size="11" lengthAdjust="spacing" textLength="101.4922" x="27" y="1112.9441">Cabin-air sensor bus</text><rect fill="#E8F0FE" height="26.6489" rx="2.5" ry="2.5" style="stroke:#000000;stroke-width:1;" width="96.5161" x="165.4922" y="89.2446"/><text fill="#000000" font-family="Arial" font-size="11" lengthAdjust="spacing" textLength="82.5161" x="172.4922" y="106.7424">TMU service bus</text><rect fill="#E8F0FE" height="26.6489" rx="2.5" ry="2.5" style="stroke:#000000;stroke-width:1;" width="96.5161" x="165.4922" y="1095.4463"/><text fill="#000000" font-family="Arial" font-size="11" lengthAdjust="spacing" textLength="82.5161" x="172.4922" y="1112.9441">TMU service bus</text><rect fill="#E8F7E8" height="39.2979" rx="2.5" ry="2.5" style="stroke:#000000;stroke-width:1;" width="77.5776" x="378.0874" y="76.5957"/><text fill="#000000" font-family="Arial" font-size="11" lengthAdjust="spacing" textLength="29.9438" x="401.9043" y="94.0935">DATC</text><text fill="#000000" font-family="Arial" font-size="11" lengthAdjust="spacing" textLength="63.5776" x="385.0874" y="106.7424">HVAC owner</text><rect fill="#E8F7E8" height="39.2979" rx="2.5" ry="2.5" style="stroke:#000000;stroke-width:1;" width="77.5776" x="378.0874" y="1095.4463"/><text fill="#000000" font-family="Arial" font-size="11" lengthAdjust="spacing" textLength="29.9438" x="401.9043" y="1112.9441">DATC</text><text fill="#000000" font-family="Arial" font-size="11" lengthAdjust="spacing" textLength="63.5776" x="385.0874" y="1125.593">HVAC owner</text><rect fill="#FFF4CC" height="26.6489" rx="2.5" ry="2.5" style="stroke:#000000;stroke-width:1;" width="135.0591" x="620.5557" y="89.2446"/><text fill="#000000" font-family="Arial" font-size="11" lengthAdjust="spacing" textLength="121.0591" x="627.5557" y="106.7424">HVAC state/actuator bus</text><rect fill="#FFF4CC" height="26.6489" rx="2.5" ry="2.5" style="stroke:#000000;stroke-width:1;" width="135.0591" x="620.5557" y="1095.4463"/><text fill="#000000" font-family="Arial" font-size="11" lengthAdjust="spacing" textLength="121.0591" x="627.5557" y="1112.9441">HVAC state/actuator bus</text><rect fill="#FCE8FF" height="39.2979" rx="2.5" ry="2.5" style="stroke:#000000;stroke-width:1;" width="91.0269" x="786.9971" y="76.5957"/><text fill="#000000" font-family="Arial" font-size="11" lengthAdjust="spacing" textLength="56.8477" x="804.0867" y="94.0935">Observers /</text><text fill="#000000" font-family="Arial" font-size="11" lengthAdjust="spacing" textLength="77.0269" x="793.9971" y="106.7424">comfort readers</text><rect fill="#FCE8FF" height="39.2979" rx="2.5" ry="2.5" style="stroke:#000000;stroke-width:1;" width="91.0269" x="786.9971" y="1095.4463"/><text fill="#000000" font-family="Arial" font-size="11" lengthAdjust="spacing" textLength="56.8477" x="804.0867" y="1112.9441">Observers /</text><text fill="#000000" font-family="Arial" font-size="11" lengthAdjust="spacing" textLength="77.0269" x="793.9971" y="1125.593">comfort readers</text><rect fill="#FFFFFF" height="744.4146" style="stroke:#000000;stroke-width:1;" width="10" x="411.8762" y="250.7871"/><rect fill="#FFFFFF" height="3" style="stroke:#FFFFFF;stroke-width:1;" width="891.0239" x="5" y="146.218"/><line style="stroke:#000000;stroke-width:0.5;" x1="5" x2="896.0239" y1="146.218" y2="146.218"/><line style="stroke:#000000;stroke-width:0.5;" x1="5" x2="896.0239" y1="149.218" y2="149.218"/><rect fill="#FFFFFF" height="20.6489" style="stroke:#000000;stroke-width:1;" width="83.6577" x="408.6831" y="136.8936"/><text fill="#000000" font-family="Arial" font-size="11" font-weight="bold" lengthAdjust="spacing" textLength="66.6016" x="414.6831" y="151.3914">DATC Inputs</text><polygon fill="#000000" points="404.8762,194.8403,414.8762,198.8403,404.8762,202.8403,408.8762,198.8403" style="stroke:#000000;stroke-width:1;"/><line style="stroke:#000000;stroke-width:1;" x1="77.7461" x2="410.8762" y1="198.8403" y2="198.8403"/><text fill="#000000" font-family="Arial" font-size="11" lengthAdjust="spacing" textLength="104.5322" x="195.045" y="182.0403">frmCabinAirStateMsg</text><text fill="#000000" font-family="Arial" font-size="11" lengthAdjust="spacing" textLength="56.8584" x="218.882" y="194.6892">CabinTemp</text><polygon fill="#000000" points="399.8762,246.7871,409.8762,250.7871,399.8762,254.7871,403.8762,250.7871" style="stroke:#000000;stroke-width:1;"/><line style="stroke:#000000;stroke-width:1;" x1="213.7502" x2="405.8762" y1="250.7871" y2="250.7871"/><text fill="#000000" font-family="Arial" font-size="11" lengthAdjust="spacing" textLength="121.0269" x="252.2998" y="221.3381">frmTmuServiceStateMsg</text><text fill="#000000" font-family="Arial" font-size="11" lengthAdjust="spacing" textLength="179.126" x="223.2502" y="233.9871">RemoteClimateReq / TmuLinkState /</text><text fill="#000000" font-family="Arial" font-size="11" lengthAdjust="spacing" textLength="148.5591" x="238.5337" y="246.636">TmuServiceMode / SignalBars</text><line style="stroke:#000000;stroke-width:1;" x1="421.8762" x2="463.8762" y1="290.085" y2="290.085"/><line style="stroke:#000000;stroke-width:1;" x1="463.8762" x2="463.8762" y1="290.085" y2="303.085"/><line style="stroke:#000000;stroke-width:1;" x1="422.8762" x2="463.8762" y1="303.085" y2="303.085"/><polygon fill="#000000" points="432.8762,299.085,422.8762,303.085,432.8762,307.085,428.8762,303.085" style="stroke:#000000;stroke-width:1;"/><text fill="#000000" font-family="Arial" font-size="11" lengthAdjust="spacing" textLength="98.7583" x="473.0293" y="273.2849">cabinAirInputStale =</text><text fill="#000000" font-family="Arial" font-size="11" lengthAdjust="spacing" textLength="187.0645" x="428.8762" y="285.9338">ethIsRecentTick(gCabinAirRxMs, 300)</text><line style="stroke:#000000;stroke-width:1;" x1="421.8762" x2="463.8762" y1="342.3828" y2="342.3828"/><line style="stroke:#000000;stroke-width:1;" x1="463.8762" x2="463.8762" y1="342.3828" y2="355.3828"/><line style="stroke:#000000;stroke-width:1;" x1="422.8762" x2="463.8762" y1="355.3828" y2="355.3828"/><polygon fill="#000000" points="432.8762,351.3828,422.8762,355.3828,432.8762,359.3828,428.8762,355.3828" style="stroke:#000000;stroke-width:1;"/><text fill="#000000" font-family="Arial" font-size="11" lengthAdjust="spacing" textLength="77.3545" x="491.9785" y="325.5828">tmuInputStale =</text><text fill="#000000" font-family="Arial" font-size="11" lengthAdjust="spacing" textLength="203.5591" x="428.8762" y="338.2317">ethIsRecentTick(gTmuServiceRxMs, 300)</text><line style="stroke:#000000;stroke-width:1;" x1="421.8762" x2="463.8762" y1="394.6807" y2="394.6807"/><line style="stroke:#000000;stroke-width:1;" x1="463.8762" x2="463.8762" y1="394.6807" y2="407.6807"/><line style="stroke:#000000;stroke-width:1;" x1="422.8762" x2="463.8762" y1="407.6807" y2="407.6807"/><polygon fill="#000000" points="432.8762,403.6807,422.8762,407.6807,432.8762,411.6807,428.8762,407.6807" style="stroke:#000000;stroke-width:1;"/><text fill="#000000" font-family="Arial" font-size="11" lengthAdjust="spacing" textLength="101.4976" x="428.8762" y="377.8806">if cabin-air stale then</text><text fill="#000000" font-family="Arial" font-size="11" lengthAdjust="spacing" textLength="81.6299" x="438.8101" y="390.5295">CabinTemp = 24</text><line style="stroke:#000000;stroke-width:1;" x1="421.8762" x2="463.8762" y1="446.9785" y2="446.9785"/><line style="stroke:#000000;stroke-width:1;" x1="463.8762" x2="463.8762" y1="446.9785" y2="459.9785"/><line style="stroke:#000000;stroke-width:1;" x1="422.8762" x2="463.8762" y1="459.9785" y2="459.9785"/><polygon fill="#000000" points="432.8762,455.9785,422.8762,459.9785,432.8762,463.9785,428.8762,459.9785" style="stroke:#000000;stroke-width:1;"/><text fill="#000000" font-family="Arial" font-size="11" lengthAdjust="spacing" textLength="218.8613" x="428.8762" y="430.1785">if TMU remote climate active and link healthy</text><text fill="#000000" font-family="Arial" font-size="11" lengthAdjust="spacing" textLength="116.7783" x="479.9177" y="442.8274">then remote profile wins</text><line style="stroke:#000000;stroke-width:1;" x1="421.8762" x2="463.8762" y1="486.6274" y2="486.6274"/><line style="stroke:#000000;stroke-width:1;" x1="463.8762" x2="463.8762" y1="486.6274" y2="499.6274"/><line style="stroke:#000000;stroke-width:1;" x1="422.8762" x2="463.8762" y1="499.6274" y2="499.6274"/><polygon fill="#000000" points="432.8762,495.6274,422.8762,499.6274,432.8762,503.6274,428.8762,499.6274" style="stroke:#000000;stroke-width:1;"/><text fill="#000000" font-family="Arial" font-size="11" lengthAdjust="spacing" textLength="237.209" x="428.8762" y="482.4763">else derive local HVAC posture from CabinTemp</text><line style="stroke:#000000;stroke-width:1;" x1="421.8762" x2="463.8762" y1="538.9253" y2="538.9253"/><line style="stroke:#000000;stroke-width:1;" x1="463.8762" x2="463.8762" y1="538.9253" y2="551.9253"/><line style="stroke:#000000;stroke-width:1;" x1="422.8762" x2="463.8762" y1="551.9253" y2="551.9253"/><polygon fill="#000000" points="432.8762,547.9253,422.8762,551.9253,432.8762,555.9253,428.8762,551.9253" style="stroke:#000000;stroke-width:1;"/><text fill="#000000" font-family="Arial" font-size="11" lengthAdjust="spacing" textLength="138.1982" x="435.1309" y="522.1252">cold cabin -&gt; DefogMode=1,</text><text fill="#000000" font-family="Arial" font-size="11" lengthAdjust="spacing" textLength="150.7075" x="428.8762" y="534.7742">VentMode=1, warmer set temp</text><line style="stroke:#000000;stroke-width:1;" x1="421.8762" x2="463.8762" y1="591.2231" y2="591.2231"/><line style="stroke:#000000;stroke-width:1;" x1="463.8762" x2="463.8762" y1="591.2231" y2="604.2231"/><line style="stroke:#000000;stroke-width:1;" x1="422.8762" x2="463.8762" y1="604.2231" y2="604.2231"/><polygon fill="#000000" points="432.8762,600.2231,422.8762,604.2231,432.8762,608.2231,428.8762,604.2231" style="stroke:#000000;stroke-width:1;"/><text fill="#000000" font-family="Arial" font-size="11" lengthAdjust="spacing" textLength="94.4722" x="449.0581" y="574.4231">hot cabin -&gt; AC on,</text><text fill="#000000" font-family="Arial" font-size="11" lengthAdjust="spacing" textLength="134.8359" x="428.8762" y="587.072">VentMode=2, higher blower</text><path d="M426,617.2231 L426,702.2231 L586,702.2231 L586,627.2231 L576,617.2231 L426,617.2231 " fill="#FFFFFF" style="stroke:#000000;stroke-width:1;"/><path d="M576,617.2231 L576,627.2231 L586,627.2231 L576,617.2231 " fill="#FFFFFF" style="stroke:#000000;stroke-width:1;"/><text fill="#000000" font-family="Arial" font-size="11" lengthAdjust="spacing" textLength="139.4229" x="432" y="632.7209">Representative gating inputs</text><text fill="#000000" font-family="Arial" font-size="11" lengthAdjust="spacing" textLength="63.5776" x="432" y="645.3699">- CabinTemp</text><text fill="#000000" font-family="Arial" font-size="11" lengthAdjust="spacing" textLength="102.7007" x="432" y="658.0188">- RemoteClimateReq</text><text fill="#000000" font-family="Arial" font-size="11" lengthAdjust="spacing" textLength="74.583" x="432" y="670.6677">- TmuLinkState</text><text fill="#000000" font-family="Arial" font-size="11" lengthAdjust="spacing" textLength="92.9146" x="432" y="683.3167">- TmuServiceMode</text><text fill="#000000" font-family="Arial" font-size="11" lengthAdjust="spacing" textLength="59.9146" x="432" y="695.9656">- SignalBars</text><rect fill="#FFFFFF" height="3" style="stroke:#FFFFFF;stroke-width:1;" width="891.0239" x="5" y="727.4412"/><line style="stroke:#000000;stroke-width:0.5;" x1="5" x2="896.0239" y1="727.4412" y2="727.4412"/><line style="stroke:#000000;stroke-width:0.5;" x1="5" x2="896.0239" y1="730.4412" y2="730.4412"/><rect fill="#FFFFFF" height="20.6489" style="stroke:#000000;stroke-width:1;" width="90.3877" x="405.3181" y="718.1167"/><text fill="#000000" font-family="Arial" font-size="11" font-weight="bold" lengthAdjust="spacing" textLength="73.3315" x="411.3181" y="732.6145">DATC Publish</text><polygon fill="#000000" points="676.0852,776.0635,686.0852,780.0635,676.0852,784.0635,680.0852,780.0635" style="stroke:#000000;stroke-width:1;"/><line style="stroke:#000000;stroke-width:1;" x1="421.8762" x2="682.0852" y1="780.0635" y2="780.0635"/><text fill="#000000" font-family="Arial" font-size="11" lengthAdjust="spacing" textLength="87.4092" x="511.2761" y="763.2634">frmHvacStateMsg</text><text fill="#000000" font-family="Arial" font-size="11" lengthAdjust="spacing" textLength="239.0405" x="435.4604" y="775.9124">CabinSetTemp / BlowerLevel / AcCompressorOn</text><polygon fill="#000000" points="676.0852,815.3613,686.0852,819.3613,676.0852,823.3613,680.0852,819.3613" style="stroke:#000000;stroke-width:1;"/><line style="stroke:#000000;stroke-width:1;" x1="421.8762" x2="682.0852" y1="819.3613" y2="819.3613"/><text fill="#000000" font-family="Arial" font-size="11" lengthAdjust="spacing" textLength="102.6899" x="503.6357" y="802.5613">frmHvacActuatorMsg</text><text fill="#000000" font-family="Arial" font-size="11" lengthAdjust="spacing" textLength="190.1582" x="459.9016" y="815.2102">VentMode / DefogMode / FanRpmStep</text><path d="M426,832.3613 L426,917.3613 L560,917.3613 L560,842.3613 L550,832.3613 L426,832.3613 " fill="#FFFFFF" style="stroke:#000000;stroke-width:1;"/><path d="M550,832.3613 L550,842.3613 L560,842.3613 L550,832.3613 " fill="#FFFFFF" style="stroke:#000000;stroke-width:1;"/><text fill="#000000" font-family="Arial" font-size="11" lengthAdjust="spacing" textLength="113.126" x="432" y="847.8591">Representative outputs</text><text fill="#000000" font-family="Arial" font-size="11" lengthAdjust="spacing" textLength="80.0884" x="432" y="860.5081">- CabinSetTemp</text><text fill="#000000" font-family="Arial" font-size="11" lengthAdjust="spacing" textLength="66.6392" x="432" y="873.157">- BlowerLevel</text><text fill="#000000" font-family="Arial" font-size="11" lengthAdjust="spacing" textLength="56.8638" x="432" y="885.8059">- VentMode</text><text fill="#000000" font-family="Arial" font-size="11" lengthAdjust="spacing" textLength="63.5884" x="432" y="898.4548">- DefogMode</text><text fill="#000000" font-family="Arial" font-size="11" lengthAdjust="spacing" textLength="71.5269" x="432" y="911.1038">- FanRpmStep</text><rect fill="#FFFFFF" height="3" style="stroke:#FFFFFF;stroke-width:1;" width="891.0239" x="5" y="942.5793"/><line style="stroke:#000000;stroke-width:0.5;" x1="5" x2="896.0239" y1="942.5793" y2="942.5793"/><line style="stroke:#000000;stroke-width:0.5;" x1="5" x2="896.0239" y1="945.5793" y2="945.5793"/><rect fill="#FFFFFF" height="20.6489" style="stroke:#000000;stroke-width:1;" width="131.3638" x="384.8301" y="933.2549"/><text fill="#000000" font-family="Arial" font-size="11" font-weight="bold" lengthAdjust="spacing" textLength="114.3076" x="390.8301" y="947.7527">Downstream Visibility</text><polygon fill="#000000" points="820.5105,991.2017,830.5105,995.2017,820.5105,999.2017,824.5105,995.2017" style="stroke:#000000;stroke-width:1;"/><line style="stroke:#000000;stroke-width:1;" x1="688.0852" x2="826.5105" y1="995.2017" y2="995.2017"/><text fill="#000000" font-family="Arial" font-size="11" lengthAdjust="spacing" textLength="120.4253" x="700.0852" y="978.4016">HVAC actuator visibility /</text><text fill="#000000" font-family="Arial" font-size="11" lengthAdjust="spacing" textLength="88.0269" x="716.2844" y="991.0505">comfort observers</text><path d="M18,1008.2017 L18,1081.2017 L891,1081.2017 L891,1018.2017 L881,1008.2017 L18,1008.2017 " fill="#FFFFFF" style="stroke:#000000;stroke-width:1;"/><path d="M881,1008.2017 L881,1018.2017 L891,1018.2017 L881,1008.2017 " fill="#FFFFFF" style="stroke:#000000;stroke-width:1;"/><text fill="#000000" font-family="Arial" font-size="11" lengthAdjust="spacing" textLength="143.0752" x="296.259" y="1023.6995">Representative runtime chain</text><text fill="#000000" font-family="Arial" font-size="11" lengthAdjust="spacing" textLength="307.5059" x="296.259" y="1036.3484">1. Cabin-air temperature and TMU service context reach DATC</text><text fill="#000000" font-family="Arial" font-size="11" lengthAdjust="spacing" textLength="296.5166" x="296.259" y="1048.9973">2. DATC checks source freshness and remote-climate gating</text><text fill="#000000" font-family="Arial" font-size="11" lengthAdjust="spacing" textLength="248.2305" x="296.259" y="1061.6462">3. DATC derives local defog / vent / blower posture</text><text fill="#000000" font-family="Arial" font-size="11" lengthAdjust="spacing" textLength="255.5781" x="296.259" y="1074.2952">4. DATC publishes HVAC state and actuator outputs</text><!--SRC=[ZLLTRzem57tFhxXRNpQfZ7v9hIen2R96grIs2LYVU37cabWuTcOxqEtNxzfEI42jDbv8d7FF_JpNxro19K8bcL29tGfLCSDAM36-pOskrJhLKXiuoyAlXrZZXjNIPLgvRumOnaOm-VhtkVY3S7dP-sZnLusAunIjPJcEfSWLS5GEJGzbq5PQsHOrGQdtOsFq7fofCKcSS18XPIkXO2mCBB2iOA7XotYHmXVSw1oUYHEcUeqm9nTCGaOSI_M1UwC18oD7HcYOgmt2u7EqbPeJzElpEFLf40rJQzWHrQ3qL6lamWgjFYO91Ue45nKZD-_J0wb5PQbggzg-1sQR4C-oc-mscnpRBAO_2MrsWkC1xi_E7kwoY-pX6Eo3MweGbzuhD04T8lRmsuUxOtW0MiSS3XbtDNEzaBxk69_KDZJs9asF3R-lV4XeB0oNYkjoeusZRh0r7GLh0f1bIawp91cDOWoFgggTXT4eIMB2RJdlOMFAS4HTcljufZPVgd3YUvRuX8_0YxAUnw9qy1cMsc4gHKadC_m5Go3Oar3RWF6XTcQXvSEcwHDcR48L43kFyrwIuAfpoPlWGWf4HsCrMYfqnQETeP_BXU3R3tcRm-nbQi_X-kBYuocHA-j_S7GnliqYDj0Dg0rK95FLAncCuEhc5JDVIHCA1JnM2aBY64POKh6WG2PTyNkfF6KBhepU27Ap5ygUqgAqVkQDP-afez8sY6PZT0bTBqyhg-Kw9XCElPfyRqQNvqlbnTcym9wP4hrmN53aAKsXNSVYnr_rxQ_EeH1vGVOhaZVj4ELpCdJaG6zYnsTOqJuX2nRAaTEVoa64cKq6lGG6S3ffTDIVjFZQ6pGww0qQKg6z_quOF-gL5BO8ocZpQlKNnjs_dEXYZYxqUGYJaD8Jxb3IsvYdklIPq7xvhjwc6pU23unjeSZ-q05wpfYQLUNSOVKV1TErwvUgYOzUU_7HM-kA7W-kwBddwhW-jCUiezLImZFjr9MGmlqEXMepekJyjhcFGtVOOxiEtTjHkbrSoHgF1HyprFGjnd_kMKzpDBLoWkuoNlZRyF8JfAzU4rvA_RtDwOx3bx0XUH7TNNsAhUS5ygq5gsl3lLJG5efw5oYYz0QjJkD49jUDPHISRHGNhw5Xk8JeBuvvAy7afh6fug2HLRVwWwj3sTek7fhm5m00]--></g></svg>