<svg xmlns="http://www.w3.org/2000/svg" xmlns:xlink="http://www.w3.org/1999/xlink" contentStyleType="text/css" height="1102px" preserveAspectRatio="none" style="width:1034px;height:1102px;background:#FFFFFF;" version="1.1" viewBox="0 0 1034 1102" width="1034px" zoomAndPan="magnify"><title>Child Lock And Access Auth To Door RR Unlock Gate Signal Flow</title><defs/><g><text fill="#000000" font-family="Arial" font-size="22" font-weight="bold" lengthAdjust="spacing" textLength="691.8398" x="169.6844" y="35.9956">Child Lock And Access Auth To Door RR Unlock Gate Signal Flow</text><text fill="#000000" font-family="Arial" font-size="22" font-weight="bold" lengthAdjust="spacing" textLength="785.415" x="122.8969" y="61.2935">(door control + child-lock + access authorization -&gt; DOOR_RR unlock gate)</text><rect fill="#FFFFFF" height="640.1699" style="stroke:#000000;stroke-width:1;" width="10" x="514.9099" y="316.7339"/><line style="stroke:#000000;stroke-width:1;" x1="67" x2="67" y1="116.8936" y2="1058.1484"/><line style="stroke:#000000;stroke-width:1;" x1="193.313" x2="193.313" y1="116.8936" y2="1058.1484"/><line style="stroke:#000000;stroke-width:1;" x1="324.0859" x2="324.0859" y1="116.8936" y2="1058.1484"/><line style="stroke:#000000;stroke-width:1;" x1="519.5542" x2="519.5542" y1="116.8936" y2="1058.1484"/><line style="stroke:#000000;stroke-width:1;" x1="832.9451" x2="832.9451" y1="116.8936" y2="1058.1484"/><line style="stroke:#000000;stroke-width:1;" x1="972.0027" x2="972.0027" y1="116.8936" y2="1058.1484"/><rect fill="#F4F7FB" height="26.6489" rx="2.5" ry="2.5" style="stroke:#000000;stroke-width:1;" width="95.313" x="20" y="89.2446"/><text fill="#000000" font-family="Arial" font-size="11" lengthAdjust="spacing" textLength="81.313" x="27" y="106.7424">Door-control bus</text><rect fill="#F4F7FB" height="26.6489" rx="2.5" ry="2.5" style="stroke:#000000;stroke-width:1;" width="95.313" x="20" y="1057.1484"/><text fill="#000000" font-family="Arial" font-size="11" lengthAdjust="spacing" textLength="81.313" x="27" y="1074.6462">Door-control bus</text><rect fill="#E8F0FE" height="26.6489" rx="2.5" ry="2.5" style="stroke:#000000;stroke-width:1;" width="97.7729" x="145.313" y="89.2446"/><text fill="#000000" font-family="Arial" font-size="11" lengthAdjust="spacing" textLength="83.7729" x="152.313" y="106.7424">Vehicle state bus</text><rect fill="#E8F0FE" height="26.6489" rx="2.5" ry="2.5" style="stroke:#000000;stroke-width:1;" width="97.7729" x="145.313" y="1057.1484"/><text fill="#000000" font-family="Arial" font-size="11" lengthAdjust="spacing" textLength="83.7729" x="152.313" y="1074.6462">Vehicle state bus</text><rect fill="#FCE8FF" height="39.2979" rx="2.5" ry="2.5" style="stroke:#000000;stroke-width:1;" width="102.0269" x="273.0859" y="76.5957"/><text fill="#000000" font-family="Arial" font-size="11" lengthAdjust="spacing" textLength="57.46" x="295.3694" y="94.0935">Digital-key /</text><text fill="#000000" font-family="Arial" font-size="11" lengthAdjust="spacing" textLength="88.0269" x="280.0859" y="106.7424">immobilizer buses</text><rect fill="#FCE8FF" height="39.2979" rx="2.5" ry="2.5" style="stroke:#000000;stroke-width:1;" width="102.0269" x="273.0859" y="1057.1484"/><text fill="#000000" font-family="Arial" font-size="11" lengthAdjust="spacing" textLength="57.46" x="295.3694" y="1074.6462">Digital-key /</text><text fill="#000000" font-family="Arial" font-size="11" lengthAdjust="spacing" textLength="88.0269" x="280.0859" y="1087.2952">immobilizer buses</text><rect fill="#E8F7E8" height="39.2979" rx="2.5" ry="2.5" style="stroke:#000000;stroke-width:1;" width="116.7114" x="461.5542" y="76.5957"/><text fill="#000000" font-family="Arial" font-size="11" lengthAdjust="spacing" textLength="55.0054" x="492.4072" y="94.0935">DOOR_RR</text><text fill="#000000" font-family="Arial" font-size="11" lengthAdjust="spacing" textLength="102.7114" x="468.5542" y="106.7424">rear-right door owner</text><rect fill="#E8F7E8" height="39.2979" rx="2.5" ry="2.5" style="stroke:#000000;stroke-width:1;" width="116.7114" x="461.5542" y="1057.1484"/><text fill="#000000" font-family="Arial" font-size="11" lengthAdjust="spacing" textLength="55.0054" x="492.4072" y="1074.6462">DOOR_RR</text><text fill="#000000" font-family="Arial" font-size="11" lengthAdjust="spacing" textLength="102.7114" x="468.5542" y="1087.2952">rear-right door owner</text><rect fill="#FFF4CC" height="26.6489" rx="2.5" ry="2.5" style="stroke:#000000;stroke-width:1;" width="104.4814" x="780.9451" y="89.2446"/><text fill="#000000" font-family="Arial" font-size="11" lengthAdjust="spacing" textLength="90.4814" x="787.9451" y="106.7424">Door RR state bus</text><rect fill="#FFF4CC" height="26.6489" rx="2.5" ry="2.5" style="stroke:#000000;stroke-width:1;" width="104.4814" x="780.9451" y="1057.1484"/><text fill="#000000" font-family="Arial" font-size="11" lengthAdjust="spacing" textLength="90.4814" x="787.9451" y="1074.6462">Door RR state bus</text><rect fill="#FFF4CC" height="39.2979" rx="2.5" ry="2.5" style="stroke:#000000;stroke-width:1;" width="78.2061" x="933.0027" y="76.5957"/><text fill="#000000" font-family="Arial" font-size="11" lengthAdjust="spacing" textLength="56.8477" x="943.6819" y="94.0935">Observers /</text><text fill="#000000" font-family="Arial" font-size="11" lengthAdjust="spacing" textLength="64.2061" x="940.0027" y="106.7424">body readers</text><rect fill="#FFF4CC" height="39.2979" rx="2.5" ry="2.5" style="stroke:#000000;stroke-width:1;" width="78.2061" x="933.0027" y="1057.1484"/><text fill="#000000" font-family="Arial" font-size="11" lengthAdjust="spacing" textLength="56.8477" x="943.6819" y="1074.6462">Observers /</text><text fill="#000000" font-family="Arial" font-size="11" lengthAdjust="spacing" textLength="64.2061" x="940.0027" y="1087.2952">body readers</text><rect fill="#FFFFFF" height="640.1699" style="stroke:#000000;stroke-width:1;" width="10" x="514.9099" y="316.7339"/><rect fill="#FFFFFF" height="3" style="stroke:#FFFFFF;stroke-width:1;" width="1022.2087" x="5" y="146.218"/><line style="stroke:#000000;stroke-width:0.5;" x1="5" x2="1027.2087" y1="146.218" y2="146.218"/><line style="stroke:#000000;stroke-width:0.5;" x1="5" x2="1027.2087" y1="149.218" y2="149.218"/><rect fill="#FFFFFF" height="20.6489" style="stroke:#000000;stroke-width:1;" width="97.7139" x="467.2474" y="136.8936"/><text fill="#000000" font-family="Arial" font-size="11" font-weight="bold" lengthAdjust="spacing" textLength="80.6577" x="473.2474" y="151.3914">Door RR Inputs</text><polygon fill="#000000" points="507.9099,194.8403,517.9099,198.8403,507.9099,202.8403,511.9099,198.8403" style="stroke:#000000;stroke-width:1;"/><line style="stroke:#000000;stroke-width:1;" x1="67.6565" x2="513.9099" y1="198.8403" y2="198.8403"/><text fill="#000000" font-family="Arial" font-size="11" lengthAdjust="spacing" textLength="95.9653" x="245.8005" y="182.0403">frmDoorControlMsg</text><text fill="#000000" font-family="Arial" font-size="11" lengthAdjust="spacing" textLength="163.2222" x="212.1721" y="194.6892">DoorControlCmd / ChildLockCmd</text><polygon fill="#000000" points="507.9099,234.1382,517.9099,238.1382,507.9099,242.1382,511.9099,238.1382" style="stroke:#000000;stroke-width:1;"/><line style="stroke:#000000;stroke-width:1;" x1="194.1995" x2="513.9099" y1="238.1382" y2="238.1382"/><text fill="#000000" font-family="Arial" font-size="11" lengthAdjust="spacing" textLength="118.6045" x="297.7524" y="221.3381">frmVehicleStateCanMsg</text><text fill="#000000" font-family="Arial" font-size="11" lengthAdjust="spacing" textLength="57.4707" x="328.3193" y="233.9871">gDriveState</text><polygon fill="#000000" points="507.9099,273.436,517.9099,277.436,507.9099,281.436,511.9099,277.436" style="stroke:#000000;stroke-width:1;"/><line style="stroke:#000000;stroke-width:1;" x1="324.0994" x2="513.9099" y1="277.436" y2="277.436"/><text fill="#000000" font-family="Arial" font-size="11" lengthAdjust="spacing" textLength="111.8691" x="366.0701" y="260.636">frmDigitalKeyStateMsg</text><text fill="#000000" font-family="Arial" font-size="11" lengthAdjust="spacing" textLength="171.8105" x="336.0994" y="273.2849">VehicleAccessState / KeyPresence</text><polygon fill="#000000" points="502.9099,312.7339,512.9099,316.7339,502.9099,320.7339,506.9099,316.7339" style="stroke:#000000;stroke-width:1;"/><line style="stroke:#000000;stroke-width:1;" x1="324.0994" x2="508.9099" y1="316.7339" y2="316.7339"/><text fill="#000000" font-family="Arial" font-size="11" lengthAdjust="spacing" textLength="118.5776" x="360.2158" y="299.9338">frmImmobilizerStateMsg</text><text fill="#000000" font-family="Arial" font-size="11" lengthAdjust="spacing" textLength="158.3506" x="340.3293" y="312.5828">ImmobilizerState / KeyAuthState</text><line style="stroke:#000000;stroke-width:1;" x1="524.9099" x2="566.9099" y1="356.0317" y2="356.0317"/><line style="stroke:#000000;stroke-width:1;" x1="566.9099" x2="566.9099" y1="356.0317" y2="369.0317"/><line style="stroke:#000000;stroke-width:1;" x1="525.9099" x2="566.9099" y1="369.0317" y2="369.0317"/><polygon fill="#000000" points="535.9099,365.0317,525.9099,369.0317,535.9099,373.0317,531.9099,369.0317" style="stroke:#000000;stroke-width:1;"/><text fill="#000000" font-family="Arial" font-size="11" lengthAdjust="spacing" textLength="100.8745" x="561.8672" y="339.2317">freshness checks for</text><text fill="#000000" font-family="Arial" font-size="11" lengthAdjust="spacing" textLength="160.7891" x="531.9099" y="351.8806">door control, vehicle, dkey, immo</text><line style="stroke:#000000;stroke-width:1;" x1="524.9099" x2="566.9099" y1="408.3296" y2="408.3296"/><line style="stroke:#000000;stroke-width:1;" x1="566.9099" x2="566.9099" y1="408.3296" y2="421.3296"/><line style="stroke:#000000;stroke-width:1;" x1="525.9099" x2="566.9099" y1="421.3296" y2="421.3296"/><polygon fill="#000000" points="535.9099,417.3296,525.9099,421.3296,535.9099,425.3296,531.9099,421.3296" style="stroke:#000000;stroke-width:1;"/><text fill="#000000" font-family="Arial" font-size="11" lengthAdjust="spacing" textLength="97.2168" x="552.0811" y="391.5295">manualMode allows</text><text fill="#000000" font-family="Arial" font-size="11" lengthAdjust="spacing" textLength="137.5591" x="531.9099" y="404.1785">Chassis::driveState override</text><line style="stroke:#000000;stroke-width:1;" x1="524.9099" x2="566.9099" y1="460.6274" y2="460.6274"/><line style="stroke:#000000;stroke-width:1;" x1="566.9099" x2="566.9099" y1="460.6274" y2="473.6274"/><line style="stroke:#000000;stroke-width:1;" x1="525.9099" x2="566.9099" y1="473.6274" y2="473.6274"/><polygon fill="#000000" points="535.9099,469.6274,525.9099,473.6274,535.9099,477.6274,531.9099,473.6274" style="stroke:#000000;stroke-width:1;"/><text fill="#000000" font-family="Arial" font-size="11" lengthAdjust="spacing" textLength="96.3037" x="583.1179" y="443.8274">accessAuthorized =</text><text fill="#000000" font-family="Arial" font-size="11" lengthAdjust="spacing" textLength="198.7197" x="531.9099" y="456.4763">vehicle parked and dkey/immo auth valid</text><line style="stroke:#000000;stroke-width:1;" x1="524.9099" x2="566.9099" y1="512.9253" y2="512.9253"/><line style="stroke:#000000;stroke-width:1;" x1="566.9099" x2="566.9099" y1="512.9253" y2="525.9253"/><line style="stroke:#000000;stroke-width:1;" x1="525.9099" x2="566.9099" y1="525.9253" y2="525.9253"/><polygon fill="#000000" points="535.9099,521.9253,525.9099,525.9253,535.9099,529.9253,531.9099,525.9253" style="stroke:#000000;stroke-width:1;"/><text fill="#000000" font-family="Arial" font-size="11" lengthAdjust="spacing" textLength="82.2476" x="554.8337" y="496.1252">unlockRequest =</text><text fill="#000000" font-family="Arial" font-size="11" lengthAdjust="spacing" textLength="128.0952" x="531.9099" y="508.7742">door control command &gt; 0</text><line style="stroke:#000000;stroke-width:1;" x1="524.9099" x2="566.9099" y1="565.2231" y2="565.2231"/><line style="stroke:#000000;stroke-width:1;" x1="566.9099" x2="566.9099" y1="565.2231" y2="578.2231"/><line style="stroke:#000000;stroke-width:1;" x1="525.9099" x2="566.9099" y1="578.2231" y2="578.2231"/><polygon fill="#000000" points="535.9099,574.2231,525.9099,578.2231,535.9099,582.2231,531.9099,578.2231" style="stroke:#000000;stroke-width:1;"/><text fill="#000000" font-family="Arial" font-size="11" lengthAdjust="spacing" textLength="85.293" x="534.3538" y="548.4231">childLockActive =</text><text fill="#000000" font-family="Arial" font-size="11" lengthAdjust="spacing" textLength="90.1807" x="531.9099" y="561.072">ChildLockCmd &gt; 0</text><line style="stroke:#000000;stroke-width:1;" x1="524.9099" x2="566.9099" y1="617.521" y2="617.521"/><line style="stroke:#000000;stroke-width:1;" x1="566.9099" x2="566.9099" y1="617.521" y2="630.521"/><line style="stroke:#000000;stroke-width:1;" x1="525.9099" x2="566.9099" y1="630.521" y2="630.521"/><polygon fill="#000000" points="535.9099,626.521,525.9099,630.521,535.9099,634.521,531.9099,630.521" style="stroke:#000000;stroke-width:1;"/><text fill="#000000" font-family="Arial" font-size="11" lengthAdjust="spacing" textLength="84.3853" x="599.7925" y="600.7209">unlock only when</text><text fill="#000000" font-family="Arial" font-size="11" lengthAdjust="spacing" textLength="220.1504" x="531.9099" y="613.3699">authorized and requested and child-lock == 0</text><path d="M529,643.521 L529,728.521 L728,728.521 L728,653.521 L718,643.521 L529,643.521 " fill="#FFFFFF" style="stroke:#000000;stroke-width:1;"/><path d="M718,643.521 L718,653.521 L728,653.521 L718,643.521 " fill="#FFFFFF" style="stroke:#000000;stroke-width:1;"/><text fill="#000000" font-family="Arial" font-size="11" lengthAdjust="spacing" textLength="139.4229" x="535" y="659.0188">Representative gating inputs</text><text fill="#000000" font-family="Arial" font-size="11" lengthAdjust="spacing" textLength="89.2461" x="535" y="671.6677">- DoorControlCmd</text><text fill="#000000" font-family="Arial" font-size="11" lengthAdjust="spacing" textLength="78.2461" x="535" y="684.3167">- ChildLockCmd</text><text fill="#000000" font-family="Arial" font-size="11" lengthAdjust="spacing" textLength="64.1899" x="535" y="696.9656">- gDriveState</text><text fill="#000000" font-family="Arial" font-size="11" lengthAdjust="spacing" textLength="178.5298" x="535" y="709.6145">- VehicleAccessState / KeyPresence</text><text fill="#000000" font-family="Arial" font-size="11" lengthAdjust="spacing" textLength="165.0698" x="535" y="722.2634">- ImmobilizerState / KeyAuthState</text><rect fill="#FFFFFF" height="3" style="stroke:#FFFFFF;stroke-width:1;" width="1022.2087" x="5" y="753.739"/><line style="stroke:#000000;stroke-width:0.5;" x1="5" x2="1027.2087" y1="753.739" y2="753.739"/><line style="stroke:#000000;stroke-width:0.5;" x1="5" x2="1027.2087" y1="756.739" y2="756.739"/><rect fill="#FFFFFF" height="20.6489" style="stroke:#000000;stroke-width:1;" width="104.4438" x="463.8824" y="744.4146"/><text fill="#000000" font-family="Arial" font-size="11" font-weight="bold" lengthAdjust="spacing" textLength="87.3877" x="469.8824" y="758.9124">Door RR Publish</text><polygon fill="#000000" points="821.1858,802.3613,831.1858,806.3613,821.1858,810.3613,825.1858,806.3613" style="stroke:#000000;stroke-width:1;"/><line style="stroke:#000000;stroke-width:1;" x1="524.9099" x2="827.1858" y1="806.3613" y2="806.3613"/><text fill="#000000" font-family="Arial" font-size="11" lengthAdjust="spacing" textLength="97.7969" x="630.1494" y="789.5613">frmDoorRrStateMsg</text><text fill="#000000" font-family="Arial" font-size="11" lengthAdjust="spacing" textLength="284.2759" x="536.9099" y="802.2102">DoorRrLockState / DoorRrOpenState / DoorRrWindowPos</text><path d="M529,819.3613 L529,879.3613 L663,879.3613 L663,829.3613 L653,819.3613 L529,819.3613 " fill="#FFFFFF" style="stroke:#000000;stroke-width:1;"/><path d="M653,819.3613 L653,829.3613 L663,829.3613 L653,819.3613 " fill="#FFFFFF" style="stroke:#000000;stroke-width:1;"/><text fill="#000000" font-family="Arial" font-size="11" lengthAdjust="spacing" textLength="113.126" x="535" y="834.8591">Representative outputs</text><text fill="#000000" font-family="Arial" font-size="11" lengthAdjust="spacing" textLength="91.0884" x="535" y="847.5081">- DoorRrLockState</text><text fill="#000000" font-family="Arial" font-size="11" lengthAdjust="spacing" textLength="94.7622" x="535" y="860.157">- DoorRrOpenState</text><text fill="#000000" font-family="Arial" font-size="11" lengthAdjust="spacing" textLength="100.2461" x="535" y="872.8059">- DoorRrWindowPos</text><rect fill="#FFFFFF" height="3" style="stroke:#FFFFFF;stroke-width:1;" width="1022.2087" x="5" y="904.2815"/><line style="stroke:#000000;stroke-width:0.5;" x1="5" x2="1027.2087" y1="904.2815" y2="904.2815"/><line style="stroke:#000000;stroke-width:0.5;" x1="5" x2="1027.2087" y1="907.2815" y2="907.2815"/><rect fill="#FFFFFF" height="20.6489" style="stroke:#000000;stroke-width:1;" width="131.3638" x="450.4225" y="894.957"/><text fill="#000000" font-family="Arial" font-size="11" font-weight="bold" lengthAdjust="spacing" textLength="114.3076" x="456.4225" y="909.4548">Downstream Visibility</text><polygon fill="#000000" points="960.1057,952.9038,970.1057,956.9038,960.1057,960.9038,964.1057,956.9038" style="stroke:#000000;stroke-width:1;"/><line style="stroke:#000000;stroke-width:1;" x1="833.1858" x2="966.1057" y1="956.9038" y2="956.9038"/><text fill="#000000" font-family="Arial" font-size="11" lengthAdjust="spacing" textLength="114.9199" x="845.1858" y="940.1038">rear-door lock visibility /</text><text fill="#000000" font-family="Arial" font-size="11" lengthAdjust="spacing" textLength="75.2061" x="865.0427" y="952.7527">body observers</text><path d="M16,969.9038 L16,1042.9038 L1022,1042.9038 L1022,979.9038 L1012,969.9038 L16,969.9038 " fill="#FFFFFF" style="stroke:#000000;stroke-width:1;"/><path d="M1012,969.9038 L1012,979.9038 L1022,979.9038 L1012,969.9038 " fill="#FFFFFF" style="stroke:#000000;stroke-width:1;"/><text fill="#000000" font-family="Arial" font-size="11" lengthAdjust="spacing" textLength="143.0752" x="325.3915" y="985.4016">Representative runtime chain</text><text fill="#000000" font-family="Arial" font-size="11" lengthAdjust="spacing" textLength="378.4258" x="325.3915" y="998.0505">1. Door control, vehicle, digital-key, and immobilizer context reach DOOR_RR</text><text fill="#000000" font-family="Arial" font-size="11" lengthAdjust="spacing" textLength="324.645" x="325.3915" y="1010.6995">2. DOOR_RR resolves access authorization and child-lock posture</text><text fill="#000000" font-family="Arial" font-size="11" lengthAdjust="spacing" textLength="302.6611" x="325.3915" y="1023.3484">3. Unlock request is gated by park state and child-lock release</text><text fill="#000000" font-family="Arial" font-size="11" lengthAdjust="spacing" textLength="262.2759" x="325.3915" y="1035.9973">4. DOOR_RR publishes final rear-right door lock state</text><!--SRC=[ZLNVZzis37xtNy7rNZOqkH_R0IqEI86Sxp8Ks-qEkRLx2J0eDcCBaQLCafEbV_r8oNPiDqMNDpFanu_KH_87NsA5i5D2wiHjfTu9AofOYsnRM5FhF3NAMBXOX5_F8yUDg9LV6Et_48GmjrAey_-_oYy8DpUzFnt-KwFEy0cT4mNEbImqPAWzsfwNHRSpshLUzwZCOMwjEO2tDIQ9bruXfALKEVnkiYtCTGxpB2DtcDU-X3yDF1XYlrp29wtOurVX4Lufcr2m8BYL_Z5dZuneMgFWBMGCDmtERq54C45WnielmakZOVe17fwVbtyJQXrH2qBzAKc8jPUPt0djuGqddhQmwzgz0U42czGhQkVjujtYVXZn6KkPKK7ECyasXAnmyVX-SRru72MGXVH2JRTuXAkLbbLbrb9Hgot7Oenkkd6nI0bYCGA8HQoqHM6dLXQbXz0CSz1eExvK9kT_z_Z-wmAviqEwRBslNH3CRPeEGvxN3kqUhMF2QvCVwOb5JjyXbFxjmfBPh7kwZtfNUmUpMPAq_UCdYDJkO6EhO8wjVdB5IlU-qog7gwWHbWXz9jpH4K3J-bSk9HKwW1GFLkwZAMdQE4uRN-0tF0Ql4DKWnO1WflJayK9YPiL_0-hZwVLEM6DZH69bHrOYytBFzeYKD813Q7IbveHPYTdMmSRObUvBVWBxI7a2EKbf0YoaSr2LqBLGJoP748f6nwrqMWhdfBkxoxjMWQ7tjJB7Sn1ndERDD64EivLkiWC9PKiMGIFCFAwOHXWys0ibytDmSVgMl4kSPwp1A6UcgXZj0roV2yvQISovYyZXVPLyAwoPUAFL4GubwfKMft8udOrqcg_UDY55NoVQK8lYg9bD-svBt0LrKF-O2MqJgGkGGVR958Pg9iD0pLFe2tKAtnNW5BwdAoJYJ7GmXI_rMabNTcDuwWkFUpU6ovv-upSJRTD4o_CEzT3obwItExmOzxyQP6hVQqqlGsVfCdIMKuPHTGVjF6sX2ZvB9xah_jZLo9LHaRoOxY1ioQ2my9pxatkxp4oxtf8SnxCP2-FXQ8_0X777fTbQUqdND2lv7jzSnlQV6TNJyfy4eVNNFxlZlvuPPsLxgvAVBxkpHHcDsgCxVzz6kjqPvskBoI-NxH5j90xIXSkNm_eOnhSv1QDuYmg5m-Jsb7yNjKG4Df8lyVW0XJWtrE9_]--></g></svg>