<svg xmlns="http://www.w3.org/2000/svg" xmlns:xlink="http://www.w3.org/1999/xlink" contentStyleType="text/css" height="1102px" preserveAspectRatio="none" style="width:1048px;height:1102px;background:#FFFFFF;" version="1.1" viewBox="0 0 1048 1102" width="1048px" zoomAndPan="magnify"><title>Child Lock And Access Auth To Door RL Unlock Gate Signal Flow</title><defs/><g><text fill="#000000" font-family="Arial" font-size="22" font-weight="bold" lengthAdjust="spacing" textLength="689.3906" x="177.9452" y="35.9956">Child Lock And Access Auth To Door RL Unlock Gate Signal Flow</text><text fill="#000000" font-family="Arial" font-size="22" font-weight="bold" lengthAdjust="spacing" textLength="782.9658" x="131.1576" y="61.2935">(door control + child-lock + access authorization -&gt; DOOR_RL unlock gate)</text><rect fill="#FFFFFF" height="640.1699" style="stroke:#000000;stroke-width:1;" width="10" x="514.9099" y="316.7339"/><line style="stroke:#000000;stroke-width:1;" x1="67" x2="67" y1="116.8936" y2="1058.1484"/><line style="stroke:#000000;stroke-width:1;" x1="193.313" x2="193.313" y1="116.8936" y2="1058.1484"/><line style="stroke:#000000;stroke-width:1;" x1="324.0859" x2="324.0859" y1="116.8936" y2="1058.1484"/><line style="stroke:#000000;stroke-width:1;" x1="518.9165" x2="518.9165" y1="116.8936" y2="1058.1484"/><line style="stroke:#000000;stroke-width:1;" x1="829.2004" x2="829.2004" y1="116.8936" y2="1058.1484"/><line style="stroke:#000000;stroke-width:1;" x1="986.075" x2="986.075" y1="116.8936" y2="1058.1484"/><rect fill="#F4F7FB" height="26.6489" rx="2.5" ry="2.5" style="stroke:#000000;stroke-width:1;" width="95.313" x="20" y="89.2446"/><text fill="#000000" font-family="Arial" font-size="11" lengthAdjust="spacing" textLength="81.313" x="27" y="106.7424">Door-control bus</text><rect fill="#F4F7FB" height="26.6489" rx="2.5" ry="2.5" style="stroke:#000000;stroke-width:1;" width="95.313" x="20" y="1057.1484"/><text fill="#000000" font-family="Arial" font-size="11" lengthAdjust="spacing" textLength="81.313" x="27" y="1074.6462">Door-control bus</text><rect fill="#E8F0FE" height="26.6489" rx="2.5" ry="2.5" style="stroke:#000000;stroke-width:1;" width="97.7729" x="145.313" y="89.2446"/><text fill="#000000" font-family="Arial" font-size="11" lengthAdjust="spacing" textLength="83.7729" x="152.313" y="106.7424">Vehicle state bus</text><rect fill="#E8F0FE" height="26.6489" rx="2.5" ry="2.5" style="stroke:#000000;stroke-width:1;" width="97.7729" x="145.313" y="1057.1484"/><text fill="#000000" font-family="Arial" font-size="11" lengthAdjust="spacing" textLength="83.7729" x="152.313" y="1074.6462">Vehicle state bus</text><rect fill="#FCE8FF" height="39.2979" rx="2.5" ry="2.5" style="stroke:#000000;stroke-width:1;" width="102.0269" x="273.0859" y="76.5957"/><text fill="#000000" font-family="Arial" font-size="11" lengthAdjust="spacing" textLength="57.46" x="295.3694" y="94.0935">Digital-key /</text><text fill="#000000" font-family="Arial" font-size="11" lengthAdjust="spacing" textLength="88.0269" x="280.0859" y="106.7424">immobilizer buses</text><rect fill="#FCE8FF" height="39.2979" rx="2.5" ry="2.5" style="stroke:#000000;stroke-width:1;" width="102.0269" x="273.0859" y="1057.1484"/><text fill="#000000" font-family="Arial" font-size="11" lengthAdjust="spacing" textLength="57.46" x="295.3694" y="1074.6462">Digital-key /</text><text fill="#000000" font-family="Arial" font-size="11" lengthAdjust="spacing" textLength="88.0269" x="280.0859" y="1087.2952">immobilizer buses</text><rect fill="#E8F7E8" height="39.2979" rx="2.5" ry="2.5" style="stroke:#000000;stroke-width:1;" width="109.9868" x="464.9165" y="76.5957"/><text fill="#000000" font-family="Arial" font-size="11" lengthAdjust="spacing" textLength="53.1792" x="493.3203" y="94.0935">DOOR_RL</text><text fill="#000000" font-family="Arial" font-size="11" lengthAdjust="spacing" textLength="95.9868" x="471.9165" y="106.7424">rear-left door owner</text><rect fill="#E8F7E8" height="39.2979" rx="2.5" ry="2.5" style="stroke:#000000;stroke-width:1;" width="109.9868" x="464.9165" y="1057.1484"/><text fill="#000000" font-family="Arial" font-size="11" lengthAdjust="spacing" textLength="53.1792" x="493.3203" y="1074.6462">DOOR_RL</text><text fill="#000000" font-family="Arial" font-size="11" lengthAdjust="spacing" textLength="95.9868" x="471.9165" y="1087.2952">rear-left door owner</text><rect fill="#FFF4CC" height="26.6489" rx="2.5" ry="2.5" style="stroke:#000000;stroke-width:1;" width="102.6553" x="778.2004" y="89.2446"/><text fill="#000000" font-family="Arial" font-size="11" lengthAdjust="spacing" textLength="88.6553" x="785.2004" y="106.7424">Door RL state bus</text><rect fill="#FFF4CC" height="26.6489" rx="2.5" ry="2.5" style="stroke:#000000;stroke-width:1;" width="102.6553" x="778.2004" y="1057.1484"/><text fill="#000000" font-family="Arial" font-size="11" lengthAdjust="spacing" textLength="88.6553" x="785.2004" y="1074.6462">Door RL state bus</text><rect fill="#FFF4CC" height="39.2979" rx="2.5" ry="2.5" style="stroke:#000000;stroke-width:1;" width="78.2061" x="947.075" y="76.5957"/><text fill="#000000" font-family="Arial" font-size="11" lengthAdjust="spacing" textLength="56.8477" x="957.7542" y="94.0935">Observers /</text><text fill="#000000" font-family="Arial" font-size="11" lengthAdjust="spacing" textLength="64.2061" x="954.075" y="106.7424">body readers</text><rect fill="#FFF4CC" height="39.2979" rx="2.5" ry="2.5" style="stroke:#000000;stroke-width:1;" width="78.2061" x="947.075" y="1057.1484"/><text fill="#000000" font-family="Arial" font-size="11" lengthAdjust="spacing" textLength="56.8477" x="957.7542" y="1074.6462">Observers /</text><text fill="#000000" font-family="Arial" font-size="11" lengthAdjust="spacing" textLength="64.2061" x="954.075" y="1087.2952">body readers</text><rect fill="#FFFFFF" height="640.1699" style="stroke:#000000;stroke-width:1;" width="10" x="514.9099" y="316.7339"/><rect fill="#FFFFFF" height="3" style="stroke:#FFFFFF;stroke-width:1;" width="1036.281" x="5" y="146.218"/><line style="stroke:#000000;stroke-width:0.5;" x1="5" x2="1041.281" y1="146.218" y2="146.218"/><line style="stroke:#000000;stroke-width:0.5;" x1="5" x2="1041.281" y1="149.218" y2="149.218"/><rect fill="#FFFFFF" height="20.6489" style="stroke:#000000;stroke-width:1;" width="96.4893" x="474.8959" y="136.8936"/><text fill="#000000" font-family="Arial" font-size="11" font-weight="bold" lengthAdjust="spacing" textLength="79.4331" x="480.8959" y="151.3914">Door RL Inputs</text><polygon fill="#000000" points="507.9099,194.8403,517.9099,198.8403,507.9099,202.8403,511.9099,198.8403" style="stroke:#000000;stroke-width:1;"/><line style="stroke:#000000;stroke-width:1;" x1="67.6565" x2="513.9099" y1="198.8403" y2="198.8403"/><text fill="#000000" font-family="Arial" font-size="11" lengthAdjust="spacing" textLength="95.9653" x="245.8005" y="182.0403">frmDoorControlMsg</text><text fill="#000000" font-family="Arial" font-size="11" lengthAdjust="spacing" textLength="163.2222" x="212.1721" y="194.6892">DoorControlCmd / ChildLockCmd</text><polygon fill="#000000" points="507.9099,234.1382,517.9099,238.1382,507.9099,242.1382,511.9099,238.1382" style="stroke:#000000;stroke-width:1;"/><line style="stroke:#000000;stroke-width:1;" x1="194.1995" x2="513.9099" y1="238.1382" y2="238.1382"/><text fill="#000000" font-family="Arial" font-size="11" lengthAdjust="spacing" textLength="118.6045" x="297.7524" y="221.3381">frmVehicleStateCanMsg</text><text fill="#000000" font-family="Arial" font-size="11" lengthAdjust="spacing" textLength="57.4707" x="328.3193" y="233.9871">gDriveState</text><polygon fill="#000000" points="507.9099,273.436,517.9099,277.436,507.9099,281.436,511.9099,277.436" style="stroke:#000000;stroke-width:1;"/><line style="stroke:#000000;stroke-width:1;" x1="324.0994" x2="513.9099" y1="277.436" y2="277.436"/><text fill="#000000" font-family="Arial" font-size="11" lengthAdjust="spacing" textLength="111.8691" x="366.0701" y="260.636">frmDigitalKeyStateMsg</text><text fill="#000000" font-family="Arial" font-size="11" lengthAdjust="spacing" textLength="171.8105" x="336.0994" y="273.2849">VehicleAccessState / KeyPresence</text><polygon fill="#000000" points="502.9099,312.7339,512.9099,316.7339,502.9099,320.7339,506.9099,316.7339" style="stroke:#000000;stroke-width:1;"/><line style="stroke:#000000;stroke-width:1;" x1="324.0994" x2="508.9099" y1="316.7339" y2="316.7339"/><text fill="#000000" font-family="Arial" font-size="11" lengthAdjust="spacing" textLength="118.5776" x="360.2158" y="299.9338">frmImmobilizerStateMsg</text><text fill="#000000" font-family="Arial" font-size="11" lengthAdjust="spacing" textLength="158.3506" x="340.3293" y="312.5828">ImmobilizerState / KeyAuthState</text><line style="stroke:#000000;stroke-width:1;" x1="524.9099" x2="566.9099" y1="356.0317" y2="356.0317"/><line style="stroke:#000000;stroke-width:1;" x1="566.9099" x2="566.9099" y1="356.0317" y2="369.0317"/><line style="stroke:#000000;stroke-width:1;" x1="525.9099" x2="566.9099" y1="369.0317" y2="369.0317"/><polygon fill="#000000" points="535.9099,365.0317,525.9099,369.0317,535.9099,373.0317,531.9099,369.0317" style="stroke:#000000;stroke-width:1;"/><text fill="#000000" font-family="Arial" font-size="11" lengthAdjust="spacing" textLength="100.8745" x="561.8672" y="339.2317">freshness checks for</text><text fill="#000000" font-family="Arial" font-size="11" lengthAdjust="spacing" textLength="160.7891" x="531.9099" y="351.8806">door control, vehicle, dkey, immo</text><line style="stroke:#000000;stroke-width:1;" x1="524.9099" x2="566.9099" y1="408.3296" y2="408.3296"/><line style="stroke:#000000;stroke-width:1;" x1="566.9099" x2="566.9099" y1="408.3296" y2="421.3296"/><line style="stroke:#000000;stroke-width:1;" x1="525.9099" x2="566.9099" y1="421.3296" y2="421.3296"/><polygon fill="#000000" points="535.9099,417.3296,525.9099,421.3296,535.9099,425.3296,531.9099,421.3296" style="stroke:#000000;stroke-width:1;"/><text fill="#000000" font-family="Arial" font-size="11" lengthAdjust="spacing" textLength="112.5029" x="541.9888" y="391.5295">manualMode may read</text><text fill="#000000" font-family="Arial" font-size="11" lengthAdjust="spacing" textLength="132.6606" x="531.9099" y="404.1785">Chassis::driveState directly</text><line style="stroke:#000000;stroke-width:1;" x1="524.9099" x2="566.9099" y1="460.6274" y2="460.6274"/><line style="stroke:#000000;stroke-width:1;" x1="566.9099" x2="566.9099" y1="460.6274" y2="473.6274"/><line style="stroke:#000000;stroke-width:1;" x1="525.9099" x2="566.9099" y1="473.6274" y2="473.6274"/><polygon fill="#000000" points="535.9099,469.6274,525.9099,473.6274,535.9099,477.6274,531.9099,473.6274" style="stroke:#000000;stroke-width:1;"/><text fill="#000000" font-family="Arial" font-size="11" lengthAdjust="spacing" textLength="96.3037" x="583.1179" y="443.8274">accessAuthorized =</text><text fill="#000000" font-family="Arial" font-size="11" lengthAdjust="spacing" textLength="198.7197" x="531.9099" y="456.4763">parked vehicle and dkey/immo auth valid</text><line style="stroke:#000000;stroke-width:1;" x1="524.9099" x2="566.9099" y1="512.9253" y2="512.9253"/><line style="stroke:#000000;stroke-width:1;" x1="566.9099" x2="566.9099" y1="512.9253" y2="525.9253"/><line style="stroke:#000000;stroke-width:1;" x1="525.9099" x2="566.9099" y1="525.9253" y2="525.9253"/><polygon fill="#000000" points="535.9099,521.9253,525.9099,525.9253,535.9099,529.9253,531.9099,525.9253" style="stroke:#000000;stroke-width:1;"/><text fill="#000000" font-family="Arial" font-size="11" lengthAdjust="spacing" textLength="82.2476" x="541.3765" y="496.1252">unlockRequest =</text><text fill="#000000" font-family="Arial" font-size="11" lengthAdjust="spacing" textLength="101.1807" x="531.9099" y="508.7742">DoorControlCmd &gt; 0</text><line style="stroke:#000000;stroke-width:1;" x1="524.9099" x2="566.9099" y1="565.2231" y2="565.2231"/><line style="stroke:#000000;stroke-width:1;" x1="566.9099" x2="566.9099" y1="565.2231" y2="578.2231"/><line style="stroke:#000000;stroke-width:1;" x1="525.9099" x2="566.9099" y1="578.2231" y2="578.2231"/><polygon fill="#000000" points="535.9099,574.2231,525.9099,578.2231,535.9099,582.2231,531.9099,578.2231" style="stroke:#000000;stroke-width:1;"/><text fill="#000000" font-family="Arial" font-size="11" lengthAdjust="spacing" textLength="85.293" x="534.3538" y="548.4231">childLockActive =</text><text fill="#000000" font-family="Arial" font-size="11" lengthAdjust="spacing" textLength="90.1807" x="531.9099" y="561.072">ChildLockCmd &gt; 0</text><line style="stroke:#000000;stroke-width:1;" x1="524.9099" x2="566.9099" y1="617.521" y2="617.521"/><line style="stroke:#000000;stroke-width:1;" x1="566.9099" x2="566.9099" y1="617.521" y2="630.521"/><line style="stroke:#000000;stroke-width:1;" x1="525.9099" x2="566.9099" y1="630.521" y2="630.521"/><polygon fill="#000000" points="535.9099,626.521,525.9099,630.521,535.9099,634.521,531.9099,630.521" style="stroke:#000000;stroke-width:1;"/><text fill="#000000" font-family="Arial" font-size="11" lengthAdjust="spacing" textLength="84.3853" x="599.7925" y="600.7209">unlock only when</text><text fill="#000000" font-family="Arial" font-size="11" lengthAdjust="spacing" textLength="220.1504" x="531.9099" y="613.3699">authorized and requested and child-lock == 0</text><path d="M529,643.521 L529,728.521 L728,728.521 L728,653.521 L718,643.521 L529,643.521 " fill="#FFFFFF" style="stroke:#000000;stroke-width:1;"/><path d="M718,643.521 L718,653.521 L728,653.521 L718,643.521 " fill="#FFFFFF" style="stroke:#000000;stroke-width:1;"/><text fill="#000000" font-family="Arial" font-size="11" lengthAdjust="spacing" textLength="139.4229" x="535" y="659.0188">Representative gating inputs</text><text fill="#000000" font-family="Arial" font-size="11" lengthAdjust="spacing" textLength="89.2461" x="535" y="671.6677">- DoorControlCmd</text><text fill="#000000" font-family="Arial" font-size="11" lengthAdjust="spacing" textLength="78.2461" x="535" y="684.3167">- ChildLockCmd</text><text fill="#000000" font-family="Arial" font-size="11" lengthAdjust="spacing" textLength="64.1899" x="535" y="696.9656">- gDriveState</text><text fill="#000000" font-family="Arial" font-size="11" lengthAdjust="spacing" textLength="178.5298" x="535" y="709.6145">- VehicleAccessState / KeyPresence</text><text fill="#000000" font-family="Arial" font-size="11" lengthAdjust="spacing" textLength="165.0698" x="535" y="722.2634">- ImmobilizerState / KeyAuthState</text><rect fill="#FFFFFF" height="3" style="stroke:#FFFFFF;stroke-width:1;" width="1036.281" x="5" y="753.739"/><line style="stroke:#000000;stroke-width:0.5;" x1="5" x2="1041.281" y1="753.739" y2="753.739"/><line style="stroke:#000000;stroke-width:0.5;" x1="5" x2="1041.281" y1="756.739" y2="756.739"/><rect fill="#FFFFFF" height="20.6489" style="stroke:#000000;stroke-width:1;" width="103.2192" x="471.5309" y="744.4146"/><text fill="#000000" font-family="Arial" font-size="11" font-weight="bold" lengthAdjust="spacing" textLength="86.1631" x="477.5309" y="758.9124">Door RL Publish</text><polygon fill="#000000" points="817.5281,802.3613,827.5281,806.3613,817.5281,810.3613,821.5281,806.3613" style="stroke:#000000;stroke-width:1;"/><line style="stroke:#000000;stroke-width:1;" x1="524.9099" x2="823.5281" y1="806.3613" y2="806.3613"/><text fill="#000000" font-family="Arial" font-size="11" lengthAdjust="spacing" textLength="96.5776" x="628.9302" y="789.5613">frmDoorRlStateMsg</text><text fill="#000000" font-family="Arial" font-size="11" lengthAdjust="spacing" textLength="280.6182" x="536.9099" y="802.2102">DoorRlLockState / DoorRlOpenState / DoorRlWindowPos</text><path d="M529,819.3613 L529,879.3613 L663,879.3613 L663,829.3613 L653,819.3613 L529,819.3613 " fill="#FFFFFF" style="stroke:#000000;stroke-width:1;"/><path d="M653,819.3613 L653,829.3613 L663,829.3613 L653,819.3613 " fill="#FFFFFF" style="stroke:#000000;stroke-width:1;"/><text fill="#000000" font-family="Arial" font-size="11" lengthAdjust="spacing" textLength="113.126" x="535" y="834.8591">Representative outputs</text><text fill="#000000" font-family="Arial" font-size="11" lengthAdjust="spacing" textLength="89.8691" x="535" y="847.5081">- DoorRlLockState</text><text fill="#000000" font-family="Arial" font-size="11" lengthAdjust="spacing" textLength="93.543" x="535" y="860.157">- DoorRlOpenState</text><text fill="#000000" font-family="Arial" font-size="11" lengthAdjust="spacing" textLength="99.0269" x="535" y="872.8059">- DoorRlWindowPos</text><rect fill="#FFFFFF" height="3" style="stroke:#FFFFFF;stroke-width:1;" width="1036.281" x="5" y="904.2815"/><line style="stroke:#000000;stroke-width:0.5;" x1="5" x2="1041.281" y1="904.2815" y2="904.2815"/><line style="stroke:#000000;stroke-width:0.5;" x1="5" x2="1041.281" y1="907.2815" y2="907.2815"/><rect fill="#FFFFFF" height="20.6489" style="stroke:#000000;stroke-width:1;" width="131.3638" x="457.4586" y="894.957"/><text fill="#000000" font-family="Arial" font-size="11" font-weight="bold" lengthAdjust="spacing" textLength="114.3076" x="463.4586" y="909.4548">Downstream Visibility</text><polygon fill="#000000" points="974.178,952.9038,984.178,956.9038,974.178,960.9038,978.178,956.9038" style="stroke:#000000;stroke-width:1;"/><line style="stroke:#000000;stroke-width:1;" x1="829.5281" x2="980.178" y1="956.9038" y2="956.9038"/><text fill="#000000" font-family="Arial" font-size="11" lengthAdjust="spacing" textLength="132.6499" x="841.5281" y="940.1038">rear-left door lock visibility /</text><text fill="#000000" font-family="Arial" font-size="11" lengthAdjust="spacing" textLength="75.2061" x="870.25" y="952.7527">body observers</text><path d="M16,969.9038 L16,1042.9038 L1036,1042.9038 L1036,979.9038 L1026,969.9038 L16,969.9038 " fill="#FFFFFF" style="stroke:#000000;stroke-width:1;"/><path d="M1026,969.9038 L1026,979.9038 L1036,979.9038 L1026,969.9038 " fill="#FFFFFF" style="stroke:#000000;stroke-width:1;"/><text fill="#000000" font-family="Arial" font-size="11" lengthAdjust="spacing" textLength="143.0752" x="333.3407" y="985.4016">Representative runtime chain</text><text fill="#000000" font-family="Arial" font-size="11" lengthAdjust="spacing" textLength="376.5996" x="333.3407" y="998.0505">1. Door control, vehicle, digital-key, and immobilizer context reach DOOR_RL</text><text fill="#000000" font-family="Arial" font-size="11" lengthAdjust="spacing" textLength="322.8188" x="333.3407" y="1010.6995">2. DOOR_RL resolves access authorization and child-lock posture</text><text fill="#000000" font-family="Arial" font-size="11" lengthAdjust="spacing" textLength="302.6611" x="333.3407" y="1023.3484">3. Unlock request is gated by park state and child-lock release</text><text fill="#000000" font-family="Arial" font-size="11" lengthAdjust="spacing" textLength="253.7251" x="333.3407" y="1035.9973">4. DOOR_RL publishes final rear-left door lock state</text><!--SRC=[ZLLjZzis3FxkNy7rlcneSY_R0IqEI86SxpmKw-qEkQtx4c1GRCOMeaYU92TDV_r8o-zBqULJH8iF7v8FnHzyWNk4KWcf8xUJkXHMx64ZqbrkJQMps2XZuIAfVuCR6Mv5fNnYjFzT4CBIIg7EVt-LNn5kRWOV7VvJeKxn2PqJEIwLp3Mag3tQmIsBhZJQjRVkKPdZqbfp16yhZ28llKA82wao-6JI7Inr1iiqfUkmh7m1VnXuCCH-zGd-r8fl_2eymYj54meIWblh7pE-aH9DQnIyXPJXvlNbjo02c20mO-LNuQNHCFy03y_Fgxy9jGgeEQ7-54N4sijKba9xUCE1votifd9lGBYQJUmLbVCsUPVSZpq-Oo5JIiXv9jcwa1Kk7jydrydZ983CfHTgliCJNAsrtE_DHYegjMLV3DvDDIwIc22I2K18Ogqj2ZjNkFLGry8SDTgEBcN9uTyzllzlVbpOCLkstbUkrijj78zTdZSExG6jOxuRavsemoAZS-rANpktQB7eElTHbvLti5X4KLi-xa2WTWTRkw_DeT9FBb_hmJdUPt0L9C8AeMF41Pq0D9L_vLHYeMkG_C7AGp15JHMdOKC3ViDJVQlsQf22Gsscy7JZXRJCWly6rCU-UJtMr1YGMDY1bKYzFB0z84KDu1WQNQ4vO5fWkdEmDNQjXugVmI5Gda56Ife1w-WSr5xeIgWdao7z3PrRwxWGpabtTvTrnO9CMaozEfq32VEqRCO9CrYiUTPtzA-X0O9cc9bSCP5wyk0WbCpEmONnM_5ZuZnZJJh_0QxFkQMj79PSGMJ7eKA-vTOCkz7g1CS2zLgBFX6cRGEHvZHuI4ZDrv4sL1mhyyA3sROzMs5PAuCgnqpe8P4w1rbBFfh3E1yoZ9GyXw58v_1TyStXUvf28iv4HnFuKcsKT4KtWdrTUDIx4LofNhlXp4JRCC7oNA8UM_wIfCVZYt7_gq2cyeFI329qbYv2P-aZJB8xQkT9ntluB9taglXJboDdHadoetG7amUoxkcXzsbVCzE-Rr66q-4CsHdwsYw16ODFyxELzfAsQLhmFhwv33quCwlzup-hrJPy_lawVl5CEotQNHNzVDcjBOfer07T-Vqs4MzfdAyiHhzSjakqqJb8Ls- -33Odu2bkTi74tw92uJ2wxUENGL14O2jv4v-hhnlhyLy0]--></g></svg>