<svg xmlns="http://www.w3.org/2000/svg" xmlns:xlink="http://www.w3.org/1999/xlink" contentStyleType="text/css" height="998px" preserveAspectRatio="none" style="width:906px;height:998px;background:#FFFFFF;" version="1.1" viewBox="0 0 906 998" width="906px" zoomAndPan="magnify"><title>Cluster Warning To HUD Warning Code Signal Flow</title><defs/><g><text fill="#000000" font-family="Arial" font-size="22" font-weight="bold" lengthAdjust="spacing" textLength="540.2139" x="181.8571" y="35.9956">Cluster Warning To HUD Warning Code Signal Flow</text><text fill="#000000" font-family="Arial" font-size="22" font-weight="bold" lengthAdjust="spacing" textLength="743.2412" x="80.3434" y="61.2935">(cluster warning + theme context -&gt; HUD warning and brightness state)</text><rect fill="#FFFFFF" height="614.8721" style="stroke:#000000;stroke-width:1;" width="10" x="405.1597" y="238.1382"/><line style="stroke:#000000;stroke-width:1;" x1="88" x2="88" y1="116.8936" y2="954.2549"/><line style="stroke:#000000;stroke-width:1;" x1="228.2729" x2="228.2729" y1="116.8936" y2="954.2549"/><line style="stroke:#000000;stroke-width:1;" x1="409.6609" x2="409.6609" y1="116.8936" y2="954.2549"/><line style="stroke:#000000;stroke-width:1;" x1="664.0144" x2="664.0144" y1="116.8936" y2="954.2549"/><line style="stroke:#000000;stroke-width:1;" x1="833.4519" x2="833.4519" y1="116.8936" y2="954.2549"/><rect fill="#F4F7FB" height="26.6489" rx="2.5" ry="2.5" style="stroke:#000000;stroke-width:1;" width="136.2729" x="20" y="89.2446"/><text fill="#000000" font-family="Arial" font-size="11" lengthAdjust="spacing" textLength="122.2729" x="27" y="106.7424">IVI / CLU warning source</text><rect fill="#F4F7FB" height="26.6489" rx="2.5" ry="2.5" style="stroke:#000000;stroke-width:1;" width="136.2729" x="20" y="953.2549"/><text fill="#000000" font-family="Arial" font-size="11" lengthAdjust="spacing" textLength="122.2729" x="27" y="970.7527">IVI / CLU warning source</text><rect fill="#E8F0FE" height="26.6489" rx="2.5" ry="2.5" style="stroke:#000000;stroke-width:1;" width="84.3076" x="186.2729" y="89.2446"/><text fill="#000000" font-family="Arial" font-size="11" lengthAdjust="spacing" textLength="70.3076" x="193.2729" y="106.7424">Theme source</text><rect fill="#E8F0FE" height="26.6489" rx="2.5" ry="2.5" style="stroke:#000000;stroke-width:1;" width="84.3076" x="186.2729" y="953.2549"/><text fill="#000000" font-family="Arial" font-size="11" lengthAdjust="spacing" textLength="70.3076" x="193.2729" y="970.7527">Theme source</text><rect fill="#E8F7E8" height="39.2979" rx="2.5" ry="2.5" style="stroke:#000000;stroke-width:1;" width="120.9976" x="349.6609" y="76.5957"/><text fill="#000000" font-family="Arial" font-size="11" lengthAdjust="spacing" textLength="23.8315" x="398.2439" y="94.0935">HUD</text><text fill="#000000" font-family="Arial" font-size="11" lengthAdjust="spacing" textLength="106.9976" x="356.6609" y="106.7424">warning-render owner</text><rect fill="#E8F7E8" height="39.2979" rx="2.5" ry="2.5" style="stroke:#000000;stroke-width:1;" width="120.9976" x="349.6609" y="953.2549"/><text fill="#000000" font-family="Arial" font-size="11" lengthAdjust="spacing" textLength="23.8315" x="398.2439" y="970.7527">HUD</text><text fill="#000000" font-family="Arial" font-size="11" lengthAdjust="spacing" textLength="106.9976" x="356.6609" y="983.4016">warning-render owner</text><rect fill="#FFF4CC" height="26.6489" rx="2.5" ry="2.5" style="stroke:#000000;stroke-width:1;" width="85.5269" x="622.0144" y="89.2446"/><text fill="#000000" font-family="Arial" font-size="11" lengthAdjust="spacing" textLength="71.5269" x="629.0144" y="106.7424">HUD state bus</text><rect fill="#FFF4CC" height="26.6489" rx="2.5" ry="2.5" style="stroke:#000000;stroke-width:1;" width="85.5269" x="622.0144" y="953.2549"/><text fill="#000000" font-family="Arial" font-size="11" lengthAdjust="spacing" textLength="71.5269" x="629.0144" y="970.7527">HUD state bus</text><rect fill="#FCE8FF" height="39.2979" rx="2.5" ry="2.5" style="stroke:#000000;stroke-width:1;" width="82.4761" x="792.4519" y="76.5957"/><text fill="#000000" font-family="Arial" font-size="11" lengthAdjust="spacing" textLength="56.8477" x="805.2661" y="94.0935">Observers /</text><text fill="#000000" font-family="Arial" font-size="11" lengthAdjust="spacing" textLength="68.4761" x="799.4519" y="106.7424">visual readers</text><rect fill="#FCE8FF" height="39.2979" rx="2.5" ry="2.5" style="stroke:#000000;stroke-width:1;" width="82.4761" x="792.4519" y="953.2549"/><text fill="#000000" font-family="Arial" font-size="11" lengthAdjust="spacing" textLength="56.8477" x="805.2661" y="970.7527">Observers /</text><text fill="#000000" font-family="Arial" font-size="11" lengthAdjust="spacing" textLength="68.4761" x="799.4519" y="983.4016">visual readers</text><rect fill="#FFFFFF" height="614.8721" style="stroke:#000000;stroke-width:1;" width="10" x="405.1597" y="238.1382"/><rect fill="#FFFFFF" height="3" style="stroke:#FFFFFF;stroke-width:1;" width="894.928" x="5" y="146.218"/><line style="stroke:#000000;stroke-width:0.5;" x1="5" x2="899.928" y1="146.218" y2="146.218"/><line style="stroke:#000000;stroke-width:0.5;" x1="5" x2="899.928" y1="149.218" y2="149.218"/><rect fill="#FFFFFF" height="20.6489" style="stroke:#000000;stroke-width:1;" width="76.9385" x="413.9948" y="136.8936"/><text fill="#000000" font-family="Arial" font-size="11" font-weight="bold" lengthAdjust="spacing" textLength="59.8823" x="419.9948" y="151.3914">HUD Inputs</text><polygon fill="#000000" points="398.1597,194.8403,408.1597,198.8403,398.1597,202.8403,402.1597,198.8403" style="stroke:#000000;stroke-width:1;"/><line style="stroke:#000000;stroke-width:1;" x1="88.1365" x2="404.1597" y1="198.8403" y2="198.8403"/><text fill="#000000" font-family="Arial" font-size="11" lengthAdjust="spacing" textLength="112.4653" x="192.9154" y="182.0403">frmClusterWarningMsg</text><text fill="#000000" font-family="Arial" font-size="11" lengthAdjust="spacing" textLength="88.6499" x="204.8231" y="194.6892">WarningTextCode</text><polygon fill="#000000" points="393.1597,234.1382,403.1597,238.1382,393.1597,242.1382,397.1597,238.1382" style="stroke:#000000;stroke-width:1;"/><line style="stroke:#000000;stroke-width:1;" x1="228.4268" x2="399.1597" y1="238.1382" y2="238.1382"/><text fill="#000000" font-family="Arial" font-size="11" lengthAdjust="spacing" textLength="105.7407" x="263.9229" y="221.3381">frmClusterThemeMsg</text><text fill="#000000" font-family="Arial" font-size="11" lengthAdjust="spacing" textLength="157.7329" x="237.9268" y="233.9871">ThemeMode / ClusterBrightness</text><line style="stroke:#000000;stroke-width:1;" x1="415.1597" x2="457.1597" y1="277.436" y2="277.436"/><line style="stroke:#000000;stroke-width:1;" x1="457.1597" x2="457.1597" y1="277.436" y2="290.436"/><line style="stroke:#000000;stroke-width:1;" x1="416.1597" x2="457.1597" y1="290.436" y2="290.436"/><polygon fill="#000000" points="426.1597,286.436,416.1597,290.436,426.1597,294.436,422.1597,290.436" style="stroke:#000000;stroke-width:1;"/><text fill="#000000" font-family="Arial" font-size="11" lengthAdjust="spacing" textLength="109.7637" x="463.2566" y="260.636">warningInputExpired =</text><text fill="#000000" font-family="Arial" font-size="11" lengthAdjust="spacing" textLength="191.9575" x="422.1597" y="273.2849">ethIsRecentTick(gWarningRxMs, 1500)</text><line style="stroke:#000000;stroke-width:1;" x1="415.1597" x2="457.1597" y1="329.7339" y2="329.7339"/><line style="stroke:#000000;stroke-width:1;" x1="457.1597" x2="457.1597" y1="329.7339" y2="342.7339"/><line style="stroke:#000000;stroke-width:1;" x1="416.1597" x2="457.1597" y1="342.7339" y2="342.7339"/><polygon fill="#000000" points="426.1597,338.7339,416.1597,342.7339,426.1597,346.7339,422.1597,342.7339" style="stroke:#000000;stroke-width:1;"/><text fill="#000000" font-family="Arial" font-size="11" lengthAdjust="spacing" textLength="101.8145" x="463.8689" y="312.9338">themeInputExpired =</text><text fill="#000000" font-family="Arial" font-size="11" lengthAdjust="spacing" textLength="185.2329" x="422.1597" y="325.5828">ethIsRecentTick(gThemeRxMs, 1500)</text><line style="stroke:#000000;stroke-width:1;" x1="415.1597" x2="457.1597" y1="382.0317" y2="382.0317"/><line style="stroke:#000000;stroke-width:1;" x1="457.1597" x2="457.1597" y1="382.0317" y2="395.0317"/><line style="stroke:#000000;stroke-width:1;" x1="416.1597" x2="457.1597" y1="395.0317" y2="395.0317"/><polygon fill="#000000" points="426.1597,391.0317,416.1597,395.0317,426.1597,399.0317,422.1597,395.0317" style="stroke:#000000;stroke-width:1;"/><text fill="#000000" font-family="Arial" font-size="11" lengthAdjust="spacing" textLength="110.6768" x="422.1597" y="365.2317">if warning expired then</text><text fill="#000000" font-family="Arial" font-size="11" lengthAdjust="spacing" textLength="83.4722" x="435.762" y="377.8806">warningCode = 0</text><line style="stroke:#000000;stroke-width:1;" x1="415.1597" x2="457.1597" y1="434.3296" y2="434.3296"/><line style="stroke:#000000;stroke-width:1;" x1="457.1597" x2="457.1597" y1="434.3296" y2="447.3296"/><line style="stroke:#000000;stroke-width:1;" x1="416.1597" x2="457.1597" y1="447.3296" y2="447.3296"/><polygon fill="#000000" points="426.1597,443.3296,416.1597,447.3296,426.1597,451.3296,422.1597,447.3296" style="stroke:#000000;stroke-width:1;"/><text fill="#000000" font-family="Arial" font-size="11" lengthAdjust="spacing" textLength="102.7275" x="451.5127" y="417.5295">if theme expired then</text><text fill="#000000" font-family="Arial" font-size="11" lengthAdjust="spacing" textLength="161.4336" x="422.1597" y="430.1785">themeMode = 0 / brightness = 18</text><line style="stroke:#000000;stroke-width:1;" x1="415.1597" x2="457.1597" y1="486.6274" y2="486.6274"/><line style="stroke:#000000;stroke-width:1;" x1="457.1597" x2="457.1597" y1="486.6274" y2="499.6274"/><line style="stroke:#000000;stroke-width:1;" x1="416.1597" x2="457.1597" y1="499.6274" y2="499.6274"/><polygon fill="#000000" points="426.1597,495.6274,416.1597,499.6274,426.1597,503.6274,422.1597,499.6274" style="stroke:#000000;stroke-width:1;"/><text fill="#000000" font-family="Arial" font-size="11" lengthAdjust="spacing" textLength="113.4536" x="472.7554" y="469.8274">hudMode = popup ? 2 :</text><text fill="#000000" font-family="Arial" font-size="11" lengthAdjust="spacing" textLength="214.645" x="422.1597" y="482.4763">warningCode &gt; 0 ? 1 : guideType &gt; 0 ? 3 : 0</text><line style="stroke:#000000;stroke-width:1;" x1="415.1597" x2="457.1597" y1="526.2764" y2="526.2764"/><line style="stroke:#000000;stroke-width:1;" x1="457.1597" x2="457.1597" y1="526.2764" y2="539.2764"/><line style="stroke:#000000;stroke-width:1;" x1="416.1597" x2="457.1597" y1="539.2764" y2="539.2764"/><polygon fill="#000000" points="426.1597,535.2764,416.1597,539.2764,426.1597,543.2764,422.1597,539.2764" style="stroke:#000000;stroke-width:1;"/><text fill="#000000" font-family="Arial" font-size="11" lengthAdjust="spacing" textLength="165.0537" x="422.1597" y="522.1252">enforce minimum HUD brightness</text><path d="M420,552.2764 L420,625.2764 L580,625.2764 L580,562.2764 L570,552.2764 L420,552.2764 " fill="#FFFFFF" style="stroke:#000000;stroke-width:1;"/><path d="M570,552.2764 L570,562.2764 L580,562.2764 L570,552.2764 " fill="#FFFFFF" style="stroke:#000000;stroke-width:1;"/><text fill="#000000" font-family="Arial" font-size="11" lengthAdjust="spacing" textLength="139.4229" x="426" y="567.7742">Representative gating inputs</text><text fill="#000000" font-family="Arial" font-size="11" lengthAdjust="spacing" textLength="95.3691" x="426" y="580.4231">- WarningTextCode</text><text fill="#000000" font-family="Arial" font-size="11" lengthAdjust="spacing" textLength="68.4707" x="426" y="593.072">- ThemeMode</text><text fill="#000000" font-family="Arial" font-size="11" lengthAdjust="spacing" textLength="93.5322" x="426" y="605.7209">- ClusterBrightness</text><text fill="#000000" font-family="Arial" font-size="11" lengthAdjust="spacing" textLength="135.1099" x="426" y="618.3699">- HUD lease / hold windows</text><rect fill="#FFFFFF" height="3" style="stroke:#FFFFFF;stroke-width:1;" width="894.928" x="5" y="649.8455"/><line style="stroke:#000000;stroke-width:0.5;" x1="5" x2="899.928" y1="649.8455" y2="649.8455"/><line style="stroke:#000000;stroke-width:0.5;" x1="5" x2="899.928" y1="652.8455" y2="652.8455"/><rect fill="#FFFFFF" height="20.6489" style="stroke:#000000;stroke-width:1;" width="83.6685" x="410.6298" y="640.521"/><text fill="#000000" font-family="Arial" font-size="11" font-weight="bold" lengthAdjust="spacing" textLength="66.6123" x="416.6298" y="655.0188">HUD Publish</text><polygon fill="#000000" points="652.7778,698.4678,662.7778,702.4678,652.7778,706.4678,656.7778,702.4678" style="stroke:#000000;stroke-width:1;"/><line style="stroke:#000000;stroke-width:1;" x1="415.1597" x2="658.7778" y1="702.4678" y2="702.4678"/><text fill="#000000" font-family="Arial" font-size="11" lengthAdjust="spacing" textLength="82.5269" x="498.7053" y="685.6677">frmHudStateMsg</text><text fill="#000000" font-family="Arial" font-size="11" lengthAdjust="spacing" textLength="225.6182" x="427.1597" y="698.3167">HudMode / HudWarningCode / HudBrightness</text><path d="M420,715.4678 L420,775.4678 L554,775.4678 L554,725.4678 L544,715.4678 L420,715.4678 " fill="#FFFFFF" style="stroke:#000000;stroke-width:1;"/><path d="M544,715.4678 L544,725.4678 L554,725.4678 L544,715.4678 " fill="#FFFFFF" style="stroke:#000000;stroke-width:1;"/><text fill="#000000" font-family="Arial" font-size="11" lengthAdjust="spacing" textLength="113.126" x="426" y="730.9656">Representative outputs</text><text fill="#000000" font-family="Arial" font-size="11" lengthAdjust="spacing" textLength="54.4146" x="426" y="743.6145">- HudMode</text><text fill="#000000" font-family="Arial" font-size="11" lengthAdjust="spacing" textLength="94.1553" x="426" y="756.2634">- HudWarningCode</text><text fill="#000000" font-family="Arial" font-size="11" lengthAdjust="spacing" textLength="78.8691" x="426" y="768.9124">- HudBrightness</text><rect fill="#FFFFFF" height="3" style="stroke:#FFFFFF;stroke-width:1;" width="894.928" x="5" y="800.3879"/><line style="stroke:#000000;stroke-width:0.5;" x1="5" x2="899.928" y1="800.3879" y2="800.3879"/><line style="stroke:#000000;stroke-width:0.5;" x1="5" x2="899.928" y1="803.3879" y2="803.3879"/><rect fill="#FFFFFF" height="20.6489" style="stroke:#000000;stroke-width:1;" width="131.3638" x="386.7821" y="791.0635"/><text fill="#000000" font-family="Arial" font-size="11" font-weight="bold" lengthAdjust="spacing" textLength="114.3076" x="392.7821" y="805.5613">Downstream Visibility</text><polygon fill="#000000" points="821.6899,849.0103,831.6899,853.0103,821.6899,857.0103,825.6899,853.0103" style="stroke:#000000;stroke-width:1;"/><line style="stroke:#000000;stroke-width:1;" x1="664.7778" x2="827.6899" y1="853.0103" y2="853.0103"/><text fill="#000000" font-family="Arial" font-size="11" lengthAdjust="spacing" textLength="105.7461" x="696.3608" y="836.2102">HUD render visibility /</text><text fill="#000000" font-family="Arial" font-size="11" lengthAdjust="spacing" textLength="144.9121" x="676.7778" y="848.8591">warning and theme observers</text><path d="M25,866.0103 L25,939.0103 L894,939.0103 L894,876.0103 L884,866.0103 L25,866.0103 " fill="#FFFFFF" style="stroke:#000000;stroke-width:1;"/><path d="M884,866.0103 L884,876.0103 L894,876.0103 L884,866.0103 " fill="#FFFFFF" style="stroke:#000000;stroke-width:1;"/><text fill="#000000" font-family="Arial" font-size="11" lengthAdjust="spacing" textLength="143.0752" x="294.0438" y="881.5081">Representative runtime chain</text><text fill="#000000" font-family="Arial" font-size="11" lengthAdjust="spacing" textLength="239.6689" x="294.0438" y="894.157">1. Cluster warning and theme context reach HUD</text><text fill="#000000" font-family="Arial" font-size="11" lengthAdjust="spacing" textLength="322.8403" x="294.0438" y="906.8059">2. HUD applies lease/hold windows to warning and theme sources</text><text fill="#000000" font-family="Arial" font-size="11" lengthAdjust="spacing" textLength="245.1797" x="294.0438" y="919.4548">3. HUD derives warning mode and final brightness</text><text fill="#000000" font-family="Arial" font-size="11" lengthAdjust="spacing" textLength="269.6021" x="294.0438" y="932.1038">4. HUD publishes frmHudStateMsg for visual observers</text><!--SRC=[bLNRJXin47ttLqpf2wY44A028GL40X6HIbj1W9UyEBkJZSN6tlgIGB- -uqkMNQ2gcfSuzioPopap-MGNk4IeIYuaCqz2Lbpp9SnuzbHevMG-LANIy7aKFWsB7EVSbNQafFtE2U522rv-_7udVYFqUer7WxySoWnlq1XUu4Kf2WaPIekwOQNHL4gQZTK0IxM-q5gjmMg7Z5bXIuHXwGpvmIFNKiW29Wgkxo_hdqEL8zmHFYzXH01JkPqbZtKo-GAn2HdbYiyMEcS1OVFCPGupBOg5bPG86CijxZ16ELgHYOfB2rlZXp5qOVZjllOookaCju2RaCgTpgY9HwFZqQ3jEGcX6zRX8fXVdOpsHrTjSqfiAbECZaQPKnrgBL47Nv-sTpk-Eddd5XE7cJFHrEK3PmAnHyDXs_h7pA1UeJRGdSgLC8vwfv5JhEXBx-Guf40Znlhz47OiAsSDzFkCRUfDVJo5kLucbX8hDwQOodIUKCizIQmk_0E_y1QyuicJsjrGFwZ9OJopOkNB903cGMgirBEGvjLp9JJcq9zAj8knkKMllOd8dhQBbDNjyutPXTxN_VsTDawGoZzHGfP_nH3pMYQOG0XMriG6pVPX_vrNr6dRnzOD8GzgIaEgVUYTj34MBa-cbQfS1UTm0AVjk6U4SWuzCYwSo77oKctk3kdkJKuevug42qiXnT8jm-rh0amgeYBy13KFdDnYHMDDVU945491NzG54SJ3El1M4nse-QRpUxux8MA9t7WzB5IPmrh8NAqDeza07xzMw4ytAuLP18bkYeX349H6vpi_8K5brwbFNM_osEXEk1ZyHuNAsLHRmeod1cQyQ62sCh-awJQMfcy93yA8cIY5VOarnEIf33-Ffw76j15MhvRTcjsmoAA2r6R0MOwjaOdrg5NQfpIDknxzRL7QIIlynbpulutUNhs4tuVQB5Mg85k460Tx8LLULQL04ydhDga3gpu0YYlIiCFeJcLI9gOsN7fslFLS-5NV4E5HTAWY_UJI9Xj8mP2Mt6jVQWx-0000]--></g></svg>