<svg xmlns="http://www.w3.org/2000/svg" xmlns:xlink="http://www.w3.org/1999/xlink" contentStyleType="text/css" height="1347px" preserveAspectRatio="none" style="width:1525px;height:1347px;background:#FFFFFF;" version="1.1" viewBox="0 0 1525 1347" width="1525px" zoomAndPan="magnify"><title>Cruise Set To Longitudinal Signal Flow</title><defs/><g><text fill="#000000" font-family="Arial" font-size="22" font-weight="bold" lengthAdjust="spacing" textLength="408.2246" x="556.9174" y="35.9956">Cruise Set To Longitudinal Signal Flow</text><text fill="#000000" font-family="Arial" font-size="22" font-weight="bold" lengthAdjust="spacing" textLength="466.3076" x="527.8759" y="61.2935">(Input_Console -&gt; SCC -&gt; VCU -&gt; ESC / CLU)</text><rect fill="#FFFFFF" height="72.2979" style="stroke:#000000;stroke-width:1;" width="10" x="372.8979" y="232.1914"/><rect fill="#FFFFFF" height="204.8936" style="stroke:#000000;stroke-width:1;" width="10" x="648.877" y="306.4893"/><rect fill="#FFFFFF" height="348.085" style="stroke:#000000;stroke-width:1;" width="10" x="891.3667" y="511.3828"/><rect fill="#FFFFFF" height="170.5425" style="stroke:#000000;stroke-width:1;" width="10" x="1094.7603" y="859.4678"/><rect fill="#FFFFFF" height="84.9468" style="stroke:#000000;stroke-width:1;" width="10" x="1439.999" y="1032.0103"/><line style="stroke:#000000;stroke-width:1;" x1="61" x2="61" y1="162.8936" y2="1257.4995"/><line style="stroke:#000000;stroke-width:1;" x1="377.698" x2="377.698" y1="162.8936" y2="1257.4995"/><line style="stroke:#000000;stroke-width:1;" x1="653.2458" x2="653.2458" y1="162.8936" y2="1257.4995"/><line style="stroke:#000000;stroke-width:1;" x1="895.5176" x2="895.5176" y1="162.8936" y2="1257.4995"/><line style="stroke:#000000;stroke-width:1;" x1="1099.5676" x2="1099.5676" y1="162.8936" y2="1257.4995"/><line style="stroke:#000000;stroke-width:1;" x1="1444.9387" x2="1444.9387" y1="162.8936" y2="1257.4995"/><text fill="#000000" font-family="Arial" font-size="11" lengthAdjust="spacing" textLength="29.3315" x="43.9373" y="148.0935">Driver</text><text fill="#000000" font-family="Arial" font-size="11" lengthAdjust="spacing" textLength="75.2061" x="21" y="160.7424">(Input Console)</text><ellipse cx="61.603" cy="85.5957" fill="#F4F7FB" rx="8" ry="8" style="stroke:#000000;stroke-width:1;"/><path d="M61.603,93.5957 L61.603,120.5957 M48.603,101.5957 L74.603,101.5957 M61.603,120.5957 L48.603,135.5957 M61.603,120.5957 L74.603,135.5957 " fill="none" style="stroke:#000000;stroke-width:1;"/><text fill="#000000" font-family="Arial" font-size="11" lengthAdjust="spacing" textLength="29.3315" x="43.9373" y="1266.9973">Driver</text><text fill="#000000" font-family="Arial" font-size="11" lengthAdjust="spacing" textLength="75.2061" x="21" y="1279.6462">(Input Console)</text><ellipse cx="61.603" cy="1290.7974" fill="#F4F7FB" rx="8" ry="8" style="stroke:#000000;stroke-width:1;"/><path d="M61.603,1298.7974 L61.603,1325.7974 M48.603,1306.7974 L74.603,1306.7974 M61.603,1325.7974 L48.603,1340.7974 M61.603,1325.7974 L74.603,1340.7974 " fill="none" style="stroke:#000000;stroke-width:1;"/><rect fill="#E8F0FE" height="39.2979" rx="2.5" ry="2.5" style="stroke:#000000;stroke-width:1;" width="94.3999" x="330.698" y="122.5957"/><text fill="#000000" font-family="Arial" font-size="11" lengthAdjust="spacing" textLength="70.9414" x="342.4272" y="140.0935">Input_Console</text><text fill="#000000" font-family="Arial" font-size="11" lengthAdjust="spacing" textLength="80.3999" x="337.698" y="152.7424">Vehicle &gt; Cruise</text><rect fill="#E8F0FE" height="39.2979" rx="2.5" ry="2.5" style="stroke:#000000;stroke-width:1;" width="94.3999" x="330.698" y="1256.4995"/><text fill="#000000" font-family="Arial" font-size="11" lengthAdjust="spacing" textLength="70.9414" x="342.4272" y="1273.9973">Input_Console</text><text fill="#000000" font-family="Arial" font-size="11" lengthAdjust="spacing" textLength="80.3999" x="337.698" y="1286.6462">Vehicle &gt; Cruise</text><rect fill="#FCE8FF" height="39.2979" rx="2.5" ry="2.5" style="stroke:#000000;stroke-width:1;" width="103.2622" x="602.2458" y="122.5957"/><text fill="#000000" font-family="Arial" font-size="11" lengthAdjust="spacing" textLength="23.2246" x="642.2646" y="140.0935">SCC</text><text fill="#000000" font-family="Arial" font-size="11" lengthAdjust="spacing" textLength="89.2622" x="609.2458" y="152.7424">cruise state owner</text><rect fill="#FCE8FF" height="39.2979" rx="2.5" ry="2.5" style="stroke:#000000;stroke-width:1;" width="103.2622" x="602.2458" y="1256.4995"/><text fill="#000000" font-family="Arial" font-size="11" lengthAdjust="spacing" textLength="23.2246" x="642.2646" y="1273.9973">SCC</text><text fill="#000000" font-family="Arial" font-size="11" lengthAdjust="spacing" textLength="89.2622" x="609.2458" y="1286.6462">cruise state owner</text><rect fill="#E8F7E8" height="39.2979" rx="2.5" ry="2.5" style="stroke:#000000;stroke-width:1;" width="135.6982" x="828.5176" y="122.5957"/><text fill="#000000" font-family="Arial" font-size="11" lengthAdjust="spacing" textLength="23.2246" x="884.7544" y="140.0935">VCU</text><text fill="#000000" font-family="Arial" font-size="11" lengthAdjust="spacing" textLength="121.6982" x="835.5176" y="152.7424">longitudinal speed owner</text><rect fill="#E8F7E8" height="39.2979" rx="2.5" ry="2.5" style="stroke:#000000;stroke-width:1;" width="135.6982" x="828.5176" y="1256.4995"/><text fill="#000000" font-family="Arial" font-size="11" lengthAdjust="spacing" textLength="23.2246" x="884.7544" y="1273.9973">VCU</text><text fill="#000000" font-family="Arial" font-size="11" lengthAdjust="spacing" textLength="121.6982" x="835.5176" y="1286.6462">longitudinal speed owner</text><rect fill="#FFE6E6" height="39.2979" rx="2.5" ry="2.5" style="stroke:#000000;stroke-width:1;" width="120.3853" x="1039.5676" y="122.5957"/><text fill="#000000" font-family="Arial" font-size="11" lengthAdjust="spacing" textLength="22.6177" x="1088.4514" y="140.0935">ESC</text><text fill="#000000" font-family="Arial" font-size="11" lengthAdjust="spacing" textLength="106.3853" x="1046.5676" y="152.7424">brake pressure owner</text><rect fill="#FFE6E6" height="39.2979" rx="2.5" ry="2.5" style="stroke:#000000;stroke-width:1;" width="120.3853" x="1039.5676" y="1256.4995"/><text fill="#000000" font-family="Arial" font-size="11" lengthAdjust="spacing" textLength="22.6177" x="1088.4514" y="1273.9973">ESC</text><text fill="#000000" font-family="Arial" font-size="11" lengthAdjust="spacing" textLength="106.3853" x="1046.5676" y="1286.6462">brake pressure owner</text><rect fill="#E8F0FE" height="39.2979" rx="2.5" ry="2.5" style="stroke:#000000;stroke-width:1;" width="116.1206" x="1386.9387" y="122.5957"/><text fill="#000000" font-family="Arial" font-size="11" lengthAdjust="spacing" textLength="22.0054" x="1433.9963" y="140.0935">CLU</text><text fill="#000000" font-family="Arial" font-size="11" lengthAdjust="spacing" textLength="102.1206" x="1393.9387" y="152.7424">speed / set readback</text><rect fill="#E8F0FE" height="39.2979" rx="2.5" ry="2.5" style="stroke:#000000;stroke-width:1;" width="116.1206" x="1386.9387" y="1256.4995"/><text fill="#000000" font-family="Arial" font-size="11" lengthAdjust="spacing" textLength="22.0054" x="1433.9963" y="1273.9973">CLU</text><text fill="#000000" font-family="Arial" font-size="11" lengthAdjust="spacing" textLength="102.1206" x="1393.9387" y="1286.6462">speed / set readback</text><rect fill="#FFFFFF" height="72.2979" style="stroke:#000000;stroke-width:1;" width="10" x="372.8979" y="232.1914"/><rect fill="#FFFFFF" height="204.8936" style="stroke:#000000;stroke-width:1;" width="10" x="648.877" y="306.4893"/><rect fill="#FFFFFF" height="348.085" style="stroke:#000000;stroke-width:1;" width="10" x="891.3667" y="511.3828"/><rect fill="#FFFFFF" height="170.5425" style="stroke:#000000;stroke-width:1;" width="10" x="1094.7603" y="859.4678"/><rect fill="#FFFFFF" height="84.9468" style="stroke:#000000;stroke-width:1;" width="10" x="1439.999" y="1032.0103"/><rect fill="#FFFFFF" height="3" style="stroke:#FFFFFF;stroke-width:1;" width="1513.0593" x="5" y="192.218"/><line style="stroke:#000000;stroke-width:0.5;" x1="5" x2="1518.0593" y1="192.218" y2="192.218"/><line style="stroke:#000000;stroke-width:0.5;" x1="5" x2="1518.0593" y1="195.218" y2="195.218"/><rect fill="#FFFFFF" height="20.6489" style="stroke:#000000;stroke-width:1;" width="81.2246" x="720.9174" y="182.8936"/><text fill="#000000" font-family="Arial" font-size="11" font-weight="bold" lengthAdjust="spacing" textLength="64.1685" x="726.9174" y="197.3914">Cruise Input</text><polygon fill="#000000" points="360.8979,228.1914,370.8979,232.1914,360.8979,236.1914,364.8979,232.1914" style="stroke:#000000;stroke-width:1;"/><line style="stroke:#000000;stroke-width:1;" x1="61.603" x2="366.8979" y1="232.1914" y2="232.1914"/><text fill="#000000" font-family="Arial" font-size="11" lengthAdjust="spacing" textLength="179.1636" x="127.6687" y="228.0403">Select cruise mode and target speed</text><line style="stroke:#000000;stroke-width:1;" x1="382.8979" x2="424.8979" y1="258.8403" y2="258.8403"/><line style="stroke:#000000;stroke-width:1;" x1="424.8979" x2="424.8979" y1="258.8403" y2="271.8403"/><line style="stroke:#000000;stroke-width:1;" x1="383.8979" x2="424.8979" y1="271.8403" y2="271.8403"/><polygon fill="#000000" points="393.8979,267.8403,383.8979,271.8403,393.8979,275.8403,389.8979,271.8403" style="stroke:#000000;stroke-width:1;"/><text fill="#000000" font-family="Arial" font-size="11" lengthAdjust="spacing" textLength="136.3076" x="389.8979" y="254.6892">Write Cmd::cruiseStateCmd</text><line style="stroke:#000000;stroke-width:1;" x1="382.8979" x2="424.8979" y1="303.4893" y2="303.4893"/><line style="stroke:#000000;stroke-width:1;" x1="424.8979" x2="424.8979" y1="303.4893" y2="316.4893"/><line style="stroke:#000000;stroke-width:1;" x1="377.8979" x2="424.8979" y1="316.4893" y2="316.4893"/><polygon fill="#000000" points="387.8979,312.4893,377.8979,316.4893,387.8979,320.4893,383.8979,316.4893" style="stroke:#000000;stroke-width:1;"/><text fill="#000000" font-family="Arial" font-size="11" lengthAdjust="spacing" textLength="158.9414" x="389.8979" y="299.3381">Write Cmd::cruiseSetSpeedCmd</text><rect fill="#FFFFFF" height="3" style="stroke:#FFFFFF;stroke-width:1;" width="1513.0593" x="5" y="338.8137"/><line style="stroke:#000000;stroke-width:0.5;" x1="5" x2="1518.0593" y1="338.8137" y2="338.8137"/><line style="stroke:#000000;stroke-width:0.5;" x1="5" x2="1518.0593" y1="341.8137" y2="341.8137"/><rect fill="#FFFFFF" height="20.6489" style="stroke:#000000;stroke-width:1;" width="137.4707" x="692.7943" y="329.4893"/><text fill="#000000" font-family="Arial" font-size="11" font-weight="bold" lengthAdjust="spacing" textLength="120.4146" x="698.7943" y="343.9871">SCC Cruise Ownership</text><polygon fill="#000000" points="636.877,374.7871,646.877,378.7871,636.877,382.7871,640.877,378.7871" style="stroke:#000000;stroke-width:1;"/><line style="stroke:#000000;stroke-width:1;" x1="377.8979" x2="642.877" y1="378.7871" y2="378.7871"/><text fill="#000000" font-family="Arial" font-size="11" lengthAdjust="spacing" textLength="246.979" x="389.8979" y="374.636">Cmd::cruiseStateCmd / Cmd::cruiseSetSpeedCmd</text><line style="stroke:#000000;stroke-width:1;" x1="658.877" x2="700.877" y1="405.436" y2="405.436"/><line style="stroke:#000000;stroke-width:1;" x1="700.877" x2="700.877" y1="405.436" y2="418.436"/><line style="stroke:#000000;stroke-width:1;" x1="659.877" x2="700.877" y1="418.436" y2="418.436"/><polygon fill="#000000" points="669.877,414.436,659.877,418.436,669.877,422.436,665.877,418.436" style="stroke:#000000;stroke-width:1;"/><text fill="#000000" font-family="Arial" font-size="11" lengthAdjust="spacing" textLength="208.4897" x="665.877" y="401.2849">clamp command and apply speed-limit cap</text><line style="stroke:#000000;stroke-width:1;" x1="658.877" x2="700.877" y1="445.085" y2="445.085"/><line style="stroke:#000000;stroke-width:1;" x1="700.877" x2="700.877" y1="445.085" y2="458.085"/><line style="stroke:#000000;stroke-width:1;" x1="659.877" x2="700.877" y1="458.085" y2="458.085"/><polygon fill="#000000" points="669.877,454.085,659.877,458.085,669.877,462.085,665.877,458.085" style="stroke:#000000;stroke-width:1;"/><text fill="#000000" font-family="Arial" font-size="11" lengthAdjust="spacing" textLength="174.8721" x="665.877" y="440.9338">derive cruiseState / cruiseSetSpeed</text><polygon fill="#000000" points="884.3667,480.7339,894.3667,484.7339,884.3667,488.7339,888.3667,484.7339" style="stroke:#000000;stroke-width:1;"/><line style="stroke:#000000;stroke-width:1;" x1="658.877" x2="890.3667" y1="484.7339" y2="484.7339"/><text fill="#000000" font-family="Arial" font-size="11" lengthAdjust="spacing" textLength="113.7168" x="720.7634" y="480.5828">Powertrain::cruiseState</text><polygon fill="#000000" points="879.3667,507.3828,889.3667,511.3828,879.3667,515.3828,883.3667,511.3828" style="stroke:#000000;stroke-width:1;"/><line style="stroke:#000000;stroke-width:1;" x1="653.877" x2="885.3667" y1="511.3828" y2="511.3828"/><text fill="#000000" font-family="Arial" font-size="11" lengthAdjust="spacing" textLength="136.3506" x="704.4465" y="507.2317">Powertrain::cruiseSetSpeed</text><path d="M658,524.3828 L658,584.3828 L861,584.3828 L861,534.3828 L851,524.3828 L658,524.3828 " fill="#FFFFFF" style="stroke:#000000;stroke-width:1;"/><path d="M851,524.3828 L851,534.3828 L861,534.3828 L851,524.3828 " fill="#FFFFFF" style="stroke:#000000;stroke-width:1;"/><text fill="#000000" font-family="Arial" font-size="11" lengthAdjust="spacing" textLength="100.8853" x="664" y="539.8806">Representative rules</text><text fill="#000000" font-family="Arial" font-size="11" lengthAdjust="spacing" textLength="182.7837" x="664" y="552.5295">- ON/DECEL command normalization</text><text fill="#000000" font-family="Arial" font-size="11" lengthAdjust="spacing" textLength="175.4844" x="664" y="565.1785">- lower bound 30 when cruise active</text><text fill="#000000" font-family="Arial" font-size="11" lengthAdjust="spacing" textLength="138.8052" x="664" y="577.8274">- upper bound by speed limit</text><rect fill="#FFFFFF" height="3" style="stroke:#FFFFFF;stroke-width:1;" width="1513.0593" x="5" y="609.303"/><line style="stroke:#000000;stroke-width:0.5;" x1="5" x2="1518.0593" y1="609.303" y2="609.303"/><line style="stroke:#000000;stroke-width:0.5;" x1="5" x2="1518.0593" y1="612.303" y2="612.303"/><rect fill="#FFFFFF" height="20.6489" style="stroke:#000000;stroke-width:1;" width="169.2192" x="676.92" y="599.9785"/><text fill="#000000" font-family="Arial" font-size="11" font-weight="bold" lengthAdjust="spacing" textLength="152.1631" x="682.92" y="614.4763">VCU Longitudinal Ownership</text><polygon fill="#000000" points="879.3667,645.2764,889.3667,649.2764,879.3667,653.2764,883.3667,649.2764" style="stroke:#000000;stroke-width:1;"/><line style="stroke:#000000;stroke-width:1;" x1="653.877" x2="885.3667" y1="649.2764" y2="649.2764"/><text fill="#000000" font-family="Arial" font-size="11" lengthAdjust="spacing" textLength="200.5459" x="672.3489" y="645.1252">Powertrain::cruiseState / cruiseSetSpeed</text><line style="stroke:#000000;stroke-width:1;" x1="901.3667" x2="943.3667" y1="701.2231" y2="701.2231"/><line style="stroke:#000000;stroke-width:1;" x1="943.3667" x2="943.3667" y1="701.2231" y2="714.2231"/><line style="stroke:#000000;stroke-width:1;" x1="902.3667" x2="943.3667" y1="714.2231" y2="714.2231"/><polygon fill="#000000" points="912.3667,710.2231,902.3667,714.2231,912.3667,718.2231,908.3667,714.2231" style="stroke:#000000;stroke-width:1;"/><text fill="#000000" font-family="Arial" font-size="11" lengthAdjust="spacing" textLength="127.1714" x="919.8447" y="671.7742">manualCruiseActive when</text><text fill="#000000" font-family="Arial" font-size="11" lengthAdjust="spacing" textLength="108.2383" x="929.3113" y="684.4231">ignition on, gear &gt;= D,</text><text fill="#000000" font-family="Arial" font-size="11" lengthAdjust="spacing" textLength="150.1274" x="908.3667" y="697.072">no pedal input, cruise state &gt; 0</text><line style="stroke:#000000;stroke-width:1;" x1="901.3667" x2="943.3667" y1="753.521" y2="753.521"/><line style="stroke:#000000;stroke-width:1;" x1="943.3667" x2="943.3667" y1="753.521" y2="766.521"/><line style="stroke:#000000;stroke-width:1;" x1="902.3667" x2="943.3667" y1="766.521" y2="766.521"/><polygon fill="#000000" points="912.3667,762.521,902.3667,766.521,912.3667,770.521,908.3667,766.521" style="stroke:#000000;stroke-width:1;"/><text fill="#000000" font-family="Arial" font-size="11" lengthAdjust="spacing" textLength="169.3936" x="908.3667" y="736.7209">release manual panel speed target</text><text fill="#000000" font-family="Arial" font-size="11" lengthAdjust="spacing" textLength="138.1768" x="923.9751" y="749.3699">when cruise becomes active</text><line style="stroke:#000000;stroke-width:1;" x1="901.3667" x2="943.3667" y1="793.1699" y2="793.1699"/><line style="stroke:#000000;stroke-width:1;" x1="943.3667" x2="943.3667" y1="793.1699" y2="806.1699"/><line style="stroke:#000000;stroke-width:1;" x1="902.3667" x2="943.3667" y1="806.1699" y2="806.1699"/><polygon fill="#000000" points="912.3667,802.1699,902.3667,806.1699,912.3667,810.1699,908.3667,806.1699" style="stroke:#000000;stroke-width:1;"/><text fill="#000000" font-family="Arial" font-size="11" lengthAdjust="spacing" textLength="122.9014" x="908.3667" y="789.0188">derive speed / drive state</text><polygon fill="#000000" points="1087.7603,828.8188,1097.7603,832.8188,1087.7603,836.8188,1091.7603,832.8188" style="stroke:#000000;stroke-width:1;"/><line style="stroke:#000000;stroke-width:1;" x1="901.3667" x2="1093.7603" y1="832.8188" y2="832.8188"/><text fill="#000000" font-family="Arial" font-size="11" lengthAdjust="spacing" textLength="118.6045" x="941.2612" y="828.6677">frmVehicleStateCanMsg</text><polygon fill="#000000" points="1432.999,855.4678,1442.999,859.4678,1432.999,863.4678,1436.999,859.4678" style="stroke:#000000;stroke-width:1;"/><line style="stroke:#000000;stroke-width:1;" x1="896.3667" x2="1438.999" y1="859.4678" y2="859.4678"/><text fill="#000000" font-family="Arial" font-size="11" lengthAdjust="spacing" textLength="169.979" x="1085.6934" y="855.3167">Chassis::vehicleSpeed / driveState</text><path d="M901,872.4678 L901,932.4678 L1151,932.4678 L1151,882.4678 L1141,872.4678 L901,872.4678 " fill="#FFFFFF" style="stroke:#000000;stroke-width:1;"/><path d="M1141,872.4678 L1141,882.4678 L1151,882.4678 L1141,872.4678 " fill="#FFFFFF" style="stroke:#000000;stroke-width:1;"/><text fill="#000000" font-family="Arial" font-size="11" lengthAdjust="spacing" textLength="99.666" x="907" y="887.9656">Representative logic</text><text fill="#000000" font-family="Arial" font-size="11" lengthAdjust="spacing" textLength="104.5376" x="907" y="900.6145">- manualCruiseActive</text><text fill="#000000" font-family="Arial" font-size="11" lengthAdjust="spacing" textLength="176.1021" x="907" y="913.2634">- gManualVehicleSpeedTarget reset</text><text fill="#000000" font-family="Arial" font-size="11" lengthAdjust="spacing" textLength="229.292" x="907" y="925.9124">- externalSpeedOverride / owner vehicle speed</text><rect fill="#FFFFFF" height="3" style="stroke:#FFFFFF;stroke-width:1;" width="1513.0593" x="5" y="957.3879"/><line style="stroke:#000000;stroke-width:0.5;" x1="5" x2="1518.0593" y1="957.3879" y2="957.3879"/><line style="stroke:#000000;stroke-width:0.5;" x1="5" x2="1518.0593" y1="960.3879" y2="960.3879"/><rect fill="#FFFFFF" height="20.6489" style="stroke:#000000;stroke-width:1;" width="135.0591" x="694.0001" y="948.0635"/><text fill="#000000" font-family="Arial" font-size="11" font-weight="bold" lengthAdjust="spacing" textLength="118.0029" x="700.0001" y="962.5613">Brake / Readback Side</text><polygon fill="#000000" points="1082.7603,993.3613,1092.7603,997.3613,1082.7603,1001.3613,1086.7603,997.3613" style="stroke:#000000;stroke-width:1;"/><line style="stroke:#000000;stroke-width:1;" x1="896.3667" x2="1088.7603" y1="997.3613" y2="997.3613"/><text fill="#000000" font-family="Arial" font-size="11" lengthAdjust="spacing" textLength="118.6045" x="936.2612" y="993.2102">frmVehicleStateCanMsg</text><line style="stroke:#000000;stroke-width:1;" x1="1104.7603" x2="1146.7603" y1="1029.0103" y2="1029.0103"/><line style="stroke:#000000;stroke-width:1;" x1="1146.7603" x2="1146.7603" y1="1029.0103" y2="1042.0103"/><line style="stroke:#000000;stroke-width:1;" x1="1099.7603" x2="1146.7603" y1="1042.0103" y2="1042.0103"/><polygon fill="#000000" points="1109.7603,1038.0103,1099.7603,1042.0103,1109.7603,1046.0103,1105.7603,1042.0103" style="stroke:#000000;stroke-width:1;"/><text fill="#000000" font-family="Arial" font-size="11" lengthAdjust="spacing" textLength="311.2388" x="1111.7603" y="1024.8591">update brake response only if brake pedal or assist floor applies</text><polygon fill="#000000" points="1427.999,1059.6592,1437.999,1063.6592,1427.999,1067.6592,1431.999,1063.6592" style="stroke:#000000;stroke-width:1;"/><line style="stroke:#000000;stroke-width:1;" x1="653.877" x2="1433.999" y1="1063.6592" y2="1063.6592"/><text fill="#000000" font-family="Arial" font-size="11" lengthAdjust="spacing" textLength="184.6582" x="954.6089" y="1059.5081">Powertrain::cruiseSetSpeed readback</text><polygon fill="#000000" points="1427.999,1086.3081,1437.999,1090.3081,1427.999,1094.3081,1431.999,1090.3081" style="stroke:#000000;stroke-width:1;"/><line style="stroke:#000000;stroke-width:1;" x1="896.3667" x2="1433.999" y1="1090.3081" y2="1090.3081"/><text fill="#000000" font-family="Arial" font-size="11" lengthAdjust="spacing" textLength="111.2837" x="1112.541" y="1086.157">Chassis::vehicleSpeed</text><polygon fill="#000000" points="388.8979,1112.957,378.8979,1116.957,388.8979,1120.957,384.8979,1116.957" style="stroke:#000000;stroke-width:1;"/><line style="stroke:#000000;stroke-width:1;" x1="382.8979" x2="1443.999" y1="1116.957" y2="1116.957"/><text fill="#000000" font-family="Arial" font-size="11" lengthAdjust="spacing" textLength="158.9683" x="831.9644" y="1112.8059">meter / live set / speed readback</text><polygon fill="#000000" points="72.603,1124.957,62.603,1128.957,72.603,1132.957,68.603,1128.957" style="stroke:#000000;stroke-width:1;"/><line style="stroke:#000000;stroke-width:1;" x1="66.603" x2="376.8979" y1="1128.957" y2="1128.957"/><text fill="#000000" font-family="Arial" font-size="11" lengthAdjust="spacing" textLength="292.2949" x="73.603" y="1140.4548">Cruise set and vehicle speed move in one longitudinal chain</text><path d="M10,1156.606 L10,1241.606 L1497,1241.606 L1497,1166.606 L1487,1156.606 L10,1156.606 " fill="#FFFFFF" style="stroke:#000000;stroke-width:1;"/><path d="M1487,1156.606 L1487,1166.606 L1497,1166.606 L1487,1156.606 " fill="#FFFFFF" style="stroke:#000000;stroke-width:1;"/><text fill="#000000" font-family="Arial" font-size="11" lengthAdjust="spacing" textLength="143.0752" x="595.5614" y="1172.1038">Representative runtime chain</text><text fill="#000000" font-family="Arial" font-size="11" lengthAdjust="spacing" textLength="200.5352" x="595.5614" y="1184.7527">1. Driver sets cruise mode and set-speed</text><text fill="#000000" font-family="Arial" font-size="11" lengthAdjust="spacing" textLength="264.7412" x="595.5614" y="1197.4016">2. SCC owns cruise state and set-speed normalization</text><text fill="#000000" font-family="Arial" font-size="11" lengthAdjust="spacing" textLength="204.2358" x="595.5614" y="1210.0505">3. VCU owns longitudinal speed response</text><text fill="#000000" font-family="Arial" font-size="11" lengthAdjust="spacing" textLength="306.9365" x="595.5614" y="1222.6995">4. ESC follows downstream brake dynamics only when needed</text><text fill="#000000" font-family="Arial" font-size="11" lengthAdjust="spacing" textLength="277.0088" x="595.5614" y="1235.3484">5. CLU and panel show live set-speed and vehicle speed</text><!--SRC=[ZLPjRzis4FwkNt5Blgn0R2ThrnR6721HR610qXHrctqnCD3IMIP2aHf9nMj__Uv8of5Y5qk0m91upxqyzznHl_WjrWYD4b9dxb7gHbXHmreKZvKrhIvpeuo5qqNuwrcKk16jyWkZ_IT17gwi5Ehu-LB-GBYuw1qw_AT5NU0TEYSgl5Aoqb2WzcXxLXPTOxJhhAvHcTsLjMO7thQOPLvwXP3RLZg49NhuQk3Mw4hwjfHQA5YIM_fP46wbV_rJDwt_EoUFXc2ZIrZcEVyyvD_uPxxCOGBvxRStMIOAJqMVt5ZvXBQ3GeA-EG7X89uHCUyM7nRN6MNiPI4ReJsS32Ajz0DkPK4XBrEk0VzPQ5HmEl-uE5_CXt3AQwMBM9RpmYEOdKORO9ppwI8ds688eYfMMlMhTmrYsODodHplm_pZ44gLh_JQYaVI0N7kMjkFoBnG- -Vlv- -7CA9gfMEG2NNKKxz4oS89C3hTLvVDPbsR8fEpMPOb0edvICMKMgYmy90ghqs987G9NjYAl8T8t1dvn9G4K1QXFHz_MKc7ULrEfz7FaWcavzUOebzo4BOkyKKahe79JtNSCpzkAvjGozwMB9u3iVdqM2wii-DXaoGZib2YRg0mTSqqXF-cKTyZ4oCbQqbaYMO8Af5vXLv0YZOCbFM4FuNFPeVMMvh_GPh_QzGvquP2M5bjFPXD8E0BieneceNdL6ohq6KZkFyqkPddyzjzHThOMYZvWyoC9WF5GM3DMmVUdiDkYxeJGo0OoQPjchtDEb41WOeCWqlAlDSxJeSxnrKCLiDF-aTshsBdaDEqHIAAock5YbAv2gc7QbQQ5fBaQi7eCwXGMBYSmStPIci33PQKcEG1EOF1-5_2-T2_fKaHF2CX3ZH1SP6BE2qhtMTlZKGvkex5WQkabswEo_WK5D1RZ5FOs3hjiQXYeUzSrPdmi9FIjy8vwQRJfsJOznb5DHGBi_r2BCfKig0-7p98BwkxyFQXv_vhN0ximfC5_ajN2FKtdDtJVh6ov6Q5TGOfhxHAZkc5CsAzN8TjE84lQQNHLK9-1b8XMbx349_jJTgcP6ZSjTtrHbgWePQRz3hAWAwVGAQ7ZJByG9ClQOnwkN82p-bG2phbncxyV6JtY_eLxSluhBSqQoI2YHWLP4BCJv9qzZvx6N9EtPx_OxJtaLOeetaD3Bf2QvySInuG5aDlOeijVw941Hds61sVXIW7AqTxIHyb4NCnxcvh2kaExXTwEOgA-6qSbYY9nGq7S63sOc-z7OT92g0Zzs_NvUpTE8XWOnJjEGSb0ponLgU-bz-rg6NXeXp2-6foG6dzFWuTuYJIf6_f6wZhG4hgWCbdVVy7]--></g></svg>