<svg xmlns="http://www.w3.org/2000/svg" xmlns:xlink="http://www.w3.org/1999/xlink" contentStyleType="text/css" height="998px" preserveAspectRatio="none" style="width:1000px;height:998px;background:#FFFFFF;" version="1.1" viewBox="0 0 1000 998" width="1000px" zoomAndPan="magnify"><title>Digital Key And Signal Bars To PAK Proximity Latency Signal Flow</title><defs/><g><text fill="#000000" font-family="Arial" font-size="22" font-weight="bold" lengthAdjust="spacing" textLength="699.2412" x="149.2021" y="35.9956">Digital Key And Signal Bars To PAK Proximity Latency Signal Flow</text><text fill="#000000" font-family="Arial" font-size="22" font-weight="bold" lengthAdjust="spacing" textLength="967.6455" x="15" y="61.2935">(digital-key + TMU signal bars + vehicle state -&gt; PAK proximity and sync-latency publication)</text><rect fill="#FFFFFF" height="575.2231" style="stroke:#000000;stroke-width:1;" width="10" x="484.3052" y="277.436"/><line style="stroke:#000000;stroke-width:1;" x1="98.1589" x2="98.1589" y1="116.8936" y2="953.9038"/><line style="stroke:#000000;stroke-width:1;" x1="219.2981" x2="219.2981" y1="116.8936" y2="953.9038"/><line style="stroke:#000000;stroke-width:1;" x1="345.8142" x2="345.8142" y1="116.8936" y2="953.9038"/><line style="stroke:#000000;stroke-width:1;" x1="488.4722" x2="488.4722" y1="116.8936" y2="953.9038"/><line style="stroke:#000000;stroke-width:1;" x1="743.4941" x2="743.4941" y1="116.8936" y2="953.9038"/><line style="stroke:#000000;stroke-width:1;" x1="898.8982" x2="898.8982" y1="116.8936" y2="953.9038"/><rect fill="#F4F7FB" height="26.6489" rx="2.5" ry="2.5" style="stroke:#000000;stroke-width:1;" width="86.1392" x="55.1589" y="89.2446"/><text fill="#000000" font-family="Arial" font-size="11" lengthAdjust="spacing" textLength="72.1392" x="62.1589" y="106.7424">Digital-key bus</text><rect fill="#F4F7FB" height="26.6489" rx="2.5" ry="2.5" style="stroke:#000000;stroke-width:1;" width="86.1392" x="55.1589" y="952.9038"/><text fill="#000000" font-family="Arial" font-size="11" lengthAdjust="spacing" textLength="72.1392" x="62.1589" y="970.4016">Digital-key bus</text><rect fill="#E8F0FE" height="26.6489" rx="2.5" ry="2.5" style="stroke:#000000;stroke-width:1;" width="96.5161" x="171.2981" y="89.2446"/><text fill="#000000" font-family="Arial" font-size="11" lengthAdjust="spacing" textLength="82.5161" x="178.2981" y="106.7424">TMU service bus</text><rect fill="#E8F0FE" height="26.6489" rx="2.5" ry="2.5" style="stroke:#000000;stroke-width:1;" width="96.5161" x="171.2981" y="952.9038"/><text fill="#000000" font-family="Arial" font-size="11" lengthAdjust="spacing" textLength="82.5161" x="178.2981" y="970.4016">TMU service bus</text><rect fill="#FCE8FF" height="26.6489" rx="2.5" ry="2.5" style="stroke:#000000;stroke-width:1;" width="97.7729" x="297.8142" y="89.2446"/><text fill="#000000" font-family="Arial" font-size="11" lengthAdjust="spacing" textLength="83.7729" x="304.8142" y="106.7424">Vehicle state bus</text><rect fill="#FCE8FF" height="26.6489" rx="2.5" ry="2.5" style="stroke:#000000;stroke-width:1;" width="97.7729" x="297.8142" y="952.9038"/><text fill="#000000" font-family="Arial" font-size="11" lengthAdjust="spacing" textLength="83.7729" x="304.8142" y="970.4016">Vehicle state bus</text><rect fill="#E8F7E8" height="39.2979" rx="2.5" ry="2.5" style="stroke:#000000;stroke-width:1;" width="113.666" x="432.4722" y="76.5957"/><text fill="#000000" font-family="Arial" font-size="11" lengthAdjust="spacing" textLength="22.0107" x="478.2998" y="94.0935">PAK</text><text fill="#000000" font-family="Arial" font-size="11" lengthAdjust="spacing" textLength="99.666" x="439.4722" y="106.7424">phone-as-key owner</text><rect fill="#E8F7E8" height="39.2979" rx="2.5" ry="2.5" style="stroke:#000000;stroke-width:1;" width="113.666" x="432.4722" y="952.9038"/><text fill="#000000" font-family="Arial" font-size="11" lengthAdjust="spacing" textLength="22.0107" x="478.2998" y="970.4016">PAK</text><text fill="#000000" font-family="Arial" font-size="11" lengthAdjust="spacing" textLength="99.666" x="439.4722" y="983.0505">phone-as-key owner</text><rect fill="#FFF4CC" height="26.6489" rx="2.5" ry="2.5" style="stroke:#000000;stroke-width:1;" width="83.7061" x="702.4941" y="89.2446"/><text fill="#000000" font-family="Arial" font-size="11" lengthAdjust="spacing" textLength="69.7061" x="709.4941" y="106.7424">PAK state bus</text><rect fill="#FFF4CC" height="26.6489" rx="2.5" ry="2.5" style="stroke:#000000;stroke-width:1;" width="83.7061" x="702.4941" y="952.9038"/><text fill="#000000" font-family="Arial" font-size="11" lengthAdjust="spacing" textLength="69.7061" x="709.4941" y="970.4016">PAK state bus</text><rect fill="#FFF4CC" height="39.2979" rx="2.5" ry="2.5" style="stroke:#000000;stroke-width:1;" width="88.5884" x="854.8982" y="76.5957"/><text fill="#000000" font-family="Arial" font-size="11" lengthAdjust="spacing" textLength="56.8477" x="870.7686" y="94.0935">Observers /</text><text fill="#000000" font-family="Arial" font-size="11" lengthAdjust="spacing" textLength="74.5884" x="861.8982" y="106.7424">access readers</text><rect fill="#FFF4CC" height="39.2979" rx="2.5" ry="2.5" style="stroke:#000000;stroke-width:1;" width="88.5884" x="854.8982" y="952.9038"/><text fill="#000000" font-family="Arial" font-size="11" lengthAdjust="spacing" textLength="56.8477" x="870.7686" y="970.4016">Observers /</text><text fill="#000000" font-family="Arial" font-size="11" lengthAdjust="spacing" textLength="74.5884" x="861.8982" y="983.0505">access readers</text><rect fill="#FFFFFF" height="575.2231" style="stroke:#000000;stroke-width:1;" width="10" x="484.3052" y="277.436"/><rect fill="#FFFFFF" height="3" style="stroke:#FFFFFF;stroke-width:1;" width="918.3276" x="40.1589" y="146.218"/><line style="stroke:#000000;stroke-width:0.5;" x1="40.1589" x2="958.4866" y1="146.218" y2="146.218"/><line style="stroke:#000000;stroke-width:0.5;" x1="40.1589" x2="958.4866" y1="149.218" y2="149.218"/><rect fill="#FFFFFF" height="20.6489" style="stroke:#000000;stroke-width:1;" width="76.3315" x="461.157" y="136.8936"/><text fill="#000000" font-family="Arial" font-size="11" font-weight="bold" lengthAdjust="spacing" textLength="59.2754" x="467.157" y="151.3914">PAK Inputs</text><polygon fill="#000000" points="477.3052,194.8403,487.3052,198.8403,477.3052,202.8403,481.3052,198.8403" style="stroke:#000000;stroke-width:1;"/><line style="stroke:#000000;stroke-width:1;" x1="98.2285" x2="483.3052" y1="198.8403" y2="198.8403"/><text fill="#000000" font-family="Arial" font-size="11" lengthAdjust="spacing" textLength="111.8691" x="237.8323" y="182.0403">frmDigitalKeyStateMsg</text><text fill="#000000" font-family="Arial" font-size="11" lengthAdjust="spacing" textLength="111.896" x="237.8188" y="194.6892">DKeyState / AuthMode</text><polygon fill="#000000" points="477.3052,234.1382,487.3052,238.1382,477.3052,242.1382,481.3052,238.1382" style="stroke:#000000;stroke-width:1;"/><line style="stroke:#000000;stroke-width:1;" x1="219.5562" x2="483.3052" y1="238.1382" y2="238.1382"/><text fill="#000000" font-family="Arial" font-size="11" lengthAdjust="spacing" textLength="121.0269" x="293.9172" y="221.3381">frmTmuServiceStateMsg</text><text fill="#000000" font-family="Arial" font-size="11" lengthAdjust="spacing" textLength="53.1953" x="327.833" y="233.9871">SignalBars</text><polygon fill="#000000" points="472.3052,273.436,482.3052,277.436,472.3052,281.436,476.3052,277.436" style="stroke:#000000;stroke-width:1;"/><line style="stroke:#000000;stroke-width:1;" x1="346.7007" x2="478.3052" y1="277.436" y2="277.436"/><text fill="#000000" font-family="Arial" font-size="11" lengthAdjust="spacing" textLength="118.6045" x="356.2007" y="260.636">frmVehicleStateCanMsg</text><text fill="#000000" font-family="Arial" font-size="11" lengthAdjust="spacing" textLength="57.4707" x="386.7676" y="273.2849">gDriveState</text><line style="stroke:#000000;stroke-width:1;" x1="494.3052" x2="536.3052" y1="304.085" y2="304.085"/><line style="stroke:#000000;stroke-width:1;" x1="536.3052" x2="536.3052" y1="304.085" y2="317.085"/><line style="stroke:#000000;stroke-width:1;" x1="495.3052" x2="536.3052" y1="317.085" y2="317.085"/><polygon fill="#000000" points="505.3052,313.085,495.3052,317.085,505.3052,321.085,501.3052,317.085" style="stroke:#000000;stroke-width:1;"/><text fill="#000000" font-family="Arial" font-size="11" lengthAdjust="spacing" textLength="198.0967" x="501.3052" y="299.9338">dkey/tmu/vehicle staleness lease checks</text><line style="stroke:#000000;stroke-width:1;" x1="494.3052" x2="536.3052" y1="356.3828" y2="356.3828"/><line style="stroke:#000000;stroke-width:1;" x1="536.3052" x2="536.3052" y1="356.3828" y2="369.3828"/><line style="stroke:#000000;stroke-width:1;" x1="495.3052" x2="536.3052" y1="369.3828" y2="369.3828"/><polygon fill="#000000" points="505.3052,365.3828,495.3052,369.3828,505.3052,373.3828,501.3052,369.3828" style="stroke:#000000;stroke-width:1;"/><text fill="#000000" font-family="Arial" font-size="11" lengthAdjust="spacing" textLength="83.1553" x="518.1221" y="339.5828">if stale then clear</text><text fill="#000000" font-family="Arial" font-size="11" lengthAdjust="spacing" textLength="116.7891" x="501.3052" y="352.2317">dkey auth or signal bars</text><line style="stroke:#000000;stroke-width:1;" x1="494.3052" x2="536.3052" y1="408.6807" y2="408.6807"/><line style="stroke:#000000;stroke-width:1;" x1="536.3052" x2="536.3052" y1="408.6807" y2="421.6807"/><line style="stroke:#000000;stroke-width:1;" x1="495.3052" x2="536.3052" y1="421.6807" y2="421.6807"/><polygon fill="#000000" points="505.3052,417.6807,495.3052,421.6807,505.3052,425.6807,501.3052,421.6807" style="stroke:#000000;stroke-width:1;"/><text fill="#000000" font-family="Arial" font-size="11" lengthAdjust="spacing" textLength="118.916" x="501.3052" y="391.8806">ProximityState = 1 when</text><text fill="#000000" font-family="Arial" font-size="11" lengthAdjust="spacing" textLength="78.2729" x="521.6267" y="404.5295">SignalBars &gt;= 2</text><line style="stroke:#000000;stroke-width:1;" x1="494.3052" x2="536.3052" y1="460.9785" y2="460.9785"/><line style="stroke:#000000;stroke-width:1;" x1="536.3052" x2="536.3052" y1="460.9785" y2="473.9785"/><line style="stroke:#000000;stroke-width:1;" x1="495.3052" x2="536.3052" y1="473.9785" y2="473.9785"/><polygon fill="#000000" points="505.3052,469.9785,495.3052,473.9785,505.3052,477.9785,501.3052,473.9785" style="stroke:#000000;stroke-width:1;"/><text fill="#000000" font-family="Arial" font-size="11" lengthAdjust="spacing" textLength="118.916" x="530.5186" y="444.1785">ProximityState = 2 when</text><text fill="#000000" font-family="Arial" font-size="11" lengthAdjust="spacing" textLength="177.3428" x="501.3052" y="456.8274">SignalBars &gt;= 4 and driveState == 0</text><line style="stroke:#000000;stroke-width:1;" x1="494.3052" x2="536.3052" y1="500.6274" y2="500.6274"/><line style="stroke:#000000;stroke-width:1;" x1="536.3052" x2="536.3052" y1="500.6274" y2="513.6274"/><line style="stroke:#000000;stroke-width:1;" x1="495.3052" x2="536.3052" y1="513.6274" y2="513.6274"/><polygon fill="#000000" points="505.3052,509.6274,495.3052,513.6274,505.3052,517.6274,501.3052,513.6274" style="stroke:#000000;stroke-width:1;"/><text fill="#000000" font-family="Arial" font-size="11" lengthAdjust="spacing" textLength="221.042" x="501.3052" y="496.4763">SyncLatency = clamp(200 - bars*30, 20..255)</text><path d="M499.1589,526.6274 L499.1589,599.6274 L659.1589,599.6274 L659.1589,536.6274 L649.1589,526.6274 L499.1589,526.6274 " fill="#FFFFFF" style="stroke:#000000;stroke-width:1;"/><path d="M649.1589,526.6274 L649.1589,536.6274 L659.1589,536.6274 L649.1589,526.6274 " fill="#FFFFFF" style="stroke:#000000;stroke-width:1;"/><text fill="#000000" font-family="Arial" font-size="11" lengthAdjust="spacing" textLength="139.4229" x="505.1589" y="542.1252">Representative gating inputs</text><text fill="#000000" font-family="Arial" font-size="11" lengthAdjust="spacing" textLength="59.3022" x="505.1589" y="554.7742">- DKeyState</text><text fill="#000000" font-family="Arial" font-size="11" lengthAdjust="spacing" textLength="56.8638" x="505.1589" y="567.4231">- AuthMode</text><text fill="#000000" font-family="Arial" font-size="11" lengthAdjust="spacing" textLength="59.9146" x="505.1589" y="580.072">- SignalBars</text><text fill="#000000" font-family="Arial" font-size="11" lengthAdjust="spacing" textLength="64.1899" x="505.1589" y="592.7209">- gDriveState</text><rect fill="#FFFFFF" height="3" style="stroke:#FFFFFF;stroke-width:1;" width="918.3276" x="40.1589" y="624.1965"/><line style="stroke:#000000;stroke-width:0.5;" x1="40.1589" x2="958.4866" y1="624.1965" y2="624.1965"/><line style="stroke:#000000;stroke-width:0.5;" x1="40.1589" x2="958.4866" y1="627.1965" y2="627.1965"/><rect fill="#FFFFFF" height="20.6489" style="stroke:#000000;stroke-width:1;" width="83.0615" x="457.792" y="614.8721"/><text fill="#000000" font-family="Arial" font-size="11" font-weight="bold" lengthAdjust="spacing" textLength="66.0054" x="463.792" y="629.3699">PAK Publish</text><polygon fill="#000000" points="732.3472,685.4678,742.3472,689.4678,732.3472,693.4678,736.3472,689.4678" style="stroke:#000000;stroke-width:1;"/><line style="stroke:#000000;stroke-width:1;" x1="494.3052" x2="738.3472" y1="689.4678" y2="689.4678"/><text fill="#000000" font-family="Arial" font-size="11" lengthAdjust="spacing" textLength="125.9468" x="556.3528" y="660.0188">frmPhoneAsKeyStateMsg</text><text fill="#000000" font-family="Arial" font-size="11" lengthAdjust="spacing" textLength="114.9629" x="561.8447" y="672.6677">PaakState / AuthLevel /</text><text fill="#000000" font-family="Arial" font-size="11" lengthAdjust="spacing" textLength="143.0591" x="547.7966" y="685.3167">ProximityState / SyncLatency</text><path d="M499.1589,702.4678 L499.1589,775.4678 L633.1589,775.4678 L633.1589,712.4678 L623.1589,702.4678 L499.1589,702.4678 " fill="#FFFFFF" style="stroke:#000000;stroke-width:1;"/><path d="M623.1589,702.4678 L623.1589,712.4678 L633.1589,712.4678 L623.1589,702.4678 " fill="#FFFFFF" style="stroke:#000000;stroke-width:1;"/><text fill="#000000" font-family="Arial" font-size="11" lengthAdjust="spacing" textLength="113.126" x="505.1589" y="717.9656">Representative outputs</text><text fill="#000000" font-family="Arial" font-size="11" lengthAdjust="spacing" textLength="57.4761" x="505.1589" y="730.6145">- PaakState</text><text fill="#000000" font-family="Arial" font-size="11" lengthAdjust="spacing" textLength="55.6445" x="505.1589" y="743.2634">- AuthLevel</text><text fill="#000000" font-family="Arial" font-size="11" lengthAdjust="spacing" textLength="77.6284" x="505.1589" y="755.9124">- ProximityState</text><text fill="#000000" font-family="Arial" font-size="11" lengthAdjust="spacing" textLength="69.7007" x="505.1589" y="768.5613">- SyncLatency</text><rect fill="#FFFFFF" height="3" style="stroke:#FFFFFF;stroke-width:1;" width="918.3276" x="40.1589" y="800.0369"/><line style="stroke:#000000;stroke-width:0.5;" x1="40.1589" x2="958.4866" y1="800.0369" y2="800.0369"/><line style="stroke:#000000;stroke-width:0.5;" x1="40.1589" x2="958.4866" y1="803.0369" y2="803.0369"/><rect fill="#FFFFFF" height="20.6489" style="stroke:#000000;stroke-width:1;" width="131.3638" x="433.6409" y="790.7124"/><text fill="#000000" font-family="Arial" font-size="11" font-weight="bold" lengthAdjust="spacing" textLength="114.3076" x="439.6409" y="805.2102">Downstream Visibility</text><polygon fill="#000000" points="887.1924,848.6592,897.1924,852.6592,887.1924,856.6592,891.1924,852.6592" style="stroke:#000000;stroke-width:1;"/><line style="stroke:#000000;stroke-width:1;" x1="744.3472" x2="893.1924" y1="852.6592" y2="852.6592"/><text fill="#000000" font-family="Arial" font-size="11" lengthAdjust="spacing" textLength="81.2969" x="781.1213" y="835.8591">access visibility /</text><text fill="#000000" font-family="Arial" font-size="11" lengthAdjust="spacing" textLength="130.8452" x="756.3472" y="848.5081">PAAK and keyless readers</text><path d="M46.1589,865.6592 L46.1589,938.6592 L949.1589,938.6592 L949.1589,875.6592 L939.1589,865.6592 L46.1589,865.6592 " fill="#FFFFFF" style="stroke:#000000;stroke-width:1;"/><path d="M939.1589,865.6592 L939.1589,875.6592 L949.1589,875.6592 L939.1589,865.6592 " fill="#FFFFFF" style="stroke:#000000;stroke-width:1;"/><text fill="#000000" font-family="Arial" font-size="11" lengthAdjust="spacing" textLength="143.0752" x="324.8772" y="881.157">Representative runtime chain</text><text fill="#000000" font-family="Arial" font-size="11" lengthAdjust="spacing" textLength="320.9766" x="324.8772" y="893.8059">1. Digital-key state, TMU signal bars, and vehicle state reach PAK</text><text fill="#000000" font-family="Arial" font-size="11" lengthAdjust="spacing" textLength="220.7251" x="324.8772" y="906.4548">2. PAK checks freshness and access posture</text><text fill="#000000" font-family="Arial" font-size="11" lengthAdjust="spacing" textLength="231.7144" x="324.8772" y="919.1038">3. PAK derives proximity state and sync latency</text><text fill="#000000" font-family="Arial" font-size="11" lengthAdjust="spacing" textLength="336.8911" x="324.8772" y="931.7527">4. PAK publishes phone-as-key state for downstream access readers</text><!--SRC=[XLLHJzim47xthxZ12mnAIoa28HMfj4IQWArQ6KzzSPDhOZMnCzifOxz-PoSDJeT4NzeuztrttzrtxXUROO5Gvbn8PZP2bbpp0bOytgHQLJAPgbnfE8py9uX8SCsht4PAsk-S62PQyFpZzmln5-7yF7Xfy7U5CiOdD8QdECb5AY56QL47KHfDgQJPHTrXhbudMgjNiBf2ngomES9CfCBo71xm3IOoWGLnqUCTrmQU5Smd3p3NweyeX7s3HsufxzikA2B6fJnAQehUXYXEuFdf5vZw_SgHdC0MCn5JAcC93hrRJrgsf9oocZSPz_A6lQnMkOYv5KeUCqPYh8X5oQM5WrcGQbMP0-06PgxqmsWKNKLttMXV2kgjYB6DTcU7zzVH8Bhl1hzqgjo5qobnJmaGTSD9mrAMcPBOuyRNerubQWzo-boEg_lh_q1x_7E-kQkCDyXeEkr6_rYvuf5ws5zA7iSqHnegJ-Z4O-bz2sJZiK_xJPQLDJ0UC-RxqdJx1jQwQ9f7nmjNmvD9btAsUu8-J2gRFQa4cUjH27mkgaNTndTWRG5d4-Pw58OtdVInKovzU3hJObiVCHvRiNKf2S4SgWKdrCU-BQf-O9aSfHEU8pS8SORnndH1Obs70UqYhG45wgLqJC194D3w1NRiGbjdroqOmpcy4ace3cx7CFm4DVmGDVBEJbhTD1GOT9aMPFlTJesfT5wKHyF107g-rgyNWrCO3ixEXfUNnqmgej0YpIoejM_TJonfnsdjQLMs22bzoHI4Tm3hGJjQ-jsEjWV1u7eGZWMfMfUazTBSxQ79l9bsPTTszMEUE_DFJCTESyutePqUSOkvi-zUp_gXzC-bgSeseje4ZIYVm9rt-9tCWB-ZR4PxQYpjKG4lmeYLoDqbv3NMuaYcswmRQ5Pk-nxbX4oe4swmPB0ys4YMOCVNjIX5w-i7SUeuzsNfIbfHE5Uxlu_pCmYlDtzFdEvVfwS-T_T6fGhYp2STdld1rLj2CqAJ-ULnc4PDgOojDBABEfHAfqfCS1tNdBjB6PfBcOtg-BBsX4E4TryDMjEk9U_jxLvPxrFu1m00]--></g></svg>