<svg xmlns="http://www.w3.org/2000/svg" xmlns:xlink="http://www.w3.org/1999/xlink" contentStyleType="text/css" height="731px" preserveAspectRatio="none" style="width:865px;height:731px;background:#FFFFFF;" version="1.1" viewBox="0 0 865 731" width="865px" zoomAndPan="magnify"><title>DKEY Access To DOOR_FL Unlock Signal Flow</title><defs/><g><text fill="#000000" font-family="Arial" font-size="22" font-weight="bold" lengthAdjust="spacing" textLength="496.3105" x="183.2987" y="35.9956">DKEY Access To DOOR_FL Unlock Signal Flow</text><text fill="#000000" font-family="Arial" font-size="22" font-weight="bold" lengthAdjust="spacing" textLength="642.3398" x="110.2841" y="61.2935">(DKEY + immobilizer + door command -&gt; front-left door state)</text><rect fill="#FFFFFF" height="308.7871" style="stroke:#000000;stroke-width:1;" width="10" x="495.6895" y="277.436"/><line style="stroke:#000000;stroke-width:1;" x1="109" x2="109" y1="116.8936" y2="687.4678"/><line style="stroke:#000000;stroke-width:1;" x1="304.479" x2="304.479" y1="116.8936" y2="687.4678"/><line style="stroke:#000000;stroke-width:1;" x1="500.4714" x2="500.4714" y1="116.8936" y2="687.4678"/><line style="stroke:#000000;stroke-width:1;" x1="778.3704" x2="778.3704" y1="116.8936" y2="687.4678"/><rect fill="#F4F7FB" height="39.2979" rx="2.5" ry="2.5" style="stroke:#000000;stroke-width:1;" width="178.479" x="20" y="76.5957"/><text fill="#000000" font-family="Arial" font-size="11" lengthAdjust="spacing" textLength="164.479" x="27" y="94.0935">Input_Console / command source</text><text fill="#000000" font-family="Arial" font-size="11" lengthAdjust="spacing" textLength="111.2676" x="53.6057" y="106.7424">Door control command</text><rect fill="#F4F7FB" height="39.2979" rx="2.5" ry="2.5" style="stroke:#000000;stroke-width:1;" width="178.479" x="20" y="686.4678"/><text fill="#000000" font-family="Arial" font-size="11" lengthAdjust="spacing" textLength="164.479" x="27" y="703.9656">Input_Console / command source</text><text fill="#000000" font-family="Arial" font-size="11" lengthAdjust="spacing" textLength="111.2676" x="53.6057" y="716.6145">Door control command</text><rect fill="#E8F0FE" height="39.2979" rx="2.5" ry="2.5" style="stroke:#000000;stroke-width:1;" width="152.7998" x="228.479" y="76.5957"/><text fill="#000000" font-family="Arial" font-size="11" lengthAdjust="spacing" textLength="66.3276" x="271.7151" y="94.0935">DKEY + SMK</text><text fill="#000000" font-family="Arial" font-size="11" lengthAdjust="spacing" textLength="138.7998" x="235.479" y="106.7424">access authorization context</text><rect fill="#E8F0FE" height="39.2979" rx="2.5" ry="2.5" style="stroke:#000000;stroke-width:1;" width="152.7998" x="228.479" y="686.4678"/><text fill="#000000" font-family="Arial" font-size="11" lengthAdjust="spacing" textLength="66.3276" x="271.7151" y="703.9656">DKEY + SMK</text><text fill="#000000" font-family="Arial" font-size="11" lengthAdjust="spacing" textLength="138.7998" x="235.479" y="716.6145">access authorization context</text><rect fill="#FFF4CC" height="39.2979" rx="2.5" ry="2.5" style="stroke:#000000;stroke-width:1;" width="112.436" x="444.4714" y="76.5957"/><text fill="#000000" font-family="Arial" font-size="11" lengthAdjust="spacing" textLength="51.9546" x="474.7122" y="94.0935">DOOR_FL</text><text fill="#000000" font-family="Arial" font-size="11" lengthAdjust="spacing" textLength="98.436" x="451.4714" y="106.7424">front-left door owner</text><rect fill="#FFF4CC" height="39.2979" rx="2.5" ry="2.5" style="stroke:#000000;stroke-width:1;" width="112.436" x="444.4714" y="686.4678"/><text fill="#000000" font-family="Arial" font-size="11" lengthAdjust="spacing" textLength="51.9546" x="474.7122" y="703.9656">DOOR_FL</text><text fill="#000000" font-family="Arial" font-size="11" lengthAdjust="spacing" textLength="98.436" x="451.4714" y="716.6145">front-left door owner</text><rect fill="#FCE8FF" height="39.2979" rx="2.5" ry="2.5" style="stroke:#000000;stroke-width:1;" width="96.5376" x="730.3704" y="76.5957"/><text fill="#000000" font-family="Arial" font-size="11" lengthAdjust="spacing" textLength="82.5376" x="737.3704" y="94.0935">Body observers /</text><text fill="#000000" font-family="Arial" font-size="11" lengthAdjust="spacing" textLength="75.2222" x="741.0281" y="106.7424">panel readback</text><rect fill="#FCE8FF" height="39.2979" rx="2.5" ry="2.5" style="stroke:#000000;stroke-width:1;" width="96.5376" x="730.3704" y="686.4678"/><text fill="#000000" font-family="Arial" font-size="11" lengthAdjust="spacing" textLength="82.5376" x="737.3704" y="703.9656">Body observers /</text><text fill="#000000" font-family="Arial" font-size="11" lengthAdjust="spacing" textLength="75.2222" x="741.0281" y="716.6145">panel readback</text><rect fill="#FFFFFF" height="308.7871" style="stroke:#000000;stroke-width:1;" width="10" x="495.6895" y="277.436"/><rect fill="#FFFFFF" height="3" style="stroke:#FFFFFF;stroke-width:1;" width="853.908" x="5" y="146.218"/><line style="stroke:#000000;stroke-width:0.5;" x1="5" x2="858.908" y1="146.218" y2="146.218"/><line style="stroke:#000000;stroke-width:0.5;" x1="5" x2="858.908" y1="149.218" y2="149.218"/><rect fill="#FFFFFF" height="20.6489" style="stroke:#000000;stroke-width:1;" width="78.77" x="392.569" y="136.8936"/><text fill="#000000" font-family="Arial" font-size="11" font-weight="bold" lengthAdjust="spacing" textLength="61.7139" x="398.569" y="151.3914">Door Inputs</text><polygon fill="#000000" points="488.6895,194.8403,498.6895,198.8403,488.6895,202.8403,492.6895,198.8403" style="stroke:#000000;stroke-width:1;"/><line style="stroke:#000000;stroke-width:1;" x1="109.2395" x2="494.6895" y1="198.8403" y2="198.8403"/><text fill="#000000" font-family="Arial" font-size="11" lengthAdjust="spacing" textLength="103.3237" x="253.3026" y="182.0403">door command seam</text><text fill="#000000" font-family="Arial" font-size="11" lengthAdjust="spacing" textLength="125.3398" x="242.2946" y="194.6892">(open / close / lock intent)</text><polygon fill="#000000" points="488.6895,234.1382,498.6895,238.1382,488.6895,242.1382,492.6895,238.1382" style="stroke:#000000;stroke-width:1;"/><line style="stroke:#000000;stroke-width:1;" x1="304.8789" x2="494.6895" y1="238.1382" y2="238.1382"/><text fill="#000000" font-family="Arial" font-size="11" lengthAdjust="spacing" textLength="111.8691" x="346.8496" y="221.3381">frmDigitalKeyStateMsg</text><text fill="#000000" font-family="Arial" font-size="11" lengthAdjust="spacing" textLength="171.8105" x="316.8789" y="233.9871">VehicleAccessState / KeyPresence</text><polygon fill="#000000" points="483.6895,273.436,493.6895,277.436,483.6895,281.436,487.6895,277.436" style="stroke:#000000;stroke-width:1;"/><line style="stroke:#000000;stroke-width:1;" x1="304.8789" x2="489.6895" y1="277.436" y2="277.436"/><text fill="#000000" font-family="Arial" font-size="11" lengthAdjust="spacing" textLength="118.5776" x="340.9954" y="260.636">frmImmobilizerStateMsg</text><text fill="#000000" font-family="Arial" font-size="11" lengthAdjust="spacing" textLength="158.3506" x="321.1089" y="273.2849">ImmobilizerState / KeyAuthState</text><line style="stroke:#000000;stroke-width:1;" x1="505.6895" x2="547.6895" y1="304.085" y2="304.085"/><line style="stroke:#000000;stroke-width:1;" x1="547.6895" x2="547.6895" y1="304.085" y2="317.085"/><line style="stroke:#000000;stroke-width:1;" x1="506.6895" x2="547.6895" y1="317.085" y2="317.085"/><polygon fill="#000000" points="516.6895,313.085,506.6895,317.085,516.6895,321.085,512.6895,317.085" style="stroke:#000000;stroke-width:1;"/><text fill="#000000" font-family="Arial" font-size="11" lengthAdjust="spacing" textLength="232.9175" x="512.6895" y="299.9338">normalize stale command / DKEY / immo inputs</text><line style="stroke:#000000;stroke-width:1;" x1="505.6895" x2="547.6895" y1="356.3828" y2="356.3828"/><line style="stroke:#000000;stroke-width:1;" x1="547.6895" x2="547.6895" y1="356.3828" y2="369.3828"/><line style="stroke:#000000;stroke-width:1;" x1="506.6895" x2="547.6895" y1="369.3828" y2="369.3828"/><polygon fill="#000000" points="516.6895,365.3828,506.6895,369.3828,516.6895,373.3828,512.6895,369.3828" style="stroke:#000000;stroke-width:1;"/><text fill="#000000" font-family="Arial" font-size="11" lengthAdjust="spacing" textLength="155.6167" x="531.491" y="339.5828">accessAuthorized when drive=0</text><text fill="#000000" font-family="Arial" font-size="11" lengthAdjust="spacing" textLength="193.2197" x="512.6895" y="352.2317">and key/access/auth conditions are met</text><line style="stroke:#000000;stroke-width:1;" x1="505.6895" x2="547.6895" y1="396.0317" y2="396.0317"/><line style="stroke:#000000;stroke-width:1;" x1="547.6895" x2="547.6895" y1="396.0317" y2="409.0317"/><line style="stroke:#000000;stroke-width:1;" x1="506.6895" x2="547.6895" y1="409.0317" y2="409.0317"/><polygon fill="#000000" points="516.6895,405.0317,506.6895,409.0317,516.6895,413.0317,512.6895,409.0317" style="stroke:#000000;stroke-width:1;"/><text fill="#000000" font-family="Arial" font-size="11" lengthAdjust="spacing" textLength="243.9497" x="512.6895" y="391.8806">derive DoorFlLockState / OpenState / WindowPos</text><path d="M510,422.0317 L510,495.0317 L664,495.0317 L664,432.0317 L654,422.0317 L510,422.0317 " fill="#FFFFFF" style="stroke:#000000;stroke-width:1;"/><path d="M654,422.0317 L654,432.0317 L664,432.0317 L654,422.0317 " fill="#FFFFFF" style="stroke:#000000;stroke-width:1;"/><text fill="#000000" font-family="Arial" font-size="11" lengthAdjust="spacing" textLength="126.5752" x="516" y="437.5295">Representative conditions</text><text fill="#000000" font-family="Arial" font-size="11" lengthAdjust="spacing" textLength="129.0137" x="516" y="450.1785">- VehicleAccessState &gt;= 1</text><text fill="#000000" font-family="Arial" font-size="11" lengthAdjust="spacing" textLength="97.2222" x="516" y="462.8274">- KeyPresence == 1</text><text fill="#000000" font-family="Arial" font-size="11" lengthAdjust="spacing" textLength="133.2622" x="516" y="475.4763">- immobilizer/key-auth valid</text><text fill="#000000" font-family="Arial" font-size="11" lengthAdjust="spacing" textLength="81.3237" x="516" y="488.1252">- driveState == 0</text><rect fill="#FFFFFF" height="3" style="stroke:#FFFFFF;stroke-width:1;" width="853.908" x="5" y="519.6008"/><line style="stroke:#000000;stroke-width:0.5;" x1="5" x2="858.908" y1="519.6008" y2="519.6008"/><line style="stroke:#000000;stroke-width:0.5;" x1="5" x2="858.908" y1="522.6008" y2="522.6008"/><rect fill="#FFFFFF" height="20.6489" style="stroke:#000000;stroke-width:1;" width="85.5" x="389.204" y="510.2764"/><text fill="#000000" font-family="Arial" font-size="11" font-weight="bold" lengthAdjust="spacing" textLength="68.4438" x="395.204" y="524.7742">Door Publish</text><polygon fill="#000000" points="766.6392,555.5742,776.6392,559.5742,766.6392,563.5742,770.6392,559.5742" style="stroke:#000000;stroke-width:1;"/><line style="stroke:#000000;stroke-width:1;" x1="505.6895" x2="772.6392" y1="559.5742" y2="559.5742"/><text fill="#000000" font-family="Arial" font-size="11" lengthAdjust="spacing" textLength="95.353" x="594.4878" y="555.4231">frmDoorFlStateMsg</text><polygon fill="#000000" points="766.6392,582.2231,776.6392,586.2231,766.6392,590.2231,770.6392,586.2231" style="stroke:#000000;stroke-width:1;"/><line style="stroke:#000000;stroke-width:1;" x1="500.6895" x2="772.6392" y1="586.2231" y2="586.2231"/><text fill="#000000" font-family="Arial" font-size="11" lengthAdjust="spacing" textLength="135.1313" x="572.0986" y="582.072">Body::windowPos readback</text><path d="M32,599.2231 L32,672.2231 L853,672.2231 L853,609.2231 L843,599.2231 L32,599.2231 " fill="#FFFFFF" style="stroke:#000000;stroke-width:1;"/><path d="M843,599.2231 L843,609.2231 L853,609.2231 L843,599.2231 " fill="#FFFFFF" style="stroke:#000000;stroke-width:1;"/><text fill="#000000" font-family="Arial" font-size="11" lengthAdjust="spacing" textLength="143.0752" x="267.5619" y="614.7209">Representative runtime chain</text><text fill="#000000" font-family="Arial" font-size="11" lengthAdjust="spacing" textLength="297.7197" x="267.5619" y="627.3699">1. Door command arrives with DKEY and immobilizer context</text><text fill="#000000" font-family="Arial" font-size="11" lengthAdjust="spacing" textLength="341.7842" x="267.5619" y="640.0188">2. DOOR_FL validates access authorization in park/manual conditions</text><text fill="#000000" font-family="Arial" font-size="11" lengthAdjust="spacing" textLength="219.4897" x="267.5619" y="652.6677">3. DOOR_FL derives lock/open/window state</text><text fill="#000000" font-family="Arial" font-size="11" lengthAdjust="spacing" textLength="336.311" x="267.5619" y="665.3167">4. Body observers and panel readback reflect the resulting door state</text><!--SRC=[RLJlJzim4Ftkl-86NuQs4heXRK8gKcc9X80LqVtGf4h8JQwfLSVkRAS1_lgTRKBIgFcKs7Slz-wzkmzkZIN2LdAXcDq8jUM6bx3asQOmkbBvH4jju3WDJoSYnnMlf4krSZyu8OoDuFBm_Loy8Wo7dKkB_ofK6TwZjRp0iHI5WWoLGzE9CcYtMjacwWgbhiV6w1gSgP0n9vn4cDvU_uLnbb4G_DGmdSqUdz8x-AMapZOm9sGk8QNKXVeOOZ-1A4kz59BAClILQoAOwRBaAeV19QmCrJoGk7BnoZhky8GnAig9J6ovSd1qexQLUvfGUPfgIDxphQvCXWirZQ3A6IsRooFW5YPbJjqyJx-bL_k8RxNDxsyNYaSwl79hRSGhTqAhW8RFBg2CwGQEhx-dP-br3oRoNwW-3LqhD24vrEOLFPzCzfElTFu2UcdHxD1OI1QaX499Il3SMoAapvQMiYVqyvInqIZ2XNvO68qOymofZU7uOh-x5db9CkWjAjypgQtlNH1A43dbJbXWrgQlJ3aLXN1StkBBt2jnRuk5-erhaKcCieTZmg681_ACDzO1c9jMz1QdVnXHV7BuP3npOkVFFGuBO2seqgRaFjTRX5pGi4oY9vFWCoBcEzFFZGgFtmJ67EerzIGtOeUZCp80mMpm9ObXYJU2rpyNtWba38DGekk3vkZpmrSgxwYh3QSPDRnv_oDKhki7RPdIT614iNQWLv7X8sv31odM8xM_P0CuqFFB4GpffjDuSa0uwenOGaG6WS6EkfNJPQ0P4IZyZ26nzSMqTdgebbBOTV1JGzBxBXeYy6j4xDrx2rzSr0t9T-ko7FV5ZFGr6TtFv6UVtgTlAkK4xRPixRVZy1IcNJDpusbOg0LH2uhxq-vkUPjOzkNqVIs55b0D5WxEk5100xb9w0SLbzt-Vsqneimsp4tYPoc9TEEcOkUdq9jZNzV-8DFBIcBcWDQ_txEqgOKgElkkrUG_]--></g></svg>