<svg xmlns="http://www.w3.org/2000/svg" xmlns:xlink="http://www.w3.org/1999/xlink" contentStyleType="text/css" height="1274px" preserveAspectRatio="none" style="width:1099px;height:1274px;background:#FFFFFF;" version="1.1" viewBox="0 0 1099 1274" width="1099px" zoomAndPan="magnify"><title>Failsafe Blocked Context To Diag Path Signal Flow</title><defs/><g><text fill="#000000" font-family="Arial" font-size="22" font-weight="bold" lengthAdjust="spacing" textLength="530.5244" x="282.7925" y="35.9956">Failsafe Blocked Context To Diag Path Signal Flow</text><text fill="#000000" font-family="Arial" font-size="22" font-weight="bold" lengthAdjust="spacing" textLength="438.8721" x="328.6187" y="61.2935">(TEST_SCN -&gt; CGW -&gt; IVI / Test evidence)</text><rect fill="#FFFFFF" height="39.2979" style="stroke:#000000;stroke-width:1;" width="10" x="247.7051" y="244.8403"/><rect fill="#FFFFFF" height="496.6274" style="stroke:#000000;stroke-width:1;" width="10" x="422.2295" y="284.1382"/><rect fill="#FFFFFF" height="132.2446" style="stroke:#000000;stroke-width:1;" width="10" x="626.2192" y="780.7656"/><rect fill="#FFFFFF" height="162.5425" style="stroke:#000000;stroke-width:1;" width="10" x="850.7104" y="913.0103"/><line style="stroke:#000000;stroke-width:1;" x1="61" x2="61" y1="162.8936" y2="1183.7974"/><line style="stroke:#000000;stroke-width:1;" x1="252.2424" x2="252.2424" y1="162.8936" y2="1183.7974"/><line style="stroke:#000000;stroke-width:1;" x1="426.45" x2="426.45" y1="162.8936" y2="1183.7974"/><line style="stroke:#000000;stroke-width:1;" x1="631.1724" x2="631.1724" y1="162.8936" y2="1183.7974"/><line style="stroke:#000000;stroke-width:1;" x1="854.9243" x2="854.9243" y1="162.8936" y2="1183.7974"/><text fill="#000000" font-family="Arial" font-size="11" lengthAdjust="spacing" textLength="92.3291" x="12" y="148.0935">Validation Harness</text><text fill="#000000" font-family="Arial" font-size="11" lengthAdjust="spacing" textLength="64.7808" x="25.7742" y="160.7424">(TEST_SCN)</text><ellipse cx="61.1646" cy="85.5957" fill="#F4F7FB" rx="8" ry="8" style="stroke:#000000;stroke-width:1;"/><path d="M61.1646,93.5957 L61.1646,120.5957 M48.1646,101.5957 L74.1646,101.5957 M61.1646,120.5957 L48.1646,135.5957 M61.1646,120.5957 L74.1646,135.5957 " fill="none" style="stroke:#000000;stroke-width:1;"/><text fill="#000000" font-family="Arial" font-size="11" lengthAdjust="spacing" textLength="92.3291" x="12" y="1193.2952">Validation Harness</text><text fill="#000000" font-family="Arial" font-size="11" lengthAdjust="spacing" textLength="64.7808" x="25.7742" y="1205.9441">(TEST_SCN)</text><ellipse cx="61.1646" cy="1217.0952" fill="#F4F7FB" rx="8" ry="8" style="stroke:#000000;stroke-width:1;"/><path d="M61.1646,1225.0952 L61.1646,1252.0952 M48.1646,1233.0952 L74.1646,1233.0952 M61.1646,1252.0952 L48.1646,1267.0952 M61.1646,1252.0952 L74.1646,1267.0952 " fill="none" style="stroke:#000000;stroke-width:1;"/><rect fill="#FFE6E6" height="39.2979" rx="2.5" ry="2.5" style="stroke:#000000;stroke-width:1;" width="106.9253" x="199.2424" y="122.5957"/><text fill="#000000" font-family="Arial" font-size="11" lengthAdjust="spacing" textLength="57.4546" x="223.9778" y="140.0935">TEST_SCN</text><text fill="#000000" font-family="Arial" font-size="11" lengthAdjust="spacing" textLength="92.9253" x="206.2424" y="152.7424">scenario/test driver</text><rect fill="#FFE6E6" height="39.2979" rx="2.5" ry="2.5" style="stroke:#000000;stroke-width:1;" width="106.9253" x="199.2424" y="1182.7974"/><text fill="#000000" font-family="Arial" font-size="11" lengthAdjust="spacing" textLength="57.4546" x="223.9778" y="1200.2952">TEST_SCN</text><text fill="#000000" font-family="Arial" font-size="11" lengthAdjust="spacing" textLength="92.9253" x="206.2424" y="1212.9441">scenario/test driver</text><rect fill="#FFF4CC" height="39.2979" rx="2.5" ry="2.5" style="stroke:#000000;stroke-width:1;" width="129.5591" x="362.45" y="122.5957"/><text fill="#000000" font-family="Arial" font-size="11" lengthAdjust="spacing" textLength="26.8823" x="413.7883" y="140.0935">CGW</text><text fill="#000000" font-family="Arial" font-size="11" lengthAdjust="spacing" textLength="115.5591" x="369.45" y="152.7424">gateway fail-safe owner</text><rect fill="#FFF4CC" height="39.2979" rx="2.5" ry="2.5" style="stroke:#000000;stroke-width:1;" width="129.5591" x="362.45" y="1182.7974"/><text fill="#000000" font-family="Arial" font-size="11" lengthAdjust="spacing" textLength="26.8823" x="413.7883" y="1200.2952">CGW</text><text fill="#000000" font-family="Arial" font-size="11" lengthAdjust="spacing" textLength="115.5591" x="369.45" y="1212.9441">gateway fail-safe owner</text><rect fill="#E8F0FE" height="39.2979" rx="2.5" ry="2.5" style="stroke:#000000;stroke-width:1;" width="116.0938" x="573.1724" y="122.5957"/><text fill="#000000" font-family="Arial" font-size="11" lengthAdjust="spacing" textLength="13.4492" x="624.4946" y="140.0935">IVI</text><text fill="#000000" font-family="Arial" font-size="11" lengthAdjust="spacing" textLength="102.0938" x="580.1724" y="152.7424">info diagnostic mirror</text><rect fill="#E8F0FE" height="39.2979" rx="2.5" ry="2.5" style="stroke:#000000;stroke-width:1;" width="116.0938" x="573.1724" y="1182.7974"/><text fill="#000000" font-family="Arial" font-size="11" lengthAdjust="spacing" textLength="13.4492" x="624.4946" y="1200.2952">IVI</text><text fill="#000000" font-family="Arial" font-size="11" lengthAdjust="spacing" textLength="102.0938" x="580.1724" y="1212.9441">info diagnostic mirror</text><rect fill="#E8F7E8" height="39.2979" rx="2.5" ry="2.5" style="stroke:#000000;stroke-width:1;" width="99.5723" x="805.9243" y="122.5957"/><text fill="#000000" font-family="Arial" font-size="11" lengthAdjust="spacing" textLength="69.0723" x="821.1743" y="140.0935">Diag sysvars /</text><text fill="#000000" font-family="Arial" font-size="11" lengthAdjust="spacing" textLength="85.5723" x="812.9243" y="152.7424">EVIDENCE_OUT</text><rect fill="#E8F7E8" height="39.2979" rx="2.5" ry="2.5" style="stroke:#000000;stroke-width:1;" width="99.5723" x="805.9243" y="1182.7974"/><text fill="#000000" font-family="Arial" font-size="11" lengthAdjust="spacing" textLength="69.0723" x="821.1743" y="1200.2952">Diag sysvars /</text><text fill="#000000" font-family="Arial" font-size="11" lengthAdjust="spacing" textLength="85.5723" x="812.9243" y="1212.9441">EVIDENCE_OUT</text><rect fill="#FFFFFF" height="39.2979" style="stroke:#000000;stroke-width:1;" width="10" x="247.7051" y="244.8403"/><rect fill="#FFFFFF" height="496.6274" style="stroke:#000000;stroke-width:1;" width="10" x="422.2295" y="284.1382"/><rect fill="#FFFFFF" height="132.2446" style="stroke:#000000;stroke-width:1;" width="10" x="626.2192" y="780.7656"/><rect fill="#FFFFFF" height="162.5425" style="stroke:#000000;stroke-width:1;" width="10" x="850.7104" y="913.0103"/><rect fill="#FFFFFF" height="3" style="stroke:#FFFFFF;stroke-width:1;" width="1087.1094" x="5" y="192.218"/><line style="stroke:#000000;stroke-width:0.5;" x1="5" x2="1092.1094" y1="192.218" y2="192.218"/><line style="stroke:#000000;stroke-width:0.5;" x1="5" x2="1092.1094" y1="195.218" y2="195.218"/><rect fill="#FFFFFF" height="20.6489" style="stroke:#000000;stroke-width:1;" width="124.6284" x="486.2405" y="182.8936"/><text fill="#000000" font-family="Arial" font-size="11" font-weight="bold" lengthAdjust="spacing" textLength="107.5723" x="492.2405" y="197.3914">Fail-safe Stimulation</text><polygon fill="#000000" points="235.7051,240.8403,245.7051,244.8403,235.7051,248.8403,239.7051,244.8403" style="stroke:#000000;stroke-width:1;"/><line style="stroke:#000000;stroke-width:1;" x1="61.1646" x2="241.7051" y1="244.8403" y2="244.8403"/><text fill="#000000" font-family="Arial" font-size="11" lengthAdjust="spacing" textLength="83.4614" x="112.7041" y="228.0403">forceFailSafe = 1</text><text fill="#000000" font-family="Arial" font-size="11" lengthAdjust="spacing" textLength="167.5405" x="70.6646" y="240.6892">or blocked-context scenario phase</text><polygon fill="#000000" points="410.2295,280.1382,420.2295,284.1382,410.2295,288.1382,414.2295,284.1382" style="stroke:#000000;stroke-width:1;"/><line style="stroke:#000000;stroke-width:1;" x1="252.7051" x2="416.2295" y1="284.1382" y2="284.1382"/><text fill="#000000" font-family="Arial" font-size="11" lengthAdjust="spacing" textLength="94.7622" x="290.0862" y="267.3381">Core::forceFailSafe</text><text fill="#000000" font-family="Arial" font-size="11" lengthAdjust="spacing" textLength="145.5244" x="264.7051" y="279.9871">/ gateway observer conditions</text><path d="M257,297.1382 L257,370.1382 L450,370.1382 L450,307.1382 L440,297.1382 L257,297.1382 " fill="#FFFFFF" style="stroke:#000000;stroke-width:1;"/><path d="M440,297.1382 L440,307.1382 L450,307.1382 L440,297.1382 " fill="#FFFFFF" style="stroke:#000000;stroke-width:1;"/><text fill="#000000" font-family="Arial" font-size="11" lengthAdjust="spacing" textLength="136.9629" x="263" y="312.636">Representative test anchors</text><text fill="#000000" font-family="Arial" font-size="11" lengthAdjust="spacing" textLength="124.7383" x="263" y="325.2849">- ST_043 blocked context</text><text fill="#000000" font-family="Arial" font-size="11" lengthAdjust="spacing" textLength="154.6768" x="263" y="337.9338">- UT_063 blocked SGW context</text><text fill="#000000" font-family="Arial" font-size="11" lengthAdjust="spacing" textLength="153.4521" x="263" y="350.5828">- UT_064 blocked DCM context</text><text fill="#000000" font-family="Arial" font-size="11" lengthAdjust="spacing" textLength="172.439" x="263" y="363.2317">- IT_040 integrated blocked context</text><rect fill="#FFFFFF" height="3" style="stroke:#FFFFFF;stroke-width:1;" width="1087.1094" x="5" y="394.7073"/><line style="stroke:#000000;stroke-width:0.5;" x1="5" x2="1092.1094" y1="394.7073" y2="394.7073"/><line style="stroke:#000000;stroke-width:0.5;" x1="5" x2="1092.1094" y1="397.7073" y2="397.7073"/><rect fill="#FFFFFF" height="20.6489" style="stroke:#000000;stroke-width:1;" width="182.6899" x="457.2097" y="385.3828"/><text fill="#000000" font-family="Arial" font-size="11" font-weight="bold" lengthAdjust="spacing" textLength="165.6338" x="463.2097" y="399.8806">CGW Blocked Context Decision</text><line style="stroke:#000000;stroke-width:1;" x1="432.2295" x2="474.2295" y1="434.6807" y2="434.6807"/><line style="stroke:#000000;stroke-width:1;" x1="474.2295" x2="474.2295" y1="434.6807" y2="447.6807"/><line style="stroke:#000000;stroke-width:1;" x1="433.2295" x2="474.2295" y1="447.6807" y2="447.6807"/><polygon fill="#000000" points="443.2295,443.6807,433.2295,447.6807,443.2295,451.6807,439.2295,447.6807" style="stroke:#000000;stroke-width:1;"/><text fill="#000000" font-family="Arial" font-size="11" lengthAdjust="spacing" textLength="125.3506" x="439.2295" y="430.5295">derive warningPathStatus</text><line style="stroke:#000000;stroke-width:1;" x1="432.2295" x2="474.2295" y1="474.3296" y2="474.3296"/><line style="stroke:#000000;stroke-width:1;" x1="474.2295" x2="474.2295" y1="474.3296" y2="487.3296"/><line style="stroke:#000000;stroke-width:1;" x1="433.2295" x2="474.2295" y1="487.3296" y2="487.3296"/><polygon fill="#000000" points="443.2295,483.3296,433.2295,487.3296,443.2295,491.3296,439.2295,487.3296" style="stroke:#000000;stroke-width:1;"/><text fill="#000000" font-family="Arial" font-size="11" lengthAdjust="spacing" textLength="97.2222" x="439.2295" y="470.1785">derive failSafeMode</text><line style="stroke:#000000;stroke-width:1;" x1="432.2295" x2="474.2295" y1="526.6274" y2="526.6274"/><line style="stroke:#000000;stroke-width:1;" x1="474.2295" x2="474.2295" y1="526.6274" y2="539.6274"/><line style="stroke:#000000;stroke-width:1;" x1="433.2295" x2="474.2295" y1="539.6274" y2="539.6274"/><polygon fill="#000000" points="443.2295,535.6274,433.2295,539.6274,443.2295,543.6274,439.2295,539.6274" style="stroke:#000000;stroke-width:1;"/><text fill="#000000" font-family="Arial" font-size="11" lengthAdjust="spacing" textLength="97.8398" x="466.7483" y="509.8274">if failSafeMode &gt;= 1</text><text fill="#000000" font-family="Arial" font-size="11" lengthAdjust="spacing" textLength="152.8774" x="439.2295" y="522.4763">then decel assist gating applies</text><line style="stroke:#000000;stroke-width:1;" x1="432.2295" x2="474.2295" y1="591.5742" y2="591.5742"/><line style="stroke:#000000;stroke-width:1;" x1="474.2295" x2="474.2295" y1="591.5742" y2="604.5742"/><line style="stroke:#000000;stroke-width:1;" x1="433.2295" x2="474.2295" y1="604.5742" y2="604.5742"/><polygon fill="#000000" points="443.2295,600.5742,433.2295,604.5742,443.2295,608.5742,439.2295,604.5742" style="stroke:#000000;stroke-width:1;"/><text fill="#000000" font-family="Arial" font-size="11" lengthAdjust="spacing" textLength="108.2222" x="450.541" y="562.1252">publishFailSafeState()</text><text fill="#000000" font-family="Arial" font-size="11" lengthAdjust="spacing" textLength="111.2783" x="449.0129" y="574.7742">publishGatewayState()</text><text fill="#000000" font-family="Arial" font-size="11" lengthAdjust="spacing" textLength="130.8452" x="439.2295" y="587.4231">publishObjectSafetyState()</text><line style="stroke:#000000;stroke-width:1;" x1="432.2295" x2="474.2295" y1="656.521" y2="656.521"/><line style="stroke:#000000;stroke-width:1;" x1="474.2295" x2="474.2295" y1="656.521" y2="669.521"/><line style="stroke:#000000;stroke-width:1;" x1="433.2295" x2="474.2295" y1="669.521" y2="669.521"/><polygon fill="#000000" points="443.2295,665.521,433.2295,669.521,443.2295,673.521,439.2295,669.521" style="stroke:#000000;stroke-width:1;"/><text fill="#000000" font-family="Arial" font-size="11" lengthAdjust="spacing" textLength="169.9897" x="439.2295" y="627.072">CoreState::domainBoundaryStatus</text><text fill="#000000" font-family="Arial" font-size="11" lengthAdjust="spacing" textLength="147.9736" x="450.2375" y="639.7209">CoreState::warningPathStatus</text><text fill="#000000" font-family="Arial" font-size="11" lengthAdjust="spacing" textLength="94.1606" x="477.144" y="652.3699">Core::failSafeMode</text><path d="M437,682.521 L437,729.521 L669,729.521 L669,692.521 L659,682.521 L437,682.521 " fill="#FFFFFF" style="stroke:#000000;stroke-width:1;"/><path d="M659,682.521 L659,692.521 L669,692.521 L659,682.521 " fill="#FFFFFF" style="stroke:#000000;stroke-width:1;"/><text fill="#000000" font-family="Arial" font-size="11" lengthAdjust="spacing" textLength="165.0913" x="443" y="698.0188">Blocked context is represented by</text><text fill="#000000" font-family="Arial" font-size="11" lengthAdjust="spacing" textLength="165.709" x="443" y="710.6677">warningPathStatus / failSafeMode</text><text fill="#000000" font-family="Arial" font-size="11" lengthAdjust="spacing" textLength="211.5728" x="443" y="723.3167">and exported over gateway/observer paths.</text><polygon fill="#000000" points="619.2192,750.1167,629.2192,754.1167,619.2192,758.1167,623.2192,754.1167" style="stroke:#000000;stroke-width:1;"/><line style="stroke:#000000;stroke-width:1;" x1="432.2295" x2="625.2192" y1="754.1167" y2="754.1167"/><text fill="#000000" font-family="Arial" font-size="11" lengthAdjust="spacing" textLength="152.2329" x="455.6079" y="749.9656">gateway / fail-safe state frames</text><polygon fill="#000000" points="843.7104,776.7656,853.7104,780.7656,843.7104,784.7656,847.7104,780.7656" style="stroke:#000000;stroke-width:1;"/><line style="stroke:#000000;stroke-width:1;" x1="427.2295" x2="849.7104" y1="780.7656" y2="780.7656"/><text fill="#000000" font-family="Arial" font-size="11" lengthAdjust="spacing" textLength="163.249" x="559.8455" y="776.6145">CoreState::* / Core::failSafeMode</text><rect fill="#FFFFFF" height="3" style="stroke:#FFFFFF;stroke-width:1;" width="1087.1094" x="5" y="808.0901"/><line style="stroke:#000000;stroke-width:0.5;" x1="5" x2="1092.1094" y1="808.0901" y2="808.0901"/><line style="stroke:#000000;stroke-width:0.5;" x1="5" x2="1092.1094" y1="811.0901" y2="811.0901"/><rect fill="#FFFFFF" height="20.6489" style="stroke:#000000;stroke-width:1;" width="174.166" x="461.4717" y="798.7656"/><text fill="#000000" font-family="Arial" font-size="11" font-weight="bold" lengthAdjust="spacing" textLength="157.1099" x="467.4717" y="813.2634">Diagnostic / Evidence Surface</text><line style="stroke:#000000;stroke-width:1;" x1="636.2192" x2="678.2192" y1="860.7124" y2="860.7124"/><line style="stroke:#000000;stroke-width:1;" x1="678.2192" x2="678.2192" y1="860.7124" y2="873.7124"/><line style="stroke:#000000;stroke-width:1;" x1="637.2192" x2="678.2192" y1="873.7124" y2="873.7124"/><polygon fill="#000000" points="647.2192,869.7124,637.2192,873.7124,647.2192,877.7124,643.2192,873.7124" style="stroke:#000000;stroke-width:1;"/><text fill="#000000" font-family="Arial" font-size="11" lengthAdjust="spacing" textLength="85.3091" x="695.8103" y="843.9124">InfoDiagState = 1</text><text fill="#000000" font-family="Arial" font-size="11" lengthAdjust="spacing" textLength="190.4912" x="643.2192" y="856.5613">InfoFailCode = 0 in base health publish</text><polygon fill="#000000" points="838.7104,909.0103,848.7104,913.0103,838.7104,917.0103,842.7104,913.0103" style="stroke:#000000;stroke-width:1;"/><line style="stroke:#000000;stroke-width:1;" x1="631.2192" x2="844.7104" y1="913.0103" y2="913.0103"/><text fill="#000000" font-family="Arial" font-size="11" lengthAdjust="spacing" textLength="95.3906" x="693.2695" y="896.2102">Diag::InfoDiagState</text><text fill="#000000" font-family="Arial" font-size="11" lengthAdjust="spacing" textLength="91.1045" x="695.4126" y="908.8591">Diag::InfoFailCode</text><line style="stroke:#000000;stroke-width:1;" x1="860.7104" x2="902.7104" y1="952.3081" y2="952.3081"/><line style="stroke:#000000;stroke-width:1;" x1="902.7104" x2="902.7104" y1="952.3081" y2="965.3081"/><line style="stroke:#000000;stroke-width:1;" x1="861.7104" x2="902.7104" y1="965.3081" y2="965.3081"/><polygon fill="#000000" points="871.7104,961.3081,861.7104,965.3081,871.7104,969.3081,867.7104,965.3081" style="stroke:#000000;stroke-width:1;"/><text fill="#000000" font-family="Arial" font-size="11" lengthAdjust="spacing" textLength="102.6899" x="906.2561" y="935.5081">TEST_SCN monitors</text><text fill="#000000" font-family="Arial" font-size="11" lengthAdjust="spacing" textLength="179.7813" x="867.7104" y="948.157">nominal / degraded / blocked context</text><line style="stroke:#000000;stroke-width:1;" x1="860.7104" x2="902.7104" y1="1017.2549" y2="1017.2549"/><line style="stroke:#000000;stroke-width:1;" x1="902.7104" x2="902.7104" y1="1017.2549" y2="1030.2549"/><line style="stroke:#000000;stroke-width:1;" x1="861.7104" x2="902.7104" y1="1030.2549" y2="1030.2549"/><polygon fill="#000000" points="871.7104,1026.2549,861.7104,1030.2549,871.7104,1034.2549,867.7104,1030.2549" style="stroke:#000000;stroke-width:1;"/><text fill="#000000" font-family="Arial" font-size="11" lengthAdjust="spacing" textLength="117.3906" x="871.6931" y="987.8059">gDiagCtxNominalSeen /</text><text fill="#000000" font-family="Arial" font-size="11" lengthAdjust="spacing" textLength="125.356" x="867.7104" y="1000.4548">gDiagCtxDegradedSeen /</text><text fill="#000000" font-family="Arial" font-size="11" lengthAdjust="spacing" textLength="110.0645" x="875.3562" y="1013.1038">gDiagCtxBlockedSeen</text><line style="stroke:#000000;stroke-width:1;" x1="860.7104" x2="902.7104" y1="1074.5527" y2="1074.5527"/><line style="stroke:#000000;stroke-width:1;" x1="902.7104" x2="902.7104" y1="1074.5527" y2="1087.5527"/><line style="stroke:#000000;stroke-width:1;" x1="855.7104" x2="902.7104" y1="1087.5527" y2="1087.5527"/><polygon fill="#000000" points="865.7104,1083.5527,855.7104,1087.5527,865.7104,1091.5527,861.7104,1087.5527" style="stroke:#000000;stroke-width:1;"/><text fill="#000000" font-family="Arial" font-size="11" lengthAdjust="spacing" textLength="166.9014" x="885.4592" y="1057.7527">EVIDENCE_OUT log line includes</text><text fill="#000000" font-family="Arial" font-size="11" lengthAdjust="spacing" textLength="202.3989" x="867.7104" y="1070.4016">failSafeMode / warningPath / render code</text><path d="M10,1095.5527 L10,1168.5527 L908,1168.5527 L908,1105.5527 L898,1095.5527 L10,1095.5527 " fill="#FFFFFF" style="stroke:#000000;stroke-width:1;"/><path d="M898,1095.5527 L898,1105.5527 L908,1105.5527 L898,1095.5527 " fill="#FFFFFF" style="stroke:#000000;stroke-width:1;"/><text fill="#000000" font-family="Arial" font-size="11" lengthAdjust="spacing" textLength="143.0752" x="284.1624" y="1111.0505">Representative runtime chain</text><text fill="#000000" font-family="Arial" font-size="11" lengthAdjust="spacing" textLength="241.5005" x="284.1624" y="1123.6995">1. TEST_SCN forces a blocked fail-safe condition</text><text fill="#000000" font-family="Arial" font-size="11" lengthAdjust="spacing" textLength="285.5381" x="284.1624" y="1136.3484">2. CGW owns fail-safe mode and warning-path downgrade</text><text fill="#000000" font-family="Arial" font-size="11" lengthAdjust="spacing" textLength="247.6128" x="284.1624" y="1148.9973">3. Gateway state is mirrored into diag/info surfaces</text><text fill="#000000" font-family="Arial" font-size="11" lengthAdjust="spacing" textLength="341.1719" x="284.1624" y="1161.6462">4. TEST_SCN captures blocked-context evidence and verdict anchors</text><!--SRC=[TLPDRniv3BthLt3JIxEeCydMI0i3BX3RuwuFIHSTDtiPe91dQ5kRiJGhQU9aV_sIyprswejXKNmY7nz9_-RtU438CwcqS4zAvzBA0snayhIpfj3ft6J6mhjb-UdTI74hYymlZVOFaX3kh9BPs_P8_OTmSzCpElotG9tWFJedTtYNgPs61BL7sxjbqUL6k-RM33DplBFM7C7R0eNmocS8Iwao9xS8iymaJvZ2d9x45mzh0mibT_2Nz7k8w0MPmP8WOlr-7KRhdz7y0KPVOFxrR_vQFQuWW3Kw3_YiKexkKWYPUCh-ub5cAfLU6Gr_IgifdXx8vGL8rvmJK-Fbf-LCK0fU9IgNsiD5SpNMZhAKLfd0yqkfLSzeI_ys9A8wl0rlXm0KPAntqkDHliAMCXwLAPkZhjqv2oxIU3uVUb9UiLPwQo0bChHnP8A38XehHyxxNVXvURqCXuubT-xLFKlh88Xr-BXQX0_pyEUt7-lICwnfAjq_XP-5c4xBQbInHLuTYgmYRJeLeY68k6vpdS3Ms0JPAMAVATp4cWZVLAKS9NKf6zOWtqk7N1NrJ6IqGEAqe1DIWSN9P00Vwm0Q3it6eINkWPv85GVfX3O4QTLkxy5iE-plc9CIIPoKopD2MJYfaxsnJeo0BbsFFpOHGnqn6NwGuROpH1JLYN7S6XVp-vvnnP3NeEZtpbAywHawwXGuMf7YEHTS1kRWj1yMc2ZNLADrevkYRe6Ak1HPb72aSYczu-Q9AFF2lNbhMrDxRr8SNb3RWH6-bBMbQQF9Dy6C5EGKCKa5eMT0vdccyEIHlDXaoksR-d4S-FuorlNvrwgMfyVVDlzWujd1DxOXB4kZD4mcgJdGu9lne9FsjKeqrhqBPpHKLb9MF_EXSfZIsR1Ye1oDirf7ND1NSOPCusS0Agd8-98Romw6jLgBDsZ5cvEpk-haq9jbarRgGMzWECuAjZHTEwxRFXumyplvlP5fJt2S9cjjqSsLe0EB2hkLz3qG6mKcEBWsnXKD9lOl7wtQdu-uudDMpHIu3sWTEOGzoemcULtb1gSNFGDD9WF8M7U73MW_1mwe2w_14Ytey85soXoCLhGOI0pQ71Glbe1KJSsQKgc2itRz1ToEOvlxbuSA8qBg3HgqpV6Y1ZmzhwN5nxz2xizgoCmECgMHY4oo8aMAUj2PGR_NwPSbEPM3SKXLIqwbzbAGzKp_q1bFXgKjDAq1X6JF_ozkhZeAoydiGBPaTI9jHxBuuwfiMLfphcS_SDJS7NNS8su3IEbMIPZuU0NrQAZrJirNRJnwXgPgjGg3SYcwIgPEZ7kn9JBt1QLnjeUQVmRbwqH0gf9k5xHT-3y0]--></g></svg>