<svg xmlns="http://www.w3.org/2000/svg" xmlns:xlink="http://www.w3.org/1999/xlink" contentStyleType="text/css" height="719px" preserveAspectRatio="none" style="width:904px;height:719px;background:#FFFFFF;" version="1.1" viewBox="0 0 904 719" width="904px" zoomAndPan="magnify"><title>Fuel Battery To ISG Restart Ready Signal Flow</title><defs/><g><text fill="#000000" font-family="Arial" font-size="22" font-weight="bold" lengthAdjust="spacing" textLength="486.5459" x="207.5674" y="35.9956">Fuel Battery To ISG Restart Ready Signal Flow</text><text fill="#000000" font-family="Arial" font-size="22" font-weight="bold" lengthAdjust="spacing" textLength="690.7441" x="105.4683" y="61.2935">(fuel-battery + vehicle mode/state -&gt; ISG restart-ready publication)</text><rect fill="#FFFFFF" height="296.1382" style="stroke:#000000;stroke-width:1;" width="10" x="572.8379" y="277.436"/><line style="stroke:#000000;stroke-width:1;" x1="93" x2="93" y1="116.8936" y2="674.8188"/><line style="stroke:#000000;stroke-width:1;" x1="259.2944" x2="259.2944" y1="116.8936" y2="674.8188"/><line style="stroke:#000000;stroke-width:1;" x1="424.1851" x2="424.1851" y1="116.8936" y2="674.8188"/><line style="stroke:#000000;stroke-width:1;" x1="577.5918" x2="577.5918" y1="116.8936" y2="674.8188"/><line style="stroke:#000000;stroke-width:1;" x1="818.75" x2="818.75" y1="116.8936" y2="674.8188"/><rect fill="#E8F0FE" height="39.2979" rx="2.5" ry="2.5" style="stroke:#000000;stroke-width:1;" width="147.2944" x="20" y="76.5957"/><text fill="#000000" font-family="Arial" font-size="11" lengthAdjust="spacing" textLength="95.3745" x="45.96" y="94.0935">Fuel/Battery source</text><text fill="#000000" font-family="Arial" font-size="11" lengthAdjust="spacing" textLength="133.2944" x="27" y="106.7424">BatterySoc / ChargingState</text><rect fill="#E8F0FE" height="39.2979" rx="2.5" ry="2.5" style="stroke:#000000;stroke-width:1;" width="147.2944" x="20" y="673.8188"/><text fill="#000000" font-family="Arial" font-size="11" lengthAdjust="spacing" textLength="95.3745" x="45.96" y="691.3167">Fuel/Battery source</text><text fill="#000000" font-family="Arial" font-size="11" lengthAdjust="spacing" textLength="133.2944" x="27" y="703.9656">BatterySoc / ChargingState</text><rect fill="#E8F7E8" height="39.2979" rx="2.5" ry="2.5" style="stroke:#000000;stroke-width:1;" width="125.8906" x="197.2944" y="76.5957"/><text fill="#000000" font-family="Arial" font-size="11" lengthAdjust="spacing" textLength="23.2246" x="248.6274" y="94.0935">VCU</text><text fill="#000000" font-family="Arial" font-size="11" lengthAdjust="spacing" textLength="111.8906" x="204.2944" y="106.7424">vehicle-mode producer</text><rect fill="#E8F7E8" height="39.2979" rx="2.5" ry="2.5" style="stroke:#000000;stroke-width:1;" width="125.8906" x="197.2944" y="673.8188"/><text fill="#000000" font-family="Arial" font-size="11" lengthAdjust="spacing" textLength="23.2246" x="248.6274" y="691.3167">VCU</text><text fill="#000000" font-family="Arial" font-size="11" lengthAdjust="spacing" textLength="111.8906" x="204.2944" y="703.9656">vehicle-mode producer</text><rect fill="#F4F7FB" height="39.2979" rx="2.5" ry="2.5" style="stroke:#000000;stroke-width:1;" width="142.4067" x="353.1851" y="76.5957"/><text fill="#000000" font-family="Arial" font-size="11" lengthAdjust="spacing" textLength="62.9814" x="392.8977" y="94.0935">Vehicle state</text><text fill="#000000" font-family="Arial" font-size="11" lengthAdjust="spacing" textLength="128.4067" x="360.1851" y="106.7424">DriveState / VehicleSpeed</text><rect fill="#F4F7FB" height="39.2979" rx="2.5" ry="2.5" style="stroke:#000000;stroke-width:1;" width="142.4067" x="353.1851" y="673.8188"/><text fill="#000000" font-family="Arial" font-size="11" lengthAdjust="spacing" textLength="62.9814" x="392.8977" y="691.3167">Vehicle state</text><text fill="#000000" font-family="Arial" font-size="11" lengthAdjust="spacing" textLength="128.4067" x="360.1851" y="703.9656">DriveState / VehicleSpeed</text><rect fill="#FFF4CC" height="39.2979" rx="2.5" ry="2.5" style="stroke:#000000;stroke-width:1;" width="104.4922" x="525.5918" y="76.5957"/><text fill="#000000" font-family="Arial" font-size="11" lengthAdjust="spacing" textLength="18.9492" x="568.3633" y="94.0935">ISG</text><text fill="#000000" font-family="Arial" font-size="11" lengthAdjust="spacing" textLength="90.4922" x="532.5918" y="106.7424">idle-stop-go owner</text><rect fill="#FFF4CC" height="39.2979" rx="2.5" ry="2.5" style="stroke:#000000;stroke-width:1;" width="104.4922" x="525.5918" y="673.8188"/><text fill="#000000" font-family="Arial" font-size="11" lengthAdjust="spacing" textLength="18.9492" x="568.3633" y="691.3167">ISG</text><text fill="#000000" font-family="Arial" font-size="11" lengthAdjust="spacing" textLength="90.4922" x="532.5918" y="703.9656">idle-stop-go owner</text><rect fill="#FCE8FF" height="26.6489" rx="2.5" ry="2.5" style="stroke:#000000;stroke-width:1;" width="117.9307" x="760.75" y="89.2446"/><text fill="#000000" font-family="Arial" font-size="11" lengthAdjust="spacing" textLength="103.9307" x="767.75" y="106.7424">Powertrain observers</text><rect fill="#FCE8FF" height="26.6489" rx="2.5" ry="2.5" style="stroke:#000000;stroke-width:1;" width="117.9307" x="760.75" y="673.8188"/><text fill="#000000" font-family="Arial" font-size="11" lengthAdjust="spacing" textLength="103.9307" x="767.75" y="691.3167">Powertrain observers</text><rect fill="#FFFFFF" height="296.1382" style="stroke:#000000;stroke-width:1;" width="10" x="572.8379" y="277.436"/><rect fill="#FFFFFF" height="3" style="stroke:#FFFFFF;stroke-width:1;" width="892.6807" x="5" y="146.218"/><line style="stroke:#000000;stroke-width:0.5;" x1="5" x2="897.6807" y1="146.218" y2="146.218"/><line style="stroke:#000000;stroke-width:0.5;" x1="5" x2="897.6807" y1="149.218" y2="149.218"/><rect fill="#FFFFFF" height="20.6489" style="stroke:#000000;stroke-width:1;" width="72.0562" x="415.3123" y="136.8936"/><text fill="#000000" font-family="Arial" font-size="11" font-weight="bold" lengthAdjust="spacing" textLength="55" x="421.3123" y="151.3914">ISG Inputs</text><polygon fill="#000000" points="565.8379,194.8403,575.8379,198.8403,565.8379,202.8403,569.8379,198.8403" style="stroke:#000000;stroke-width:1;"/><line style="stroke:#000000;stroke-width:1;" x1="93.6472" x2="571.8379" y1="198.8403" y2="198.8403"/><text fill="#000000" font-family="Arial" font-size="11" lengthAdjust="spacing" textLength="118.5938" x="276.4457" y="182.0403">frmFuelBatteryStateMsg</text><text fill="#000000" font-family="Arial" font-size="11" lengthAdjust="spacing" textLength="133.2944" x="269.0953" y="194.6892">BatterySoc / ChargingState</text><polygon fill="#000000" points="565.8379,234.1382,575.8379,238.1382,565.8379,242.1382,569.8379,238.1382" style="stroke:#000000;stroke-width:1;"/><line style="stroke:#000000;stroke-width:1;" x1="260.2397" x2="571.8379" y1="238.1382" y2="238.1382"/><text fill="#000000" font-family="Arial" font-size="11" lengthAdjust="spacing" textLength="100.2568" x="368.9104" y="221.3381">frmVehicleModeMsg</text><text fill="#000000" font-family="Arial" font-size="11" lengthAdjust="spacing" textLength="140.6152" x="348.7312" y="233.9871">DriveMode / PowertrainState</text><polygon fill="#000000" points="560.8379,273.436,570.8379,277.436,560.8379,281.436,564.8379,277.436" style="stroke:#000000;stroke-width:1;"/><line style="stroke:#000000;stroke-width:1;" x1="424.3884" x2="566.8379" y1="277.436" y2="277.436"/><text fill="#000000" font-family="Arial" font-size="11" lengthAdjust="spacing" textLength="118.6045" x="439.3109" y="260.636">frmVehicleStateCanMsg</text><text fill="#000000" font-family="Arial" font-size="11" lengthAdjust="spacing" textLength="128.4067" x="434.4098" y="273.2849">DriveState / VehicleSpeed</text><line style="stroke:#000000;stroke-width:1;" x1="582.8379" x2="624.8379" y1="304.085" y2="304.085"/><line style="stroke:#000000;stroke-width:1;" x1="624.8379" x2="624.8379" y1="304.085" y2="317.085"/><line style="stroke:#000000;stroke-width:1;" x1="583.8379" x2="624.8379" y1="317.085" y2="317.085"/><polygon fill="#000000" points="593.8379,313.085,583.8379,317.085,593.8379,321.085,589.8379,317.085" style="stroke:#000000;stroke-width:1;"/><text fill="#000000" font-family="Arial" font-size="11" lengthAdjust="spacing" textLength="207.8774" x="589.8379" y="299.9338">normalize stale fuel-battery / vehicle inputs</text><line style="stroke:#000000;stroke-width:1;" x1="582.8379" x2="624.8379" y1="356.3828" y2="356.3828"/><line style="stroke:#000000;stroke-width:1;" x1="624.8379" x2="624.8379" y1="356.3828" y2="369.3828"/><line style="stroke:#000000;stroke-width:1;" x1="583.8379" x2="624.8379" y1="369.3828" y2="369.3828"/><polygon fill="#000000" points="593.8379,365.3828,583.8379,369.3828,593.8379,373.3828,589.8379,369.3828" style="stroke:#000000;stroke-width:1;"/><text fill="#000000" font-family="Arial" font-size="11" lengthAdjust="spacing" textLength="182.8052" x="591.0679" y="339.5828">derive IsgState from PowertrainState,</text><text fill="#000000" font-family="Arial" font-size="11" lengthAdjust="spacing" textLength="185.2651" x="589.8379" y="352.2317">BatterySoc, DriveState, VehicleSpeed</text><line style="stroke:#000000;stroke-width:1;" x1="582.8379" x2="624.8379" y1="396.0317" y2="396.0317"/><line style="stroke:#000000;stroke-width:1;" x1="624.8379" x2="624.8379" y1="396.0317" y2="409.0317"/><line style="stroke:#000000;stroke-width:1;" x1="583.8379" x2="624.8379" y1="409.0317" y2="409.0317"/><polygon fill="#000000" points="593.8379,405.0317,583.8379,409.0317,593.8379,413.0317,589.8379,409.0317" style="stroke:#000000;stroke-width:1;"/><text fill="#000000" font-family="Arial" font-size="11" lengthAdjust="spacing" textLength="188.9282" x="589.8379" y="391.8806">derive RestartReady / RecuperationLvl</text><path d="M587,422.0317 L587,482.0317 L721,482.0317 L721,432.0317 L711,422.0317 L587,422.0317 " fill="#FFFFFF" style="stroke:#000000;stroke-width:1;"/><path d="M711,422.0317 L711,432.0317 L721,432.0317 L711,422.0317 " fill="#FFFFFF" style="stroke:#000000;stroke-width:1;"/><text fill="#000000" font-family="Arial" font-size="11" lengthAdjust="spacing" textLength="113.126" x="593" y="437.5295">Representative outputs</text><text fill="#000000" font-family="Arial" font-size="11" lengthAdjust="spacing" textLength="47.0776" x="593" y="450.1785">- IsgState</text><text fill="#000000" font-family="Arial" font-size="11" lengthAdjust="spacing" textLength="73.9707" x="593" y="462.8274">- RestartReady</text><text fill="#000000" font-family="Arial" font-size="11" lengthAdjust="spacing" textLength="86.2114" x="593" y="475.4763">- RecuperationLvl</text><rect fill="#FFFFFF" height="3" style="stroke:#FFFFFF;stroke-width:1;" width="892.6807" x="5" y="506.9519"/><line style="stroke:#000000;stroke-width:0.5;" x1="5" x2="897.6807" y1="506.9519" y2="506.9519"/><line style="stroke:#000000;stroke-width:0.5;" x1="5" x2="897.6807" y1="509.9519" y2="509.9519"/><rect fill="#FFFFFF" height="20.6489" style="stroke:#000000;stroke-width:1;" width="78.7861" x="411.9473" y="497.6274"/><text fill="#000000" font-family="Arial" font-size="11" font-weight="bold" lengthAdjust="spacing" textLength="61.73" x="417.9473" y="512.1252">ISG Publish</text><polygon fill="#000000" points="807.7153,542.9253,817.7153,546.9253,807.7153,550.9253,811.7153,546.9253" style="stroke:#000000;stroke-width:1;"/><line style="stroke:#000000;stroke-width:1;" x1="582.8379" x2="813.7153" y1="546.9253" y2="546.9253"/><text fill="#000000" font-family="Arial" font-size="11" lengthAdjust="spacing" textLength="77.0215" x="662.7659" y="542.7742">frmIsgStateMsg</text><polygon fill="#000000" points="807.7153,569.5742,817.7153,573.5742,807.7153,577.5742,811.7153,573.5742" style="stroke:#000000;stroke-width:1;"/><line style="stroke:#000000;stroke-width:1;" x1="577.8379" x2="813.7153" y1="573.5742" y2="573.5742"/><text fill="#000000" font-family="Arial" font-size="11" lengthAdjust="spacing" textLength="174.8667" x="611.3433" y="569.4231">traceable restart-ready / regen state</text><path d="M19,586.5742 L19,659.5742 L892,659.5742 L892,596.5742 L882,586.5742 L19,586.5742 " fill="#FFFFFF" style="stroke:#000000;stroke-width:1;"/><path d="M882,586.5742 L882,596.5742 L892,596.5742 L882,586.5742 " fill="#FFFFFF" style="stroke:#000000;stroke-width:1;"/><text fill="#000000" font-family="Arial" font-size="11" lengthAdjust="spacing" textLength="143.0752" x="290.2156" y="602.072">Representative runtime chain</text><text fill="#000000" font-family="Arial" font-size="11" lengthAdjust="spacing" textLength="317.9312" x="290.2156" y="614.7209">1. Fuel-battery state reaches ISG with vehicle mode/state context</text><text fill="#000000" font-family="Arial" font-size="11" lengthAdjust="spacing" textLength="263.522" x="290.2156" y="627.3699">2. ISG derives idle-stop-go state and restart readiness</text><text fill="#000000" font-family="Arial" font-size="11" lengthAdjust="spacing" textLength="322.2495" x="290.2156" y="640.0188">3. Recuperation level is adjusted from speed and charging context</text><text fill="#000000" font-family="Arial" font-size="11" lengthAdjust="spacing" textLength="277.5781" x="290.2156" y="652.6677">4. Powertrain observers verify restart and regen behavior</text><!--SRC=[VLHTRzCm57tthxXiBo3wmM3I9gGYhM51anXCA_3K5yUvJGof7QwTbF7hkNRIj9ag-jAwzZdtt7C_NlWIjmXr9RKHxfSsjIIvXKogNmNPnkI9hIp1UHe_HozotCYcygar_ejaXXlIiZfzlz9_4IukZYuT_cxGABn7vsI1DvKk32Wq7kde5Q6hhN7xLqkixEw6oEx0KuD2UEqhXBJ12fRIC_O9lbcuMts2HtHUakTlcJ_1Yjbb1Id3r-RbXjzFi_xzQsYnr8ffjZR7EQCymlH39A6EP4gHf6woIYlfjJMlX621NYjTI-FXB2YOxnKusv32jUdFAwjW3aafgT2cM0N-Cv0EqYMStrwdRzBRCTUFvFlQz9gcGHFKPFD68KKONqVSrUtrCroVHinWRJwIRZ56u-ZztQf6p3iMBBcYb-bLkXopSDfhetCExRojfuK5kpDzw619Q8FB91c37kmEoHCt4DZC8RL8BYA-PeuH2SjDXLWi8iETgHllOB4GWYtedNuF6ze65_Uc1U7thlYVYo9OSOplixndpo8qMX1EZ3n8xB5im0bil4oaEU1FMIYayheD_pDU18w1obZQoYgqEzU1gp7gjVdGQpgQC8Rc6EB1dUlIOrLs-rptvDYG2HmKJiO2Jn7t8z5Dn9oFggcHOZz_RYjXBCSaNPGUx2OczeWrJm3F9BzXl6ry53qT9FBFOz9u79EYoI4G3zL_24FaobZ-NcHeabY3FIsRFxxZ_1NAZ7qRJ-ISpmMQhkL5ZgEoT0bPxaKUjKbWUfuGDSPhNbog3AllOXONoL2iRXDm85LYr_ixxSjJsqBnXiC_NhoTnMUTtGv6KzIzb6n7dq9WphNXnIRUpKQ-GOKjBpJjGEO_6-Snxrh1XSf62jMFmH3vSWQdPf35ajuy3I6xyC6n34lPQak70lq3]--></g></svg>