<svg xmlns="http://www.w3.org/2000/svg" xmlns:xlink="http://www.w3.org/1999/xlink" contentStyleType="text/css" height="931px" preserveAspectRatio="none" style="width:855px;height:931px;background:#FFFFFF;" version="1.1" viewBox="0 0 855 931" width="855px" zoomAndPan="magnify"><title>Highway Ready To Control Activation Signal Flow</title><defs/><g><text fill="#000000" font-family="Arial" font-size="22" font-weight="bold" lengthAdjust="spacing" textLength="520.7061" x="165.9374" y="35.9956">Highway Ready To Control Activation Signal Flow</text><text fill="#000000" font-family="Arial" font-size="22" font-weight="bold" lengthAdjust="spacing" textLength="658.8721" x="96.8544" y="61.2935">(route/cruise/lane context -&gt; HWP -&gt; long/lat control activation)</text><line style="stroke:#000000;stroke-width:1;" x1="71" x2="71" y1="116.8936" y2="887.606"/><line style="stroke:#000000;stroke-width:1;" x1="208.896" x2="208.896" y1="116.8936" y2="887.606"/><line style="stroke:#000000;stroke-width:1;" x1="552.262" x2="552.262" y1="116.8936" y2="887.606"/><line style="stroke:#000000;stroke-width:1;" x1="780.2625" x2="780.2625" y1="116.8936" y2="887.606"/><rect fill="#F4F7FB" height="39.2979" rx="2.5" ry="2.5" style="stroke:#000000;stroke-width:1;" width="103.896" x="20" y="76.5957"/><text fill="#000000" font-family="Arial" font-size="11" lengthAdjust="spacing" textLength="67.2407" x="38.3276" y="94.0935">NAV / cruise /</text><text fill="#000000" font-family="Arial" font-size="11" lengthAdjust="spacing" textLength="89.896" x="27" y="106.7424">lane-guide context</text><rect fill="#F4F7FB" height="39.2979" rx="2.5" ry="2.5" style="stroke:#000000;stroke-width:1;" width="103.896" x="20" y="886.606"/><text fill="#000000" font-family="Arial" font-size="11" lengthAdjust="spacing" textLength="67.2407" x="38.3276" y="904.1038">NAV / cruise /</text><text fill="#000000" font-family="Arial" font-size="11" lengthAdjust="spacing" textLength="89.896" x="27" y="916.7527">lane-guide context</text><rect fill="#E8F7E8" height="39.2979" rx="2.5" ry="2.5" style="stroke:#000000;stroke-width:1;" width="110.6099" x="153.896" y="76.5957"/><text fill="#000000" font-family="Arial" font-size="11" lengthAdjust="spacing" textLength="25.6631" x="196.3694" y="94.0935">HWP</text><text fill="#000000" font-family="Arial" font-size="11" lengthAdjust="spacing" textLength="96.6099" x="160.896" y="106.7424">highway pilot owner</text><rect fill="#E8F7E8" height="39.2979" rx="2.5" ry="2.5" style="stroke:#000000;stroke-width:1;" width="110.6099" x="153.896" y="886.606"/><text fill="#000000" font-family="Arial" font-size="11" lengthAdjust="spacing" textLength="25.6631" x="196.3694" y="904.1038">HWP</text><text fill="#000000" font-family="Arial" font-size="11" lengthAdjust="spacing" textLength="96.6099" x="160.896" y="916.7527">highway pilot owner</text><rect fill="#FFF4CC" height="26.6489" rx="2.5" ry="2.5" style="stroke:#000000;stroke-width:1;" width="83.0938" x="511.262" y="89.2446"/><text fill="#000000" font-family="Arial" font-size="11" lengthAdjust="spacing" textLength="69.0938" x="518.262" y="106.7424">Pilot state bus</text><rect fill="#FFF4CC" height="26.6489" rx="2.5" ry="2.5" style="stroke:#000000;stroke-width:1;" width="83.0938" x="511.262" y="886.606"/><text fill="#000000" font-family="Arial" font-size="11" lengthAdjust="spacing" textLength="69.0938" x="518.262" y="904.1038">Pilot state bus</text><rect fill="#E8F0FE" height="26.6489" rx="2.5" ry="2.5" style="stroke:#000000;stroke-width:1;" width="106.3184" x="727.2625" y="89.2446"/><text fill="#000000" font-family="Arial" font-size="11" lengthAdjust="spacing" textLength="92.3184" x="734.2625" y="106.7424">Observers / panels</text><rect fill="#E8F0FE" height="26.6489" rx="2.5" ry="2.5" style="stroke:#000000;stroke-width:1;" width="106.3184" x="727.2625" y="886.606"/><text fill="#000000" font-family="Arial" font-size="11" lengthAdjust="spacing" textLength="92.3184" x="734.2625" y="904.1038">Observers / panels</text><rect fill="#FFFFFF" height="3" style="stroke:#FFFFFF;stroke-width:1;" width="843.5808" x="5" y="146.218"/><line style="stroke:#000000;stroke-width:0.5;" x1="5" x2="848.5808" y1="146.218" y2="146.218"/><line style="stroke:#000000;stroke-width:0.5;" x1="5" x2="848.5808" y1="149.218" y2="149.218"/><rect fill="#FFFFFF" height="20.6489" style="stroke:#000000;stroke-width:1;" width="156.4199" x="348.5804" y="136.8936"/><text fill="#000000" font-family="Arial" font-size="11" font-weight="bold" lengthAdjust="spacing" textLength="139.3638" x="354.5804" y="151.3914">Highway Readiness Inputs</text><polygon fill="#000000" points="197.2009,232.7871,207.2009,236.7871,197.2009,240.7871,201.2009,236.7871" style="stroke:#000000;stroke-width:1;"/><line style="stroke:#000000;stroke-width:1;" x1="71.948" x2="203.2009" y1="236.7871" y2="236.7871"/><text fill="#000000" font-family="Arial" font-size="11" lengthAdjust="spacing" textLength="74.5938" x="103.2776" y="182.0403">navRouteClass</text><text fill="#000000" font-family="Arial" font-size="11" lengthAdjust="spacing" textLength="55.0269" x="113.061" y="194.6892">cruiseState</text><text fill="#000000" font-family="Arial" font-size="11" lengthAdjust="spacing" textLength="75.8345" x="102.6572" y="207.3381">laneGuideState</text><text fill="#000000" font-family="Arial" font-size="11" lengthAdjust="spacing" textLength="68.4976" x="106.3257" y="219.9871">attentionLevel</text><text fill="#000000" font-family="Arial" font-size="11" lengthAdjust="spacing" textLength="50.7354" x="115.2068" y="232.636">dmsActive</text><line style="stroke:#000000;stroke-width:1;" x1="209.2009" x2="251.2009" y1="276.085" y2="276.085"/><line style="stroke:#000000;stroke-width:1;" x1="251.2009" x2="251.2009" y1="276.085" y2="289.085"/><line style="stroke:#000000;stroke-width:1;" x1="210.2009" x2="251.2009" y1="289.085" y2="289.085"/><polygon fill="#000000" points="220.2009,285.085,210.2009,289.085,220.2009,293.085,216.2009,289.085" style="stroke:#000000;stroke-width:1;"/><text fill="#000000" font-family="Arial" font-size="11" lengthAdjust="spacing" textLength="81.6353" x="340.1873" y="259.2849">highwayReady =</text><text fill="#000000" font-family="Arial" font-size="11" lengthAdjust="spacing" textLength="329.6079" x="216.2009" y="271.9338">(navRouteClass == 2 and cruiseState &gt;= 1 and attentionLevel &lt;= 2)</text><line style="stroke:#000000;stroke-width:1;" x1="209.2009" x2="251.2009" y1="328.3828" y2="328.3828"/><line style="stroke:#000000;stroke-width:1;" x1="251.2009" x2="251.2009" y1="328.3828" y2="341.3828"/><line style="stroke:#000000;stroke-width:1;" x1="210.2009" x2="251.2009" y1="341.3828" y2="341.3828"/><polygon fill="#000000" points="220.2009,337.3828,210.2009,341.3828,220.2009,345.3828,216.2009,341.3828" style="stroke:#000000;stroke-width:1;"/><text fill="#000000" font-family="Arial" font-size="11" lengthAdjust="spacing" textLength="77.3384" x="269.5574" y="311.5828">longCtrlActive =</text><text fill="#000000" font-family="Arial" font-size="11" lengthAdjust="spacing" textLength="184.0513" x="216.2009" y="324.2317">(highwayReady and cruiseState == 2)</text><line style="stroke:#000000;stroke-width:1;" x1="209.2009" x2="251.2009" y1="380.6807" y2="380.6807"/><line style="stroke:#000000;stroke-width:1;" x1="251.2009" x2="251.2009" y1="380.6807" y2="393.6807"/><line style="stroke:#000000;stroke-width:1;" x1="210.2009" x2="251.2009" y1="393.6807" y2="393.6807"/><polygon fill="#000000" points="220.2009,389.6807,210.2009,393.6807,220.2009,397.6807,216.2009,393.6807" style="stroke:#000000;stroke-width:1;"/><text fill="#000000" font-family="Arial" font-size="11" lengthAdjust="spacing" textLength="68.1592" x="284.5508" y="363.8806">latCtrlActive =</text><text fill="#000000" font-family="Arial" font-size="11" lengthAdjust="spacing" textLength="204.8589" x="216.2009" y="376.5295">(highwayReady and laneGuideState &gt;= 2)</text><line style="stroke:#000000;stroke-width:1;" x1="209.2009" x2="251.2009" y1="432.9785" y2="432.9785"/><line style="stroke:#000000;stroke-width:1;" x1="251.2009" x2="251.2009" y1="432.9785" y2="445.9785"/><line style="stroke:#000000;stroke-width:1;" x1="210.2009" x2="251.2009" y1="445.9785" y2="445.9785"/><polygon fill="#000000" points="220.2009,441.9785,210.2009,445.9785,220.2009,449.9785,216.2009,445.9785" style="stroke:#000000;stroke-width:1;"/><text fill="#000000" font-family="Arial" font-size="11" lengthAdjust="spacing" textLength="93.8438" x="269.8689" y="416.1785">driverMonitorReq =</text><text fill="#000000" font-family="Arial" font-size="11" lengthAdjust="spacing" textLength="201.1797" x="216.2009" y="428.8274">(dmsActive == 1 and attentionLevel &gt;= 2)</text><path d="M214,458.9785 L214,531.9785 L390,531.9785 L390,468.9785 L380,458.9785 L214,458.9785 " fill="#FFFFFF" style="stroke:#000000;stroke-width:1;"/><path d="M380,458.9785 L380,468.9785 L390,468.9785 L380,458.9785 " fill="#FFFFFF" style="stroke:#000000;stroke-width:1;"/><text fill="#000000" font-family="Arial" font-size="11" lengthAdjust="spacing" textLength="155.9229" x="220" y="474.4763">Representative activation inputs</text><text fill="#000000" font-family="Arial" font-size="11" lengthAdjust="spacing" textLength="81.313" x="220" y="487.1252">- navRouteClass</text><text fill="#000000" font-family="Arial" font-size="11" lengthAdjust="spacing" textLength="61.7461" x="220" y="499.7742">- cruiseState</text><text fill="#000000" font-family="Arial" font-size="11" lengthAdjust="spacing" textLength="82.5537" x="220" y="512.4231">- laneGuideState</text><text fill="#000000" font-family="Arial" font-size="11" lengthAdjust="spacing" textLength="135.1206" x="220" y="525.072">- attentionLevel / dmsActive</text><rect fill="#FFFFFF" height="3" style="stroke:#FFFFFF;stroke-width:1;" width="843.5808" x="5" y="556.5476"/><line style="stroke:#000000;stroke-width:0.5;" x1="5" x2="848.5808" y1="556.5476" y2="556.5476"/><line style="stroke:#000000;stroke-width:0.5;" x1="5" x2="848.5808" y1="559.5476" y2="559.5476"/><rect fill="#FFFFFF" height="20.6489" style="stroke:#000000;stroke-width:1;" width="113.623" x="369.9789" y="547.2231"/><text fill="#000000" font-family="Arial" font-size="11" font-weight="bold" lengthAdjust="spacing" textLength="96.5669" x="375.9789" y="561.7209">Pilot State Publish</text><polygon fill="#000000" points="540.8088,605.1699,550.8088,609.1699,540.8088,613.1699,544.8088,609.1699" style="stroke:#000000;stroke-width:1;"/><line style="stroke:#000000;stroke-width:1;" x1="209.2009" x2="546.8088" y1="609.1699" y2="609.1699"/><text fill="#000000" font-family="Arial" font-size="11" lengthAdjust="spacing" textLength="125.9307" x="318.0396" y="592.3699">frmHighwayPilotStateMsg</text><text fill="#000000" font-family="Arial" font-size="11" lengthAdjust="spacing" textLength="247.6021" x="257.2039" y="605.0188">HighwayPilotReady / LongCtrlActive / LatCtrlActive</text><polygon fill="#000000" points="540.8088,631.8188,550.8088,635.8188,540.8088,639.8188,544.8088,635.8188" style="stroke:#000000;stroke-width:1;"/><line style="stroke:#000000;stroke-width:1;" x1="209.2009" x2="546.8088" y1="635.8188" y2="635.8188"/><text fill="#000000" font-family="Arial" font-size="11" lengthAdjust="spacing" textLength="241.5059" x="260.252" y="631.6677">DriverMonitorReq / LaneGuideState / CruiseState</text><path d="M214,648.8188 L214,721.8188 L348,721.8188 L348,658.8188 L338,648.8188 L214,648.8188 " fill="#FFFFFF" style="stroke:#000000;stroke-width:1;"/><path d="M338,648.8188 L338,658.8188 L348,658.8188 L338,648.8188 " fill="#FFFFFF" style="stroke:#000000;stroke-width:1;"/><text fill="#000000" font-family="Arial" font-size="11" lengthAdjust="spacing" textLength="113.126" x="220" y="664.3167">Representative outputs</text><text fill="#000000" font-family="Arial" font-size="11" lengthAdjust="spacing" textLength="102.0991" x="220" y="676.9656">- HighwayPilotReady</text><text fill="#000000" font-family="Arial" font-size="11" lengthAdjust="spacing" textLength="78.2515" x="220" y="689.6145">- LongCtrlActive</text><text fill="#000000" font-family="Arial" font-size="11" lengthAdjust="spacing" textLength="69.0723" x="220" y="702.2634">- LatCtrlActive</text><text fill="#000000" font-family="Arial" font-size="11" lengthAdjust="spacing" textLength="92.9092" x="220" y="714.9124">- DriverMonitorReq</text><rect fill="#FFFFFF" height="3" style="stroke:#FFFFFF;stroke-width:1;" width="843.5808" x="5" y="746.3879"/><line style="stroke:#000000;stroke-width:0.5;" x1="5" x2="848.5808" y1="746.3879" y2="746.3879"/><line style="stroke:#000000;stroke-width:0.5;" x1="5" x2="848.5808" y1="749.3879" y2="749.3879"/><rect fill="#FFFFFF" height="20.6489" style="stroke:#000000;stroke-width:1;" width="131.3638" x="361.1085" y="737.0635"/><text fill="#000000" font-family="Arial" font-size="11" font-weight="bold" lengthAdjust="spacing" textLength="114.3076" x="367.1085" y="751.5613">Downstream Visibility</text><polygon fill="#000000" points="768.4216,782.3613,778.4216,786.3613,768.4216,790.3613,772.4216,786.3613" style="stroke:#000000;stroke-width:1;"/><line style="stroke:#000000;stroke-width:1;" x1="552.8088" x2="774.4216" y1="786.3613" y2="786.3613"/><text fill="#000000" font-family="Arial" font-size="11" lengthAdjust="spacing" textLength="203.6128" x="564.8088" y="782.2102">highway pilot / control activation readback</text><path d="M11,799.3613 L11,872.3613 L839,872.3613 L839,809.3613 L829,799.3613 L11,799.3613 " fill="#FFFFFF" style="stroke:#000000;stroke-width:1;"/><path d="M829,799.3613 L829,809.3613 L839,809.3613 L829,799.3613 " fill="#FFFFFF" style="stroke:#000000;stroke-width:1;"/><text fill="#000000" font-family="Arial" font-size="11" lengthAdjust="spacing" textLength="143.0752" x="256.3248" y="814.8591">Representative runtime chain</text><text fill="#000000" font-family="Arial" font-size="11" lengthAdjust="spacing" textLength="253.7466" x="256.3248" y="827.5081">1. Route, cruise, and lane-guide context reach HWP</text><text fill="#000000" font-family="Arial" font-size="11" lengthAdjust="spacing" textLength="236.6128" x="256.3248" y="840.157">2. HWP decides whether highway mode is ready</text><text fill="#000000" font-family="Arial" font-size="11" lengthAdjust="spacing" textLength="328.9312" x="256.3248" y="852.8059">3. HWP raises long/lat control activation when readiness is satisfied</text><text fill="#000000" font-family="Arial" font-size="11" lengthAdjust="spacing" textLength="292.8857" x="256.3248" y="865.4548">4. Observers expose pilot activation and monitoring demand</text><!--SRC=[XLLDJnin4BtlhvZ2fKY4RIWI23L8OI6b4b0KAdh9nTcTR2mSUx6z-UYlxzZURjOXAbpGZZtllNapddooSrmWL89ncPXNBYkcsGAcB7yjjQfbaIcXD1oE_5_dHe4pLWixKj8-Ca8OQix4_lDd_WUXt-yS6dohKURuWCQm4eU2bn9ob1PrvvP6Kobf_jswHg5MGwtL2gokCKaijmBXZfVp5Tl065cnWLyACgBKIi0mjtp9B5SIdWcV2HWHm4H-fheifhckkS5KC8cGKmgkBVIkuExta_idb2pfpFeZXyPQjACa8NsMvxnYqiB1u_05KWXma4waG-oLDIzQt0DW1fwuK3QpQ_BoR7G-kev1Y7OYvqqfbRiAQYLH-rIdwV3sOdH-Un5dUKmmbbc4QMssFDUryJqxox8uu-VKe5wYDYIP8YX24eKzmvVHRP8C1f6fN9B_y4DMjJKm62H9MqbZroL8jXmxKpF1Z9d8uCMpanNi-ExSQBwPjTHeyl4UboWcibWOtobC6ki3PED5wEg0kXPna0uu1IOBw731rG3wFXXpm3UwV1J3k_vcLej0xGaYnbtemHu8PZz2Y6jt-dP12at9-a59RfKUuvl7QIrnj7ih2aXI4QWcKXgMcGDCnbZHgw6RpATlXnQuxr_IYtj5tvqgwIjMJ84TuXIs_KBIvIJuYGcZ6EfyggU2cxaVbgRQTYelOQONpNZve4zvCEL4TgF1mnJkupvHeElw7lIRNKDTIjI55B9EoHzwI5urphtJHx5Odmj4-dhlzCIktT0ZDrOZRRiNRlYK2sutsqVcIgBotEjiNqIp7T8zcuas9YlSwav2MOgOsxrpx61sYzCrzPQsTpvt-xz_0duqZfkXE6w7EDvdZYUVUxDEJ_mW5vZJkO7L7Ea7HRTQ5ugokF72DidNS5apmZR_Mx4E9rGJbWyX63emCuv5SdO2sos6wqhHsWsUT02Sy4KmdSkIz2qeilN-Bm00]--></g></svg>