<svg xmlns="http://www.w3.org/2000/svg" xmlns:xlink="http://www.w3.org/1999/xlink" contentStyleType="text/css" height="1129px" preserveAspectRatio="none" style="width:973px;height:1129px;background:#FFFFFF;" version="1.1" viewBox="0 0 973 1129" width="973px" zoomAndPan="magnify"><title>Nav Alert Context To DCM Request Response Observation Signal Flow</title><defs/><g><text fill="#000000" font-family="Arial" font-size="22" font-weight="bold" lengthAdjust="spacing" textLength="740.7813" x="115.0835" y="35.9956">Nav Alert Context To DCM Request Response Observation Signal Flow</text><text fill="#000000" font-family="Arial" font-size="22" font-weight="bold" lengthAdjust="spacing" textLength="890.0547" x="40.4468" y="61.2935">(nav/session + alert context -&gt; DCM diagnostic request/response observation seams)</text><rect fill="#FFFFFF" height="693.4678" style="stroke:#000000;stroke-width:1;" width="10" x="395.4165" y="290.085"/><line style="stroke:#000000;stroke-width:1;" x1="74" x2="74" y1="116.8936" y2="1084.7974"/><line style="stroke:#000000;stroke-width:1;" x1="206.3745" x2="206.3745" y1="116.8936" y2="1084.7974"/><line style="stroke:#000000;stroke-width:1;" x1="400.1423" x2="400.1423" y1="116.8936" y2="1084.7974"/><line style="stroke:#000000;stroke-width:1;" x1="706.6497" x2="706.6497" y1="116.8936" y2="1084.7974"/><line style="stroke:#000000;stroke-width:1;" x1="904.7529" x2="904.7529" y1="116.8936" y2="1084.7974"/><rect fill="#F4F7FB" height="39.2979" rx="2.5" ry="2.5" style="stroke:#000000;stroke-width:1;" width="109.3745" x="20" y="76.5957"/><text fill="#000000" font-family="Arial" font-size="11" lengthAdjust="spacing" textLength="58.0884" x="45.6431" y="94.0935">Navigation /</text><text fill="#000000" font-family="Arial" font-size="11" lengthAdjust="spacing" textLength="95.3745" x="27" y="106.7424">cluster-notif context</text><rect fill="#F4F7FB" height="39.2979" rx="2.5" ry="2.5" style="stroke:#000000;stroke-width:1;" width="109.3745" x="20" y="1083.7974"/><text fill="#000000" font-family="Arial" font-size="11" lengthAdjust="spacing" textLength="58.0884" x="45.6431" y="1101.2952">Navigation /</text><text fill="#000000" font-family="Arial" font-size="11" lengthAdjust="spacing" textLength="95.3745" x="27" y="1113.9441">cluster-notif context</text><rect fill="#E8F0FE" height="39.2979" rx="2.5" ry="2.5" style="stroke:#000000;stroke-width:1;" width="94.1045" x="159.3745" y="76.5957"/><text fill="#000000" font-family="Arial" font-size="11" lengthAdjust="spacing" textLength="80.1045" x="166.3745" y="94.0935">Boundary state /</text><text fill="#000000" font-family="Arial" font-size="11" lengthAdjust="spacing" textLength="77.0376" x="167.908" y="106.7424">fail-safe context</text><rect fill="#E8F0FE" height="39.2979" rx="2.5" ry="2.5" style="stroke:#000000;stroke-width:1;" width="94.1045" x="159.3745" y="1083.7974"/><text fill="#000000" font-family="Arial" font-size="11" lengthAdjust="spacing" textLength="80.1045" x="166.3745" y="1101.2952">Boundary state /</text><text fill="#000000" font-family="Arial" font-size="11" lengthAdjust="spacing" textLength="77.0376" x="167.908" y="1113.9441">fail-safe context</text><rect fill="#E8F7E8" height="39.2979" rx="2.5" ry="2.5" style="stroke:#000000;stroke-width:1;" width="96.5483" x="352.1423" y="76.5957"/><text fill="#000000" font-family="Arial" font-size="11" lengthAdjust="spacing" textLength="25.0508" x="387.8911" y="94.0935">DCM</text><text fill="#000000" font-family="Arial" font-size="11" lengthAdjust="spacing" textLength="82.5483" x="359.1423" y="106.7424">diagnostic owner</text><rect fill="#E8F7E8" height="39.2979" rx="2.5" ry="2.5" style="stroke:#000000;stroke-width:1;" width="96.5483" x="352.1423" y="1083.7974"/><text fill="#000000" font-family="Arial" font-size="11" lengthAdjust="spacing" textLength="25.0508" x="387.8911" y="1101.2952">DCM</text><text fill="#000000" font-family="Arial" font-size="11" lengthAdjust="spacing" textLength="82.5483" x="359.1423" y="1113.9441">diagnostic owner</text><rect fill="#FFF4CC" height="26.6489" rx="2.5" ry="2.5" style="stroke:#000000;stroke-width:1;" width="106.9146" x="653.6497" y="89.2446"/><text fill="#000000" font-family="Arial" font-size="11" lengthAdjust="spacing" textLength="92.9146" x="660.6497" y="106.7424">Diag sysvar seams</text><rect fill="#FFF4CC" height="26.6489" rx="2.5" ry="2.5" style="stroke:#000000;stroke-width:1;" width="106.9146" x="653.6497" y="1083.7974"/><text fill="#000000" font-family="Arial" font-size="11" lengthAdjust="spacing" textLength="92.9146" x="660.6497" y="1101.2952">Diag sysvar seams</text><rect fill="#FCE8FF" height="39.2979" rx="2.5" ry="2.5" style="stroke:#000000;stroke-width:1;" width="89.1953" x="860.7529" y="76.5957"/><text fill="#000000" font-family="Arial" font-size="11" lengthAdjust="spacing" textLength="56.8477" x="876.9268" y="94.0935">Observers /</text><text fill="#000000" font-family="Arial" font-size="11" lengthAdjust="spacing" textLength="75.1953" x="867.7529" y="106.7424">service readers</text><rect fill="#FCE8FF" height="39.2979" rx="2.5" ry="2.5" style="stroke:#000000;stroke-width:1;" width="89.1953" x="860.7529" y="1083.7974"/><text fill="#000000" font-family="Arial" font-size="11" lengthAdjust="spacing" textLength="56.8477" x="876.9268" y="1101.2952">Observers /</text><text fill="#000000" font-family="Arial" font-size="11" lengthAdjust="spacing" textLength="75.1953" x="867.7529" y="1113.9441">service readers</text><rect fill="#FFFFFF" height="693.4678" style="stroke:#000000;stroke-width:1;" width="10" x="395.4165" y="290.085"/><rect fill="#FFFFFF" height="3" style="stroke:#FFFFFF;stroke-width:1;" width="961.9482" x="5" y="146.218"/><line style="stroke:#000000;stroke-width:0.5;" x1="5" x2="966.9482" y1="146.218" y2="146.218"/><line style="stroke:#000000;stroke-width:0.5;" x1="5" x2="966.9482" y1="149.218" y2="149.218"/><rect fill="#FFFFFF" height="20.6489" style="stroke:#000000;stroke-width:1;" width="78.1577" x="446.8953" y="136.8936"/><text fill="#000000" font-family="Arial" font-size="11" font-weight="bold" lengthAdjust="spacing" textLength="61.1016" x="452.8953" y="151.3914">DCM Inputs</text><polygon fill="#000000" points="388.4165,194.8403,398.4165,198.8403,388.4165,202.8403,392.4165,198.8403" style="stroke:#000000;stroke-width:1;"/><line style="stroke:#000000;stroke-width:1;" x1="74.6873" x2="394.4165" y1="198.8403" y2="198.8403"/><text fill="#000000" font-family="Arial" font-size="11" lengthAdjust="spacing" textLength="117.9868" x="178.5585" y="182.0403">frmNavModuleStateMsg</text><text fill="#000000" font-family="Arial" font-size="11" lengthAdjust="spacing" textLength="169.9683" x="152.5677" y="194.6892">NavSessionState / NavRouteClass</text><polygon fill="#000000" points="388.4165,234.1382,398.4165,238.1382,388.4165,242.1382,392.4165,238.1382" style="stroke:#000000;stroke-width:1;"/><line style="stroke:#000000;stroke-width:1;" x1="74.6873" x2="394.4165" y1="238.1382" y2="238.1382"/><text fill="#000000" font-family="Arial" font-size="11" lengthAdjust="spacing" textLength="94.123" x="190.4904" y="221.3381">frmClusterNotifMsg</text><text fill="#000000" font-family="Arial" font-size="11" lengthAdjust="spacing" textLength="74.5776" x="200.2631" y="233.9871">ClusterNotifArg</text><polygon fill="#000000" points="383.4165,286.085,393.4165,290.085,383.4165,294.085,387.4165,290.085" style="stroke:#000000;stroke-width:1;"/><line style="stroke:#000000;stroke-width:1;" x1="206.4268" x2="389.4165" y1="290.085" y2="290.085"/><text fill="#000000" font-family="Arial" font-size="11" lengthAdjust="spacing" textLength="169.9897" x="215.9268" y="260.636">CoreState::domainBoundaryStatus</text><text fill="#000000" font-family="Arial" font-size="11" lengthAdjust="spacing" textLength="147.9736" x="226.9348" y="273.2849">CoreState::warningPathStatus</text><text fill="#000000" font-family="Arial" font-size="11" lengthAdjust="spacing" textLength="94.1606" x="253.8413" y="285.9338">Core::failSafeMode</text><line style="stroke:#000000;stroke-width:1;" x1="405.4165" x2="447.4165" y1="316.7339" y2="316.7339"/><line style="stroke:#000000;stroke-width:1;" x1="447.4165" x2="447.4165" y1="316.7339" y2="329.7339"/><line style="stroke:#000000;stroke-width:1;" x1="406.4165" x2="447.4165" y1="329.7339" y2="329.7339"/><polygon fill="#000000" points="416.4165,325.7339,406.4165,329.7339,416.4165,333.7339,412.4165,329.7339" style="stroke:#000000;stroke-width:1;"/><text fill="#000000" font-family="Arial" font-size="11" lengthAdjust="spacing" textLength="215.5259" x="412.4165" y="312.5828">routeActive = recent nav session/route class</text><line style="stroke:#000000;stroke-width:1;" x1="405.4165" x2="447.4165" y1="356.3828" y2="356.3828"/><line style="stroke:#000000;stroke-width:1;" x1="447.4165" x2="447.4165" y1="356.3828" y2="369.3828"/><line style="stroke:#000000;stroke-width:1;" x1="406.4165" x2="447.4165" y1="369.3828" y2="369.3828"/><polygon fill="#000000" points="416.4165,365.3828,406.4165,369.3828,416.4165,373.3828,412.4165,369.3828" style="stroke:#000000;stroke-width:1;"/><text fill="#000000" font-family="Arial" font-size="11" lengthAdjust="spacing" textLength="169.6675" x="412.4165" y="352.2317">alertLevel = recent cluster-notif arg</text><line style="stroke:#000000;stroke-width:1;" x1="405.4165" x2="447.4165" y1="408.6807" y2="408.6807"/><line style="stroke:#000000;stroke-width:1;" x1="447.4165" x2="447.4165" y1="408.6807" y2="421.6807"/><line style="stroke:#000000;stroke-width:1;" x1="406.4165" x2="447.4165" y1="421.6807" y2="421.6807"/><polygon fill="#000000" points="416.4165,417.6807,406.4165,421.6807,416.4165,425.6807,412.4165,421.6807" style="stroke:#000000;stroke-width:1;"/><text fill="#000000" font-family="Arial" font-size="11" lengthAdjust="spacing" textLength="82.2314" x="507.646" y="391.8806">serviceContext =</text><text fill="#000000" font-family="Arial" font-size="11" lengthAdjust="spacing" textLength="272.6904" x="412.4165" y="404.5295">ethHasBoundaryServiceContext(routeActive, alertLevel)</text><line style="stroke:#000000;stroke-width:1;" x1="405.4165" x2="447.4165" y1="460.9785" y2="460.9785"/><line style="stroke:#000000;stroke-width:1;" x1="447.4165" x2="447.4165" y1="460.9785" y2="473.9785"/><line style="stroke:#000000;stroke-width:1;" x1="406.4165" x2="447.4165" y1="473.9785" y2="473.9785"/><polygon fill="#000000" points="416.4165,469.9785,406.4165,473.9785,416.4165,477.9785,412.4165,473.9785" style="stroke:#000000;stroke-width:1;"/><text fill="#000000" font-family="Arial" font-size="11" lengthAdjust="spacing" textLength="192.3228" x="418.0562" y="444.1785">diagStage = ethDiagBoundaryStage(...)</text><text fill="#000000" font-family="Arial" font-size="11" lengthAdjust="spacing" textLength="203.6021" x="412.4165" y="456.8274">from route/alert/boundary/fail-safe context</text><line style="stroke:#000000;stroke-width:1;" x1="405.4165" x2="447.4165" y1="513.2764" y2="513.2764"/><line style="stroke:#000000;stroke-width:1;" x1="447.4165" x2="447.4165" y1="513.2764" y2="526.2764"/><line style="stroke:#000000;stroke-width:1;" x1="406.4165" x2="447.4165" y1="526.2764" y2="526.2764"/><polygon fill="#000000" points="416.4165,522.2764,406.4165,526.2764,416.4165,530.2764,412.4165,526.2764" style="stroke:#000000;stroke-width:1;"/><text fill="#000000" font-family="Arial" font-size="11" lengthAdjust="spacing" textLength="139.4067" x="412.4165" y="496.4763">securitySession / authState /</text><text fill="#000000" font-family="Arial" font-size="11" lengthAdjust="spacing" textLength="138.7622" x="412.7388" y="509.1252">securityFault / securityPolicy</text><line style="stroke:#000000;stroke-width:1;" x1="405.4165" x2="447.4165" y1="565.5742" y2="565.5742"/><line style="stroke:#000000;stroke-width:1;" x1="447.4165" x2="447.4165" y1="565.5742" y2="578.5742"/><line style="stroke:#000000;stroke-width:1;" x1="406.4165" x2="447.4165" y1="578.5742" y2="578.5742"/><polygon fill="#000000" points="416.4165,574.5742,406.4165,578.5742,416.4165,582.5742,412.4165,578.5742" style="stroke:#000000;stroke-width:1;"/><text fill="#000000" font-family="Arial" font-size="11" lengthAdjust="spacing" textLength="143.0752" x="412.4165" y="548.7742">serviceState / responseKind /</text><text fill="#000000" font-family="Arial" font-size="11" lengthAdjust="spacing" textLength="140.6475" x="413.6304" y="561.4231">reasonCode / responseCode</text><path d="M410,591.5742 L410,689.5742 L570,689.5742 L570,601.5742 L560,591.5742 L410,591.5742 " fill="#FFFFFF" style="stroke:#000000;stroke-width:1;"/><path d="M560,591.5742 L560,601.5742 L570,601.5742 L560,591.5742 " fill="#FFFFFF" style="stroke:#000000;stroke-width:1;"/><text fill="#000000" font-family="Arial" font-size="11" lengthAdjust="spacing" textLength="139.4229" x="416" y="607.072">Representative gating inputs</text><text fill="#000000" font-family="Arial" font-size="11" lengthAdjust="spacing" textLength="91.0991" x="416" y="619.7209">- NavSessionState</text><text fill="#000000" font-family="Arial" font-size="11" lengthAdjust="spacing" textLength="83.1392" x="416" y="632.3699">- NavRouteClass</text><text fill="#000000" font-family="Arial" font-size="11" lengthAdjust="spacing" textLength="81.2969" x="416" y="645.0188">- ClusterNotifArg</text><text fill="#000000" font-family="Arial" font-size="11" lengthAdjust="spacing" textLength="121.0698" x="416" y="657.6677">- domainBoundaryStatus</text><text fill="#000000" font-family="Arial" font-size="11" lengthAdjust="spacing" textLength="99.0537" x="416" y="670.3167">- warningPathStatus</text><text fill="#000000" font-family="Arial" font-size="11" lengthAdjust="spacing" textLength="70.9253" x="416" y="682.9656">- failSafeMode</text><rect fill="#FFFFFF" height="3" style="stroke:#FFFFFF;stroke-width:1;" width="961.9482" x="5" y="714.4412"/><line style="stroke:#000000;stroke-width:0.5;" x1="5" x2="966.9482" y1="714.4412" y2="714.4412"/><line style="stroke:#000000;stroke-width:0.5;" x1="5" x2="966.9482" y1="717.4412" y2="717.4412"/><rect fill="#FFFFFF" height="20.6489" style="stroke:#000000;stroke-width:1;" width="150.9146" x="410.5168" y="705.1167"/><text fill="#000000" font-family="Arial" font-size="11" font-weight="bold" lengthAdjust="spacing" textLength="133.8584" x="416.5168" y="719.6145">Diag Observation Publish</text><polygon fill="#000000" points="695.1069,750.4146,705.1069,754.4146,695.1069,758.4146,699.1069,754.4146" style="stroke:#000000;stroke-width:1;"/><line style="stroke:#000000;stroke-width:1;" x1="405.4165" x2="701.1069" y1="754.4146" y2="754.4146"/><text fill="#000000" font-family="Arial" font-size="11" lengthAdjust="spacing" textLength="245.1958" x="433.6638" y="750.2634">Diag::ServiceState / ResponseKind / ReasonCode</text><polygon fill="#000000" points="695.1069,777.0635,705.1069,781.0635,695.1069,785.0635,699.1069,781.0635" style="stroke:#000000;stroke-width:1;"/><line style="stroke:#000000;stroke-width:1;" x1="405.4165" x2="701.1069" y1="781.0635" y2="781.0635"/><text fill="#000000" font-family="Arial" font-size="11" lengthAdjust="spacing" textLength="184.0513" x="464.2361" y="776.9124">Diag::LastRequest* / RequestCounter</text><polygon fill="#000000" points="695.1069,803.7124,705.1069,807.7124,695.1069,811.7124,699.1069,807.7124" style="stroke:#000000;stroke-width:1;"/><line style="stroke:#000000;stroke-width:1;" x1="405.4165" x2="701.1069" y1="807.7124" y2="807.7124"/><text fill="#000000" font-family="Arial" font-size="11" lengthAdjust="spacing" textLength="201.1743" x="455.6746" y="803.5613">Diag::LastResponse* / ResponseCounter</text><path d="M410,820.7124 L410,905.7124 L615,905.7124 L615,830.7124 L605,820.7124 L410,820.7124 " fill="#FFFFFF" style="stroke:#000000;stroke-width:1;"/><path d="M605,820.7124 L605,830.7124 L615,830.7124 L605,820.7124 " fill="#FFFFFF" style="stroke:#000000;stroke-width:1;"/><text fill="#000000" font-family="Arial" font-size="11" lengthAdjust="spacing" textLength="113.126" x="416" y="836.2102">Representative outputs</text><text fill="#000000" font-family="Arial" font-size="11" lengthAdjust="spacing" textLength="69.083" x="416" y="848.8591">- ServiceState</text><text fill="#000000" font-family="Arial" font-size="11" lengthAdjust="spacing" textLength="78.2676" x="416" y="861.5081">- ResponseKind</text><text fill="#000000" font-family="Arial" font-size="11" lengthAdjust="spacing" textLength="84.3799" x="416" y="874.157">- LastRequestSid</text><text fill="#000000" font-family="Arial" font-size="11" lengthAdjust="spacing" textLength="103.3398" x="416" y="886.8059">- LastResponseCode</text><text fill="#000000" font-family="Arial" font-size="11" lengthAdjust="spacing" textLength="184.6582" x="416" y="899.4548">- RequestCounter / ResponseCounter</text><rect fill="#FFFFFF" height="3" style="stroke:#FFFFFF;stroke-width:1;" width="961.9482" x="5" y="930.9304"/><line style="stroke:#000000;stroke-width:0.5;" x1="5" x2="966.9482" y1="930.9304" y2="930.9304"/><line style="stroke:#000000;stroke-width:0.5;" x1="5" x2="966.9482" y1="933.9304" y2="933.9304"/><rect fill="#FFFFFF" height="20.6489" style="stroke:#000000;stroke-width:1;" width="131.3638" x="420.2922" y="921.606"/><text fill="#000000" font-family="Arial" font-size="11" font-weight="bold" lengthAdjust="spacing" textLength="114.3076" x="426.2922" y="936.1038">Downstream Visibility</text><polygon fill="#000000" points="893.3506,979.5527,903.3506,983.5527,893.3506,987.5527,897.3506,983.5527" style="stroke:#000000;stroke-width:1;"/><line style="stroke:#000000;stroke-width:1;" x1="707.1069" x2="899.3506" y1="983.5527" y2="983.5527"/><text fill="#000000" font-family="Arial" font-size="11" lengthAdjust="spacing" textLength="115.5698" x="748.4438" y="966.7527">diagnostic observation /</text><text fill="#000000" font-family="Arial" font-size="11" lengthAdjust="spacing" textLength="174.2437" x="719.1069" y="979.4016">service and reviewer-facing readers</text><path d="M17,996.5527 L17,1069.5527 L961,1069.5527 L961,1006.5527 L951,996.5527 L17,996.5527 " fill="#FFFFFF" style="stroke:#000000;stroke-width:1;"/><path d="M951,996.5527 L951,1006.5527 L961,1006.5527 L951,996.5527 " fill="#FFFFFF" style="stroke:#000000;stroke-width:1;"/><text fill="#000000" font-family="Arial" font-size="11" lengthAdjust="spacing" textLength="143.0752" x="329.3655" y="1012.0505">Representative runtime chain</text><text fill="#000000" font-family="Arial" font-size="11" lengthAdjust="spacing" textLength="207.2705" x="329.3655" y="1024.6995">1. Navigation and alert context reach DCM</text><text fill="#000000" font-family="Arial" font-size="11" lengthAdjust="spacing" textLength="276.3535" x="329.3655" y="1037.3484">2. DCM combines them with boundary and fail-safe state</text><text fill="#000000" font-family="Arial" font-size="11" lengthAdjust="spacing" textLength="307.5596" x="329.3655" y="1049.9973">3. DCM derives diagnostic stage and request/response posture</text><text fill="#000000" font-family="Arial" font-size="11" lengthAdjust="spacing" textLength="311.2173" x="329.3655" y="1062.6462">4. DCM publishes request/response observation seams on Diag</text><!--SRC=[XLPDRziu4BtpLqpRIzBMzgODq4A05t2q4RRO9WtYOa- -qD9O9YgJNfAoa_trdI4bctBTDfU8v7o-UJFZ5twD6uHj8vKMxflIMsdb1fQo_5PRq-egDusnyAe8Vub4XIlPDhumsjzBiZ2pIZRdt-VgVuIhg-JHuNyjwXBlq3bPuwnHjOOIjKURI5bqMwDTBtM3ZTdFh3LxyBP58Rpo3SAztC6iGUiX9r_uvE6hWR_oEtXa9yxJ_sW6lYmTsftqocYOaqVPG44c5_f2ozt4aHT-UGCoM2ixQwC_WxLAoLeRvrL9SGN3apu-C8bXXtBZBeMW54XMRQNsy99YL7LydonqsRIECXrfuzMgz_CIfEDSSlz4Q5yN7ugReOqRheQqp-2yzCXsLb8r8oTNEB1na7jr-x7uexWTMg5K5Zh9nUmrsg37IRBAXzkF9oea3UxPxQIDsKLnkhrfNM36TPuFLIBIQ1s7oP-gH89DLdGLj4c0D7DoLmWndGRdd_IszGwcKo4w73heCrZP3LtTcQfjSCxftxbweUbg7eisZv0mVe-czPWtqhbpLl88_JqZ7soa5pDRYmDw1wtSsEWpoogpeJRfHVYoTMJYAB2NLYjTFqY_Jb-pZ4irfqfH2YXawTME0oO7WfqSV5aEViRF25C2Z5i2Y9pGaNCI1A0CwGqq0sS_umwRe-AGPvAo6wXqTUcxPhhGwDT_ItV8R_1-aSJsDd5tEJJArABKQuwVp0MM7F6gyM8y7byITQtPn6mdmTHasGbDVY3rQT1bQvL_xWfFDPTj11iZr-9pmRE77llpWsbK-Nms_vuxVJV_etJ5feYkpb3vglIHZuBm93QhUkt1h48H7t5B4eIv3ANZLjSrg41eCO8JeiQRXAWZEANX2CvnZQv_O1ZT3SY553q76DkAMpSTUm_jib5k7Pgi1wDhv2nyPTby2ClZ01OwzgZyJF-pTBuRlQ-3GlZCAH6UxhzKYfvU9rvxjTz2Jc1sOAVnqp6Dduv9T7Drl4YgEpe9-KmqGunfX3fFRDd0lygffMg8Rn7WBadAb-TTbkwGT6KaCrAIPOixXNlgsvKicKRTt1GL3WP7nCJGbEtMnblsSegBfOWLhUTopGl-QWp9Ac9dmrr7hifriFvk7BgaD9kbqkY0VoR0Nlarz9qQr8_T6hQIU1_LA5voxjA4NHWACR-JzRabYTQYk8xAsyXHKl_zeWNwO9YF9VaE]--></g></svg>