<svg xmlns="http://www.w3.org/2000/svg" xmlns:xlink="http://www.w3.org/1999/xlink" contentStyleType="text/css" height="946px" preserveAspectRatio="none" style="width:1017px;height:946px;background:#FFFFFF;" version="1.1" viewBox="0 0 1017 946" width="1017px" zoomAndPan="magnify"><title>Nav ETA To IBOX Zone Distance Route State Signal Flow</title><defs/><g><text fill="#000000" font-family="Arial" font-size="22" font-weight="bold" lengthAdjust="spacing" textLength="596.5244" x="208.7622" y="35.9956">Nav ETA To IBOX Zone Distance Route State Signal Flow</text><text fill="#000000" font-family="Arial" font-size="22" font-weight="bold" lengthAdjust="spacing" textLength="984.0488" x="15" y="61.2935">(navigation ETA + route activity -&gt; IBOX zone-distance derivation and route-state aggregation)</text><rect fill="#FFFFFF" height="549.9253" style="stroke:#000000;stroke-width:1;" width="10" x="452.9768" y="250.7871"/><line style="stroke:#000000;stroke-width:1;" x1="171.7275" x2="171.7275" y1="116.8936" y2="901.957"/><line style="stroke:#000000;stroke-width:1;" x1="306.2144" x2="306.2144" y1="116.8936" y2="901.957"/><line style="stroke:#000000;stroke-width:1;" x1="457.1104" x2="457.1104" y1="116.8936" y2="901.957"/><line style="stroke:#000000;stroke-width:1;" x1="707.3784" x2="707.3784" y1="116.8936" y2="901.957"/><line style="stroke:#000000;stroke-width:1;" x1="847.896" x2="847.896" y1="116.8936" y2="901.957"/><rect fill="#F4F7FB" height="26.6489" rx="2.5" ry="2.5" style="stroke:#000000;stroke-width:1;" width="93.4868" x="125.7275" y="89.2446"/><text fill="#000000" font-family="Arial" font-size="11" lengthAdjust="spacing" textLength="79.4868" x="132.7275" y="106.7424">Nav module bus</text><rect fill="#F4F7FB" height="26.6489" rx="2.5" ry="2.5" style="stroke:#000000;stroke-width:1;" width="93.4868" x="125.7275" y="900.957"/><text fill="#000000" font-family="Arial" font-size="11" lengthAdjust="spacing" textLength="79.4868" x="132.7275" y="918.4548">Nav module bus</text><rect fill="#E8F0FE" height="26.6489" rx="2.5" ry="2.5" style="stroke:#000000;stroke-width:1;" width="114.896" x="249.2144" y="89.2446"/><text fill="#000000" font-family="Arial" font-size="11" lengthAdjust="spacing" textLength="100.896" x="256.2144" y="106.7424">Navigation route bus</text><rect fill="#E8F0FE" height="26.6489" rx="2.5" ry="2.5" style="stroke:#000000;stroke-width:1;" width="114.896" x="249.2144" y="900.957"/><text fill="#000000" font-family="Arial" font-size="11" lengthAdjust="spacing" textLength="100.896" x="256.2144" y="918.4548">Navigation route bus</text><rect fill="#E8F7E8" height="39.2979" rx="2.5" ry="2.5" style="stroke:#000000;stroke-width:1;" width="127.7329" x="394.1104" y="76.5957"/><text fill="#000000" font-family="Arial" font-size="11" lengthAdjust="spacing" textLength="26.2861" x="444.8337" y="94.0935">IBOX</text><text fill="#000000" font-family="Arial" font-size="11" lengthAdjust="spacing" textLength="113.7329" x="401.1104" y="106.7424">connectivity aggregator</text><rect fill="#E8F7E8" height="39.2979" rx="2.5" ry="2.5" style="stroke:#000000;stroke-width:1;" width="127.7329" x="394.1104" y="900.957"/><text fill="#000000" font-family="Arial" font-size="11" lengthAdjust="spacing" textLength="26.2861" x="444.8337" y="918.4548">IBOX</text><text fill="#000000" font-family="Arial" font-size="11" lengthAdjust="spacing" textLength="113.7329" x="401.1104" y="931.1038">connectivity aggregator</text><rect fill="#FFF4CC" height="26.6489" rx="2.5" ry="2.5" style="stroke:#000000;stroke-width:1;" width="106.9253" x="654.3784" y="89.2446"/><text fill="#000000" font-family="Arial" font-size="11" lengthAdjust="spacing" textLength="92.9253" x="661.3784" y="106.7424">IBOX runtime state</text><rect fill="#FFF4CC" height="26.6489" rx="2.5" ry="2.5" style="stroke:#000000;stroke-width:1;" width="106.9253" x="654.3784" y="900.957"/><text fill="#000000" font-family="Arial" font-size="11" lengthAdjust="spacing" textLength="92.9253" x="661.3784" y="918.4548">IBOX runtime state</text><rect fill="#FFF4CC" height="39.2979" rx="2.5" ry="2.5" style="stroke:#000000;stroke-width:1;" width="79.4253" x="808.896" y="76.5957"/><text fill="#000000" font-family="Arial" font-size="11" lengthAdjust="spacing" textLength="56.8477" x="820.1848" y="94.0935">Observers /</text><text fill="#000000" font-family="Arial" font-size="11" lengthAdjust="spacing" textLength="65.4253" x="815.896" y="106.7424">route readers</text><rect fill="#FFF4CC" height="39.2979" rx="2.5" ry="2.5" style="stroke:#000000;stroke-width:1;" width="79.4253" x="808.896" y="900.957"/><text fill="#000000" font-family="Arial" font-size="11" lengthAdjust="spacing" textLength="56.8477" x="820.1848" y="918.4548">Observers /</text><text fill="#000000" font-family="Arial" font-size="11" lengthAdjust="spacing" textLength="65.4253" x="815.896" y="931.1038">route readers</text><rect fill="#FFFFFF" height="549.9253" style="stroke:#000000;stroke-width:1;" width="10" x="452.9768" y="250.7871"/><rect fill="#FFFFFF" height="3" style="stroke:#FFFFFF;stroke-width:1;" width="793.5938" x="110.7275" y="146.218"/><line style="stroke:#000000;stroke-width:0.5;" x1="110.7275" x2="904.3213" y1="146.218" y2="146.218"/><line style="stroke:#000000;stroke-width:0.5;" x1="110.7275" x2="904.3213" y1="149.218" y2="149.218"/><rect fill="#FFFFFF" height="20.6489" style="stroke:#000000;stroke-width:1;" width="80" x="467.5244" y="136.8936"/><text fill="#000000" font-family="Arial" font-size="11" font-weight="bold" lengthAdjust="spacing" textLength="62.9438" x="473.5244" y="151.3914">IBOX Inputs</text><polygon fill="#000000" points="445.9768,207.4893,455.9768,211.4893,445.9768,215.4893,449.9768,211.4893" style="stroke:#000000;stroke-width:1;"/><line style="stroke:#000000;stroke-width:1;" x1="172.4709" x2="451.9768" y1="211.4893" y2="211.4893"/><text fill="#000000" font-family="Arial" font-size="11" lengthAdjust="spacing" textLength="117.9868" x="256.2305" y="182.0403">frmNavModuleStateMsg</text><text fill="#000000" font-family="Arial" font-size="11" lengthAdjust="spacing" textLength="165.0698" x="232.689" y="194.6892">NavRouteClass / NavGuideType /</text><text fill="#000000" font-family="Arial" font-size="11" lengthAdjust="spacing" textLength="158.3506" x="236.0486" y="207.3381">NavEtaMinutes / NavSpeedLimit</text><polygon fill="#000000" points="440.9768,246.7871,450.9768,250.7871,440.9768,254.7871,444.9768,250.7871" style="stroke:#000000;stroke-width:1;"/><line style="stroke:#000000;stroke-width:1;" x1="306.6624" x2="446.9768" y1="250.7871" y2="250.7871"/><text fill="#000000" font-family="Arial" font-size="11" lengthAdjust="spacing" textLength="117.9922" x="320.8235" y="233.9871">frmNavigationRouteMsg</text><text fill="#000000" font-family="Arial" font-size="11" lengthAdjust="spacing" textLength="55.0269" x="352.3062" y="246.636">EtaMinutes</text><line style="stroke:#000000;stroke-width:1;" x1="462.9768" x2="504.9768" y1="277.436" y2="277.436"/><line style="stroke:#000000;stroke-width:1;" x1="504.9768" x2="504.9768" y1="277.436" y2="290.436"/><line style="stroke:#000000;stroke-width:1;" x1="463.9768" x2="504.9768" y1="290.436" y2="290.436"/><polygon fill="#000000" points="473.9768,286.436,463.9768,290.436,473.9768,294.436,469.9768,290.436" style="stroke:#000000;stroke-width:1;"/><text fill="#000000" font-family="Arial" font-size="11" lengthAdjust="spacing" textLength="113.7222" x="469.9768" y="273.2849">nav freshness windows</text><line style="stroke:#000000;stroke-width:1;" x1="462.9768" x2="504.9768" y1="329.7339" y2="329.7339"/><line style="stroke:#000000;stroke-width:1;" x1="504.9768" x2="504.9768" y1="329.7339" y2="342.7339"/><line style="stroke:#000000;stroke-width:1;" x1="463.9768" x2="504.9768" y1="342.7339" y2="342.7339"/><polygon fill="#000000" points="473.9768,338.7339,463.9768,342.7339,473.9768,346.7339,469.9768,342.7339" style="stroke:#000000;stroke-width:1;"/><text fill="#000000" font-family="Arial" font-size="11" lengthAdjust="spacing" textLength="175.1836" x="469.9768" y="312.9338">etaMinutes = Route Eta when fresh,</text><text fill="#000000" font-family="Arial" font-size="11" lengthAdjust="spacing" textLength="119.2275" x="497.9548" y="325.5828">else Nav Eta when fresh</text><line style="stroke:#000000;stroke-width:1;" x1="462.9768" x2="504.9768" y1="369.3828" y2="369.3828"/><line style="stroke:#000000;stroke-width:1;" x1="504.9768" x2="504.9768" y1="369.3828" y2="382.3828"/><line style="stroke:#000000;stroke-width:1;" x1="463.9768" x2="504.9768" y1="382.3828" y2="382.3828"/><polygon fill="#000000" points="473.9768,378.3828,463.9768,382.3828,473.9768,386.3828,469.9768,382.3828" style="stroke:#000000;stroke-width:1;"/><text fill="#000000" font-family="Arial" font-size="11" lengthAdjust="spacing" textLength="185.8452" x="469.9768" y="365.2317">deriveZoneDistanceFromEtaMinutes()</text><line style="stroke:#000000;stroke-width:1;" x1="462.9768" x2="504.9768" y1="409.0317" y2="409.0317"/><line style="stroke:#000000;stroke-width:1;" x1="504.9768" x2="504.9768" y1="409.0317" y2="422.0317"/><line style="stroke:#000000;stroke-width:1;" x1="463.9768" x2="504.9768" y1="422.0317" y2="422.0317"/><polygon fill="#000000" points="473.9768,418.0317,463.9768,422.0317,473.9768,426.0317,469.9768,422.0317" style="stroke:#000000;stroke-width:1;"/><text fill="#000000" font-family="Arial" font-size="11" lengthAdjust="spacing" textLength="136.0444" x="469.9768" y="404.8806">roadZone = NavRouteClass</text><line style="stroke:#000000;stroke-width:1;" x1="462.9768" x2="504.9768" y1="461.3296" y2="461.3296"/><line style="stroke:#000000;stroke-width:1;" x1="504.9768" x2="504.9768" y1="461.3296" y2="474.3296"/><line style="stroke:#000000;stroke-width:1;" x1="463.9768" x2="504.9768" y1="474.3296" y2="474.3296"/><polygon fill="#000000" points="473.9768,470.3296,463.9768,474.3296,473.9768,478.3296,469.9768,474.3296" style="stroke:#000000;stroke-width:1;"/><text fill="#000000" font-family="Arial" font-size="11" lengthAdjust="spacing" textLength="164.5059" x="495.656" y="444.5295">routeState = 1 when roadZone&gt;0,</text><text fill="#000000" font-family="Arial" font-size="11" lengthAdjust="spacing" textLength="215.8643" x="469.9768" y="457.1785">2 when navDirection&gt;0 and zoneDistance&gt;0</text><path d="M467.7275,487.3296 L467.7275,560.3296 L627.7275,560.3296 L627.7275,497.3296 L617.7275,487.3296 L467.7275,487.3296 " fill="#FFFFFF" style="stroke:#000000;stroke-width:1;"/><path d="M617.7275,487.3296 L617.7275,497.3296 L627.7275,497.3296 L617.7275,487.3296 " fill="#FFFFFF" style="stroke:#000000;stroke-width:1;"/><text fill="#000000" font-family="Arial" font-size="11" lengthAdjust="spacing" textLength="139.4229" x="473.7275" y="502.8274">Representative gating inputs</text><text fill="#000000" font-family="Arial" font-size="11" lengthAdjust="spacing" textLength="83.1392" x="473.7275" y="515.4763">- NavRouteClass</text><text fill="#000000" font-family="Arial" font-size="11" lengthAdjust="spacing" textLength="80.0884" x="473.7275" y="528.1252">- NavGuideType</text><text fill="#000000" font-family="Arial" font-size="11" lengthAdjust="spacing" textLength="81.3076" x="473.7275" y="540.7742">- NavEtaMinutes</text><text fill="#000000" font-family="Arial" font-size="11" lengthAdjust="spacing" textLength="61.7461" x="473.7275" y="553.4231">- EtaMinutes</text><rect fill="#FFFFFF" height="3" style="stroke:#FFFFFF;stroke-width:1;" width="793.5938" x="110.7275" y="584.8987"/><line style="stroke:#000000;stroke-width:0.5;" x1="110.7275" x2="904.3213" y1="584.8987" y2="584.8987"/><line style="stroke:#000000;stroke-width:0.5;" x1="110.7275" x2="904.3213" y1="587.8987" y2="587.8987"/><rect fill="#FFFFFF" height="20.6489" style="stroke:#000000;stroke-width:1;" width="153.3423" x="430.8533" y="575.5742"/><text fill="#000000" font-family="Arial" font-size="11" font-weight="bold" lengthAdjust="spacing" textLength="136.2861" x="436.8533" y="590.072">IBOX Runtime Publication</text><polygon fill="#000000" points="695.8411,633.521,705.8411,637.521,695.8411,641.521,699.8411,637.521" style="stroke:#000000;stroke-width:1;"/><line style="stroke:#000000;stroke-width:1;" x1="462.9768" x2="701.8411" y1="637.521" y2="637.521"/><text fill="#000000" font-family="Arial" font-size="11" lengthAdjust="spacing" textLength="172.4229" x="499.1975" y="620.7209">runtime zoneDistance / routeState /</text><text fill="#000000" font-family="Arial" font-size="11" lengthAdjust="spacing" textLength="117.396" x="526.7109" y="633.3699">roadZone / navDirection</text><path d="M467.7275,650.521 L467.7275,723.521 L601.7275,723.521 L601.7275,660.521 L591.7275,650.521 L467.7275,650.521 " fill="#FFFFFF" style="stroke:#000000;stroke-width:1;"/><path d="M591.7275,650.521 L591.7275,660.521 L601.7275,660.521 L591.7275,650.521 " fill="#FFFFFF" style="stroke:#000000;stroke-width:1;"/><text fill="#000000" font-family="Arial" font-size="11" lengthAdjust="spacing" textLength="113.126" x="473.7275" y="666.0188">Representative outputs</text><text fill="#000000" font-family="Arial" font-size="11" lengthAdjust="spacing" textLength="73.3691" x="473.7275" y="678.6677">- zoneDistance</text><text fill="#000000" font-family="Arial" font-size="11" lengthAdjust="spacing" textLength="57.4761" x="473.7275" y="691.3167">- routeState</text><text fill="#000000" font-family="Arial" font-size="11" lengthAdjust="spacing" textLength="53.8076" x="473.7275" y="703.9656">- roadZone</text><text fill="#000000" font-family="Arial" font-size="11" lengthAdjust="spacing" textLength="67.8584" x="473.7275" y="716.6145">- navDirection</text><rect fill="#FFFFFF" height="3" style="stroke:#FFFFFF;stroke-width:1;" width="793.5938" x="110.7275" y="748.0901"/><line style="stroke:#000000;stroke-width:0.5;" x1="110.7275" x2="904.3213" y1="748.0901" y2="748.0901"/><line style="stroke:#000000;stroke-width:0.5;" x1="110.7275" x2="904.3213" y1="751.0901" y2="751.0901"/><rect fill="#FFFFFF" height="20.6489" style="stroke:#000000;stroke-width:1;" width="131.3638" x="441.8425" y="738.7656"/><text fill="#000000" font-family="Arial" font-size="11" font-weight="bold" lengthAdjust="spacing" textLength="114.3076" x="447.8425" y="753.2634">Downstream Visibility</text><polygon fill="#000000" points="836.6086,796.7124,846.6086,800.7124,836.6086,804.7124,840.6086,800.7124" style="stroke:#000000;stroke-width:1;"/><line style="stroke:#000000;stroke-width:1;" x1="707.8411" x2="842.6086" y1="800.7124" y2="800.7124"/><text fill="#000000" font-family="Arial" font-size="11" lengthAdjust="spacing" textLength="116.7676" x="719.8411" y="783.9124">route-distance visibility /</text><text fill="#000000" font-family="Arial" font-size="11" lengthAdjust="spacing" textLength="76.4253" x="740.0122" y="796.5613">route observers</text><path d="M121.7275,813.7124 L121.7275,886.7124 L898.7275,886.7124 L898.7275,823.7124 L888.7275,813.7124 L121.7275,813.7124 " fill="#FFFFFF" style="stroke:#000000;stroke-width:1;"/><path d="M888.7275,813.7124 L888.7275,823.7124 L898.7275,823.7124 L888.7275,813.7124 " fill="#FFFFFF" style="stroke:#000000;stroke-width:1;"/><text fill="#000000" font-family="Arial" font-size="11" lengthAdjust="spacing" textLength="143.0752" x="347.6577" y="829.2102">Representative runtime chain</text><text fill="#000000" font-family="Arial" font-size="11" lengthAdjust="spacing" textLength="275.7627" x="347.6577" y="841.8591">1. Navigation module and route ETA context reach IBOX</text><text fill="#000000" font-family="Arial" font-size="11" lengthAdjust="spacing" textLength="196.8613" x="347.6577" y="854.5081">2. IBOX selects the freshest ETA source</text><text fill="#000000" font-family="Arial" font-size="11" lengthAdjust="spacing" textLength="238.439" x="347.6577" y="867.157">3. IBOX derives zone distance from ETA buckets</text><text fill="#000000" font-family="Arial" font-size="11" lengthAdjust="spacing" textLength="316.7334" x="347.6577" y="879.8059">4. IBOX updates route-state aggregation for downstream readers</text><!--SRC=[ZLLTJnin47o_Nx655r0991G9X9H88IGLKWCLeAggykBSRIuMb_NLzYN0h-_Qli_GIir3b8jtTdV6itkVx1et27ac94NcHL8kjDZ0KiGlgLO59HELAGs7C_zfHIIu4aLcPuhilU0COor5zlVp9_cEC1Yq3Wt-Bf1YdACn8iLn9bE26CcYRaLfDBaYKqNTOAPsOwtL3gmkC8gij1d2lTZ2z7aCpmhkRXv-mYz52BVIMC45u54L5k792lVDLKG6Cqwpe2CIMvaAAnLv-6VGFbJ4LcwbVOFUAEHxvtozfCgNe9RRW1AK14pF-FGYJJM6ZCTHn1IiZ6KkoCA1wt6ZaeBRNHRc08HnRSzLmi9Up2vdDn_2gzP2KorG87GulPhrPzCkpBMxe5WHOKMYwabfZ_U47FPoUlKH2xeWA_akFPy0MAhN89vpmCLaqaKzB0tgBMe3PmiAhMeKh55ebuzhN3GSXl9tb1VMm70OHQK6bTBNiDARy1yhvSlEJRgWYlKa4uOhEHM-5ZB1vxSSNM5-dbenbyGnvVbJZfXyanjfergp_JAbnFxGrscIHDu5ZhP3H1xMmDavd0BDcjYOi9EKg9tP3yAces7fGiuFkpLI09yi23DJ-hTpif_AUmwThojRpxJQDDqU7UyZj1A9duCXTCJx6CSduNw7C0WjLDXHdpiy3_ynurkfdQiKZVhU-U-jTaRzY9IxUvckBQXLKEqHSsR3GyqoRn6SsfI2zDSVzVOQwtLkDJosxgC7hGVaygvUuwd7qhZVYsKcup0vpc0rtTh6rxN9smJOD2qfl9TB0SywtF-39gSf2ROBy6DJm3-4_Fopaxz3xLRjo5WUg0tya4OkPUP6slEg-J0vDsNbLJPxQji0wj5KrRH62NOD7dWfFYltqedBka-jKYvUkvV5u1HQUwhSRlLEz3kLLv75L-jsGhmEbSvFmuqPp9Yo0Nxz1DEZiHvZLA5PhozbNF2-yM92pMx5_lVHoo9-GLRxeWmlyaIuaVl7NeOLlykIHjPoMJMo_m40]--></g></svg>