<svg xmlns="http://www.w3.org/2000/svg" xmlns:xlink="http://www.w3.org/1999/xlink" contentStyleType="text/css" height="1141px" preserveAspectRatio="none" style="width:1113px;height:1141px;background:#FFFFFF;" version="1.1" viewBox="0 0 1113 1141" width="1113px" zoomAndPan="magnify"><title>Nav And Failsafe Context To IBOX Route Service Flags Signal Flow</title><defs/><g><text fill="#000000" font-family="Arial" font-size="22" font-weight="bold" lengthAdjust="spacing" textLength="702.915" x="203.8009" y="35.9956">Nav And Failsafe Context To IBOX Route Service Flags Signal Flow</text><text fill="#000000" font-family="Arial" font-size="22" font-weight="bold" lengthAdjust="spacing" textLength="892.4824" x="109.0172" y="61.2935">(vehicle/nav context + fail-safe state -&gt; IBOX link, route, and service-flag aggregation)</text><rect fill="#FFFFFF" height="627.521" style="stroke:#000000;stroke-width:1;" width="10" x="568.1428" y="368.6807"/><line style="stroke:#000000;stroke-width:1;" x1="68" x2="68" y1="116.8936" y2="1097.4463"/><line style="stroke:#000000;stroke-width:1;" x1="196.7729" x2="196.7729" y1="116.8936" y2="1097.4463"/><line style="stroke:#000000;stroke-width:1;" x1="338.1582" x2="338.1582" y1="116.8936" y2="1097.4463"/><line style="stroke:#000000;stroke-width:1;" x1="572.2764" x2="572.2764" y1="116.8936" y2="1097.4463"/><line style="stroke:#000000;stroke-width:1;" x1="829.8813" x2="829.8813" y1="116.8936" y2="1097.4463"/><line style="stroke:#000000;stroke-width:1;" x1="1046.3215" x2="1046.3215" y1="116.8936" y2="1097.4463"/><rect fill="#F4F7FB" height="26.6489" rx="2.5" ry="2.5" style="stroke:#000000;stroke-width:1;" width="97.7729" x="20" y="89.2446"/><text fill="#000000" font-family="Arial" font-size="11" lengthAdjust="spacing" textLength="83.7729" x="27" y="106.7424">Vehicle state bus</text><rect fill="#F4F7FB" height="26.6489" rx="2.5" ry="2.5" style="stroke:#000000;stroke-width:1;" width="97.7729" x="20" y="1096.4463"/><text fill="#000000" font-family="Arial" font-size="11" lengthAdjust="spacing" textLength="83.7729" x="27" y="1113.9441">Vehicle state bus</text><rect fill="#E8F0FE" height="26.6489" rx="2.5" ry="2.5" style="stroke:#000000;stroke-width:1;" width="98.3853" x="147.7729" y="89.2446"/><text fill="#000000" font-family="Arial" font-size="11" lengthAdjust="spacing" textLength="84.3853" x="154.7729" y="106.7424">Navigation buses</text><rect fill="#E8F0FE" height="26.6489" rx="2.5" ry="2.5" style="stroke:#000000;stroke-width:1;" width="98.3853" x="147.7729" y="1096.4463"/><text fill="#000000" font-family="Arial" font-size="11" lengthAdjust="spacing" textLength="84.3853" x="154.7729" y="1113.9441">Navigation buses</text><rect fill="#FCE8FF" height="26.6489" rx="2.5" ry="2.5" style="stroke:#000000;stroke-width:1;" width="124.0483" x="276.1582" y="89.2446"/><text fill="#000000" font-family="Arial" font-size="11" lengthAdjust="spacing" textLength="110.0483" x="283.1582" y="106.7424">ADAS/fail-safe context</text><rect fill="#FCE8FF" height="26.6489" rx="2.5" ry="2.5" style="stroke:#000000;stroke-width:1;" width="124.0483" x="276.1582" y="1096.4463"/><text fill="#000000" font-family="Arial" font-size="11" lengthAdjust="spacing" textLength="110.0483" x="283.1582" y="1113.9441">ADAS/fail-safe context</text><rect fill="#E8F7E8" height="39.2979" rx="2.5" ry="2.5" style="stroke:#000000;stroke-width:1;" width="127.7329" x="509.2764" y="76.5957"/><text fill="#000000" font-family="Arial" font-size="11" lengthAdjust="spacing" textLength="26.2861" x="559.9998" y="94.0935">IBOX</text><text fill="#000000" font-family="Arial" font-size="11" lengthAdjust="spacing" textLength="113.7329" x="516.2764" y="106.7424">connectivity aggregator</text><rect fill="#E8F7E8" height="39.2979" rx="2.5" ry="2.5" style="stroke:#000000;stroke-width:1;" width="127.7329" x="509.2764" y="1096.4463"/><text fill="#000000" font-family="Arial" font-size="11" lengthAdjust="spacing" textLength="26.2861" x="559.9998" y="1113.9441">IBOX</text><text fill="#000000" font-family="Arial" font-size="11" lengthAdjust="spacing" textLength="113.7329" x="516.2764" y="1126.593">connectivity aggregator</text><rect fill="#FFF4CC" height="26.6489" rx="2.5" ry="2.5" style="stroke:#000000;stroke-width:1;" width="106.9253" x="776.8813" y="89.2446"/><text fill="#000000" font-family="Arial" font-size="11" lengthAdjust="spacing" textLength="92.9253" x="783.8813" y="106.7424">IBOX runtime state</text><rect fill="#FFF4CC" height="26.6489" rx="2.5" ry="2.5" style="stroke:#000000;stroke-width:1;" width="106.9253" x="776.8813" y="1096.4463"/><text fill="#000000" font-family="Arial" font-size="11" lengthAdjust="spacing" textLength="92.9253" x="783.8813" y="1113.9441">IBOX runtime state</text><rect fill="#FFF4CC" height="39.2979" rx="2.5" ry="2.5" style="stroke:#000000;stroke-width:1;" width="89.1953" x="1002.3215" y="76.5957"/><text fill="#000000" font-family="Arial" font-size="11" lengthAdjust="spacing" textLength="56.8477" x="1018.4954" y="94.0935">Observers /</text><text fill="#000000" font-family="Arial" font-size="11" lengthAdjust="spacing" textLength="75.1953" x="1009.3215" y="106.7424">service readers</text><rect fill="#FFF4CC" height="39.2979" rx="2.5" ry="2.5" style="stroke:#000000;stroke-width:1;" width="89.1953" x="1002.3215" y="1096.4463"/><text fill="#000000" font-family="Arial" font-size="11" lengthAdjust="spacing" textLength="56.8477" x="1018.4954" y="1113.9441">Observers /</text><text fill="#000000" font-family="Arial" font-size="11" lengthAdjust="spacing" textLength="75.1953" x="1009.3215" y="1126.593">service readers</text><rect fill="#FFFFFF" height="627.521" style="stroke:#000000;stroke-width:1;" width="10" x="568.1428" y="368.6807"/><rect fill="#FFFFFF" height="3" style="stroke:#FFFFFF;stroke-width:1;" width="1101.5168" x="5" y="146.218"/><line style="stroke:#000000;stroke-width:0.5;" x1="5" x2="1106.5168" y1="146.218" y2="146.218"/><line style="stroke:#000000;stroke-width:0.5;" x1="5" x2="1106.5168" y1="149.218" y2="149.218"/><rect fill="#FFFFFF" height="20.6489" style="stroke:#000000;stroke-width:1;" width="80" x="515.7584" y="136.8936"/><text fill="#000000" font-family="Arial" font-size="11" font-weight="bold" lengthAdjust="spacing" textLength="62.9438" x="521.7584" y="151.3914">IBOX Inputs</text><polygon fill="#000000" points="561.1428,194.8403,571.1428,198.8403,561.1428,202.8403,565.1428,198.8403" style="stroke:#000000;stroke-width:1;"/><line style="stroke:#000000;stroke-width:1;" x1="68.8865" x2="567.1428" y1="198.8403" y2="198.8403"/><text fill="#000000" font-family="Arial" font-size="11" lengthAdjust="spacing" textLength="118.6045" x="261.7124" y="182.0403">frmVehicleStateCanMsg</text><text fill="#000000" font-family="Arial" font-size="11" lengthAdjust="spacing" textLength="140.6421" x="250.6936" y="194.6892">gVehicleSpeed / gDriveState</text><polygon fill="#000000" points="561.1428,246.7871,571.1428,250.7871,561.1428,254.7871,565.1428,250.7871" style="stroke:#000000;stroke-width:1;"/><line style="stroke:#000000;stroke-width:1;" x1="196.9656" x2="567.1428" y1="250.7871" y2="250.7871"/><text fill="#000000" font-family="Arial" font-size="11" lengthAdjust="spacing" textLength="117.9868" x="326.0608" y="221.3381">frmNavModuleStateMsg</text><text fill="#000000" font-family="Arial" font-size="11" lengthAdjust="spacing" textLength="165.0698" x="302.5193" y="233.9871">NavRouteClass / NavGuideType /</text><text fill="#000000" font-family="Arial" font-size="11" lengthAdjust="spacing" textLength="158.3506" x="305.8789" y="246.636">NavEtaMinutes / NavSpeedLimit</text><polygon fill="#000000" points="561.1428,286.085,571.1428,290.085,561.1428,294.085,565.1428,290.085" style="stroke:#000000;stroke-width:1;"/><line style="stroke:#000000;stroke-width:1;" x1="196.9656" x2="567.1428" y1="290.085" y2="290.085"/><text fill="#000000" font-family="Arial" font-size="11" lengthAdjust="spacing" textLength="117.9922" x="326.0581" y="273.2849">frmNavigationRouteMsg</text><text fill="#000000" font-family="Arial" font-size="11" lengthAdjust="spacing" textLength="55.0269" x="357.5408" y="285.9338">EtaMinutes</text><polygon fill="#000000" points="561.1428,325.3828,571.1428,329.3828,561.1428,333.3828,565.1428,329.3828" style="stroke:#000000;stroke-width:1;"/><line style="stroke:#000000;stroke-width:1;" x1="338.1824" x2="567.1428" y1="329.3828" y2="329.3828"/><text fill="#000000" font-family="Arial" font-size="11" lengthAdjust="spacing" textLength="125.3237" x="393.0007" y="312.5828">frmAdasDomainStateMsg</text><text fill="#000000" font-family="Arial" font-size="11" lengthAdjust="spacing" textLength="91.7222" x="409.8015" y="325.2317">SelectedAlertLevel</text><polygon fill="#000000" points="556.1428,364.6807,566.1428,368.6807,556.1428,372.6807,560.1428,368.6807" style="stroke:#000000;stroke-width:1;"/><line style="stroke:#000000;stroke-width:1;" x1="338.1824" x2="562.1428" y1="368.6807" y2="368.6807"/><text fill="#000000" font-family="Arial" font-size="11" lengthAdjust="spacing" textLength="176.1021" x="365.1116" y="351.8806">CoreState::domainBoundaryStatus /</text><text fill="#000000" font-family="Arial" font-size="11" lengthAdjust="spacing" textLength="210.9604" x="347.6824" y="364.5295">warningPathStatus and Core::failSafeMode</text><line style="stroke:#000000;stroke-width:1;" x1="578.1428" x2="620.1428" y1="395.3296" y2="395.3296"/><line style="stroke:#000000;stroke-width:1;" x1="620.1428" x2="620.1428" y1="395.3296" y2="408.3296"/><line style="stroke:#000000;stroke-width:1;" x1="579.1428" x2="620.1428" y1="408.3296" y2="408.3296"/><polygon fill="#000000" points="589.1428,404.3296,579.1428,408.3296,589.1428,412.3296,585.1428,408.3296" style="stroke:#000000;stroke-width:1;"/><text fill="#000000" font-family="Arial" font-size="11" lengthAdjust="spacing" textLength="134.5137" x="585.1428" y="391.1785">veh/nav freshness windows</text><line style="stroke:#000000;stroke-width:1;" x1="578.1428" x2="620.1428" y1="434.9785" y2="434.9785"/><line style="stroke:#000000;stroke-width:1;" x1="620.1428" x2="620.1428" y1="434.9785" y2="447.9785"/><line style="stroke:#000000;stroke-width:1;" x1="579.1428" x2="620.1428" y1="447.9785" y2="447.9785"/><polygon fill="#000000" points="589.1428,443.9785,579.1428,447.9785,589.1428,451.9785,585.1428,447.9785" style="stroke:#000000;stroke-width:1;"/><text fill="#000000" font-family="Arial" font-size="11" lengthAdjust="spacing" textLength="133.3052" x="585.1428" y="430.8274">routeActive = roadZone &gt; 0</text><line style="stroke:#000000;stroke-width:1;" x1="578.1428" x2="620.1428" y1="487.2764" y2="487.2764"/><line style="stroke:#000000;stroke-width:1;" x1="620.1428" x2="620.1428" y1="487.2764" y2="500.2764"/><line style="stroke:#000000;stroke-width:1;" x1="579.1428" x2="620.1428" y1="500.2764" y2="500.2764"/><polygon fill="#000000" points="589.1428,496.2764,579.1428,500.2764,589.1428,504.2764,585.1428,500.2764" style="stroke:#000000;stroke-width:1;"/><text fill="#000000" font-family="Arial" font-size="11" lengthAdjust="spacing" textLength="192.3228" x="585.1428" y="470.4763">diagStage = ethDiagBoundaryStage(...)</text><text fill="#000000" font-family="Arial" font-size="11" lengthAdjust="spacing" textLength="165.0806" x="598.7639" y="483.1252">from route/alert/boundary/fail-safe</text><line style="stroke:#000000;stroke-width:1;" x1="578.1428" x2="620.1428" y1="539.5742" y2="539.5742"/><line style="stroke:#000000;stroke-width:1;" x1="620.1428" x2="620.1428" y1="539.5742" y2="552.5742"/><line style="stroke:#000000;stroke-width:1;" x1="579.1428" x2="620.1428" y1="552.5742" y2="552.5742"/><polygon fill="#000000" points="589.1428,548.5742,579.1428,552.5742,589.1428,556.5742,585.1428,552.5742" style="stroke:#000000;stroke-width:1;"/><text fill="#000000" font-family="Arial" font-size="11" lengthAdjust="spacing" textLength="81.0229" x="623.9543" y="522.7742">linkMode = 0/1/2</text><text fill="#000000" font-family="Arial" font-size="11" lengthAdjust="spacing" textLength="158.646" x="585.1428" y="535.4231">from freshness + service context</text><line style="stroke:#000000;stroke-width:1;" x1="578.1428" x2="620.1428" y1="591.8721" y2="591.8721"/><line style="stroke:#000000;stroke-width:1;" x1="620.1428" x2="620.1428" y1="591.8721" y2="604.8721"/><line style="stroke:#000000;stroke-width:1;" x1="579.1428" x2="620.1428" y1="604.8721" y2="604.8721"/><polygon fill="#000000" points="589.1428,600.8721,579.1428,604.8721,589.1428,608.8721,585.1428,604.8721" style="stroke:#000000;stroke-width:1;"/><text fill="#000000" font-family="Arial" font-size="11" lengthAdjust="spacing" textLength="87.7583" x="651.6235" y="575.072">routeState = 0/1/2</text><text fill="#000000" font-family="Arial" font-size="11" lengthAdjust="spacing" textLength="220.7197" x="585.1428" y="587.7209">from route class, nav direction, zone distance</text><line style="stroke:#000000;stroke-width:1;" x1="578.1428" x2="620.1428" y1="644.1699" y2="644.1699"/><line style="stroke:#000000;stroke-width:1;" x1="620.1428" x2="620.1428" y1="644.1699" y2="657.1699"/><line style="stroke:#000000;stroke-width:1;" x1="579.1428" x2="620.1428" y1="657.1699" y2="657.1699"/><polygon fill="#000000" points="589.1428,653.1699,579.1428,657.1699,589.1428,661.1699,585.1428,657.1699" style="stroke:#000000;stroke-width:1;"/><text fill="#000000" font-family="Arial" font-size="11" lengthAdjust="spacing" textLength="121.6499" x="635.9185" y="627.3699">serviceFlags bitfield from</text><text fill="#000000" font-family="Arial" font-size="11" lengthAdjust="spacing" textLength="223.2012" x="585.1428" y="640.0188">roadZone / alertLevel / diagStage / overspeed</text><path d="M583,670.1699 L583,755.1699 L798,755.1699 L798,680.1699 L788,670.1699 L583,670.1699 " fill="#FFFFFF" style="stroke:#000000;stroke-width:1;"/><path d="M788,670.1699 L788,680.1699 L798,680.1699 L788,670.1699 " fill="#FFFFFF" style="stroke:#000000;stroke-width:1;"/><text fill="#000000" font-family="Arial" font-size="11" lengthAdjust="spacing" textLength="139.4229" x="589" y="685.6677">Representative gating inputs</text><text fill="#000000" font-family="Arial" font-size="11" lengthAdjust="spacing" textLength="165.6768" x="589" y="698.3167">- NavRouteClass / NavGuideType</text><text fill="#000000" font-family="Arial" font-size="11" lengthAdjust="spacing" textLength="165.0698" x="589" y="710.9656">- NavEtaMinutes / NavSpeedLimit</text><text fill="#000000" font-family="Arial" font-size="11" lengthAdjust="spacing" textLength="80.7222" x="589" y="723.6145">- gVehicleSpeed</text><text fill="#000000" font-family="Arial" font-size="11" lengthAdjust="spacing" textLength="98.4414" x="589" y="736.2634">- SelectedAlertLevel</text><text fill="#000000" font-family="Arial" font-size="11" lengthAdjust="spacing" textLength="194.4443" x="589" y="748.9124">- domainBoundaryStatus / failSafeMode</text><rect fill="#FFFFFF" height="3" style="stroke:#FFFFFF;stroke-width:1;" width="1101.5168" x="5" y="780.3879"/><line style="stroke:#000000;stroke-width:0.5;" x1="5" x2="1106.5168" y1="780.3879" y2="780.3879"/><line style="stroke:#000000;stroke-width:0.5;" x1="5" x2="1106.5168" y1="783.3879" y2="783.3879"/><rect fill="#FFFFFF" height="20.6489" style="stroke:#000000;stroke-width:1;" width="153.3423" x="479.0873" y="771.0635"/><text fill="#000000" font-family="Arial" font-size="11" font-weight="bold" lengthAdjust="spacing" textLength="136.2861" x="485.0873" y="785.5613">IBOX Runtime Publication</text><polygon fill="#000000" points="818.344,829.0103,828.344,833.0103,818.344,837.0103,822.344,833.0103" style="stroke:#000000;stroke-width:1;"/><line style="stroke:#000000;stroke-width:1;" x1="578.1428" x2="824.344" y1="833.0103" y2="833.0103"/><text fill="#000000" font-family="Arial" font-size="11" lengthAdjust="spacing" textLength="149.7944" x="629.3462" y="816.2102">runtime linkMode / routeState /</text><text fill="#000000" font-family="Arial" font-size="11" lengthAdjust="spacing" textLength="122.2676" x="643.1096" y="828.8591">serviceFlags / signalBars</text><path d="M583,846.0103 L583,919.0103 L717,919.0103 L717,856.0103 L707,846.0103 L583,846.0103 " fill="#FFFFFF" style="stroke:#000000;stroke-width:1;"/><path d="M707,846.0103 L707,856.0103 L717,856.0103 L707,846.0103 " fill="#FFFFFF" style="stroke:#000000;stroke-width:1;"/><text fill="#000000" font-family="Arial" font-size="11" lengthAdjust="spacing" textLength="113.126" x="589" y="861.5081">Representative outputs</text><text fill="#000000" font-family="Arial" font-size="11" lengthAdjust="spacing" textLength="50.7407" x="589" y="874.157">- linkMode</text><text fill="#000000" font-family="Arial" font-size="11" lengthAdjust="spacing" textLength="57.4761" x="589" y="886.8059">- routeState</text><text fill="#000000" font-family="Arial" font-size="11" lengthAdjust="spacing" textLength="68.46" x="589" y="899.4548">- serviceFlags</text><text fill="#000000" font-family="Arial" font-size="11" lengthAdjust="spacing" textLength="58.0776" x="589" y="912.1038">- signalBars</text><rect fill="#FFFFFF" height="3" style="stroke:#FFFFFF;stroke-width:1;" width="1101.5168" x="5" y="943.5793"/><line style="stroke:#000000;stroke-width:0.5;" x1="5" x2="1106.5168" y1="943.5793" y2="943.5793"/><line style="stroke:#000000;stroke-width:0.5;" x1="5" x2="1106.5168" y1="946.5793" y2="946.5793"/><rect fill="#FFFFFF" height="20.6489" style="stroke:#000000;stroke-width:1;" width="131.3638" x="490.0765" y="934.2549"/><text fill="#000000" font-family="Arial" font-size="11" font-weight="bold" lengthAdjust="spacing" textLength="114.3076" x="496.0765" y="948.7527">Downstream Visibility</text><polygon fill="#000000" points="1034.9192,992.2017,1044.9192,996.2017,1034.9192,1000.2017,1038.9192,996.2017" style="stroke:#000000;stroke-width:1;"/><line style="stroke:#000000;stroke-width:1;" x1="830.344" x2="1040.9192" y1="996.2017" y2="996.2017"/><text fill="#000000" font-family="Arial" font-size="11" lengthAdjust="spacing" textLength="192.5752" x="842.344" y="979.4016">connectivity and route-service visibility /</text><text fill="#000000" font-family="Arial" font-size="11" lengthAdjust="spacing" textLength="164.4736" x="856.3948" y="992.0505">review and observer consumption</text><path d="M14,1009.2017 L14,1082.2017 L1100,1082.2017 L1100,1019.2017 L1090,1009.2017 L14,1009.2017 " fill="#FFFFFF" style="stroke:#000000;stroke-width:1;"/><path d="M1090,1009.2017 L1090,1019.2017 L1100,1019.2017 L1090,1009.2017 " fill="#FFFFFF" style="stroke:#000000;stroke-width:1;"/><text fill="#000000" font-family="Arial" font-size="11" lengthAdjust="spacing" textLength="143.0752" x="387.9733" y="1024.6995">Representative runtime chain</text><text fill="#000000" font-family="Arial" font-size="11" lengthAdjust="spacing" textLength="296.5542" x="387.9733" y="1037.3484">1. Vehicle, navigation, alert, and fail-safe context reach IBOX</text><text fill="#000000" font-family="Arial" font-size="11" lengthAdjust="spacing" textLength="225.6182" x="387.9733" y="1049.9973">2. IBOX evaluates freshness and route activity</text><text fill="#000000" font-family="Arial" font-size="11" lengthAdjust="spacing" textLength="329.5703" x="387.9733" y="1062.6462">3. IBOX derives link mode, route state, and service flag aggregation</text><text fill="#000000" font-family="Arial" font-size="11" lengthAdjust="spacing" textLength="305.0889" x="387.9733" y="1075.2952">4. IBOX exposes the final runtime service posture to observers</text><!--SRC=[ZLPDRziu4BthLyosbnQrhQGRe8K15x2TU56WQOkuA8g5BxGqaeb8f9QaxAI_VcT8Mh9SesXE8JNpXk_Db_zoEwmHcaf8bTX7gHfXH0rRaJsMHhSgN-fA6tYvydyd5ZaMegtSIYltMH32t4XHNVw-bZyHhgzFFbhyhqMLuJrQAqgSLx9KaA5oQ4wi3Df6AtkqMc2b3tDZz06SQJ59d7GLmcUnXxdAOILaPKM1iAIG-EJWcuQFYoy_u46t3c6DPYypX5KbIWjh2YWgEkZ3HhtQuqvc5QQAeBBe_GOA0XnxHEi48Om_1BnAgiSH64OTWQ38Da2F2u86KPO6I-6aLg-JX8WucSb6A0SlleSm4MxRsXSWBD0joNkpUhTQ3Cs9c0n0R8l1cjc-l7k_kbhT3Qtdj_DrsZyvql0-IsrmwPueof8yLqC_fhHHPAumSt8ltND7GHllxabpp7Ttxt_r1TCg9-l8AZXizTFQS-IokLakXrvVjYmO6WlfHaNjADSYfollJmQTPpARXGTyL4thBCncISAA7PCnXSBKKLWVSodKlIqtgZnUDeWvf53U6haF9WcBE02WYtkTjn72-zELBvnb9Iozb8N_fvKvVdjka1zEvpidxgKYc_ZTX_eaQ-akHeZ9zAW-HE-V75Cqy9ddmjxgcZgpVzOQAyeJvlCAZVk4Uwmk-FADTvbES- -_u4uMvfalMw_xGHWbLVbLk5syv4fcn-cKgsXDHKIIO2AuAZYNZ9tu07qWQXpVD0MrwavHcy91gbmVxBcXxvOvGo7Cw2JoVxL2-01NvvQv52Mzg6GxTBjREfwyliHNaydazKOLHjS1DHKiHRgDHdqFd2Dptp8b0hvAhzEt4QH_-vjZ9n-xvoABKDb33Fy1CYwL4R0WkJJSJbgDu2SJpIMr1msySyGOC0obhNI5n2e7njoeJgKKH9TjElGAfQ2vZxZi4gNf1KQMEmUw2Cbwm8QuqLGLNdSkFrM2z8sKZE5t5Hu-_wR0np1eC3fVgCmnN2u_65GOKk7nw_jUVuWZvMkxhMGMHY0tVYTUDs2ctVZfifkUfgcVC47Y5AoV_0jXx1z8Ha1Hh2Cy_Tl3q-4KdOyz-e3MhJuewsZ8rV1TMhcL5GzQpwdZGiHuyarXE8m9naSS7ujptmCGFODxYGTlfkDWPG3RrWthbkGuxE30ckk6Dy-8GvwpFagQxVX7mVK4OgPzQSSfDWer6HRWBsk7ntcs2m7VJa9ISI-gLd0jzHtNaGCH-IP_HtFQ1lGMwuM7cfIFApVicS7YXVF5czmSOpurcZOdq8ySA2Hl_6vRHLVwxbg3u7Gdtqdg_WS0]--></g></svg>