<svg xmlns="http://www.w3.org/2000/svg" xmlns:xlink="http://www.w3.org/1999/xlink" contentStyleType="text/css" height="860px" preserveAspectRatio="none" style="width:986px;height:860px;background:#FFFFFF;" version="1.1" viewBox="0 0 986 860" width="986px" zoomAndPan="magnify"><title>Nav State To IVI Backbone Nav Context Signal Flow</title><defs/><g><text fill="#000000" font-family="Arial" font-size="22" font-weight="bold" lengthAdjust="spacing" textLength="540.332" x="221.5675" y="35.9956">Nav State To IVI Backbone Nav Context Signal Flow</text><text fill="#000000" font-family="Arial" font-size="22" font-weight="bold" lengthAdjust="spacing" textLength="787.2197" x="98.1237" y="61.2935">(CAN navigation state + route ETA -&gt; IVI backbone nav-context publication)</text><rect fill="#FFFFFF" height="463.9785" style="stroke:#000000;stroke-width:1;" width="10" x="367.7212" y="250.7871"/><line style="stroke:#000000;stroke-width:1;" x1="79" x2="79" y1="116.8936" y2="816.0103"/><line style="stroke:#000000;stroke-width:1;" x1="213.1606" x2="213.1606" y1="116.8936" y2="816.0103"/><line style="stroke:#000000;stroke-width:1;" x1="371.7544" x2="371.7544" y1="116.8936" y2="816.0103"/><line style="stroke:#000000;stroke-width:1;" x1="716.7632" x2="716.7632" y1="116.8936" y2="816.0103"/><line style="stroke:#000000;stroke-width:1;" x1="904.908" x2="904.908" y1="116.8936" y2="816.0103"/><rect fill="#F4F7FB" height="26.6489" rx="2.5" ry="2.5" style="stroke:#000000;stroke-width:1;" width="119.1606" x="20" y="89.2446"/><text fill="#000000" font-family="Arial" font-size="11" lengthAdjust="spacing" textLength="105.1606" x="27" y="106.7424">Navigation CAN state</text><rect fill="#F4F7FB" height="26.6489" rx="2.5" ry="2.5" style="stroke:#000000;stroke-width:1;" width="119.1606" x="20" y="815.0103"/><text fill="#000000" font-family="Arial" font-size="11" lengthAdjust="spacing" textLength="105.1606" x="27" y="832.5081">Navigation CAN state</text><rect fill="#E8F0FE" height="26.6489" rx="2.5" ry="2.5" style="stroke:#000000;stroke-width:1;" width="88.5938" x="169.1606" y="89.2446"/><text fill="#000000" font-family="Arial" font-size="11" lengthAdjust="spacing" textLength="74.5938" x="176.1606" y="106.7424">Route ETA bus</text><rect fill="#E8F0FE" height="26.6489" rx="2.5" ry="2.5" style="stroke:#000000;stroke-width:1;" width="88.5938" x="169.1606" y="815.0103"/><text fill="#000000" font-family="Arial" font-size="11" lengthAdjust="spacing" textLength="74.5938" x="176.1606" y="832.5081">Route ETA bus</text><rect fill="#E8F7E8" height="39.2979" rx="2.5" ry="2.5" style="stroke:#000000;stroke-width:1;" width="169.9336" x="287.7544" y="76.5957"/><text fill="#000000" font-family="Arial" font-size="11" lengthAdjust="spacing" textLength="13.4492" x="365.9966" y="94.0935">IVI</text><text fill="#000000" font-family="Arial" font-size="11" lengthAdjust="spacing" textLength="155.9336" x="294.7544" y="106.7424">backbone nav-context packager</text><rect fill="#E8F7E8" height="39.2979" rx="2.5" ry="2.5" style="stroke:#000000;stroke-width:1;" width="169.9336" x="287.7544" y="815.0103"/><text fill="#000000" font-family="Arial" font-size="11" lengthAdjust="spacing" textLength="13.4492" x="365.9966" y="832.5081">IVI</text><text fill="#000000" font-family="Arial" font-size="11" lengthAdjust="spacing" textLength="155.9336" x="294.7544" y="845.157">backbone nav-context packager</text><rect fill="#FFF4CC" height="26.6489" rx="2.5" ry="2.5" style="stroke:#000000;stroke-width:1;" width="127.0938" x="653.7632" y="89.2446"/><text fill="#000000" font-family="Arial" font-size="11" lengthAdjust="spacing" textLength="113.0938" x="660.7632" y="106.7424">ETH nav-context frame</text><rect fill="#FFF4CC" height="26.6489" rx="2.5" ry="2.5" style="stroke:#000000;stroke-width:1;" width="127.0938" x="653.7632" y="815.0103"/><text fill="#000000" font-family="Arial" font-size="11" lengthAdjust="spacing" textLength="113.0938" x="660.7632" y="832.5081">ETH nav-context frame</text><rect fill="#FFF4CC" height="39.2979" rx="2.5" ry="2.5" style="stroke:#000000;stroke-width:1;" width="118.5591" x="845.908" y="76.5957"/><text fill="#000000" font-family="Arial" font-size="11" lengthAdjust="spacing" textLength="68.4492" x="870.9629" y="94.0935">CGW / IBOX /</text><text fill="#000000" font-family="Arial" font-size="11" lengthAdjust="spacing" textLength="104.5591" x="852.908" y="106.7424">backbone consumers</text><rect fill="#FFF4CC" height="39.2979" rx="2.5" ry="2.5" style="stroke:#000000;stroke-width:1;" width="118.5591" x="845.908" y="815.0103"/><text fill="#000000" font-family="Arial" font-size="11" lengthAdjust="spacing" textLength="68.4492" x="870.9629" y="832.5081">CGW / IBOX /</text><text fill="#000000" font-family="Arial" font-size="11" lengthAdjust="spacing" textLength="104.5591" x="852.908" y="845.157">backbone consumers</text><rect fill="#FFFFFF" height="463.9785" style="stroke:#000000;stroke-width:1;" width="10" x="367.7212" y="250.7871"/><rect fill="#FFFFFF" height="3" style="stroke:#FFFFFF;stroke-width:1;" width="974.467" x="5" y="146.218"/><line style="stroke:#000000;stroke-width:0.5;" x1="5" x2="979.467" y1="146.218" y2="146.218"/><line style="stroke:#000000;stroke-width:0.5;" x1="5" x2="979.467" y1="149.218" y2="149.218"/><rect fill="#FFFFFF" height="20.6489" style="stroke:#000000;stroke-width:1;" width="66.5562" x="458.9554" y="136.8936"/><text fill="#000000" font-family="Arial" font-size="11" font-weight="bold" lengthAdjust="spacing" textLength="49.5" x="464.9554" y="151.3914">IVI Inputs</text><polygon fill="#000000" points="360.7212,207.4893,370.7212,211.4893,360.7212,215.4893,364.7212,211.4893" style="stroke:#000000;stroke-width:1;"/><line style="stroke:#000000;stroke-width:1;" x1="79.5803" x2="366.7212" y1="211.4893" y2="211.4893"/><text fill="#000000" font-family="Arial" font-size="11" lengthAdjust="spacing" textLength="117.9868" x="167.1573" y="182.0403">frmNavModuleStateMsg</text><text fill="#000000" font-family="Arial" font-size="11" lengthAdjust="spacing" textLength="165.0698" x="143.6158" y="194.6892">NavRouteClass / NavGuideType /</text><text fill="#000000" font-family="Arial" font-size="11" lengthAdjust="spacing" textLength="158.3506" x="146.9755" y="207.3381">NavSpeedLimit / NavEtaMinutes</text><polygon fill="#000000" points="355.7212,246.7871,365.7212,250.7871,355.7212,254.7871,359.7212,250.7871" style="stroke:#000000;stroke-width:1;"/><line style="stroke:#000000;stroke-width:1;" x1="213.4575" x2="361.7212" y1="250.7871" y2="250.7871"/><text fill="#000000" font-family="Arial" font-size="11" lengthAdjust="spacing" textLength="117.9922" x="231.5933" y="233.9871">frmNavigationRouteMsg</text><text fill="#000000" font-family="Arial" font-size="11" lengthAdjust="spacing" textLength="55.0269" x="263.0759" y="246.636">EtaMinutes</text><line style="stroke:#000000;stroke-width:1;" x1="377.7212" x2="419.7212" y1="277.436" y2="277.436"/><line style="stroke:#000000;stroke-width:1;" x1="419.7212" x2="419.7212" y1="277.436" y2="290.436"/><line style="stroke:#000000;stroke-width:1;" x1="378.7212" x2="419.7212" y1="290.436" y2="290.436"/><polygon fill="#000000" points="388.7212,286.436,378.7212,290.436,388.7212,294.436,384.7212,290.436" style="stroke:#000000;stroke-width:1;"/><text fill="#000000" font-family="Arial" font-size="11" lengthAdjust="spacing" textLength="172.7129" x="384.7212" y="273.2849">roadZone = clamp(NavRouteClass)</text><line style="stroke:#000000;stroke-width:1;" x1="377.7212" x2="419.7212" y1="317.085" y2="317.085"/><line style="stroke:#000000;stroke-width:1;" x1="419.7212" x2="419.7212" y1="317.085" y2="330.085"/><line style="stroke:#000000;stroke-width:1;" x1="378.7212" x2="419.7212" y1="330.085" y2="330.085"/><polygon fill="#000000" points="388.7212,326.085,378.7212,330.085,388.7212,334.085,384.7212,330.085" style="stroke:#000000;stroke-width:1;"/><text fill="#000000" font-family="Arial" font-size="11" lengthAdjust="spacing" textLength="183.7129" x="384.7212" y="312.9338">navDirection = clamp(NavGuideType)</text><line style="stroke:#000000;stroke-width:1;" x1="377.7212" x2="419.7212" y1="369.3828" y2="369.3828"/><line style="stroke:#000000;stroke-width:1;" x1="419.7212" x2="419.7212" y1="369.3828" y2="382.3828"/><line style="stroke:#000000;stroke-width:1;" x1="378.7212" x2="419.7212" y1="382.3828" y2="382.3828"/><polygon fill="#000000" points="388.7212,378.3828,378.7212,382.3828,388.7212,386.3828,384.7212,382.3828" style="stroke:#000000;stroke-width:1;"/><text fill="#000000" font-family="Arial" font-size="11" lengthAdjust="spacing" textLength="96.3145" x="491.8584" y="352.5828">baseZoneContext =</text><text fill="#000000" font-family="Arial" font-size="11" lengthAdjust="spacing" textLength="310.5889" x="384.7212" y="365.2317">deriveBaseZoneContextFromNavState(roadZone, navDirection)</text><line style="stroke:#000000;stroke-width:1;" x1="377.7212" x2="419.7212" y1="421.6807" y2="421.6807"/><line style="stroke:#000000;stroke-width:1;" x1="419.7212" x2="419.7212" y1="421.6807" y2="434.6807"/><line style="stroke:#000000;stroke-width:1;" x1="378.7212" x2="419.7212" y1="434.6807" y2="434.6807"/><polygon fill="#000000" points="388.7212,430.6807,378.7212,434.6807,388.7212,438.6807,384.7212,434.6807" style="stroke:#000000;stroke-width:1;"/><text fill="#000000" font-family="Arial" font-size="11" lengthAdjust="spacing" textLength="76.1299" x="467.0923" y="404.8806">zoneDistance =</text><text fill="#000000" font-family="Arial" font-size="11" lengthAdjust="spacing" textLength="240.8721" x="384.7212" y="417.5295">deriveZoneDistanceFromEtaMinutes(EtaMinutes)</text><line style="stroke:#000000;stroke-width:1;" x1="377.7212" x2="419.7212" y1="473.9785" y2="473.9785"/><line style="stroke:#000000;stroke-width:1;" x1="419.7212" x2="419.7212" y1="473.9785" y2="486.9785"/><line style="stroke:#000000;stroke-width:1;" x1="378.7212" x2="419.7212" y1="486.9785" y2="486.9785"/><polygon fill="#000000" points="388.7212,482.9785,378.7212,486.9785,388.7212,490.9785,384.7212,486.9785" style="stroke:#000000;stroke-width:1;"/><text fill="#000000" font-family="Arial" font-size="11" lengthAdjust="spacing" textLength="177.0366" x="384.7212" y="457.1785">if roadZone &gt; 0 and speedLimit == 0</text><text fill="#000000" font-family="Arial" font-size="11" lengthAdjust="spacing" textLength="102.4321" x="422.0234" y="469.8274">then speedLimit = 30</text><path d="M382,499.9785 L382,584.9785 L544,584.9785 L544,509.9785 L534,499.9785 L382,499.9785 " fill="#FFFFFF" style="stroke:#000000;stroke-width:1;"/><path d="M534,499.9785 L534,509.9785 L544,509.9785 L534,499.9785 " fill="#FFFFFF" style="stroke:#000000;stroke-width:1;"/><text fill="#000000" font-family="Arial" font-size="11" lengthAdjust="spacing" textLength="141.856" x="388" y="515.4763">Representative derived fields</text><text fill="#000000" font-family="Arial" font-size="11" lengthAdjust="spacing" textLength="53.8076" x="388" y="528.1252">- roadZone</text><text fill="#000000" font-family="Arial" font-size="11" lengthAdjust="spacing" textLength="67.8584" x="388" y="540.7742">- navDirection</text><text fill="#000000" font-family="Arial" font-size="11" lengthAdjust="spacing" textLength="73.3691" x="388" y="553.4231">- zoneDistance</text><text fill="#000000" font-family="Arial" font-size="11" lengthAdjust="spacing" textLength="59.9146" x="388" y="566.072">- speedLimit</text><text fill="#000000" font-family="Arial" font-size="11" lengthAdjust="spacing" textLength="93.5537" x="388" y="578.7209">- baseZoneContext</text><rect fill="#FFFFFF" height="3" style="stroke:#FFFFFF;stroke-width:1;" width="974.467" x="5" y="610.1965"/><line style="stroke:#000000;stroke-width:0.5;" x1="5" x2="979.467" y1="610.1965" y2="610.1965"/><line style="stroke:#000000;stroke-width:0.5;" x1="5" x2="979.467" y1="613.1965" y2="613.1965"/><rect fill="#FFFFFF" height="20.6489" style="stroke:#000000;stroke-width:1;" width="112.4092" x="436.0289" y="600.8721"/><text fill="#000000" font-family="Arial" font-size="11" font-weight="bold" lengthAdjust="spacing" textLength="95.353" x="442.0289" y="615.3699">Backbone Publish</text><polygon fill="#000000" points="705.3101,684.1167,715.3101,688.1167,705.3101,692.1167,709.3101,688.1167" style="stroke:#000000;stroke-width:1;"/><line style="stroke:#000000;stroke-width:1;" x1="377.7212" x2="711.3101" y1="688.1167" y2="688.1167"/><text fill="#000000" font-family="Arial" font-size="11" lengthAdjust="spacing" textLength="93.543" x="500.7441" y="646.0188">ethMsgNavContext</text><text fill="#000000" font-family="Arial" font-size="11" lengthAdjust="spacing" textLength="147.9683" x="473.5315" y="658.6677">(byte0 roadZone/navDirection,</text><text fill="#000000" font-family="Arial" font-size="11" lengthAdjust="spacing" textLength="99.6714" x="497.6799" y="671.3167">byte1 zoneDistance,</text><text fill="#000000" font-family="Arial" font-size="11" lengthAdjust="spacing" textLength="86.8237" x="504.1038" y="683.9656">byte2 speedLimit)</text><polygon fill="#000000" points="893.1875,710.7656,903.1875,714.7656,893.1875,718.7656,897.1875,714.7656" style="stroke:#000000;stroke-width:1;"/><line style="stroke:#000000;stroke-width:1;" x1="717.3101" x2="899.1875" y1="714.7656" y2="714.7656"/><text fill="#000000" font-family="Arial" font-size="11" lengthAdjust="spacing" textLength="163.8774" x="729.3101" y="710.6145">backbone nav-context distribution</text><path d="M12,727.7656 L12,800.7656 L971,800.7656 L971,737.7656 L961,727.7656 L12,727.7656 " fill="#FFFFFF" style="stroke:#000000;stroke-width:1;"/><path d="M961,727.7656 L961,737.7656 L971,737.7656 L961,727.7656 " fill="#FFFFFF" style="stroke:#000000;stroke-width:1;"/><text fill="#000000" font-family="Arial" font-size="11" lengthAdjust="spacing" textLength="143.0752" x="305.6476" y="743.2634">Representative runtime chain</text><text fill="#000000" font-family="Arial" font-size="11" lengthAdjust="spacing" textLength="236.6289" x="305.6476" y="755.9124">1. CAN navigation state and route ETA reach IVI</text><text fill="#000000" font-family="Arial" font-size="11" lengthAdjust="spacing" textLength="335.6826" x="305.6476" y="768.5613">2. IVI normalizes road zone, direction, speed limit, and zone distance</text><text fill="#000000" font-family="Arial" font-size="11" lengthAdjust="spacing" textLength="270.8696" x="305.6476" y="781.2102">3. IVI publishes a compact backbone nav-context frame</text><text fill="#000000" font-family="Arial" font-size="11" lengthAdjust="spacing" textLength="363.1719" x="305.6476" y="793.8591">4. CGW and downstream Ethernet consumers use the nav-context surface</text><!--SRC=[RLNlRzem4FsUl-BMVg4QRQ6jrAeIbI0bNQN1feAsgUABannWrR4psw5h__gTdP0V2Bw0xRltthspZozsYnb2BXYNWNdZCcUQPH2pv6sZLI7JK0cbuJJodrP4YcjM21ifQUUC4CQQCt7yVC4_4OR3rg71lmNA16Te3DlWMF2DX0IbHTsAqcXo9Sq-Qe92lO-rLkzWTO51OBaL27EsWuLb5c6fuFdNCqn8UwnaUH8IF_wpi2069Y0YY9NiXUCvIBRZ6sQvac1y-bUWWkbxkXp3-OE7YlTG57oUL51v4GkU-Cop822fbYSyPzB2oRp1T1GUzmIOSL929id6c-WscdIJNchMk30-kjmvdTv5WsZQ3IPLAtbS5csIIzeZEF4k_tPwrysVBhzrijPaT2bnQhVECDVfcp3iPeLFl-4IdYS__i1bYvv0J96XBbM7-rMD4On6Nicpp0jhO3GAWig8ojzxuizeQwRIGg3luiniLfAsl0UXOCOGCwsV2fxYyYD7fu3MYnmn_SupRilpgMKpBYd71ALz1nHLN_oPvsWbiCJodRi2b12uf3fNAvQ-kb97a0YMvRsEihDkCFdwo3Kcll-jX5hwGNpC33hm_HqThMIAckzmqZs8j78LU7jwUqNz3jq1yYS5F7AwVlJ66jZNrgx3R1peDJyFaFYwyU011i1a2gQndXeyM4cQ8RAp2zU3G2eoLFFDre9QUsTVCASdJQ-SEh53A4MbiEOeKXESrqJqirqRBTlrqBAXeiM1Ym6IGiVjRryz2twwHsks_WvM1LON_XxGRkb6k9jPGj20Y3yi3cf1bsqvVNe0T3hiYAeshrhIpeAAWAYQft5_VAQaXADvNFXwK-nSoD99jKDTZP5-WtVegIwavJIDawsRvyCBE3hfN1ERMQU9RkkPhYvyrwNI6HCqj8rtm1VQ9ubx0yeYGRWg-nxCHVWQV8EkIvYyj9nG64sAZEQJFLwydq713OcbCUFWKlKkoG-a_m3o4BL4symQA0m2xNOWJA7NZAZhvly7]--></g></svg>