<svg xmlns="http://www.w3.org/2000/svg" xmlns:xlink="http://www.w3.org/1999/xlink" contentStyleType="text/css" height="1016px" preserveAspectRatio="none" style="width:982px;height:1016px;background:#FFFFFF;" version="1.1" viewBox="0 0 982 1016" width="982px" zoomAndPan="magnify"><title>Object Confidence To Failsafe Gate Signal Flow</title><defs/><g><text fill="#000000" font-family="Arial" font-size="22" font-weight="bold" lengthAdjust="spacing" textLength="498.749" x="240.1284" y="35.9956">Object Confidence To Failsafe Gate Signal Flow</text><text fill="#000000" font-family="Arial" font-size="22" font-weight="bold" lengthAdjust="spacing" textLength="699.2305" x="139.8877" y="61.2935">(ADAS/AEB object confidence -&gt; CGW fail-safe gate -&gt; verification)</text><line style="stroke:#000000;stroke-width:1;" x1="78" x2="78" y1="116.8936" y2="972.2017"/><line style="stroke:#000000;stroke-width:1;" x1="251.0938" x2="251.0938" y1="116.8936" y2="972.2017"/><line style="stroke:#000000;stroke-width:1;" x1="567.6533" x2="567.6533" y1="116.8936" y2="972.2017"/><line style="stroke:#000000;stroke-width:1;" x1="763.4158" x2="763.4158" y1="116.8936" y2="972.2017"/><rect fill="#F4F7FB" height="39.2979" rx="2.5" ry="2.5" style="stroke:#000000;stroke-width:1;" width="116.0938" x="20" y="76.5957"/><text fill="#000000" font-family="Arial" font-size="11" lengthAdjust="spacing" textLength="61.1338" x="47.48" y="94.0935">ADAS / AEB</text><text fill="#000000" font-family="Arial" font-size="11" lengthAdjust="spacing" textLength="102.0938" x="27" y="106.7424">object-risk producers</text><rect fill="#F4F7FB" height="39.2979" rx="2.5" ry="2.5" style="stroke:#000000;stroke-width:1;" width="116.0938" x="20" y="971.2017"/><text fill="#000000" font-family="Arial" font-size="11" lengthAdjust="spacing" textLength="61.1338" x="47.48" y="988.6995">ADAS / AEB</text><text fill="#000000" font-family="Arial" font-size="11" lengthAdjust="spacing" textLength="102.0938" x="27" y="1001.3484">object-risk producers</text><rect fill="#E8F7E8" height="39.2979" rx="2.5" ry="2.5" style="stroke:#000000;stroke-width:1;" width="171.1313" x="166.0938" y="76.5957"/><text fill="#000000" font-family="Arial" font-size="11" lengthAdjust="spacing" textLength="26.8823" x="238.2183" y="94.0935">CGW</text><text fill="#000000" font-family="Arial" font-size="11" lengthAdjust="spacing" textLength="157.1313" x="173.0938" y="106.7424">effective warning/fail-safe owner</text><rect fill="#E8F7E8" height="39.2979" rx="2.5" ry="2.5" style="stroke:#000000;stroke-width:1;" width="171.1313" x="166.0938" y="971.2017"/><text fill="#000000" font-family="Arial" font-size="11" lengthAdjust="spacing" textLength="26.8823" x="238.2183" y="988.6995">CGW</text><text fill="#000000" font-family="Arial" font-size="11" lengthAdjust="spacing" textLength="157.1313" x="173.0938" y="1001.3484">effective warning/fail-safe owner</text><rect fill="#FFF4CC" height="39.2979" rx="2.5" ry="2.5" style="stroke:#000000;stroke-width:1;" width="96.5376" x="519.6533" y="76.5957"/><text fill="#000000" font-family="Arial" font-size="11" lengthAdjust="spacing" textLength="82.5376" x="526.6533" y="94.0935">CoreState / Core</text><text fill="#000000" font-family="Arial" font-size="11" lengthAdjust="spacing" textLength="73.9707" x="530.9368" y="106.7424">fail-safe seams</text><rect fill="#FFF4CC" height="39.2979" rx="2.5" ry="2.5" style="stroke:#000000;stroke-width:1;" width="96.5376" x="519.6533" y="971.2017"/><text fill="#000000" font-family="Arial" font-size="11" lengthAdjust="spacing" textLength="82.5376" x="526.6533" y="988.6995">CoreState / Core</text><text fill="#000000" font-family="Arial" font-size="11" lengthAdjust="spacing" textLength="73.9707" x="530.9368" y="1001.3484">fail-safe seams</text><rect fill="#E8F0FE" height="26.6489" rx="2.5" ry="2.5" style="stroke:#000000;stroke-width:1;" width="124.6553" x="701.4158" y="89.2446"/><text fill="#000000" font-family="Arial" font-size="11" lengthAdjust="spacing" textLength="110.6553" x="708.4158" y="106.7424">TEST_SCN / evidence</text><rect fill="#E8F0FE" height="26.6489" rx="2.5" ry="2.5" style="stroke:#000000;stroke-width:1;" width="124.6553" x="701.4158" y="971.2017"/><text fill="#000000" font-family="Arial" font-size="11" lengthAdjust="spacing" textLength="110.6553" x="708.4158" y="988.6995">TEST_SCN / evidence</text><rect fill="#FFFFFF" height="3" style="stroke:#FFFFFF;stroke-width:1;" width="970.0059" x="5" y="146.218"/><line style="stroke:#000000;stroke-width:0.5;" x1="5" x2="975.0059" y1="146.218" y2="146.218"/><line style="stroke:#000000;stroke-width:0.5;" x1="5" x2="975.0059" y1="149.218" y2="149.218"/><rect fill="#FFFFFF" height="20.6489" style="stroke:#000000;stroke-width:1;" width="150.2861" x="414.8599" y="136.8936"/><text fill="#000000" font-family="Arial" font-size="11" font-weight="bold" lengthAdjust="spacing" textLength="133.23" x="420.8599" y="151.3914">Object Confidence Inputs</text><polygon fill="#000000" points="239.6594,220.1382,249.6594,224.1382,239.6594,228.1382,243.6594,224.1382" style="stroke:#000000;stroke-width:1;"/><line style="stroke:#000000;stroke-width:1;" x1="78.0469" x2="245.6594" y1="224.1382" y2="224.1382"/><text fill="#000000" font-family="Arial" font-size="11" lengthAdjust="spacing" textLength="81.313" x="124.1967" y="182.0403">objectTrackValid</text><text fill="#000000" font-family="Arial" font-size="11" lengthAdjust="spacing" textLength="85.0029" x="122.3517" y="194.6892">objectConfidence</text><text fill="#000000" font-family="Arial" font-size="11" lengthAdjust="spacing" textLength="83.7783" x="122.964" y="207.3381">objectEventCode</text><text fill="#000000" font-family="Arial" font-size="11" lengthAdjust="spacing" textLength="117.9976" x="105.8544" y="219.9871">decelAssistDecisionReq</text><line style="stroke:#000000;stroke-width:1;" x1="251.6594" x2="293.6594" y1="263.436" y2="263.436"/><line style="stroke:#000000;stroke-width:1;" x1="293.6594" x2="293.6594" y1="263.436" y2="276.436"/><line style="stroke:#000000;stroke-width:1;" x1="252.6594" x2="293.6594" y1="276.436" y2="276.436"/><polygon fill="#000000" points="262.6594,272.436,252.6594,276.436,262.6594,280.436,258.6594,276.436" style="stroke:#000000;stroke-width:1;"/><text fill="#000000" font-family="Arial" font-size="11" lengthAdjust="spacing" textLength="113.7329" x="284.6475" y="246.636">evaluate routingPolicy /</text><text fill="#000000" font-family="Arial" font-size="11" lengthAdjust="spacing" textLength="165.709" x="258.6594" y="259.2849">warningPathStatus / failSafeMode</text><line style="stroke:#000000;stroke-width:1;" x1="251.6594" x2="293.6594" y1="315.7339" y2="315.7339"/><line style="stroke:#000000;stroke-width:1;" x1="293.6594" x2="293.6594" y1="315.7339" y2="328.7339"/><line style="stroke:#000000;stroke-width:1;" x1="252.6594" x2="293.6594" y1="328.7339" y2="328.7339"/><polygon fill="#000000" points="262.6594,324.7339,252.6594,328.7339,262.6594,332.7339,258.6594,328.7339" style="stroke:#000000;stroke-width:1;"/><text fill="#000000" font-family="Arial" font-size="11" lengthAdjust="spacing" textLength="97.8398" x="271.499" y="298.9338">if failSafeMode &gt;= 1</text><text fill="#000000" font-family="Arial" font-size="11" lengthAdjust="spacing" textLength="123.519" x="258.6594" y="311.5828">then decel assist is gated</text><path d="M256,341.7339 L256,401.7339 L439,401.7339 L439,351.7339 L429,341.7339 L256,341.7339 " fill="#FFFFFF" style="stroke:#000000;stroke-width:1;"/><path d="M429,341.7339 L429,351.7339 L439,351.7339 L429,341.7339 " fill="#FFFFFF" style="stroke:#000000;stroke-width:1;"/><text fill="#000000" font-family="Arial" font-size="11" lengthAdjust="spacing" textLength="106.396" x="262" y="357.2317">Representative inputs</text><text fill="#000000" font-family="Arial" font-size="11" lengthAdjust="spacing" textLength="162.019" x="262" y="369.8806">- object confidence / track validity</text><text fill="#000000" font-family="Arial" font-size="11" lengthAdjust="spacing" textLength="116.1768" x="262" y="382.5295">- decision decel request</text><text fill="#000000" font-family="Arial" font-size="11" lengthAdjust="spacing" textLength="158.3774" x="262" y="395.1785">- boundary / warning-path health</text><rect fill="#FFFFFF" height="3" style="stroke:#FFFFFF;stroke-width:1;" width="970.0059" x="5" y="426.6541"/><line style="stroke:#000000;stroke-width:0.5;" x1="5" x2="975.0059" y1="426.6541" y2="426.6541"/><line style="stroke:#000000;stroke-width:0.5;" x1="5" x2="975.0059" y1="429.6541" y2="429.6541"/><rect fill="#FFFFFF" height="20.6489" style="stroke:#000000;stroke-width:1;" width="150.3184" x="414.8438" y="417.3296"/><text fill="#000000" font-family="Arial" font-size="11" font-weight="bold" lengthAdjust="spacing" textLength="133.2622" x="420.8438" y="431.8274">Effective Gate Ownership</text><polygon fill="#000000" points="555.9221,462.6274,565.9221,466.6274,555.9221,470.6274,559.9221,466.6274" style="stroke:#000000;stroke-width:1;"/><line style="stroke:#000000;stroke-width:1;" x1="251.6594" x2="561.9221" y1="466.6274" y2="466.6274"/><text fill="#000000" font-family="Arial" font-size="11" lengthAdjust="spacing" textLength="147.9736" x="335.804" y="462.4763">CoreState::warningPathStatus</text><polygon fill="#000000" points="555.9221,489.2764,565.9221,493.2764,555.9221,497.2764,559.9221,493.2764" style="stroke:#000000;stroke-width:1;"/><line style="stroke:#000000;stroke-width:1;" x1="251.6594" x2="561.9221" y1="493.2764" y2="493.2764"/><text fill="#000000" font-family="Arial" font-size="11" lengthAdjust="spacing" textLength="94.1606" x="362.7104" y="489.1252">Core::failSafeMode</text><polygon fill="#000000" points="555.9221,515.9253,565.9221,519.9253,555.9221,523.9253,559.9221,519.9253" style="stroke:#000000;stroke-width:1;"/><line style="stroke:#000000;stroke-width:1;" x1="251.6594" x2="561.9221" y1="519.9253" y2="519.9253"/><text fill="#000000" font-family="Arial" font-size="11" lengthAdjust="spacing" textLength="292.2627" x="263.6594" y="515.7742">CoreState::selectedAlertEffectiveLevel / Type / GateReason</text><line style="stroke:#000000;stroke-width:1;" x1="251.6594" x2="293.6594" y1="571.8721" y2="571.8721"/><line style="stroke:#000000;stroke-width:1;" x1="293.6594" x2="293.6594" y1="571.8721" y2="584.8721"/><line style="stroke:#000000;stroke-width:1;" x1="252.6594" x2="293.6594" y1="584.8721" y2="584.8721"/><polygon fill="#000000" points="262.6594,580.8721,252.6594,584.8721,262.6594,588.8721,258.6594,584.8721" style="stroke:#000000;stroke-width:1;"/><text fill="#000000" font-family="Arial" font-size="11" lengthAdjust="spacing" textLength="108.2222" x="269.9709" y="542.4231">publishFailSafeState()</text><text fill="#000000" font-family="Arial" font-size="11" lengthAdjust="spacing" textLength="111.2783" x="268.4429" y="555.072">publishGatewayState()</text><text fill="#000000" font-family="Arial" font-size="11" lengthAdjust="spacing" textLength="130.8452" x="258.6594" y="567.7209">publishObjectSafetyState()</text><path d="M256,597.8721 L256,670.8721 L417,670.8721 L417,607.8721 L407,597.8721 L256,597.8721 " fill="#FFFFFF" style="stroke:#000000;stroke-width:1;"/><path d="M407,597.8721 L407,607.8721 L417,607.8721 L407,597.8721 " fill="#FFFFFF" style="stroke:#000000;stroke-width:1;"/><text fill="#000000" font-family="Arial" font-size="11" lengthAdjust="spacing" textLength="113.126" x="262" y="613.3699">Representative outputs</text><text fill="#000000" font-family="Arial" font-size="11" lengthAdjust="spacing" textLength="70.9253" x="262" y="626.0188">- failSafeMode</text><text fill="#000000" font-family="Arial" font-size="11" lengthAdjust="spacing" textLength="99.0537" x="262" y="638.6677">- warningPathStatus</text><text fill="#000000" font-family="Arial" font-size="11" lengthAdjust="spacing" textLength="132.0698" x="262" y="651.3167">- selectedAlertGateReason</text><text fill="#000000" font-family="Arial" font-size="11" lengthAdjust="spacing" textLength="140.626" x="262" y="663.9656">- decelAssistReq after gating</text><rect fill="#FFFFFF" height="3" style="stroke:#FFFFFF;stroke-width:1;" width="970.0059" x="5" y="695.4412"/><line style="stroke:#000000;stroke-width:0.5;" x1="5" x2="975.0059" y1="695.4412" y2="695.4412"/><line style="stroke:#000000;stroke-width:0.5;" x1="5" x2="975.0059" y1="698.4412" y2="698.4412"/><rect fill="#FFFFFF" height="20.6489" style="stroke:#000000;stroke-width:1;" width="134.4307" x="422.7876" y="686.1167"/><text fill="#000000" font-family="Arial" font-size="11" font-weight="bold" lengthAdjust="spacing" textLength="117.3745" x="428.7876" y="700.6145">Verification / Evidence</text><polygon fill="#000000" points="751.7434,744.0635,761.7434,748.0635,751.7434,752.0635,755.7434,748.0635" style="stroke:#000000;stroke-width:1;"/><line style="stroke:#000000;stroke-width:1;" x1="567.9221" x2="757.7434" y1="748.0635" y2="748.0635"/><text fill="#000000" font-family="Arial" font-size="11" lengthAdjust="spacing" textLength="171.8213" x="579.9221" y="731.2634">failSafeMode / warningPathStatus /</text><text fill="#000000" font-family="Arial" font-size="11" lengthAdjust="spacing" textLength="124.126" x="603.7698" y="743.9124">deceled assist gate result</text><line style="stroke:#000000;stroke-width:1;" x1="763.7434" x2="805.7434" y1="787.3613" y2="787.3613"/><line style="stroke:#000000;stroke-width:1;" x1="805.7434" x2="805.7434" y1="787.3613" y2="800.3613"/><line style="stroke:#000000;stroke-width:1;" x1="764.7434" x2="805.7434" y1="800.3613" y2="800.3613"/><polygon fill="#000000" points="774.7434,796.3613,764.7434,800.3613,774.7434,804.3613,770.7434,800.3613" style="stroke:#000000;stroke-width:1;"/><text fill="#000000" font-family="Arial" font-size="11" lengthAdjust="spacing" textLength="92.3345" x="823.1921" y="770.5613">ST_046 / ST_043 /</text><text fill="#000000" font-family="Arial" font-size="11" lengthAdjust="spacing" textLength="197.2319" x="770.7434" y="783.2102">Req_127~129 blocked/degraded checks</text><path d="M768,813.3613 L768,873.3613 L970,873.3613 L970,823.3613 L960,813.3613 L768,813.3613 " fill="#FFFFFF" style="stroke:#000000;stroke-width:1;"/><path d="M960,813.3613 L960,823.3613 L970,823.3613 L960,813.3613 " fill="#FFFFFF" style="stroke:#000000;stroke-width:1;"/><text fill="#000000" font-family="Arial" font-size="11" lengthAdjust="spacing" textLength="122.8853" x="774" y="828.8591">Typical verdict conditions</text><text fill="#000000" font-family="Arial" font-size="11" lengthAdjust="spacing" textLength="96.0029" x="774" y="841.5081">- failSafeMode &gt;= 1</text><text fill="#000000" font-family="Arial" font-size="11" lengthAdjust="spacing" textLength="107.6099" x="774" y="854.157">- decelAssistReq == 0</text><text fill="#000000" font-family="Arial" font-size="11" lengthAdjust="spacing" textLength="181.0059" x="774" y="866.8059">- blocked/degraded context observed</text><path d="M10,883.957 L10,956.957 L831,956.957 L831,893.957 L821,883.957 L10,883.957 " fill="#FFFFFF" style="stroke:#000000;stroke-width:1;"/><path d="M821,883.957 L821,893.957 L831,893.957 L821,883.957 " fill="#FFFFFF" style="stroke:#000000;stroke-width:1;"/><text fill="#000000" font-family="Arial" font-size="11" lengthAdjust="spacing" textLength="143.0752" x="270.2211" y="899.4548">Representative runtime chain</text><text fill="#000000" font-family="Arial" font-size="11" lengthAdjust="spacing" textLength="232.332" x="270.2211" y="912.1038">1. Object confidence and risk intent reach CGW</text><text fill="#000000" font-family="Arial" font-size="11" lengthAdjust="spacing" textLength="239.6689" x="270.2211" y="924.7527">2. CGW owns the effective fail-safe gate decision</text><text fill="#000000" font-family="Arial" font-size="11" lengthAdjust="spacing" textLength="282.498" x="270.2211" y="937.4016">3. Core/CoreState expose the gated warning/decel seams</text><text fill="#000000" font-family="Arial" font-size="11" lengthAdjust="spacing" textLength="291.6289" x="270.2211" y="950.0505">4. TEST_SCN consumes those seams as fail-safe evidence</text><!--SRC=[XLLDRnen4BtxLqoRIoELR4YY9aMY4g5iLQb9eu3I2r9bTcTP5yVUsbv8UkXlxzZi1mj8pOdOdZSpRzwyVUDoV4Oe91UAsPLG1JVy6HOyMIsDBbKwrb8RE8d3tywB53DUIXThvUuv8OoCuFBu_LJyGUZtTouj_YvH9NY7rl8bZgHOAaXGEJGxhmpQGYjRlxf5gJSZO_G6d2cHCIUSHFY- -8M9Wx5McKWzACmqn5n8opE4BzmXJ0cUIuWfVgxUZJwFfj5eSWjw6vcqaRrFCFxo0pAAxeNmfG-dqpKQaOc4Ew7LAMDKdnE9ABXoyDRZGGI4E5TRo9uHTWM5qMcPeB5lWLjufAEnUo4ch-Bh-BOBGKdd2hECOiKQOSED4cePjNNeZK8JS7nz9vER-7foiuUX3KwThpS2_tkksd2B_7bRXhy9qxmQZxlniybqzdCwlgTmN6_v216Jwf-GzJoUC3OS7Y7zgofAPs4uPAnkjM9pK14zCoIg9ov5MlFKXjSdapM9OAnJEaWnGJcoLbZt6HDXYVb7_CqyOWECQovBtp99rH5Z3rgAv1MYkQeeVE0kzwIKbjhoV4o9ZZl2x-A8h7C9duRGdojQ3GMX3EB1rm721aMaJ6cVL2np1php8EmH2z8hLS_324MWW_MEY2mY-H8JiFPK2FTAZzAgmIgRyUjX7Lqi_0foGotLekWLr1BaoANB6QeKV2bX9fD6Fq7qtxraR2wAC9EwNJ_-0JHQ6GmEY3hoT30uIjq1baL95M0wacXSKyutN5DF4SnU2z-yB-uHkTMgEuEYN4XXyxZA523VdSvLTUx3Dlnr_tWhH1_Wwhl_3uV4KasdqrSF3ideGQUfdU9xiADGKYRmZEpBwuCGkfDvsd4FOg3Pg30OpoAHq1mEkbACu8YKg-t0j1Pcy2bgaHoNDKXTLDhkywiFX1T-N7eGglfd_-BwR__Y8ooaJbQOHYak3Ky9ESanMTazCciyHiEaXgGtnbHizKrQflxsMGsxT4WMiNBkzNsGbRuN-4Av5XRDcZQj9J9KeYbXxQNlstBs1cnAvGHzb9BSVzRwPxLVxMmX9znWqu8IalyPv4aUn79n5XH9bck1B01QNzxxBjHRooxFmXP4hGNZIw4jXl1W68sbRnSy-36xEeF6TAaoMpwZp-W3mmFllctAsfHRHlu1]--></g></svg>