<svg xmlns="http://www.w3.org/2000/svg" xmlns:xlink="http://www.w3.org/1999/xlink" contentStyleType="text/css" height="996px" preserveAspectRatio="none" style="width:990px;height:996px;background:#FFFFFF;" version="1.1" viewBox="0 0 990 996" width="990px" zoomAndPan="magnify"><title>Object Safety To LDR Health Range Bucket Signal Flow</title><defs/><g><text fill="#000000" font-family="Arial" font-size="22" font-weight="bold" lengthAdjust="spacing" textLength="579.4229" x="204.1725" y="35.9956">Object Safety To LDR Health Range Bucket Signal Flow</text><text fill="#000000" font-family="Arial" font-size="22" font-weight="bold" lengthAdjust="spacing" textLength="900.8721" x="43.4479" y="61.2935">(object-safety input + ADAS domain state -&gt; LDR health and range-bucket publication)</text><rect fill="#FFFFFF" height="613.1699" style="stroke:#000000;stroke-width:1;" width="10" x="470.1895" y="238.1382"/><line style="stroke:#000000;stroke-width:1;" x1="65" x2="65" y1="116.8936" y2="952.5527"/><line style="stroke:#000000;stroke-width:1;" x1="192.1606" x2="192.1606" y1="116.8936" y2="952.5527"/><line style="stroke:#000000;stroke-width:1;" x1="474.533" x2="474.533" y1="116.8936" y2="952.5527"/><line style="stroke:#000000;stroke-width:1;" x1="729.187" x2="729.187" y1="116.8936" y2="952.5527"/><line style="stroke:#000000;stroke-width:1;" x1="915.0457" x2="915.0457" y1="116.8936" y2="952.5527"/><rect fill="#F4F7FB" height="26.6489" rx="2.5" ry="2.5" style="stroke:#000000;stroke-width:1;" width="86.1606" x="22" y="89.2446"/><text fill="#000000" font-family="Arial" font-size="11" lengthAdjust="spacing" textLength="72.1606" x="29" y="106.7424">Lidar input bus</text><rect fill="#F4F7FB" height="26.6489" rx="2.5" ry="2.5" style="stroke:#000000;stroke-width:1;" width="86.1606" x="22" y="951.5527"/><text fill="#000000" font-family="Arial" font-size="11" lengthAdjust="spacing" textLength="72.1606" x="29" y="969.0505">Lidar input bus</text><rect fill="#E8F0FE" height="26.6489" rx="2.5" ry="2.5" style="stroke:#000000;stroke-width:1;" width="109.9922" x="138.1606" y="89.2446"/><text fill="#000000" font-family="Arial" font-size="11" lengthAdjust="spacing" textLength="95.9922" x="145.1606" y="106.7424">ADAS domain state</text><rect fill="#E8F0FE" height="26.6489" rx="2.5" ry="2.5" style="stroke:#000000;stroke-width:1;" width="109.9922" x="138.1606" y="951.5527"/><text fill="#000000" font-family="Arial" font-size="11" lengthAdjust="spacing" textLength="95.9922" x="145.1606" y="969.0505">ADAS domain state</text><rect fill="#E8F7E8" height="39.2979" rx="2.5" ry="2.5" style="stroke:#000000;stroke-width:1;" width="95.313" x="427.533" y="76.5957"/><text fill="#000000" font-family="Arial" font-size="11" lengthAdjust="spacing" textLength="22.0054" x="464.1868" y="94.0935">LDR</text><text fill="#000000" font-family="Arial" font-size="11" lengthAdjust="spacing" textLength="81.313" x="434.533" y="106.7424">lidar-state owner</text><rect fill="#E8F7E8" height="39.2979" rx="2.5" ry="2.5" style="stroke:#000000;stroke-width:1;" width="95.313" x="427.533" y="951.5527"/><text fill="#000000" font-family="Arial" font-size="11" lengthAdjust="spacing" textLength="22.0054" x="464.1868" y="969.0505">LDR</text><text fill="#000000" font-family="Arial" font-size="11" lengthAdjust="spacing" textLength="81.313" x="434.533" y="981.6995">lidar-state owner</text><rect fill="#FFF4CC" height="26.6489" rx="2.5" ry="2.5" style="stroke:#000000;stroke-width:1;" width="86.1553" x="686.187" y="89.2446"/><text fill="#000000" font-family="Arial" font-size="11" lengthAdjust="spacing" textLength="72.1553" x="693.187" y="106.7424">Lidar state bus</text><rect fill="#FFF4CC" height="26.6489" rx="2.5" ry="2.5" style="stroke:#000000;stroke-width:1;" width="86.1553" x="686.187" y="951.5527"/><text fill="#000000" font-family="Arial" font-size="11" lengthAdjust="spacing" textLength="72.1553" x="693.187" y="969.0505">Lidar state bus</text><rect fill="#FCE8FF" height="39.2979" rx="2.5" ry="2.5" style="stroke:#000000;stroke-width:1;" width="105.7222" x="863.0457" y="76.5957"/><text fill="#000000" font-family="Arial" font-size="11" lengthAdjust="spacing" textLength="56.8477" x="887.4829" y="94.0935">Observers /</text><text fill="#000000" font-family="Arial" font-size="11" lengthAdjust="spacing" textLength="91.7222" x="870.0457" y="106.7424">perception readers</text><rect fill="#FCE8FF" height="39.2979" rx="2.5" ry="2.5" style="stroke:#000000;stroke-width:1;" width="105.7222" x="863.0457" y="951.5527"/><text fill="#000000" font-family="Arial" font-size="11" lengthAdjust="spacing" textLength="56.8477" x="887.4829" y="969.0505">Observers /</text><text fill="#000000" font-family="Arial" font-size="11" lengthAdjust="spacing" textLength="91.7222" x="870.0457" y="981.6995">perception readers</text><rect fill="#FFFFFF" height="613.1699" style="stroke:#000000;stroke-width:1;" width="10" x="470.1895" y="238.1382"/><rect fill="#FFFFFF" height="3" style="stroke:#FFFFFF;stroke-width:1;" width="978.7678" x="5" y="146.218"/><line style="stroke:#000000;stroke-width:0.5;" x1="5" x2="983.7678" y1="146.218" y2="146.218"/><line style="stroke:#000000;stroke-width:0.5;" x1="5" x2="983.7678" y1="149.218" y2="149.218"/><rect fill="#FFFFFF" height="20.6489" style="stroke:#000000;stroke-width:1;" width="75.7139" x="456.527" y="136.8936"/><text fill="#000000" font-family="Arial" font-size="11" font-weight="bold" lengthAdjust="spacing" textLength="58.6577" x="462.527" y="151.3914">LDR Inputs</text><polygon fill="#000000" points="463.1895,194.8403,473.1895,198.8403,463.1895,202.8403,467.1895,198.8403" style="stroke:#000000;stroke-width:1;"/><line style="stroke:#000000;stroke-width:1;" x1="65.0803" x2="469.1895" y1="198.8403" y2="198.8403"/><text fill="#000000" font-family="Arial" font-size="11" lengthAdjust="spacing" textLength="85.5884" x="227.3407" y="182.0403">frmLidarInputMsg</text><text fill="#000000" font-family="Arial" font-size="11" lengthAdjust="spacing" textLength="204.2305" x="168.0197" y="194.6892">TargetDetected / Confidence / EventCode</text><polygon fill="#000000" points="458.1895,234.1382,468.1895,238.1382,458.1895,242.1382,462.1895,238.1382" style="stroke:#000000;stroke-width:1;"/><line style="stroke:#000000;stroke-width:1;" x1="193.1567" x2="464.1895" y1="238.1382" y2="238.1382"/><text fill="#000000" font-family="Arial" font-size="11" lengthAdjust="spacing" textLength="125.3237" x="269.0112" y="221.3381">frmAdasDomainStateMsg</text><text fill="#000000" font-family="Arial" font-size="11" lengthAdjust="spacing" textLength="258.0327" x="202.6567" y="233.9871">WarningPathStatus / E2eHealthState / FailSafeMode</text><line style="stroke:#000000;stroke-width:1;" x1="480.1895" x2="522.1895" y1="277.436" y2="277.436"/><line style="stroke:#000000;stroke-width:1;" x1="522.1895" x2="522.1895" y1="277.436" y2="290.436"/><line style="stroke:#000000;stroke-width:1;" x1="481.1895" x2="522.1895" y1="290.436" y2="290.436"/><polygon fill="#000000" points="491.1895,286.436,481.1895,290.436,491.1895,294.436,487.1895,290.436" style="stroke:#000000;stroke-width:1;"/><text fill="#000000" font-family="Arial" font-size="11" lengthAdjust="spacing" textLength="119.5552" x="537.4495" y="260.636">objectSafetyInputStale =</text><text fill="#000000" font-family="Arial" font-size="11" lengthAdjust="spacing" textLength="220.0752" x="487.1895" y="273.2849">ethIsRecentTick(gObjectSafetyRxTsMs, 300)</text><line style="stroke:#000000;stroke-width:1;" x1="480.1895" x2="522.1895" y1="329.7339" y2="329.7339"/><line style="stroke:#000000;stroke-width:1;" x1="522.1895" x2="522.1895" y1="329.7339" y2="342.7339"/><line style="stroke:#000000;stroke-width:1;" x1="481.1895" x2="522.1895" y1="342.7339" y2="342.7339"/><polygon fill="#000000" points="491.1895,338.7339,481.1895,342.7339,491.1895,346.7339,487.1895,342.7339" style="stroke:#000000;stroke-width:1;"/><text fill="#000000" font-family="Arial" font-size="11" lengthAdjust="spacing" textLength="148.2798" x="495.8933" y="312.9338">pathReady = lidarPathReady()</text><text fill="#000000" font-family="Arial" font-size="11" lengthAdjust="spacing" textLength="165.6875" x="487.1895" y="325.5828">from warning path / E2E / fail-safe</text><line style="stroke:#000000;stroke-width:1;" x1="480.1895" x2="522.1895" y1="382.0317" y2="382.0317"/><line style="stroke:#000000;stroke-width:1;" x1="522.1895" x2="522.1895" y1="382.0317" y2="395.0317"/><line style="stroke:#000000;stroke-width:1;" x1="481.1895" x2="522.1895" y1="395.0317" y2="395.0317"/><polygon fill="#000000" points="491.1895,391.0317,481.1895,395.0317,491.1895,399.0317,487.1895,395.0317" style="stroke:#000000;stroke-width:1;"/><text fill="#000000" font-family="Arial" font-size="11" lengthAdjust="spacing" textLength="134.5298" x="487.1895" y="365.2317">if stale or path blocked then</text><text fill="#000000" font-family="Arial" font-size="11" lengthAdjust="spacing" textLength="128.7183" x="490.0952" y="377.8806">confidence/event/track = 0</text><line style="stroke:#000000;stroke-width:1;" x1="480.1895" x2="522.1895" y1="434.3296" y2="434.3296"/><line style="stroke:#000000;stroke-width:1;" x1="522.1895" x2="522.1895" y1="434.3296" y2="447.3296"/><line style="stroke:#000000;stroke-width:1;" x1="481.1895" x2="522.1895" y1="447.3296" y2="447.3296"/><polygon fill="#000000" points="491.1895,443.3296,481.1895,447.3296,491.1895,451.3296,487.1895,447.3296" style="stroke:#000000;stroke-width:1;"/><text fill="#000000" font-family="Arial" font-size="11" lengthAdjust="spacing" textLength="88.043" x="549.8621" y="417.5295">derive health from</text><text fill="#000000" font-family="Arial" font-size="11" lengthAdjust="spacing" textLength="213.3882" x="487.1895" y="430.1785">pathReady, fail-safe, track-valid, confidence</text><line style="stroke:#000000;stroke-width:1;" x1="480.1895" x2="522.1895" y1="473.9785" y2="473.9785"/><line style="stroke:#000000;stroke-width:1;" x1="522.1895" x2="522.1895" y1="473.9785" y2="486.9785"/><line style="stroke:#000000;stroke-width:1;" x1="481.1895" x2="522.1895" y1="486.9785" y2="486.9785"/><polygon fill="#000000" points="491.1895,482.9785,481.1895,486.9785,491.1895,490.9785,487.1895,486.9785" style="stroke:#000000;stroke-width:1;"/><text fill="#000000" font-family="Arial" font-size="11" lengthAdjust="spacing" textLength="196.8936" x="487.1895" y="469.8274">derive freeSpaceClass and rangeBucket</text><path d="M485,499.9785 L485,597.9785 L645,597.9785 L645,509.9785 L635,499.9785 L485,499.9785 " fill="#FFFFFF" style="stroke:#000000;stroke-width:1;"/><path d="M635,499.9785 L635,509.9785 L645,509.9785 L635,499.9785 " fill="#FFFFFF" style="stroke:#000000;stroke-width:1;"/><text fill="#000000" font-family="Arial" font-size="11" lengthAdjust="spacing" textLength="139.4229" x="491" y="515.4763">Representative gating inputs</text><text fill="#000000" font-family="Arial" font-size="11" lengthAdjust="spacing" textLength="82.5376" x="491" y="528.1252">- TargetDetected</text><text fill="#000000" font-family="Arial" font-size="11" lengthAdjust="spacing" textLength="62.3691" x="491" y="540.7742">- Confidence</text><text fill="#000000" font-family="Arial" font-size="11" lengthAdjust="spacing" textLength="61.1445" x="491" y="553.4231">- EventCode</text><text fill="#000000" font-family="Arial" font-size="11" lengthAdjust="spacing" textLength="101.4922" x="491" y="566.072">- WarningPathStatus</text><text fill="#000000" font-family="Arial" font-size="11" lengthAdjust="spacing" textLength="83.7729" x="491" y="578.7209">- E2eHealthState</text><text fill="#000000" font-family="Arial" font-size="11" lengthAdjust="spacing" textLength="74.5884" x="491" y="591.3699">- FailSafeMode</text><rect fill="#FFFFFF" height="3" style="stroke:#FFFFFF;stroke-width:1;" width="978.7678" x="5" y="622.8455"/><line style="stroke:#000000;stroke-width:0.5;" x1="5" x2="983.7678" y1="622.8455" y2="622.8455"/><line style="stroke:#000000;stroke-width:0.5;" x1="5" x2="983.7678" y1="625.8455" y2="625.8455"/><rect fill="#FFFFFF" height="20.6489" style="stroke:#000000;stroke-width:1;" width="82.4438" x="453.162" y="613.521"/><text fill="#000000" font-family="Arial" font-size="11" font-weight="bold" lengthAdjust="spacing" textLength="65.3877" x="459.162" y="628.0188">LDR Publish</text><polygon fill="#000000" points="717.2646,684.1167,727.2646,688.1167,717.2646,692.1167,721.2646,688.1167" style="stroke:#000000;stroke-width:1;"/><line style="stroke:#000000;stroke-width:1;" x1="480.1895" x2="723.2646" y1="688.1167" y2="688.1167"/><text fill="#000000" font-family="Arial" font-size="11" lengthAdjust="spacing" textLength="86.8076" x="561.3232" y="658.6677">frmLidarStateMsg</text><text fill="#000000" font-family="Arial" font-size="11" lengthAdjust="spacing" textLength="147.356" x="531.0491" y="671.3167">LidarHealth / TargetDetected /</text><text fill="#000000" font-family="Arial" font-size="11" lengthAdjust="spacing" textLength="221.3428" x="494.0557" y="683.9656">FreeSpaceClass / Confidence / RangeBucket</text><path d="M485,701.1167 L485,774.1167 L619,774.1167 L619,711.1167 L609,701.1167 L485,701.1167 " fill="#FFFFFF" style="stroke:#000000;stroke-width:1;"/><path d="M609,701.1167 L609,711.1167 L619,711.1167 L609,701.1167 " fill="#FFFFFF" style="stroke:#000000;stroke-width:1;"/><text fill="#000000" font-family="Arial" font-size="11" lengthAdjust="spacing" textLength="113.126" x="491" y="716.6145">Representative outputs</text><text fill="#000000" font-family="Arial" font-size="11" lengthAdjust="spacing" textLength="62.9761" x="491" y="729.2634">- LidarHealth</text><text fill="#000000" font-family="Arial" font-size="11" lengthAdjust="spacing" textLength="82.5376" x="491" y="741.9124">- TargetDetected</text><text fill="#000000" font-family="Arial" font-size="11" lengthAdjust="spacing" textLength="62.3691" x="491" y="754.5613">- Confidence</text><text fill="#000000" font-family="Arial" font-size="11" lengthAdjust="spacing" textLength="72.7622" x="491" y="767.2102">- RangeBucket</text><rect fill="#FFFFFF" height="3" style="stroke:#FFFFFF;stroke-width:1;" width="978.7678" x="5" y="798.6858"/><line style="stroke:#000000;stroke-width:0.5;" x1="5" x2="983.7678" y1="798.6858" y2="798.6858"/><line style="stroke:#000000;stroke-width:0.5;" x1="5" x2="983.7678" y1="801.6858" y2="801.6858"/><rect fill="#FFFFFF" height="20.6489" style="stroke:#000000;stroke-width:1;" width="131.3638" x="428.702" y="789.3613"/><text fill="#000000" font-family="Arial" font-size="11" font-weight="bold" lengthAdjust="spacing" textLength="114.3076" x="434.702" y="803.8591">Downstream Visibility</text><polygon fill="#000000" points="903.9067,847.3081,913.9067,851.3081,903.9067,855.3081,907.9067,851.3081" style="stroke:#000000;stroke-width:1;"/><line style="stroke:#000000;stroke-width:1;" x1="729.2646" x2="909.9067" y1="851.3081" y2="851.3081"/><text fill="#000000" font-family="Arial" font-size="11" lengthAdjust="spacing" textLength="98.4307" x="773.3704" y="834.5081">perception visibility /</text><text fill="#000000" font-family="Arial" font-size="11" lengthAdjust="spacing" textLength="162.6421" x="741.2646" y="847.157">ADAS and observer consumption</text><path d="M10,864.3081 L10,937.3081 L971,937.3081 L971,874.3081 L961,864.3081 L10,864.3081 " fill="#FFFFFF" style="stroke:#000000;stroke-width:1;"/><path d="M961,864.3081 L961,874.3081 L971,874.3081 L961,864.3081 " fill="#FFFFFF" style="stroke:#000000;stroke-width:1;"/><text fill="#000000" font-family="Arial" font-size="11" lengthAdjust="spacing" textLength="143.0752" x="339.9598" y="879.8059">Representative runtime chain</text><text fill="#000000" font-family="Arial" font-size="11" lengthAdjust="spacing" textLength="280.0327" x="339.9598" y="892.4548">1. Object-safety input and ADAS domain state reach LDR</text><text fill="#000000" font-family="Arial" font-size="11" lengthAdjust="spacing" textLength="249.4712" x="339.9598" y="905.1038">2. LDR checks path readiness and fail-safe posture</text><text fill="#000000" font-family="Arial" font-size="11" lengthAdjust="spacing" textLength="284.335" x="339.9598" y="917.7527">3. LDR derives health, confidence class, and range bucket</text><text fill="#000000" font-family="Arial" font-size="11" lengthAdjust="spacing" textLength="292.8481" x="339.9598" y="930.4016">4. LDR publishes frmLidarStateMsg for downstream readers</text><!--SRC=[bLLDRzim3BtxLt3jfSMIfbqBj1YG0VaoLg1PYoJOBhaeCcrhSIHFafDrltwKvCHnMc1O3obCau-Fv2FzmUQuGIWB9cHaraAMJBCDh1XVPrfLCXcfGcauZ_tVaKU2AQiA6ojflp5266Z1YlVVpyKVX9kRevS6VrKeEKxH69RXe12P18xIeZxoqcXA9StUQuY5sWsqLZkmki8eii8M2C-hdyWjp5cAzXKM2fx6C_YAhB0vp9ZC48OLNoDvK19MG4meItcXV5ZNX31AMLdu28FnO0w9sb0tm5Xc4RfVF60U09bCG3lGxYg0bjMg49nPeUHb515lAxWecRHmzYGIfclaLMNEW1dmjaT9_RoBx-DXE-1DSXyoI9WPgmsSJnxYwtXoacCyMyh2WNO3NRMJg4CgOkrYxYSFx_4AxWTUYHvMne_vRZHg-p-l3EejQWEzfInHSonTkJGUbf3LnvCF1OyeNHn5_RvF_kWgDz3lHz6-xBgPdo7Lczf6FbEJBUM2wGpj62rD1HFemKZ9L2HE9VGmsP8uHYh1QD-EOwZQHdsRkweytW-cfP3P2xEvCr9nXF89Wp2y6nbY9WeddAb3PjoAhRCJRkIm3oc2LeB2F6EA9-Nrbn9j_cXcwAIx47nzaJqVkSv-BypKTE3s-lgo3LWIgncrxnNwuAVtiZTSN2vbggc-NU3lNJtr2VscnDTBjWqdKZTEOaIRwlrNXI9r9a3BBPUI7phPGzV7djMqtfJwkWr3qnHRt4lTiQ1vxubrckGTy03TBIFk7MZWtuLBDUAyP1n71JEcsQ2mbP5Kr74jijo2IdthPrZIvXDFsYgAp-WVzS7laOcwq1OA6HgXq4CZb2wyaO1xtv806LeIG2Bd21qq_EBMs-H1n7LnOLKQ3JUQyu_rwUd1gQANCcwtuaJZi__fYgfitO-ZfF_ipd6ALgrZkXl6qaPluBimOYKAGLVHLntAfSBTZfDqcmEmRJofE7-zt7HLVI-SC4oryRvHWgtr2WKgvrNVWOx3FwrILz8A-hZmt7sURgxgOz- -sYxdsxjDjV3Sv_fqvKV9S-Hh4_R3dIuXiPRZGTXGAcChZT5j20aADlL672iTk9jWfr4pXEz1T1SYow0RYZrL2QIqf4dJxlgADkFu2m00]--></g></svg>