<svg xmlns="http://www.w3.org/2000/svg" xmlns:xlink="http://www.w3.org/1999/xlink" contentStyleType="text/css" height="1509px" preserveAspectRatio="none" style="width:1268px;height:1509px;background:#FFFFFF;" version="1.1" viewBox="0 0 1268 1509" width="1268px" zoomAndPan="magnify"><title>Object Risk To Warning Signal Flow</title><defs/><g><text fill="#000000" font-family="Arial" font-size="22" font-weight="bold" lengthAdjust="spacing" textLength="376.4707" x="444.541" y="35.9956">Object Risk To Warning Signal Flow</text><text fill="#000000" font-family="Arial" font-size="22" font-weight="bold" lengthAdjust="spacing" textLength="474.8262" x="395.3633" y="61.2935">(FRADAR / FCA -&gt; ADAS -&gt; CGW -&gt; IVI / CLU)</text><rect fill="#FFFFFF" height="59.2979" style="stroke:#000000;stroke-width:1;" width="10" x="69.1592" y="126.8936"/><rect fill="#FFFFFF" height="136.5425" style="stroke:#000000;stroke-width:1;" width="10" x="219.8345" y="186.1914"/><rect fill="#FFFFFF" height="390.436" style="stroke:#000000;stroke-width:1;" width="10" x="471.3481" y="322.7339"/><rect fill="#FFFFFF" height="283.1382" style="stroke:#000000;stroke-width:1;" width="10" x="701.4956" y="713.1699"/><rect fill="#FFFFFF" height="230.8403" style="stroke:#000000;stroke-width:1;" width="10" x="931.1538" y="996.3081"/><rect fill="#FFFFFF" height="129.8936" style="stroke:#000000;stroke-width:1;" width="10" x="1091.0898" y="1227.1484"/><line style="stroke:#000000;stroke-width:1;" x1="74" x2="74" y1="116.8936" y2="1465.2866"/><line style="stroke:#000000;stroke-width:1;" x1="224.3184" x2="224.3184" y1="116.8936" y2="1465.2866"/><line style="stroke:#000000;stroke-width:1;" x1="475.7786" x2="475.7786" y1="116.8936" y2="1465.2866"/><line style="stroke:#000000;stroke-width:1;" x1="705.9915" x2="705.9915" y1="116.8936" y2="1465.2866"/><line style="stroke:#000000;stroke-width:1;" x1="935.5881" x2="935.5881" y1="116.8936" y2="1465.2866"/><line style="stroke:#000000;stroke-width:1;" x1="1095.2822" x2="1095.2822" y1="116.8936" y2="1465.2866"/><rect fill="#E8F7E8" height="39.2979" rx="2.5" ry="2.5" style="stroke:#000000;stroke-width:1;" width="106.3184" x="21" y="76.5957"/><text fill="#000000" font-family="Arial" font-size="11" lengthAdjust="spacing" textLength="45.2246" x="51.5469" y="94.0935">FRADAR</text><text fill="#000000" font-family="Arial" font-size="11" lengthAdjust="spacing" textLength="92.3184" x="28" y="106.7424">object track source</text><rect fill="#E8F7E8" height="39.2979" rx="2.5" ry="2.5" style="stroke:#000000;stroke-width:1;" width="106.3184" x="21" y="1464.2866"/><text fill="#000000" font-family="Arial" font-size="11" lengthAdjust="spacing" textLength="45.2246" x="51.5469" y="1481.7844">FRADAR</text><text fill="#000000" font-family="Arial" font-size="11" lengthAdjust="spacing" textLength="92.3184" x="28" y="1494.4333">object track source</text><rect fill="#FFF4CC" height="39.2979" rx="2.5" ry="2.5" style="stroke:#000000;stroke-width:1;" width="135.0322" x="157.3184" y="76.5957"/><text fill="#000000" font-family="Arial" font-size="11" lengthAdjust="spacing" textLength="22" x="213.8345" y="94.0935">FCA</text><text fill="#000000" font-family="Arial" font-size="11" lengthAdjust="spacing" textLength="121.0322" x="164.3184" y="106.7424">FCW / AEB request view</text><rect fill="#FFF4CC" height="39.2979" rx="2.5" ry="2.5" style="stroke:#000000;stroke-width:1;" width="135.0322" x="157.3184" y="1464.2866"/><text fill="#000000" font-family="Arial" font-size="11" lengthAdjust="spacing" textLength="22" x="213.8345" y="1481.7844">FCA</text><text fill="#000000" font-family="Arial" font-size="11" lengthAdjust="spacing" textLength="121.0322" x="164.3184" y="1494.4333">FCW / AEB request view</text><rect fill="#FCE8FF" height="39.2979" rx="2.5" ry="2.5" style="stroke:#000000;stroke-width:1;" width="97.1392" x="427.7786" y="76.5957"/><text fill="#000000" font-family="Arial" font-size="11" lengthAdjust="spacing" textLength="29.9546" x="461.3708" y="94.0935">ADAS</text><text fill="#000000" font-family="Arial" font-size="11" lengthAdjust="spacing" textLength="83.1392" x="434.7786" y="106.7424">object-risk owner</text><rect fill="#FCE8FF" height="39.2979" rx="2.5" ry="2.5" style="stroke:#000000;stroke-width:1;" width="97.1392" x="427.7786" y="1464.2866"/><text fill="#000000" font-family="Arial" font-size="11" lengthAdjust="spacing" textLength="29.9546" x="461.3708" y="1481.7844">ADAS</text><text fill="#000000" font-family="Arial" font-size="11" lengthAdjust="spacing" textLength="83.1392" x="434.7786" y="1494.4333">object-risk owner</text><rect fill="#FFF4CC" height="39.2979" rx="2.5" ry="2.5" style="stroke:#000000;stroke-width:1;" width="121.0083" x="645.9915" y="76.5957"/><text fill="#000000" font-family="Arial" font-size="11" lengthAdjust="spacing" textLength="26.8823" x="693.0544" y="94.0935">CGW</text><text fill="#000000" font-family="Arial" font-size="11" lengthAdjust="spacing" textLength="107.0083" x="652.9915" y="106.7424">effective warning gate</text><rect fill="#FFF4CC" height="39.2979" rx="2.5" ry="2.5" style="stroke:#000000;stroke-width:1;" width="121.0083" x="645.9915" y="1464.2866"/><text fill="#000000" font-family="Arial" font-size="11" lengthAdjust="spacing" textLength="26.8823" x="693.0544" y="1481.7844">CGW</text><text fill="#000000" font-family="Arial" font-size="11" lengthAdjust="spacing" textLength="107.0083" x="652.9915" y="1494.4333">effective warning gate</text><rect fill="#E8F0FE" height="39.2979" rx="2.5" ry="2.5" style="stroke:#000000;stroke-width:1;" width="127.1313" x="872.5881" y="76.5957"/><text fill="#000000" font-family="Arial" font-size="11" lengthAdjust="spacing" textLength="13.4492" x="929.4292" y="94.0935">IVI</text><text fill="#000000" font-family="Arial" font-size="11" lengthAdjust="spacing" textLength="113.1313" x="879.5881" y="106.7424">warning render / popup</text><rect fill="#E8F0FE" height="39.2979" rx="2.5" ry="2.5" style="stroke:#000000;stroke-width:1;" width="127.1313" x="872.5881" y="1464.2866"/><text fill="#000000" font-family="Arial" font-size="11" lengthAdjust="spacing" textLength="13.4492" x="929.4292" y="1481.7844">IVI</text><text fill="#000000" font-family="Arial" font-size="11" lengthAdjust="spacing" textLength="113.1313" x="879.5881" y="1494.4333">warning render / popup</text><rect fill="#E8F0FE" height="39.2979" rx="2.5" ry="2.5" style="stroke:#000000;stroke-width:1;" width="121.6152" x="1035.2822" y="76.5957"/><text fill="#000000" font-family="Arial" font-size="11" lengthAdjust="spacing" textLength="22.0054" x="1085.0872" y="94.0935">CLU</text><text fill="#000000" font-family="Arial" font-size="11" lengthAdjust="spacing" textLength="107.6152" x="1042.2822" y="106.7424">cluster warning output</text><rect fill="#E8F0FE" height="39.2979" rx="2.5" ry="2.5" style="stroke:#000000;stroke-width:1;" width="121.6152" x="1035.2822" y="1464.2866"/><text fill="#000000" font-family="Arial" font-size="11" lengthAdjust="spacing" textLength="22.0054" x="1085.0872" y="1481.7844">CLU</text><text fill="#000000" font-family="Arial" font-size="11" lengthAdjust="spacing" textLength="107.6152" x="1042.2822" y="1494.4333">cluster warning output</text><rect fill="#FFFFFF" height="59.2979" style="stroke:#000000;stroke-width:1;" width="10" x="69.1592" y="126.8936"/><rect fill="#FFFFFF" height="136.5425" style="stroke:#000000;stroke-width:1;" width="10" x="219.8345" y="186.1914"/><rect fill="#FFFFFF" height="390.436" style="stroke:#000000;stroke-width:1;" width="10" x="471.3481" y="322.7339"/><rect fill="#FFFFFF" height="283.1382" style="stroke:#000000;stroke-width:1;" width="10" x="701.4956" y="713.1699"/><rect fill="#FFFFFF" height="230.8403" style="stroke:#000000;stroke-width:1;" width="10" x="931.1538" y="996.3081"/><rect fill="#FFFFFF" height="129.8936" style="stroke:#000000;stroke-width:1;" width="10" x="1091.0898" y="1227.1484"/><rect fill="#FFFFFF" height="3" style="stroke:#FFFFFF;stroke-width:1;" width="1256.5527" x="5" y="146.218"/><line style="stroke:#000000;stroke-width:0.5;" x1="5" x2="1261.5527" y1="146.218" y2="146.218"/><line style="stroke:#000000;stroke-width:0.5;" x1="5" x2="1261.5527" y1="149.218" y2="149.218"/><rect fill="#FFFFFF" height="20.6489" style="stroke:#000000;stroke-width:1;" width="111.1899" x="577.6814" y="136.8936"/><text fill="#000000" font-family="Arial" font-size="11" font-weight="bold" lengthAdjust="spacing" textLength="94.1338" x="583.6814" y="151.3914">Object Perception</text><polygon fill="#000000" points="464.3481,182.1914,474.3481,186.1914,464.3481,190.1914,468.3481,186.1914" style="stroke:#000000;stroke-width:1;"/><line style="stroke:#000000;stroke-width:1;" x1="74.1592" x2="470.3481" y1="186.1914" y2="186.1914"/><text fill="#000000" font-family="Arial" font-size="11" lengthAdjust="spacing" textLength="209.1235" x="170.6919" y="182.0403">object track / range / relSpeed / confidence</text><path d="M79,199.1914 L79,272.1914 L260,272.1914 L260,209.1914 L250,199.1914 L79,199.1914 " fill="#FFFFFF" style="stroke:#000000;stroke-width:1;"/><path d="M250,199.1914 L250,209.1914 L260,209.1914 L250,199.1914 " fill="#FFFFFF" style="stroke:#000000;stroke-width:1;"/><text fill="#000000" font-family="Arial" font-size="11" lengthAdjust="spacing" textLength="160.8213" x="85" y="214.6892">Representative perception inputs</text><text fill="#000000" font-family="Arial" font-size="11" lengthAdjust="spacing" textLength="88.0322" x="85" y="227.3381">- objectTrackValid</text><text fill="#000000" font-family="Arial" font-size="11" lengthAdjust="spacing" textLength="68.4868" x="85" y="239.9871">- objectRange</text><text fill="#000000" font-family="Arial" font-size="11" lengthAdjust="spacing" textLength="84.3853" x="85" y="252.636">- objectRelSpeed</text><text fill="#000000" font-family="Arial" font-size="11" lengthAdjust="spacing" textLength="91.7222" x="85" y="265.2849">- objectConfidence</text><polygon fill="#000000" points="240.8345,292.085,230.8345,296.085,240.8345,300.085,236.8345,296.085" style="stroke:#000000;stroke-width:1;"/><line style="stroke:#000000;stroke-width:1;" x1="234.8345" x2="475.3481" y1="296.085" y2="296.085"/><text fill="#000000" font-family="Arial" font-size="11" lengthAdjust="spacing" textLength="222.5137" x="241.8345" y="291.9338">decelAssistReq / objectRiskClass / TTC basis</text><polygon fill="#000000" points="459.3481,318.7339,469.3481,322.7339,459.3481,326.7339,463.3481,322.7339" style="stroke:#000000;stroke-width:1;"/><line style="stroke:#000000;stroke-width:1;" x1="224.8345" x2="465.3481" y1="322.7339" y2="322.7339"/><text fill="#000000" font-family="Arial" font-size="11" lengthAdjust="spacing" textLength="148.5591" x="273.8118" y="318.5828">FCW/AEB context contribution</text><path d="M229,335.7339 L229,382.7339 L374,382.7339 L374,345.7339 L364,335.7339 L229,335.7339 " fill="#FFFFFF" style="stroke:#000000;stroke-width:1;"/><path d="M364,335.7339 L364,345.7339 L374,345.7339 L364,335.7339 " fill="#FFFFFF" style="stroke:#000000;stroke-width:1;"/><text fill="#000000" font-family="Arial" font-size="11" lengthAdjust="spacing" textLength="124.7329" x="235" y="351.2317">Representative outcomes</text><text fill="#000000" font-family="Arial" font-size="11" lengthAdjust="spacing" textLength="48.9038" x="235" y="363.8806">- fcwState</text><text fill="#000000" font-family="Arial" font-size="11" lengthAdjust="spacing" textLength="66.043" x="235" y="376.5295">- aebRequest</text><rect fill="#FFFFFF" height="3" style="stroke:#FFFFFF;stroke-width:1;" width="1256.5527" x="5" y="408.0051"/><line style="stroke:#000000;stroke-width:0.5;" x1="5" x2="1261.5527" y1="408.0051" y2="408.0051"/><line style="stroke:#000000;stroke-width:0.5;" x1="5" x2="1261.5527" y1="411.0051" y2="411.0051"/><rect fill="#FFFFFF" height="20.6489" style="stroke:#000000;stroke-width:1;" width="161.313" x="552.6199" y="398.6807"/><text fill="#000000" font-family="Arial" font-size="11" font-weight="bold" lengthAdjust="spacing" textLength="144.2568" x="558.6199" y="413.1785">ADAS Object-Risk Decision</text><polygon fill="#000000" points="459.3481,443.9785,469.3481,447.9785,459.3481,451.9785,463.3481,447.9785" style="stroke:#000000;stroke-width:1;"/><line style="stroke:#000000;stroke-width:1;" x1="74.1592" x2="465.3481" y1="447.9785" y2="447.9785"/><text fill="#000000" font-family="Arial" font-size="11" lengthAdjust="spacing" textLength="83.7783" x="230.8645" y="443.8274">perception inputs</text><line style="stroke:#000000;stroke-width:1;" x1="481.3481" x2="523.3481" y1="474.6274" y2="474.6274"/><line style="stroke:#000000;stroke-width:1;" x1="523.3481" x2="523.3481" y1="474.6274" y2="487.6274"/><line style="stroke:#000000;stroke-width:1;" x1="482.3481" x2="523.3481" y1="487.6274" y2="487.6274"/><polygon fill="#000000" points="492.3481,483.6274,482.3481,487.6274,492.3481,491.6274,488.3481,487.6274" style="stroke:#000000;stroke-width:1;"/><text fill="#000000" font-family="Arial" font-size="11" lengthAdjust="spacing" textLength="80.0669" x="488.3481" y="470.4763">calcObjectRisk()</text><line style="stroke:#000000;stroke-width:1;" x1="481.3481" x2="523.3481" y1="514.2764" y2="514.2764"/><line style="stroke:#000000;stroke-width:1;" x1="523.3481" x2="523.3481" y1="514.2764" y2="527.2764"/><line style="stroke:#000000;stroke-width:1;" x1="482.3481" x2="523.3481" y1="527.2764" y2="527.2764"/><polygon fill="#000000" points="492.3481,523.2764,482.3481,527.2764,492.3481,531.2764,488.3481,527.2764" style="stroke:#000000;stroke-width:1;"/><text fill="#000000" font-family="Arial" font-size="11" lengthAdjust="spacing" textLength="107.5723" x="488.3481" y="510.1252">calcObjectRiskClass()</text><line style="stroke:#000000;stroke-width:1;" x1="481.3481" x2="523.3481" y1="553.9253" y2="553.9253"/><line style="stroke:#000000;stroke-width:1;" x1="523.3481" x2="523.3481" y1="553.9253" y2="566.9253"/><line style="stroke:#000000;stroke-width:1;" x1="482.3481" x2="523.3481" y1="566.9253" y2="566.9253"/><polygon fill="#000000" points="492.3481,562.9253,482.3481,566.9253,492.3481,570.9253,488.3481,566.9253" style="stroke:#000000;stroke-width:1;"/><text fill="#000000" font-family="Arial" font-size="11" lengthAdjust="spacing" textLength="188.0635" x="488.3481" y="549.7742">objectEventCode = 1381 / 1382 / 1383</text><line style="stroke:#000000;stroke-width:1;" x1="481.3481" x2="523.3481" y1="593.5742" y2="593.5742"/><line style="stroke:#000000;stroke-width:1;" x1="523.3481" x2="523.3481" y1="593.5742" y2="606.5742"/><line style="stroke:#000000;stroke-width:1;" x1="482.3481" x2="523.3481" y1="606.5742" y2="606.5742"/><polygon fill="#000000" points="492.3481,602.5742,482.3481,606.5742,492.3481,610.5742,488.3481,606.5742" style="stroke:#000000;stroke-width:1;"/><text fill="#000000" font-family="Arial" font-size="11" lengthAdjust="spacing" textLength="165.6929" x="488.3481" y="589.4231">selectedAlertDecisionLevel / Type</text><polygon fill="#000000" points="694.4956,629.2231,704.4956,633.2231,694.4956,637.2231,698.4956,633.2231" style="stroke:#000000;stroke-width:1;"/><line style="stroke:#000000;stroke-width:1;" x1="481.3481" x2="700.4956" y1="633.2231" y2="633.2231"/><text fill="#000000" font-family="Arial" font-size="11" lengthAdjust="spacing" textLength="187.709" x="500.0674" y="629.072">CoreState::selectedAlertDecisionLevel</text><polygon fill="#000000" points="694.4956,655.8721,704.4956,659.8721,694.4956,663.8721,698.4956,659.8721" style="stroke:#000000;stroke-width:1;"/><line style="stroke:#000000;stroke-width:1;" x1="481.3481" x2="700.4956" y1="659.8721" y2="659.8721"/><text fill="#000000" font-family="Arial" font-size="11" lengthAdjust="spacing" textLength="185.8667" x="500.9885" y="655.7209">CoreState::selectedAlertDecisionType</text><polygon fill="#000000" points="694.4956,682.521,704.4956,686.521,694.4956,690.521,698.4956,686.521" style="stroke:#000000;stroke-width:1;"/><line style="stroke:#000000;stroke-width:1;" x1="481.3481" x2="700.4956" y1="686.521" y2="686.521"/><text fill="#000000" font-family="Arial" font-size="11" lengthAdjust="spacing" textLength="201.1475" x="493.3481" y="682.3699">Core::objectRiskClass / objectEventCode</text><polygon fill="#000000" points="689.4956,709.1699,699.4956,713.1699,689.4956,717.1699,693.4956,713.1699" style="stroke:#000000;stroke-width:1;"/><line style="stroke:#000000;stroke-width:1;" x1="476.3481" x2="695.4956" y1="713.1699" y2="713.1699"/><text fill="#000000" font-family="Arial" font-size="11" lengthAdjust="spacing" textLength="132.043" x="522.9004" y="709.0188">frmAdasChassisStatusMsg</text><path d="M481,726.1699 L481,799.1699 L696,799.1699 L696,736.1699 L686,726.1699 L481,726.1699 " fill="#FFFFFF" style="stroke:#000000;stroke-width:1;"/><path d="M686,726.1699 L686,736.1699 L696,736.1699 L686,726.1699 " fill="#FFFFFF" style="stroke:#000000;stroke-width:1;"/><text fill="#000000" font-family="Arial" font-size="11" lengthAdjust="spacing" textLength="109.4414" x="487" y="741.6677">Representative seams</text><text fill="#000000" font-family="Arial" font-size="11" lengthAdjust="spacing" textLength="114.9199" x="487" y="754.3167">- Core::objectRiskClass</text><text fill="#000000" font-family="Arial" font-size="11" lengthAdjust="spacing" textLength="120.4521" x="487" y="766.9656">- Core::objectEventCode</text><text fill="#000000" font-family="Arial" font-size="11" lengthAdjust="spacing" textLength="194.4282" x="487" y="779.6145">- CoreState::selectedAlertDecisionLevel</text><text fill="#000000" font-family="Arial" font-size="11" lengthAdjust="spacing" textLength="192.5859" x="487" y="792.2634">- CoreState::selectedAlertDecisionType</text><rect fill="#FFFFFF" height="3" style="stroke:#FFFFFF;stroke-width:1;" width="1256.5527" x="5" y="823.739"/><line style="stroke:#000000;stroke-width:0.5;" x1="5" x2="1261.5527" y1="823.739" y2="823.739"/><line style="stroke:#000000;stroke-width:0.5;" x1="5" x2="1261.5527" y1="826.739" y2="826.739"/><rect fill="#FFFFFF" height="20.6489" style="stroke:#000000;stroke-width:1;" width="120.3584" x="573.0972" y="814.4146"/><text fill="#000000" font-family="Arial" font-size="11" font-weight="bold" lengthAdjust="spacing" textLength="103.3022" x="579.0972" y="828.9124">CGW Effective Gate</text><polygon fill="#000000" points="689.4956,859.7124,699.4956,863.7124,689.4956,867.7124,693.4956,863.7124" style="stroke:#000000;stroke-width:1;"/><line style="stroke:#000000;stroke-width:1;" x1="476.3481" x2="695.4956" y1="863.7124" y2="863.7124"/><text fill="#000000" font-family="Arial" font-size="11" lengthAdjust="spacing" textLength="147.6675" x="515.0881" y="859.5613">decision seams + object event</text><line style="stroke:#000000;stroke-width:1;" x1="711.4956" x2="753.4956" y1="890.3613" y2="890.3613"/><line style="stroke:#000000;stroke-width:1;" x1="753.4956" x2="753.4956" y1="890.3613" y2="903.3613"/><line style="stroke:#000000;stroke-width:1;" x1="712.4956" x2="753.4956" y1="903.3613" y2="903.3613"/><polygon fill="#000000" points="722.4956,899.3613,712.4956,903.3613,722.4956,907.3613,718.4956,903.3613" style="stroke:#000000;stroke-width:1;"/><text fill="#000000" font-family="Arial" font-size="11" lengthAdjust="spacing" textLength="195.6582" x="718.4956" y="886.2102">timeout / boundary / fail-safe adjustment</text><line style="stroke:#000000;stroke-width:1;" x1="711.4956" x2="753.4956" y1="930.0103" y2="930.0103"/><line style="stroke:#000000;stroke-width:1;" x1="753.4956" x2="753.4956" y1="930.0103" y2="943.0103"/><line style="stroke:#000000;stroke-width:1;" x1="712.4956" x2="753.4956" y1="943.0103" y2="943.0103"/><polygon fill="#000000" points="722.4956,939.0103,712.4956,943.0103,722.4956,947.0103,718.4956,943.0103" style="stroke:#000000;stroke-width:1;"/><text fill="#000000" font-family="Arial" font-size="11" lengthAdjust="spacing" textLength="165.6929" x="718.4956" y="925.8591">selectedAlertEffectiveLevel / Type</text><polygon fill="#000000" points="924.1538,965.6592,934.1538,969.6592,924.1538,973.6592,928.1538,969.6592" style="stroke:#000000;stroke-width:1;"/><line style="stroke:#000000;stroke-width:1;" x1="711.4956" x2="930.1538" y1="969.6592" y2="969.6592"/><text fill="#000000" font-family="Arial" font-size="11" lengthAdjust="spacing" textLength="100.8745" x="773.3875" y="965.5081">effective alert seams</text><polygon fill="#000000" points="1084.0898,992.3081,1094.0898,996.3081,1084.0898,1000.3081,1088.0898,996.3081" style="stroke:#000000;stroke-width:1;"/><line style="stroke:#000000;stroke-width:1;" x1="706.4956" x2="1090.0898" y1="996.3081" y2="996.3081"/><text fill="#000000" font-family="Arial" font-size="11" lengthAdjust="spacing" textLength="100.8745" x="850.8555" y="992.157">effective alert seams</text><path d="M711,1009.3081 L711,1069.3081 L864,1069.3081 L864,1019.3081 L854,1009.3081 L711,1009.3081 " fill="#FFFFFF" style="stroke:#000000;stroke-width:1;"/><path d="M854,1009.3081 L854,1019.3081 L864,1019.3081 L854,1009.3081 " fill="#FFFFFF" style="stroke:#000000;stroke-width:1;"/><text fill="#000000" font-family="Arial" font-size="11" lengthAdjust="spacing" textLength="102.1045" x="717" y="1024.8059">Gateway side effects</text><text fill="#000000" font-family="Arial" font-size="11" lengthAdjust="spacing" textLength="132.0698" x="717" y="1037.4548">- selectedAlertGateReason</text><text fill="#000000" font-family="Arial" font-size="11" lengthAdjust="spacing" textLength="109.4253" x="717" y="1050.1038">- object safety visibility</text><text fill="#000000" font-family="Arial" font-size="11" lengthAdjust="spacing" textLength="97.8237" x="717" y="1062.7527">- fail-safe escalation</text><rect fill="#FFFFFF" height="3" style="stroke:#FFFFFF;stroke-width:1;" width="1256.5527" x="5" y="1094.2283"/><line style="stroke:#000000;stroke-width:0.5;" x1="5" x2="1261.5527" y1="1094.2283" y2="1094.2283"/><line style="stroke:#000000;stroke-width:0.5;" x1="5" x2="1261.5527" y1="1097.2283" y2="1097.2283"/><rect fill="#FFFFFF" height="20.6489" style="stroke:#000000;stroke-width:1;" width="118.5" x="574.0264" y="1084.9038"/><text fill="#000000" font-family="Arial" font-size="11" font-weight="bold" lengthAdjust="spacing" textLength="101.4438" x="580.0264" y="1099.4016">Warning Rendering</text><polygon fill="#000000" points="919.1538,1130.2017,929.1538,1134.2017,919.1538,1138.2017,923.1538,1134.2017" style="stroke:#000000;stroke-width:1;"/><line style="stroke:#000000;stroke-width:1;" x1="706.4956" x2="925.1538" y1="1134.2017" y2="1134.2017"/><text fill="#000000" font-family="Arial" font-size="11" lengthAdjust="spacing" textLength="114.9468" x="761.3513" y="1130.0505">effective alert level/type</text><line style="stroke:#000000;stroke-width:1;" x1="941.1538" x2="983.1538" y1="1160.8506" y2="1160.8506"/><line style="stroke:#000000;stroke-width:1;" x1="983.1538" x2="983.1538" y1="1160.8506" y2="1173.8506"/><line style="stroke:#000000;stroke-width:1;" x1="942.1538" x2="983.1538" y1="1173.8506" y2="1173.8506"/><polygon fill="#000000" points="952.1538,1169.8506,942.1538,1173.8506,952.1538,1177.8506,948.1538,1173.8506" style="stroke:#000000;stroke-width:1;"/><text fill="#000000" font-family="Arial" font-size="11" lengthAdjust="spacing" textLength="125.936" x="948.1538" y="1156.6995">deriveWarningTextCode()</text><polygon fill="#000000" points="1084.0898,1196.4995,1094.0898,1200.4995,1084.0898,1204.4995,1088.0898,1200.4995" style="stroke:#000000;stroke-width:1;"/><line style="stroke:#000000;stroke-width:1;" x1="941.1538" x2="1090.0898" y1="1200.4995" y2="1200.4995"/><text fill="#000000" font-family="Arial" font-size="11" lengthAdjust="spacing" textLength="112.4653" x="962.3892" y="1196.3484">frmClusterWarningMsg</text><polygon fill="#000000" points="1079.0898,1223.1484,1089.0898,1227.1484,1079.0898,1231.1484,1083.0898,1227.1484" style="stroke:#000000;stroke-width:1;"/><line style="stroke:#000000;stroke-width:1;" x1="936.1538" x2="1085.0898" y1="1227.1484" y2="1227.1484"/><text fill="#000000" font-family="Arial" font-size="11" lengthAdjust="spacing" textLength="94.123" x="966.5603" y="1222.9973">frmClusterNotifMsg</text><path d="M941,1240.1484 L941,1300.1484 L1095,1300.1484 L1095,1250.1484 L1085,1240.1484 L941,1240.1484 " fill="#FFFFFF" style="stroke:#000000;stroke-width:1;"/><path d="M1085,1240.1484 L1085,1250.1484 L1095,1250.1484 L1085,1240.1484 " fill="#FFFFFF" style="stroke:#000000;stroke-width:1;"/><text fill="#000000" font-family="Arial" font-size="11" lengthAdjust="spacing" textLength="113.126" x="947" y="1255.6462">Representative outputs</text><text fill="#000000" font-family="Arial" font-size="11" lengthAdjust="spacing" textLength="133.8853" x="947" y="1268.2952">- Cluster::warningTextCode</text><text fill="#000000" font-family="Arial" font-size="11" lengthAdjust="spacing" textLength="94.1714" x="947" y="1280.9441">- popup / notif state</text><text fill="#000000" font-family="Arial" font-size="11" lengthAdjust="spacing" textLength="96.6152" x="947" y="1293.593">- warningBeepState</text><polygon fill="#000000" points="1079.0898,1320.3931,1089.0898,1324.3931,1079.0898,1328.3931,1083.0898,1324.3931" style="stroke:#000000;stroke-width:1;"/><line style="stroke:#000000;stroke-width:1;" x1="936.1538" x2="1085.0898" y1="1324.3931" y2="1324.3931"/><text fill="#000000" font-family="Arial" font-size="11" lengthAdjust="spacing" textLength="68.4814" x="979.3811" y="1320.2419">warning / notif</text><line style="stroke:#000000;stroke-width:1;" x1="1101.0898" x2="1143.0898" y1="1356.042" y2="1356.042"/><line style="stroke:#000000;stroke-width:1;" x1="1143.0898" x2="1143.0898" y1="1356.042" y2="1369.042"/><line style="stroke:#000000;stroke-width:1;" x1="1096.0898" x2="1143.0898" y1="1369.042" y2="1369.042"/><polygon fill="#000000" points="1106.0898,1365.042,1096.0898,1369.042,1106.0898,1373.042,1102.0898,1369.042" style="stroke:#000000;stroke-width:1;"/><text fill="#000000" font-family="Arial" font-size="11" lengthAdjust="spacing" textLength="131.4629" x="1108.0898" y="1351.8909">update cluster warning text</text><path d="M10,1377.042 L10,1450.042 L1160,1450.042 L1160,1387.042 L1150,1377.042 L10,1377.042 " fill="#FFFFFF" style="stroke:#000000;stroke-width:1;"/><path d="M1150,1377.042 L1150,1387.042 L1160,1387.042 L1150,1377.042 " fill="#FFFFFF" style="stroke:#000000;stroke-width:1;"/><text fill="#000000" font-family="Arial" font-size="11" lengthAdjust="spacing" textLength="143.0752" x="449.4993" y="1392.5398">Representative runtime chain</text><text fill="#000000" font-family="Arial" font-size="11" lengthAdjust="spacing" textLength="234.7544" x="449.4993" y="1405.1887">1. FRADAR and FCA provide object-risk context</text><text fill="#000000" font-family="Arial" font-size="11" lengthAdjust="spacing" textLength="262.8989" x="449.4993" y="1417.8376">2. ADAS computes object risk class and decision alert</text><text fill="#000000" font-family="Arial" font-size="11" lengthAdjust="spacing" textLength="218.8828" x="449.4993" y="1430.4866">3. CGW gates decision into effective warning</text><text fill="#000000" font-family="Arial" font-size="11" lengthAdjust="spacing" textLength="250.6851" x="449.4993" y="1443.1355">4. IVI and CLU render text / notification to the driver</text><!--SRC=[bLPDRziu4BthLt2RIujT9-kcm0O2l82YMaK1jrtOJdFnXPP63XkQL4dAhlVNxmn5oPRi5DrSv8ZpzTuypkWtzmHRO9NaGaNsMQYA6xvbQvu_RuokLP5ggGsxolpVYKK19Q-boxHodpb6I8pWylBvGlmBR3m-ERJmlGQLmoUmbcyWaMAZM0xAWJcnCc0hhMnhTGzIxnDZz9uvKqCKEU4ai2_hRv0xDXVscIqrU-H62RLX2mp99SlGPwLUP_FaVJ9dDonB4pRwc-5_2tgc7nxfyV7hHpnBPmzleWXpEv6BYYl7NZL-AwMR9CuWBypgskJmYd7BGjohwLtsr_Hku9icAvMbZnWvcTuZ6iHi7Ti9s3U-M0hn-YvD-uvKN9joP0YNtYimtiaNVfMbc33hUo6KbOAoH2Un0xOFF6ouQqebg1VJ8VYLQiqDg08Cbbpfggwy8v530F_CfeECiuULocLjiMrTFbsxgdPDnjb3vnXD9csd_W5aht92ApQPH16dUh78m6KKA6sR5BCUzpVCSBK1Ue9SL005_iorAaL1WegKnaX6R9uSqsKRSWuLQWdbnJqrrR40b5hjR3GAIPQKuokNekXUpIdTyR-Gj7kH7bCZSupIHmKCCPs0J9Ee5Hy98CQBaeDCh1KMetz7D24JzZsLt5fyirocU2FH8ZgLRum17cz8MeZVmG_ddqQiQu8sP0Bp3cZ0JkLw2uI-pFSBV4iuEQpdZL8l0y8ur4jVGTFGaRzwxo4NzgodP7RUqVC6j9G4WvpB_4j7m-itFp_tD9qRDJnETmWurGMm2HlVtesHJdoyRHwtGnyB4dsWI2GOrqAQmGuajU5GGNGwEMAMQWEUkJX-sVL_-hoG9exFXJ60EF0gpJOfk4sVEAcBKjRsazqCbE5RD9261RubNLpCEtX_p3xwHJf6lqR19VdvOab_X73Q3RiFTDOJ7fuFs2XQWNfmxFTshW3L7uL5q9WwiGMy7KZmcbOWDmVyMN8XHvQNm7Zn3MVUzioj1wKhhgUUatqJi-EmvkGHM6z3ul1yoQJVG89A1EpvWLcSHS69-jIhY6pcm2tEXdPwCSBZ3hYJh5WBATo1Xa4752nUDEwdoQLcK6BgHRjovtvtqAzUAn3ipt5BOkZ64JzaqDbHi1s4w4iSSAGolEV1g648HPusAoWOai9ViFYidIZFRm0LU3uRms88hd6yxzU1Htv5OcSLXMKs3D1WTmzGDJFr4dMKyaIiiuT-oUqo3R4ZUjiTrbL1JiF5InkWrnqCsW3LEpHhXl0V_lK0hAaLAPxbJ_GHEBvklseu5auBfp9wHxew_I89AoTwUzsCJjmaI1ZOLbYDaHzJ5AQxVBxZqUsrlpBqRMAFPq8vpSw-OA9trruF58O825yeVk45VaJkHShG7JzdMK6oCKVU_mC0]--></g></svg>