<svg xmlns="http://www.w3.org/2000/svg" xmlns:xlink="http://www.w3.org/1999/xlink" contentStyleType="text/css" height="982px" preserveAspectRatio="none" style="width:839px;height:982px;background:#FFFFFF;" version="1.1" viewBox="0 0 839 982" width="839px" zoomAndPan="magnify"><title>Object Input To FCAM Camera State Signal Flow</title><defs/><g><text fill="#000000" font-family="Arial" font-size="22" font-weight="bold" lengthAdjust="spacing" textLength="506.043" x="165.4238" y="35.9956">Object Input To FCAM Camera State Signal Flow</text><text fill="#000000" font-family="Arial" font-size="22" font-weight="bold" lengthAdjust="spacing" textLength="743.8213" x="46.5347" y="61.2935">(object/nav/path context -&gt; FCAM camera health and detection publish)</text><line style="stroke:#000000;stroke-width:1;" x1="68" x2="68" y1="116.8936" y2="938.5527"/><line style="stroke:#000000;stroke-width:1;" x1="195.6899" x2="195.6899" y1="116.8936" y2="938.5527"/><line style="stroke:#000000;stroke-width:1;" x1="610.4089" x2="610.4089" y1="116.8936" y2="938.5527"/><line style="stroke:#000000;stroke-width:1;" x1="755.853" x2="755.853" y1="116.8936" y2="938.5527"/><rect fill="#F4F7FB" height="39.2979" rx="2.5" ry="2.5" style="stroke:#000000;stroke-width:1;" width="83.6899" x="27" y="76.5957"/><text fill="#000000" font-family="Arial" font-size="11" lengthAdjust="spacing" textLength="69.6899" x="34" y="94.0935">Object / NAV /</text><text fill="#000000" font-family="Arial" font-size="11" lengthAdjust="spacing" textLength="59.9307" x="38.8796" y="106.7424">path context</text><rect fill="#F4F7FB" height="39.2979" rx="2.5" ry="2.5" style="stroke:#000000;stroke-width:1;" width="83.6899" x="27" y="937.5527"/><text fill="#000000" font-family="Arial" font-size="11" lengthAdjust="spacing" textLength="69.6899" x="34" y="955.0505">Object / NAV /</text><text fill="#000000" font-family="Arial" font-size="11" lengthAdjust="spacing" textLength="59.9307" x="38.8796" y="967.6995">path context</text><rect fill="#E8F7E8" height="39.2979" rx="2.5" ry="2.5" style="stroke:#000000;stroke-width:1;" width="110.5991" x="140.6899" y="76.5957"/><text fill="#000000" font-family="Arial" font-size="11" lengthAdjust="spacing" textLength="31.1631" x="180.408" y="94.0935">FCAM</text><text fill="#000000" font-family="Arial" font-size="11" lengthAdjust="spacing" textLength="96.5991" x="147.6899" y="106.7424">camera state owner</text><rect fill="#E8F7E8" height="39.2979" rx="2.5" ry="2.5" style="stroke:#000000;stroke-width:1;" width="110.5991" x="140.6899" y="937.5527"/><text fill="#000000" font-family="Arial" font-size="11" lengthAdjust="spacing" textLength="31.1631" x="180.408" y="955.0505">FCAM</text><text fill="#000000" font-family="Arial" font-size="11" lengthAdjust="spacing" textLength="96.5991" x="147.6899" y="967.6995">camera state owner</text><rect fill="#FFF4CC" height="26.6489" rx="2.5" ry="2.5" style="stroke:#000000;stroke-width:1;" width="100.8184" x="560.4089" y="89.2446"/><text fill="#000000" font-family="Arial" font-size="11" lengthAdjust="spacing" textLength="86.8184" x="567.4089" y="106.7424">Camera state bus</text><rect fill="#FFF4CC" height="26.6489" rx="2.5" ry="2.5" style="stroke:#000000;stroke-width:1;" width="100.8184" x="560.4089" y="937.5527"/><text fill="#000000" font-family="Arial" font-size="11" lengthAdjust="spacing" textLength="86.8184" x="567.4089" y="955.0505">Camera state bus</text><rect fill="#E8F0FE" height="26.6489" rx="2.5" ry="2.5" style="stroke:#000000;stroke-width:1;" width="124.0376" x="693.853" y="89.2446"/><text fill="#000000" font-family="Arial" font-size="11" lengthAdjust="spacing" textLength="110.0376" x="700.853" y="106.7424">Observers / pilot users</text><rect fill="#E8F0FE" height="26.6489" rx="2.5" ry="2.5" style="stroke:#000000;stroke-width:1;" width="124.0376" x="693.853" y="937.5527"/><text fill="#000000" font-family="Arial" font-size="11" lengthAdjust="spacing" textLength="110.0376" x="700.853" y="955.0505">Observers / pilot users</text><rect fill="#FFFFFF" height="3" style="stroke:#FFFFFF;stroke-width:1;" width="827.8906" x="5" y="146.218"/><line style="stroke:#000000;stroke-width:0.5;" x1="5" x2="832.8906" y1="146.218" y2="146.218"/><line style="stroke:#000000;stroke-width:0.5;" x1="5" x2="832.8906" y1="149.218" y2="149.218"/><rect fill="#FFFFFF" height="20.6489" style="stroke:#000000;stroke-width:1;" width="93.4653" x="372.2126" y="136.8936"/><text fill="#000000" font-family="Arial" font-size="11" font-weight="bold" lengthAdjust="spacing" textLength="76.4092" x="378.2126" y="151.3914">Camera Inputs</text><polygon fill="#000000" points="183.9895,245.436,193.9895,249.436,183.9895,253.436,187.9895,249.436" style="stroke:#000000;stroke-width:1;"/><line style="stroke:#000000;stroke-width:1;" x1="68.845" x2="189.9895" y1="249.436" y2="249.436"/><text fill="#000000" font-family="Arial" font-size="11" lengthAdjust="spacing" textLength="81.313" x="91.7607" y="182.0403">objectTrackValid</text><text fill="#000000" font-family="Arial" font-size="11" lengthAdjust="spacing" textLength="85.0029" x="89.9158" y="194.6892">objectConfidence</text><text fill="#000000" font-family="Arial" font-size="11" lengthAdjust="spacing" textLength="74.5938" x="95.1204" y="207.3381">navRouteClass</text><text fill="#000000" font-family="Arial" font-size="11" lengthAdjust="spacing" textLength="78.8906" x="92.9719" y="219.9871">objectInputStale</text><text fill="#000000" font-family="Arial" font-size="11" lengthAdjust="spacing" textLength="67.2729" x="98.7808" y="232.636">navInputStale</text><text fill="#000000" font-family="Arial" font-size="11" lengthAdjust="spacing" textLength="53.2061" x="105.8142" y="245.2849">pathReady</text><line style="stroke:#000000;stroke-width:1;" x1="195.9895" x2="237.9895" y1="288.7339" y2="288.7339"/><line style="stroke:#000000;stroke-width:1;" x1="237.9895" x2="237.9895" y1="288.7339" y2="301.7339"/><line style="stroke:#000000;stroke-width:1;" x1="196.9895" x2="237.9895" y1="301.7339" y2="301.7339"/><polygon fill="#000000" points="206.9895,297.7339,196.9895,301.7339,206.9895,305.7339,202.9895,301.7339" style="stroke:#000000;stroke-width:1;"/><text fill="#000000" font-family="Arial" font-size="11" lengthAdjust="spacing" textLength="111.9121" x="208.793" y="271.9338">if objectInputStale then</text><text fill="#000000" font-family="Arial" font-size="11" lengthAdjust="spacing" textLength="123.519" x="202.9895" y="284.5828">track = 0 / confidence = 0</text><line style="stroke:#000000;stroke-width:1;" x1="195.9895" x2="237.9895" y1="341.0317" y2="341.0317"/><line style="stroke:#000000;stroke-width:1;" x1="237.9895" x2="237.9895" y1="341.0317" y2="354.0317"/><line style="stroke:#000000;stroke-width:1;" x1="196.9895" x2="237.9895" y1="354.0317" y2="354.0317"/><polygon fill="#000000" points="206.9895,350.0317,196.9895,354.0317,206.9895,358.0317,202.9895,354.0317" style="stroke:#000000;stroke-width:1;"/><text fill="#000000" font-family="Arial" font-size="11" lengthAdjust="spacing" textLength="86.8398" x="218.426" y="324.2317">if pathReady == 0</text><text fill="#000000" font-family="Arial" font-size="11" lengthAdjust="spacing" textLength="117.7129" x="202.9895" y="336.8806">then navRouteClass = 0</text><line style="stroke:#000000;stroke-width:1;" x1="195.9895" x2="237.9895" y1="380.6807" y2="380.6807"/><line style="stroke:#000000;stroke-width:1;" x1="237.9895" x2="237.9895" y1="380.6807" y2="393.6807"/><line style="stroke:#000000;stroke-width:1;" x1="196.9895" x2="237.9895" y1="393.6807" y2="393.6807"/><polygon fill="#000000" points="206.9895,389.6807,196.9895,393.6807,206.9895,397.6807,202.9895,393.6807" style="stroke:#000000;stroke-width:1;"/><text fill="#000000" font-family="Arial" font-size="11" lengthAdjust="spacing" textLength="228.3574" x="202.9895" y="376.5295">objectDetected = clamp(objectTrackValid, 0, 1)</text><line style="stroke:#000000;stroke-width:1;" x1="195.9895" x2="237.9895" y1="420.3296" y2="420.3296"/><line style="stroke:#000000;stroke-width:1;" x1="237.9895" x2="237.9895" y1="420.3296" y2="433.3296"/><line style="stroke:#000000;stroke-width:1;" x1="196.9895" x2="237.9895" y1="433.3296" y2="433.3296"/><polygon fill="#000000" points="206.9895,429.3296,196.9895,433.3296,206.9895,437.3296,202.9895,433.3296" style="stroke:#000000;stroke-width:1;"/><text fill="#000000" font-family="Arial" font-size="11" lengthAdjust="spacing" textLength="400.8286" x="202.9895" y="416.1785">laneModelValid = calcLaneModelValid(navRouteClass, navInputStale, pathReady)</text><line style="stroke:#000000;stroke-width:1;" x1="195.9895" x2="237.9895" y1="497.9253" y2="497.9253"/><line style="stroke:#000000;stroke-width:1;" x1="237.9895" x2="237.9895" y1="497.9253" y2="510.9253"/><line style="stroke:#000000;stroke-width:1;" x1="196.9895" x2="237.9895" y1="510.9253" y2="510.9253"/><polygon fill="#000000" points="206.9895,506.9253,196.9895,510.9253,206.9895,514.9253,202.9895,510.9253" style="stroke:#000000;stroke-width:1;"/><text fill="#000000" font-family="Arial" font-size="11" lengthAdjust="spacing" textLength="77.9561" x="259.4102" y="455.8274">cameraHealth =</text><text fill="#000000" font-family="Arial" font-size="11" lengthAdjust="spacing" textLength="190.7974" x="202.9895" y="468.4763">0 if pathReady == 0 or objectInputStale</text><text fill="#000000" font-family="Arial" font-size="11" lengthAdjust="spacing" textLength="85.0029" x="255.8867" y="481.1252">1 if navInputStale</text><text fill="#000000" font-family="Arial" font-size="11" lengthAdjust="spacing" textLength="56.2515" x="270.2625" y="493.7742">2 otherwise</text><path d="M200,523.9253 L200,596.9253 L403,596.9253 L403,533.9253 L393,523.9253 L200,523.9253 " fill="#FFFFFF" style="stroke:#000000;stroke-width:1;"/><path d="M393,523.9253 L393,533.9253 L403,533.9253 L393,523.9253 " fill="#FFFFFF" style="stroke:#000000;stroke-width:1;"/><text fill="#000000" font-family="Arial" font-size="11" lengthAdjust="spacing" textLength="139.4229" x="206" y="539.4231">Representative gating inputs</text><text fill="#000000" font-family="Arial" font-size="11" lengthAdjust="spacing" textLength="182.2036" x="206" y="552.072">- objectTrackValid / objectConfidence</text><text fill="#000000" font-family="Arial" font-size="11" lengthAdjust="spacing" textLength="81.313" x="206" y="564.7209">- navRouteClass</text><text fill="#000000" font-family="Arial" font-size="11" lengthAdjust="spacing" textLength="162.0513" x="206" y="577.3699">- objectInputStale / navInputStale</text><text fill="#000000" font-family="Arial" font-size="11" lengthAdjust="spacing" textLength="59.9253" x="206" y="590.0188">- pathReady</text><rect fill="#FFFFFF" height="3" style="stroke:#FFFFFF;stroke-width:1;" width="827.8906" x="5" y="621.4944"/><line style="stroke:#000000;stroke-width:0.5;" x1="5" x2="832.8906" y1="621.4944" y2="621.4944"/><line style="stroke:#000000;stroke-width:0.5;" x1="5" x2="832.8906" y1="624.4944" y2="624.4944"/><rect fill="#FFFFFF" height="20.6489" style="stroke:#000000;stroke-width:1;" width="100.1953" x="368.8477" y="612.1699"/><text fill="#000000" font-family="Arial" font-size="11" font-weight="bold" lengthAdjust="spacing" textLength="83.1392" x="374.8477" y="626.6677">Camera Publish</text><polygon fill="#000000" points="598.8181,670.1167,608.8181,674.1167,598.8181,678.1167,602.8181,674.1167" style="stroke:#000000;stroke-width:1;"/><line style="stroke:#000000;stroke-width:1;" x1="195.9895" x2="604.8181" y1="674.1167" y2="674.1167"/><text fill="#000000" font-family="Arial" font-size="11" lengthAdjust="spacing" textLength="88.6284" x="359.0896" y="657.3167">frmFcamInputMsg</text><text fill="#000000" font-family="Arial" font-size="11" lengthAdjust="spacing" textLength="308.7842" x="249.0117" y="669.9656">CameraHealth / ObjectDetected / LaneModelValid / Confidence</text><path d="M200,687.1167 L200,760.1167 L334,760.1167 L334,697.1167 L324,687.1167 L200,687.1167 " fill="#FFFFFF" style="stroke:#000000;stroke-width:1;"/><path d="M324,687.1167 L324,697.1167 L334,697.1167 L324,687.1167 " fill="#FFFFFF" style="stroke:#000000;stroke-width:1;"/><text fill="#000000" font-family="Arial" font-size="11" lengthAdjust="spacing" textLength="113.126" x="206" y="702.6145">Representative outputs</text><text fill="#000000" font-family="Arial" font-size="11" lengthAdjust="spacing" textLength="77.6392" x="206" y="715.2634">- CameraHealth</text><text fill="#000000" font-family="Arial" font-size="11" lengthAdjust="spacing" textLength="82.5376" x="206" y="727.9124">- ObjectDetected</text><text fill="#000000" font-family="Arial" font-size="11" lengthAdjust="spacing" textLength="85.6099" x="206" y="740.5613">- LaneModelValid</text><text fill="#000000" font-family="Arial" font-size="11" lengthAdjust="spacing" textLength="62.3691" x="206" y="753.2102">- Confidence</text><rect fill="#FFFFFF" height="3" style="stroke:#FFFFFF;stroke-width:1;" width="827.8906" x="5" y="784.6858"/><line style="stroke:#000000;stroke-width:0.5;" x1="5" x2="832.8906" y1="784.6858" y2="784.6858"/><line style="stroke:#000000;stroke-width:0.5;" x1="5" x2="832.8906" y1="787.6858" y2="787.6858"/><rect fill="#FFFFFF" height="20.6489" style="stroke:#000000;stroke-width:1;" width="131.3638" x="353.2634" y="775.3613"/><text fill="#000000" font-family="Arial" font-size="11" font-weight="bold" lengthAdjust="spacing" textLength="114.3076" x="359.2634" y="789.8591">Downstream Visibility</text><polygon fill="#000000" points="743.8718,833.3081,753.8718,837.3081,743.8718,841.3081,747.8718,837.3081" style="stroke:#000000;stroke-width:1;"/><line style="stroke:#000000;stroke-width:1;" x1="610.8181" x2="749.8718" y1="837.3081" y2="837.3081"/><text fill="#000000" font-family="Arial" font-size="11" lengthAdjust="spacing" textLength="118.6099" x="624.04" y="820.5081">camera-state readback /</text><text fill="#000000" font-family="Arial" font-size="11" lengthAdjust="spacing" textLength="121.0537" x="622.8181" y="833.157">highway-pilot consumers</text><path d="M10,850.3081 L10,923.3081 L815,923.3081 L815,860.3081 L805,850.3081 L10,850.3081 " fill="#FFFFFF" style="stroke:#000000;stroke-width:1;"/><path d="M805,850.3081 L805,860.3081 L815,860.3081 L805,850.3081 " fill="#FFFFFF" style="stroke:#000000;stroke-width:1;"/><text fill="#000000" font-family="Arial" font-size="11" lengthAdjust="spacing" textLength="143.0752" x="243.0505" y="865.8059">Representative runtime chain</text><text fill="#000000" font-family="Arial" font-size="11" lengthAdjust="spacing" textLength="224.9951" x="243.0505" y="878.4548">1. Object, NAV, and path context reach FCAM</text><text fill="#000000" font-family="Arial" font-size="11" lengthAdjust="spacing" textLength="240.2866" x="243.0505" y="891.1038">2. FCAM normalizes stale and no-path conditions</text><text fill="#000000" font-family="Arial" font-size="11" lengthAdjust="spacing" textLength="330.7896" x="243.0505" y="903.7527">3. FCAM publishes camera health, detection, and lane-model status</text><text fill="#000000" font-family="Arial" font-size="11" lengthAdjust="spacing" textLength="313.0435" x="243.0505" y="916.4016">4. Pilot users and observers consume the effective camera state</text><!--SRC=[XLLHJzim47xthxZ12qWfRHaI2AcJIY3Qf9KXG3prnKskZOThPxP31xz-PpjjaXPfVQbgttTtt-UxhrzSYMk4IdAXc7qLgkA6hs71yzULqRKgKYsrWUCiV3eH1IvvBLscbRldb65g19UVtp-93uJnk7DfyK-DAiSPMijNE9LYfI17vT1qeWpQIYkxZRf1gJTJO_G6dAcHCIUSHFYr-8svWn-ggXqyQyZIwGnIQibmU7BS8JnHTYuX8_XSdUWGFrJyRLXnLq9E7U9V1uDl4Pf7Q8bSqYrN1L5nX11QGLKlfB3bAMFKeHEvgBXoSDIqC8JxwGiCvwgRzmYuRTf9tLyIyYAxp6xwU5zthfh2DlIiDmfDm8QcZk-kiikxgpuixG8MjUsKkgbjUBEBDDrlrQ9vGsEfsqf8xQ2cWmYbkr1ebDqnDfbiHGpAMfXC66jvRDMwXgZdiw69UU5I57CLJrAjbgBmhpnN9FQZhXscabkx3GXvwOLa3EZ-z08-8Y_UMIZI5XDBs0S3JR2QA-SRW0cCY5Y-A-qFFicnoq-iO4HWIW6z9Zy3nigtOHgme8XSydLriYz00gC4ngVxQCaLpdI1CWHvD9VvpzxXIQ-517gg96tN1xdZw7oF8pkPgz4XIQ0jFjHzx0Ftn3y7JNgOZR38bARHCc9LEj3BK8qzOaMBIRlAdNX3MD6NMe48Gy861-D0px4_3nJL8xf3THvrsE-AGjgPGDf9trXtI1_YPeOftOhJhi8rBCqw8vL2nfbTpLNQbMpOkCZkROVGVnawwFJ_VrM8MwD7jmxzxDUXWtuT3sZhz8ZUaYLOPv2CyKLOiH1IkFVELdgUHDelyNOW1j4Q25DuG_VML5BN6_u-YBjFYs9hYhGiSjBa3ArP9JxPFZDJAoV8x_FI_sECpnf6YVU-9DXbprMfTbv6YSxFuhWgRTR4zGEjjovwQnve3hQuGdYljUnh4z-OBeNth3bfVJdMzGisM7ifWoNMbbsSmKFhSI58x_oluUxj0t2vz9c8NjU4M_t_0G00]--></g></svg>