<svg xmlns="http://www.w3.org/2000/svg" xmlns:xlink="http://www.w3.org/1999/xlink" contentStyleType="text/css" height="919px" preserveAspectRatio="none" style="width:913px;height:919px;background:#FFFFFF;" version="1.1" viewBox="0 0 913 919" width="913px" zoomAndPan="magnify"><title>Object Risk To FCA Request Signal Flow</title><defs/><g><text fill="#000000" font-family="Arial" font-size="22" font-weight="bold" lengthAdjust="spacing" textLength="426.6045" x="242.1337" y="35.9956">Object Risk To FCA Request Signal Flow</text><text fill="#000000" font-family="Arial" font-size="22" font-weight="bold" lengthAdjust="spacing" textLength="628.2998" x="141.286" y="61.2935">(object risk + decel intent -&gt; FCA FCW/AEB request publish)</text><line style="stroke:#000000;stroke-width:1;" x1="91" x2="91" y1="116.8936" y2="874.957"/><line style="stroke:#000000;stroke-width:1;" x1="239.3584" x2="239.3584" y1="116.8936" y2="874.957"/><line style="stroke:#000000;stroke-width:1;" x1="630.3367" x2="630.3367" y1="116.8936" y2="874.957"/><line style="stroke:#000000;stroke-width:1;" x1="797.032" x2="797.032" y1="116.8936" y2="874.957"/><rect fill="#F4F7FB" height="39.2979" rx="2.5" ry="2.5" style="stroke:#000000;stroke-width:1;" width="109.3584" x="37" y="76.5957"/><text fill="#000000" font-family="Arial" font-size="11" lengthAdjust="spacing" textLength="95.3584" x="44" y="94.0935">ADAS / object-risk /</text><text fill="#000000" font-family="Arial" font-size="11" lengthAdjust="spacing" textLength="58.7061" x="62.3262" y="106.7424">decel inputs</text><rect fill="#F4F7FB" height="39.2979" rx="2.5" ry="2.5" style="stroke:#000000;stroke-width:1;" width="109.3584" x="37" y="873.957"/><text fill="#000000" font-family="Arial" font-size="11" lengthAdjust="spacing" textLength="95.3584" x="44" y="891.4548">ADAS / object-risk /</text><text fill="#000000" font-family="Arial" font-size="11" lengthAdjust="spacing" textLength="58.7061" x="62.3262" y="904.1038">decel inputs</text><rect fill="#E8F7E8" height="39.2979" rx="2.5" ry="2.5" style="stroke:#000000;stroke-width:1;" width="127.7222" x="176.3584" y="76.5957"/><text fill="#000000" font-family="Arial" font-size="11" lengthAdjust="spacing" textLength="22" x="229.2195" y="94.0935">FCA</text><text fill="#000000" font-family="Arial" font-size="11" lengthAdjust="spacing" textLength="113.7222" x="183.3584" y="106.7424">collision warning owner</text><rect fill="#E8F7E8" height="39.2979" rx="2.5" ry="2.5" style="stroke:#000000;stroke-width:1;" width="127.7222" x="176.3584" y="873.957"/><text fill="#000000" font-family="Arial" font-size="11" lengthAdjust="spacing" textLength="22" x="229.2195" y="891.4548">FCA</text><text fill="#000000" font-family="Arial" font-size="11" lengthAdjust="spacing" textLength="113.7222" x="183.3584" y="904.1038">collision warning owner</text><rect fill="#FFF4CC" height="26.6489" rx="2.5" ry="2.5" style="stroke:#000000;stroke-width:1;" width="83.6953" x="589.3367" y="89.2446"/><text fill="#000000" font-family="Arial" font-size="11" lengthAdjust="spacing" textLength="69.6953" x="596.3367" y="106.7424">FCA state bus</text><rect fill="#FFF4CC" height="26.6489" rx="2.5" ry="2.5" style="stroke:#000000;stroke-width:1;" width="83.6953" x="589.3367" y="873.957"/><text fill="#000000" font-family="Arial" font-size="11" lengthAdjust="spacing" textLength="69.6953" x="596.3367" y="891.4548">FCA state bus</text><rect fill="#E8F0FE" height="26.6489" rx="2.5" ry="2.5" style="stroke:#000000;stroke-width:1;" width="188.8398" x="703.032" y="89.2446"/><text fill="#000000" font-family="Arial" font-size="11" lengthAdjust="spacing" textLength="174.8398" x="710.032" y="106.7424">Observers / downstream AEB users</text><rect fill="#E8F0FE" height="26.6489" rx="2.5" ry="2.5" style="stroke:#000000;stroke-width:1;" width="188.8398" x="703.032" y="873.957"/><text fill="#000000" font-family="Arial" font-size="11" lengthAdjust="spacing" textLength="174.8398" x="710.032" y="891.4548">Observers / downstream AEB users</text><rect fill="#FFFFFF" height="3" style="stroke:#FFFFFF;stroke-width:1;" width="901.8718" x="5" y="146.218"/><line style="stroke:#000000;stroke-width:0.5;" x1="5" x2="906.8718" y1="146.218" y2="146.218"/><line style="stroke:#000000;stroke-width:0.5;" x1="5" x2="906.8718" y1="149.218" y2="149.218"/><rect fill="#FFFFFF" height="20.6489" style="stroke:#000000;stroke-width:1;" width="76.3423" x="417.7648" y="136.8936"/><text fill="#000000" font-family="Arial" font-size="11" font-weight="bold" lengthAdjust="spacing" textLength="59.2861" x="423.7648" y="151.3914">Risk Inputs</text><polygon fill="#000000" points="228.2195,232.7871,238.2195,236.7871,228.2195,240.7871,232.2195,236.7871" style="stroke:#000000;stroke-width:1;"/><line style="stroke:#000000;stroke-width:1;" x1="91.6792" x2="234.2195" y1="236.7871" y2="236.7871"/><text fill="#000000" font-family="Arial" font-size="11" lengthAdjust="spacing" textLength="81.313" x="125.2928" y="182.0403">objectTrackValid</text><text fill="#000000" font-family="Arial" font-size="11" lengthAdjust="spacing" textLength="78.2461" x="126.8263" y="194.6892">objectRiskClass</text><text fill="#000000" font-family="Arial" font-size="11" lengthAdjust="spacing" textLength="62.353" x="134.7728" y="207.3381">objectTtcMin</text><text fill="#000000" font-family="Arial" font-size="11" lengthAdjust="spacing" textLength="75.813" x="128.0428" y="219.9871">decelAssistReq</text><text fill="#000000" font-family="Arial" font-size="11" lengthAdjust="spacing" textLength="64.2061" x="133.8463" y="232.636">failSafeMode</text><line style="stroke:#000000;stroke-width:1;" x1="240.2195" x2="282.2195" y1="276.085" y2="276.085"/><line style="stroke:#000000;stroke-width:1;" x1="282.2195" x2="282.2195" y1="276.085" y2="289.085"/><line style="stroke:#000000;stroke-width:1;" x1="241.2195" x2="282.2195" y1="289.085" y2="289.085"/><polygon fill="#000000" points="251.2195,285.085,241.2195,289.085,251.2195,293.085,247.2195,289.085" style="stroke:#000000;stroke-width:1;"/><text fill="#000000" font-family="Arial" font-size="11" lengthAdjust="spacing" textLength="99.666" x="300.4041" y="259.2849">if riskInputStale then</text><text fill="#000000" font-family="Arial" font-size="11" lengthAdjust="spacing" textLength="206.0352" x="247.2195" y="271.9338">objectTrackValid = 0 / objectRiskClass = 0</text><line style="stroke:#000000;stroke-width:1;" x1="240.2195" x2="282.2195" y1="328.3828" y2="328.3828"/><line style="stroke:#000000;stroke-width:1;" x1="282.2195" x2="282.2195" y1="328.3828" y2="341.3828"/><line style="stroke:#000000;stroke-width:1;" x1="241.2195" x2="282.2195" y1="341.3828" y2="341.3828"/><polygon fill="#000000" points="251.2195,337.3828,241.2195,341.3828,251.2195,345.3828,247.2195,341.3828" style="stroke:#000000;stroke-width:1;"/><text fill="#000000" font-family="Arial" font-size="11" lengthAdjust="spacing" textLength="189.5674" x="247.2195" y="311.5828">if decelInputStale or failSafeMode &gt;= 2</text><text fill="#000000" font-family="Arial" font-size="11" lengthAdjust="spacing" textLength="118.9321" x="282.5371" y="324.2317">then decelAssistReq = 0</text><line style="stroke:#000000;stroke-width:1;" x1="240.2195" x2="282.2195" y1="368.0317" y2="368.0317"/><line style="stroke:#000000;stroke-width:1;" x1="282.2195" x2="282.2195" y1="368.0317" y2="381.0317"/><line style="stroke:#000000;stroke-width:1;" x1="241.2195" x2="282.2195" y1="381.0317" y2="381.0317"/><polygon fill="#000000" points="251.2195,377.0317,241.2195,381.0317,251.2195,385.0317,247.2195,381.0317" style="stroke:#000000;stroke-width:1;"/><text fill="#000000" font-family="Arial" font-size="11" lengthAdjust="spacing" textLength="136.6245" x="247.2195" y="363.8806">fcwState = calcFcwState(...)</text><line style="stroke:#000000;stroke-width:1;" x1="240.2195" x2="282.2195" y1="420.3296" y2="420.3296"/><line style="stroke:#000000;stroke-width:1;" x1="282.2195" x2="282.2195" y1="420.3296" y2="433.3296"/><line style="stroke:#000000;stroke-width:1;" x1="241.2195" x2="282.2195" y1="433.3296" y2="433.3296"/><polygon fill="#000000" points="251.2195,429.3296,241.2195,433.3296,251.2195,437.3296,247.2195,433.3296" style="stroke:#000000;stroke-width:1;"/><text fill="#000000" font-family="Arial" font-size="11" lengthAdjust="spacing" textLength="68.8037" x="401.3" y="403.5295">aebRequest =</text><text fill="#000000" font-family="Arial" font-size="11" lengthAdjust="spacing" textLength="376.9648" x="247.2195" y="416.1785">(decelAssistReq == 1 and objectRiskClass &gt;= 4 and failSafeMode &lt; 2) ? 1 : 0</text><path d="M245,446.3296 L245,519.3296 L421,519.3296 L421,456.3296 L411,446.3296 L245,446.3296 " fill="#FFFFFF" style="stroke:#000000;stroke-width:1;"/><path d="M411,446.3296 L411,456.3296 L421,456.3296 L411,446.3296 " fill="#FFFFFF" style="stroke:#000000;stroke-width:1;"/><text fill="#000000" font-family="Arial" font-size="11" lengthAdjust="spacing" textLength="139.4229" x="251" y="461.8274">Representative gating inputs</text><text fill="#000000" font-family="Arial" font-size="11" lengthAdjust="spacing" textLength="88.0322" x="251" y="474.4763">- objectTrackValid</text><text fill="#000000" font-family="Arial" font-size="11" lengthAdjust="spacing" textLength="84.9653" x="251" y="487.1252">- objectRiskClass</text><text fill="#000000" font-family="Arial" font-size="11" lengthAdjust="spacing" textLength="69.0723" x="251" y="499.7742">- objectTtcMin</text><text fill="#000000" font-family="Arial" font-size="11" lengthAdjust="spacing" textLength="155.9067" x="251" y="512.4231">- decelAssistReq / failSafeMode</text><rect fill="#FFFFFF" height="3" style="stroke:#FFFFFF;stroke-width:1;" width="901.8718" x="5" y="543.8987"/><line style="stroke:#000000;stroke-width:0.5;" x1="5" x2="906.8718" y1="543.8987" y2="543.8987"/><line style="stroke:#000000;stroke-width:0.5;" x1="5" x2="906.8718" y1="546.8987" y2="546.8987"/><rect fill="#FFFFFF" height="20.6489" style="stroke:#000000;stroke-width:1;" width="82.4438" x="414.714" y="534.5742"/><text fill="#000000" font-family="Arial" font-size="11" font-weight="bold" lengthAdjust="spacing" textLength="65.3877" x="420.714" y="549.072">FCA Publish</text><polygon fill="#000000" points="619.1843,592.521,629.1843,596.521,619.1843,600.521,623.1843,596.521" style="stroke:#000000;stroke-width:1;"/><line style="stroke:#000000;stroke-width:1;" x1="240.2195" x2="625.1843" y1="596.521" y2="596.521"/><text fill="#000000" font-family="Arial" font-size="11" lengthAdjust="spacing" textLength="80.6846" x="395.3596" y="579.7209">frmFcaStateMsg</text><text fill="#000000" font-family="Arial" font-size="11" lengthAdjust="spacing" textLength="202.3667" x="334.5186" y="592.3699">FcwState / AebRequest / DecelAssistReq</text><polygon fill="#000000" points="619.1843,619.1699,629.1843,623.1699,619.1843,627.1699,623.1843,623.1699" style="stroke:#000000;stroke-width:1;"/><line style="stroke:#000000;stroke-width:1;" x1="240.2195" x2="625.1843" y1="623.1699" y2="623.1699"/><text fill="#000000" font-family="Arial" font-size="11" lengthAdjust="spacing" textLength="239.6475" x="315.8782" y="619.0188">ObjectRiskClass / TtcBucket / SelectedAlertLevel</text><path d="M245,636.1699 L245,696.1699 L379,696.1699 L379,646.1699 L369,636.1699 L245,636.1699 " fill="#FFFFFF" style="stroke:#000000;stroke-width:1;"/><path d="M369,636.1699 L369,646.1699 L379,646.1699 L369,636.1699 " fill="#FFFFFF" style="stroke:#000000;stroke-width:1;"/><text fill="#000000" font-family="Arial" font-size="11" lengthAdjust="spacing" textLength="113.126" x="251" y="651.6677">Representative outputs</text><text fill="#000000" font-family="Arial" font-size="11" lengthAdjust="spacing" textLength="52.5669" x="251" y="664.3167">- FcwState</text><text fill="#000000" font-family="Arial" font-size="11" lengthAdjust="spacing" textLength="67.2622" x="251" y="676.9656">- AebRequest</text><text fill="#000000" font-family="Arial" font-size="11" lengthAdjust="spacing" textLength="98.4414" x="251" y="689.6145">- SelectedAlertLevel</text><rect fill="#FFFFFF" height="3" style="stroke:#FFFFFF;stroke-width:1;" width="901.8718" x="5" y="721.0901"/><line style="stroke:#000000;stroke-width:0.5;" x1="5" x2="906.8718" y1="721.0901" y2="721.0901"/><line style="stroke:#000000;stroke-width:0.5;" x1="5" x2="906.8718" y1="724.0901" y2="724.0901"/><rect fill="#FFFFFF" height="20.6489" style="stroke:#000000;stroke-width:1;" width="131.3638" x="390.254" y="711.7656"/><text fill="#000000" font-family="Arial" font-size="11" font-weight="bold" lengthAdjust="spacing" textLength="114.3076" x="396.254" y="726.2634">Downstream Visibility</text><polygon fill="#000000" points="785.4519,769.7124,795.4519,773.7124,785.4519,777.7124,789.4519,773.7124" style="stroke:#000000;stroke-width:1;"/><line style="stroke:#000000;stroke-width:1;" x1="631.1843" x2="791.4519" y1="773.7124" y2="773.7124"/><text fill="#000000" font-family="Arial" font-size="11" lengthAdjust="spacing" textLength="135.7329" x="646.4517" y="756.9124">collision-warning readback /</text><text fill="#000000" font-family="Arial" font-size="11" lengthAdjust="spacing" textLength="115.5591" x="656.5386" y="769.5613">aeb-request consumers</text><path d="M10,786.7124 L10,859.7124 L879,859.7124 L879,796.7124 L869,786.7124 L10,786.7124 " fill="#FFFFFF" style="stroke:#000000;stroke-width:1;"/><path d="M869,786.7124 L869,796.7124 L879,796.7124 L869,786.7124 " fill="#FFFFFF" style="stroke:#000000;stroke-width:1;"/><text fill="#000000" font-family="Arial" font-size="11" lengthAdjust="spacing" textLength="143.0752" x="261.9061" y="802.2102">Representative runtime chain</text><text fill="#000000" font-family="Arial" font-size="11" lengthAdjust="spacing" textLength="201.1475" x="261.9061" y="814.8591">1. Object-risk and decel intent reach FCA</text><text fill="#000000" font-family="Arial" font-size="11" lengthAdjust="spacing" textLength="309.9766" x="261.9061" y="827.5081">2. FCA decides FCW state and whether AEB request is allowed</text><text fill="#000000" font-family="Arial" font-size="11" lengthAdjust="spacing" textLength="280.6504" x="261.9061" y="840.157">3. FCA publishes collision warning and AEB request state</text><text fill="#000000" font-family="Arial" font-size="11" lengthAdjust="spacing" textLength="357.0596" x="261.9061" y="852.8059">4. Downstream consumers observe the effective collision request posture</text><!--SRC=[XLJVRzem47xFNt5hNrPjGEcGMbLBfq29D6ciKwdQ5rwCSm4FOpFRATl- -fsT7oHGQRoGn7VVVVVvxdldrhX5s4acL6GtGksOOLjOChvP6LseRAAbDd2UXbyh8iES5TAbMhdlZ10I8vXy-tmk_Y8CXwr3YxyAL1ndQ2rROIB5IW57vT2qeWpQdLQsZXgZrFl46Bq7PmgC8YUSH7XO_aJku57O3JnfI2S9F7fuws1Ei4n2IdaBzLwNWSO7VY1-72K8AgaSzEv2NZfv6IJJCHKkytV5KWgxleWY8kG45pj6mMV9VJA70PHulO0tMAWQS5SuUmRC1aOJzvkq6wNNwRYBGUKMYcj9-48hs3EZX5g1tYiq8TlpEP_UfDVJcvDCi8uvX6LH5aev6nSstD5eCkb6FomjcbSqbWXdX6wTGPBMTrdGIGb0GQ7MPJgDeZWkjVmQEe4uZgAwaqgcswhr9qDJyioao1Qg_1829REs_l3a-4oeIfp4Mc4TNSv2vKp8ESjnfZECF6O3BV9mGw7wt36wO9fGrU0r9I66o-OIchh-wmbUADu2f7bkruUx6AuMofU1BizJj9plvq7x63YJFArUt_Vx_Ojk9CDbFOOn3TynS0n3O2exuKzSHk6Wm_0pN5t05qgv9K9AKtqZLci7ElVLeaVSqQxG83CdNX5Mz4UpL8vYr3kvhUPJK_OG5EwBNe_u3Zfy8YI2daQO5j_lZt9JmhJKCfHJIPgPBJq7dMPsjL2rQ0IQ74GQm7sdv0dCmv5I0o2ouu9lq2VFKT8fPeb4uxxXAyh_wwGBLobKKwB70oLwUGErq_hzOQEUQP6NGWhtfnIXf4qD-EMwXMRLU_MgKrRcRTPx1mrBhpOTJfPNR6arex83JTjRUyb7ZtRSXYcK4-J0VEqzVDYlb2gDoOzIn-geB5y7DQxwuUheL6Je3UUbyXMViryZBOI1jXqA2qoIbs8MVIfpAuEax5ChyoZjx80TZVfjqPfUQVo2J_bb1ynpukzREw0sbgojAqnh0ly1]--></g></svg>