<svg xmlns="http://www.w3.org/2000/svg" xmlns:xlink="http://www.w3.org/1999/xlink" contentStyleType="text/css" height="1457px" preserveAspectRatio="none" style="width:1840px;height:1457px;background:#FFFFFF;" version="1.1" viewBox="0 0 1840 1457" width="1840px" zoomAndPan="magnify"><title>Object To AEB Request Signal Flow</title><defs/><g><text fill="#000000" font-family="Arial" font-size="22" font-weight="bold" lengthAdjust="spacing" textLength="375.2568" x="731.2397" y="35.9956">Object To AEB Request Signal Flow</text><text fill="#000000" font-family="Arial" font-size="22" font-weight="bold" lengthAdjust="spacing" textLength="553.0938" x="642.3213" y="61.2935">(FRADAR / ADAS -&gt; FCA -&gt; AEB -&gt; ESC / EHB / VSM)</text><rect fill="#FFFFFF" height="59.2979" style="stroke:#000000;stroke-width:1;" width="10" x="68.1592" y="126.8936"/><rect fill="#FFFFFF" height="211.8936" style="stroke:#000000;stroke-width:1;" width="10" x="331.3496" y="186.1914"/><rect fill="#FFFFFF" height="269.1382" style="stroke:#000000;stroke-width:1;" width="10" x="485.6733" y="398.085"/><rect fill="#FFFFFF" height="309.7871" style="stroke:#000000;stroke-width:1;" width="10" x="855.6782" y="667.2231"/><rect fill="#FFFFFF" height="183.1914" style="stroke:#000000;stroke-width:1;" width="10" x="1171.8271" y="977.0103"/><rect fill="#FFFFFF" height="64.2979" style="stroke:#000000;stroke-width:1;" width="10" x="1392.0054" y="1162.2017"/><rect fill="#FFFFFF" height="64.2979" style="stroke:#000000;stroke-width:1;" width="10" x="1633.9097" y="1228.4995"/><line style="stroke:#000000;stroke-width:1;" x1="73" x2="73" y1="116.8936" y2="1413.6909"/><line style="stroke:#000000;stroke-width:1;" x1="336.0835" x2="336.0835" y1="116.8936" y2="1413.6909"/><line style="stroke:#000000;stroke-width:1;" x1="490.1799" x2="490.1799" y1="116.8936" y2="1413.6909"/><line style="stroke:#000000;stroke-width:1;" x1="860.6125" x2="860.6125" y1="116.8936" y2="1413.6909"/><line style="stroke:#000000;stroke-width:1;" x1="1176.3337" x2="1176.3337" y1="116.8936" y2="1413.6909"/><line style="stroke:#000000;stroke-width:1;" x1="1396.2004" x2="1396.2004" y1="116.8936" y2="1413.6909"/><line style="stroke:#000000;stroke-width:1;" x1="1638.062" x2="1638.062" y1="116.8936" y2="1413.6909"/><rect fill="#E8F7E8" height="39.2979" rx="2.5" ry="2.5" style="stroke:#000000;stroke-width:1;" width="106.3184" x="20" y="76.5957"/><text fill="#000000" font-family="Arial" font-size="11" lengthAdjust="spacing" textLength="45.2246" x="50.5469" y="94.0935">FRADAR</text><text fill="#000000" font-family="Arial" font-size="11" lengthAdjust="spacing" textLength="92.3184" x="27" y="106.7424">object track source</text><rect fill="#E8F7E8" height="39.2979" rx="2.5" ry="2.5" style="stroke:#000000;stroke-width:1;" width="106.3184" x="20" y="1412.6909"/><text fill="#000000" font-family="Arial" font-size="11" lengthAdjust="spacing" textLength="45.2246" x="50.5469" y="1430.1887">FRADAR</text><text fill="#000000" font-family="Arial" font-size="11" lengthAdjust="spacing" textLength="92.3184" x="27" y="1442.8376">object track source</text><rect fill="#FCE8FF" height="39.2979" rx="2.5" ry="2.5" style="stroke:#000000;stroke-width:1;" width="96.5322" x="288.0835" y="76.5957"/><text fill="#000000" font-family="Arial" font-size="11" lengthAdjust="spacing" textLength="29.9546" x="321.3723" y="94.0935">ADAS</text><text fill="#000000" font-family="Arial" font-size="11" lengthAdjust="spacing" textLength="82.5322" x="295.0835" y="106.7424">object risk owner</text><rect fill="#FCE8FF" height="39.2979" rx="2.5" ry="2.5" style="stroke:#000000;stroke-width:1;" width="96.5322" x="288.0835" y="1412.6909"/><text fill="#000000" font-family="Arial" font-size="11" lengthAdjust="spacing" textLength="29.9546" x="321.3723" y="1430.1887">ADAS</text><text fill="#000000" font-family="Arial" font-size="11" lengthAdjust="spacing" textLength="82.5322" x="295.0835" y="1442.8376">object risk owner</text><rect fill="#FFF4CC" height="39.2979" rx="2.5" ry="2.5" style="stroke:#000000;stroke-width:1;" width="142.9868" x="419.1799" y="76.5957"/><text fill="#000000" font-family="Arial" font-size="11" lengthAdjust="spacing" textLength="22" x="479.6733" y="94.0935">FCA</text><text fill="#000000" font-family="Arial" font-size="11" lengthAdjust="spacing" textLength="128.9868" x="426.1799" y="106.7424">FCW / AEB request owner</text><rect fill="#FFF4CC" height="39.2979" rx="2.5" ry="2.5" style="stroke:#000000;stroke-width:1;" width="142.9868" x="419.1799" y="1412.6909"/><text fill="#000000" font-family="Arial" font-size="11" lengthAdjust="spacing" textLength="22" x="479.6733" y="1430.1887">FCA</text><text fill="#000000" font-family="Arial" font-size="11" lengthAdjust="spacing" textLength="128.9868" x="426.1799" y="1442.8376">FCW / AEB request owner</text><rect fill="#FFE6E6" height="39.2979" rx="2.5" ry="2.5" style="stroke:#000000;stroke-width:1;" width="138.1313" x="791.6125" y="76.5957"/><text fill="#000000" font-family="Arial" font-size="11" lengthAdjust="spacing" textLength="22.0107" x="849.6729" y="94.0935">AEB</text><text fill="#000000" font-family="Arial" font-size="11" lengthAdjust="spacing" textLength="124.1313" x="798.6125" y="106.7424">autonomous brake owner</text><rect fill="#FFE6E6" height="39.2979" rx="2.5" ry="2.5" style="stroke:#000000;stroke-width:1;" width="138.1313" x="791.6125" y="1412.6909"/><text fill="#000000" font-family="Arial" font-size="11" lengthAdjust="spacing" textLength="22.0107" x="849.6729" y="1430.1887">AEB</text><text fill="#000000" font-family="Arial" font-size="11" lengthAdjust="spacing" textLength="124.1313" x="798.6125" y="1442.8376">autonomous brake owner</text><rect fill="#FFE6E6" height="39.2979" rx="2.5" ry="2.5" style="stroke:#000000;stroke-width:1;" width="98.9868" x="1127.3337" y="76.5957"/><text fill="#000000" font-family="Arial" font-size="11" lengthAdjust="spacing" textLength="22.6177" x="1165.5183" y="94.0935">ESC</text><text fill="#000000" font-family="Arial" font-size="11" lengthAdjust="spacing" textLength="84.9868" x="1134.3337" y="106.7424">brake floor owner</text><rect fill="#FFE6E6" height="39.2979" rx="2.5" ry="2.5" style="stroke:#000000;stroke-width:1;" width="98.9868" x="1127.3337" y="1412.6909"/><text fill="#000000" font-family="Arial" font-size="11" lengthAdjust="spacing" textLength="22.6177" x="1165.5183" y="1430.1887">ESC</text><text fill="#000000" font-family="Arial" font-size="11" lengthAdjust="spacing" textLength="84.9868" x="1134.3337" y="1442.8376">brake floor owner</text><rect fill="#FFF4CC" height="39.2979" rx="2.5" ry="2.5" style="stroke:#000000;stroke-width:1;" width="121.6099" x="1336.2004" y="76.5957"/><text fill="#000000" font-family="Arial" font-size="11" lengthAdjust="spacing" textLength="22.6177" x="1385.6965" y="94.0935">EHB</text><text fill="#000000" font-family="Arial" font-size="11" lengthAdjust="spacing" textLength="107.6099" x="1343.2004" y="106.7424">hydraulic brake owner</text><rect fill="#FFF4CC" height="39.2979" rx="2.5" ry="2.5" style="stroke:#000000;stroke-width:1;" width="121.6099" x="1336.2004" y="1412.6909"/><text fill="#000000" font-family="Arial" font-size="11" lengthAdjust="spacing" textLength="22.6177" x="1385.6965" y="1430.1887">EHB</text><text fill="#000000" font-family="Arial" font-size="11" lengthAdjust="spacing" textLength="107.6099" x="1343.2004" y="1442.8376">hydraulic brake owner</text><rect fill="#FCE8FF" height="39.2979" rx="2.5" ry="2.5" style="stroke:#000000;stroke-width:1;" width="83.6953" x="1597.062" y="76.5957"/><text fill="#000000" font-family="Arial" font-size="11" lengthAdjust="spacing" textLength="23.8369" x="1626.9912" y="94.0935">VSM</text><text fill="#000000" font-family="Arial" font-size="11" lengthAdjust="spacing" textLength="69.6953" x="1604.062" y="106.7424">stability owner</text><rect fill="#FCE8FF" height="39.2979" rx="2.5" ry="2.5" style="stroke:#000000;stroke-width:1;" width="83.6953" x="1597.062" y="1412.6909"/><text fill="#000000" font-family="Arial" font-size="11" lengthAdjust="spacing" textLength="23.8369" x="1626.9912" y="1430.1887">VSM</text><text fill="#000000" font-family="Arial" font-size="11" lengthAdjust="spacing" textLength="69.6953" x="1604.062" y="1442.8376">stability owner</text><rect fill="#FFFFFF" height="59.2979" style="stroke:#000000;stroke-width:1;" width="10" x="68.1592" y="126.8936"/><rect fill="#FFFFFF" height="211.8936" style="stroke:#000000;stroke-width:1;" width="10" x="331.3496" y="186.1914"/><rect fill="#FFFFFF" height="269.1382" style="stroke:#000000;stroke-width:1;" width="10" x="485.6733" y="398.085"/><rect fill="#FFFFFF" height="309.7871" style="stroke:#000000;stroke-width:1;" width="10" x="855.6782" y="667.2231"/><rect fill="#FFFFFF" height="183.1914" style="stroke:#000000;stroke-width:1;" width="10" x="1171.8271" y="977.0103"/><rect fill="#FFFFFF" height="64.2979" style="stroke:#000000;stroke-width:1;" width="10" x="1392.0054" y="1162.2017"/><rect fill="#FFFFFF" height="64.2979" style="stroke:#000000;stroke-width:1;" width="10" x="1633.9097" y="1228.4995"/><rect fill="#FFFFFF" height="3" style="stroke:#FFFFFF;stroke-width:1;" width="1828.7363" x="5" y="146.218"/><line style="stroke:#000000;stroke-width:0.5;" x1="5" x2="1833.7363" y1="146.218" y2="146.218"/><line style="stroke:#000000;stroke-width:0.5;" x1="5" x2="1833.7363" y1="149.218" y2="149.218"/><rect fill="#FFFFFF" height="20.6489" style="stroke:#000000;stroke-width:1;" width="152.1553" x="843.2905" y="136.8936"/><text fill="#000000" font-family="Arial" font-size="11" font-weight="bold" lengthAdjust="spacing" textLength="135.0991" x="849.2905" y="151.3914">Object Risk Classification</text><polygon fill="#000000" points="319.3496,182.1914,329.3496,186.1914,319.3496,190.1914,323.3496,186.1914" style="stroke:#000000;stroke-width:1;"/><line style="stroke:#000000;stroke-width:1;" x1="73.1592" x2="325.3496" y1="186.1914" y2="186.1914"/><text fill="#000000" font-family="Arial" font-size="11" lengthAdjust="spacing" textLength="234.1904" x="85.1592" y="182.0403">objectTrackValid / range / relSpeed / confidence</text><polygon fill="#000000" points="319.3496,208.8403,329.3496,212.8403,319.3496,216.8403,323.3496,212.8403" style="stroke:#000000;stroke-width:1;"/><line style="stroke:#000000;stroke-width:1;" x1="73.1592" x2="325.3496" y1="212.8403" y2="212.8403"/><text fill="#000000" font-family="Arial" font-size="11" lengthAdjust="spacing" textLength="83.7783" x="160.3652" y="208.6892">perception inputs</text><line style="stroke:#000000;stroke-width:1;" x1="341.3496" x2="383.3496" y1="239.4893" y2="239.4893"/><line style="stroke:#000000;stroke-width:1;" x1="383.3496" x2="383.3496" y1="239.4893" y2="252.4893"/><line style="stroke:#000000;stroke-width:1;" x1="342.3496" x2="383.3496" y1="252.4893" y2="252.4893"/><polygon fill="#000000" points="352.3496,248.4893,342.3496,252.4893,352.3496,256.4893,348.3496,252.4893" style="stroke:#000000;stroke-width:1;"/><text fill="#000000" font-family="Arial" font-size="11" lengthAdjust="spacing" textLength="80.0669" x="348.3496" y="235.3381">calcObjectRisk()</text><line style="stroke:#000000;stroke-width:1;" x1="341.3496" x2="383.3496" y1="279.1382" y2="279.1382"/><line style="stroke:#000000;stroke-width:1;" x1="383.3496" x2="383.3496" y1="279.1382" y2="292.1382"/><line style="stroke:#000000;stroke-width:1;" x1="342.3496" x2="383.3496" y1="292.1382" y2="292.1382"/><polygon fill="#000000" points="352.3496,288.1382,342.3496,292.1382,352.3496,296.1382,348.3496,292.1382" style="stroke:#000000;stroke-width:1;"/><text fill="#000000" font-family="Arial" font-size="11" lengthAdjust="spacing" textLength="107.5723" x="348.3496" y="274.9871">calcObjectRiskClass()</text><line style="stroke:#000000;stroke-width:1;" x1="341.3496" x2="383.3496" y1="318.7871" y2="318.7871"/><line style="stroke:#000000;stroke-width:1;" x1="383.3496" x2="383.3496" y1="318.7871" y2="331.7871"/><line style="stroke:#000000;stroke-width:1;" x1="342.3496" x2="383.3496" y1="331.7871" y2="331.7871"/><polygon fill="#000000" points="352.3496,327.7871,342.3496,331.7871,352.3496,335.7871,348.3496,331.7871" style="stroke:#000000;stroke-width:1;"/><text fill="#000000" font-family="Arial" font-size="11" lengthAdjust="spacing" textLength="108.2007" x="348.3496" y="314.636">Core::objectRiskClass</text><line style="stroke:#000000;stroke-width:1;" x1="341.3496" x2="383.3496" y1="358.436" y2="358.436"/><line style="stroke:#000000;stroke-width:1;" x1="383.3496" x2="383.3496" y1="358.436" y2="371.436"/><line style="stroke:#000000;stroke-width:1;" x1="342.3496" x2="383.3496" y1="371.436" y2="371.436"/><polygon fill="#000000" points="352.3496,367.436,342.3496,371.436,352.3496,375.436,348.3496,371.436" style="stroke:#000000;stroke-width:1;"/><text fill="#000000" font-family="Arial" font-size="11" lengthAdjust="spacing" textLength="105.7676" x="348.3496" y="354.2849">Core::decelAssistReq</text><polygon fill="#000000" points="473.6733,394.085,483.6733,398.085,473.6733,402.085,477.6733,398.085" style="stroke:#000000;stroke-width:1;"/><line style="stroke:#000000;stroke-width:1;" x1="336.3496" x2="479.6733" y1="398.085" y2="398.085"/><text fill="#000000" font-family="Arial" font-size="11" lengthAdjust="spacing" textLength="125.3237" x="348.3496" y="393.9338">frmAdasDomainStateMsg</text><path d="M341,411.085 L341,484.085 L475,484.085 L475,421.085 L465,411.085 L341,411.085 " fill="#FFFFFF" style="stroke:#000000;stroke-width:1;"/><path d="M465,411.085 L465,421.085 L475,421.085 L465,411.085 " fill="#FFFFFF" style="stroke:#000000;stroke-width:1;"/><text fill="#000000" font-family="Arial" font-size="11" lengthAdjust="spacing" textLength="113.126" x="347" y="426.5828">Representative outputs</text><text fill="#000000" font-family="Arial" font-size="11" lengthAdjust="spacing" textLength="87.4038" x="347" y="439.2317">- ObjectRiskClass</text><text fill="#000000" font-family="Arial" font-size="11" lengthAdjust="spacing" textLength="84.3584" x="347" y="451.8806">- DecelAssistReq</text><text fill="#000000" font-family="Arial" font-size="11" lengthAdjust="spacing" textLength="98.4414" x="347" y="464.5295">- SelectedAlertLevel</text><text fill="#000000" font-family="Arial" font-size="11" lengthAdjust="spacing" textLength="92.3022" x="347" y="477.1785">- TTC bucket basis</text><rect fill="#FFFFFF" height="3" style="stroke:#FFFFFF;stroke-width:1;" width="1828.7363" x="5" y="508.6541"/><line style="stroke:#000000;stroke-width:0.5;" x1="5" x2="1833.7363" y1="508.6541" y2="508.6541"/><line style="stroke:#000000;stroke-width:0.5;" x1="5" x2="1833.7363" y1="511.6541" y2="511.6541"/><rect fill="#FFFFFF" height="20.6489" style="stroke:#000000;stroke-width:1;" width="142.9492" x="847.8936" y="499.3296"/><text fill="#000000" font-family="Arial" font-size="11" font-weight="bold" lengthAdjust="spacing" textLength="125.8931" x="853.8936" y="513.8274">FCA Request Formation</text><polygon fill="#000000" points="473.6733,544.6274,483.6733,548.6274,473.6733,552.6274,477.6733,548.6274" style="stroke:#000000;stroke-width:1;"/><line style="stroke:#000000;stroke-width:1;" x1="336.3496" x2="479.6733" y1="548.6274" y2="548.6274"/><text fill="#000000" font-family="Arial" font-size="11" lengthAdjust="spacing" textLength="125.3237" x="348.3496" y="544.4763">frmAdasDomainStateMsg</text><line style="stroke:#000000;stroke-width:1;" x1="495.6733" x2="537.6733" y1="575.2764" y2="575.2764"/><line style="stroke:#000000;stroke-width:1;" x1="537.6733" x2="537.6733" y1="575.2764" y2="588.2764"/><line style="stroke:#000000;stroke-width:1;" x1="496.6733" x2="537.6733" y1="588.2764" y2="588.2764"/><polygon fill="#000000" points="506.6733,584.2764,496.6733,588.2764,506.6733,592.2764,502.6733,588.2764" style="stroke:#000000;stroke-width:1;"/><text fill="#000000" font-family="Arial" font-size="11" lengthAdjust="spacing" textLength="72.7354" x="502.6733" y="571.1252">calcFcwState()</text><line style="stroke:#000000;stroke-width:1;" x1="495.6733" x2="537.6733" y1="627.5742" y2="627.5742"/><line style="stroke:#000000;stroke-width:1;" x1="537.6733" x2="537.6733" y1="627.5742" y2="640.5742"/><line style="stroke:#000000;stroke-width:1;" x1="496.6733" x2="537.6733" y1="640.5742" y2="640.5742"/><polygon fill="#000000" points="506.6733,636.5742,496.6733,640.5742,506.6733,644.5742,502.6733,640.5742" style="stroke:#000000;stroke-width:1;"/><text fill="#000000" font-family="Arial" font-size="11" lengthAdjust="spacing" textLength="107.3306" x="617.0105" y="610.7742">aebRequest = 1 when</text><text fill="#000000" font-family="Arial" font-size="11" lengthAdjust="spacing" textLength="336.0049" x="502.6733" y="623.4231">decelAssistReq == 1 and objectRiskClass &gt;= 4 and failSafeMode &lt; 2</text><polygon fill="#000000" points="843.6782,663.2231,853.6782,667.2231,843.6782,671.2231,847.6782,667.2231" style="stroke:#000000;stroke-width:1;"/><line style="stroke:#000000;stroke-width:1;" x1="490.6733" x2="849.6782" y1="667.2231" y2="667.2231"/><text fill="#000000" font-family="Arial" font-size="11" lengthAdjust="spacing" textLength="80.6846" x="632.8335" y="663.072">frmFcaStateMsg</text><path d="M495,680.2231 L495,753.2231 L629,753.2231 L629,690.2231 L619,680.2231 L495,680.2231 " fill="#FFFFFF" style="stroke:#000000;stroke-width:1;"/><path d="M619,680.2231 L619,690.2231 L629,690.2231 L619,680.2231 " fill="#FFFFFF" style="stroke:#000000;stroke-width:1;"/><text fill="#000000" font-family="Arial" font-size="11" lengthAdjust="spacing" textLength="113.126" x="501" y="695.7209">Representative outputs</text><text fill="#000000" font-family="Arial" font-size="11" lengthAdjust="spacing" textLength="52.5669" x="501" y="708.3699">- FcwState</text><text fill="#000000" font-family="Arial" font-size="11" lengthAdjust="spacing" textLength="67.2622" x="501" y="721.0188">- AebRequest</text><text fill="#000000" font-family="Arial" font-size="11" lengthAdjust="spacing" textLength="84.3584" x="501" y="733.6677">- DecelAssistReq</text><text fill="#000000" font-family="Arial" font-size="11" lengthAdjust="spacing" textLength="87.4038" x="501" y="746.3167">- ObjectRiskClass</text><rect fill="#FFFFFF" height="3" style="stroke:#FFFFFF;stroke-width:1;" width="1828.7363" x="5" y="777.7922"/><line style="stroke:#000000;stroke-width:0.5;" x1="5" x2="1833.7363" y1="777.7922" y2="777.7922"/><line style="stroke:#000000;stroke-width:0.5;" x1="5" x2="1833.7363" y1="780.7922" y2="780.7922"/><rect fill="#FFFFFF" height="20.6489" style="stroke:#000000;stroke-width:1;" width="125.8315" x="856.4524" y="768.4678"/><text fill="#000000" font-family="Arial" font-size="11" font-weight="bold" lengthAdjust="spacing" textLength="108.7754" x="862.4524" y="782.9656">AEB Domain Control</text><polygon fill="#000000" points="843.6782,813.7656,853.6782,817.7656,843.6782,821.7656,847.6782,817.7656" style="stroke:#000000;stroke-width:1;"/><line style="stroke:#000000;stroke-width:1;" x1="490.6733" x2="849.6782" y1="817.7656" y2="817.7656"/><text fill="#000000" font-family="Arial" font-size="11" lengthAdjust="spacing" textLength="80.6846" x="632.8335" y="813.6145">frmFcaStateMsg</text><line style="stroke:#000000;stroke-width:1;" x1="865.6782" x2="907.6782" y1="844.4146" y2="844.4146"/><line style="stroke:#000000;stroke-width:1;" x1="907.6782" x2="907.6782" y1="844.4146" y2="857.4146"/><line style="stroke:#000000;stroke-width:1;" x1="866.6782" x2="907.6782" y1="857.4146" y2="857.4146"/><polygon fill="#000000" points="876.6782,853.4146,866.6782,857.4146,876.6782,861.4146,872.6782,857.4146" style="stroke:#000000;stroke-width:1;"/><text fill="#000000" font-family="Arial" font-size="11" lengthAdjust="spacing" textLength="163.2651" x="872.6782" y="840.2634">pathReady / aebArmed / stopReq</text><line style="stroke:#000000;stroke-width:1;" x1="865.6782" x2="907.6782" y1="884.0635" y2="884.0635"/><line style="stroke:#000000;stroke-width:1;" x1="907.6782" x2="907.6782" y1="884.0635" y2="897.0635"/><line style="stroke:#000000;stroke-width:1;" x1="866.6782" x2="907.6782" y1="897.0635" y2="897.0635"/><polygon fill="#000000" points="876.6782,893.0635,866.6782,897.0635,876.6782,901.0635,872.6782,897.0635" style="stroke:#000000;stroke-width:1;"/><text fill="#000000" font-family="Arial" font-size="11" lengthAdjust="spacing" textLength="282.1489" x="872.6782" y="879.9124">decelProfile = 1/2/3 from objectRiskClass and TTC bucket</text><polygon fill="#000000" points="1164.8271,919.7124,1174.8271,923.7124,1164.8271,927.7124,1168.8271,923.7124" style="stroke:#000000;stroke-width:1;"/><line style="stroke:#000000;stroke-width:1;" x1="865.6782" x2="1170.8271" y1="923.7124" y2="923.7124"/><text fill="#000000" font-family="Arial" font-size="11" lengthAdjust="spacing" textLength="119.8237" x="961.3408" y="919.5613">frmAebDomainStateMsg</text><polygon fill="#000000" points="1385.0054,946.3613,1395.0054,950.3613,1385.0054,954.3613,1389.0054,950.3613" style="stroke:#000000;stroke-width:1;"/><line style="stroke:#000000;stroke-width:1;" x1="865.6782" x2="1391.0054" y1="950.3613" y2="950.3613"/><text fill="#000000" font-family="Arial" font-size="11" lengthAdjust="spacing" textLength="119.8237" x="1071.4299" y="946.2102">frmAebDomainStateMsg</text><polygon fill="#000000" points="1626.9097,973.0103,1636.9097,977.0103,1626.9097,981.0103,1630.9097,977.0103" style="stroke:#000000;stroke-width:1;"/><line style="stroke:#000000;stroke-width:1;" x1="860.6782" x2="1632.9097" y1="977.0103" y2="977.0103"/><text fill="#000000" font-family="Arial" font-size="11" lengthAdjust="spacing" textLength="119.8237" x="1189.8821" y="972.8591">frmAebDomainStateMsg</text><path d="M865,990.0103 L865,1063.0103 L999,1063.0103 L999,1000.0103 L989,990.0103 L865,990.0103 " fill="#FFFFFF" style="stroke:#000000;stroke-width:1;"/><path d="M989,990.0103 L989,1000.0103 L999,1000.0103 L989,990.0103 " fill="#FFFFFF" style="stroke:#000000;stroke-width:1;"/><text fill="#000000" font-family="Arial" font-size="11" lengthAdjust="spacing" textLength="113.126" x="871" y="1005.5081">Representative outputs</text><text fill="#000000" font-family="Arial" font-size="11" lengthAdjust="spacing" textLength="49.5269" x="871" y="1018.157">- StopReq</text><text fill="#000000" font-family="Arial" font-size="11" lengthAdjust="spacing" textLength="66.0215" x="871" y="1030.8059">- DecelProfile</text><text fill="#000000" font-family="Arial" font-size="11" lengthAdjust="spacing" textLength="76.4199" x="871" y="1043.4548">- DomainHealth</text><text fill="#000000" font-family="Arial" font-size="11" lengthAdjust="spacing" textLength="87.4038" x="871" y="1056.1038">- ObjectRiskClass</text><rect fill="#FFFFFF" height="3" style="stroke:#FFFFFF;stroke-width:1;" width="1828.7363" x="5" y="1087.5793"/><line style="stroke:#000000;stroke-width:0.5;" x1="5" x2="1833.7363" y1="1087.5793" y2="1087.5793"/><line style="stroke:#000000;stroke-width:0.5;" x1="5" x2="1833.7363" y1="1090.5793" y2="1090.5793"/><rect fill="#FFFFFF" height="20.6489" style="stroke:#000000;stroke-width:1;" width="122.8184" x="857.959" y="1078.2549"/><text fill="#000000" font-family="Arial" font-size="11" font-weight="bold" lengthAdjust="spacing" textLength="105.7622" x="863.959" y="1092.7527">Chassis Consumers</text><polygon fill="#000000" points="1159.8271,1123.5527,1169.8271,1127.5527,1159.8271,1131.5527,1163.8271,1127.5527" style="stroke:#000000;stroke-width:1;"/><line style="stroke:#000000;stroke-width:1;" x1="860.6782" x2="1165.8271" y1="1127.5527" y2="1127.5527"/><text fill="#000000" font-family="Arial" font-size="11" lengthAdjust="spacing" textLength="119.8237" x="956.3408" y="1123.4016">frmAebDomainStateMsg</text><line style="stroke:#000000;stroke-width:1;" x1="1181.8271" x2="1223.8271" y1="1159.2017" y2="1159.2017"/><line style="stroke:#000000;stroke-width:1;" x1="1223.8271" x2="1223.8271" y1="1159.2017" y2="1172.2017"/><line style="stroke:#000000;stroke-width:1;" x1="1176.8271" x2="1223.8271" y1="1172.2017" y2="1172.2017"/><polygon fill="#000000" points="1186.8271,1168.2017,1176.8271,1172.2017,1186.8271,1176.2017,1182.8271,1172.2017" style="stroke:#000000;stroke-width:1;"/><text fill="#000000" font-family="Arial" font-size="11" lengthAdjust="spacing" textLength="186.1782" x="1188.8271" y="1155.0505">assistPressureFloor = 25 / 35 / 45 / 55</text><polygon fill="#000000" points="1380.0054,1189.8506,1390.0054,1193.8506,1380.0054,1197.8506,1384.0054,1193.8506" style="stroke:#000000;stroke-width:1;"/><line style="stroke:#000000;stroke-width:1;" x1="860.6782" x2="1386.0054" y1="1193.8506" y2="1193.8506"/><text fill="#000000" font-family="Arial" font-size="11" lengthAdjust="spacing" textLength="119.8237" x="1066.4299" y="1189.6995">frmAebDomainStateMsg</text><line style="stroke:#000000;stroke-width:1;" x1="1402.0054" x2="1444.0054" y1="1225.4995" y2="1225.4995"/><line style="stroke:#000000;stroke-width:1;" x1="1444.0054" x2="1444.0054" y1="1225.4995" y2="1238.4995"/><line style="stroke:#000000;stroke-width:1;" x1="1397.0054" x2="1444.0054" y1="1238.4995" y2="1238.4995"/><polygon fill="#000000" points="1407.0054,1234.4995,1397.0054,1238.4995,1407.0054,1242.4995,1403.0054,1238.4995" style="stroke:#000000;stroke-width:1;"/><text fill="#000000" font-family="Arial" font-size="11" lengthAdjust="spacing" textLength="207.9043" x="1409.0054" y="1221.3484">aebPressureCmd floor 70 / 110 / 150 / 180</text><polygon fill="#000000" points="1621.9097,1256.1484,1631.9097,1260.1484,1621.9097,1264.1484,1625.9097,1260.1484" style="stroke:#000000;stroke-width:1;"/><line style="stroke:#000000;stroke-width:1;" x1="860.6782" x2="1627.9097" y1="1260.1484" y2="1260.1484"/><text fill="#000000" font-family="Arial" font-size="11" lengthAdjust="spacing" textLength="119.8237" x="1187.3821" y="1255.9973">frmAebDomainStateMsg</text><line style="stroke:#000000;stroke-width:1;" x1="1643.9097" x2="1685.9097" y1="1291.7974" y2="1291.7974"/><line style="stroke:#000000;stroke-width:1;" x1="1685.9097" x2="1685.9097" y1="1291.7974" y2="1304.7974"/><line style="stroke:#000000;stroke-width:1;" x1="1638.9097" x2="1685.9097" y1="1304.7974" y2="1304.7974"/><polygon fill="#000000" points="1648.9097,1300.7974,1638.9097,1304.7974,1648.9097,1308.7974,1644.9097,1304.7974" style="stroke:#000000;stroke-width:1;"/><text fill="#000000" font-family="Arial" font-size="11" lengthAdjust="spacing" textLength="160.8267" x="1650.9097" y="1287.6462">intervention floor 20 / 35 / 50 / 60</text><path d="M18,1312.7974 L18,1397.7974 L1693,1397.7974 L1693,1322.7974 L1683,1312.7974 L18,1312.7974 " fill="#FFFFFF" style="stroke:#000000;stroke-width:1;"/><path d="M1683,1312.7974 L1683,1322.7974 L1693,1322.7974 L1683,1312.7974 " fill="#FFFFFF" style="stroke:#000000;stroke-width:1;"/><text fill="#000000" font-family="Arial" font-size="11" lengthAdjust="spacing" textLength="143.0752" x="688.127" y="1328.2952">Representative runtime chain</text><text fill="#000000" font-family="Arial" font-size="11" lengthAdjust="spacing" textLength="199.9121" x="688.127" y="1340.9441">1. FRADAR provides object track context</text><text fill="#000000" font-family="Arial" font-size="11" lengthAdjust="spacing" textLength="326.5034" x="688.127" y="1353.593">2. ADAS converts perception into object risk and decel assist intent</text><text fill="#000000" font-family="Arial" font-size="11" lengthAdjust="spacing" textLength="253.0913" x="688.127" y="1366.2419">3. FCA converts decel assist into FCW/AEB request</text><text fill="#000000" font-family="Arial" font-size="11" lengthAdjust="spacing" textLength="251.292" x="688.127" y="1378.8909">4. AEB emits stopReq / decelProfile / domainHealth</text><text fill="#000000" font-family="Arial" font-size="11" lengthAdjust="spacing" textLength="285.5112" x="688.127" y="1391.5398">5. ESC / EHB / VSM apply chassis-level brake intervention</text><!--SRC=[ZLR1Sjis4BtpAz3uaipKiYLRZiTJPOQYnV6XJZAY9xde0f4h2HK8i00erVtwxeAaHD9oAXz8YxlOj_iUTe7Vt0PoO8NaGWLsArJ13S_PagVRjT6boY8jjM4NiVzhUMImugLqiLRkAyS8eH5SdhOdubzWms7BQE7l4bGAps0jNqCenLgn59G3q_8oO0kjRECr1QdteJ5wpvmf8GYSS1BOj-LVa3hsebaucx8vHRQE9HYHInRZaeNw6C_3nt3EhXY-4dRvXSLHI2zQWQzP4g5jzZJ5vu_a-LCGO09EfABWoh4FrUg5qXMICqWEixeqANnWtB8w-iNiFluyk- -k9S33IYFibkcz0kFN-MGkuWZNnJt4A5oeEFf96MEAfYxgk9Jo9qrkewY7Dvik52-TLZhNfMLBmxVGniHmk71sDxlhBaGE5ghoNacDaX_N43sdrpmXsEOrCwYqIDzW4Q4daqIE5yewlXHIkDVM2ZGS20acaqRREV4MIMwjM8cKEw4Lcqo2WATExBY3Me6W5eA49MeVMCNx2mdsWqkH8P-6gpNG6sHI0D2dLAkLo6W_1XdqOnv1AEPRY09m6nG-9TotfRD1iyTgXvJBjAg3olZuwTTsN-LRfqWRU7ZGNRVJJXca84EaoZfiXg2zun_OokHXnksZph7V4uTbFTjre3IMPyHwWrjiLTKvXmBR3piIsTwXgANpjLsoNghuvR4BUCaIaEW2MIZ1k3zX1n8_lhn4R5ccMt0uND0t09Kn0cvpxg59UCgsQULOc_oKvb5uLd5rgrSkH7QSxhqHMUxOE2mRo0aRilq6r49rsSGCqC8nyvuKxCk4tNh3YWkPy1KywmpO7smKj4QDJp5E-Jl4KqNlyjvaZV-6XqHFiTyNw1JFX4GqKr8LNRXvb3DQTZb6-o_ph-TdPIkusyo1Pw_OKiXbQ7BVNTRfmc_4jg-dzRlHAu4J73cz6btTO72Tlo6ME3tkdQ0riIl1OTdJk_5uclwF1msRTpnw3O4ilAjBKfTNAr7NH3zzo2VWqctEb8M0I9PeGwFEaYQspC7OhYfO_1ayaEdWuUEvxrY2BGt4Vi1Fs6YC-jpGuvOUut4x6K9fOJvDps2MJ0SFt0CDO9HdzQdo-Hg1XaF_7Fld_NK75N6Eg2ZH6MgHwU0Xw1AnGw5eO5IOe-kcJ8zurm4aY4fllGDJJ_tV_UUUvgR4e7ZJIJTqLneEcdE_C7g7nuTbdVi17YeE_d71Q52DP_oDyPtj7XXEi_RTW3QxRurQC5-DSi7DmC-eGuo-ZqRppwlMLI6u7VXEWroWUzs2M7kdx_1dUu-E1_sB4ED58L-fO4Awb3JAwrE-JVDnB_y7]--></g></svg>