<svg xmlns="http://www.w3.org/2000/svg" xmlns:xlink="http://www.w3.org/1999/xlink" contentStyleType="text/css" height="842px" preserveAspectRatio="none" style="width:765px;height:842px;background:#FFFFFF;" version="1.1" viewBox="0 0 765 842" width="765px" zoomAndPan="magnify"><title>PAAK Auth To Child Lock Signal Flow</title><defs/><g><text fill="#000000" font-family="Arial" font-size="22" font-weight="bold" lengthAdjust="spacing" textLength="398.4277" x="181.847" y="35.9956">PAAK Auth To Child Lock Signal Flow</text><text fill="#000000" font-family="Arial" font-size="22" font-weight="bold" lengthAdjust="spacing" textLength="630.749" x="65.6864" y="61.2935">(PAAK/drive context -&gt; BCM -&gt; door child-lock enforcement)</text><line style="stroke:#000000;stroke-width:1;" x1="77" x2="77" y1="116.8936" y2="797.7124"/><line style="stroke:#000000;stroke-width:1;" x1="218.8799" x2="218.8799" y1="116.8936" y2="797.7124"/><line style="stroke:#000000;stroke-width:1;" x1="454.8899" x2="454.8899" y1="116.8936" y2="797.7124"/><line style="stroke:#000000;stroke-width:1;" x1="689.8035" x2="689.8035" y1="116.8936" y2="797.7124"/><rect fill="#F4F7FB" height="26.6489" rx="2.5" ry="2.5" style="stroke:#000000;stroke-width:1;" width="114.8799" x="20" y="89.2446"/><text fill="#000000" font-family="Arial" font-size="11" lengthAdjust="spacing" textLength="100.8799" x="27" y="106.7424">PAAK / drive context</text><rect fill="#F4F7FB" height="26.6489" rx="2.5" ry="2.5" style="stroke:#000000;stroke-width:1;" width="114.8799" x="20" y="796.7124"/><text fill="#000000" font-family="Arial" font-size="11" lengthAdjust="spacing" textLength="100.8799" x="27" y="814.2102">PAAK / drive context</text><rect fill="#E8F7E8" height="39.2979" rx="2.5" ry="2.5" style="stroke:#000000;stroke-width:1;" width="108.1606" x="164.8799" y="76.5957"/><text fill="#000000" font-family="Arial" font-size="11" lengthAdjust="spacing" textLength="24.4438" x="206.7383" y="94.0935">BCM</text><text fill="#000000" font-family="Arial" font-size="11" lengthAdjust="spacing" textLength="94.1606" x="171.8799" y="106.7424">body access owner</text><rect fill="#E8F7E8" height="39.2979" rx="2.5" ry="2.5" style="stroke:#000000;stroke-width:1;" width="108.1606" x="164.8799" y="796.7124"/><text fill="#000000" font-family="Arial" font-size="11" lengthAdjust="spacing" textLength="24.4438" x="206.7383" y="814.2102">BCM</text><text fill="#000000" font-family="Arial" font-size="11" lengthAdjust="spacing" textLength="94.1606" x="171.8799" y="826.8591">body access owner</text><rect fill="#FFF4CC" height="26.6489" rx="2.5" ry="2.5" style="stroke:#000000;stroke-width:1;" width="94.6953" x="407.8899" y="89.2446"/><text fill="#000000" font-family="Arial" font-size="11" lengthAdjust="spacing" textLength="80.6953" x="414.8899" y="106.7424">Rear door ECUs</text><rect fill="#FFF4CC" height="26.6489" rx="2.5" ry="2.5" style="stroke:#000000;stroke-width:1;" width="94.6953" x="407.8899" y="796.7124"/><text fill="#000000" font-family="Arial" font-size="11" lengthAdjust="spacing" textLength="80.6953" x="414.8899" y="814.2102">Rear door ECUs</text><rect fill="#E8F0FE" height="26.6489" rx="2.5" ry="2.5" style="stroke:#000000;stroke-width:1;" width="106.3184" x="636.8035" y="89.2446"/><text fill="#000000" font-family="Arial" font-size="11" lengthAdjust="spacing" textLength="92.3184" x="643.8035" y="106.7424">Observers / panels</text><rect fill="#E8F0FE" height="26.6489" rx="2.5" ry="2.5" style="stroke:#000000;stroke-width:1;" width="106.3184" x="636.8035" y="796.7124"/><text fill="#000000" font-family="Arial" font-size="11" lengthAdjust="spacing" textLength="92.3184" x="643.8035" y="814.2102">Observers / panels</text><rect fill="#FFFFFF" height="3" style="stroke:#FFFFFF;stroke-width:1;" width="753.1218" x="5" y="146.218"/><line style="stroke:#000000;stroke-width:0.5;" x1="5" x2="758.1218" y1="146.218" y2="146.218"/><line style="stroke:#000000;stroke-width:0.5;" x1="5" x2="758.1218" y1="149.218" y2="149.218"/><rect fill="#FFFFFF" height="20.6489" style="stroke:#000000;stroke-width:1;" width="128.3237" x="317.399" y="136.8936"/><text fill="#000000" font-family="Arial" font-size="11" font-weight="bold" lengthAdjust="spacing" textLength="111.2676" x="323.399" y="151.3914">Access / Drive Inputs</text><polygon fill="#000000" points="206.9602,220.1382,216.9602,224.1382,206.9602,228.1382,210.9602,224.1382" style="stroke:#000000;stroke-width:1;"/><line style="stroke:#000000;stroke-width:1;" x1="77.4399" x2="212.9602" y1="224.1382" y2="224.1382"/><text fill="#000000" font-family="Arial" font-size="11" lengthAdjust="spacing" textLength="80.1152" x="108.1425" y="182.0403">gPaakAuthLevel</text><text fill="#000000" font-family="Arial" font-size="11" lengthAdjust="spacing" textLength="102.0991" x="97.1505" y="194.6892">gPaakProximityState</text><text fill="#000000" font-family="Arial" font-size="11" lengthAdjust="spacing" textLength="56.8745" x="119.7628" y="207.3381">gPaakState</text><text fill="#000000" font-family="Arial" font-size="11" lengthAdjust="spacing" textLength="57.4707" x="119.4647" y="219.9871">gDriveState</text><line style="stroke:#000000;stroke-width:1;" x1="218.9602" x2="260.9602" y1="250.7871" y2="250.7871"/><line style="stroke:#000000;stroke-width:1;" x1="260.9602" x2="260.9602" y1="250.7871" y2="263.7871"/><line style="stroke:#000000;stroke-width:1;" x1="219.9602" x2="260.9602" y1="263.7871" y2="263.7871"/><polygon fill="#000000" points="229.9602,259.7871,219.9602,263.7871,229.9602,267.7871,225.9602,263.7871" style="stroke:#000000;stroke-width:1;"/><text fill="#000000" font-family="Arial" font-size="11" lengthAdjust="spacing" textLength="212.1743" x="225.9602" y="246.636">evaluate door access and drive-state safety</text><line style="stroke:#000000;stroke-width:1;" x1="218.9602" x2="260.9602" y1="303.085" y2="303.085"/><line style="stroke:#000000;stroke-width:1;" x1="260.9602" x2="260.9602" y1="303.085" y2="316.085"/><line style="stroke:#000000;stroke-width:1;" x1="219.9602" x2="260.9602" y1="316.085" y2="316.085"/><polygon fill="#000000" points="229.9602,312.085,219.9602,316.085,229.9602,320.085,225.9602,316.085" style="stroke:#000000;stroke-width:1;"/><text fill="#000000" font-family="Arial" font-size="11" lengthAdjust="spacing" textLength="81.0229" x="296.5874" y="286.2849">childLockState =</text><text fill="#000000" font-family="Arial" font-size="11" lengthAdjust="spacing" textLength="222.2773" x="225.9602" y="298.9338">(manualMode == 0 and driveState &gt; 0) ? 1 : 0</text><path d="M223,329.085 L223,389.085 L409,389.085 L409,339.085 L399,329.085 L223,329.085 " fill="#FFFFFF" style="stroke:#000000;stroke-width:1;"/><path d="M399,329.085 L399,339.085 L409,339.085 L399,329.085 " fill="#FFFFFF" style="stroke:#000000;stroke-width:1;"/><text fill="#000000" font-family="Arial" font-size="11" lengthAdjust="spacing" textLength="139.4229" x="229" y="344.5828">Representative gating inputs</text><text fill="#000000" font-family="Arial" font-size="11" lengthAdjust="spacing" textLength="165.6875" x="229" y="357.2317">- paakAuthLevel / proximity / state</text><text fill="#000000" font-family="Arial" font-size="11" lengthAdjust="spacing" textLength="56.2461" x="229" y="369.8806">- driveState</text><text fill="#000000" font-family="Arial" font-size="11" lengthAdjust="spacing" textLength="70.313" x="229" y="382.5295">- manualMode</text><rect fill="#FFFFFF" height="3" style="stroke:#FFFFFF;stroke-width:1;" width="753.1218" x="5" y="414.0051"/><line style="stroke:#000000;stroke-width:0.5;" x1="5" x2="758.1218" y1="414.0051" y2="414.0051"/><line style="stroke:#000000;stroke-width:0.5;" x1="5" x2="758.1218" y1="417.0051" y2="417.0051"/><rect fill="#FFFFFF" height="20.6489" style="stroke:#000000;stroke-width:1;" width="116.0615" x="323.5302" y="404.6807"/><text fill="#000000" font-family="Arial" font-size="11" font-weight="bold" lengthAdjust="spacing" textLength="99.0054" x="329.5302" y="419.1785">Child Lock Publish</text><polygon fill="#000000" points="443.2375,462.6274,453.2375,466.6274,443.2375,470.6274,447.2375,466.6274" style="stroke:#000000;stroke-width:1;"/><line style="stroke:#000000;stroke-width:1;" x1="218.9602" x2="449.2375" y1="466.6274" y2="466.6274"/><text fill="#000000" font-family="Arial" font-size="11" lengthAdjust="spacing" textLength="95.9653" x="289.1162" y="449.8274">frmDoorControlMsg</text><text fill="#000000" font-family="Arial" font-size="11" lengthAdjust="spacing" textLength="71.5269" x="301.3354" y="462.4763">ChildLockCmd</text><line style="stroke:#000000;stroke-width:1;" x1="218.9602" x2="260.9602" y1="505.9253" y2="505.9253"/><line style="stroke:#000000;stroke-width:1;" x1="260.9602" x2="260.9602" y1="505.9253" y2="518.9253"/><line style="stroke:#000000;stroke-width:1;" x1="219.9602" x2="260.9602" y1="518.9253" y2="518.9253"/><polygon fill="#000000" points="229.9602,514.9253,219.9602,518.9253,229.9602,522.9253,225.9602,518.9253" style="stroke:#000000;stroke-width:1;"/><text fill="#000000" font-family="Arial" font-size="11" lengthAdjust="spacing" textLength="135.7329" x="225.9602" y="489.1252">mDoorState.ChildLockState</text><text fill="#000000" font-family="Arial" font-size="11" lengthAdjust="spacing" textLength="104.5645" x="241.5444" y="501.7742">for body state publish</text><path d="M223,531.9253 L223,578.9253 L357,578.9253 L357,541.9253 L347,531.9253 L223,531.9253 " fill="#FFFFFF" style="stroke:#000000;stroke-width:1;"/><path d="M347,531.9253 L347,541.9253 L357,541.9253 L347,531.9253 " fill="#FFFFFF" style="stroke:#000000;stroke-width:1;"/><text fill="#000000" font-family="Arial" font-size="11" lengthAdjust="spacing" textLength="113.126" x="229" y="547.4231">Representative outputs</text><text fill="#000000" font-family="Arial" font-size="11" lengthAdjust="spacing" textLength="78.2461" x="229" y="560.072">- ChildLockCmd</text><text fill="#000000" font-family="Arial" font-size="11" lengthAdjust="spacing" textLength="80.7061" x="229" y="572.7209">- ChildLockState</text><rect fill="#FFFFFF" height="3" style="stroke:#FFFFFF;stroke-width:1;" width="753.1218" x="5" y="604.1965"/><line style="stroke:#000000;stroke-width:0.5;" x1="5" x2="758.1218" y1="604.1965" y2="604.1965"/><line style="stroke:#000000;stroke-width:0.5;" x1="5" x2="758.1218" y1="607.1965" y2="607.1965"/><rect fill="#FFFFFF" height="20.6489" style="stroke:#000000;stroke-width:1;" width="113.0107" x="325.0555" y="594.8721"/><text fill="#000000" font-family="Arial" font-size="11" font-weight="bold" lengthAdjust="spacing" textLength="95.9546" x="331.0555" y="609.3699">Door Enforcement</text><line style="stroke:#000000;stroke-width:1;" x1="455.2375" x2="497.2375" y1="644.1699" y2="644.1699"/><line style="stroke:#000000;stroke-width:1;" x1="497.2375" x2="497.2375" y1="644.1699" y2="657.1699"/><line style="stroke:#000000;stroke-width:1;" x1="456.2375" x2="497.2375" y1="657.1699" y2="657.1699"/><polygon fill="#000000" points="466.2375,653.1699,456.2375,657.1699,466.2375,661.1699,462.2375,657.1699" style="stroke:#000000;stroke-width:1;"/><text fill="#000000" font-family="Arial" font-size="11" lengthAdjust="spacing" textLength="220.7251" x="462.2375" y="640.0188">childLockActive blocks rear-door unlock/open</text><polygon fill="#000000" points="677.9626,692.4678,687.9626,696.4678,677.9626,700.4678,681.9626,696.4678" style="stroke:#000000;stroke-width:1;"/><line style="stroke:#000000;stroke-width:1;" x1="455.2375" x2="683.9626" y1="696.4678" y2="696.4678"/><text fill="#000000" font-family="Arial" font-size="11" lengthAdjust="spacing" textLength="83.1499" x="531.0251" y="679.6677">rear door status /</text><text fill="#000000" font-family="Arial" font-size="11" lengthAdjust="spacing" textLength="86.7969" x="529.2017" y="692.3167">child-lock visibility</text><path d="M14,709.4678 L14,782.4678 L752,782.4678 L752,719.4678 L742,709.4678 L14,709.4678 " fill="#FFFFFF" style="stroke:#000000;stroke-width:1;"/><path d="M742,709.4678 L742,719.4678 L752,719.4678 L742,709.4678 " fill="#FFFFFF" style="stroke:#000000;stroke-width:1;"/><text fill="#000000" font-family="Arial" font-size="11" lengthAdjust="spacing" textLength="143.0752" x="193.9081" y="724.9656">Representative runtime chain</text><text fill="#000000" font-family="Arial" font-size="11" lengthAdjust="spacing" textLength="192.5859" x="193.9081" y="737.6145">1. Access and drive context reach BCM</text><text fill="#000000" font-family="Arial" font-size="11" lengthAdjust="spacing" textLength="242.1074" x="193.9081" y="750.2634">2. BCM decides whether child lock must be active</text><text fill="#000000" font-family="Arial" font-size="11" lengthAdjust="spacing" textLength="280.645" x="193.9081" y="762.9124">3. BCM publishes ChildLockCmd on the door-control path</text><text fill="#000000" font-family="Arial" font-size="11" lengthAdjust="spacing" textLength="369.3057" x="193.9081" y="775.5613">4. Rear door ECUs enforce the lock and observers show the protected state</text><!--SRC=[XLJBRjim4BppAxR9fG7gLniWGG2dK1GBA5gtHjBUVA6fjKIO9bMIifD-VPUKR4b1WVfYaTpNpCxkEr_Y7g5IN6hcTb9NtF8zRBZO5TRKEa-DCXOki_ZhMUIuvRNocT7-EwS8YPLS_VlzMVv1cCrwZmv_rwW5Bj4vNc2YPA51eFPeUrOMNMMqEraze3B7n5fp16zhPCnBhn1MIV8LajgNyDD0MagLmpSZTl1CCRc2Z9pM-dsmckHM7X04bOGl7aRty90kmrzk2A88hYCLN55lZHN4Y_PNZ54nNWfPSUtX8cQRm23I1N07YH1KPkfVYAlhx2Px6FfHfhNUcFmLU3G4SzHeesSeud9nczqiReS-JyXjKziY_UMYRRXwf1iNEtATfaEF7nk7ze3qF06wGTLuqNNCCCqMZCtdRQraynXXVD5LxHtCvunrA5fsxg1OSRuB_7x30wgrZkULDIzoB_thi-SUsylJTumQ3wmbk8c41wvgkcqmjJnmdJTiZbpm0CUtw5-7Zh4reQanACofdtkkQwwM9gVZ7APTcCRa7gPNy1bcv3nbsj2DbKNfmMn3IFQ45OcBsijz8A2WFrs0Z3om4L7NGnoeFA6bxrWbsNJ9wD1Lmv0A2GaZqJqvhkgDagwCBBVWkcRUmTRkmsTAYh96BLsnrka9TRhFXtn4qvXxd0weMGVXGfHPmsRLPFq_1QRsBVX1sjwnmJg0znYrsGrB1DUXUWFntCL4n9IRC6kEffpRKLH4hSFDn5IeXr62Vk-YOIETWAqc_QvrRsWFqicDLDGbri0rD0ZTM7u8KTwYjhNsafQNACFwcurFat5MqtbPK79HHk8-ZcCNSXGoHmV74cc5jki3OYNxsddO82ay966V6eUs5UJIPnYC1lAFk4QYwJxfpvViUWp31N1QIz4-9WfbclF8kp9iHdeZkNeK7lDMhEUU_GK0]--></g></svg>