<svg xmlns="http://www.w3.org/2000/svg" xmlns:xlink="http://www.w3.org/1999/xlink" contentStyleType="text/css" height="1011px" preserveAspectRatio="none" style="width:1090px;height:1011px;background:#FFFFFF;" version="1.1" viewBox="0 0 1090 1011" width="1090px" zoomAndPan="magnify"><title>Passenger Seat Cmd To SEAT PASS Position Comfort Signal Flow</title><defs/><g><text fill="#000000" font-family="Arial" font-size="22" font-weight="bold" lengthAdjust="spacing" textLength="695.5459" x="195.9951" y="35.9956">Passenger Seat Cmd To SEAT PASS Position Comfort Signal Flow</text><text fill="#000000" font-family="Arial" font-size="22" font-weight="bold" lengthAdjust="spacing" textLength="1057.5361" x="15" y="61.2935">(passenger seat-control command + vehicle state -&gt; passenger seat position / heat / ventilation state)</text><rect fill="#FFFFFF" height="627.521" style="stroke:#000000;stroke-width:1;" width="10" x="448.2112" y="238.1382"/><line style="stroke:#000000;stroke-width:1;" x1="168.6689" x2="168.6689" y1="116.8936" y2="966.9038"/><line style="stroke:#000000;stroke-width:1;" x1="293.7681" x2="293.7681" y1="116.8936" y2="966.9038"/><line style="stroke:#000000;stroke-width:1;" x1="452.7913" x2="452.7913" y1="116.8936" y2="966.9038"/><line style="stroke:#000000;stroke-width:1;" x1="734.3694" x2="734.3694" y1="116.8936" y2="966.9038"/><line style="stroke:#000000;stroke-width:1;" x1="920.8403" x2="920.8403" y1="116.8936" y2="966.9038"/><rect fill="#F4F7FB" height="26.6489" rx="2.5" ry="2.5" style="stroke:#000000;stroke-width:1;" width="94.0991" x="121.6689" y="89.2446"/><text fill="#000000" font-family="Arial" font-size="11" lengthAdjust="spacing" textLength="80.0991" x="128.6689" y="106.7424">Seat-control bus</text><rect fill="#F4F7FB" height="26.6489" rx="2.5" ry="2.5" style="stroke:#000000;stroke-width:1;" width="94.0991" x="121.6689" y="965.9038"/><text fill="#000000" font-family="Arial" font-size="11" lengthAdjust="spacing" textLength="80.0991" x="128.6689" y="983.4016">Seat-control bus</text><rect fill="#E8F0FE" height="26.6489" rx="2.5" ry="2.5" style="stroke:#000000;stroke-width:1;" width="97.7729" x="245.7681" y="89.2446"/><text fill="#000000" font-family="Arial" font-size="11" lengthAdjust="spacing" textLength="83.7729" x="252.7681" y="106.7424">Vehicle state bus</text><rect fill="#E8F0FE" height="26.6489" rx="2.5" ry="2.5" style="stroke:#000000;stroke-width:1;" width="97.7729" x="245.7681" y="965.9038"/><text fill="#000000" font-family="Arial" font-size="11" lengthAdjust="spacing" textLength="83.7729" x="252.7681" y="983.4016">Vehicle state bus</text><rect fill="#E8F7E8" height="39.2979" rx="2.5" ry="2.5" style="stroke:#000000;stroke-width:1;" width="122.8398" x="391.7913" y="76.5957"/><text fill="#000000" font-family="Arial" font-size="11" lengthAdjust="spacing" textLength="64.1953" x="421.1135" y="94.0935">SEAT_PASS</text><text fill="#000000" font-family="Arial" font-size="11" lengthAdjust="spacing" textLength="108.8398" x="398.7913" y="106.7424">passenger-seat owner</text><rect fill="#E8F7E8" height="39.2979" rx="2.5" ry="2.5" style="stroke:#000000;stroke-width:1;" width="122.8398" x="391.7913" y="965.9038"/><text fill="#000000" font-family="Arial" font-size="11" lengthAdjust="spacing" textLength="64.1953" x="421.1135" y="983.4016">SEAT_PASS</text><text fill="#000000" font-family="Arial" font-size="11" lengthAdjust="spacing" textLength="108.8398" x="398.7913" y="996.0505">passenger-seat owner</text><rect fill="#FFF4CC" height="26.6489" rx="2.5" ry="2.5" style="stroke:#000000;stroke-width:1;" width="138.7383" x="665.3694" y="89.2446"/><text fill="#000000" font-family="Arial" font-size="11" lengthAdjust="spacing" textLength="124.7383" x="672.3694" y="106.7424">Passenger-seat state bus</text><rect fill="#FFF4CC" height="26.6489" rx="2.5" ry="2.5" style="stroke:#000000;stroke-width:1;" width="138.7383" x="665.3694" y="965.9038"/><text fill="#000000" font-family="Arial" font-size="11" lengthAdjust="spacing" textLength="124.7383" x="672.3694" y="983.4016">Passenger-seat state bus</text><rect fill="#FCE8FF" height="39.2979" rx="2.5" ry="2.5" style="stroke:#000000;stroke-width:1;" width="91.0269" x="875.8403" y="76.5957"/><text fill="#000000" font-family="Arial" font-size="11" lengthAdjust="spacing" textLength="56.8477" x="892.9299" y="94.0935">Observers /</text><text fill="#000000" font-family="Arial" font-size="11" lengthAdjust="spacing" textLength="77.0269" x="882.8403" y="106.7424">comfort readers</text><rect fill="#FCE8FF" height="39.2979" rx="2.5" ry="2.5" style="stroke:#000000;stroke-width:1;" width="91.0269" x="875.8403" y="965.9038"/><text fill="#000000" font-family="Arial" font-size="11" lengthAdjust="spacing" textLength="56.8477" x="892.9299" y="983.4016">Observers /</text><text fill="#000000" font-family="Arial" font-size="11" lengthAdjust="spacing" textLength="77.0269" x="882.8403" y="996.0505">comfort readers</text><rect fill="#FFFFFF" height="627.521" style="stroke:#000000;stroke-width:1;" width="10" x="448.2112" y="238.1382"/><rect fill="#FFFFFF" height="3" style="stroke:#FFFFFF;stroke-width:1;" width="875.1982" x="106.6689" y="146.218"/><line style="stroke:#000000;stroke-width:0.5;" x1="106.6689" x2="981.8672" y1="146.218" y2="146.218"/><line style="stroke:#000000;stroke-width:0.5;" x1="106.6689" x2="981.8672" y1="149.218" y2="149.218"/><rect fill="#FFFFFF" height="20.6489" style="stroke:#000000;stroke-width:1;" width="135.043" x="476.7466" y="136.8936"/><text fill="#000000" font-family="Arial" font-size="11" font-weight="bold" lengthAdjust="spacing" textLength="117.9868" x="482.7466" y="151.3914">Passenger Seat Inputs</text><polygon fill="#000000" points="441.2112,194.8403,451.2112,198.8403,441.2112,202.8403,445.2112,198.8403" style="stroke:#000000;stroke-width:1;"/><line style="stroke:#000000;stroke-width:1;" x1="168.7185" x2="447.2112" y1="198.8403" y2="198.8403"/><text fill="#000000" font-family="Arial" font-size="11" lengthAdjust="spacing" textLength="94.7515" x="263.5891" y="182.0403">frmSeatControlMsg</text><text fill="#000000" font-family="Arial" font-size="11" lengthAdjust="spacing" textLength="260.4927" x="180.7185" y="194.6892">PassengerSeatCmd / SeatHeatLevel / SeatVentLevel</text><polygon fill="#000000" points="436.2112,234.1382,446.2112,238.1382,436.2112,242.1382,440.2112,238.1382" style="stroke:#000000;stroke-width:1;"/><line style="stroke:#000000;stroke-width:1;" x1="294.6545" x2="442.2112" y1="238.1382" y2="238.1382"/><text fill="#000000" font-family="Arial" font-size="11" lengthAdjust="spacing" textLength="118.6045" x="312.1306" y="221.3381">frmVehicleStateCanMsg</text><text fill="#000000" font-family="Arial" font-size="11" lengthAdjust="spacing" textLength="57.4707" x="342.6975" y="233.9871">gDriveState</text><line style="stroke:#000000;stroke-width:1;" x1="458.2112" x2="500.2112" y1="277.436" y2="277.436"/><line style="stroke:#000000;stroke-width:1;" x1="500.2112" x2="500.2112" y1="277.436" y2="290.436"/><line style="stroke:#000000;stroke-width:1;" x1="459.2112" x2="500.2112" y1="290.436" y2="290.436"/><polygon fill="#000000" points="469.2112,286.436,459.2112,290.436,469.2112,294.436,465.2112,290.436" style="stroke:#000000;stroke-width:1;"/><text fill="#000000" font-family="Arial" font-size="11" lengthAdjust="spacing" textLength="96.916" x="509.0608" y="260.636">seatCtrlInputStale =</text><text fill="#000000" font-family="Arial" font-size="11" lengthAdjust="spacing" textLength="184.6152" x="465.2112" y="273.2849">ethIsRecentTick(gSeatCtrlRxMs, 300)</text><line style="stroke:#000000;stroke-width:1;" x1="458.2112" x2="500.2112" y1="329.7339" y2="329.7339"/><line style="stroke:#000000;stroke-width:1;" x1="500.2112" x2="500.2112" y1="329.7339" y2="342.7339"/><line style="stroke:#000000;stroke-width:1;" x1="459.2112" x2="500.2112" y1="342.7339" y2="342.7339"/><polygon fill="#000000" points="469.2112,338.7339,459.2112,342.7339,469.2112,346.7339,465.2112,342.7339" style="stroke:#000000;stroke-width:1;"/><text fill="#000000" font-family="Arial" font-size="11" lengthAdjust="spacing" textLength="93.2583" x="509.0608" y="312.9338">vehicleInputStale =</text><text fill="#000000" font-family="Arial" font-size="11" lengthAdjust="spacing" textLength="180.9575" x="465.2112" y="325.5828">ethIsRecentTick(gVehicleRxMs, 300)</text><line style="stroke:#000000;stroke-width:1;" x1="458.2112" x2="500.2112" y1="382.0317" y2="382.0317"/><line style="stroke:#000000;stroke-width:1;" x1="500.2112" x2="500.2112" y1="382.0317" y2="395.0317"/><line style="stroke:#000000;stroke-width:1;" x1="459.2112" x2="500.2112" y1="395.0317" y2="395.0317"/><polygon fill="#000000" points="469.2112,391.0317,459.2112,395.0317,469.2112,399.0317,465.2112,395.0317" style="stroke:#000000;stroke-width:1;"/><text fill="#000000" font-family="Arial" font-size="11" lengthAdjust="spacing" textLength="116.7837" x="487.0769" y="365.2317">if seat-control stale then</text><text fill="#000000" font-family="Arial" font-size="11" lengthAdjust="spacing" textLength="160.5151" x="465.2112" y="377.8806">seatCmd = 0 / heat = 0 / vent = 0</text><line style="stroke:#000000;stroke-width:1;" x1="458.2112" x2="500.2112" y1="434.3296" y2="434.3296"/><line style="stroke:#000000;stroke-width:1;" x1="500.2112" x2="500.2112" y1="434.3296" y2="447.3296"/><line style="stroke:#000000;stroke-width:1;" x1="459.2112" x2="500.2112" y1="447.3296" y2="447.3296"/><polygon fill="#000000" points="469.2112,443.3296,459.2112,447.3296,469.2112,451.3296,465.2112,447.3296" style="stroke:#000000;stroke-width:1;"/><text fill="#000000" font-family="Arial" font-size="11" lengthAdjust="spacing" textLength="93.5537" x="465.2112" y="417.5295">if vehicle stale then</text><text fill="#000000" font-family="Arial" font-size="11" lengthAdjust="spacing" textLength="68.1807" x="477.8977" y="430.1785">driveState = 3</text><line style="stroke:#000000;stroke-width:1;" x1="458.2112" x2="500.2112" y1="486.6274" y2="486.6274"/><line style="stroke:#000000;stroke-width:1;" x1="500.2112" x2="500.2112" y1="486.6274" y2="499.6274"/><line style="stroke:#000000;stroke-width:1;" x1="459.2112" x2="500.2112" y1="499.6274" y2="499.6274"/><polygon fill="#000000" points="469.2112,495.6274,459.2112,499.6274,469.2112,503.6274,465.2112,499.6274" style="stroke:#000000;stroke-width:1;"/><text fill="#000000" font-family="Arial" font-size="11" lengthAdjust="spacing" textLength="135.1475" x="465.2112" y="469.8274">position changes only when</text><text fill="#000000" font-family="Arial" font-size="11" lengthAdjust="spacing" textLength="74.6045" x="495.4827" y="482.4763">driveState == 0</text><line style="stroke:#000000;stroke-width:1;" x1="458.2112" x2="500.2112" y1="538.9253" y2="538.9253"/><line style="stroke:#000000;stroke-width:1;" x1="500.2112" x2="500.2112" y1="538.9253" y2="551.9253"/><line style="stroke:#000000;stroke-width:1;" x1="459.2112" x2="500.2112" y1="551.9253" y2="551.9253"/><polygon fill="#000000" points="469.2112,547.9253,459.2112,551.9253,469.2112,555.9253,465.2112,551.9253" style="stroke:#000000;stroke-width:1;"/><text fill="#000000" font-family="Arial" font-size="11" lengthAdjust="spacing" textLength="117.3853" x="505.1104" y="522.1252">applySeatDelta() moves</text><text fill="#000000" font-family="Arial" font-size="11" lengthAdjust="spacing" textLength="197.1836" x="465.2112" y="534.7742">SeatPassPos by +/-5 per command step</text><path d="M462.6689,564.9253 L462.6689,637.9253 L622.6689,637.9253 L622.6689,574.9253 L612.6689,564.9253 L462.6689,564.9253 " fill="#FFFFFF" style="stroke:#000000;stroke-width:1;"/><path d="M612.6689,564.9253 L612.6689,574.9253 L622.6689,574.9253 L612.6689,564.9253 " fill="#FFFFFF" style="stroke:#000000;stroke-width:1;"/><text fill="#000000" font-family="Arial" font-size="11" lengthAdjust="spacing" textLength="139.4229" x="468.6689" y="580.4231">Representative gating inputs</text><text fill="#000000" font-family="Arial" font-size="11" lengthAdjust="spacing" textLength="105.1606" x="468.6689" y="593.072">- PassengerSeatCmd</text><text fill="#000000" font-family="Arial" font-size="11" lengthAdjust="spacing" textLength="78.8799" x="468.6689" y="605.7209">- SeatHeatLevel</text><text fill="#000000" font-family="Arial" font-size="11" lengthAdjust="spacing" textLength="78.2729" x="468.6689" y="618.3699">- SeatVentLevel</text><text fill="#000000" font-family="Arial" font-size="11" lengthAdjust="spacing" textLength="64.1899" x="468.6689" y="631.0188">- gDriveState</text><rect fill="#FFFFFF" height="3" style="stroke:#FFFFFF;stroke-width:1;" width="875.1982" x="106.6689" y="662.4944"/><line style="stroke:#000000;stroke-width:0.5;" x1="106.6689" x2="981.8672" y1="662.4944" y2="662.4944"/><line style="stroke:#000000;stroke-width:0.5;" x1="106.6689" x2="981.8672" y1="665.4944" y2="665.4944"/><rect fill="#FFFFFF" height="20.6489" style="stroke:#000000;stroke-width:1;" width="141.7729" x="473.3816" y="653.1699"/><text fill="#000000" font-family="Arial" font-size="11" font-weight="bold" lengthAdjust="spacing" textLength="124.7168" x="479.3816" y="667.6677">Passenger Seat Publish</text><polygon fill="#000000" points="722.7385,711.1167,732.7385,715.1167,722.7385,719.1167,726.7385,715.1167" style="stroke:#000000;stroke-width:1;"/><line style="stroke:#000000;stroke-width:1;" x1="458.2112" x2="728.7385" y1="715.1167" y2="715.1167"/><text fill="#000000" font-family="Arial" font-size="11" lengthAdjust="spacing" textLength="109.4307" x="541.7595" y="698.3167">frmSeatPassStateMsg</text><text fill="#000000" font-family="Arial" font-size="11" lengthAdjust="spacing" textLength="252.5273" x="470.2112" y="710.9656">SeatPassPos / SeatPassHeatLvl / SeatPassVentLvl</text><path d="M462.6689,728.1167 L462.6689,788.1167 L596.6689,788.1167 L596.6689,738.1167 L586.6689,728.1167 L462.6689,728.1167 " fill="#FFFFFF" style="stroke:#000000;stroke-width:1;"/><path d="M586.6689,728.1167 L586.6689,738.1167 L596.6689,738.1167 L586.6689,728.1167 " fill="#FFFFFF" style="stroke:#000000;stroke-width:1;"/><text fill="#000000" font-family="Arial" font-size="11" lengthAdjust="spacing" textLength="113.126" x="468.6689" y="743.6145">Representative outputs</text><text fill="#000000" font-family="Arial" font-size="11" lengthAdjust="spacing" textLength="72.7568" x="468.6689" y="756.2634">- SeatPassPos</text><text fill="#000000" font-family="Arial" font-size="11" lengthAdjust="spacing" textLength="91.0991" x="468.6689" y="768.9124">- SeatPassHeatLvl</text><text fill="#000000" font-family="Arial" font-size="11" lengthAdjust="spacing" textLength="90.4922" x="468.6689" y="781.5613">- SeatPassVentLvl</text><rect fill="#FFFFFF" height="3" style="stroke:#FFFFFF;stroke-width:1;" width="875.1982" x="106.6689" y="813.0369"/><line style="stroke:#000000;stroke-width:0.5;" x1="106.6689" x2="981.8672" y1="813.0369" y2="813.0369"/><line style="stroke:#000000;stroke-width:0.5;" x1="106.6689" x2="981.8672" y1="816.0369" y2="816.0369"/><rect fill="#FFFFFF" height="20.6489" style="stroke:#000000;stroke-width:1;" width="131.3638" x="478.5862" y="803.7124"/><text fill="#000000" font-family="Arial" font-size="11" font-weight="bold" lengthAdjust="spacing" textLength="114.3076" x="484.5862" y="818.2102">Downstream Visibility</text><polygon fill="#000000" points="909.3538,861.6592,919.3538,865.6592,909.3538,869.6592,913.3538,865.6592" style="stroke:#000000;stroke-width:1;"/><line style="stroke:#000000;stroke-width:1;" x1="734.7385" x2="915.3538" y1="865.6592" y2="865.6592"/><text fill="#000000" font-family="Arial" font-size="11" lengthAdjust="spacing" textLength="162.6152" x="746.7385" y="848.8591">passenger-seat comfort visibility /</text><text fill="#000000" font-family="Arial" font-size="11" lengthAdjust="spacing" textLength="122.9067" x="766.5928" y="861.5081">seat and cabin observers</text><path d="M114.6689,878.6592 L114.6689,951.6592 L974.6689,951.6592 L974.6689,888.6592 L964.6689,878.6592 L114.6689,878.6592 " fill="#FFFFFF" style="stroke:#000000;stroke-width:1;"/><path d="M964.6689,878.6592 L964.6689,888.6592 L974.6689,888.6592 L964.6689,878.6592 " fill="#FFFFFF" style="stroke:#000000;stroke-width:1;"/><text fill="#000000" font-family="Arial" font-size="11" lengthAdjust="spacing" textLength="143.0752" x="360.2021" y="894.157">Representative runtime chain</text><text fill="#000000" font-family="Arial" font-size="11" lengthAdjust="spacing" textLength="360.1318" x="360.2021" y="906.8059">1. Passenger seat-control command and vehicle state reach SEAT_PASS</text><text fill="#000000" font-family="Arial" font-size="11" lengthAdjust="spacing" textLength="334.4634" x="360.2021" y="919.4548">2. SEAT_PASS applies freshness gates and parked-only motion rule</text><text fill="#000000" font-family="Arial" font-size="11" lengthAdjust="spacing" textLength="275.7627" x="360.2021" y="932.1038">3. SEAT_PASS updates seat position and comfort levels</text><text fill="#000000" font-family="Arial" font-size="11" lengthAdjust="spacing" textLength="350.958" x="360.2021" y="944.7527">4. SEAT_PASS publishes passenger-seat state for downstream readers</text><!--SRC=[ZLLRJzim57xthpY35n2Kmc028NLIALH36bj544-L9ZSvJImSExETTEpNxzXDqgJSLgbgVVc-S_lEyIUNOOvGI2uKiqz25Tpm71OyVagDBbKoqL8Rs9s6J-T6WajUIZVLoltWn30sWilNpoFn5-7af7DeyNU9AiOxj9QdE9OYLH2ZScWwjmpQGYlRtBf2gLTZO_GAd2cHCIUSH9XnQr6bQ212xc2I9_2W8RePFy1i74KmqrOueHLCTBxKna54nhY4AR7DrLxHmYt11p7vQxI4MESvLmaSG8MPYCcETTmX3Bv27m55mp-4pA-7X51EI1us0sgVCOh8YLWKN3dOYRgM5gNT0Mw3znCdATLdq_FfLH_ns7EYWT0kxDvSJ8-dDri6AFfVFlgvQhqT16_rIg5fxVdS1ORpcui-mwmFwzlrqAlI1bMSJIPzvC-5HLEXiJ2SgxZEkK6Uq5P0qmL2JiZgbB7HQBk0jweedONHYB4c9PJqrjjBM9ey7AppTsVJkMefmW4fO1W0t-Zx7IkKzVgH2XFMp6Vk1MkTvCZ7Ek4gCAVNHbJhBSPZ9ogVXmR6MdoVomQ_ZGoX49OADvehTDcjlKSlymSHF-sbKNtj_i-TFOJJu-FzjmXh3Nx0L_l_CPrOziLk0oLD0ZLNjixW28uRHQ__UbNxl- -GTbgbvKlQ_17uz2rmsqHnngcE5hIIpx1wmV2EVLuKyjclhr4wlhSFkQxGpbLpXUO0B9xXO3Zu0WM9hUbmwx1WIXEx4Mb67RBSrFSU2nf253WrSuMGqezAGGI5iW5iouwsUhAhrnlP3Q2h9oJhtl1hNJ0h5rBOh6s3Ri2-zTesy0U1BiYr6-omZICuLCdEJd2falyPjovT7N67lxEg-Jix3Nyln6iQFjRHACZXKLYn45AuvpP27nK5wAV39MnDhMQCL1lOS2rLy2MC-K8eqCtWOGc-RDLrg2G9qqpQGszhErHJqkocvunqI0_YoL6dBg- -3_xRVo4elZY3TWAppqURHH2f87aloMQcw5tpcgArfw4f-eJ982W_rw4RJ2cHdNO9oY89WFxJ4v9GvqXwfLbsraKLQpKHhdXjhXCEaarnwc6zATu_]--></g></svg>