<svg xmlns="http://www.w3.org/2000/svg" xmlns:xlink="http://www.w3.org/1999/xlink" contentStyleType="text/css" height="1050px" preserveAspectRatio="none" style="width:1021px;height:1050px;background:#FFFFFF;" version="1.1" viewBox="0 0 1021 1050" width="1021px" zoomAndPan="magnify"><title>Popup Guide And Theme To HUD Mode Brightness Signal Flow</title><defs/><g><text fill="#000000" font-family="Arial" font-size="22" font-weight="bold" lengthAdjust="spacing" textLength="662.4492" x="178.2495" y="35.9956">Popup Guide And Theme To HUD Mode Brightness Signal Flow</text><text fill="#000000" font-family="Arial" font-size="22" font-weight="bold" lengthAdjust="spacing" textLength="804.9121" x="107.0181" y="61.2935">(HMI popup + navigation guide + cluster theme -&gt; HUD mode and brightness)</text><rect fill="#FFFFFF" height="627.521" style="stroke:#000000;stroke-width:1;" width="10" x="511.8591" y="277.436"/><line style="stroke:#000000;stroke-width:1;" x1="64" x2="64" y1="116.8936" y2="1006.2017"/><line style="stroke:#000000;stroke-width:1;" x1="195.5991" x2="195.5991" y1="116.8936" y2="1006.2017"/><line style="stroke:#000000;stroke-width:1;" x1="334.4951" x2="334.4951" y1="116.8936" y2="1006.2017"/><line style="stroke:#000000;stroke-width:1;" x1="516.3604" x2="516.3604" y1="116.8936" y2="1006.2017"/><line style="stroke:#000000;stroke-width:1;" x1="757.2646" x2="757.2646" y1="116.8936" y2="1006.2017"/><line style="stroke:#000000;stroke-width:1;" x1="958.4722" x2="958.4722" y1="116.8936" y2="1006.2017"/><rect fill="#F4F7FB" height="26.6489" rx="2.5" ry="2.5" style="stroke:#000000;stroke-width:1;" width="88.5991" x="20" y="89.2446"/><text fill="#000000" font-family="Arial" font-size="11" lengthAdjust="spacing" textLength="74.5991" x="27" y="106.7424">HMI popup bus</text><rect fill="#F4F7FB" height="26.6489" rx="2.5" ry="2.5" style="stroke:#000000;stroke-width:1;" width="88.5991" x="20" y="1005.2017"/><text fill="#000000" font-family="Arial" font-size="11" lengthAdjust="spacing" textLength="74.5991" x="27" y="1022.6995">HMI popup bus</text><rect fill="#E8F0FE" height="26.6489" rx="2.5" ry="2.5" style="stroke:#000000;stroke-width:1;" width="114.896" x="138.5991" y="89.2446"/><text fill="#000000" font-family="Arial" font-size="11" lengthAdjust="spacing" textLength="100.896" x="145.5991" y="106.7424">Navigation route bus</text><rect fill="#E8F0FE" height="26.6489" rx="2.5" ry="2.5" style="stroke:#000000;stroke-width:1;" width="114.896" x="138.5991" y="1005.2017"/><text fill="#000000" font-family="Arial" font-size="11" lengthAdjust="spacing" textLength="100.896" x="145.5991" y="1022.6995">Navigation route bus</text><rect fill="#FCE8FF" height="26.6489" rx="2.5" ry="2.5" style="stroke:#000000;stroke-width:1;" width="103.2622" x="283.4951" y="89.2446"/><text fill="#000000" font-family="Arial" font-size="11" lengthAdjust="spacing" textLength="89.2622" x="290.4951" y="106.7424">Cluster theme bus</text><rect fill="#FCE8FF" height="26.6489" rx="2.5" ry="2.5" style="stroke:#000000;stroke-width:1;" width="103.2622" x="283.4951" y="1005.2017"/><text fill="#000000" font-family="Arial" font-size="11" lengthAdjust="spacing" textLength="89.2622" x="290.4951" y="1022.6995">Cluster theme bus</text><rect fill="#E8F7E8" height="39.2979" rx="2.5" ry="2.5" style="stroke:#000000;stroke-width:1;" width="120.9976" x="456.3604" y="76.5957"/><text fill="#000000" font-family="Arial" font-size="11" lengthAdjust="spacing" textLength="23.8315" x="504.9434" y="94.0935">HUD</text><text fill="#000000" font-family="Arial" font-size="11" lengthAdjust="spacing" textLength="106.9976" x="463.3604" y="106.7424">warning-render owner</text><rect fill="#E8F7E8" height="39.2979" rx="2.5" ry="2.5" style="stroke:#000000;stroke-width:1;" width="120.9976" x="456.3604" y="1005.2017"/><text fill="#000000" font-family="Arial" font-size="11" lengthAdjust="spacing" textLength="23.8315" x="504.9434" y="1022.6995">HUD</text><text fill="#000000" font-family="Arial" font-size="11" lengthAdjust="spacing" textLength="106.9976" x="463.3604" y="1035.3484">warning-render owner</text><rect fill="#FFF4CC" height="26.6489" rx="2.5" ry="2.5" style="stroke:#000000;stroke-width:1;" width="85.5269" x="715.2646" y="89.2446"/><text fill="#000000" font-family="Arial" font-size="11" lengthAdjust="spacing" textLength="71.5269" x="722.2646" y="106.7424">HUD state bus</text><rect fill="#FFF4CC" height="26.6489" rx="2.5" ry="2.5" style="stroke:#000000;stroke-width:1;" width="85.5269" x="715.2646" y="1005.2017"/><text fill="#000000" font-family="Arial" font-size="11" lengthAdjust="spacing" textLength="71.5269" x="722.2646" y="1022.6995">HUD state bus</text><rect fill="#FFF4CC" height="39.2979" rx="2.5" ry="2.5" style="stroke:#000000;stroke-width:1;" width="82.4761" x="917.4722" y="76.5957"/><text fill="#000000" font-family="Arial" font-size="11" lengthAdjust="spacing" textLength="56.8477" x="930.2864" y="94.0935">Observers /</text><text fill="#000000" font-family="Arial" font-size="11" lengthAdjust="spacing" textLength="68.4761" x="924.4722" y="106.7424">visual readers</text><rect fill="#FFF4CC" height="39.2979" rx="2.5" ry="2.5" style="stroke:#000000;stroke-width:1;" width="82.4761" x="917.4722" y="1005.2017"/><text fill="#000000" font-family="Arial" font-size="11" lengthAdjust="spacing" textLength="56.8477" x="930.2864" y="1022.6995">Observers /</text><text fill="#000000" font-family="Arial" font-size="11" lengthAdjust="spacing" textLength="68.4761" x="924.4722" y="1035.3484">visual readers</text><rect fill="#FFFFFF" height="627.521" style="stroke:#000000;stroke-width:1;" width="10" x="511.8591" y="277.436"/><rect fill="#FFFFFF" height="3" style="stroke:#FFFFFF;stroke-width:1;" width="1009.9482" x="5" y="146.218"/><line style="stroke:#000000;stroke-width:0.5;" x1="5" x2="1014.9482" y1="146.218" y2="146.218"/><line style="stroke:#000000;stroke-width:0.5;" x1="5" x2="1014.9482" y1="149.218" y2="149.218"/><rect fill="#FFFFFF" height="20.6489" style="stroke:#000000;stroke-width:1;" width="76.9385" x="471.5049" y="136.8936"/><text fill="#000000" font-family="Arial" font-size="11" font-weight="bold" lengthAdjust="spacing" textLength="59.8823" x="477.5049" y="151.3914">HUD Inputs</text><polygon fill="#000000" points="504.8591,194.8403,514.8591,198.8403,504.8591,202.8403,508.8591,198.8403" style="stroke:#000000;stroke-width:1;"/><line style="stroke:#000000;stroke-width:1;" x1="64.2996" x2="510.8591" y1="198.8403" y2="198.8403"/><text fill="#000000" font-family="Arial" font-size="11" lengthAdjust="spacing" textLength="113.7061" x="233.7263" y="182.0403">frmHmiPopupStateMsg</text><text fill="#000000" font-family="Arial" font-size="11" lengthAdjust="spacing" textLength="136.9629" x="222.0979" y="194.6892">PopupPriority / PopupActive</text><polygon fill="#000000" points="504.8591,234.1382,514.8591,238.1382,504.8591,242.1382,508.8591,238.1382" style="stroke:#000000;stroke-width:1;"/><line style="stroke:#000000;stroke-width:1;" x1="196.0471" x2="510.8591" y1="238.1382" y2="238.1382"/><text fill="#000000" font-family="Arial" font-size="11" lengthAdjust="spacing" textLength="117.9922" x="297.457" y="221.3381">frmNavigationRouteMsg</text><text fill="#000000" font-family="Arial" font-size="11" lengthAdjust="spacing" textLength="53.8076" x="329.5493" y="233.9871">GuideType</text><polygon fill="#000000" points="499.8591,273.436,509.8591,277.436,499.8591,281.436,503.8591,277.436" style="stroke:#000000;stroke-width:1;"/><line style="stroke:#000000;stroke-width:1;" x1="335.1262" x2="505.8591" y1="277.436" y2="277.436"/><text fill="#000000" font-family="Arial" font-size="11" lengthAdjust="spacing" textLength="105.7407" x="370.6223" y="260.636">frmClusterThemeMsg</text><text fill="#000000" font-family="Arial" font-size="11" lengthAdjust="spacing" textLength="157.7329" x="344.6262" y="273.2849">ThemeMode / ClusterBrightness</text><line style="stroke:#000000;stroke-width:1;" x1="521.8591" x2="563.8591" y1="304.085" y2="304.085"/><line style="stroke:#000000;stroke-width:1;" x1="563.8591" x2="563.8591" y1="304.085" y2="317.085"/><line style="stroke:#000000;stroke-width:1;" x1="522.8591" x2="563.8591" y1="317.085" y2="317.085"/><polygon fill="#000000" points="532.8591,313.085,522.8591,317.085,532.8591,321.085,528.8591,317.085" style="stroke:#000000;stroke-width:1;"/><text fill="#000000" font-family="Arial" font-size="11" lengthAdjust="spacing" textLength="202.1143" x="528.8591" y="299.9338">popup/guide/theme lease + hold windows</text><line style="stroke:#000000;stroke-width:1;" x1="521.8591" x2="563.8591" y1="356.3828" y2="356.3828"/><line style="stroke:#000000;stroke-width:1;" x1="563.8591" x2="563.8591" y1="356.3828" y2="369.3828"/><line style="stroke:#000000;stroke-width:1;" x1="522.8591" x2="563.8591" y1="369.3828" y2="369.3828"/><polygon fill="#000000" points="532.8591,365.3828,522.8591,369.3828,532.8591,373.3828,528.8591,369.3828" style="stroke:#000000;stroke-width:1;"/><text fill="#000000" font-family="Arial" font-size="11" lengthAdjust="spacing" textLength="102.7437" x="564.6226" y="339.5828">if popup expired then</text><text fill="#000000" font-family="Arial" font-size="11" lengthAdjust="spacing" textLength="174.2705" x="528.8591" y="352.2317">PopupPriority = 0 / PopupActive = 0</text><line style="stroke:#000000;stroke-width:1;" x1="521.8591" x2="563.8591" y1="408.6807" y2="408.6807"/><line style="stroke:#000000;stroke-width:1;" x1="563.8591" x2="563.8591" y1="408.6807" y2="421.6807"/><line style="stroke:#000000;stroke-width:1;" x1="522.8591" x2="563.8591" y1="421.6807" y2="421.6807"/><polygon fill="#000000" points="532.8591,417.6807,522.8591,421.6807,532.8591,425.6807,528.8591,421.6807" style="stroke:#000000;stroke-width:1;"/><text fill="#000000" font-family="Arial" font-size="11" lengthAdjust="spacing" textLength="99.0698" x="528.8591" y="391.8806">if guide expired then</text><text fill="#000000" font-family="Arial" font-size="11" lengthAdjust="spacing" textLength="72.4614" x="542.1633" y="404.5295">GuideType = 0</text><line style="stroke:#000000;stroke-width:1;" x1="521.8591" x2="563.8591" y1="460.9785" y2="460.9785"/><line style="stroke:#000000;stroke-width:1;" x1="563.8591" x2="563.8591" y1="460.9785" y2="473.9785"/><line style="stroke:#000000;stroke-width:1;" x1="522.8591" x2="563.8591" y1="473.9785" y2="473.9785"/><polygon fill="#000000" points="532.8591,469.9785,522.8591,473.9785,532.8591,477.9785,528.8591,473.9785" style="stroke:#000000;stroke-width:1;"/><text fill="#000000" font-family="Arial" font-size="11" lengthAdjust="spacing" textLength="102.7275" x="560.6533" y="444.1785">if theme expired then</text><text fill="#000000" font-family="Arial" font-size="11" lengthAdjust="spacing" textLength="166.3159" x="528.8591" y="456.8274">ThemeMode = 0 / Brightness = 18</text><line style="stroke:#000000;stroke-width:1;" x1="521.8591" x2="563.8591" y1="525.9253" y2="525.9253"/><line style="stroke:#000000;stroke-width:1;" x1="563.8591" x2="563.8591" y1="525.9253" y2="538.9253"/><line style="stroke:#000000;stroke-width:1;" x1="522.8591" x2="563.8591" y1="538.9253" y2="538.9253"/><polygon fill="#000000" points="532.8591,534.9253,522.8591,538.9253,532.8591,542.9253,528.8591,538.9253" style="stroke:#000000;stroke-width:1;"/><text fill="#000000" font-family="Arial" font-size="11" lengthAdjust="spacing" textLength="55.3491" x="577.3145" y="496.4763">hudMode =</text><text fill="#000000" font-family="Arial" font-size="11" lengthAdjust="spacing" textLength="152.2598" x="528.8591" y="509.1252">popup active &amp; priority&gt;=5 ? 2 :</text><text fill="#000000" font-family="Arial" font-size="11" lengthAdjust="spacing" textLength="97.5444" x="556.2168" y="521.7742">guideType&gt;0 ? 3 : 0</text><line style="stroke:#000000;stroke-width:1;" x1="521.8591" x2="563.8591" y1="578.2231" y2="578.2231"/><line style="stroke:#000000;stroke-width:1;" x1="563.8591" x2="563.8591" y1="578.2231" y2="591.2231"/><line style="stroke:#000000;stroke-width:1;" x1="522.8591" x2="563.8591" y1="591.2231" y2="591.2231"/><polygon fill="#000000" points="532.8591,587.2231,522.8591,591.2231,532.8591,595.2231,528.8591,591.2231" style="stroke:#000000;stroke-width:1;"/><text fill="#000000" font-family="Arial" font-size="11" lengthAdjust="spacing" textLength="194.165" x="528.8591" y="561.4231">if popupActive == 1 and brightness &lt; 24</text><text fill="#000000" font-family="Arial" font-size="11" lengthAdjust="spacing" textLength="99.9883" x="575.9475" y="574.072">then brightness = 24</text><path d="M526,604.2231 L526,677.2231 L690,677.2231 L690,614.2231 L680,604.2231 L526,604.2231 " fill="#FFFFFF" style="stroke:#000000;stroke-width:1;"/><path d="M680,604.2231 L680,614.2231 L690,614.2231 L680,604.2231 " fill="#FFFFFF" style="stroke:#000000;stroke-width:1;"/><text fill="#000000" font-family="Arial" font-size="11" lengthAdjust="spacing" textLength="139.4229" x="532" y="619.7209">Representative gating inputs</text><text fill="#000000" font-family="Arial" font-size="11" lengthAdjust="spacing" textLength="143.6821" x="532" y="632.3699">- PopupPriority / PopupActive</text><text fill="#000000" font-family="Arial" font-size="11" lengthAdjust="spacing" textLength="60.5269" x="532" y="645.0188">- GuideType</text><text fill="#000000" font-family="Arial" font-size="11" lengthAdjust="spacing" textLength="68.4707" x="532" y="657.6677">- ThemeMode</text><text fill="#000000" font-family="Arial" font-size="11" lengthAdjust="spacing" textLength="93.5322" x="532" y="670.3167">- ClusterBrightness</text><rect fill="#FFFFFF" height="3" style="stroke:#FFFFFF;stroke-width:1;" width="1009.9482" x="5" y="701.7922"/><line style="stroke:#000000;stroke-width:0.5;" x1="5" x2="1014.9482" y1="701.7922" y2="701.7922"/><line style="stroke:#000000;stroke-width:0.5;" x1="5" x2="1014.9482" y1="704.7922" y2="704.7922"/><rect fill="#FFFFFF" height="20.6489" style="stroke:#000000;stroke-width:1;" width="83.6685" x="468.1399" y="692.4678"/><text fill="#000000" font-family="Arial" font-size="11" font-weight="bold" lengthAdjust="spacing" textLength="66.6123" x="474.1399" y="706.9656">HUD Publish</text><polygon fill="#000000" points="746.0281,750.4146,756.0281,754.4146,746.0281,758.4146,750.0281,754.4146" style="stroke:#000000;stroke-width:1;"/><line style="stroke:#000000;stroke-width:1;" x1="521.8591" x2="752.0281" y1="754.4146" y2="754.4146"/><text fill="#000000" font-family="Arial" font-size="11" lengthAdjust="spacing" textLength="82.5269" x="598.6802" y="737.6145">frmHudStateMsg</text><text fill="#000000" font-family="Arial" font-size="11" lengthAdjust="spacing" textLength="212.1689" x="533.8591" y="750.2634">HudMode / HudGuideType / HudBrightness</text><path d="M526,767.4146 L526,827.4146 L660,827.4146 L660,777.4146 L650,767.4146 L526,767.4146 " fill="#FFFFFF" style="stroke:#000000;stroke-width:1;"/><path d="M650,767.4146 L650,777.4146 L660,777.4146 L650,767.4146 " fill="#FFFFFF" style="stroke:#000000;stroke-width:1;"/><text fill="#000000" font-family="Arial" font-size="11" lengthAdjust="spacing" textLength="113.126" x="532" y="782.9124">Representative outputs</text><text fill="#000000" font-family="Arial" font-size="11" lengthAdjust="spacing" textLength="54.4146" x="532" y="795.5613">- HudMode</text><text fill="#000000" font-family="Arial" font-size="11" lengthAdjust="spacing" textLength="80.7061" x="532" y="808.2102">- HudGuideType</text><text fill="#000000" font-family="Arial" font-size="11" lengthAdjust="spacing" textLength="78.8691" x="532" y="820.8591">- HudBrightness</text><rect fill="#FFFFFF" height="3" style="stroke:#FFFFFF;stroke-width:1;" width="1009.9482" x="5" y="852.3347"/><line style="stroke:#000000;stroke-width:0.5;" x1="5" x2="1014.9482" y1="852.3347" y2="852.3347"/><line style="stroke:#000000;stroke-width:0.5;" x1="5" x2="1014.9482" y1="855.3347" y2="855.3347"/><rect fill="#FFFFFF" height="20.6489" style="stroke:#000000;stroke-width:1;" width="131.3638" x="444.2922" y="843.0103"/><text fill="#000000" font-family="Arial" font-size="11" font-weight="bold" lengthAdjust="spacing" textLength="114.3076" x="450.2922" y="857.5081">Downstream Visibility</text><polygon fill="#000000" points="946.7102,900.957,956.7102,904.957,946.7102,908.957,950.7102,904.957" style="stroke:#000000;stroke-width:1;"/><line style="stroke:#000000;stroke-width:1;" x1="758.0281" x2="952.7102" y1="904.957" y2="904.957"/><text fill="#000000" font-family="Arial" font-size="11" lengthAdjust="spacing" textLength="176.6821" x="770.0281" y="888.157">HUD mode and brightness visibility /</text><text fill="#000000" font-family="Arial" font-size="11" lengthAdjust="spacing" textLength="79.4761" x="818.6311" y="900.8059">visual observers</text><path d="M14,917.957 L14,990.957 L1008,990.957 L1008,927.957 L998,917.957 L14,917.957 " fill="#FFFFFF" style="stroke:#000000;stroke-width:1;"/><path d="M998,917.957 L998,927.957 L1008,927.957 L998,917.957 " fill="#FFFFFF" style="stroke:#000000;stroke-width:1;"/><text fill="#000000" font-family="Arial" font-size="11" lengthAdjust="spacing" textLength="143.0752" x="359.9243" y="933.4548">Representative runtime chain</text><text fill="#000000" font-family="Arial" font-size="11" lengthAdjust="spacing" textLength="231.1396" x="359.9243" y="946.1038">1. Popup, guide, and theme context reach HUD</text><text fill="#000000" font-family="Arial" font-size="11" lengthAdjust="spacing" textLength="294.0996" x="359.9243" y="958.7527">2. HUD applies freshness and hold windows for each source</text><text fill="#000000" font-family="Arial" font-size="11" lengthAdjust="spacing" textLength="228.0566" x="359.9243" y="971.4016">3. HUD derives final mode and brightness floor</text><text fill="#000000" font-family="Arial" font-size="11" lengthAdjust="spacing" textLength="286.1343" x="359.9243" y="984.0505">4. HUD publishes the effective HUD mode/brightness state</text><!--SRC=[XLNRKjim47tNLsnXfjCEX73hm30DdIJWXeTGXakVygBO6qU38xcw9D2lxqfoOZlGDa-EjEVisTNHweETumAXBBYGp3mBMNBD5p3bwNEkbPFPK1LAmsuIVes836VS5JPHqjvoOkXhmOltzn_4RuIZeyQcmLyEPOfZD8Rds2z4BY55QL4teZIQKacpZXfWeLPzhTKAh7R8c1MsGBXJfIlXknCPYP0PF8Q27XMCdgvWh6Xre4K-jv9Ou84IyG8IOfh8JwFn3PG1lWUIBqNEhL0Iyi2r1sdX32c2sABEPM1SU4PEUQORri-CaM0hKb5oQM6dffqwimFSL1ftazFaB1cqWs_hlDHlYniCRS3kzNboc5ot4SEMh7LuB7it6H8asTBpT3MHAwwba7b7eym8h5OITG3wedoUi-lpDp0mbZSaZLmsS2QOuNGuR4V_c1hKIzG6kXEv5CPHcpLooXMnjBy1ibulfBsHfRC6UZt6OeUg7b_0J2z62n4M7xo4iSadClozqq9fOL-X6xlQJwrO8lFTQgBhjjxxhWPyyCZZQudiiNcY8RvgQjW8mV7B7tONgitQHupxhBurHC0yoOOh77mtMAWRJwX0RhoTvgh8O2LafbQcZH6poY_uKWgDcJzQkLrl3mxRDVkLDppHkssUJTtl8gB8Dg8kFcPjtA0U79stEUOkYw4J6QlWKTv7A2ljbxqly0sEuM8YyxMMoqDQEY7uuVkzMDT8-RQk6to5uzE9z4gRgprQPLBHcOGrKBDmEFTOqXoXqS83d_U4p444vx4E_CjJ7QWTqu5DJ-ZxhI7eLe5Fll7sdPiMmio3kTS5nkiJtUsosjYZgeDT7rAVLlZRoF7VuiZfLLaLO_ngLj5cRAc-efbWBDtP1VmKHan54MpdzKVXL8A_nHT_cuEmh67r453hmS0oR5sRM8-YhTZrVS- -NP9sqWhoPpht3zJHmJeq-6W_28W6JkcXmHVhPquw3_p71q4eByj2eA6ceva7cHxKl8mmenSkm8noEaLs4f4qkqW2RGl_PhnNyAnGIhFJ65x64oS0AGASpJ1QUDsjRWCOvchT_Zy0]--></g></svg>