<svg xmlns="http://www.w3.org/2000/svg" xmlns:xlink="http://www.w3.org/1999/xlink" contentStyleType="text/css" height="958px" preserveAspectRatio="none" style="width:932px;height:958px;background:#FFFFFF;" version="1.1" viewBox="0 0 932 958" width="932px" zoomAndPan="magnify"><title>Rain Light And Wiper Cmd To Wiper Anim Signal Flow</title><defs/><g><text fill="#000000" font-family="Arial" font-size="22" font-weight="bold" lengthAdjust="spacing" textLength="568.3047" x="180.5897" y="35.9956">Rain Light And Wiper Cmd To Wiper Anim Signal Flow</text><text fill="#000000" font-family="Arial" font-size="22" font-weight="bold" lengthAdjust="spacing" textLength="795.7813" x="66.8514" y="61.2935">(rain/light input + manual wiper command -&gt; WIP state and animation frame)</text><rect fill="#FFFFFF" height="574.8721" style="stroke:#000000;stroke-width:1;" width="10" x="380.7212" y="238.1382"/><line style="stroke:#000000;stroke-width:1;" x1="81" x2="81" y1="116.8936" y2="914.2549"/><line style="stroke:#000000;stroke-width:1;" x1="218.8345" x2="218.8345" y1="116.8936" y2="914.2549"/><line style="stroke:#000000;stroke-width:1;" x1="385.0701" x2="385.0701" y1="116.8936" y2="914.2549"/><line style="stroke:#000000;stroke-width:1;" x1="655.1987" x2="655.1987" y1="116.8936" y2="914.2549"/><line style="stroke:#000000;stroke-width:1;" x1="859.4358" x2="859.4358" y1="116.8936" y2="914.2549"/><rect fill="#F4F7FB" height="26.6489" rx="2.5" ry="2.5" style="stroke:#000000;stroke-width:1;" width="122.8345" x="20" y="89.2446"/><text fill="#000000" font-family="Arial" font-size="11" lengthAdjust="spacing" textLength="108.8345" x="27" y="106.7424">Rain / light sensor bus</text><rect fill="#F4F7FB" height="26.6489" rx="2.5" ry="2.5" style="stroke:#000000;stroke-width:1;" width="122.8345" x="20" y="913.2549"/><text fill="#000000" font-family="Arial" font-size="11" lengthAdjust="spacing" textLength="108.8345" x="27" y="930.7527">Rain / light sensor bus</text><rect fill="#E8F0FE" height="39.2979" rx="2.5" ry="2.5" style="stroke:#000000;stroke-width:1;" width="92.8477" x="172.8345" y="76.5957"/><text fill="#000000" font-family="Arial" font-size="11" lengthAdjust="spacing" textLength="72.1499" x="183.1833" y="94.0935">Manual control</text><text fill="#000000" font-family="Arial" font-size="11" lengthAdjust="spacing" textLength="78.8477" x="179.8345" y="106.7424">Cmd::wiperCmd</text><rect fill="#E8F0FE" height="39.2979" rx="2.5" ry="2.5" style="stroke:#000000;stroke-width:1;" width="92.8477" x="172.8345" y="913.2549"/><text fill="#000000" font-family="Arial" font-size="11" lengthAdjust="spacing" textLength="72.1499" x="183.1833" y="930.7527">Manual control</text><text fill="#000000" font-family="Arial" font-size="11" lengthAdjust="spacing" textLength="78.8477" x="179.8345" y="943.4016">Cmd::wiperCmd</text><rect fill="#E8F7E8" height="39.2979" rx="2.5" ry="2.5" style="stroke:#000000;stroke-width:1;" width="73.3022" x="349.0701" y="76.5957"/><text fill="#000000" font-family="Arial" font-size="11" lengthAdjust="spacing" textLength="20.7754" x="375.3335" y="94.0935">WIP</text><text fill="#000000" font-family="Arial" font-size="11" lengthAdjust="spacing" textLength="59.3022" x="356.0701" y="106.7424">wiper owner</text><rect fill="#E8F7E8" height="39.2979" rx="2.5" ry="2.5" style="stroke:#000000;stroke-width:1;" width="73.3022" x="349.0701" y="913.2549"/><text fill="#000000" font-family="Arial" font-size="11" lengthAdjust="spacing" textLength="20.7754" x="375.3335" y="930.7527">WIP</text><text fill="#000000" font-family="Arial" font-size="11" lengthAdjust="spacing" textLength="59.3022" x="356.0701" y="943.4016">wiper owner</text><rect fill="#FFF4CC" height="39.2979" rx="2.5" ry="2.5" style="stroke:#000000;stroke-width:1;" width="87.9814" x="612.1987" y="76.5957"/><text fill="#000000" font-family="Arial" font-size="11" lengthAdjust="spacing" textLength="66.6392" x="622.8699" y="94.0935">Body seams /</text><text fill="#000000" font-family="Arial" font-size="11" lengthAdjust="spacing" textLength="73.9814" x="619.1987" y="106.7424">wiper state bus</text><rect fill="#FFF4CC" height="39.2979" rx="2.5" ry="2.5" style="stroke:#000000;stroke-width:1;" width="87.9814" x="612.1987" y="913.2549"/><text fill="#000000" font-family="Arial" font-size="11" lengthAdjust="spacing" textLength="66.6392" x="622.8699" y="930.7527">Body seams /</text><text fill="#000000" font-family="Arial" font-size="11" lengthAdjust="spacing" textLength="73.9814" x="619.1987" y="943.4016">wiper state bus</text><rect fill="#FCE8FF" height="39.2979" rx="2.5" ry="2.5" style="stroke:#000000;stroke-width:1;" width="91.0483" x="814.4358" y="76.5957"/><text fill="#000000" font-family="Arial" font-size="11" lengthAdjust="spacing" textLength="56.8477" x="831.5361" y="94.0935">Observers /</text><text fill="#000000" font-family="Arial" font-size="11" lengthAdjust="spacing" textLength="77.0483" x="821.4358" y="106.7424">panel renderers</text><rect fill="#FCE8FF" height="39.2979" rx="2.5" ry="2.5" style="stroke:#000000;stroke-width:1;" width="91.0483" x="814.4358" y="913.2549"/><text fill="#000000" font-family="Arial" font-size="11" lengthAdjust="spacing" textLength="56.8477" x="831.5361" y="930.7527">Observers /</text><text fill="#000000" font-family="Arial" font-size="11" lengthAdjust="spacing" textLength="77.0483" x="821.4358" y="943.4016">panel renderers</text><rect fill="#FFFFFF" height="574.8721" style="stroke:#000000;stroke-width:1;" width="10" x="380.7212" y="238.1382"/><rect fill="#FFFFFF" height="3" style="stroke:#FFFFFF;stroke-width:1;" width="920.4841" x="5" y="146.218"/><line style="stroke:#000000;stroke-width:0.5;" x1="5" x2="925.4841" y1="146.218" y2="146.218"/><line style="stroke:#000000;stroke-width:0.5;" x1="5" x2="925.4841" y1="149.218" y2="149.218"/><rect fill="#FFFFFF" height="20.6489" style="stroke:#000000;stroke-width:1;" width="83.6631" x="423.4105" y="136.8936"/><text fill="#000000" font-family="Arial" font-size="11" font-weight="bold" lengthAdjust="spacing" textLength="66.6069" x="429.4105" y="151.3914">Wiper Inputs</text><polygon fill="#000000" points="373.7212,194.8403,383.7212,198.8403,373.7212,202.8403,377.7212,198.8403" style="stroke:#000000;stroke-width:1;"/><line style="stroke:#000000;stroke-width:1;" x1="81.4172" x2="379.7212" y1="198.8403" y2="198.8403"/><text fill="#000000" font-family="Arial" font-size="11" lengthAdjust="spacing" textLength="105.7676" x="180.6854" y="182.0403">frmRainLightAutoMsg</text><text fill="#000000" font-family="Arial" font-size="11" lengthAdjust="spacing" textLength="161.4443" x="152.847" y="194.6892">RainSenseLevel / AutoLightState</text><polygon fill="#000000" points="368.7212,234.1382,378.7212,238.1382,368.7212,242.1382,372.7212,238.1382" style="stroke:#000000;stroke-width:1;"/><line style="stroke:#000000;stroke-width:1;" x1="219.2583" x2="374.7212" y1="238.1382" y2="238.1382"/><text fill="#000000" font-family="Arial" font-size="11" lengthAdjust="spacing" textLength="78.8477" x="260.5659" y="221.3381">Cmd::wiperCmd</text><text fill="#000000" font-family="Arial" font-size="11" lengthAdjust="spacing" textLength="142.4629" x="228.7583" y="233.9871">(when scenarioActiveId == 0)</text><line style="stroke:#000000;stroke-width:1;" x1="390.7212" x2="432.7212" y1="277.436" y2="277.436"/><line style="stroke:#000000;stroke-width:1;" x1="432.7212" x2="432.7212" y1="277.436" y2="290.436"/><line style="stroke:#000000;stroke-width:1;" x1="391.7212" x2="432.7212" y1="290.436" y2="290.436"/><polygon fill="#000000" points="401.7212,286.436,391.7212,290.436,401.7212,294.436,397.7212,290.436" style="stroke:#000000;stroke-width:1;"/><text fill="#000000" font-family="Arial" font-size="11" lengthAdjust="spacing" textLength="77.3599" x="442.7927" y="260.636">rainInputStale =</text><text fill="#000000" font-family="Arial" font-size="11" lengthAdjust="spacing" textLength="167.5029" x="397.7212" y="273.2849">ethIsRecentTick(gRainRxMs, 300)</text><line style="stroke:#000000;stroke-width:1;" x1="390.7212" x2="432.7212" y1="329.7339" y2="329.7339"/><line style="stroke:#000000;stroke-width:1;" x1="432.7212" x2="432.7212" y1="329.7339" y2="342.7339"/><line style="stroke:#000000;stroke-width:1;" x1="391.7212" x2="432.7212" y1="342.7339" y2="342.7339"/><polygon fill="#000000" points="401.7212,338.7339,391.7212,342.7339,401.7212,346.7339,397.7212,342.7339" style="stroke:#000000;stroke-width:1;"/><text fill="#000000" font-family="Arial" font-size="11" lengthAdjust="spacing" textLength="56.2568" x="466.2188" y="312.9338">if stale then</text><text fill="#000000" font-family="Arial" font-size="11" lengthAdjust="spacing" textLength="193.252" x="397.7212" y="325.5828">rainSenseLevel = 0 / autoLightState = 0</text><line style="stroke:#000000;stroke-width:1;" x1="390.7212" x2="432.7212" y1="382.0317" y2="382.0317"/><line style="stroke:#000000;stroke-width:1;" x1="432.7212" x2="432.7212" y1="382.0317" y2="395.0317"/><line style="stroke:#000000;stroke-width:1;" x1="391.7212" x2="432.7212" y1="395.0317" y2="395.0317"/><polygon fill="#000000" points="401.7212,391.0317,391.7212,395.0317,401.7212,399.0317,397.7212,395.0317" style="stroke:#000000;stroke-width:1;"/><text fill="#000000" font-family="Arial" font-size="11" lengthAdjust="spacing" textLength="119.2114" x="414.2239" y="365.2317">derive FrontWiperState /</text><text fill="#000000" font-family="Arial" font-size="11" lengthAdjust="spacing" textLength="152.2168" x="397.7212" y="377.8806">RearWiperState / WiperInterval</text><line style="stroke:#000000;stroke-width:1;" x1="390.7212" x2="432.7212" y1="434.3296" y2="434.3296"/><line style="stroke:#000000;stroke-width:1;" x1="432.7212" x2="432.7212" y1="434.3296" y2="447.3296"/><line style="stroke:#000000;stroke-width:1;" x1="391.7212" x2="432.7212" y1="447.3296" y2="447.3296"/><polygon fill="#000000" points="401.7212,443.3296,391.7212,447.3296,401.7212,451.3296,397.7212,447.3296" style="stroke:#000000;stroke-width:1;"/><text fill="#000000" font-family="Arial" font-size="11" lengthAdjust="spacing" textLength="127.7944" x="410.5635" y="417.5295">advance gWiperPos using</text><text fill="#000000" font-family="Arial" font-size="11" lengthAdjust="spacing" textLength="153.479" x="397.7212" y="430.1785">state-derived step and direction</text><path d="M395,460.3296 L395,533.3296 L555,533.3296 L555,470.3296 L545,460.3296 L395,460.3296 " fill="#FFFFFF" style="stroke:#000000;stroke-width:1;"/><path d="M545,460.3296 L545,470.3296 L555,470.3296 L545,460.3296 " fill="#FFFFFF" style="stroke:#000000;stroke-width:1;"/><text fill="#000000" font-family="Arial" font-size="11" lengthAdjust="spacing" textLength="139.4229" x="401" y="475.8274">Representative gating inputs</text><text fill="#000000" font-family="Arial" font-size="11" lengthAdjust="spacing" textLength="86.8291" x="401" y="488.4763">- RainSenseLevel</text><text fill="#000000" font-family="Arial" font-size="11" lengthAdjust="spacing" textLength="78.8853" x="401" y="501.1252">- AutoLightState</text><text fill="#000000" font-family="Arial" font-size="11" lengthAdjust="spacing" textLength="85.5669" x="401" y="513.7742">- Cmd::wiperCmd</text><text fill="#000000" font-family="Arial" font-size="11" lengthAdjust="spacing" textLength="111.8906" x="401" y="526.4231">- scenarioActiveId gate</text><rect fill="#FFFFFF" height="3" style="stroke:#FFFFFF;stroke-width:1;" width="920.4841" x="5" y="557.8987"/><line style="stroke:#000000;stroke-width:0.5;" x1="5" x2="925.4841" y1="557.8987" y2="557.8987"/><line style="stroke:#000000;stroke-width:0.5;" x1="5" x2="925.4841" y1="560.8987" y2="560.8987"/><rect fill="#FFFFFF" height="20.6489" style="stroke:#000000;stroke-width:1;" width="90.3931" x="420.0455" y="548.5742"/><text fill="#000000" font-family="Arial" font-size="11" font-weight="bold" lengthAdjust="spacing" textLength="73.3369" x="426.0455" y="563.072">Wiper Publish</text><polygon fill="#000000" points="644.1895,606.521,654.1895,610.521,644.1895,614.521,648.1895,610.521" style="stroke:#000000;stroke-width:1;"/><line style="stroke:#000000;stroke-width:1;" x1="390.7212" x2="650.1895" y1="610.521" y2="610.521"/><text fill="#000000" font-family="Arial" font-size="11" lengthAdjust="spacing" textLength="91.0723" x="477.9192" y="593.7209">frmWiperStateMsg</text><text fill="#000000" font-family="Arial" font-size="11" lengthAdjust="spacing" textLength="241.4683" x="402.7212" y="606.3699">FrontWiperState / RearWiperState / WiperInterval</text><polygon fill="#000000" points="644.1895,645.8188,654.1895,649.8188,644.1895,653.8188,648.1895,649.8188" style="stroke:#000000;stroke-width:1;"/><line style="stroke:#000000;stroke-width:1;" x1="390.7212" x2="650.1895" y1="649.8188" y2="649.8188"/><text fill="#000000" font-family="Arial" font-size="11" lengthAdjust="spacing" textLength="76.4253" x="485.2427" y="633.0188">Body::wiperPos</text><text fill="#000000" font-family="Arial" font-size="11" lengthAdjust="spacing" textLength="138.7622" x="454.0742" y="645.6677">Body::frontWiperAnimFrame</text><path d="M395,662.8188 L395,735.8188 L530,735.8188 L530,672.8188 L520,662.8188 L395,662.8188 " fill="#FFFFFF" style="stroke:#000000;stroke-width:1;"/><path d="M520,662.8188 L520,672.8188 L530,672.8188 L520,662.8188 " fill="#FFFFFF" style="stroke:#000000;stroke-width:1;"/><text fill="#000000" font-family="Arial" font-size="11" lengthAdjust="spacing" textLength="113.126" x="401" y="678.3167">Representative outputs</text><text fill="#000000" font-family="Arial" font-size="11" lengthAdjust="spacing" textLength="86.8022" x="401" y="690.9656">- FrontWiperState</text><text fill="#000000" font-family="Arial" font-size="11" lengthAdjust="spacing" textLength="84.9707" x="401" y="703.6145">- RearWiperState</text><text fill="#000000" font-family="Arial" font-size="11" lengthAdjust="spacing" textLength="71.5161" x="401" y="716.2634">- WiperInterval</text><text fill="#000000" font-family="Arial" font-size="11" lengthAdjust="spacing" textLength="114.2969" x="401" y="728.9124">- frontWiperAnimFrame</text><rect fill="#FFFFFF" height="3" style="stroke:#FFFFFF;stroke-width:1;" width="920.4841" x="5" y="760.3879"/><line style="stroke:#000000;stroke-width:0.5;" x1="5" x2="925.4841" y1="760.3879" y2="760.3879"/><line style="stroke:#000000;stroke-width:0.5;" x1="5" x2="925.4841" y1="763.3879" y2="763.3879"/><rect fill="#FFFFFF" height="20.6489" style="stroke:#000000;stroke-width:1;" width="131.3638" x="399.5602" y="751.0635"/><text fill="#000000" font-family="Arial" font-size="11" font-weight="bold" lengthAdjust="spacing" textLength="114.3076" x="405.5602" y="765.5613">Downstream Visibility</text><polygon fill="#000000" points="847.96,809.0103,857.96,813.0103,847.96,817.0103,851.96,813.0103" style="stroke:#000000;stroke-width:1;"/><line style="stroke:#000000;stroke-width:1;" x1="656.1895" x2="853.96" y1="813.0103" y2="813.0103"/><text fill="#000000" font-family="Arial" font-size="11" lengthAdjust="spacing" textLength="78.2729" x="718.9382" y="796.2102">body readback /</text><text fill="#000000" font-family="Arial" font-size="11" lengthAdjust="spacing" textLength="179.7705" x="668.1895" y="808.8591">wiper animation and panel observers</text><path d="M20,826.0103 L20,899.0103 L920,899.0103 L920,836.0103 L910,826.0103 L20,826.0103 " fill="#FFFFFF" style="stroke:#000000;stroke-width:1;"/><path d="M910,826.0103 L910,836.0103 L920,836.0103 L910,826.0103 " fill="#FFFFFF" style="stroke:#000000;stroke-width:1;"/><text fill="#000000" font-family="Arial" font-size="11" lengthAdjust="spacing" textLength="143.0752" x="309.5372" y="841.5081">Representative runtime chain</text><text fill="#000000" font-family="Arial" font-size="11" lengthAdjust="spacing" textLength="280.6343" x="309.5372" y="854.157">1. Rain/light state and manual wiper command reach WIP</text><text fill="#000000" font-family="Arial" font-size="11" lengthAdjust="spacing" textLength="236.6182" x="309.5372" y="866.8059">2. WIP chooses manual or sensed wiper posture</text><text fill="#000000" font-family="Arial" font-size="11" lengthAdjust="spacing" textLength="223.1689" x="309.5372" y="879.4548">3. WIP derives interval and animation position</text><text fill="#000000" font-family="Arial" font-size="11" lengthAdjust="spacing" textLength="312.4097" x="309.5372" y="892.1038">4. WIP publishes frmWiperStateMsg and Body animation seams</text><!--SRC=[ZLN1RjD04BtxAmPweOBGbbO2LGfI6cefKWjLYk2IoyQUEAiwksPtdL2-dZUxJXEdbI2NnEjvCs_Vl9cy2ajUCJMrqYRp3zeqogaLpLNnK3dRcd9iQ-leA8-VlOYI5wgjGsvD-AgGOUIqgbz-Vw__C9sTxRtq_AjbK_0jUwyg7jMwCbIm2UpseXpxnXg_ZRhYscv6pjaD1TTobWKTQgOfcDEDhfQ1HgQadxfXH-DLITzjzp0oUaNtAA5gof5ZPjuuW4xg24ArDj1RMYdJ8c0J8OLTuRcamMVwERaZ7rHWaWE5N2feQsW1YdoSPU0QTA4RPGAzZcHEA6NsR3oqcxV-DIcVY1xb5_d7_AgFkasb2sZbR3qpO7zv6OdWLyHs4KVNd_BJ_BgF1i6PIRJjnh2B064jqH-lF_MZhspv26PgvUba2qlNs_AKYAlMnvvVZCTz-BUvPxTc5z4uuXfjCYKx74Kq0e0SetIUPSDXruA9YEnfECooA4EdwoLKNCb1xD-e3VRMLpCZ9_SGZszuZG8d96zYoBqmpJerdfBqz49tDqisvE4dvRGT5K6lULAYE9qUPqeUvRg0PW9_oYAUY3nH1BuQpWo7vSHFMOpvNHSFRoeXDlrzwz_H-IbozU1w8Je2Y8aoC-FwTq1jt4FrxY67_HpG4LmfTt1252x5GUefAxT_adIToCIiCNUzBAfSAmmNLJ7cpdfglJRGDVPva8gKOCjDz7If7HVYwSnOv7RHl7OH5PfoWp6404fKf0fVfaepuxC1zJk5WuDE3VgzmVEpjbGI1mkH5D-pp5qxhxLVHizqrziwCzfcfqRqp3FDwFyas-MKNnrLQ3OpwNdnb5VMI2v3_s-PR1iwWGveYMGzMZZeqnhGInLx-dp1cFlWCCFqGtizrxKEZr6dxMLmBvd3IvhBj2Eob8M-6_ZT5fF-fp6ssydEIkuDIRgknQlOxdUI-l32hZL1ur-WMCh_oDdx6DajsDtoV775WbsnZ8K-l8y6BfRMUlRRQ6nGMQGmRC8rreVMSNQUefERFIoP13pOqeZMqTeNARn9hWBWq48H6BVZ3Xttv4xylm00]--></g></svg>