<svg xmlns="http://www.w3.org/2000/svg" xmlns:xlink="http://www.w3.org/1999/xlink" contentStyleType="text/css" height="892px" preserveAspectRatio="none" style="width:826px;height:892px;background:#FFFFFF;" version="1.1" viewBox="0 0 826 892" width="826px" zoomAndPan="magnify"><title>Remote Climate To DATC HVAC Output Signal Flow</title><defs/><g><text fill="#000000" font-family="Arial" font-size="22" font-weight="bold" lengthAdjust="spacing" textLength="541.4492" x="141.2747" y="35.9956">Remote Climate To DATC HVAC Output Signal Flow</text><text fill="#000000" font-family="Arial" font-size="22" font-weight="bold" lengthAdjust="spacing" textLength="686.3398" x="68.8293" y="61.2935">(TMU/cabin-air context -&gt; DATC HVAC state and actuator publish)</text><line style="stroke:#000000;stroke-width:1;" x1="82" x2="82" y1="116.8936" y2="847.957"/><line style="stroke:#000000;stroke-width:1;" x1="211.5884" x2="211.5884" y1="116.8936" y2="847.957"/><line style="stroke:#000000;stroke-width:1;" x1="563.2949" x2="563.2949" y1="116.8936" y2="847.957"/><line style="stroke:#000000;stroke-width:1;" x1="734.4663" x2="734.4663" y1="116.8936" y2="847.957"/><rect fill="#F4F7FB" height="26.6489" rx="2.5" ry="2.5" style="stroke:#000000;stroke-width:1;" width="121.5884" x="22" y="89.2446"/><text fill="#000000" font-family="Arial" font-size="11" lengthAdjust="spacing" textLength="107.5884" x="29" y="106.7424">TMU / cabin-air inputs</text><rect fill="#F4F7FB" height="26.6489" rx="2.5" ry="2.5" style="stroke:#000000;stroke-width:1;" width="121.5884" x="22" y="846.957"/><text fill="#000000" font-family="Arial" font-size="11" lengthAdjust="spacing" textLength="107.5884" x="29" y="864.4548">TMU / cabin-air inputs</text><rect fill="#E8F7E8" height="39.2979" rx="2.5" ry="2.5" style="stroke:#000000;stroke-width:1;" width="77.5776" x="173.5884" y="76.5957"/><text fill="#000000" font-family="Arial" font-size="11" lengthAdjust="spacing" textLength="29.9438" x="197.4053" y="94.0935">DATC</text><text fill="#000000" font-family="Arial" font-size="11" lengthAdjust="spacing" textLength="63.5776" x="180.5884" y="106.7424">HVAC owner</text><rect fill="#E8F7E8" height="39.2979" rx="2.5" ry="2.5" style="stroke:#000000;stroke-width:1;" width="77.5776" x="173.5884" y="846.957"/><text fill="#000000" font-family="Arial" font-size="11" lengthAdjust="spacing" textLength="29.9438" x="197.4053" y="864.4548">DATC</text><text fill="#000000" font-family="Arial" font-size="11" lengthAdjust="spacing" textLength="63.5776" x="180.5884" y="877.1038">HVAC owner</text><rect fill="#FFF4CC" height="26.6489" rx="2.5" ry="2.5" style="stroke:#000000;stroke-width:1;" width="141.1714" x="493.2949" y="89.2446"/><text fill="#000000" font-family="Arial" font-size="11" lengthAdjust="spacing" textLength="127.1714" x="500.2949" y="106.7424">HVAC state / actuator bus</text><rect fill="#FFF4CC" height="26.6489" rx="2.5" ry="2.5" style="stroke:#000000;stroke-width:1;" width="141.1714" x="493.2949" y="846.957"/><text fill="#000000" font-family="Arial" font-size="11" lengthAdjust="spacing" textLength="127.1714" x="500.2949" y="864.4548">HVAC state / actuator bus</text><rect fill="#E8F0FE" height="26.6489" rx="2.5" ry="2.5" style="stroke:#000000;stroke-width:1;" width="140.5322" x="664.4663" y="89.2446"/><text fill="#000000" font-family="Arial" font-size="11" lengthAdjust="spacing" textLength="126.5322" x="671.4663" y="106.7424">Observers / comfort users</text><rect fill="#E8F0FE" height="26.6489" rx="2.5" ry="2.5" style="stroke:#000000;stroke-width:1;" width="140.5322" x="664.4663" y="846.957"/><text fill="#000000" font-family="Arial" font-size="11" lengthAdjust="spacing" textLength="126.5322" x="671.4663" y="864.4548">Observers / comfort users</text><rect fill="#FFFFFF" height="3" style="stroke:#FFFFFF;stroke-width:1;" width="814.9985" x="5" y="146.218"/><line style="stroke:#000000;stroke-width:0.5;" x1="5" x2="819.9985" y1="146.218" y2="146.218"/><line style="stroke:#000000;stroke-width:0.5;" x1="5" x2="819.9985" y1="149.218" y2="149.218"/><rect fill="#FFFFFF" height="20.6489" style="stroke:#000000;stroke-width:1;" width="84.2754" x="370.3616" y="136.8936"/><text fill="#000000" font-family="Arial" font-size="11" font-weight="bold" lengthAdjust="spacing" textLength="67.2192" x="376.3616" y="151.3914">HVAC Inputs</text><polygon fill="#000000" points="200.3772,232.7871,210.3772,236.7871,200.3772,240.7871,204.3772,236.7871" style="stroke:#000000;stroke-width:1;"/><line style="stroke:#000000;stroke-width:1;" x1="82.7942" x2="206.3772" y1="236.7871" y2="236.7871"/><text fill="#000000" font-family="Arial" font-size="11" lengthAdjust="spacing" textLength="91.7007" x="101.7354" y="182.0403">remoteClimateReq</text><text fill="#000000" font-family="Arial" font-size="11" lengthAdjust="spacing" textLength="64.2007" x="115.4854" y="194.6892">tmuLinkState</text><text fill="#000000" font-family="Arial" font-size="11" lengthAdjust="spacing" textLength="82.5322" x="106.3196" y="207.3381">tmuServiceMode</text><text fill="#000000" font-family="Arial" font-size="11" lengthAdjust="spacing" textLength="51.3584" x="121.9065" y="219.9871">signalBars</text><text fill="#000000" font-family="Arial" font-size="11" lengthAdjust="spacing" textLength="54.4146" x="120.3784" y="232.636">cabinTemp</text><line style="stroke:#000000;stroke-width:1;" x1="212.3772" x2="254.3772" y1="276.085" y2="276.085"/><line style="stroke:#000000;stroke-width:1;" x1="254.3772" x2="254.3772" y1="276.085" y2="289.085"/><line style="stroke:#000000;stroke-width:1;" x1="213.3772" x2="254.3772" y1="289.085" y2="289.085"/><polygon fill="#000000" points="223.3772,285.085,213.3772,289.085,223.3772,293.085,219.3772,289.085" style="stroke:#000000;stroke-width:1;"/><text fill="#000000" font-family="Arial" font-size="11" lengthAdjust="spacing" textLength="83.1392" x="286.481" y="259.2849">if TMU stale then</text><text fill="#000000" font-family="Arial" font-size="11" lengthAdjust="spacing" textLength="217.3467" x="219.3772" y="271.9338">remoteClimateReq = 0 / link = 0 / service = 0</text><line style="stroke:#000000;stroke-width:1;" x1="212.3772" x2="254.3772" y1="328.3828" y2="328.3828"/><line style="stroke:#000000;stroke-width:1;" x1="254.3772" x2="254.3772" y1="328.3828" y2="341.3828"/><line style="stroke:#000000;stroke-width:1;" x1="213.3772" x2="254.3772" y1="341.3828" y2="341.3828"/><polygon fill="#000000" points="223.3772,337.3828,213.3772,341.3828,223.3772,345.3828,219.3772,341.3828" style="stroke:#000000;stroke-width:1;"/><text fill="#000000" font-family="Arial" font-size="11" lengthAdjust="spacing" textLength="101.4976" x="219.3772" y="311.5828">if cabin-air stale then</text><text fill="#000000" font-family="Arial" font-size="11" lengthAdjust="spacing" textLength="79.186" x="230.533" y="324.2317">cabinTemp = 24</text><line style="stroke:#000000;stroke-width:1;" x1="212.3772" x2="254.3772" y1="368.0317" y2="368.0317"/><line style="stroke:#000000;stroke-width:1;" x1="254.3772" x2="254.3772" y1="368.0317" y2="381.0317"/><line style="stroke:#000000;stroke-width:1;" x1="213.3772" x2="254.3772" y1="381.0317" y2="381.0317"/><polygon fill="#000000" points="223.3772,377.0317,213.3772,381.0317,223.3772,385.0317,219.3772,381.0317" style="stroke:#000000;stroke-width:1;"/><text fill="#000000" font-family="Arial" font-size="11" lengthAdjust="spacing" textLength="337.5034" x="219.3772" y="363.8806">derive CabinSetTemp / BlowerLevel / AcOn / VentMode / DefogMode</text><path d="M217,394.0317 L217,467.0317 L380,467.0317 L380,404.0317 L370,394.0317 L217,394.0317 " fill="#FFFFFF" style="stroke:#000000;stroke-width:1;"/><path d="M370,394.0317 L370,404.0317 L380,404.0317 L370,394.0317 " fill="#FFFFFF" style="stroke:#000000;stroke-width:1;"/><text fill="#000000" font-family="Arial" font-size="11" lengthAdjust="spacing" textLength="139.4229" x="223" y="409.5295">Representative gating inputs</text><text fill="#000000" font-family="Arial" font-size="11" lengthAdjust="spacing" textLength="98.4199" x="223" y="422.1785">- remoteClimateReq</text><text fill="#000000" font-family="Arial" font-size="11" lengthAdjust="spacing" textLength="142.4468" x="223" y="434.8274">- tmuLinkState / serviceMode</text><text fill="#000000" font-family="Arial" font-size="11" lengthAdjust="spacing" textLength="58.0776" x="223" y="447.4763">- signalBars</text><text fill="#000000" font-family="Arial" font-size="11" lengthAdjust="spacing" textLength="61.1338" x="223" y="460.1252">- cabinTemp</text><rect fill="#FFFFFF" height="3" style="stroke:#FFFFFF;stroke-width:1;" width="814.9985" x="5" y="491.6008"/><line style="stroke:#000000;stroke-width:0.5;" x1="5" x2="819.9985" y1="491.6008" y2="491.6008"/><line style="stroke:#000000;stroke-width:0.5;" x1="5" x2="819.9985" y1="494.6008" y2="494.6008"/><rect fill="#FFFFFF" height="20.6489" style="stroke:#000000;stroke-width:1;" width="91.0054" x="366.9966" y="482.2764"/><text fill="#000000" font-family="Arial" font-size="11" font-weight="bold" lengthAdjust="spacing" textLength="73.9492" x="372.9966" y="496.7742">HVAC Publish</text><polygon fill="#000000" points="551.8806,540.2231,561.8806,544.2231,551.8806,548.2231,555.8806,544.2231" style="stroke:#000000;stroke-width:1;"/><line style="stroke:#000000;stroke-width:1;" x1="212.3772" x2="557.8806" y1="544.2231" y2="544.2231"/><text fill="#000000" font-family="Arial" font-size="11" lengthAdjust="spacing" textLength="87.4092" x="344.4243" y="527.4231">frmHvacStateMsg</text><text fill="#000000" font-family="Arial" font-size="11" lengthAdjust="spacing" textLength="239.0405" x="268.6086" y="540.072">CabinSetTemp / BlowerLevel / AcCompressorOn</text><polygon fill="#000000" points="551.8806,579.521,561.8806,583.521,551.8806,587.521,555.8806,583.521" style="stroke:#000000;stroke-width:1;"/><line style="stroke:#000000;stroke-width:1;" x1="212.3772" x2="557.8806" y1="583.521" y2="583.521"/><text fill="#000000" font-family="Arial" font-size="11" lengthAdjust="spacing" textLength="102.6899" x="336.7839" y="566.7209">frmHvacActuatorMsg</text><text fill="#000000" font-family="Arial" font-size="11" lengthAdjust="spacing" textLength="258.0112" x="259.1233" y="579.3699">VentMode / RecircMode / DefogMode / FanRpmStep</text><path d="M217,596.521 L217,669.521 L360,669.521 L360,606.521 L350,596.521 L217,596.521 " fill="#FFFFFF" style="stroke:#000000;stroke-width:1;"/><path d="M350,596.521 L350,606.521 L360,606.521 L350,596.521 " fill="#FFFFFF" style="stroke:#000000;stroke-width:1;"/><text fill="#000000" font-family="Arial" font-size="11" lengthAdjust="spacing" textLength="113.126" x="223" y="612.0188">Representative outputs</text><text fill="#000000" font-family="Arial" font-size="11" lengthAdjust="spacing" textLength="80.0884" x="223" y="624.6677">- CabinSetTemp</text><text fill="#000000" font-family="Arial" font-size="11" lengthAdjust="spacing" textLength="66.6392" x="223" y="637.3167">- BlowerLevel</text><text fill="#000000" font-family="Arial" font-size="11" lengthAdjust="spacing" textLength="94.1338" x="223" y="649.9656">- AcCompressorOn</text><text fill="#000000" font-family="Arial" font-size="11" lengthAdjust="spacing" textLength="122.9014" x="223" y="662.6145">- VentMode / DefogMode</text><rect fill="#FFFFFF" height="3" style="stroke:#FFFFFF;stroke-width:1;" width="814.9985" x="5" y="694.0901"/><line style="stroke:#000000;stroke-width:0.5;" x1="5" x2="819.9985" y1="694.0901" y2="694.0901"/><line style="stroke:#000000;stroke-width:0.5;" x1="5" x2="819.9985" y1="697.0901" y2="697.0901"/><rect fill="#FFFFFF" height="20.6489" style="stroke:#000000;stroke-width:1;" width="131.3638" x="346.8174" y="684.7656"/><text fill="#000000" font-family="Arial" font-size="11" font-weight="bold" lengthAdjust="spacing" textLength="114.3076" x="352.8174" y="699.2634">Downstream Visibility</text><polygon fill="#000000" points="722.7324,742.7124,732.7324,746.7124,722.7324,750.7124,726.7324,746.7124" style="stroke:#000000;stroke-width:1;"/><line style="stroke:#000000;stroke-width:1;" x1="563.8806" x2="728.7324" y1="746.7124" y2="746.7124"/><text fill="#000000" font-family="Arial" font-size="11" lengthAdjust="spacing" textLength="84.9814" x="606.8158" y="729.9124">HVAC readback /</text><text fill="#000000" font-family="Arial" font-size="11" lengthAdjust="spacing" textLength="132.0322" x="583.2904" y="742.5613">comfort-service consumers</text><path d="M10,759.7124 L10,832.7124 L807,832.7124 L807,769.7124 L797,759.7124 L10,759.7124 " fill="#FFFFFF" style="stroke:#000000;stroke-width:1;"/><path d="M797,759.7124 L797,769.7124 L807,769.7124 L797,759.7124 " fill="#FFFFFF" style="stroke:#000000;stroke-width:1;"/><text fill="#000000" font-family="Arial" font-size="11" lengthAdjust="spacing" textLength="143.0752" x="235.7556" y="775.2102">Representative runtime chain</text><text fill="#000000" font-family="Arial" font-size="11" lengthAdjust="spacing" textLength="280.5967" x="235.7556" y="787.8591">1. TMU remote-climate and cabin-air context reach DATC</text><text fill="#000000" font-family="Arial" font-size="11" lengthAdjust="spacing" textLength="244.562" x="235.7556" y="800.5081">2. DATC decides HVAC state and actuator targets</text><text fill="#000000" font-family="Arial" font-size="11" lengthAdjust="spacing" textLength="253.1128" x="235.7556" y="813.157">3. DATC publishes HVAC state and actuator frames</text><text fill="#000000" font-family="Arial" font-size="11" lengthAdjust="spacing" textLength="337.4873" x="235.7556" y="825.8059">4. Comfort users and observers consume the effective HVAC posture</text><!--SRC=[ZLHDJzj04BtlhvZ2fPKQ0ZGI22cL4eD59MYg9EMKosOzTbROksO_WFRNTtRjO2T0sroycvrvC-_DnmUtmGgXBhbKpDvBLNF3ArXpSLyOxLMMw58RE4pZhsUHOSvzwLAjt7TE21CZUVds-qB-HZWvwJrQVF2e1DwYjRp0IIaB1GALGzEpCcXhhUpMQegbVfeOev_06O-CEUbAX3bMsY4afQmuVPSQBYVB1Axl9WdClAkzWmN1yn9Iyb-fZylRdqF1rr8Dk3GWA45yTZ3uslEpBa1nbG4NpdD72jH-NKgx-SGO9UUaa3LN3Wu838RGmL7ktja3u7QRKUAUIRvHUfPETrr3k9MAyVIJGXETOWw7L-VfsTNvhdaliM6NrjetmQuVkPXw6mirIf9TrzdQedb4OqEgkigrSU3fhyQLNcF4u_IAiV6uKU1Rv07ZCMCz7bkHBgWsGVNsQOuFA-KgVoFL_I9a66yBYYcfnZgZkuqbc79ZLoggjSIgPX6i0vKv13s99DML6bEjr7uS6CCniIWfKdkqJPXmUmElgqmVzIK3yZeTxRjbQEGZTLGmMg2BTaEOKlUWkS57BEas4JD5dplgsK2GZfUOwoAScGhzQ6InSQ3p2ChcM5Ctap5t0RgWZohQPc63LshINtqvEvOHVm2TcdJfv4Hgs12yA-EFfcjZ7RSijwro0RcfmYN6kBN5Ils3SgAhGCDgCrFlmqtQteo8FO7cAAGH-shHEULgNbSBX_L_IAVZI0VU_MJfsakMRdl93jwkr8vWbpI5rXcapNCdhLpBKhfVKRajHM8RXkMYqPOiix0dOKWDrKpLODkCj5MihsZ2M4D9q_Jr5iBdWBFFp7Zb96rIiGcx-EGepaBJ6GFHRhUmabxlBif4R1grJe-QBiv8x0pjk-lCSLCWoVYbjM_NsryySbh9QDde29B-2eb6-cN1jCJ3d07cEOf8BMBMsZflUgB_0G00]--></g></svg>