<svg xmlns="http://www.w3.org/2000/svg" xmlns:xlink="http://www.w3.org/1999/xlink" contentStyleType="text/css" height="1409px" preserveAspectRatio="none" style="width:798px;height:1409px;background:#FFFFFF;" version="1.1" viewBox="0 0 798 1409" width="798px" zoomAndPan="magnify"><title>Scenario Start / Stop Signal Flow</title><defs/><g><text fill="#000000" font-family="Arial" font-size="22" font-weight="bold" lengthAdjust="spacing" textLength="344.7168" x="225.3613" y="35.9956">Scenario Start / Stop Signal Flow</text><text fill="#000000" font-family="Arial" font-size="22" font-weight="bold" lengthAdjust="spacing" textLength="577.0166" x="109.2114" y="61.2935">(Input_Console -&gt; TEST_SCN -&gt; scenario state / lamps)</text><line style="stroke:#000000;stroke-width:1;" x1="62" x2="62" y1="162.8936" y2="1319.4463"/><line style="stroke:#000000;stroke-width:1;" x1="197.98" x2="197.98" y1="162.8936" y2="1319.4463"/><line style="stroke:#000000;stroke-width:1;" x1="341.9775" x2="341.9775" y1="162.8936" y2="1319.4463"/><line style="stroke:#000000;stroke-width:1;" x1="579.0088" x2="579.0088" y1="162.8936" y2="1319.4463"/><line style="stroke:#000000;stroke-width:1;" x1="715.7148" x2="715.7148" y1="162.8936" y2="1319.4463"/><text fill="#000000" font-family="Arial" font-size="11" lengthAdjust="spacing" textLength="43.4092" x="37.8984" y="148.0935">Operator</text><text fill="#000000" font-family="Arial" font-size="11" lengthAdjust="spacing" textLength="75.2061" x="22" y="160.7424">(Input Console)</text><ellipse cx="62.603" cy="85.5957" fill="#F4F7FB" rx="8" ry="8" style="stroke:#000000;stroke-width:1;"/><path d="M62.603,93.5957 L62.603,120.5957 M49.603,101.5957 L75.603,101.5957 M62.603,120.5957 L49.603,135.5957 M62.603,120.5957 L75.603,135.5957 " fill="none" style="stroke:#000000;stroke-width:1;"/><text fill="#000000" font-family="Arial" font-size="11" lengthAdjust="spacing" textLength="43.4092" x="37.8984" y="1328.9441">Operator</text><text fill="#000000" font-family="Arial" font-size="11" lengthAdjust="spacing" textLength="75.2061" x="22" y="1341.593">(Input Console)</text><ellipse cx="62.603" cy="1352.7441" fill="#F4F7FB" rx="8" ry="8" style="stroke:#000000;stroke-width:1;"/><path d="M62.603,1360.7441 L62.603,1387.7441 M49.603,1368.7441 L75.603,1368.7441 M62.603,1387.7441 L49.603,1402.7441 M62.603,1387.7441 L75.603,1402.7441 " fill="none" style="stroke:#000000;stroke-width:1;"/><rect fill="#E8F0FE" height="39.2979" rx="2.5" ry="2.5" style="stroke:#000000;stroke-width:1;" width="84.9414" x="155.98" y="122.5957"/><text fill="#000000" font-family="Arial" font-size="11" lengthAdjust="spacing" textLength="70.9414" x="162.98" y="140.0935">Input_Console</text><text fill="#000000" font-family="Arial" font-size="11" lengthAdjust="spacing" textLength="61.7622" x="167.5696" y="152.7424">Scenario tab</text><rect fill="#E8F0FE" height="39.2979" rx="2.5" ry="2.5" style="stroke:#000000;stroke-width:1;" width="84.9414" x="155.98" y="1318.4463"/><text fill="#000000" font-family="Arial" font-size="11" lengthAdjust="spacing" textLength="70.9414" x="162.98" y="1335.9441">Input_Console</text><text fill="#000000" font-family="Arial" font-size="11" lengthAdjust="spacing" textLength="61.7622" x="167.5696" y="1348.593">Scenario tab</text><rect fill="#FFE6E6" height="39.2979" rx="2.5" ry="2.5" style="stroke:#000000;stroke-width:1;" width="88.5938" x="297.9775" y="122.5957"/><text fill="#000000" font-family="Arial" font-size="11" lengthAdjust="spacing" textLength="57.4546" x="313.5471" y="140.0935">TEST_SCN</text><text fill="#000000" font-family="Arial" font-size="11" lengthAdjust="spacing" textLength="74.5938" x="304.9775" y="152.7424">scenario owner</text><rect fill="#FFE6E6" height="39.2979" rx="2.5" ry="2.5" style="stroke:#000000;stroke-width:1;" width="88.5938" x="297.9775" y="1318.4463"/><text fill="#000000" font-family="Arial" font-size="11" lengthAdjust="spacing" textLength="57.4546" x="313.5471" y="1335.9441">TEST_SCN</text><text fill="#000000" font-family="Arial" font-size="11" lengthAdjust="spacing" textLength="74.5938" x="304.9775" y="1348.593">scenario owner</text><rect fill="#E8F7E8" height="39.2979" rx="2.5" ry="2.5" style="stroke:#000000;stroke-width:1;" width="94.7061" x="532.0088" y="122.5957"/><text fill="#000000" font-family="Arial" font-size="11" lengthAdjust="spacing" textLength="70.3184" x="544.2026" y="140.0935">Scenario state</text><text fill="#000000" font-family="Arial" font-size="11" lengthAdjust="spacing" textLength="80.7061" x="539.0088" y="152.7424">readback seams</text><rect fill="#E8F7E8" height="39.2979" rx="2.5" ry="2.5" style="stroke:#000000;stroke-width:1;" width="94.7061" x="532.0088" y="1318.4463"/><text fill="#000000" font-family="Arial" font-size="11" lengthAdjust="spacing" textLength="70.3184" x="544.2026" y="1335.9441">Scenario state</text><text fill="#000000" font-family="Arial" font-size="11" lengthAdjust="spacing" textLength="80.7061" x="539.0088" y="1348.593">readback seams</text><rect fill="#FFF4CC" height="39.2979" rx="2.5" ry="2.5" style="stroke:#000000;stroke-width:1;" width="119.7246" x="656.7148" y="122.5957"/><text fill="#000000" font-family="Arial" font-size="11" lengthAdjust="spacing" textLength="80.7061" x="676.2241" y="140.0935">Execution lamps</text><text fill="#000000" font-family="Arial" font-size="11" lengthAdjust="spacing" textLength="105.7246" x="663.7148" y="152.7424">STOP / WARN / RUN</text><rect fill="#FFF4CC" height="39.2979" rx="2.5" ry="2.5" style="stroke:#000000;stroke-width:1;" width="119.7246" x="656.7148" y="1318.4463"/><text fill="#000000" font-family="Arial" font-size="11" lengthAdjust="spacing" textLength="80.7061" x="676.2241" y="1335.9441">Execution lamps</text><text fill="#000000" font-family="Arial" font-size="11" lengthAdjust="spacing" textLength="105.7246" x="663.7148" y="1348.593">STOP / WARN / RUN</text><rect fill="#FFFFFF" height="3" style="stroke:#FFFFFF;stroke-width:1;" width="786.4395" x="5" y="192.218"/><line style="stroke:#000000;stroke-width:0.5;" x1="5" x2="791.4395" y1="192.218" y2="192.218"/><line style="stroke:#000000;stroke-width:0.5;" x1="5" x2="791.4395" y1="195.218" y2="195.218"/><rect fill="#FFFFFF" height="20.6489" style="stroke:#000000;stroke-width:1;" width="88.5723" x="353.9336" y="182.8936"/><text fill="#000000" font-family="Arial" font-size="11" font-weight="bold" lengthAdjust="spacing" textLength="71.5161" x="359.9336" y="197.3914">Start Request</text><polygon fill="#000000" points="186.4507,228.1914,196.4507,232.1914,186.4507,236.1914,190.4507,232.1914" style="stroke:#000000;stroke-width:1;"/><line style="stroke:#000000;stroke-width:1;" x1="62.603" x2="192.4507" y1="232.1914" y2="232.1914"/><text fill="#000000" font-family="Arial" font-size="11" lengthAdjust="spacing" textLength="83.7407" x="88.6565" y="228.0403">Click SCN preset</text><polygon fill="#000000" points="330.2744,254.8403,340.2744,258.8403,330.2744,262.8403,334.2744,258.8403" style="stroke:#000000;stroke-width:1;"/><line style="stroke:#000000;stroke-width:1;" x1="198.4507" x2="336.2744" y1="258.8403" y2="258.8403"/><text fill="#000000" font-family="Arial" font-size="11" lengthAdjust="spacing" textLength="119.8237" x="210.4507" y="254.6892">Test::scenarioCommand</text><line style="stroke:#000000;stroke-width:1;" x1="342.2744" x2="384.2744" y1="285.4893" y2="285.4893"/><line style="stroke:#000000;stroke-width:1;" x1="384.2744" x2="384.2744" y1="285.4893" y2="298.4893"/><line style="stroke:#000000;stroke-width:1;" x1="343.2744" x2="384.2744" y1="298.4893" y2="298.4893"/><polygon fill="#000000" points="353.2744,294.4893,343.2744,298.4893,353.2744,302.4893,349.2744,298.4893" style="stroke:#000000;stroke-width:1;"/><text fill="#000000" font-family="Arial" font-size="11" lengthAdjust="spacing" textLength="209.1235" x="349.2744" y="281.3381">applyScenarioPanelRequest(scenarioId, 0)</text><line style="stroke:#000000;stroke-width:1;" x1="342.2744" x2="384.2744" y1="325.1382" y2="325.1382"/><line style="stroke:#000000;stroke-width:1;" x1="384.2744" x2="384.2744" y1="325.1382" y2="338.1382"/><line style="stroke:#000000;stroke-width:1;" x1="343.2744" x2="384.2744" y1="338.1382" y2="338.1382"/><polygon fill="#000000" points="353.2744,334.1382,343.2744,338.1382,353.2744,342.1382,349.2744,338.1382" style="stroke:#000000;stroke-width:1;"/><text fill="#000000" font-family="Arial" font-size="11" lengthAdjust="spacing" textLength="125.9629" x="349.2744" y="320.9871">beginScenarioExecution()</text><line style="stroke:#000000;stroke-width:1;" x1="342.2744" x2="384.2744" y1="364.7871" y2="364.7871"/><line style="stroke:#000000;stroke-width:1;" x1="384.2744" x2="384.2744" y1="364.7871" y2="377.7871"/><line style="stroke:#000000;stroke-width:1;" x1="343.2744" x2="384.2744" y1="377.7871" y2="377.7871"/><polygon fill="#000000" points="353.2744,373.7871,343.2744,377.7871,353.2744,381.7871,349.2744,377.7871" style="stroke:#000000;stroke-width:1;"/><text fill="#000000" font-family="Arial" font-size="11" lengthAdjust="spacing" textLength="108.8291" x="349.2744" y="360.636">applyScenarioPreset()</text><polygon fill="#000000" points="567.3618,400.436,577.3618,404.436,567.3618,408.436,571.3618,404.436" style="stroke:#000000;stroke-width:1;"/><line style="stroke:#000000;stroke-width:1;" x1="342.2744" x2="573.3618" y1="404.436" y2="404.436"/><text fill="#000000" font-family="Arial" font-size="11" lengthAdjust="spacing" textLength="151.9375" x="384.8494" y="400.2849">Test::testScenario = scenarioId</text><polygon fill="#000000" points="567.3618,427.085,577.3618,431.085,567.3618,435.085,571.3618,431.085" style="stroke:#000000;stroke-width:1;"/><line style="stroke:#000000;stroke-width:1;" x1="342.2744" x2="573.3618" y1="431.085" y2="431.085"/><text fill="#000000" font-family="Arial" font-size="11" lengthAdjust="spacing" textLength="201.4482" x="360.094" y="426.9338">Test::scenarioCommandAck = scenarioId</text><polygon fill="#000000" points="567.3618,453.7339,577.3618,457.7339,567.3618,461.7339,571.3618,457.7339" style="stroke:#000000;stroke-width:1;"/><line style="stroke:#000000;stroke-width:1;" x1="342.2744" x2="573.3618" y1="457.7339" y2="457.7339"/><text fill="#000000" font-family="Arial" font-size="11" lengthAdjust="spacing" textLength="171.499" x="375.0686" y="453.5828">Test::scenarioActiveId = scenarioId</text><polygon fill="#000000" points="704.5771,505.6807,714.5771,509.6807,704.5771,513.6807,708.5771,509.6807" style="stroke:#000000;stroke-width:1;"/><line style="stroke:#000000;stroke-width:1;" x1="342.2744" x2="710.5771" y1="509.6807" y2="509.6807"/><text fill="#000000" font-family="Arial" font-size="11" lengthAdjust="spacing" textLength="110.376" x="474.2378" y="480.2317">scenarioLampStop = 0</text><text fill="#000000" font-family="Arial" font-size="11" lengthAdjust="spacing" textLength="114.0283" x="472.4116" y="492.8806">scenarioLampWarn = 0</text><text fill="#000000" font-family="Arial" font-size="11" lengthAdjust="spacing" textLength="107.9268" x="475.4624" y="505.5295">scenarioLampRun = 1</text><line style="stroke:#000000;stroke-width:1;" x1="342.2744" x2="384.2744" y1="536.3296" y2="536.3296"/><line style="stroke:#000000;stroke-width:1;" x1="384.2744" x2="384.2744" y1="536.3296" y2="549.3296"/><line style="stroke:#000000;stroke-width:1;" x1="343.2744" x2="384.2744" y1="549.3296" y2="549.3296"/><polygon fill="#000000" points="353.2744,545.3296,343.2744,549.3296,353.2744,553.3296,349.2744,549.3296" style="stroke:#000000;stroke-width:1;"/><text fill="#000000" font-family="Arial" font-size="11" lengthAdjust="spacing" textLength="146.1421" x="349.2744" y="532.1785">scheduleScenarioEvaluation()</text><rect fill="#FFFFFF" height="3" style="stroke:#FFFFFF;stroke-width:1;" width="786.4395" x="5" y="576.6541"/><line style="stroke:#000000;stroke-width:0.5;" x1="5" x2="791.4395" y1="576.6541" y2="576.6541"/><line style="stroke:#000000;stroke-width:0.5;" x1="5" x2="791.4395" y1="579.6541" y2="579.6541"/><rect fill="#FFFFFF" height="20.6489" style="stroke:#000000;stroke-width:1;" width="115.4653" x="340.4871" y="567.3296"/><text fill="#000000" font-family="Arial" font-size="11" font-weight="bold" lengthAdjust="spacing" textLength="98.4092" x="346.4871" y="581.8274">Evaluation / Result</text><polygon fill="#000000" points="567.3618,612.6274,577.3618,616.6274,567.3618,620.6274,571.3618,616.6274" style="stroke:#000000;stroke-width:1;"/><line style="stroke:#000000;stroke-width:1;" x1="342.2744" x2="573.3618" y1="616.6274" y2="616.6274"/><text fill="#000000" font-family="Arial" font-size="11" lengthAdjust="spacing" textLength="198.4082" x="361.614" y="612.4763">Test::scenarioSettledId = active scenario</text><polygon fill="#000000" points="567.3618,639.2764,577.3618,643.2764,567.3618,647.2764,571.3618,643.2764" style="stroke:#000000;stroke-width:1;"/><line style="stroke:#000000;stroke-width:1;" x1="342.2744" x2="573.3618" y1="643.2764" y2="643.2764"/><text fill="#000000" font-family="Arial" font-size="11" lengthAdjust="spacing" textLength="213.0874" x="354.2744" y="639.1252">Test::scenarioEvaluatedId = active scenario</text><polygon fill="#000000" points="567.3618,665.9253,577.3618,669.9253,567.3618,673.9253,571.3618,669.9253" style="stroke:#000000;stroke-width:1;"/><line style="stroke:#000000;stroke-width:1;" x1="342.2744" x2="573.3618" y1="669.9253" y2="669.9253"/><text fill="#000000" font-family="Arial" font-size="11" lengthAdjust="spacing" textLength="140.9268" x="390.3547" y="665.7742">Test::scenarioResult = 0 or 1</text><polygon fill="#000000" points="704.5771,692.5742,714.5771,696.5742,704.5771,700.5742,708.5771,696.5742" style="stroke:#000000;stroke-width:1;"/><line style="stroke:#000000;stroke-width:1;" x1="342.2744" x2="710.5771" y1="696.5742" y2="696.5742"/><text fill="#000000" font-family="Arial" font-size="11" lengthAdjust="spacing" textLength="175.4146" x="441.7185" y="692.4231">refresh STOP / WARN / RUN lamps</text><path d="M347,709.5742 L347,769.5742 L633,769.5742 L633,719.5742 L623,709.5742 L347,709.5742 " fill="#FFFFFF" style="stroke:#000000;stroke-width:1;"/><path d="M623,709.5742 L623,719.5742 L633,719.5742 L623,709.5742 " fill="#FFFFFF" style="stroke:#000000;stroke-width:1;"/><text fill="#000000" font-family="Arial" font-size="11" lengthAdjust="spacing" textLength="51.9707" x="353" y="725.072">Lamp rule:</text><text fill="#000000" font-family="Arial" font-size="11" lengthAdjust="spacing" textLength="149.7837" x="353" y="737.7209">- activeScenarioId != 0 -&gt; RUN</text><text fill="#000000" font-family="Arial" font-size="11" lengthAdjust="spacing" textLength="265.6758" x="353" y="750.3699">- ack != 0 and evaluated != 0 and result == 0 -&gt; WARN</text><text fill="#000000" font-family="Arial" font-size="11" lengthAdjust="spacing" textLength="86.8022" x="353" y="763.0188">- otherwise STOP</text><rect fill="#FFFFFF" height="3" style="stroke:#FFFFFF;stroke-width:1;" width="786.4395" x="5" y="794.4944"/><line style="stroke:#000000;stroke-width:0.5;" x1="5" x2="791.4395" y1="794.4944" y2="794.4944"/><line style="stroke:#000000;stroke-width:0.5;" x1="5" x2="791.4395" y1="797.4944" y2="797.4944"/><rect fill="#FFFFFF" height="20.6489" style="stroke:#000000;stroke-width:1;" width="88.5562" x="353.9417" y="785.1699"/><text fill="#000000" font-family="Arial" font-size="11" font-weight="bold" lengthAdjust="spacing" textLength="71.5" x="359.9417" y="799.6677">Stop / Manual</text><polygon fill="#000000" points="186.4507,830.4678,196.4507,834.4678,186.4507,838.4678,190.4507,834.4678" style="stroke:#000000;stroke-width:1;"/><line style="stroke:#000000;stroke-width:1;" x1="62.603" x2="192.4507" y1="834.4678" y2="834.4678"/><text fill="#000000" font-family="Arial" font-size="11" lengthAdjust="spacing" textLength="111.8477" x="74.603" y="830.3167">Click STOP / MANUAL</text><polygon fill="#000000" points="330.2744,857.1167,340.2744,861.1167,330.2744,865.1167,334.2744,861.1167" style="stroke:#000000;stroke-width:1;"/><line style="stroke:#000000;stroke-width:1;" x1="198.4507" x2="336.2744" y1="861.1167" y2="861.1167"/><text fill="#000000" font-family="Arial" font-size="11" lengthAdjust="spacing" textLength="111.8906" x="214.4172" y="856.9656">Test::scenarioStopReq</text><line style="stroke:#000000;stroke-width:1;" x1="342.2744" x2="384.2744" y1="887.7656" y2="887.7656"/><line style="stroke:#000000;stroke-width:1;" x1="384.2744" x2="384.2744" y1="887.7656" y2="900.7656"/><line style="stroke:#000000;stroke-width:1;" x1="343.2744" x2="384.2744" y1="900.7656" y2="900.7656"/><polygon fill="#000000" points="353.2744,896.7656,343.2744,900.7656,353.2744,904.7656,349.2744,900.7656" style="stroke:#000000;stroke-width:1;"/><text fill="#000000" font-family="Arial" font-size="11" lengthAdjust="spacing" textLength="164.4897" x="349.2744" y="883.6145">applyScenarioPanelRequest(0, 1)</text><line style="stroke:#000000;stroke-width:1;" x1="342.2744" x2="384.2744" y1="927.4146" y2="927.4146"/><line style="stroke:#000000;stroke-width:1;" x1="384.2744" x2="384.2744" y1="927.4146" y2="940.4146"/><line style="stroke:#000000;stroke-width:1;" x1="343.2744" x2="384.2744" y1="940.4146" y2="940.4146"/><polygon fill="#000000" points="353.2744,936.4146,343.2744,940.4146,353.2744,944.4146,349.2744,940.4146" style="stroke:#000000;stroke-width:1;"/><text fill="#000000" font-family="Arial" font-size="11" lengthAdjust="spacing" textLength="119.8398" x="349.2744" y="923.2634">stopScenarioExecution()</text><polygon fill="#000000" points="567.3618,963.0635,577.3618,967.0635,567.3618,971.0635,571.3618,967.0635" style="stroke:#000000;stroke-width:1;"/><line style="stroke:#000000;stroke-width:1;" x1="342.2744" x2="573.3618" y1="967.0635" y2="967.0635"/><text fill="#000000" font-family="Arial" font-size="11" lengthAdjust="spacing" textLength="156.8145" x="382.4109" y="962.9124">Test::scenarioCommandAck = 0</text><polygon fill="#000000" points="567.3618,989.7124,577.3618,993.7124,567.3618,997.7124,571.3618,993.7124" style="stroke:#000000;stroke-width:1;"/><line style="stroke:#000000;stroke-width:1;" x1="342.2744" x2="573.3618" y1="993.7124" y2="993.7124"/><text fill="#000000" font-family="Arial" font-size="11" lengthAdjust="spacing" textLength="126.8652" x="397.3855" y="989.5613">Test::scenarioActiveId = 0</text><polygon fill="#000000" points="567.3618,1016.3613,577.3618,1020.3613,567.3618,1024.3613,571.3618,1020.3613" style="stroke:#000000;stroke-width:1;"/><line style="stroke:#000000;stroke-width:1;" x1="342.2744" x2="573.3618" y1="1020.3613" y2="1020.3613"/><text fill="#000000" font-family="Arial" font-size="11" lengthAdjust="spacing" textLength="131.1567" x="395.2397" y="1016.2102">Test::scenarioSettledId = 0</text><polygon fill="#000000" points="567.3618,1043.0103,577.3618,1047.0103,567.3618,1051.0103,571.3618,1047.0103" style="stroke:#000000;stroke-width:1;"/><line style="stroke:#000000;stroke-width:1;" x1="342.2744" x2="573.3618" y1="1047.0103" y2="1047.0103"/><text fill="#000000" font-family="Arial" font-size="11" lengthAdjust="spacing" textLength="145.8359" x="387.9001" y="1042.8591">Test::scenarioEvaluatedId = 0</text><polygon fill="#000000" points="567.3618,1069.6592,577.3618,1073.6592,567.3618,1077.6592,571.3618,1073.6592" style="stroke:#000000;stroke-width:1;"/><line style="stroke:#000000;stroke-width:1;" x1="342.2744" x2="573.3618" y1="1073.6592" y2="1073.6592"/><text fill="#000000" font-family="Arial" font-size="11" lengthAdjust="spacing" textLength="118.916" x="401.3601" y="1069.5081">Test::scenarioResult = 0</text><polygon fill="#000000" points="567.3618,1096.3081,577.3618,1100.3081,567.3618,1104.3081,571.3618,1100.3081" style="stroke:#000000;stroke-width:1;"/><line style="stroke:#000000;stroke-width:1;" x1="342.2744" x2="573.3618" y1="1100.3081" y2="1100.3081"/><text fill="#000000" font-family="Arial" font-size="11" lengthAdjust="spacing" textLength="107.3037" x="407.1663" y="1096.157">Test::testScenario = 0</text><polygon fill="#000000" points="704.5771,1148.2549,714.5771,1152.2549,704.5771,1156.2549,708.5771,1152.2549" style="stroke:#000000;stroke-width:1;"/><line style="stroke:#000000;stroke-width:1;" x1="342.2744" x2="710.5771" y1="1152.2549" y2="1152.2549"/><text fill="#000000" font-family="Arial" font-size="11" lengthAdjust="spacing" textLength="110.376" x="474.2378" y="1122.8059">scenarioLampStop = 1</text><text fill="#000000" font-family="Arial" font-size="11" lengthAdjust="spacing" textLength="114.0283" x="472.4116" y="1135.4548">scenarioLampWarn = 0</text><text fill="#000000" font-family="Arial" font-size="11" lengthAdjust="spacing" textLength="107.9268" x="475.4624" y="1148.1038">scenarioLampRun = 0</text><polygon fill="#000000" points="73.603,1160.2549,63.603,1164.2549,73.603,1168.2549,69.603,1164.2549" style="stroke:#000000;stroke-width:1;"/><line style="stroke:#000000;stroke-width:1;" x1="67.603" x2="578.3618" y1="1164.2549" y2="1164.2549"/><text fill="#000000" font-family="Arial" font-size="11" lengthAdjust="spacing" textLength="173.6421" x="234.1614" y="1175.7527">Current / Ack / Result boxes update</text><polygon fill="#000000" points="73.603,1186.9038,63.603,1190.9038,73.603,1194.9038,69.603,1190.9038" style="stroke:#000000;stroke-width:1;"/><line style="stroke:#000000;stroke-width:1;" x1="67.603" x2="715.5771" y1="1190.9038" y2="1190.9038"/><text fill="#000000" font-family="Arial" font-size="11" lengthAdjust="spacing" textLength="146.1475" x="316.5164" y="1202.4016">execution status LEDs update</text><path d="M10,1218.5527 L10,1303.5527 L769,1303.5527 L769,1228.5527 L759,1218.5527 L10,1218.5527 " fill="#FFFFFF" style="stroke:#000000;stroke-width:1;"/><path d="M759,1218.5527 L759,1228.5527 L769,1228.5527 L759,1218.5527 " fill="#FFFFFF" style="stroke:#000000;stroke-width:1;"/><text fill="#000000" font-family="Arial" font-size="11" lengthAdjust="spacing" textLength="143.0752" x="206.0588" y="1234.0505">Representative runtime chain</text><text fill="#000000" font-family="Arial" font-size="11" lengthAdjust="spacing" textLength="356.4365" x="206.0588" y="1246.6995">1. Scenario tab writes Test::scenarioCommand or Test::scenarioStopReq</text><text fill="#000000" font-family="Arial" font-size="11" lengthAdjust="spacing" textLength="298.332" x="206.0588" y="1259.3484">2. TEST_SCN accepts, mirrors, and locks the active scenario</text><text fill="#000000" font-family="Arial" font-size="11" lengthAdjust="spacing" textLength="338.0996" x="206.0588" y="1271.9973">3. TEST_SCN publishes commandAck / activeId / evaluatedId / result</text><text fill="#000000" font-family="Arial" font-size="11" lengthAdjust="spacing" textLength="296.4521" x="206.0588" y="1284.6462">4. TEST_SCN also drives STOP / WARN / RUN lamp seams</text><text fill="#000000" font-family="Arial" font-size="11" lengthAdjust="spacing" textLength="358.3218" x="206.0588" y="1297.2952">5. Input_Console reads back the same seams as the scenario state panel</text><!--SRC=[dLPDJnin4BtxLqpX0bA0JKi1HKsba2OI4WIK1N51Gixka5WuzjRs4jfVtx7t8rb8GzeSaeqzRpppPfvdFxaPpX4ooOLYzbceZ1i-XmbFdgT6vohjQwaDx0x3PyKYnIUUIpVKoequUUWPmUNw_LZyHcYtLpOj_inH9NY5rl8fzgIOAaXGEJGhLWPjffMjhCvHwaNF6Bq0Pt9ap0ad4MB2SICqn8uR1qVqgpE8oIENC2J8WzgxK5dk7llaJ1FYu3lS3kBRnxW_yi-sSc0TTqWE99zdTfyndZXAVUSwGyFfgV83fP_z7U0MgbsYw7XuEZnd5BiJYSYuSh3JEFX1rR4wFWde6wvGmkxWR1WD1qre5UA3gWFK2uKcu7peL9F1oU2aYOeRoJmeWpprnIJA-TmMs92cF_DqSDP43runoPtGgk200hwzlY56xdlZ4VsCxqR1mwNV33rntEyprksMt8zzMQs3RfUncXTYkCYo0tqfA18VUqQrHSUA3RBmQnsu9N2dKwNRr_CvLoahorIOy2oJlwea0xmyTA-2NQGjYFQRg0bEHKr-dUJU_YRV8S8Lay1Q5QEZxvhgBYpFNc_-9gKUiR0zg9SuyO8NwLf8KOfElUF_1m5q8LfsZb-zvqQzNntdVh7T9C8cCqnpYJLZBrpclAJCbtkvuBi2BGaz57rZ7Z4wqciQ4k4XfphgpS3ojF-1Lh511DIAxRUi6NoYCi_WNPiN_S-K9fz6J6SEz9CdXtaa6EAcmmxAKEAwAF397qJ-oKFOVYvMgEI0LHBB9LCHLu3ywOJIT2ERXR0Oec98XZwCKcPKsIEuuYgdo-q3cHKvNVL6TxtBpKhpRab6soejQa7xZNGiUTYahu_L46qjWcZxDel-fR6YRLjfgoiXsaAXxUqL6gsK-jj1VNG_DuR69jNPirXhSQ9VqKAUfMJLm5N1O7tH-pcHqvK- -543YhRNBsZgwTOga6oCuUPM1F8YDBboWeP_ClEl3-r3M1rmi322I5bVT2_7zKtu-N0vdNcIOEPi2-Q2vhwX1m-LEdcsG39vTnTyMS5c-KGAEwC0acMV7PKGAlZHKfBXNw56ThnwlBGQKaFszYzNH35MsTT3QBvY-B5hmrjKYDFwDwHWwiTdM6c-T6HUNqkj_m40]--></g></svg>