<svg xmlns="http://www.w3.org/2000/svg" xmlns:xlink="http://www.w3.org/1999/xlink" contentStyleType="text/css" height="1204px" preserveAspectRatio="none" style="width:1206px;height:1204px;background:#FFFFFF;" version="1.1" viewBox="0 0 1206 1204" width="1206px" zoomAndPan="magnify"><title>Seat Belt Override To Warning Signal Flow</title><defs/><g><text fill="#000000" font-family="Arial" font-size="22" font-weight="bold" lengthAdjust="spacing" textLength="446.1768" x="378.7665" y="35.9956">Seat Belt Override To Warning Signal Flow</text><text fill="#000000" font-family="Arial" font-size="22" font-weight="bold" lengthAdjust="spacing" textLength="553.083" x="325.3134" y="61.2935">(Input_Console -&gt; Router -&gt; BCM -&gt; CoreState / CLU)</text><rect fill="#FFFFFF" height="39.2979" style="stroke:#000000;stroke-width:1;" width="10" x="232.991" y="232.1914"/><rect fill="#FFFFFF" height="242.4893" style="stroke:#000000;stroke-width:1;" width="10" x="394.5105" y="271.4893"/><rect fill="#FFFFFF" height="334.085" style="stroke:#000000;stroke-width:1;" width="10" x="607.6311" y="513.9785"/><rect fill="#FFFFFF" height="164.8936" style="stroke:#000000;stroke-width:1;" width="10" x="1002.9661" y="848.0635"/><line style="stroke:#000000;stroke-width:1;" x1="71" x2="71" y1="162.8936" y2="1114.2017"/><line style="stroke:#000000;stroke-width:1;" x1="237.2068" x2="237.2068" y1="162.8936" y2="1114.2017"/><line style="stroke:#000000;stroke-width:1;" x1="398.7751" x2="398.7751" y1="162.8936" y2="1114.2017"/><line style="stroke:#000000;stroke-width:1;" x1="612.5762" x2="612.5762" y1="162.8936" y2="1114.2017"/><line style="stroke:#000000;stroke-width:1;" x1="852.7185" x2="852.7185" y1="162.8936" y2="1114.2017"/><line style="stroke:#000000;stroke-width:1;" x1="1007.3015" x2="1007.3015" y1="162.8936" y2="1114.2017"/><text fill="#000000" font-family="Arial" font-size="11" lengthAdjust="spacing" textLength="91.0884" x="23" y="148.0935">Driver / Passenger</text><text fill="#000000" font-family="Arial" font-size="11" lengthAdjust="spacing" textLength="75.2061" x="30.9412" y="160.7424">(Input Console)</text><ellipse cx="71.5442" cy="85.5957" fill="#F4F7FB" rx="8" ry="8" style="stroke:#000000;stroke-width:1;"/><path d="M71.5442,93.5957 L71.5442,120.5957 M58.5442,101.5957 L84.5442,101.5957 M71.5442,120.5957 L58.5442,135.5957 M71.5442,120.5957 L84.5442,135.5957 " fill="none" style="stroke:#000000;stroke-width:1;"/><text fill="#000000" font-family="Arial" font-size="11" lengthAdjust="spacing" textLength="91.0884" x="23" y="1123.6995">Driver / Passenger</text><text fill="#000000" font-family="Arial" font-size="11" lengthAdjust="spacing" textLength="75.2061" x="30.9412" y="1136.3484">(Input Console)</text><ellipse cx="71.5442" cy="1147.4995" fill="#F4F7FB" rx="8" ry="8" style="stroke:#000000;stroke-width:1;"/><path d="M71.5442,1155.4995 L71.5442,1182.4995 M58.5442,1163.4995 L84.5442,1163.4995 M71.5442,1182.4995 L58.5442,1197.4995 M71.5442,1182.4995 L84.5442,1197.4995 " fill="none" style="stroke:#000000;stroke-width:1;"/><rect fill="#E8F0FE" height="39.2979" rx="2.5" ry="2.5" style="stroke:#000000;stroke-width:1;" width="103.5684" x="186.2068" y="122.5957"/><text fill="#000000" font-family="Arial" font-size="11" lengthAdjust="spacing" textLength="70.9414" x="202.5203" y="140.0935">Input_Console</text><text fill="#000000" font-family="Arial" font-size="11" lengthAdjust="spacing" textLength="89.5684" x="193.2068" y="152.7424">Vehicle &gt; Belt Sim</text><rect fill="#E8F0FE" height="39.2979" rx="2.5" ry="2.5" style="stroke:#000000;stroke-width:1;" width="103.5684" x="186.2068" y="1113.2017"/><text fill="#000000" font-family="Arial" font-size="11" lengthAdjust="spacing" textLength="70.9414" x="202.5203" y="1130.6995">Input_Console</text><text fill="#000000" font-family="Arial" font-size="11" lengthAdjust="spacing" textLength="89.5684" x="193.2068" y="1143.3484">Vehicle &gt; Belt Sim</text><rect fill="#FFF4CC" height="39.2979" rx="2.5" ry="2.5" style="stroke:#000000;stroke-width:1;" width="159.4707" x="319.7751" y="122.5957"/><text fill="#000000" font-family="Arial" font-size="11" lengthAdjust="spacing" textLength="145.4707" x="326.7751" y="140.0935">INPUT_CONSOLE_ROUTER</text><text fill="#000000" font-family="Arial" font-size="11" lengthAdjust="spacing" textLength="105.166" x="346.9275" y="152.7424">belt toggle normalizer</text><rect fill="#FFF4CC" height="39.2979" rx="2.5" ry="2.5" style="stroke:#000000;stroke-width:1;" width="159.4707" x="319.7751" y="1113.2017"/><text fill="#000000" font-family="Arial" font-size="11" lengthAdjust="spacing" textLength="145.4707" x="326.7751" y="1130.6995">INPUT_CONSOLE_ROUTER</text><text fill="#000000" font-family="Arial" font-size="11" lengthAdjust="spacing" textLength="105.166" x="346.9275" y="1143.3484">belt toggle normalizer</text><rect fill="#E8F7E8" height="39.2979" rx="2.5" ry="2.5" style="stroke:#000000;stroke-width:1;" width="116.1099" x="554.5762" y="122.5957"/><text fill="#000000" font-family="Arial" font-size="11" lengthAdjust="spacing" textLength="24.4438" x="600.4092" y="140.0935">BCM</text><text fill="#000000" font-family="Arial" font-size="11" lengthAdjust="spacing" textLength="102.1099" x="561.5762" y="152.7424">seat-belt state owner</text><rect fill="#E8F7E8" height="39.2979" rx="2.5" ry="2.5" style="stroke:#000000;stroke-width:1;" width="116.1099" x="554.5762" y="1113.2017"/><text fill="#000000" font-family="Arial" font-size="11" lengthAdjust="spacing" textLength="24.4438" x="600.4092" y="1130.6995">BCM</text><text fill="#000000" font-family="Arial" font-size="11" lengthAdjust="spacing" textLength="102.1099" x="561.5762" y="1143.3484">seat-belt state owner</text><rect fill="#FCE8FF" height="39.2979" rx="2.5" ry="2.5" style="stroke:#000000;stroke-width:1;" width="110.583" x="797.7185" y="122.5957"/><text fill="#000000" font-family="Arial" font-size="11" lengthAdjust="spacing" textLength="49.5269" x="828.2466" y="140.0935">CoreState</text><text fill="#000000" font-family="Arial" font-size="11" lengthAdjust="spacing" textLength="96.583" x="804.7185" y="152.7424">belt warning mirrors</text><rect fill="#FCE8FF" height="39.2979" rx="2.5" ry="2.5" style="stroke:#000000;stroke-width:1;" width="110.583" x="797.7185" y="1113.2017"/><text fill="#000000" font-family="Arial" font-size="11" lengthAdjust="spacing" textLength="49.5269" x="828.2466" y="1130.6995">CoreState</text><text fill="#000000" font-family="Arial" font-size="11" lengthAdjust="spacing" textLength="96.583" x="804.7185" y="1143.3484">belt warning mirrors</text><rect fill="#E8F0FE" height="39.2979" rx="2.5" ry="2.5" style="stroke:#000000;stroke-width:1;" width="139.3291" x="938.3015" y="122.5957"/><text fill="#000000" font-family="Arial" font-size="11" lengthAdjust="spacing" textLength="22.0054" x="996.9634" y="140.0935">CLU</text><text fill="#000000" font-family="Arial" font-size="11" lengthAdjust="spacing" textLength="125.3291" x="945.3015" y="152.7424">cluster warning consumer</text><rect fill="#E8F0FE" height="39.2979" rx="2.5" ry="2.5" style="stroke:#000000;stroke-width:1;" width="139.3291" x="938.3015" y="1113.2017"/><text fill="#000000" font-family="Arial" font-size="11" lengthAdjust="spacing" textLength="22.0054" x="996.9634" y="1130.6995">CLU</text><text fill="#000000" font-family="Arial" font-size="11" lengthAdjust="spacing" textLength="125.3291" x="945.3015" y="1143.3484">cluster warning consumer</text><rect fill="#FFFFFF" height="39.2979" style="stroke:#000000;stroke-width:1;" width="10" x="232.991" y="232.1914"/><rect fill="#FFFFFF" height="242.4893" style="stroke:#000000;stroke-width:1;" width="10" x="394.5105" y="271.4893"/><rect fill="#FFFFFF" height="334.085" style="stroke:#000000;stroke-width:1;" width="10" x="607.6311" y="513.9785"/><rect fill="#FFFFFF" height="164.8936" style="stroke:#000000;stroke-width:1;" width="10" x="1002.9661" y="848.0635"/><rect fill="#FFFFFF" height="3" style="stroke:#FFFFFF;stroke-width:1;" width="1194.7097" x="5" y="192.218"/><line style="stroke:#000000;stroke-width:0.5;" x1="5" x2="1199.7097" y1="192.218" y2="192.218"/><line style="stroke:#000000;stroke-width:0.5;" x1="5" x2="1199.7097" y1="195.218" y2="195.218"/><rect fill="#FFFFFF" height="20.6489" style="stroke:#000000;stroke-width:1;" width="106.877" x="548.9164" y="182.8936"/><text fill="#000000" font-family="Arial" font-size="11" font-weight="bold" lengthAdjust="spacing" textLength="89.8208" x="554.9164" y="197.3914">Belt Toggle Input</text><polygon fill="#000000" points="220.991,228.1914,230.991,232.1914,220.991,236.1914,224.991,232.1914" style="stroke:#000000;stroke-width:1;"/><line style="stroke:#000000;stroke-width:1;" x1="71.5442" x2="226.991" y1="232.1914" y2="232.1914"/><text fill="#000000" font-family="Arial" font-size="11" lengthAdjust="spacing" textLength="142.4468" x="81.0442" y="228.0403">Click DRV / PASS belt toggle</text><polygon fill="#000000" points="382.5105,267.4893,392.5105,271.4893,382.5105,275.4893,386.5105,271.4893" style="stroke:#000000;stroke-width:1;"/><line style="stroke:#000000;stroke-width:1;" x1="237.991" x2="388.5105" y1="271.4893" y2="271.4893"/><text fill="#000000" font-family="Arial" font-size="11" lengthAdjust="spacing" textLength="88.6338" x="271.9338" y="254.6892">Test::driverBeltOff</text><text fill="#000000" font-family="Arial" font-size="11" lengthAdjust="spacing" textLength="112.4976" x="260.002" y="267.3381">Test::passengerBeltOff</text><path d="M242,284.4893 L242,319.4893 L450,319.4893 L450,294.4893 L440,284.4893 L242,284.4893 " fill="#FFFFFF" style="stroke:#000000;stroke-width:1;"/><path d="M440,284.4893 L440,294.4893 L450,294.4893 L440,284.4893 " fill="#FFFFFF" style="stroke:#000000;stroke-width:1;"/><text fill="#000000" font-family="Arial" font-size="11" lengthAdjust="spacing" textLength="187.1021" x="248" y="299.9871">Panel uses toggle-style belt simulation</text><text fill="#000000" font-family="Arial" font-size="11" lengthAdjust="spacing" textLength="165.7197" x="248" y="312.636">instead of direct percentage input.</text><rect fill="#FFFFFF" height="3" style="stroke:#FFFFFF;stroke-width:1;" width="1194.7097" x="5" y="344.1116"/><line style="stroke:#000000;stroke-width:0.5;" x1="5" x2="1199.7097" y1="344.1116" y2="344.1116"/><line style="stroke:#000000;stroke-width:0.5;" x1="5" x2="1199.7097" y1="347.1116" y2="347.1116"/><rect fill="#FFFFFF" height="20.6489" style="stroke:#000000;stroke-width:1;" width="157.6499" x="523.5299" y="334.7871"/><text fill="#000000" font-family="Arial" font-size="11" font-weight="bold" lengthAdjust="spacing" textLength="140.5938" x="529.5299" y="349.2849">Router Override Derivation</text><line style="stroke:#000000;stroke-width:1;" x1="404.5105" x2="446.5105" y1="384.085" y2="384.085"/><line style="stroke:#000000;stroke-width:1;" x1="446.5105" x2="446.5105" y1="384.085" y2="397.085"/><line style="stroke:#000000;stroke-width:1;" x1="405.5105" x2="446.5105" y1="397.085" y2="397.085"/><polygon fill="#000000" points="415.5105,393.085,405.5105,397.085,415.5105,401.085,411.5105,397.085" style="stroke:#000000;stroke-width:1;"/><text fill="#000000" font-family="Arial" font-size="11" lengthAdjust="spacing" textLength="179.1206" x="411.5105" y="379.9338">refreshSeatBeltOverrideFromPanel()</text><line style="stroke:#000000;stroke-width:1;" x1="404.5105" x2="446.5105" y1="449.0317" y2="449.0317"/><line style="stroke:#000000;stroke-width:1;" x1="446.5105" x2="446.5105" y1="449.0317" y2="462.0317"/><line style="stroke:#000000;stroke-width:1;" x1="405.5105" x2="446.5105" y1="462.0317" y2="462.0317"/><polygon fill="#000000" points="415.5105,458.0317,405.5105,462.0317,415.5105,466.0317,411.5105,462.0317" style="stroke:#000000;stroke-width:1;"/><text fill="#000000" font-family="Arial" font-size="11" lengthAdjust="spacing" textLength="91.4053" x="419.3066" y="419.5828">seatBeltOverride =</text><text fill="#000000" font-family="Arial" font-size="11" lengthAdjust="spacing" textLength="92.6138" x="418.7024" y="432.2317">(driverOff ? 1 : 0) +</text><text fill="#000000" font-family="Arial" font-size="11" lengthAdjust="spacing" textLength="106.9976" x="411.5105" y="444.8806">(passengerOff ? 2 : 0)</text><polygon fill="#000000" points="595.6311,509.9785,605.6311,513.9785,595.6311,517.9785,599.6311,513.9785" style="stroke:#000000;stroke-width:1;"/><line style="stroke:#000000;stroke-width:1;" x1="399.5105" x2="601.6311" y1="513.9785" y2="513.9785"/><text fill="#000000" font-family="Arial" font-size="11" lengthAdjust="spacing" textLength="88.6338" x="459.2539" y="484.5295">Test::driverBeltOff</text><text fill="#000000" font-family="Arial" font-size="11" lengthAdjust="spacing" textLength="112.4976" x="447.322" y="497.1785">Test::passengerBeltOff</text><text fill="#000000" font-family="Arial" font-size="11" lengthAdjust="spacing" textLength="109.4307" x="448.8555" y="509.8274">Test::seatBeltOverride</text><path d="M404,526.9785 L404,586.9785 L544,586.9785 L544,536.9785 L534,526.9785 L404,526.9785 " fill="#FFFFFF" style="stroke:#000000;stroke-width:1;"/><path d="M534,526.9785 L534,536.9785 L544,536.9785 L534,526.9785 " fill="#FFFFFF" style="stroke:#000000;stroke-width:1;"/><text fill="#000000" font-family="Arial" font-size="11" lengthAdjust="spacing" textLength="109.4414" x="410" y="542.4763">Representative seams</text><text fill="#000000" font-family="Arial" font-size="11" lengthAdjust="spacing" textLength="95.353" x="410" y="555.1252">- Test::driverBeltOff</text><text fill="#000000" font-family="Arial" font-size="11" lengthAdjust="spacing" textLength="119.2168" x="410" y="567.7742">- Test::passengerBeltOff</text><text fill="#000000" font-family="Arial" font-size="11" lengthAdjust="spacing" textLength="116.1499" x="410" y="580.4231">- Test::seatBeltOverride</text><rect fill="#FFFFFF" height="3" style="stroke:#FFFFFF;stroke-width:1;" width="1194.7097" x="5" y="611.8987"/><line style="stroke:#000000;stroke-width:0.5;" x1="5" x2="1199.7097" y1="611.8987" y2="611.8987"/><line style="stroke:#000000;stroke-width:0.5;" x1="5" x2="1199.7097" y1="614.8987" y2="614.8987"/><rect fill="#FFFFFF" height="20.6489" style="stroke:#000000;stroke-width:1;" width="149.0562" x="527.8268" y="602.5742"/><text fill="#000000" font-family="Arial" font-size="11" font-weight="bold" lengthAdjust="spacing" textLength="132" x="533.8268" y="617.072">BCM Warning Ownership</text><line style="stroke:#000000;stroke-width:1;" x1="617.6311" x2="659.6311" y1="651.8721" y2="651.8721"/><line style="stroke:#000000;stroke-width:1;" x1="659.6311" x2="659.6311" y1="651.8721" y2="664.8721"/><line style="stroke:#000000;stroke-width:1;" x1="618.6311" x2="659.6311" y1="664.8721" y2="664.8721"/><polygon fill="#000000" points="628.6311,660.8721,618.6311,664.8721,628.6311,668.8721,624.6311,664.8721" style="stroke:#000000;stroke-width:1;"/><text fill="#000000" font-family="Arial" font-size="11" lengthAdjust="spacing" textLength="159.2583" x="624.6311" y="647.7209">DriverSeatBelt = driverOff ? 0 : 1</text><line style="stroke:#000000;stroke-width:1;" x1="617.6311" x2="659.6311" y1="691.521" y2="691.521"/><line style="stroke:#000000;stroke-width:1;" x1="659.6311" x2="659.6311" y1="691.521" y2="704.521"/><line style="stroke:#000000;stroke-width:1;" x1="618.6311" x2="659.6311" y1="704.521" y2="704.521"/><polygon fill="#000000" points="628.6311,700.521,618.6311,704.521,628.6311,708.521,624.6311,704.521" style="stroke:#000000;stroke-width:1;"/><text fill="#000000" font-family="Arial" font-size="11" lengthAdjust="spacing" textLength="206.3789" x="624.6311" y="687.3699">PassengerSeatBelt = passengerOff ? 0 : 1</text><line style="stroke:#000000;stroke-width:1;" x1="617.6311" x2="659.6311" y1="756.4678" y2="756.4678"/><line style="stroke:#000000;stroke-width:1;" x1="659.6311" x2="659.6311" y1="756.4678" y2="769.4678"/><line style="stroke:#000000;stroke-width:1;" x1="618.6311" x2="659.6311" y1="769.4678" y2="769.4678"/><polygon fill="#000000" points="628.6311,765.4678,618.6311,769.4678,628.6311,773.4678,624.6311,769.4678" style="stroke:#000000;stroke-width:1;"/><text fill="#000000" font-family="Arial" font-size="11" lengthAdjust="spacing" textLength="91.4053" x="638.5449" y="727.0188">SeatBeltWarnLvl =</text><text fill="#000000" font-family="Arial" font-size="11" lengthAdjust="spacing" textLength="117.0845" x="625.7053" y="739.6677">(gDriveState &gt; 0) ? 3 : 2</text><text fill="#000000" font-family="Arial" font-size="11" lengthAdjust="spacing" textLength="119.2329" x="624.6311" y="752.3167">when any front belt is off</text><polygon fill="#000000" points="841.01,817.4146,851.01,821.4146,841.01,825.4146,845.01,821.4146" style="stroke:#000000;stroke-width:1;"/><line style="stroke:#000000;stroke-width:1;" x1="617.6311" x2="847.01" y1="821.4146" y2="821.4146"/><text fill="#000000" font-family="Arial" font-size="11" lengthAdjust="spacing" textLength="69.0884" x="700.7764" y="791.9656">driverSeatBelt</text><text fill="#000000" font-family="Arial" font-size="11" lengthAdjust="spacing" textLength="92.9521" x="688.8445" y="804.6145">passengerSeatBelt</text><text fill="#000000" font-family="Arial" font-size="11" lengthAdjust="spacing" textLength="80.0884" x="695.2764" y="817.2634">seatBeltWarnLvl</text><polygon fill="#000000" points="990.9661,844.0635,1000.9661,848.0635,990.9661,852.0635,994.9661,848.0635" style="stroke:#000000;stroke-width:1;"/><line style="stroke:#000000;stroke-width:1;" x1="612.6311" x2="996.9661" y1="848.0635" y2="848.0635"/><text fill="#000000" font-family="Arial" font-size="11" lengthAdjust="spacing" textLength="103.9307" x="755.8333" y="843.9124">frmSeatBeltStateMsg</text><path d="M617,861.0635 L617,896.0635 L823,896.0635 L823,871.0635 L813,861.0635 L617,861.0635 " fill="#FFFFFF" style="stroke:#000000;stroke-width:1;"/><path d="M813,861.0635 L813,871.0635 L823,871.0635 L813,861.0635 " fill="#FFFFFF" style="stroke:#000000;stroke-width:1;"/><text fill="#000000" font-family="Arial" font-size="11" lengthAdjust="spacing" textLength="143.0591" x="623" y="876.5613">BCM is the effective owner of</text><text fill="#000000" font-family="Arial" font-size="11" lengthAdjust="spacing" textLength="185.2759" x="623" y="889.2102">front seat belt state and warning level.</text><rect fill="#FFFFFF" height="3" style="stroke:#FFFFFF;stroke-width:1;" width="1194.7097" x="5" y="920.6858"/><line style="stroke:#000000;stroke-width:0.5;" x1="5" x2="1199.7097" y1="920.6858" y2="920.6858"/><line style="stroke:#000000;stroke-width:0.5;" x1="5" x2="1199.7097" y1="923.6858" y2="923.6858"/><rect fill="#FFFFFF" height="20.6489" style="stroke:#000000;stroke-width:1;" width="103.2461" x="550.7318" y="911.3613"/><text fill="#000000" font-family="Arial" font-size="11" font-weight="bold" lengthAdjust="spacing" textLength="86.1899" x="556.7318" y="925.8591">Cluster Visibility</text><line style="stroke:#000000;stroke-width:1;" x1="1012.9661" x2="1054.9661" y1="973.3081" y2="973.3081"/><line style="stroke:#000000;stroke-width:1;" x1="1054.9661" x2="1054.9661" y1="973.3081" y2="986.3081"/><line style="stroke:#000000;stroke-width:1;" x1="1013.9661" x2="1054.9661" y1="986.3081" y2="986.3081"/><polygon fill="#000000" points="1023.9661,982.3081,1013.9661,986.3081,1023.9661,990.3081,1019.9661,986.3081" style="stroke:#000000;stroke-width:1;"/><text fill="#000000" font-family="Arial" font-size="11" lengthAdjust="spacing" textLength="147.9575" x="1024.8591" y="956.5081">consume seat-belt state frame</text><text fill="#000000" font-family="Arial" font-size="11" lengthAdjust="spacing" textLength="157.7437" x="1019.9661" y="969.157">within base cluster warning logic</text><polygon fill="#000000" points="248.991,1008.957,238.991,1012.957,248.991,1016.957,244.991,1012.957" style="stroke:#000000;stroke-width:1;"/><line style="stroke:#000000;stroke-width:1;" x1="242.991" x2="1006.9661" y1="1012.957" y2="1012.957"/><text fill="#000000" font-family="Arial" font-size="11" lengthAdjust="spacing" textLength="177.9282" x="534.0144" y="1008.8059">warning readback / cluster indication</text><path d="M10,1025.957 L10,1098.957 L1069,1098.957 L1069,1035.957 L1059,1025.957 L10,1025.957 " fill="#FFFFFF" style="stroke:#000000;stroke-width:1;"/><path d="M1059,1025.957 L1059,1035.957 L1069,1035.957 L1059,1025.957 " fill="#FFFFFF" style="stroke:#000000;stroke-width:1;"/><text fill="#000000" font-family="Arial" font-size="11" lengthAdjust="spacing" textLength="143.0752" x="375.7455" y="1041.4548">Representative runtime chain</text><text fill="#000000" font-family="Arial" font-size="11" lengthAdjust="spacing" textLength="270.2734" x="375.7455" y="1054.1038">1. Input_Console toggles driver/passenger belt-off state</text><text fill="#000000" font-family="Arial" font-size="11" lengthAdjust="spacing" textLength="319.1396" x="375.7455" y="1066.7527">2. Router compresses panel toggles into seatBeltOverride mirrors</text><text fill="#000000" font-family="Arial" font-size="11" lengthAdjust="spacing" textLength="247.022" x="375.7455" y="1079.4016">3. BCM publishes seat-belt state and warning level</text><text fill="#000000" font-family="Arial" font-size="11" lengthAdjust="spacing" textLength="271.4604" x="375.7455" y="1092.0505">4. CLU consumes belt state for visible warning outcome</text><!--SRC=[bLNHJkCw47ttLyo5bqLtswKiqgugbHM4LheIK4GBzwKICkaajKZiNDjfnNxz7TjnIDE-B2z5zioPcNCont_P3PO8LS65PEPTo8fhNi8RJzzphMgvJbIXD9pE_5ydOeqPhmixKz8-S4Aure8Nn-yNuZV2QDIvDFXVZJB5UpI6vtXTY5n2YjAYxaHfD9MI9aRTOA5srrgh7LXT8sDMs09XWTm2tLcORr5hiKPOAlYNQoba3Wj2vWNCA7Kbl_mZgzg-9WIgA7Dm1K-gffhklvlatlqaIkF2Selm3PAxvpF6U6g9W9DRBGYUJX-vCIXpr14F6hop4-06vcbQLrnQeknozcDsmsWMArBXpqxs6bZ95zo8b3gv2WCiHEan7hd40awdFsVdisaFuE7nUVcQp1yMyxlfwzFyUJbzMiatbsrLdXEMLBha1L6kFLOpeHFmCadsmMZc5V7BxS0363-tsiacrL7YclWn_RcVrvBKLDurP9U2rD769tyIUJfB26JMWxXxNicqg8rhBkQdn4jTDjKfegM0JIQ1eMMOCV0-cJ3MqatQ1Th6a1GYVOVRfnUdrlLY0Hrwd9nYwzhoqIpaV7u9OrYYiUFnsiljQiwpR2N3OHMbRywPL0IaHRwneB8znDgWQKeEZFsWdWF5egmBReMIJ4YQdQzTubfeJ2rKgDqEqASEmWquP2ZNu6gmDVRwTemqBRUV_Irg5qBWdfes8yInps-zdLLZHaksSIlaHsgGPbgLlioNisDPfXSE4rg5G1YH0hzWH47dP_0t7RUKXPiBVyFsr-wFE8_d_IPwMiIPiQ817Qd41RhEIyC6n-grfmSYnuk3YiVKQUhw3vP6YpOqTqjbDgBQLuP2M6CyWOZWCb4Fc42NrdCA6Et7jsRKIUbHVYGh1hlkxhQ5ro_tfSF6NZdrVi5t2hrOoTq69N3v0PacCm_ViJ14SiOEJ7FSD1mhh6JLxp0uJgTyYq8BFwOYPOpqaFScxqaRIQCUwF42p39ClRhUkIY2XKPT6UWO6oUvejCKkCNY-7uvU2TVqfZJYp3YJHJ2VknhH-qortBRUUDUq3VKZDuoSigTi1iXwMKr27tZArGkqeWMRInUQd89znwJcyKy8TSY3JRIwTnr5BXIxgcArlZLN_GsGTVI2cestRY7VpI4_QSnE9TfrFpMYkZv793qOJPsCOosaAhI5N2sL_a18eIGLXrQHlDKiEz3_qrMzLiXp8R2- -mTgCOkXvxmXcxJbJYZbthhzA8HOXArHxrrjlL_]--></g></svg>