<svg xmlns="http://www.w3.org/2000/svg" xmlns:xlink="http://www.w3.org/1999/xlink" contentStyleType="text/css" height="1865px" preserveAspectRatio="none" style="width:1488px;height:1865px;background:#FFFFFF;" version="1.1" viewBox="0 0 1488 1865" width="1488px" zoomAndPan="magnify"><title>Steering Turn Signal Flow</title><defs/><g><text fill="#000000" font-family="Arial" font-size="22" font-weight="bold" lengthAdjust="spacing" textLength="271.3477" x="606.8323" y="35.9956">Steering Turn Signal Flow</text><text fill="#000000" font-family="Arial" font-size="22" font-weight="bold" lengthAdjust="spacing" textLength="571.4092" x="456.8015" y="61.2935">(Input_Console -&gt; ESC -&gt; MDPS -&gt; CGW / ADAS / CLU)</text><rect fill="#FFFFFF" height="45.2979" style="stroke:#000000;stroke-width:1;" width="10" x="213.7344" y="232.1914"/><rect fill="#FFFFFF" height="397.0317" style="stroke:#000000;stroke-width:1;" width="10" x="404.7266" y="279.4893"/><rect fill="#FFFFFF" height="297.4893" style="stroke:#000000;stroke-width:1;" width="10" x="642.3394" y="676.521"/><rect fill="#FFFFFF" height="174.1914" style="stroke:#000000;stroke-width:1;" width="10" x="868.936" y="976.0103"/><rect fill="#FFFFFF" height="147.8936" style="stroke:#000000;stroke-width:1;" width="10" x="1035.6343" y="1152.2017"/><rect fill="#FFFFFF" height="221.1914" style="stroke:#000000;stroke-width:1;" width="10" x="1240.5586" y="1302.0952"/><line style="stroke:#000000;stroke-width:1;" x1="59" x2="59" y1="162.8936" y2="1775.0737"/><line style="stroke:#000000;stroke-width:1;" x1="217.9421" x2="217.9421" y1="162.8936" y2="1775.0737"/><line style="stroke:#000000;stroke-width:1;" x1="408.7759" x2="408.7759" y1="162.8936" y2="1775.0737"/><line style="stroke:#000000;stroke-width:1;" x1="647.0852" x2="647.0852" y1="162.8936" y2="1775.0737"/><line style="stroke:#000000;stroke-width:1;" x1="873.5469" x2="873.5469" y1="162.8936" y2="1775.0737"/><line style="stroke:#000000;stroke-width:1;" x1="1040.3909" x2="1040.3909" y1="162.8936" y2="1775.0737"/><line style="stroke:#000000;stroke-width:1;" x1="1244.7817" x2="1244.7817" y1="162.8936" y2="1775.0737"/><text fill="#000000" font-family="Arial" font-size="11" lengthAdjust="spacing" textLength="29.3315" x="41.9373" y="148.0935">Driver</text><text fill="#000000" font-family="Arial" font-size="11" lengthAdjust="spacing" textLength="75.2061" x="19" y="160.7424">(Input Console)</text><ellipse cx="59.603" cy="85.5957" fill="#F4F7FB" rx="8" ry="8" style="stroke:#000000;stroke-width:1;"/><path d="M59.603,93.5957 L59.603,120.5957 M46.603,101.5957 L72.603,101.5957 M59.603,120.5957 L46.603,135.5957 M59.603,120.5957 L72.603,135.5957 " fill="none" style="stroke:#000000;stroke-width:1;"/><text fill="#000000" font-family="Arial" font-size="11" lengthAdjust="spacing" textLength="29.3315" x="41.9373" y="1784.5715">Driver</text><text fill="#000000" font-family="Arial" font-size="11" lengthAdjust="spacing" textLength="75.2061" x="19" y="1797.2205">(Input Console)</text><ellipse cx="59.603" cy="1808.3716" fill="#F4F7FB" rx="8" ry="8" style="stroke:#000000;stroke-width:1;"/><path d="M59.603,1816.3716 L59.603,1843.3716 M46.603,1824.3716 L72.603,1824.3716 M59.603,1843.3716 L46.603,1858.3716 M59.603,1843.3716 L72.603,1858.3716 " fill="none" style="stroke:#000000;stroke-width:1;"/><rect fill="#E8F0FE" height="39.2979" rx="2.5" ry="2.5" style="stroke:#000000;stroke-width:1;" width="103.5845" x="166.9421" y="122.5957"/><text fill="#000000" font-family="Arial" font-size="11" lengthAdjust="spacing" textLength="70.9414" x="183.2637" y="140.0935">Input_Console</text><text fill="#000000" font-family="Arial" font-size="11" lengthAdjust="spacing" textLength="89.5845" x="173.9421" y="152.7424">Vehicle &gt; Steering</text><rect fill="#E8F0FE" height="39.2979" rx="2.5" ry="2.5" style="stroke:#000000;stroke-width:1;" width="103.5845" x="166.9421" y="1774.0737"/><text fill="#000000" font-family="Arial" font-size="11" lengthAdjust="spacing" textLength="70.9414" x="183.2637" y="1791.5715">Input_Console</text><text fill="#000000" font-family="Arial" font-size="11" lengthAdjust="spacing" textLength="89.5845" x="173.9421" y="1804.2205">Vehicle &gt; Steering</text><rect fill="#FFE6E6" height="39.2979" rx="2.5" ry="2.5" style="stroke:#000000;stroke-width:1;" width="125.9014" x="346.7759" y="122.5957"/><text fill="#000000" font-family="Arial" font-size="11" lengthAdjust="spacing" textLength="22.6177" x="398.4177" y="140.0935">ESC</text><text fill="#000000" font-family="Arial" font-size="11" lengthAdjust="spacing" textLength="111.9014" x="353.7759" y="152.7424">manual steering bridge</text><rect fill="#FFE6E6" height="39.2979" rx="2.5" ry="2.5" style="stroke:#000000;stroke-width:1;" width="125.9014" x="346.7759" y="1774.0737"/><text fill="#000000" font-family="Arial" font-size="11" lengthAdjust="spacing" textLength="22.6177" x="398.4177" y="1791.5715">ESC</text><text fill="#000000" font-family="Arial" font-size="11" lengthAdjust="spacing" textLength="111.9014" x="353.7759" y="1804.2205">manual steering bridge</text><rect fill="#E8F7E8" height="39.2979" rx="2.5" ry="2.5" style="stroke:#000000;stroke-width:1;" width="126.5083" x="584.0852" y="122.5957"/><text fill="#000000" font-family="Arial" font-size="11" lengthAdjust="spacing" textLength="31.7808" x="631.449" y="140.0935">MDPS</text><text fill="#000000" font-family="Arial" font-size="11" lengthAdjust="spacing" textLength="112.5083" x="591.0852" y="152.7424">steering state producer</text><rect fill="#E8F7E8" height="39.2979" rx="2.5" ry="2.5" style="stroke:#000000;stroke-width:1;" width="126.5083" x="584.0852" y="1774.0737"/><text fill="#000000" font-family="Arial" font-size="11" lengthAdjust="spacing" textLength="31.7808" x="631.449" y="1791.5715">MDPS</text><text fill="#000000" font-family="Arial" font-size="11" lengthAdjust="spacing" textLength="112.5083" x="591.0852" y="1804.2205">steering state producer</text><rect fill="#FFF4CC" height="39.2979" rx="2.5" ry="2.5" style="stroke:#000000;stroke-width:1;" width="130.7783" x="808.5469" y="122.5957"/><text fill="#000000" font-family="Arial" font-size="11" lengthAdjust="spacing" textLength="26.8823" x="860.4949" y="140.0935">CGW</text><text fill="#000000" font-family="Arial" font-size="11" lengthAdjust="spacing" textLength="116.7783" x="815.5469" y="152.7424">freshness/gateway view</text><rect fill="#FFF4CC" height="39.2979" rx="2.5" ry="2.5" style="stroke:#000000;stroke-width:1;" width="130.7783" x="808.5469" y="1774.0737"/><text fill="#000000" font-family="Arial" font-size="11" lengthAdjust="spacing" textLength="26.8823" x="860.4949" y="1791.5715">CGW</text><text fill="#000000" font-family="Arial" font-size="11" lengthAdjust="spacing" textLength="116.7783" x="815.5469" y="1804.2205">freshness/gateway view</text><rect fill="#FCE8FF" height="39.2979" rx="2.5" ry="2.5" style="stroke:#000000;stroke-width:1;" width="104.4868" x="988.3909" y="122.5957"/><text fill="#000000" font-family="Arial" font-size="11" lengthAdjust="spacing" textLength="29.9546" x="1025.657" y="140.0935">ADAS</text><text fill="#000000" font-family="Arial" font-size="11" lengthAdjust="spacing" textLength="90.4868" x="995.3909" y="152.7424">steering consumer</text><rect fill="#FCE8FF" height="39.2979" rx="2.5" ry="2.5" style="stroke:#000000;stroke-width:1;" width="104.4868" x="988.3909" y="1774.0737"/><text fill="#000000" font-family="Arial" font-size="11" lengthAdjust="spacing" textLength="29.9546" x="1025.657" y="1791.5715">ADAS</text><text fill="#000000" font-family="Arial" font-size="11" lengthAdjust="spacing" textLength="90.4868" x="995.3909" y="1804.2205">steering consumer</text><rect fill="#E8F0FE" height="39.2979" rx="2.5" ry="2.5" style="stroke:#000000;stroke-width:1;" width="107.5537" x="1191.7817" y="122.5957"/><text fill="#000000" font-family="Arial" font-size="11" lengthAdjust="spacing" textLength="22.0054" x="1234.5559" y="140.0935">CLU</text><text fill="#000000" font-family="Arial" font-size="11" lengthAdjust="spacing" textLength="93.5537" x="1198.7817" y="152.7424">wheel frame output</text><rect fill="#E8F0FE" height="39.2979" rx="2.5" ry="2.5" style="stroke:#000000;stroke-width:1;" width="107.5537" x="1191.7817" y="1774.0737"/><text fill="#000000" font-family="Arial" font-size="11" lengthAdjust="spacing" textLength="22.0054" x="1234.5559" y="1791.5715">CLU</text><text fill="#000000" font-family="Arial" font-size="11" lengthAdjust="spacing" textLength="93.5537" x="1198.7817" y="1804.2205">wheel frame output</text><rect fill="#FFFFFF" height="45.2979" style="stroke:#000000;stroke-width:1;" width="10" x="213.7344" y="232.1914"/><rect fill="#FFFFFF" height="397.0317" style="stroke:#000000;stroke-width:1;" width="10" x="404.7266" y="279.4893"/><rect fill="#FFFFFF" height="297.4893" style="stroke:#000000;stroke-width:1;" width="10" x="642.3394" y="676.521"/><rect fill="#FFFFFF" height="174.1914" style="stroke:#000000;stroke-width:1;" width="10" x="868.936" y="976.0103"/><rect fill="#FFFFFF" height="147.8936" style="stroke:#000000;stroke-width:1;" width="10" x="1035.6343" y="1152.2017"/><rect fill="#FFFFFF" height="221.1914" style="stroke:#000000;stroke-width:1;" width="10" x="1240.5586" y="1302.0952"/><rect fill="#FFFFFF" height="3" style="stroke:#FFFFFF;stroke-width:1;" width="1476.0122" x="5" y="192.218"/><line style="stroke:#000000;stroke-width:0.5;" x1="5" x2="1481.0122" y1="192.218" y2="192.218"/><line style="stroke:#000000;stroke-width:0.5;" x1="5" x2="1481.0122" y1="195.218" y2="195.218"/><rect fill="#FFFFFF" height="20.6489" style="stroke:#000000;stroke-width:1;" width="131.9492" x="677.0315" y="182.8936"/><text fill="#000000" font-family="Arial" font-size="11" font-weight="bold" lengthAdjust="spacing" textLength="114.8931" x="683.0315" y="197.3914">Manual Steering Input</text><polygon fill="#000000" points="201.7344,228.1914,211.7344,232.1914,201.7344,236.1914,205.7344,232.1914" style="stroke:#000000;stroke-width:1;"/><line style="stroke:#000000;stroke-width:1;" x1="59.603" x2="207.7344" y1="232.1914" y2="232.1914"/><text fill="#000000" font-family="Arial" font-size="11" lengthAdjust="spacing" textLength="122.896" x="75.2207" y="228.0403">Drag steering bar / wheel</text><line style="stroke:#000000;stroke-width:1;" x1="223.7344" x2="265.7344" y1="276.4893" y2="276.4893"/><line style="stroke:#000000;stroke-width:1;" x1="265.7344" x2="265.7344" y1="276.4893" y2="289.4893"/><line style="stroke:#000000;stroke-width:1;" x1="218.7344" x2="265.7344" y1="289.4893" y2="289.4893"/><polygon fill="#000000" points="228.7344,285.4893,218.7344,289.4893,228.7344,293.4893,224.7344,289.4893" style="stroke:#000000;stroke-width:1;"/><text fill="#000000" font-family="Arial" font-size="11" lengthAdjust="spacing" textLength="148.5483" x="230.7344" y="259.6892">Write Cmd::steeringAngleCmd</text><text fill="#000000" font-family="Arial" font-size="11" lengthAdjust="spacing" textLength="105.5044" x="252.2563" y="272.3381">range -540..+540 deg</text><path d="M223,297.4893 L223,370.4893 L407,370.4893 L407,307.4893 L397,297.4893 L223,297.4893 " fill="#FFFFFF" style="stroke:#000000;stroke-width:1;"/><path d="M397,297.4893 L397,307.4893 L407,307.4893 L397,297.4893 " fill="#FFFFFF" style="stroke:#000000;stroke-width:1;"/><text fill="#000000" font-family="Arial" font-size="11" lengthAdjust="spacing" textLength="54.4199" x="229" y="312.9871">Input seam</text><text fill="#000000" font-family="Arial" font-size="11" lengthAdjust="spacing" textLength="126.5483" x="229" y="325.636">- Cmd::steeringAngleCmd</text><text fill="#000000" font-family="Arial" font-size="11" lengthAdjust="spacing" textLength="163.8613" x="229" y="338.2849">- donor/readback UI also watches</text><text fill="#000000" font-family="Arial" font-size="11" lengthAdjust="spacing" textLength="133.9121" x="235.1123" y="350.9338">Chassis::steeringAngle and</text><text fill="#000000" font-family="Arial" font-size="11" lengthAdjust="spacing" textLength="113.0938" x="235.1123" y="363.5828">Display::steeringFrame</text><rect fill="#FFFFFF" height="3" style="stroke:#FFFFFF;stroke-width:1;" width="1476.0122" x="5" y="395.0583"/><line style="stroke:#000000;stroke-width:0.5;" x1="5" x2="1481.0122" y1="395.0583" y2="395.0583"/><line style="stroke:#000000;stroke-width:0.5;" x1="5" x2="1481.0122" y1="398.0583" y2="398.0583"/><rect fill="#FFFFFF" height="20.6489" style="stroke:#000000;stroke-width:1;" width="173.543" x="656.2346" y="385.7339"/><text fill="#000000" font-family="Arial" font-size="11" font-weight="bold" lengthAdjust="spacing" textLength="156.4868" x="662.2346" y="400.2317">ESC Manual Readback Bridge</text><polygon fill="#000000" points="392.7266,431.0317,402.7266,435.0317,392.7266,439.0317,396.7266,435.0317" style="stroke:#000000;stroke-width:1;"/><line style="stroke:#000000;stroke-width:1;" x1="218.7344" x2="398.7266" y1="435.0317" y2="435.0317"/><text fill="#000000" font-family="Arial" font-size="11" lengthAdjust="spacing" textLength="161.9922" x="230.7344" y="430.8806">Cmd::steeringAngleCmd (sysvar)</text><line style="stroke:#000000;stroke-width:1;" x1="414.7266" x2="456.7266" y1="461.6807" y2="461.6807"/><line style="stroke:#000000;stroke-width:1;" x1="456.7266" x2="456.7266" y1="461.6807" y2="474.6807"/><line style="stroke:#000000;stroke-width:1;" x1="415.7266" x2="456.7266" y1="474.6807" y2="474.6807"/><polygon fill="#000000" points="425.7266,470.6807,415.7266,474.6807,425.7266,478.6807,421.7266,474.6807" style="stroke:#000000;stroke-width:1;"/><text fill="#000000" font-family="Arial" font-size="11" lengthAdjust="spacing" textLength="203.6128" x="421.7266" y="457.5295">mapSignedSteeringCmdToLegacyAngle()</text><line style="stroke:#000000;stroke-width:1;" x1="414.7266" x2="456.7266" y1="501.3296" y2="501.3296"/><line style="stroke:#000000;stroke-width:1;" x1="456.7266" x2="456.7266" y1="501.3296" y2="514.3296"/><line style="stroke:#000000;stroke-width:1;" x1="415.7266" x2="456.7266" y1="514.3296" y2="514.3296"/><polygon fill="#000000" points="425.7266,510.3296,415.7266,514.3296,425.7266,518.3296,421.7266,514.3296" style="stroke:#000000;stroke-width:1;"/><text fill="#000000" font-family="Arial" font-size="11" lengthAdjust="spacing" textLength="168.7651" x="421.7266" y="497.1785">publishManualSteeringReadback()</text><line style="stroke:#000000;stroke-width:1;" x1="414.7266" x2="456.7266" y1="540.9785" y2="540.9785"/><line style="stroke:#000000;stroke-width:1;" x1="456.7266" x2="456.7266" y1="540.9785" y2="553.9785"/><line style="stroke:#000000;stroke-width:1;" x1="415.7266" x2="456.7266" y1="553.9785" y2="553.9785"/><polygon fill="#000000" points="425.7266,549.9785,415.7266,553.9785,425.7266,557.9785,421.7266,553.9785" style="stroke:#000000;stroke-width:1;"/><text fill="#000000" font-family="Arial" font-size="11" lengthAdjust="spacing" textLength="192.5967" x="421.7266" y="536.8274">deriveManualSteeringInputFromAngle()</text><path d="M419,566.9785 L419,651.9785 L602,651.9785 L602,576.9785 L592,566.9785 L419,566.9785 " fill="#FFFFFF" style="stroke:#000000;stroke-width:1;"/><path d="M592,566.9785 L592,576.9785 L602,576.9785 L592,566.9785 " fill="#FFFFFF" style="stroke:#000000;stroke-width:1;"/><text fill="#000000" font-family="Arial" font-size="11" lengthAdjust="spacing" textLength="116.7944" x="425" y="582.4763">Manual mode condition:</text><text fill="#000000" font-family="Arial" font-size="11" lengthAdjust="spacing" textLength="140.0083" x="425" y="595.1252">- Test::scenarioActiveId == 0</text><text fill="#000000" font-family="Arial" font-size="11" lengthAdjust="spacing" textLength="3.0562" x="425" y="607.7742">&#160;</text><text fill="#000000" font-family="Arial" font-size="11" lengthAdjust="spacing" textLength="36.6792" x="425" y="620.4231">Effects:</text><text fill="#000000" font-family="Arial" font-size="11" lengthAdjust="spacing" textLength="162.3413" x="425" y="633.072">- Chassis::steeringAngle = 0..138</text><text fill="#000000" font-family="Arial" font-size="11" lengthAdjust="spacing" textLength="110.9829" x="425" y="645.7209">- steeringInput = 0 or 1</text><polygon fill="#000000" points="1233.5586,672.521,1243.5586,676.521,1233.5586,680.521,1237.5586,676.521" style="stroke:#000000;stroke-width:1;"/><line style="stroke:#000000;stroke-width:1;" x1="409.7266" x2="1239.5586" y1="676.521" y2="676.521"/><text fill="#000000" font-family="Arial" font-size="11" lengthAdjust="spacing" textLength="202.9736" x="726.1558" y="672.3699">Chassis::steeringAngle (sysvar readback)</text><rect fill="#FFFFFF" height="3" style="stroke:#FFFFFF;stroke-width:1;" width="1476.0122" x="5" y="703.8455"/><line style="stroke:#000000;stroke-width:0.5;" x1="5" x2="1481.0122" y1="703.8455" y2="703.8455"/><line style="stroke:#000000;stroke-width:0.5;" x1="5" x2="1481.0122" y1="706.8455" y2="706.8455"/><rect fill="#FFFFFF" height="20.6489" style="stroke:#000000;stroke-width:1;" width="138.6846" x="673.6638" y="694.521"/><text fill="#000000" font-family="Arial" font-size="11" font-weight="bold" lengthAdjust="spacing" textLength="121.6284" x="679.6638" y="709.0188">MDPS Steering Publish</text><polygon fill="#000000" points="630.3394,752.4678,640.3394,756.4678,630.3394,760.4678,634.3394,756.4678" style="stroke:#000000;stroke-width:1;"/><line style="stroke:#000000;stroke-width:1;" x1="409.7266" x2="636.3394" y1="756.4678" y2="756.4678"/><text fill="#000000" font-family="Arial" font-size="11" lengthAdjust="spacing" textLength="97.813" x="477.1265" y="739.6677">frmSteeringCanMsg</text><text fill="#000000" font-family="Arial" font-size="11" lengthAdjust="spacing" textLength="164.4736" x="443.7961" y="752.3167">or manual Chassis::steeringAngle</text><line style="stroke:#000000;stroke-width:1;" x1="652.3394" x2="694.3394" y1="795.7656" y2="795.7656"/><line style="stroke:#000000;stroke-width:1;" x1="694.3394" x2="694.3394" y1="795.7656" y2="808.7656"/><line style="stroke:#000000;stroke-width:1;" x1="653.3394" x2="694.3394" y1="808.7656" y2="808.7656"/><polygon fill="#000000" points="663.3394,804.7656,653.3394,808.7656,663.3394,812.7656,659.3394,808.7656" style="stroke:#000000;stroke-width:1;"/><text fill="#000000" font-family="Arial" font-size="11" lengthAdjust="spacing" textLength="192.5967" x="659.3394" y="778.9656">deriveManualSteeringInputFromAngle()</text><text fill="#000000" font-family="Arial" font-size="11" lengthAdjust="spacing" textLength="96.0029" x="707.6362" y="791.6145">when manual mode</text><line style="stroke:#000000;stroke-width:1;" x1="652.3394" x2="694.3394" y1="835.4146" y2="835.4146"/><line style="stroke:#000000;stroke-width:1;" x1="694.3394" x2="694.3394" y1="835.4146" y2="848.4146"/><line style="stroke:#000000;stroke-width:1;" x1="653.3394" x2="694.3394" y1="848.4146" y2="848.4146"/><polygon fill="#000000" points="663.3394,844.4146,653.3394,848.4146,663.3394,852.4146,659.3394,848.4146" style="stroke:#000000;stroke-width:1;"/><text fill="#000000" font-family="Arial" font-size="11" lengthAdjust="spacing" textLength="188.0366" x="659.3394" y="831.2634">steeringAngleRaw = steeringInput * 30</text><line style="stroke:#000000;stroke-width:1;" x1="652.3394" x2="694.3394" y1="875.0635" y2="875.0635"/><line style="stroke:#000000;stroke-width:1;" x1="694.3394" x2="694.3394" y1="875.0635" y2="888.0635"/><line style="stroke:#000000;stroke-width:1;" x1="653.3394" x2="694.3394" y1="888.0635" y2="888.0635"/><polygon fill="#000000" points="663.3394,884.0635,653.3394,888.0635,663.3394,892.0635,659.3394,888.0635" style="stroke:#000000;stroke-width:1;"/><text fill="#000000" font-family="Arial" font-size="11" lengthAdjust="spacing" textLength="172.7505" x="659.3394" y="870.9124">steeringTorque = steeringInput * 20</text><polygon fill="#000000" points="861.936,910.7124,871.936,914.7124,861.936,918.7124,865.936,914.7124" style="stroke:#000000;stroke-width:1;"/><line style="stroke:#000000;stroke-width:1;" x1="652.3394" x2="867.936" y1="914.7124" y2="914.7124"/><text fill="#000000" font-family="Arial" font-size="11" lengthAdjust="spacing" textLength="123.4976" x="701.3889" y="910.5613">frmSteeringStateCanMsg</text><polygon fill="#000000" points="1028.6343,937.3613,1038.6343,941.3613,1028.6343,945.3613,1032.6343,941.3613" style="stroke:#000000;stroke-width:1;"/><line style="stroke:#000000;stroke-width:1;" x1="652.3394" x2="1034.6343" y1="941.3613" y2="941.3613"/><text fill="#000000" font-family="Arial" font-size="11" lengthAdjust="spacing" textLength="123.4976" x="784.738" y="937.2102">frmSteeringStateCanMsg</text><line style="stroke:#000000;stroke-width:1;" x1="652.3394" x2="694.3394" y1="973.0103" y2="973.0103"/><line style="stroke:#000000;stroke-width:1;" x1="694.3394" x2="694.3394" y1="973.0103" y2="986.0103"/><line style="stroke:#000000;stroke-width:1;" x1="647.3394" x2="694.3394" y1="986.0103" y2="986.0103"/><polygon fill="#000000" points="657.3394,982.0103,647.3394,986.0103,657.3394,990.0103,653.3394,986.0103" style="stroke:#000000;stroke-width:1;"/><text fill="#000000" font-family="Arial" font-size="11" lengthAdjust="spacing" textLength="146.126" x="659.3394" y="968.8591">output frmSteeringTorqueMsg</text><path d="M652,994.0103 L652,1067.0103 L803,1067.0103 L803,1004.0103 L793,994.0103 L652,994.0103 " fill="#FFFFFF" style="stroke:#000000;stroke-width:1;"/><path d="M793,994.0103 L793,1004.0103 L803,1004.0103 L793,994.0103 " fill="#FFFFFF" style="stroke:#000000;stroke-width:1;"/><text fill="#000000" font-family="Arial" font-size="11" lengthAdjust="spacing" textLength="114.3345" x="658" y="1009.5081">Published every 50 ms:</text><text fill="#000000" font-family="Arial" font-size="11" lengthAdjust="spacing" textLength="130.2168" x="658" y="1022.157">- frmSteeringStateCanMsg</text><text fill="#000000" font-family="Arial" font-size="11" lengthAdjust="spacing" textLength="119.2061" x="658" y="1034.8059">- frmSteeringTorqueMsg</text><text fill="#000000" font-family="Arial" font-size="11" lengthAdjust="spacing" textLength="88.0215" x="658" y="1047.4548">- frmEpsStateMsg</text><text fill="#000000" font-family="Arial" font-size="11" lengthAdjust="spacing" textLength="123.519" x="658" y="1060.1038">- backbone steering state</text><rect fill="#FFFFFF" height="3" style="stroke:#FFFFFF;stroke-width:1;" width="1476.0122" x="5" y="1091.5793"/><line style="stroke:#000000;stroke-width:0.5;" x1="5" x2="1481.0122" y1="1091.5793" y2="1091.5793"/><line style="stroke:#000000;stroke-width:0.5;" x1="5" x2="1481.0122" y1="1094.5793" y2="1094.5793"/><rect fill="#FFFFFF" height="20.6489" style="stroke:#000000;stroke-width:1;" width="146.6445" x="669.6838" y="1082.2549"/><text fill="#000000" font-family="Arial" font-size="11" font-weight="bold" lengthAdjust="spacing" textLength="129.5884" x="675.6838" y="1096.7527">Downstream Consumers</text><line style="stroke:#000000;stroke-width:1;" x1="878.936" x2="920.936" y1="1149.2017" y2="1149.2017"/><line style="stroke:#000000;stroke-width:1;" x1="920.936" x2="920.936" y1="1149.2017" y2="1162.2017"/><line style="stroke:#000000;stroke-width:1;" x1="873.936" x2="920.936" y1="1162.2017" y2="1162.2017"/><polygon fill="#000000" points="883.936,1158.2017,873.936,1162.2017,883.936,1166.2017,879.936,1162.2017" style="stroke:#000000;stroke-width:1;"/><text fill="#000000" font-family="Arial" font-size="11" lengthAdjust="spacing" textLength="110.6714" x="896.9495" y="1132.4016">update gSteeringTsMs</text><text fill="#000000" font-family="Arial" font-size="11" lengthAdjust="spacing" textLength="132.6982" x="885.936" y="1145.0505">and steering freshness age</text><path d="M878,1170.2017 L878,1217.2017 L1056,1217.2017 L1056,1180.2017 L1046,1170.2017 L878,1170.2017 " fill="#FFFFFF" style="stroke:#000000;stroke-width:1;"/><path d="M1046,1170.2017 L1046,1180.2017 L1056,1180.2017 L1046,1170.2017 " fill="#FFFFFF" style="stroke:#000000;stroke-width:1;"/><text fill="#000000" font-family="Arial" font-size="11" lengthAdjust="spacing" textLength="99.6606" x="884" y="1185.6995">Gateway side effect:</text><text fill="#000000" font-family="Arial" font-size="11" lengthAdjust="spacing" textLength="157.7437" x="884" y="1198.3484">- steering freshness merged into</text><text fill="#000000" font-family="Arial" font-size="11" lengthAdjust="spacing" textLength="141.8291" x="890.1123" y="1210.9973">chassis visibility / health view</text><line style="stroke:#000000;stroke-width:1;" x1="1045.6343" x2="1087.6343" y1="1241.7974" y2="1241.7974"/><line style="stroke:#000000;stroke-width:1;" x1="1087.6343" x2="1087.6343" y1="1241.7974" y2="1254.7974"/><line style="stroke:#000000;stroke-width:1;" x1="1046.6343" x2="1087.6343" y1="1254.7974" y2="1254.7974"/><polygon fill="#000000" points="1056.6343,1250.7974,1046.6343,1254.7974,1056.6343,1258.7974,1052.6343,1254.7974" style="stroke:#000000;stroke-width:1;"/><text fill="#000000" font-family="Arial" font-size="11" lengthAdjust="spacing" textLength="170.9243" x="1052.6343" y="1237.6462">gCanSteeringInput = SteeringState</text><line style="stroke:#000000;stroke-width:1;" x1="1045.6343" x2="1087.6343" y1="1299.0952" y2="1299.0952"/><line style="stroke:#000000;stroke-width:1;" x1="1087.6343" x2="1087.6343" y1="1299.0952" y2="1312.0952"/><line style="stroke:#000000;stroke-width:1;" x1="1040.6343" x2="1087.6343" y1="1312.0952" y2="1312.0952"/><polygon fill="#000000" points="1050.6343,1308.0952,1040.6343,1312.0952,1050.6343,1316.0952,1046.6343,1312.0952" style="stroke:#000000;stroke-width:1;"/><text fill="#000000" font-family="Arial" font-size="11" lengthAdjust="spacing" textLength="96.5991" x="1063.0327" y="1282.2952">steeringInputNorm /</text><text fill="#000000" font-family="Arial" font-size="11" lengthAdjust="spacing" textLength="117.396" x="1052.6343" y="1294.9441">AB-group / release logic</text><path d="M1045,1320.0952 L1045,1380.0952 L1186,1380.0952 L1186,1330.0952 L1176,1320.0952 L1045,1320.0952 " fill="#FFFFFF" style="stroke:#000000;stroke-width:1;"/><path d="M1176,1320.0952 L1176,1330.0952 L1186,1330.0952 L1176,1320.0952 " fill="#FFFFFF" style="stroke:#000000;stroke-width:1;"/><text fill="#000000" font-family="Arial" font-size="11" lengthAdjust="spacing" textLength="43.4092" x="1051" y="1335.593">Used by:</text><text fill="#000000" font-family="Arial" font-size="11" lengthAdjust="spacing" textLength="97.8291" x="1051" y="1348.2419">- decel release logic</text><text fill="#000000" font-family="Arial" font-size="11" lengthAdjust="spacing" textLength="120.4629" x="1051" y="1360.8909">- zone/speed adjustment</text><text fill="#000000" font-family="Arial" font-size="11" lengthAdjust="spacing" textLength="110.0645" x="1051" y="1373.5398">- steer group detection</text><line style="stroke:#000000;stroke-width:1;" x1="1250.5586" x2="1292.5586" y1="1404.3398" y2="1404.3398"/><line style="stroke:#000000;stroke-width:1;" x1="1292.5586" x2="1292.5586" y1="1404.3398" y2="1417.3398"/><line style="stroke:#000000;stroke-width:1;" x1="1251.5586" x2="1292.5586" y1="1417.3398" y2="1417.3398"/><polygon fill="#000000" points="1261.5586,1413.3398,1251.5586,1417.3398,1261.5586,1421.3398,1257.5586,1417.3398" style="stroke:#000000;stroke-width:1;"/><text fill="#000000" font-family="Arial" font-size="11" lengthAdjust="spacing" textLength="201.4536" x="1257.5586" y="1400.1887">if manual -&gt; use Cmd::steeringAngleCmd</text><line style="stroke:#000000;stroke-width:1;" x1="1250.5586" x2="1292.5586" y1="1443.9888" y2="1443.9888"/><line style="stroke:#000000;stroke-width:1;" x1="1292.5586" x2="1292.5586" y1="1443.9888" y2="1456.9888"/><line style="stroke:#000000;stroke-width:1;" x1="1251.5586" x2="1292.5586" y1="1456.9888" y2="1456.9888"/><polygon fill="#000000" points="1261.5586,1452.9888,1251.5586,1456.9888,1261.5586,1460.9888,1257.5586,1456.9888" style="stroke:#000000;stroke-width:1;"/><text fill="#000000" font-family="Arial" font-size="11" lengthAdjust="spacing" textLength="169.6729" x="1257.5586" y="1439.8376">else -&gt; use Chassis::steeringAngle</text><line style="stroke:#000000;stroke-width:1;" x1="1250.5586" x2="1292.5586" y1="1483.6377" y2="1483.6377"/><line style="stroke:#000000;stroke-width:1;" x1="1292.5586" x2="1292.5586" y1="1483.6377" y2="1496.6377"/><line style="stroke:#000000;stroke-width:1;" x1="1251.5586" x2="1292.5586" y1="1496.6377" y2="1496.6377"/><polygon fill="#000000" points="1261.5586,1492.6377,1251.5586,1496.6377,1261.5586,1500.6377,1257.5586,1496.6377" style="stroke:#000000;stroke-width:1;"/><text fill="#000000" font-family="Arial" font-size="11" lengthAdjust="spacing" textLength="149.8159" x="1257.5586" y="1479.4866">frame = (angle * 69 + 69) / 138</text><polygon fill="#000000" points="229.7344,1519.2866,219.7344,1523.2866,229.7344,1527.2866,225.7344,1523.2866" style="stroke:#000000;stroke-width:1;"/><line style="stroke:#000000;stroke-width:1;" x1="223.7344" x2="1244.5586" y1="1523.2866" y2="1523.2866"/><text fill="#000000" font-family="Arial" font-size="11" lengthAdjust="spacing" textLength="113.0938" x="675.5996" y="1519.1355">Display::steeringFrame</text><path d="M1250,1536.2866 L1250,1583.2866 L1418,1583.2866 L1418,1546.2866 L1408,1536.2866 L1250,1536.2866 " fill="#FFFFFF" style="stroke:#000000;stroke-width:1;"/><path d="M1408,1536.2866 L1408,1546.2866 L1418,1546.2866 L1408,1536.2866 " fill="#FFFFFF" style="stroke:#000000;stroke-width:1;"/><text fill="#000000" font-family="Arial" font-size="11" lengthAdjust="spacing" textLength="69.0776" x="1256" y="1551.7844">Display seam:</text><text fill="#000000" font-family="Arial" font-size="11" lengthAdjust="spacing" textLength="147.3345" x="1256" y="1564.4333">- Display::steeringFrame 0..69</text><text fill="#000000" font-family="Arial" font-size="11" lengthAdjust="spacing" textLength="142.4575" x="1256" y="1577.0823">- wheel image follows the bar</text><rect fill="#FFFFFF" height="3" style="stroke:#FFFFFF;stroke-width:1;" width="1476.0122" x="5" y="1608.5579"/><line style="stroke:#000000;stroke-width:0.5;" x1="5" x2="1481.0122" y1="1608.5579" y2="1608.5579"/><line style="stroke:#000000;stroke-width:0.5;" x1="5" x2="1481.0122" y1="1611.5579" y2="1611.5579"/><rect fill="#FFFFFF" height="20.6489" style="stroke:#000000;stroke-width:1;" width="130.7622" x="677.625" y="1599.2334"/><text fill="#000000" font-family="Arial" font-size="11" font-weight="bold" lengthAdjust="spacing" textLength="113.7061" x="683.625" y="1613.7312">Visible User Outcome</text><polygon fill="#000000" points="70.603,1629.8823,60.603,1633.8823,70.603,1637.8823,66.603,1633.8823" style="stroke:#000000;stroke-width:1;"/><line style="stroke:#000000;stroke-width:1;" x1="64.603" x2="217.7344" y1="1633.8823" y2="1633.8823"/><text fill="#000000" font-family="Arial" font-size="11" lengthAdjust="spacing" textLength="124.1367" x="77.1003" y="1645.3801">Steering bar, degree box,</text><text fill="#000000" font-family="Arial" font-size="11" lengthAdjust="spacing" textLength="135.1313" x="71.603" y="1658.0291">wheel image move together</text><path d="M10,1674.1802 L10,1759.1802 L1295,1759.1802 L1295,1684.1802 L1285,1674.1802 L10,1674.1802 " fill="#FFFFFF" style="stroke:#000000;stroke-width:1;"/><path d="M1285,1674.1802 L1285,1684.1802 L1295,1684.1802 L1285,1674.1802 " fill="#FFFFFF" style="stroke:#000000;stroke-width:1;"/><text fill="#000000" font-family="Arial" font-size="11" lengthAdjust="spacing" textLength="143.0752" x="517.9402" y="1689.678">Representative runtime chain</text><text fill="#000000" font-family="Arial" font-size="11" lengthAdjust="spacing" textLength="237.8374" x="517.9402" y="1702.3269">1. Input_Console writes Cmd::steeringAngleCmd</text><text fill="#000000" font-family="Arial" font-size="11" lengthAdjust="spacing" textLength="203.6074" x="517.9402" y="1714.9758">2. ESC creates manual steering readback</text><text fill="#000000" font-family="Arial" font-size="11" lengthAdjust="spacing" textLength="202.9951" x="517.9402" y="1727.6248">3. MDPS publishes steering state / torque</text><text fill="#000000" font-family="Arial" font-size="11" lengthAdjust="spacing" textLength="210.3159" x="517.9402" y="1740.2737">4. CGW and ADAS consume steering state</text><text fill="#000000" font-family="Arial" font-size="11" lengthAdjust="spacing" textLength="260.4551" x="517.9402" y="1752.9226">5. CLU renders steeringFrame for donor wheel image</text><!--SRC=[ZLPRJzj857wVNt4MNg250ENIDbegXP1KID151DgNIAl1Fd5cQyzaPyPaqr-_vumliIr7kpmGoNEkttTkl_abPWYhL2ejt4-bLzBA35vbz3En9jVnsAJ6mluq_3KaObp8FFLJe_qtIHP6Licq_tscVY6SdJKU7VwTeuxm0PsJ2OvIbMY8K7kq3IcBRcMqgwHkC3NhaRLc3TxcA8HNFaMOUKIhT0BFkTKm8qioXIc9plN1dLxb_iyn6J4aUVm59hCn_ppSFixuT_pr1vp0w7Oqev_n_SkX43BobE_UhLLlQ2iJK9eut0Ffe7WZJ2wc7wStWeBrAb8hgJtijJpEzNTSgeXSVwd331OUfSOKzYUVfgVJITi0HJZNcTGvPU6gr5wjYXCCgfm1iJ6vcbor5JcdkQvLd9UUUBKcpYEqGJLapKu_JZwrTGc7kLuGtajDM9yafBgM6tXJk0wQZ1ENmCLut5Paw1fE8yexpqft0TRzwPWSJZlkxb_cUhr4mc1XkNXCxWcsmjNzImsCkBw6XmAAckM2Z-jh8KeQYCO2pY4H8vC6QD8Igy4DiwhU690WAWg5XkOFg-XndCN3OQK_qacAz6MkhTG9LS_bnUbWy9x-KsqdGXjIi2fPUZ2BqcmHcqEPYUD-O_GzDjhO4uiovYQ3bpkGgJEmbZvQeXC0uwLqJhcECaWTq-EjSjIhc-tZb04Kg6FWY4ICdLGPGwwP4iUdokzDAAa0PAr1SbjeM6dOdmKSk8rxa_PGbFrKo6PonUs7SKKMYJwRUqnaj0cg1ns5LVwQAhSiGgkKgWYxmZ4otstP0FZKcgmotsQ5yodppaoCN9wnyihe8V7mZCvJQZHrf5Lcn1ZWNKo0mAaGayK28-zORWST93OOd9r_8WdNZ8OVW2R8sPQJCWskxE4kSoMYKDN5OPD9pYFq0ZTmtGcF1Nfj2bb4DAVSa5eigmcH-i4bSof0A4TCVpYY6f2bYV-3VUXeNTbblBjMMYwUv9gWQaFt3ivFToaz6qixeqVbmrQ5nrGhtnaFmIBfMYYCfV-KAhqNWwafNCJ1ekrQ2y2Nb60CIADf0vUda8KYsk7jkDzo-3nPkI1QVE2QU3KQeJtWUni_XCBrSclMD9kffBAmm7WoktQv46A2KQl1orSnVq_geDo3cskQFLl7zPu0MieT5DZUrt9xE4KjXw6HXeqkQUXJF0bXfRGtDDgYeXHfwpZrgbBbDpI-boXJlmoRg3TNThXDXxaLWU0jqLpqiqw7jhZeAhGAx9kn6PpCzUZccE-X5OLaCKNf45AJgAYJVmZWnL5IhnjEEiQ8fcbRunX-4P4dReKa9kE_SkSpEdqgYA3m4wCdu6XMzQOT_3Hel7yHF5xgAQCMLIFIfzpjM6rj7KmTrkBzOw4bNwpkQpYGOOAzWwlFy9x-7H96F1XBuNevzs-kJlrG8gLWsAECORyYZz-hp_HSt14gesA4XKdfy7D0Hosl__wA8HVS7D-vp2XkOil27xcFJ8RDk-BtuphqMUEaEEBjRv7ict-EgYkcy9wPDmHl4YJtLXIP6JPLM3mAhfzmHVLFV4jUE61pxHKvfkAd0_ni0EsJTSrtYTl1teT1M8qHDJWBTO_6QfM8yq4npifrIwATA_64ekRP8ou6OGnmkuTcAE-vxj2v78GIi0GlJvGsBmjQBk76QJApPU9V]--></g></svg>