<svg xmlns="http://www.w3.org/2000/svg" xmlns:xlink="http://www.w3.org/1999/xlink" contentStyleType="text/css" height="751px" preserveAspectRatio="none" style="width:769px;height:751px;background:#FFFFFF;" version="1.1" viewBox="0 0 769 751" width="769px" zoomAndPan="magnify"><title>Steering Angle To CLU Frame Signal Flow</title><defs/><g><text fill="#000000" font-family="Arial" font-size="22" font-weight="bold" lengthAdjust="spacing" textLength="440.043" x="163.296" y="35.9956">Steering Angle To CLU Frame Signal Flow</text><text fill="#000000" font-family="Arial" font-size="22" font-weight="bold" lengthAdjust="spacing" textLength="666.8857" x="49.8746" y="61.2935">(steering angle/manual command -&gt; CLU steering frame render)</text><line style="stroke:#000000;stroke-width:1;" x1="109" x2="109" y1="116.8936" y2="707.4678"/><line style="stroke:#000000;stroke-width:1;" x1="285.4736" x2="285.4736" y1="116.8936" y2="707.4678"/><line style="stroke:#000000;stroke-width:1;" x1="514.9849" x2="514.9849" y1="116.8936" y2="707.4678"/><line style="stroke:#000000;stroke-width:1;" x1="683.2097" x2="683.2097" y1="116.8936" y2="707.4678"/><rect fill="#F4F7FB" height="26.6489" rx="2.5" ry="2.5" style="stroke:#000000;stroke-width:1;" width="178.4736" x="20" y="89.2446"/><text fill="#000000" font-family="Arial" font-size="11" lengthAdjust="spacing" textLength="164.4736" x="27" y="106.7424">Steering state / manual command</text><rect fill="#F4F7FB" height="26.6489" rx="2.5" ry="2.5" style="stroke:#000000;stroke-width:1;" width="178.4736" x="20" y="706.4678"/><text fill="#000000" font-family="Arial" font-size="11" lengthAdjust="spacing" textLength="164.4736" x="27" y="723.9656">Steering state / manual command</text><rect fill="#E8F7E8" height="39.2979" rx="2.5" ry="2.5" style="stroke:#000000;stroke-width:1;" width="114.2676" x="228.4736" y="76.5957"/><text fill="#000000" font-family="Arial" font-size="11" lengthAdjust="spacing" textLength="22.0054" x="274.6047" y="94.0935">CLU</text><text fill="#000000" font-family="Arial" font-size="11" lengthAdjust="spacing" textLength="100.2676" x="235.4736" y="106.7424">cluster render owner</text><rect fill="#E8F7E8" height="39.2979" rx="2.5" ry="2.5" style="stroke:#000000;stroke-width:1;" width="114.2676" x="228.4736" y="706.4678"/><text fill="#000000" font-family="Arial" font-size="11" lengthAdjust="spacing" textLength="22.0054" x="274.6047" y="723.9656">CLU</text><text fill="#000000" font-family="Arial" font-size="11" lengthAdjust="spacing" textLength="100.2676" x="235.4736" y="736.6145">cluster render owner</text><rect fill="#FFF4CC" height="26.6489" rx="2.5" ry="2.5" style="stroke:#000000;stroke-width:1;" width="85.5215" x="472.9849" y="89.2446"/><text fill="#000000" font-family="Arial" font-size="11" lengthAdjust="spacing" textLength="71.5215" x="479.9849" y="106.7424">Display seams</text><rect fill="#FFF4CC" height="26.6489" rx="2.5" ry="2.5" style="stroke:#000000;stroke-width:1;" width="85.5215" x="472.9849" y="706.4678"/><text fill="#000000" font-family="Arial" font-size="11" lengthAdjust="spacing" textLength="71.5215" x="479.9849" y="723.9656">Display seams</text><rect fill="#E8F0FE" height="26.6489" rx="2.5" ry="2.5" style="stroke:#000000;stroke-width:1;" width="90.4253" x="638.2097" y="89.2446"/><text fill="#000000" font-family="Arial" font-size="11" lengthAdjust="spacing" textLength="76.4253" x="645.2097" y="106.7424">Cluster / panels</text><rect fill="#E8F0FE" height="26.6489" rx="2.5" ry="2.5" style="stroke:#000000;stroke-width:1;" width="90.4253" x="638.2097" y="706.4678"/><text fill="#000000" font-family="Arial" font-size="11" lengthAdjust="spacing" textLength="76.4253" x="645.2097" y="723.9656">Cluster / panels</text><rect fill="#FFFFFF" height="3" style="stroke:#FFFFFF;stroke-width:1;" width="757.635" x="5" y="146.218"/><line style="stroke:#000000;stroke-width:0.5;" x1="5" x2="762.635" y1="146.218" y2="146.218"/><line style="stroke:#000000;stroke-width:0.5;" x1="5" x2="762.635" y1="149.218" y2="149.218"/><rect fill="#FFFFFF" height="20.6489" style="stroke:#000000;stroke-width:1;" width="86.123" x="340.756" y="136.8936"/><text fill="#000000" font-family="Arial" font-size="11" font-weight="bold" lengthAdjust="spacing" textLength="69.0669" x="346.756" y="151.3914">Frame Inputs</text><polygon fill="#000000" points="273.6074,207.4893,283.6074,211.4893,273.6074,215.4893,277.6074,211.4893" style="stroke:#000000;stroke-width:1;"/><line style="stroke:#000000;stroke-width:1;" x1="109.2368" x2="279.6074" y1="211.4893" y2="211.4893"/><text fill="#000000" font-family="Arial" font-size="11" lengthAdjust="spacing" textLength="112.5029" x="141.1707" y="182.0403">Chassis::steeringAngle</text><text fill="#000000" font-family="Arial" font-size="11" lengthAdjust="spacing" textLength="119.8291" x="137.5076" y="194.6892">Cmd::steeringAngleCmd</text><text fill="#000000" font-family="Arial" font-size="11" lengthAdjust="spacing" textLength="111.2837" x="141.7803" y="207.3381">scenario manual mode</text><line style="stroke:#000000;stroke-width:1;" x1="285.6074" x2="327.6074" y1="250.7871" y2="250.7871"/><line style="stroke:#000000;stroke-width:1;" x1="327.6074" x2="327.6074" y1="250.7871" y2="263.7871"/><line style="stroke:#000000;stroke-width:1;" x1="286.6074" x2="327.6074" y1="263.7871" y2="263.7871"/><polygon fill="#000000" points="296.6074,259.7871,286.6074,263.7871,296.6074,267.7871,292.6074,263.7871" style="stroke:#000000;stroke-width:1;"/><text fill="#000000" font-family="Arial" font-size="11" lengthAdjust="spacing" textLength="75.2061" x="363.0735" y="233.9871">if manual mode</text><text fill="#000000" font-family="Arial" font-size="11" lengthAdjust="spacing" textLength="216.1382" x="292.6074" y="246.636">angle = normalized Cmd::steeringAngleCmd</text><line style="stroke:#000000;stroke-width:1;" x1="285.6074" x2="327.6074" y1="290.436" y2="290.436"/><line style="stroke:#000000;stroke-width:1;" x1="327.6074" x2="327.6074" y1="290.436" y2="303.436"/><line style="stroke:#000000;stroke-width:1;" x1="286.6074" x2="327.6074" y1="303.436" y2="303.436"/><polygon fill="#000000" points="296.6074,299.436,286.6074,303.436,296.6074,307.436,292.6074,303.436" style="stroke:#000000;stroke-width:1;"/><text fill="#000000" font-family="Arial" font-size="11" lengthAdjust="spacing" textLength="175.189" x="292.6074" y="286.2849">else angle = Chassis::steeringAngle</text><line style="stroke:#000000;stroke-width:1;" x1="285.6074" x2="327.6074" y1="330.085" y2="330.085"/><line style="stroke:#000000;stroke-width:1;" x1="327.6074" x2="327.6074" y1="330.085" y2="343.085"/><line style="stroke:#000000;stroke-width:1;" x1="286.6074" x2="327.6074" y1="343.085" y2="343.085"/><polygon fill="#000000" points="296.6074,339.085,286.6074,343.085,296.6074,347.085,292.6074,343.085" style="stroke:#000000;stroke-width:1;"/><text fill="#000000" font-family="Arial" font-size="11" lengthAdjust="spacing" textLength="149.8159" x="292.6074" y="325.9338">frame = (angle * 69 + 69) / 138</text><path d="M290,356.085 L290,416.085 L450,416.085 L450,366.085 L440,356.085 L290,356.085 " fill="#FFFFFF" style="stroke:#000000;stroke-width:1;"/><path d="M440,356.085 L440,366.085 L450,366.085 L440,356.085 " fill="#FFFFFF" style="stroke:#000000;stroke-width:1;"/><text fill="#000000" font-family="Arial" font-size="11" lengthAdjust="spacing" textLength="139.4229" x="296" y="371.5828">Representative gating inputs</text><text fill="#000000" font-family="Arial" font-size="11" lengthAdjust="spacing" textLength="126.5483" x="296" y="384.2317">- Cmd::steeringAngleCmd</text><text fill="#000000" font-family="Arial" font-size="11" lengthAdjust="spacing" textLength="119.2222" x="296" y="396.8806">- Chassis::steeringAngle</text><text fill="#000000" font-family="Arial" font-size="11" lengthAdjust="spacing" textLength="70.313" x="296" y="409.5295">- manualMode</text><rect fill="#FFFFFF" height="3" style="stroke:#FFFFFF;stroke-width:1;" width="757.635" x="5" y="441.0051"/><line style="stroke:#000000;stroke-width:0.5;" x1="5" x2="762.635" y1="441.0051" y2="441.0051"/><line style="stroke:#000000;stroke-width:0.5;" x1="5" x2="762.635" y1="444.0051" y2="444.0051"/><rect fill="#FFFFFF" height="20.6489" style="stroke:#000000;stroke-width:1;" width="98.9653" x="334.3348" y="431.6807"/><text fill="#000000" font-family="Arial" font-size="11" font-weight="bold" lengthAdjust="spacing" textLength="81.9092" x="340.3348" y="446.1785">Display Publish</text><polygon fill="#000000" points="503.7456,476.9785,513.7456,480.9785,503.7456,484.9785,507.7456,480.9785" style="stroke:#000000;stroke-width:1;"/><line style="stroke:#000000;stroke-width:1;" x1="285.6074" x2="509.7456" y1="480.9785" y2="480.9785"/><text fill="#000000" font-family="Arial" font-size="11" lengthAdjust="spacing" textLength="113.0938" x="344.1296" y="476.8274">Display::steeringFrame</text><path d="M290,493.9785 L290,528.9785 L430,528.9785 L430,503.9785 L420,493.9785 L290,493.9785 " fill="#FFFFFF" style="stroke:#000000;stroke-width:1;"/><path d="M420,493.9785 L420,503.9785 L430,503.9785 L420,493.9785 " fill="#FFFFFF" style="stroke:#000000;stroke-width:1;"/><text fill="#000000" font-family="Arial" font-size="11" lengthAdjust="spacing" textLength="113.126" x="296" y="509.4763">Representative outputs</text><text fill="#000000" font-family="Arial" font-size="11" lengthAdjust="spacing" textLength="119.813" x="296" y="522.1252">- Display::steeringFrame</text><rect fill="#FFFFFF" height="3" style="stroke:#FFFFFF;stroke-width:1;" width="757.635" x="5" y="553.6008"/><line style="stroke:#000000;stroke-width:0.5;" x1="5" x2="762.635" y1="553.6008" y2="553.6008"/><line style="stroke:#000000;stroke-width:0.5;" x1="5" x2="762.635" y1="556.6008" y2="556.6008"/><rect fill="#FFFFFF" height="20.6489" style="stroke:#000000;stroke-width:1;" width="131.3638" x="318.1356" y="544.2764"/><text fill="#000000" font-family="Arial" font-size="11" font-weight="bold" lengthAdjust="spacing" textLength="114.3076" x="324.1356" y="558.7742">Downstream Visibility</text><polygon fill="#000000" points="671.4224,602.2231,681.4224,606.2231,671.4224,610.2231,675.4224,606.2231" style="stroke:#000000;stroke-width:1;"/><line style="stroke:#000000;stroke-width:1;" x1="515.7456" x2="677.4224" y1="606.2231" y2="606.2231"/><text fill="#000000" font-family="Arial" font-size="11" lengthAdjust="spacing" textLength="143.6768" x="527.7456" y="589.4231">steering-wheel render frame /</text><text fill="#000000" font-family="Arial" font-size="11" lengthAdjust="spacing" textLength="111.8853" x="543.6414" y="602.072">cluster visual readback</text><path d="M34,619.2231 L34,692.2231 L757,692.2231 L757,629.2231 L747,619.2231 L34,619.2231 " fill="#FFFFFF" style="stroke:#000000;stroke-width:1;"/><path d="M747,619.2231 L747,629.2231 L757,629.2231 L747,619.2231 " fill="#FFFFFF" style="stroke:#000000;stroke-width:1;"/><text fill="#000000" font-family="Arial" font-size="11" lengthAdjust="spacing" textLength="143.0752" x="227.4535" y="634.7209">Representative runtime chain</text><text fill="#000000" font-family="Arial" font-size="11" lengthAdjust="spacing" textLength="327.728" x="227.4535" y="647.3699">1. Steering angle reaches CLU from manual or chassis-owned path</text><text fill="#000000" font-family="Arial" font-size="11" lengthAdjust="spacing" textLength="271.4873" x="227.4535" y="660.0188">2. CLU normalizes the angle into the donor frame range</text><text fill="#000000" font-family="Arial" font-size="11" lengthAdjust="spacing" textLength="199.9175" x="227.4535" y="672.6677">3. CLU publishes Display::steeringFrame</text><text fill="#000000" font-family="Arial" font-size="11" lengthAdjust="spacing" textLength="327.1211" x="227.4535" y="685.3167">4. Cluster visuals and panels consume the rendered steering frame</text><!--SRC=[XLHHRzCm47xthpYsbmteIjd4IgKYTM6Ha1WW1ZprnKskYJN73ZvdPVnwpaxIDbCh-j3MlhllFjztTozyYHL2hQKoWXwKgQMJ5Qnazb0usvWyiTewE4tZPyyZnxLij4-jyLya8ooSalgm_LxzHPXCzeo4lniq6TuXaInmeLLX84FZqUrvEQJQ6kgzRb3RpS8vkm7l6XJ2AwyHxZsYKwQ0XIdu-CD2yladf2wGkcTSgI7bmAKvezvJ1izn9Kt3ninM_2-7qOSOk7LQHmI79aTtBWHJyYfJjJGUJhOvoKkFC8OXrWb8Qkaa_W_NxYgzJc-629ngQJBTS3hN9G6xCUXYR21oUZjDhs-dmx2FYbYg9owWh2YwTZSt3KMHhfBaMQ8knnZuZBeD-hgYYFyclHLYFk-gzSdKZIUOpuNOak-gCeEab4IAPhE-GD5bQP8gVtR7Dqj3hAPqolQLgMoE8Y1j0TLwtxOqKHIOWx6kaffR9eU3s4CKVX527tgOup2WbNKEPstGItZt7bxnrpbNQ78v5SQoe4uLfGUx3Z7YEzRSYToSqgj7X89_M7aLYoL6HqYEZf4PTQ- -2mLXtI4aZ2BqsdvhLbfH6NNegE-9FEiFE-2etl-9syPtb8yW3DbmDv9tt6VmIv5QAQtyK-IqHuQfXLQQRQTcj2aHTT_GRQt7kqP_L1G4PzGyR1ZHahQFREexxdL0V4xTDSOhXihAiAOc5xkXRrLamAp4TcxMpbPzP_7cobePHc6uSfu1Nugt5z5nssW4l0Gx96MyZSVSihrV0cn3STc6rQqyICVAUCL-W_SIXFtIZX-l24CDOuOSRPcOrd3fx8Ju1m00]--></g></svg>