<svg xmlns="http://www.w3.org/2000/svg" xmlns:xlink="http://www.w3.org/1999/xlink" contentStyleType="text/css" height="999px" preserveAspectRatio="none" style="width:853px;height:999px;background:#FFFFFF;" version="1.1" viewBox="0 0 853 999" width="853px" zoomAndPan="magnify"><title>Steering Input To MDPS State Signal Flow</title><defs/><g><text fill="#000000" font-family="Arial" font-size="22" font-weight="bold" lengthAdjust="spacing" textLength="438.7969" x="205.7314" y="35.9956">Steering Input To MDPS State Signal Flow</text><text fill="#000000" font-family="Arial" font-size="22" font-weight="bold" lengthAdjust="spacing" textLength="715.1396" x="67.5601" y="61.2935">(steering command + speed -&gt; MDPS steering state / torque publish)</text><line style="stroke:#000000;stroke-width:1;" x1="85" x2="85" y1="116.8936" y2="955.606"/><line style="stroke:#000000;stroke-width:1;" x1="248.7678" x2="248.7678" y1="116.8936" y2="955.606"/><line style="stroke:#000000;stroke-width:1;" x1="584.707" x2="584.707" y1="116.8936" y2="955.606"/><line style="stroke:#000000;stroke-width:1;" x1="763.2275" x2="763.2275" y1="116.8936" y2="955.606"/><rect fill="#F4F7FB" height="26.6489" rx="2.5" ry="2.5" style="stroke:#000000;stroke-width:1;" width="130.7891" x="20" y="89.2446"/><text fill="#000000" font-family="Arial" font-size="11" lengthAdjust="spacing" textLength="116.7891" x="27" y="106.7424">Steering / vehicle inputs</text><rect fill="#F4F7FB" height="26.6489" rx="2.5" ry="2.5" style="stroke:#000000;stroke-width:1;" width="130.7891" x="20" y="954.606"/><text fill="#000000" font-family="Arial" font-size="11" lengthAdjust="spacing" textLength="116.7891" x="27" y="972.1038">Steering / vehicle inputs</text><rect fill="#E8F7E8" height="39.2979" rx="2.5" ry="2.5" style="stroke:#000000;stroke-width:1;" width="117.3237" x="190.7678" y="76.5957"/><text fill="#000000" font-family="Arial" font-size="11" lengthAdjust="spacing" textLength="31.7808" x="233.5393" y="94.0935">MDPS</text><text fill="#000000" font-family="Arial" font-size="11" lengthAdjust="spacing" textLength="103.3237" x="197.7678" y="106.7424">steering assist owner</text><rect fill="#E8F7E8" height="39.2979" rx="2.5" ry="2.5" style="stroke:#000000;stroke-width:1;" width="117.3237" x="190.7678" y="954.606"/><text fill="#000000" font-family="Arial" font-size="11" lengthAdjust="spacing" textLength="31.7808" x="233.5393" y="972.1038">MDPS</text><text fill="#000000" font-family="Arial" font-size="11" lengthAdjust="spacing" textLength="103.3237" x="197.7678" y="984.7527">steering assist owner</text><rect fill="#FFF4CC" height="26.6489" rx="2.5" ry="2.5" style="stroke:#000000;stroke-width:1;" width="102.666" x="533.707" y="89.2446"/><text fill="#000000" font-family="Arial" font-size="11" lengthAdjust="spacing" textLength="88.666" x="540.707" y="106.7424">Steering state bus</text><rect fill="#FFF4CC" height="26.6489" rx="2.5" ry="2.5" style="stroke:#000000;stroke-width:1;" width="102.666" x="533.707" y="954.606"/><text fill="#000000" font-family="Arial" font-size="11" lengthAdjust="spacing" textLength="88.666" x="540.707" y="972.1038">Steering state bus</text><rect fill="#E8F0FE" height="26.6489" rx="2.5" ry="2.5" style="stroke:#000000;stroke-width:1;" width="135.0322" x="696.2275" y="89.2446"/><text fill="#000000" font-family="Arial" font-size="11" lengthAdjust="spacing" textLength="121.0322" x="703.2275" y="106.7424">Observers / CLU / ADAS</text><rect fill="#E8F0FE" height="26.6489" rx="2.5" ry="2.5" style="stroke:#000000;stroke-width:1;" width="135.0322" x="696.2275" y="954.606"/><text fill="#000000" font-family="Arial" font-size="11" lengthAdjust="spacing" textLength="121.0322" x="703.2275" y="972.1038">Observers / CLU / ADAS</text><rect fill="#FFFFFF" height="3" style="stroke:#FFFFFF;stroke-width:1;" width="841.2598" x="5" y="146.218"/><line style="stroke:#000000;stroke-width:0.5;" x1="5" x2="846.2598" y1="146.218" y2="146.218"/><line style="stroke:#000000;stroke-width:0.5;" x1="5" x2="846.2598" y1="149.218" y2="149.218"/><rect fill="#FFFFFF" height="20.6489" style="stroke:#000000;stroke-width:1;" width="97.1177" x="377.071" y="136.8936"/><text fill="#000000" font-family="Arial" font-size="11" font-weight="bold" lengthAdjust="spacing" textLength="80.0615" x="383.071" y="151.3914">Steering Inputs</text><polygon fill="#000000" points="237.4297,207.4893,247.4297,211.4893,237.4297,215.4893,241.4297,211.4893" style="stroke:#000000;stroke-width:1;"/><line style="stroke:#000000;stroke-width:1;" x1="85.3945" x2="243.4297" y1="211.4893" y2="211.4893"/><text fill="#000000" font-family="Arial" font-size="11" lengthAdjust="spacing" textLength="140.0352" x="97.3945" y="182.0403">steeringInput / steeringAngle</text><text fill="#000000" font-family="Arial" font-size="11" lengthAdjust="spacing" textLength="66.0483" x="134.3879" y="194.6892">vehicleSpeed</text><text fill="#000000" font-family="Arial" font-size="11" lengthAdjust="spacing" textLength="63.5938" x="135.6152" y="207.3381">manualMode</text><line style="stroke:#000000;stroke-width:1;" x1="249.4297" x2="291.4297" y1="250.7871" y2="250.7871"/><line style="stroke:#000000;stroke-width:1;" x1="291.4297" x2="291.4297" y1="250.7871" y2="263.7871"/><line style="stroke:#000000;stroke-width:1;" x1="250.4297" x2="291.4297" y1="263.7871" y2="263.7871"/><polygon fill="#000000" points="260.4297,259.7871,250.4297,263.7871,260.4297,267.7871,256.4297,263.7871" style="stroke:#000000;stroke-width:1;"/><text fill="#000000" font-family="Arial" font-size="11" lengthAdjust="spacing" textLength="122.9121" x="256.4297" y="233.9871">if steeringInput stale then</text><text fill="#000000" font-family="Arial" font-size="11" lengthAdjust="spacing" textLength="82.2529" x="276.7593" y="246.636">steeringInput = 0</text><line style="stroke:#000000;stroke-width:1;" x1="249.4297" x2="291.4297" y1="303.085" y2="303.085"/><line style="stroke:#000000;stroke-width:1;" x1="291.4297" x2="291.4297" y1="303.085" y2="316.085"/><line style="stroke:#000000;stroke-width:1;" x1="250.4297" x2="291.4297" y1="316.085" y2="316.085"/><polygon fill="#000000" points="260.4297,312.085,250.4297,316.085,260.4297,320.085,256.4297,316.085" style="stroke:#000000;stroke-width:1;"/><text fill="#000000" font-family="Arial" font-size="11" lengthAdjust="spacing" textLength="93.5537" x="256.4297" y="286.2849">if vehicle stale then</text><text fill="#000000" font-family="Arial" font-size="11" lengthAdjust="spacing" textLength="75.5122" x="265.4504" y="298.9338">speedNorm = 0</text><line style="stroke:#000000;stroke-width:1;" x1="249.4297" x2="291.4297" y1="342.7339" y2="342.7339"/><line style="stroke:#000000;stroke-width:1;" x1="291.4297" x2="291.4297" y1="342.7339" y2="355.7339"/><line style="stroke:#000000;stroke-width:1;" x1="250.4297" x2="291.4297" y1="355.7339" y2="355.7339"/><polygon fill="#000000" points="260.4297,351.7339,250.4297,355.7339,260.4297,359.7339,256.4297,355.7339" style="stroke:#000000;stroke-width:1;"/><text fill="#000000" font-family="Arial" font-size="11" lengthAdjust="spacing" textLength="321.6104" x="256.4297" y="338.5828">in manual mode, derive steeringInput from Chassis::steeringAngle</text><line style="stroke:#000000;stroke-width:1;" x1="249.4297" x2="291.4297" y1="382.3828" y2="382.3828"/><line style="stroke:#000000;stroke-width:1;" x1="291.4297" x2="291.4297" y1="382.3828" y2="395.3828"/><line style="stroke:#000000;stroke-width:1;" x1="250.4297" x2="291.4297" y1="395.3828" y2="395.3828"/><polygon fill="#000000" points="260.4297,391.3828,250.4297,395.3828,260.4297,399.3828,256.4297,395.3828" style="stroke:#000000;stroke-width:1;"/><text fill="#000000" font-family="Arial" font-size="11" lengthAdjust="spacing" textLength="188.0366" x="256.4297" y="378.2317">steeringAngleRaw = steeringInput * 30</text><line style="stroke:#000000;stroke-width:1;" x1="249.4297" x2="291.4297" y1="422.0317" y2="422.0317"/><line style="stroke:#000000;stroke-width:1;" x1="291.4297" x2="291.4297" y1="422.0317" y2="435.0317"/><line style="stroke:#000000;stroke-width:1;" x1="250.4297" x2="291.4297" y1="435.0317" y2="435.0317"/><polygon fill="#000000" points="260.4297,431.0317,250.4297,435.0317,260.4297,439.0317,256.4297,435.0317" style="stroke:#000000;stroke-width:1;"/><text fill="#000000" font-family="Arial" font-size="11" lengthAdjust="spacing" textLength="189.5405" x="256.4297" y="417.8806">assistLevel = (speedNorm &gt; 80) ? 1 : 2</text><line style="stroke:#000000;stroke-width:1;" x1="249.4297" x2="291.4297" y1="461.6807" y2="461.6807"/><line style="stroke:#000000;stroke-width:1;" x1="291.4297" x2="291.4297" y1="461.6807" y2="474.6807"/><line style="stroke:#000000;stroke-width:1;" x1="250.4297" x2="291.4297" y1="474.6807" y2="474.6807"/><polygon fill="#000000" points="260.4297,470.6807,250.4297,474.6807,260.4297,478.6807,256.4297,474.6807" style="stroke:#000000;stroke-width:1;"/><text fill="#000000" font-family="Arial" font-size="11" lengthAdjust="spacing" textLength="172.7505" x="256.4297" y="457.5295">steeringTorque = steeringInput * 20</text><path d="M254,487.6807 L254,547.6807 L421,547.6807 L421,497.6807 L411,487.6807 L254,487.6807 " fill="#FFFFFF" style="stroke:#000000;stroke-width:1;"/><path d="M411,487.6807 L411,497.6807 L421,497.6807 L411,487.6807 " fill="#FFFFFF" style="stroke:#000000;stroke-width:1;"/><text fill="#000000" font-family="Arial" font-size="11" lengthAdjust="spacing" textLength="139.4229" x="260" y="503.1785">Representative gating inputs</text><text fill="#000000" font-family="Arial" font-size="11" lengthAdjust="spacing" textLength="146.7544" x="260" y="515.8274">- steeringInput / steeringAngle</text><text fill="#000000" font-family="Arial" font-size="11" lengthAdjust="spacing" textLength="72.7676" x="260" y="528.4763">- vehicleSpeed</text><text fill="#000000" font-family="Arial" font-size="11" lengthAdjust="spacing" textLength="70.313" x="260" y="541.1252">- manualMode</text><rect fill="#FFFFFF" height="3" style="stroke:#FFFFFF;stroke-width:1;" width="841.2598" x="5" y="572.6008"/><line style="stroke:#000000;stroke-width:0.5;" x1="5" x2="846.2598" y1="572.6008" y2="572.6008"/><line style="stroke:#000000;stroke-width:0.5;" x1="5" x2="846.2598" y1="575.6008" y2="575.6008"/><rect fill="#FFFFFF" height="20.6489" style="stroke:#000000;stroke-width:1;" width="91.6177" x="379.821" y="563.2764"/><text fill="#000000" font-family="Arial" font-size="11" font-weight="bold" lengthAdjust="spacing" textLength="74.5615" x="385.821" y="577.7742">MDPS Publish</text><polygon fill="#000000" points="573.04,621.2231,583.04,625.2231,573.04,629.2231,577.04,625.2231" style="stroke:#000000;stroke-width:1;"/><line style="stroke:#000000;stroke-width:1;" x1="249.4297" x2="579.04" y1="625.2231" y2="625.2231"/><text fill="#000000" font-family="Arial" font-size="11" lengthAdjust="spacing" textLength="123.4976" x="355.4861" y="608.4231">frmSteeringStateCanMsg</text><text fill="#000000" font-family="Arial" font-size="11" lengthAdjust="spacing" textLength="66.6553" x="383.9072" y="621.072">SteeringState</text><polygon fill="#000000" points="573.04,660.521,583.04,664.521,573.04,668.521,577.04,664.521" style="stroke:#000000;stroke-width:1;"/><line style="stroke:#000000;stroke-width:1;" x1="249.4297" x2="579.04" y1="664.521" y2="664.521"/><text fill="#000000" font-family="Arial" font-size="11" lengthAdjust="spacing" textLength="112.4868" x="360.9915" y="647.7209">frmSteeringTorqueMsg</text><text fill="#000000" font-family="Arial" font-size="11" lengthAdjust="spacing" textLength="166.9175" x="333.7761" y="660.3699">SteeringTorque / SteeringAssistLv</text><polygon fill="#000000" points="573.04,699.8188,583.04,703.8188,573.04,707.8188,577.04,703.8188" style="stroke:#000000;stroke-width:1;"/><line style="stroke:#000000;stroke-width:1;" x1="249.4297" x2="579.04" y1="703.8188" y2="703.8188"/><text fill="#000000" font-family="Arial" font-size="11" lengthAdjust="spacing" textLength="81.3022" x="376.5837" y="687.0188">frmEpsStateMsg</text><text fill="#000000" font-family="Arial" font-size="11" lengthAdjust="spacing" textLength="152.2383" x="341.1157" y="699.6677">EpsAssistState / EpsFaultState</text><path d="M254,716.8188 L254,789.8188 L388,789.8188 L388,726.8188 L378,716.8188 L254,716.8188 " fill="#FFFFFF" style="stroke:#000000;stroke-width:1;"/><path d="M378,716.8188 L378,726.8188 L388,726.8188 L378,716.8188 " fill="#FFFFFF" style="stroke:#000000;stroke-width:1;"/><text fill="#000000" font-family="Arial" font-size="11" lengthAdjust="spacing" textLength="113.126" x="260" y="732.3167">Representative outputs</text><text fill="#000000" font-family="Arial" font-size="11" lengthAdjust="spacing" textLength="73.3745" x="260" y="744.9656">- SteeringState</text><text fill="#000000" font-family="Arial" font-size="11" lengthAdjust="spacing" textLength="82.543" x="260" y="757.6145">- SteeringTorque</text><text fill="#000000" font-family="Arial" font-size="11" lengthAdjust="spacing" textLength="88.6445" x="260" y="770.2634">- SteeringAssistLv</text><text fill="#000000" font-family="Arial" font-size="11" lengthAdjust="spacing" textLength="80.6953" x="260" y="782.9124">- EpsAssistState</text><rect fill="#FFFFFF" height="3" style="stroke:#FFFFFF;stroke-width:1;" width="841.2598" x="5" y="814.3879"/><line style="stroke:#000000;stroke-width:0.5;" x1="5" x2="846.2598" y1="814.3879" y2="814.3879"/><line style="stroke:#000000;stroke-width:0.5;" x1="5" x2="846.2598" y1="817.3879" y2="817.3879"/><rect fill="#FFFFFF" height="20.6489" style="stroke:#000000;stroke-width:1;" width="131.3638" x="359.948" y="805.0635"/><text fill="#000000" font-family="Arial" font-size="11" font-weight="bold" lengthAdjust="spacing" textLength="114.3076" x="365.948" y="819.5613">Downstream Visibility</text><polygon fill="#000000" points="751.7437,850.3613,761.7437,854.3613,751.7437,858.3613,755.7437,854.3613" style="stroke:#000000;stroke-width:1;"/><line style="stroke:#000000;stroke-width:1;" x1="585.04" x2="757.7437" y1="854.3613" y2="854.3613"/><text fill="#000000" font-family="Arial" font-size="11" lengthAdjust="spacing" textLength="154.7036" x="597.04" y="850.2102">steering state / torque readback</text><path d="M11,867.3613 L11,940.3613 L837,940.3613 L837,877.3613 L827,867.3613 L11,867.3613 " fill="#FFFFFF" style="stroke:#000000;stroke-width:1;"/><path d="M827,867.3613 L827,877.3613 L837,877.3613 L827,867.3613 " fill="#FFFFFF" style="stroke:#000000;stroke-width:1;"/><text fill="#000000" font-family="Arial" font-size="11" lengthAdjust="spacing" textLength="143.0752" x="234.6816" y="882.8591">Representative runtime chain</text><text fill="#000000" font-family="Arial" font-size="11" lengthAdjust="spacing" textLength="262.9204" x="234.6816" y="895.5081">1. Steering command and speed context reach MDPS</text><text fill="#000000" font-family="Arial" font-size="11" lengthAdjust="spacing" textLength="294.0889" x="234.6816" y="908.157">2. MDPS derives raw steering angle, torque, and assist level</text><text fill="#000000" font-family="Arial" font-size="11" lengthAdjust="spacing" textLength="281.875" x="234.6816" y="920.8059">3. MDPS publishes steering state, torque, and EPS status</text><text fill="#000000" font-family="Arial" font-size="11" lengthAdjust="spacing" textLength="369.8965" x="234.6816" y="933.4548">4. CLU, ADAS, and observers consume the effective steering-assist posture</text><!--SRC=[XLNlJo8n4FtUls9El-WT2AY9XWGlY6noYNX6lFl4bx8CI-DkkzTsGU-llscxBBie9ucO_dWpRrvd7b_i2ZE4FEL2ClCYPCurps3EuvT4gq8kHYfL6euZ_wdTME2I5wcDbBGFd28CjU3fn-TJyHUXrwiT6lnJe8nnWiRm18UfI2J4A2tgsYsD9bVIR6_TOgesGwtL1gmka34hR8emjOXQo0H-oBomyAnWSlSufMrkwP02ynGYGixaYTbUZLMMSRc0Rs1on0MqRmAekc0ykWDMQM8AUJ5FXLcTCaRCh8X5pgM5eofr1zQu4Z6n4Ow4EG9k0h6HVINnBgEhwBQ9TVbciah8ZH76Wjf8r1xj-HoFhwEhyVM1h87alAYbkosCVwlBqQW9-ZatgDUe3N4TtV-Yx-7TSEg1TEGJTQCnOuF1dg061WF6gbgsIlKhhOBidMezb4cACraACdNwpYIfNV1qeXR8F7mNHYpt8b5Lf2ErfTp94qu6qFq0lLM-WNDP7vJEFiH827GW8pujwbGjrhZ7OgbL1gELVvP-lr7RVhp6uHFVKCvchAzmyOv4UEzxN6DAzqzsX6_WkdiAtw57byuFfNeERVa-qNcNIKLDeKMoecvQUY1xmfncYSQBMrTfGl_eUKEhilR_NvBEwqz9ozfR8isGo-VxndDy39FYcsPBlkhCFicQRTlB3-Y8oub9PhAn-Gam5D-0bNfqgjuT1ddN1qADS-Cp-I2q2DUdvT3JHkIyAv3vN4zLs5B9PXcxTU1NswZujQ6PlYdf7Vc1iHh937yB8-OY5VPjDv2k7ghD3N3_e7SHUk7id8LA59b0PKqjXzqlHnVI2dBqUEL-4tfdEqFOsgRx2yOPaxtZgtL9ubKGv_miT48OAmEQ9c9dSwwbMYMrbWzKEb_gHe5TbE3IS0dUBAi97NlBvhOmxFBCsLhBkreuL9NZ4KbJPDuR09TBZ6rztjibWLmPM-ZQ0_m3]--></g></svg>