<svg xmlns="http://www.w3.org/2000/svg" xmlns:xlink="http://www.w3.org/1999/xlink" contentStyleType="text/css" height="898px" preserveAspectRatio="none" style="width:974px;height:898px;background:#FFFFFF;" version="1.1" viewBox="0 0 974 898" width="974px" zoomAndPan="magnify"><title>TMU Bars To DKEY Security Grade Signal Flow</title><defs/><g><text fill="#000000" font-family="Arial" font-size="22" font-weight="bold" lengthAdjust="spacing" textLength="493.8721" x="238.8862" y="35.9956">TMU Bars To DKEY Security Grade Signal Flow</text><text fill="#000000" font-family="Arial" font-size="22" font-weight="bold" lengthAdjust="spacing" textLength="883.3945" x="44.125" y="61.2935">(TMU service mode + signal bars + drive state -&gt; DKEY security grade and presence)</text><rect fill="#FFFFFF" height="514.5742" style="stroke:#000000;stroke-width:1;" width="10" x="333.0071" y="238.1382"/><line style="stroke:#000000;stroke-width:1;" x1="68" x2="68" y1="116.8936" y2="853.957"/><line style="stroke:#000000;stroke-width:1;" x1="194.5161" x2="194.5161" y1="116.8936" y2="853.957"/><line style="stroke:#000000;stroke-width:1;" x1="337.0417" x2="337.0417" y1="116.8936" y2="853.957"/><line style="stroke:#000000;stroke-width:1;" x1="652.7402" x2="652.7402" y1="116.8936" y2="853.957"/><line style="stroke:#000000;stroke-width:1;" x1="899.5562" x2="899.5562" y1="116.8936" y2="853.957"/><rect fill="#F4F7FB" height="26.6489" rx="2.5" ry="2.5" style="stroke:#000000;stroke-width:1;" width="96.5161" x="20" y="89.2446"/><text fill="#000000" font-family="Arial" font-size="11" lengthAdjust="spacing" textLength="82.5161" x="27" y="106.7424">TMU service bus</text><rect fill="#F4F7FB" height="26.6489" rx="2.5" ry="2.5" style="stroke:#000000;stroke-width:1;" width="96.5161" x="20" y="852.957"/><text fill="#000000" font-family="Arial" font-size="11" lengthAdjust="spacing" textLength="82.5161" x="27" y="870.4548">TMU service bus</text><rect fill="#E8F0FE" height="26.6489" rx="2.5" ry="2.5" style="stroke:#000000;stroke-width:1;" width="97.7729" x="146.5161" y="89.2446"/><text fill="#000000" font-family="Arial" font-size="11" lengthAdjust="spacing" textLength="83.7729" x="153.5161" y="106.7424">Vehicle state bus</text><rect fill="#E8F0FE" height="26.6489" rx="2.5" ry="2.5" style="stroke:#000000;stroke-width:1;" width="97.7729" x="146.5161" y="852.957"/><text fill="#000000" font-family="Arial" font-size="11" lengthAdjust="spacing" textLength="83.7729" x="153.5161" y="870.4548">Vehicle state bus</text><rect fill="#E8F7E8" height="39.2979" rx="2.5" ry="2.5" style="stroke:#000000;stroke-width:1;" width="95.9307" x="290.0417" y="76.5957"/><text fill="#000000" font-family="Arial" font-size="11" lengthAdjust="spacing" textLength="29.9546" x="323.0298" y="94.0935">DKEY</text><text fill="#000000" font-family="Arial" font-size="11" lengthAdjust="spacing" textLength="81.9307" x="297.0417" y="106.7424">digital key owner</text><rect fill="#E8F7E8" height="39.2979" rx="2.5" ry="2.5" style="stroke:#000000;stroke-width:1;" width="95.9307" x="290.0417" y="852.957"/><text fill="#000000" font-family="Arial" font-size="11" lengthAdjust="spacing" textLength="29.9546" x="323.0298" y="870.4548">DKEY</text><text fill="#000000" font-family="Arial" font-size="11" lengthAdjust="spacing" textLength="81.9307" x="297.0417" y="883.1038">digital key owner</text><rect fill="#FFF4CC" height="26.6489" rx="2.5" ry="2.5" style="stroke:#000000;stroke-width:1;" width="112.436" x="596.7402" y="89.2446"/><text fill="#000000" font-family="Arial" font-size="11" lengthAdjust="spacing" textLength="98.436" x="603.7402" y="106.7424">Digital key state bus</text><rect fill="#FFF4CC" height="26.6489" rx="2.5" ry="2.5" style="stroke:#000000;stroke-width:1;" width="112.436" x="596.7402" y="852.957"/><text fill="#000000" font-family="Arial" font-size="11" lengthAdjust="spacing" textLength="98.436" x="603.7402" y="870.4548">Digital key state bus</text><rect fill="#FFF4CC" height="39.2979" rx="2.5" ry="2.5" style="stroke:#000000;stroke-width:1;" width="105.0884" x="847.5562" y="76.5957"/><text fill="#000000" font-family="Arial" font-size="11" lengthAdjust="spacing" textLength="88.0269" x="856.0869" y="94.0935">SMK / Door / PAK</text><text fill="#000000" font-family="Arial" font-size="11" lengthAdjust="spacing" textLength="91.0884" x="854.5562" y="106.7424">access consumers</text><rect fill="#FFF4CC" height="39.2979" rx="2.5" ry="2.5" style="stroke:#000000;stroke-width:1;" width="105.0884" x="847.5562" y="852.957"/><text fill="#000000" font-family="Arial" font-size="11" lengthAdjust="spacing" textLength="88.0269" x="856.0869" y="870.4548">SMK / Door / PAK</text><text fill="#000000" font-family="Arial" font-size="11" lengthAdjust="spacing" textLength="91.0884" x="854.5562" y="883.1038">access consumers</text><rect fill="#FFFFFF" height="514.5742" style="stroke:#000000;stroke-width:1;" width="10" x="333.0071" y="238.1382"/><rect fill="#FFFFFF" height="3" style="stroke:#FFFFFF;stroke-width:1;" width="962.6445" x="5" y="146.218"/><line style="stroke:#000000;stroke-width:0.5;" x1="5" x2="967.6445" y1="146.218" y2="146.218"/><line style="stroke:#000000;stroke-width:0.5;" x1="5" x2="967.6445" y1="149.218" y2="149.218"/><rect fill="#FFFFFF" height="20.6489" style="stroke:#000000;stroke-width:1;" width="83.6685" x="444.488" y="136.8936"/><text fill="#000000" font-family="Arial" font-size="11" font-weight="bold" lengthAdjust="spacing" textLength="66.6123" x="450.488" y="151.3914">DKEY Inputs</text><polygon fill="#000000" points="326.0071,194.8403,336.0071,198.8403,326.0071,202.8403,330.0071,198.8403" style="stroke:#000000;stroke-width:1;"/><line style="stroke:#000000;stroke-width:1;" x1="68.2581" x2="332.0071" y1="198.8403" y2="198.8403"/><text fill="#000000" font-family="Arial" font-size="11" lengthAdjust="spacing" textLength="121.0269" x="142.6191" y="182.0403">frmTmuServiceStateMsg</text><text fill="#000000" font-family="Arial" font-size="11" lengthAdjust="spacing" textLength="148.5591" x="128.853" y="194.6892">TmuServiceMode / SignalBars</text><polygon fill="#000000" points="321.0071,234.1382,331.0071,238.1382,321.0071,242.1382,325.0071,238.1382" style="stroke:#000000;stroke-width:1;"/><line style="stroke:#000000;stroke-width:1;" x1="195.4026" x2="327.0071" y1="238.1382" y2="238.1382"/><text fill="#000000" font-family="Arial" font-size="11" lengthAdjust="spacing" textLength="118.6045" x="204.9026" y="221.3381">frmVehicleStateCanMsg</text><text fill="#000000" font-family="Arial" font-size="11" lengthAdjust="spacing" textLength="57.4707" x="235.4695" y="233.9871">gDriveState</text><line style="stroke:#000000;stroke-width:1;" x1="343.0071" x2="385.0071" y1="264.7871" y2="264.7871"/><line style="stroke:#000000;stroke-width:1;" x1="385.0071" x2="385.0071" y1="264.7871" y2="277.7871"/><line style="stroke:#000000;stroke-width:1;" x1="344.0071" x2="385.0071" y1="277.7871" y2="277.7871"/><polygon fill="#000000" points="354.0071,273.7871,344.0071,277.7871,354.0071,281.7871,350.0071,277.7871" style="stroke:#000000;stroke-width:1;"/><text fill="#000000" font-family="Arial" font-size="11" lengthAdjust="spacing" textLength="176.6768" x="350.0071" y="260.636">normalize stale TMU / vehicle inputs</text><line style="stroke:#000000;stroke-width:1;" x1="343.0071" x2="385.0071" y1="317.085" y2="317.085"/><line style="stroke:#000000;stroke-width:1;" x1="385.0071" x2="385.0071" y1="317.085" y2="330.085"/><line style="stroke:#000000;stroke-width:1;" x1="344.0071" x2="385.0071" y1="330.085" y2="330.085"/><polygon fill="#000000" points="354.0071,326.085,344.0071,330.085,354.0071,334.085,350.0071,330.085" style="stroke:#000000;stroke-width:1;"/><text fill="#000000" font-family="Arial" font-size="11" lengthAdjust="spacing" textLength="183.4551" x="350.0071" y="300.2849">if dkeyState == 2 and signalBars &gt;= 3</text><text fill="#000000" font-family="Arial" font-size="11" lengthAdjust="spacing" textLength="113.4268" x="385.0212" y="312.9338">then SecurityGrade = 2</text><line style="stroke:#000000;stroke-width:1;" x1="343.0071" x2="385.0071" y1="369.3828" y2="369.3828"/><line style="stroke:#000000;stroke-width:1;" x1="385.0071" x2="385.0071" y1="369.3828" y2="382.3828"/><line style="stroke:#000000;stroke-width:1;" x1="344.0071" x2="385.0071" y1="382.3828" y2="382.3828"/><polygon fill="#000000" points="354.0071,378.3828,344.0071,382.3828,354.0071,386.3828,350.0071,382.3828" style="stroke:#000000;stroke-width:1;"/><text fill="#000000" font-family="Arial" font-size="11" lengthAdjust="spacing" textLength="233.8789" x="350.0071" y="352.5828">else if tmuServiceMode &gt; 0 and signalBars &gt;= 1</text><text fill="#000000" font-family="Arial" font-size="11" lengthAdjust="spacing" textLength="113.4268" x="410.2332" y="365.2317">then SecurityGrade = 1</text><line style="stroke:#000000;stroke-width:1;" x1="343.0071" x2="385.0071" y1="409.0317" y2="409.0317"/><line style="stroke:#000000;stroke-width:1;" x1="385.0071" x2="385.0071" y1="409.0317" y2="422.0317"/><line style="stroke:#000000;stroke-width:1;" x1="344.0071" x2="385.0071" y1="422.0317" y2="422.0317"/><polygon fill="#000000" points="354.0071,418.0317,344.0071,422.0317,354.0071,426.0317,350.0071,422.0317" style="stroke:#000000;stroke-width:1;"/><text fill="#000000" font-family="Arial" font-size="11" lengthAdjust="spacing" textLength="280.9512" x="350.0071" y="404.8806">KeyPresence = (tmuServiceMode &gt; 0 and signalBars &gt; 0)</text><line style="stroke:#000000;stroke-width:1;" x1="343.0071" x2="385.0071" y1="461.3296" y2="461.3296"/><line style="stroke:#000000;stroke-width:1;" x1="385.0071" x2="385.0071" y1="461.3296" y2="474.3296"/><line style="stroke:#000000;stroke-width:1;" x1="344.0071" x2="385.0071" y1="474.3296" y2="474.3296"/><polygon fill="#000000" points="354.0071,470.3296,344.0071,474.3296,354.0071,478.3296,350.0071,474.3296" style="stroke:#000000;stroke-width:1;"/><text fill="#000000" font-family="Arial" font-size="11" lengthAdjust="spacing" textLength="151.0244" x="359.1782" y="444.5295">derive DKeyState / AuthMode /</text><text fill="#000000" font-family="Arial" font-size="11" lengthAdjust="spacing" textLength="169.3667" x="350.0071" y="457.1785">VehicleAccessState / KeySyncAge</text><path d="M348,487.3296 L348,636.3296 L521,636.3296 L521,497.3296 L511,487.3296 L348,487.3296 " fill="#FFFFFF" style="stroke:#000000;stroke-width:1;"/><path d="M511,487.3296 L511,497.3296 L521,497.3296 L511,487.3296 " fill="#FFFFFF" style="stroke:#000000;stroke-width:1;"/><text fill="#000000" font-family="Arial" font-size="11" lengthAdjust="spacing" textLength="106.396" x="354" y="502.8274">Representative inputs</text><text fill="#000000" font-family="Arial" font-size="11" lengthAdjust="spacing" textLength="92.9146" x="354" y="515.4763">- TmuServiceMode</text><text fill="#000000" font-family="Arial" font-size="11" lengthAdjust="spacing" textLength="59.9146" x="354" y="528.1252">- SignalBars</text><text fill="#000000" font-family="Arial" font-size="11" lengthAdjust="spacing" textLength="64.1899" x="354" y="540.7742">- gDriveState</text><text fill="#000000" font-family="Arial" font-size="11" lengthAdjust="spacing" textLength="3.0562" x="354" y="553.4231">&#160;</text><text fill="#000000" font-family="Arial" font-size="11" lengthAdjust="spacing" textLength="152.2598" x="354" y="566.072">Representative derived outputs</text><text fill="#000000" font-family="Arial" font-size="11" lengthAdjust="spacing" textLength="77.0269" x="354" y="578.7209">- SecurityGrade</text><text fill="#000000" font-family="Arial" font-size="11" lengthAdjust="spacing" textLength="72.1445" x="354" y="591.3699">- KeyPresence</text><text fill="#000000" font-family="Arial" font-size="11" lengthAdjust="spacing" textLength="59.3022" x="354" y="604.0188">- DKeyState</text><text fill="#000000" font-family="Arial" font-size="11" lengthAdjust="spacing" textLength="56.8638" x="354" y="616.6677">- AuthMode</text><text fill="#000000" font-family="Arial" font-size="11" lengthAdjust="spacing" textLength="103.936" x="354" y="629.3167">- VehicleAccessState</text><rect fill="#FFFFFF" height="3" style="stroke:#FFFFFF;stroke-width:1;" width="962.6445" x="5" y="660.7922"/><line style="stroke:#000000;stroke-width:0.5;" x1="5" x2="967.6445" y1="660.7922" y2="660.7922"/><line style="stroke:#000000;stroke-width:0.5;" x1="5" x2="967.6445" y1="663.7922" y2="663.7922"/><rect fill="#FFFFFF" height="20.6489" style="stroke:#000000;stroke-width:1;" width="90.3984" x="441.123" y="651.4678"/><text fill="#000000" font-family="Arial" font-size="11" font-weight="bold" lengthAdjust="spacing" textLength="73.3423" x="447.123" y="665.9656">DKEY Publish</text><polygon fill="#000000" points="640.9583,722.0635,650.9583,726.0635,640.9583,730.0635,644.9583,726.0635" style="stroke:#000000;stroke-width:1;"/><line style="stroke:#000000;stroke-width:1;" x1="343.0071" x2="646.9583" y1="726.0635" y2="726.0635"/><text fill="#000000" font-family="Arial" font-size="11" lengthAdjust="spacing" textLength="111.8691" x="442.0481" y="696.6145">frmDigitalKeyStateMsg</text><text fill="#000000" font-family="Arial" font-size="11" lengthAdjust="spacing" textLength="151.0137" x="422.4758" y="709.2634">SecurityGrade / KeyPresence /</text><text fill="#000000" font-family="Arial" font-size="11" lengthAdjust="spacing" textLength="218.2813" x="388.842" y="721.9124">DKeyState / AuthMode / VehicleAccessState</text><polygon fill="#000000" points="888.1003,748.7124,898.1003,752.7124,888.1003,756.7124,892.1003,752.7124" style="stroke:#000000;stroke-width:1;"/><line style="stroke:#000000;stroke-width:1;" x1="652.9583" x2="894.1003" y1="752.7124" y2="752.7124"/><text fill="#000000" font-family="Arial" font-size="11" lengthAdjust="spacing" textLength="223.1421" x="664.9583" y="748.5613">digital key access and immobilizer consumers</text><path d="M10,765.7124 L10,838.7124 L957,838.7124 L957,775.7124 L947,765.7124 L10,765.7124 " fill="#FFFFFF" style="stroke:#000000;stroke-width:1;"/><path d="M947,765.7124 L947,775.7124 L957,775.7124 L947,765.7124 " fill="#FFFFFF" style="stroke:#000000;stroke-width:1;"/><text fill="#000000" font-family="Arial" font-size="11" lengthAdjust="spacing" textLength="143.0752" x="267.7629" y="781.2102">Representative runtime chain</text><text fill="#000000" font-family="Arial" font-size="11" lengthAdjust="spacing" textLength="322.1904" x="267.7629" y="793.8591">1. TMU service mode and signal bars reach DKEY with drive state</text><text fill="#000000" font-family="Arial" font-size="11" lengthAdjust="spacing" textLength="423.1187" x="267.7629" y="806.5081">2. DKEY converts signal strength and service posture into security grade and presence</text><text fill="#000000" font-family="Arial" font-size="11" lengthAdjust="spacing" textLength="254.3696" x="267.7629" y="819.157">3. DKEY publishes the consolidated digital-key state</text><text fill="#000000" font-family="Arial" font-size="11" lengthAdjust="spacing" textLength="396.1772" x="267.7629" y="831.8059">4. SMK, doors, and proximity access consumers use the resulting access posture</text><!--SRC=[ZLNRRjim37tNLt3jIuisJTCMQ34W1N8TXY13iNG31kH5iHb7g2rbafmi-_fHaXrVcWtpaosHX-Gv9Ft1RZ13sAPSI6RUXDnopJDOyUWjqIgNyKYbIiFvr3yrYnZNF4_jL4dxXHF2G0kUdhvVYDy8lLxjqk3F76M4SpI69pX8HI8XGcbHrwmqcgsIfhGQOghs0wtL7gpEaJ4hR8hmEly6GwuDl2eOpoO_O85HheKzm2VDOuG5OVCKfkIyb1VEsg3UYGWXKtHz1IOOh1p65SHQx12CvHQXynmGJOcOU4GkOzXISgw2IyOeMIiYiUNImbaTVvMRC-36PtW-VPW-JeTDu- -u4L5QHYlDwHJE9q_Js-caQUvoMSfO9C9Ilczu0BMNgBsJpzDvFKwUMbur-sQWyGmFmznuSHz6ewRROZw3BemLYT-5by5iANaKaH0GaIHvXZfWZCgl8mhhzqCsd-KsjmRwVSOS0oMP7s6jizSiNmIM5YwbkKcMiZgREs6wXN9EM-OuQG0Kr7dl4PSU81axxVmHuv4LErUiSs7Uh_ANIcSyTLr9X1Gjr8LTeORmURTzn1fYej2ZKqrmvzl075E4vpxSBoMDapnsO6X0ics3OMhG8TfcoSzmUmArznVKNXkLv7mfsfAkB_u376ulso0n-W5mlH5gxS8WjviWoL8Ml0zyBvG6plOWeq62J2ewqIBPM53hGFvN3CD2nWwveBS3JRtfeAPt1-fYjY52ZZ6et1PO3MxekqO5VHsBeVUo67fzNmj38iYLK7NnIxvAXTduDgwe2eFZEx6OhpA4xyIcLDs6CaJYQN9FvLD6eg3Lf958jPaknj99Ax9ChOHhR5sDAOknEGn18xKZ8shywmguJRFEfHMqsgED-pdqRk3TygpwAQnFJQ4sWRUzi9lwCcLtD-624gFGj1WAHsCroeICFLY1lbN6vjerYrN_Mh_ila3T1fdG0CsABrwb8gQuSKbMvxW0sSCDq7gxXfYscxak0DKlaRaWxJK7ESsg0wMGz4CJCYbDYYIhfla3]--></g></svg>