<svg xmlns="http://www.w3.org/2000/svg" xmlns:xlink="http://www.w3.org/1999/xlink" contentStyleType="text/css" height="1187px" preserveAspectRatio="none" style="width:1034px;height:1187px;background:#FFFFFF;" version="1.1" viewBox="0 0 1034 1187" width="1034px" zoomAndPan="magnify"><title>V2X Priority Arbitration Signal Flow</title><defs/><g><text fill="#000000" font-family="Arial" font-size="22" font-weight="bold" lengthAdjust="spacing" textLength="371.6045" x="330.1365" y="35.9956">V2X Priority Arbitration Signal Flow</text><text fill="#000000" font-family="Arial" font-size="22" font-weight="bold" lengthAdjust="spacing" textLength="530.5996" x="250.6389" y="61.2935">(TEST_SCN / external ingress -&gt; V2X -&gt; ADAS / IVI)</text><rect fill="#FFFFFF" height="495.0317" style="stroke:#000000;stroke-width:1;" width="10" x="350.8335" y="232.1914"/><rect fill="#FFFFFF" height="195.8403" style="stroke:#000000;stroke-width:1;" width="10" x="623.8794" y="727.2231"/><rect fill="#FFFFFF" height="64.2979" style="stroke:#000000;stroke-width:1;" width="10" x="791.9893" y="925.0635"/><line style="stroke:#000000;stroke-width:1;" x1="88" x2="88" y1="162.8936" y2="1097.606"/><line style="stroke:#000000;stroke-width:1;" x1="355.6101" x2="355.6101" y1="162.8936" y2="1097.606"/><line style="stroke:#000000;stroke-width:1;" x1="627.9141" x2="627.9141" y1="162.8936" y2="1097.606"/><line style="stroke:#000000;stroke-width:1;" x1="796.8447" x2="796.8447" y1="162.8936" y2="1097.606"/><text fill="#000000" font-family="Arial" font-size="11" lengthAdjust="spacing" textLength="99.043" x="35.9692" y="148.0935">Emergency Sources</text><text fill="#000000" font-family="Arial" font-size="11" lengthAdjust="spacing" textLength="150.9814" x="10" y="160.7424">(TEST_SCN / network ingress)</text><ellipse cx="88.4907" cy="85.5957" fill="#F4F7FB" rx="8" ry="8" style="stroke:#000000;stroke-width:1;"/><path d="M88.4907,93.5957 L88.4907,120.5957 M75.4907,101.5957 L101.4907,101.5957 M88.4907,120.5957 L75.4907,135.5957 M88.4907,120.5957 L101.4907,135.5957 " fill="none" style="stroke:#000000;stroke-width:1;"/><text fill="#000000" font-family="Arial" font-size="11" lengthAdjust="spacing" textLength="99.043" x="35.9692" y="1107.1038">Emergency Sources</text><text fill="#000000" font-family="Arial" font-size="11" lengthAdjust="spacing" textLength="150.9814" x="10" y="1119.7527">(TEST_SCN / network ingress)</text><ellipse cx="88.4907" cy="1130.9038" fill="#F4F7FB" rx="8" ry="8" style="stroke:#000000;stroke-width:1;"/><path d="M88.4907,1138.9038 L88.4907,1165.9038 M75.4907,1146.9038 L101.4907,1146.9038 M88.4907,1165.9038 L75.4907,1180.9038 M88.4907,1165.9038 L101.4907,1180.9038 " fill="none" style="stroke:#000000;stroke-width:1;"/><rect fill="#E8F7E8" height="39.2979" rx="2.5" ry="2.5" style="stroke:#000000;stroke-width:1;" width="134.4468" x="288.6101" y="122.5957"/><text fill="#000000" font-family="Arial" font-size="11" lengthAdjust="spacing" textLength="20.7915" x="345.4377" y="140.0935">V2X</text><text fill="#000000" font-family="Arial" font-size="11" lengthAdjust="spacing" textLength="120.4468" x="295.6101" y="152.7424">ingress arbitration owner</text><rect fill="#E8F7E8" height="39.2979" rx="2.5" ry="2.5" style="stroke:#000000;stroke-width:1;" width="134.4468" x="288.6101" y="1096.606"/><text fill="#000000" font-family="Arial" font-size="11" lengthAdjust="spacing" textLength="20.7915" x="345.4377" y="1114.1038">V2X</text><text fill="#000000" font-family="Arial" font-size="11" lengthAdjust="spacing" textLength="120.4468" x="295.6101" y="1126.7527">ingress arbitration owner</text><rect fill="#FCE8FF" height="39.2979" rx="2.5" ry="2.5" style="stroke:#000000;stroke-width:1;" width="139.9307" x="558.9141" y="122.5957"/><text fill="#000000" font-family="Arial" font-size="11" lengthAdjust="spacing" textLength="29.9546" x="613.9021" y="140.0935">ADAS</text><text fill="#000000" font-family="Arial" font-size="11" lengthAdjust="spacing" textLength="125.9307" x="565.9141" y="152.7424">emergency risk consumer</text><rect fill="#FCE8FF" height="39.2979" rx="2.5" ry="2.5" style="stroke:#000000;stroke-width:1;" width="139.9307" x="558.9141" y="1096.606"/><text fill="#000000" font-family="Arial" font-size="11" lengthAdjust="spacing" textLength="29.9546" x="613.9021" y="1114.1038">ADAS</text><text fill="#000000" font-family="Arial" font-size="11" lengthAdjust="spacing" textLength="125.9307" x="565.9141" y="1126.7527">emergency risk consumer</text><rect fill="#E8F0FE" height="39.2979" rx="2.5" ry="2.5" style="stroke:#000000;stroke-width:1;" width="136.2891" x="728.8447" y="122.5957"/><text fill="#000000" font-family="Arial" font-size="11" lengthAdjust="spacing" textLength="13.4492" x="790.2646" y="140.0935">IVI</text><text fill="#000000" font-family="Arial" font-size="11" lengthAdjust="spacing" textLength="122.2891" x="735.8447" y="152.7424">render / sound consumer</text><rect fill="#E8F0FE" height="39.2979" rx="2.5" ry="2.5" style="stroke:#000000;stroke-width:1;" width="136.2891" x="728.8447" y="1096.606"/><text fill="#000000" font-family="Arial" font-size="11" lengthAdjust="spacing" textLength="13.4492" x="790.2646" y="1114.1038">IVI</text><text fill="#000000" font-family="Arial" font-size="11" lengthAdjust="spacing" textLength="122.2891" x="735.8447" y="1126.7527">render / sound consumer</text><rect fill="#FFFFFF" height="495.0317" style="stroke:#000000;stroke-width:1;" width="10" x="350.8335" y="232.1914"/><rect fill="#FFFFFF" height="195.8403" style="stroke:#000000;stroke-width:1;" width="10" x="623.8794" y="727.2231"/><rect fill="#FFFFFF" height="64.2979" style="stroke:#000000;stroke-width:1;" width="10" x="791.9893" y="925.0635"/><rect fill="#FFFFFF" height="3" style="stroke:#FFFFFF;stroke-width:1;" width="1022.8774" x="5" y="192.218"/><line style="stroke:#000000;stroke-width:0.5;" x1="5" x2="1027.8774" y1="192.218" y2="192.218"/><line style="stroke:#000000;stroke-width:0.5;" x1="5" x2="1027.8774" y1="195.218" y2="195.218"/><rect fill="#FFFFFF" height="20.6489" style="stroke:#000000;stroke-width:1;" width="112.4146" x="460.2314" y="182.8936"/><text fill="#000000" font-family="Arial" font-size="11" font-weight="bold" lengthAdjust="spacing" textLength="95.3584" x="466.2314" y="197.3914">Candidate Ingress</text><polygon fill="#000000" points="338.8335,228.1914,348.8335,232.1914,338.8335,236.1914,342.8335,232.1914" style="stroke:#000000;stroke-width:1;"/><line style="stroke:#000000;stroke-width:1;" x1="88.4907" x2="344.8335" y1="232.1914" y2="232.1914"/><text fill="#000000" font-family="Arial" font-size="11" lengthAdjust="spacing" textLength="243.3428" x="97.9907" y="228.0403">emergency type / status / sourceId / eta / direction</text><line style="stroke:#000000;stroke-width:1;" x1="360.8335" x2="402.8335" y1="258.8403" y2="258.8403"/><line style="stroke:#000000;stroke-width:1;" x1="402.8335" x2="402.8335" y1="258.8403" y2="271.8403"/><line style="stroke:#000000;stroke-width:1;" x1="361.8335" x2="402.8335" y1="271.8403" y2="271.8403"/><polygon fill="#000000" points="371.8335,267.8403,361.8335,271.8403,371.8335,275.8403,367.8335,271.8403" style="stroke:#000000;stroke-width:1;"/><text fill="#000000" font-family="Arial" font-size="11" lengthAdjust="spacing" textLength="125.9414" x="367.8335" y="254.6892">stageEmergencyIngress()</text><line style="stroke:#000000;stroke-width:1;" x1="360.8335" x2="402.8335" y1="311.1382" y2="311.1382"/><line style="stroke:#000000;stroke-width:1;" x1="402.8335" x2="402.8335" y1="311.1382" y2="324.1382"/><line style="stroke:#000000;stroke-width:1;" x1="361.8335" x2="402.8335" y1="324.1382" y2="324.1382"/><polygon fill="#000000" points="371.8335,320.1382,361.8335,324.1382,371.8335,328.1382,367.8335,324.1382" style="stroke:#000000;stroke-width:1;"/><text fill="#000000" font-family="Arial" font-size="11" lengthAdjust="spacing" textLength="239.0459" x="367.8335" y="294.3381">isHigherPriority(newType, newEta, newSourceId,</text><text fill="#000000" font-family="Arial" font-size="11" lengthAdjust="spacing" textLength="187.0859" x="393.8135" y="306.9871">activeType, activeEta, activeSourceId)</text><path d="M365,337.1382 L365,397.1382 L494,397.1382 L494,347.1382 L484,337.1382 L365,337.1382 " fill="#FFFFFF" style="stroke:#000000;stroke-width:1;"/><path d="M484,337.1382 L484,347.1382 L494,347.1382 L484,337.1382 " fill="#FFFFFF" style="stroke:#000000;stroke-width:1;"/><text fill="#000000" font-family="Arial" font-size="11" lengthAdjust="spacing" textLength="55.623" x="371" y="352.636">Priority rule</text><text fill="#000000" font-family="Arial" font-size="11" lengthAdjust="spacing" textLength="101.8091" x="371" y="365.2849">- ambulance &gt; police</text><text fill="#000000" font-family="Arial" font-size="11" lengthAdjust="spacing" textLength="86.1792" x="371" y="377.9338">- shorter ETA first</text><text fill="#000000" font-family="Arial" font-size="11" lengthAdjust="spacing" textLength="108.2168" x="371" y="390.5828">- lower sourceId on tie</text><rect fill="#FFFFFF" height="3" style="stroke:#FFFFFF;stroke-width:1;" width="1022.8774" x="5" y="422.0583"/><line style="stroke:#000000;stroke-width:0.5;" x1="5" x2="1027.8774" y1="422.0583" y2="422.0583"/><line style="stroke:#000000;stroke-width:0.5;" x1="5" x2="1027.8774" y1="425.0583" y2="425.0583"/><rect fill="#FFFFFF" height="20.6489" style="stroke:#000000;stroke-width:1;" width="164.396" x="434.2407" y="412.7339"/><text fill="#000000" font-family="Arial" font-size="11" font-weight="bold" lengthAdjust="spacing" textLength="147.3398" x="440.2407" y="427.2317">Active Emergency Selection</text><line style="stroke:#000000;stroke-width:1;" x1="360.8335" x2="402.8335" y1="462.0317" y2="462.0317"/><line style="stroke:#000000;stroke-width:1;" x1="402.8335" x2="402.8335" y1="462.0317" y2="475.0317"/><line style="stroke:#000000;stroke-width:1;" x1="361.8335" x2="402.8335" y1="475.0317" y2="475.0317"/><polygon fill="#000000" points="371.8335,471.0317,361.8335,475.0317,371.8335,479.0317,367.8335,475.0317" style="stroke:#000000;stroke-width:1;"/><text fill="#000000" font-family="Arial" font-size="11" lengthAdjust="spacing" textLength="156.519" x="367.8335" y="457.8806">select active emergency context</text><line style="stroke:#000000;stroke-width:1;" x1="360.8335" x2="402.8335" y1="501.6807" y2="501.6807"/><line style="stroke:#000000;stroke-width:1;" x1="402.8335" x2="402.8335" y1="501.6807" y2="514.6807"/><line style="stroke:#000000;stroke-width:1;" x1="361.8335" x2="402.8335" y1="514.6807" y2="514.6807"/><polygon fill="#000000" points="371.8335,510.6807,361.8335,514.6807,371.8335,518.6807,367.8335,514.6807" style="stroke:#000000;stroke-width:1;"/><text fill="#000000" font-family="Arial" font-size="11" lengthAdjust="spacing" textLength="189.519" x="367.8335" y="497.5295">publishNormalizedEmergencyIngress()</text><line style="stroke:#000000;stroke-width:1;" x1="360.8335" x2="402.8335" y1="541.3296" y2="541.3296"/><line style="stroke:#000000;stroke-width:1;" x1="402.8335" x2="402.8335" y1="541.3296" y2="554.3296"/><line style="stroke:#000000;stroke-width:1;" x1="361.8335" x2="402.8335" y1="554.3296" y2="554.3296"/><polygon fill="#000000" points="371.8335,550.3296,361.8335,554.3296,371.8335,558.3296,367.8335,554.3296" style="stroke:#000000;stroke-width:1;"/><text fill="#000000" font-family="Arial" font-size="11" lengthAdjust="spacing" textLength="161.4014" x="367.8335" y="537.1785">publishActiveEmergencyToV2X()</text><line style="stroke:#000000;stroke-width:1;" x1="360.8335" x2="402.8335" y1="580.9785" y2="580.9785"/><line style="stroke:#000000;stroke-width:1;" x1="402.8335" x2="402.8335" y1="580.9785" y2="593.9785"/><line style="stroke:#000000;stroke-width:1;" x1="361.8335" x2="402.8335" y1="593.9785" y2="593.9785"/><polygon fill="#000000" points="371.8335,589.9785,361.8335,593.9785,371.8335,597.9785,367.8335,593.9785" style="stroke:#000000;stroke-width:1;"/><text fill="#000000" font-family="Arial" font-size="11" lengthAdjust="spacing" textLength="123.4922" x="367.8335" y="576.8274">pushEmergencyMonitor()</text><polygon fill="#000000" points="616.8794,616.6274,626.8794,620.6274,616.8794,624.6274,620.8794,620.6274" style="stroke:#000000;stroke-width:1;"/><line style="stroke:#000000;stroke-width:1;" x1="360.8335" x2="622.8794" y1="620.6274" y2="620.6274"/><text fill="#000000" font-family="Arial" font-size="11" lengthAdjust="spacing" textLength="122.2783" x="433.7173" y="616.4763">Core::emergencyContext</text><polygon fill="#000000" points="616.8794,643.2764,626.8794,647.2764,616.8794,651.2764,620.8794,647.2764" style="stroke:#000000;stroke-width:1;"/><line style="stroke:#000000;stroke-width:1;" x1="360.8335" x2="622.8794" y1="647.2764" y2="647.2764"/><text fill="#000000" font-family="Arial" font-size="11" lengthAdjust="spacing" textLength="189.5298" x="400.0916" y="643.1252">CoreState::emergencyIngressDirection</text><polygon fill="#000000" points="616.8794,669.9253,626.8794,673.9253,616.8794,677.9253,620.8794,673.9253" style="stroke:#000000;stroke-width:1;"/><line style="stroke:#000000;stroke-width:1;" x1="360.8335" x2="622.8794" y1="673.9253" y2="673.9253"/><text fill="#000000" font-family="Arial" font-size="11" lengthAdjust="spacing" textLength="181.5913" x="404.0608" y="669.7742">CoreState::emergencyIngressEtaSec</text><polygon fill="#000000" points="616.8794,696.5742,626.8794,700.5742,616.8794,704.5742,620.8794,700.5742" style="stroke:#000000;stroke-width:1;"/><line style="stroke:#000000;stroke-width:1;" x1="360.8335" x2="622.8794" y1="700.5742" y2="700.5742"/><text fill="#000000" font-family="Arial" font-size="11" lengthAdjust="spacing" textLength="92.313" x="448.7" y="696.4231">Core::timeoutClear</text><polygon fill="#000000" points="784.9893,723.2231,794.9893,727.2231,784.9893,731.2231,788.9893,727.2231" style="stroke:#000000;stroke-width:1;"/><line style="stroke:#000000;stroke-width:1;" x1="355.8335" x2="790.9893" y1="727.2231" y2="727.2231"/><text fill="#000000" font-family="Arial" font-size="11" lengthAdjust="spacing" textLength="75.8022" x="538.5103" y="723.072">V2X::v2xFrame</text><path d="M360,740.2231 L360,825.2231 L521,825.2231 L521,750.2231 L511,740.2231 L360,740.2231 " fill="#FFFFFF" style="stroke:#000000;stroke-width:1;"/><path d="M511,740.2231 L511,750.2231 L521,750.2231 L511,740.2231 " fill="#FFFFFF" style="stroke:#000000;stroke-width:1;"/><text fill="#000000" font-family="Arial" font-size="11" lengthAdjust="spacing" textLength="113.126" x="366" y="755.7209">Representative outputs</text><text fill="#000000" font-family="Arial" font-size="11" lengthAdjust="spacing" textLength="99.043" x="366" y="768.3699">- emergencyContext</text><text fill="#000000" font-family="Arial" font-size="11" lengthAdjust="spacing" textLength="140.6099" x="366" y="781.0188">- emergencyIngressDirection</text><text fill="#000000" font-family="Arial" font-size="11" lengthAdjust="spacing" textLength="132.6714" x="366" y="793.6677">- emergencyIngressEtaSec</text><text fill="#000000" font-family="Arial" font-size="11" lengthAdjust="spacing" textLength="69.0776" x="366" y="806.3167">- timeoutClear</text><text fill="#000000" font-family="Arial" font-size="11" lengthAdjust="spacing" textLength="55.6177" x="366" y="818.9656">- v2xFrame</text><rect fill="#FFFFFF" height="3" style="stroke:#FFFFFF;stroke-width:1;" width="1022.8774" x="5" y="850.4412"/><line style="stroke:#000000;stroke-width:0.5;" x1="5" x2="1027.8774" y1="850.4412" y2="850.4412"/><line style="stroke:#000000;stroke-width:0.5;" x1="5" x2="1027.8774" y1="853.4412" y2="853.4412"/><rect fill="#FFFFFF" height="20.6489" style="stroke:#000000;stroke-width:1;" width="146.6445" x="443.1165" y="841.1167"/><text fill="#000000" font-family="Arial" font-size="11" font-weight="bold" lengthAdjust="spacing" textLength="129.5884" x="449.1165" y="855.6145">Downstream Consumers</text><polygon fill="#000000" points="611.8794,886.4146,621.8794,890.4146,611.8794,894.4146,615.8794,890.4146" style="stroke:#000000;stroke-width:1;"/><line style="stroke:#000000;stroke-width:1;" x1="355.8335" x2="617.8794" y1="890.4146" y2="890.4146"/><text fill="#000000" font-family="Arial" font-size="11" lengthAdjust="spacing" textLength="127.7729" x="425.97" y="886.2634">normalized ingress seams</text><line style="stroke:#000000;stroke-width:1;" x1="633.8794" x2="675.8794" y1="922.0635" y2="922.0635"/><line style="stroke:#000000;stroke-width:1;" x1="675.8794" x2="675.8794" y1="922.0635" y2="935.0635"/><line style="stroke:#000000;stroke-width:1;" x1="628.8794" x2="675.8794" y1="935.0635" y2="935.0635"/><polygon fill="#000000" points="638.8794,931.0635,628.8794,935.0635,638.8794,939.0635,634.8794,935.0635" style="stroke:#000000;stroke-width:1;"/><text fill="#000000" font-family="Arial" font-size="11" lengthAdjust="spacing" textLength="93.5" x="640.8794" y="917.9124">calcProximityRisk()</text><polygon fill="#000000" points="779.9893,952.7124,789.9893,956.7124,779.9893,960.7124,783.9893,956.7124" style="stroke:#000000;stroke-width:1;"/><line style="stroke:#000000;stroke-width:1;" x1="355.8335" x2="785.9893" y1="956.7124" y2="956.7124"/><text fill="#000000" font-family="Arial" font-size="11" lengthAdjust="spacing" textLength="182.7729" x="482.5249" y="952.5613">v2xFrame / emergency context mirror</text><line style="stroke:#000000;stroke-width:1;" x1="801.9893" x2="843.9893" y1="988.3613" y2="988.3613"/><line style="stroke:#000000;stroke-width:1;" x1="843.9893" x2="843.9893" y1="988.3613" y2="1001.3613"/><line style="stroke:#000000;stroke-width:1;" x1="796.9893" x2="843.9893" y1="1001.3613" y2="1001.3613"/><polygon fill="#000000" points="806.9893,997.3613,796.9893,1001.3613,806.9893,1005.3613,802.9893,1001.3613" style="stroke:#000000;stroke-width:1;"/><text fill="#000000" font-family="Arial" font-size="11" lengthAdjust="spacing" textLength="196.8882" x="808.9893" y="984.2102">render emergency warning / sound state</text><path d="M12,1009.3613 L12,1082.3613 L872,1082.3613 L872,1019.3613 L862,1009.3613 L12,1009.3613 " fill="#FFFFFF" style="stroke:#000000;stroke-width:1;"/><path d="M862,1009.3613 L862,1019.3613 L872,1019.3613 L862,1009.3613 " fill="#FFFFFF" style="stroke:#000000;stroke-width:1;"/><text fill="#000000" font-family="Arial" font-size="11" lengthAdjust="spacing" textLength="143.0752" x="293.2644" y="1024.8591">Representative runtime chain</text><text fill="#000000" font-family="Arial" font-size="11" lengthAdjust="spacing" textLength="194.4282" x="293.2644" y="1037.5081">1. Multiple emergency candidates arrive</text><text fill="#000000" font-family="Arial" font-size="11" lengthAdjust="spacing" textLength="217.6689" x="293.2644" y="1050.157">2. V2X arbitrates by type, ETA, and sourceId</text><text fill="#000000" font-family="Arial" font-size="11" lengthAdjust="spacing" textLength="288.605" x="293.2644" y="1062.8059">3. V2X publishes one normalized active emergency context</text><text fill="#000000" font-family="Arial" font-size="11" lengthAdjust="spacing" textLength="258.6343" x="293.2644" y="1075.4548">4. ADAS and IVI consume the same selected ingress</text><!--SRC=[ZLNVJzim47xtNt635v203OOqL0cahZGQ3w1fgQOzL9hSv6Wj73ixEnJsr-_iE6a2J5iVciZ-xkwxxtxadTzWXL1hgOnm3yhKacG5ArayhCasffnPRGdsi_WR84gybutscJN-JhA7AIcftxxFrM-4qzF1fSDV3Pe2Rz4vkSQfLci31HgFD40HkjeQrw4-exRRAP7TWgS6XV3AQuJlPp_WAobBoZypYvNo9Bso1d9sAZLaRBKq1ujvllYPp-xWFU0JnmbNogmvXeFZg-Y57zFhQSw8c-ytXqB8mdFgU_CAQSrido6t3HNenjuC-gsbXyxPuHv8bv0istdsAViiE1-l2bLBus6FGorD5reE2DkjGOhcWSt-_2BxDByOsmP-IuCz8rBk0GeMgQcIQSnWFvknTJQsvQIMXj2KI4pRXUAEJHaGetx8va9SNi9CcbALqYFS9BQNbqAar99c4zYHySyr1izU-iQr8HXvKmR9lUJ_KX4M8TKWhNeCdjc7IDgtxjXwZRtaAV31uHYat1UrtY1rTJymk5rmz2EkndRkPNpcAVpHqiHms2BQzmXgNplSeJ2M6H5xzc3l8xM-iQZHA8v1Lgj6I-vSk8BQQbM4GxUnn1q5yyKKxXKvpsVST7pIAy3LzGe5YmyXI9Ht6gF3eBrGj_94dSUgnAj4U20vryzpEu_1TRFIoctkB5LIy-oL_v8p6RI4Ul32ykrhgDlqY5jh58_83XERRm8pIpYPz2ndOv83KCwjCaGcVjTzd_ot2TSpn-9D7bvLQ1i_qoYf0uHMduIK9fF7iwUCjms-KVrlMBDlNaiooivEwiOxhkwhr0P7ht9uVPV87iE8sZ7qLFe-AN4qAQ5jhdbDE4_82tAMfhSTp1uPid-XXEbxeLzwZZqu4Uztk4BguYlP9rLnqt_ZvSAr7N28ddU1MCMne5q2OU9VzYXKYdStYO3i3T8wse6tai9kx1TKM2OZ6KBCjbJsaItRuJsAno_AHOq9-aAn2T-sqnEuvU-HglLeVheL5pOniPKuEucTtkrblbYrc-qep3VlZ40gZRNus8BJ_33M6Xng_TTvFJzf5G_UWX9f3mD_ZS450Tk1tvLhrn9_0000]--></g></svg>