<svg xmlns="http://www.w3.org/2000/svg" xmlns:xlink="http://www.w3.org/1999/xlink" contentStyleType="text/css" height="784px" preserveAspectRatio="none" style="width:861px;height:784px;background:#FFFFFF;" version="1.1" viewBox="0 0 861 784" width="861px" zoomAndPan="magnify"><title>VCU Vehicle Mode To TCU Shift State Signal Flow</title><defs/><g><text fill="#000000" font-family="Arial" font-size="22" font-weight="bold" lengthAdjust="spacing" textLength="520.7061" x="168.9979" y="35.9956">VCU Vehicle Mode To TCU Shift State Signal Flow</text><text fill="#000000" font-family="Arial" font-size="22" font-weight="bold" lengthAdjust="spacing" textLength="636.8828" x="110.9095" y="61.2935">(VCU mode/state + gear/speed -&gt; TCU shift-state publication)</text><rect fill="#FFFFFF" height="361.085" style="stroke:#000000;stroke-width:1;" width="10" x="517.6653" y="277.436"/><line style="stroke:#000000;stroke-width:1;" x1="82" x2="82" y1="116.8936" y2="739.7656"/><line style="stroke:#000000;stroke-width:1;" x1="236.8906" x2="236.8906" y1="116.8936" y2="739.7656"/><line style="stroke:#000000;stroke-width:1;" x1="379.1182" x2="379.1182" y1="116.8936" y2="739.7656"/><line style="stroke:#000000;stroke-width:1;" x1="522.2869" x2="522.2869" y1="116.8936" y2="739.7656"/><line style="stroke:#000000;stroke-width:1;" x1="773.9451" x2="773.9451" y1="116.8936" y2="739.7656"/><rect fill="#E8F7E8" height="39.2979" rx="2.5" ry="2.5" style="stroke:#000000;stroke-width:1;" width="125.8906" x="20" y="76.5957"/><text fill="#000000" font-family="Arial" font-size="11" lengthAdjust="spacing" textLength="23.2246" x="71.333" y="94.0935">VCU</text><text fill="#000000" font-family="Arial" font-size="11" lengthAdjust="spacing" textLength="111.8906" x="27" y="106.7424">vehicle-mode producer</text><rect fill="#E8F7E8" height="39.2979" rx="2.5" ry="2.5" style="stroke:#000000;stroke-width:1;" width="125.8906" x="20" y="738.7656"/><text fill="#000000" font-family="Arial" font-size="11" lengthAdjust="spacing" textLength="23.2246" x="71.333" y="756.2634">VCU</text><text fill="#000000" font-family="Arial" font-size="11" lengthAdjust="spacing" textLength="111.8906" x="27" y="768.9124">vehicle-mode producer</text><rect fill="#E8F0FE" height="39.2979" rx="2.5" ry="2.5" style="stroke:#000000;stroke-width:1;" width="122.2275" x="175.8906" y="76.5957"/><text fill="#000000" font-family="Arial" font-size="11" lengthAdjust="spacing" textLength="51.3638" x="211.3225" y="94.0935">Gear input</text><text fill="#000000" font-family="Arial" font-size="11" lengthAdjust="spacing" textLength="108.2275" x="182.8906" y="106.7424">GearState / GearInput</text><rect fill="#E8F0FE" height="39.2979" rx="2.5" ry="2.5" style="stroke:#000000;stroke-width:1;" width="122.2275" x="175.8906" y="738.7656"/><text fill="#000000" font-family="Arial" font-size="11" lengthAdjust="spacing" textLength="51.3638" x="211.3225" y="756.2634">Gear input</text><text fill="#000000" font-family="Arial" font-size="11" lengthAdjust="spacing" textLength="108.2275" x="182.8906" y="768.9124">GearState / GearInput</text><rect fill="#F4F7FB" height="39.2979" rx="2.5" ry="2.5" style="stroke:#000000;stroke-width:1;" width="103.8853" x="328.1182" y="76.5957"/><text fill="#000000" font-family="Arial" font-size="11" lengthAdjust="spacing" textLength="62.9814" x="348.5701" y="94.0935">Vehicle state</text><text fill="#000000" font-family="Arial" font-size="11" lengthAdjust="spacing" textLength="89.8853" x="335.1182" y="106.7424">speed / drive state</text><rect fill="#F4F7FB" height="39.2979" rx="2.5" ry="2.5" style="stroke:#000000;stroke-width:1;" width="103.8853" x="328.1182" y="738.7656"/><text fill="#000000" font-family="Arial" font-size="11" lengthAdjust="spacing" textLength="62.9814" x="348.5701" y="756.2634">Vehicle state</text><text fill="#000000" font-family="Arial" font-size="11" lengthAdjust="spacing" textLength="89.8853" x="335.1182" y="768.9124">speed / drive state</text><rect fill="#FFF4CC" height="39.2979" rx="2.5" ry="2.5" style="stroke:#000000;stroke-width:1;" width="108.7568" x="468.2869" y="76.5957"/><text fill="#000000" font-family="Arial" font-size="11" lengthAdjust="spacing" textLength="22.6069" x="511.3618" y="94.0935">TCU</text><text fill="#000000" font-family="Arial" font-size="11" lengthAdjust="spacing" textLength="94.7568" x="475.2869" y="106.7424">transmission owner</text><rect fill="#FFF4CC" height="39.2979" rx="2.5" ry="2.5" style="stroke:#000000;stroke-width:1;" width="108.7568" x="468.2869" y="738.7656"/><text fill="#000000" font-family="Arial" font-size="11" lengthAdjust="spacing" textLength="22.6069" x="511.3618" y="756.2634">TCU</text><text fill="#000000" font-family="Arial" font-size="11" lengthAdjust="spacing" textLength="94.7568" x="475.2869" y="768.9124">transmission owner</text><rect fill="#FCE8FF" height="26.6489" rx="2.5" ry="2.5" style="stroke:#000000;stroke-width:1;" width="130.7568" x="708.9451" y="89.2446"/><text fill="#000000" font-family="Arial" font-size="11" lengthAdjust="spacing" textLength="116.7568" x="715.9451" y="106.7424">Transmission observers</text><rect fill="#FCE8FF" height="26.6489" rx="2.5" ry="2.5" style="stroke:#000000;stroke-width:1;" width="130.7568" x="708.9451" y="738.7656"/><text fill="#000000" font-family="Arial" font-size="11" lengthAdjust="spacing" textLength="116.7568" x="715.9451" y="756.2634">Transmission observers</text><rect fill="#FFFFFF" height="361.085" style="stroke:#000000;stroke-width:1;" width="10" x="517.6653" y="277.436"/><rect fill="#FFFFFF" height="3" style="stroke:#FFFFFF;stroke-width:1;" width="849.7019" x="5" y="146.218"/><line style="stroke:#000000;stroke-width:0.5;" x1="5" x2="854.7019" y1="146.218" y2="146.218"/><line style="stroke:#000000;stroke-width:0.5;" x1="5" x2="854.7019" y1="149.218" y2="149.218"/><rect fill="#FFFFFF" height="20.6489" style="stroke:#000000;stroke-width:1;" width="77.5454" x="391.0782" y="136.8936"/><text fill="#000000" font-family="Arial" font-size="11" font-weight="bold" lengthAdjust="spacing" textLength="60.4893" x="397.0782" y="151.3914">Shift Inputs</text><polygon fill="#000000" points="510.6653,194.8403,520.6653,198.8403,510.6653,202.8403,514.6653,198.8403" style="stroke:#000000;stroke-width:1;"/><line style="stroke:#000000;stroke-width:1;" x1="82.9453" x2="516.6653" y1="198.8403" y2="198.8403"/><text fill="#000000" font-family="Arial" font-size="11" lengthAdjust="spacing" textLength="100.2568" x="252.6769" y="182.0403">frmVehicleModeMsg</text><text fill="#000000" font-family="Arial" font-size="11" lengthAdjust="spacing" textLength="140.6152" x="232.4977" y="194.6892">DriveMode / PowertrainState</text><polygon fill="#000000" points="510.6653,234.1382,520.6653,238.1382,510.6653,242.1382,514.6653,238.1382" style="stroke:#000000;stroke-width:1;"/><line style="stroke:#000000;stroke-width:1;" x1="237.0044" x2="516.6653" y1="238.1382" y2="238.1382"/><text fill="#000000" font-family="Arial" font-size="11" lengthAdjust="spacing" textLength="86.8022" x="336.4337" y="221.3381">frmGearStateMsg</text><text fill="#000000" font-family="Arial" font-size="11" lengthAdjust="spacing" textLength="108.2275" x="325.7211" y="233.9871">GearInput / GearState</text><polygon fill="#000000" points="505.6653,273.436,515.6653,277.436,505.6653,281.436,509.6653,277.436" style="stroke:#000000;stroke-width:1;"/><line style="stroke:#000000;stroke-width:1;" x1="380.0608" x2="511.6653" y1="277.436" y2="277.436"/><text fill="#000000" font-family="Arial" font-size="11" lengthAdjust="spacing" textLength="118.6045" x="389.5608" y="260.636">frmVehicleStateCanMsg</text><text fill="#000000" font-family="Arial" font-size="11" lengthAdjust="spacing" textLength="67.8853" x="414.9204" y="273.2849">VehicleSpeed</text><line style="stroke:#000000;stroke-width:1;" x1="527.6653" x2="569.6653" y1="304.085" y2="304.085"/><line style="stroke:#000000;stroke-width:1;" x1="569.6653" x2="569.6653" y1="304.085" y2="317.085"/><line style="stroke:#000000;stroke-width:1;" x1="528.6653" x2="569.6653" y1="317.085" y2="317.085"/><polygon fill="#000000" points="538.6653,313.085,528.6653,317.085,538.6653,321.085,534.6653,317.085" style="stroke:#000000;stroke-width:1;"/><text fill="#000000" font-family="Arial" font-size="11" lengthAdjust="spacing" textLength="211.5513" x="534.6653" y="299.9338">normalize stale gear / mode / vehicle inputs</text><line style="stroke:#000000;stroke-width:1;" x1="527.6653" x2="569.6653" y1="356.3828" y2="356.3828"/><line style="stroke:#000000;stroke-width:1;" x1="569.6653" x2="569.6653" y1="356.3828" y2="369.3828"/><line style="stroke:#000000;stroke-width:1;" x1="528.6653" x2="569.6653" y1="369.3828" y2="369.3828"/><polygon fill="#000000" points="538.6653,365.3828,528.6653,369.3828,538.6653,373.3828,534.6653,369.3828" style="stroke:#000000;stroke-width:1;"/><text fill="#000000" font-family="Arial" font-size="11" lengthAdjust="spacing" textLength="199.9282" x="534.6653" y="339.5828">derive manual gear state from drive state</text><text fill="#000000" font-family="Arial" font-size="11" lengthAdjust="spacing" textLength="111.2837" x="578.9875" y="352.2317">when scenario inactive</text><line style="stroke:#000000;stroke-width:1;" x1="527.6653" x2="569.6653" y1="396.0317" y2="396.0317"/><line style="stroke:#000000;stroke-width:1;" x1="569.6653" x2="569.6653" y1="396.0317" y2="409.0317"/><line style="stroke:#000000;stroke-width:1;" x1="528.6653" x2="569.6653" y1="409.0317" y2="409.0317"/><polygon fill="#000000" points="538.6653,405.0317,528.6653,409.0317,538.6653,413.0317,534.6653,409.0317" style="stroke:#000000;stroke-width:1;"/><text fill="#000000" font-family="Arial" font-size="11" lengthAdjust="spacing" textLength="217.6582" x="534.6653" y="391.8806">derive ShiftState / ShiftTargetGear / ShiftSlip</text><line style="stroke:#000000;stroke-width:1;" x1="527.6653" x2="569.6653" y1="435.6807" y2="435.6807"/><line style="stroke:#000000;stroke-width:1;" x1="569.6653" x2="569.6653" y1="435.6807" y2="448.6807"/><line style="stroke:#000000;stroke-width:1;" x1="528.6653" x2="569.6653" y1="448.6807" y2="448.6807"/><polygon fill="#000000" points="538.6653,444.6807,528.6653,448.6807,538.6653,452.6807,534.6653,448.6807" style="stroke:#000000;stroke-width:1;"/><text fill="#000000" font-family="Arial" font-size="11" lengthAdjust="spacing" textLength="171.1606" x="534.6653" y="431.5295">derive TransOilTemp / ClutchTemp</text><path d="M532,461.6807 L532,546.6807 L666,546.6807 L666,471.6807 L656,461.6807 L532,461.6807 " fill="#FFFFFF" style="stroke:#000000;stroke-width:1;"/><path d="M656,461.6807 L656,471.6807 L666,471.6807 L656,461.6807 " fill="#FFFFFF" style="stroke:#000000;stroke-width:1;"/><text fill="#000000" font-family="Arial" font-size="11" lengthAdjust="spacing" textLength="113.126" x="538" y="477.1785">Representative outputs</text><text fill="#000000" font-family="Arial" font-size="11" lengthAdjust="spacing" textLength="54.4146" x="538" y="489.8274">- ShiftState</text><text fill="#000000" font-family="Arial" font-size="11" lengthAdjust="spacing" textLength="84.9761" x="538" y="502.4763">- ShiftTargetGear</text><text fill="#000000" font-family="Arial" font-size="11" lengthAdjust="spacing" textLength="47.0723" x="538" y="515.1252">- ShiftSlip</text><text fill="#000000" font-family="Arial" font-size="11" lengthAdjust="spacing" textLength="76.3984" x="538" y="527.7742">- TransOilTemp</text><text fill="#000000" font-family="Arial" font-size="11" lengthAdjust="spacing" textLength="66.0161" x="538" y="540.4231">- ClutchTemp</text><rect fill="#FFFFFF" height="3" style="stroke:#FFFFFF;stroke-width:1;" width="849.7019" x="5" y="571.8987"/><line style="stroke:#000000;stroke-width:0.5;" x1="5" x2="854.7019" y1="571.8987" y2="571.8987"/><line style="stroke:#000000;stroke-width:0.5;" x1="5" x2="854.7019" y1="574.8987" y2="574.8987"/><rect fill="#FFFFFF" height="20.6489" style="stroke:#000000;stroke-width:1;" width="84.2754" x="387.7133" y="562.5742"/><text fill="#000000" font-family="Arial" font-size="11" font-weight="bold" lengthAdjust="spacing" textLength="67.2192" x="393.7133" y="577.072">Shift Publish</text><polygon fill="#000000" points="762.3235,607.8721,772.3235,611.8721,762.3235,615.8721,766.3235,611.8721" style="stroke:#000000;stroke-width:1;"/><line style="stroke:#000000;stroke-width:1;" x1="527.6653" x2="768.3235" y1="611.8721" y2="611.8721"/><text fill="#000000" font-family="Arial" font-size="11" lengthAdjust="spacing" textLength="112.4761" x="594.7563" y="607.7209">frmTransShiftStateMsg</text><polygon fill="#000000" points="762.3235,634.521,772.3235,638.521,762.3235,642.521,766.3235,638.521" style="stroke:#000000;stroke-width:1;"/><line style="stroke:#000000;stroke-width:1;" x1="522.6653" x2="768.3235" y1="638.521" y2="638.521"/><text fill="#000000" font-family="Arial" font-size="11" lengthAdjust="spacing" textLength="130.1846" x="583.4021" y="634.3699">frmTransmissionTempMsg</text><path d="M11,651.521 L11,724.521 L845,724.521 L845,661.521 L835,651.521 L11,651.521 " fill="#FFFFFF" style="stroke:#000000;stroke-width:1;"/><path d="M835,651.521 L835,661.521 L845,661.521 L835,651.521 " fill="#FFFFFF" style="stroke:#000000;stroke-width:1;"/><text fill="#000000" font-family="Arial" font-size="11" lengthAdjust="spacing" textLength="143.0752" x="261.2277" y="667.0188">Representative runtime chain</text><text fill="#000000" font-family="Arial" font-size="11" lengthAdjust="spacing" textLength="245.1851" x="261.2277" y="679.6677">1. VCU publishes drive mode and powertrain state</text><text fill="#000000" font-family="Arial" font-size="11" lengthAdjust="spacing" textLength="272.7065" x="261.2277" y="692.3167">2. TCU combines that with gear input and vehicle speed</text><text fill="#000000" font-family="Arial" font-size="11" lengthAdjust="spacing" textLength="325.2466" x="261.2277" y="704.9656">3. TCU derives shift transition state and transmission temperatures</text><text fill="#000000" font-family="Arial" font-size="11" lengthAdjust="spacing" textLength="284.2759" x="261.2277" y="717.6145">4. Transmission observers verify active gear-shift behavior</text><!--SRC=[RLJ1Rjim3BthAxZsic5Bisu5MWp8WDQhYnsw5alMKowApTX2RScJv0Jhru-adDGfufCbyf6FVAJUnHfRXAxHnghmR6odlMvXfOldohlUbfbhd8VJNBwHHubhtJSnTpR-qXJXsXlT7BVFpGl2-Vd86F1lZxR0Umn1LtZTcCf2WJQY7tbv39spOUTrWutRNdlljX1zZqf54nk4f-mFF65j2lg_ToN2mi62xkQrMKUOHnqHvXHVDv1JWALzpuYMFAT1Z1-XGksdeKCiOV9Tm871asJl-bLZ2XsDin-K8chH5ARJDi89HLhQJKe-uP3GULVs1VeJq46edTvUvPUtLuUuEqe8L6OVbvR_4yifyFzFlXQuU37-Stxx9kzGhn1SsaHz2gKtc-4ovSUQbBl8B_ERG_o2UKUlRMXD25GOkAqTI7FvBFT5bhq17VYl0leD-Y2OXrKWJ4PKSwLciw7tKac0sKmfxiJGsc-mzkrG0Ejr7wgb_S7CHRqfFBejUY9dhBH5IHl6u7t71BhlsT2_1EBIZoGKOwQj87Ttt3sbYsWsh091r69CrphVwePdc3fBJUTfeLnjOZkedzGCXyWIHP1MsvwcJt1ffDRUjMErbdPReuL0Aw2zSHHCwE3HSDBStSJ8OQ5zXV4kyKhcndH7mIBYWsaMs7Rad3LzB6e-AEiee3TL7S6jfGk_iQCLfAtKp0LS7wN4oOZ1xl3AO6zc1fE3V7GSvKDR0kSS3SmZRrgePM86yZnP8g04UarC0Xvt6GQKKx1FYGV2fYeT3IulvoV6lYtJzpOQUj2Acf_4ypFPuYunmp2e9k9hgg3R3sjIKdqvauONhbqPI_wnrX6s9jP9VnaJGUu6HvPNVKsmf598xm_8XXf-U8QvOTp1saOg4xsEFLMWBixW-8vIBc_M_o0DbH2Pf0mhhFN6EF-gndy0]--></g></svg>