<svg xmlns="http://www.w3.org/2000/svg" xmlns:xlink="http://www.w3.org/1999/xlink" contentStyleType="text/css" height="719px" preserveAspectRatio="none" style="width:846px;height:719px;background:#FFFFFF;" version="1.1" viewBox="0 0 846 719" width="846px" zoomAndPan="magnify"><title>VCU Vehicle Mode To ISG State Signal Flow</title><defs/><g><text fill="#000000" font-family="Arial" font-size="22" font-weight="bold" lengthAdjust="spacing" textLength="458.4014" x="192.671" y="35.9956">VCU Vehicle Mode To ISG State Signal Flow</text><text fill="#000000" font-family="Arial" font-size="22" font-weight="bold" lengthAdjust="spacing" textLength="688.2412" x="77.7511" y="61.2935">(VCU vehicle-mode + fuel-battery context -&gt; ISG state publication)</text><rect fill="#FFFFFF" height="296.1382" style="stroke:#000000;stroke-width:1;" width="10" x="514.6145" y="277.436"/><line style="stroke:#000000;stroke-width:1;" x1="82" x2="82" y1="116.8936" y2="674.8188"/><line style="stroke:#000000;stroke-width:1;" x1="229.8906" x2="229.8906" y1="116.8936" y2="674.8188"/><line style="stroke:#000000;stroke-width:1;" x1="366.2651" x2="366.2651" y1="116.8936" y2="674.8188"/><line style="stroke:#000000;stroke-width:1;" x1="519.3684" x2="519.3684" y1="116.8936" y2="674.8188"/><line style="stroke:#000000;stroke-width:1;" x1="764.8127" x2="764.8127" y1="116.8936" y2="674.8188"/><rect fill="#E8F7E8" height="39.2979" rx="2.5" ry="2.5" style="stroke:#000000;stroke-width:1;" width="125.8906" x="20" y="76.5957"/><text fill="#000000" font-family="Arial" font-size="11" lengthAdjust="spacing" textLength="23.2246" x="71.333" y="94.0935">VCU</text><text fill="#000000" font-family="Arial" font-size="11" lengthAdjust="spacing" textLength="111.8906" x="27" y="106.7424">vehicle-mode producer</text><rect fill="#E8F7E8" height="39.2979" rx="2.5" ry="2.5" style="stroke:#000000;stroke-width:1;" width="125.8906" x="20" y="673.8188"/><text fill="#000000" font-family="Arial" font-size="11" lengthAdjust="spacing" textLength="23.2246" x="71.333" y="691.3167">VCU</text><text fill="#000000" font-family="Arial" font-size="11" lengthAdjust="spacing" textLength="111.8906" x="27" y="703.9656">vehicle-mode producer</text><rect fill="#E8F0FE" height="26.6489" rx="2.5" ry="2.5" style="stroke:#000000;stroke-width:1;" width="109.3745" x="175.8906" y="89.2446"/><text fill="#000000" font-family="Arial" font-size="11" lengthAdjust="spacing" textLength="95.3745" x="182.8906" y="106.7424">Fuel/Battery source</text><rect fill="#E8F0FE" height="26.6489" rx="2.5" ry="2.5" style="stroke:#000000;stroke-width:1;" width="109.3745" x="175.8906" y="673.8188"/><text fill="#000000" font-family="Arial" font-size="11" lengthAdjust="spacing" textLength="95.3745" x="182.8906" y="691.3167">Fuel/Battery source</text><rect fill="#F4F7FB" height="39.2979" rx="2.5" ry="2.5" style="stroke:#000000;stroke-width:1;" width="103.8853" x="315.2651" y="76.5957"/><text fill="#000000" font-family="Arial" font-size="11" lengthAdjust="spacing" textLength="62.9814" x="335.717" y="94.0935">Vehicle state</text><text fill="#000000" font-family="Arial" font-size="11" lengthAdjust="spacing" textLength="89.8853" x="322.2651" y="106.7424">speed / drive state</text><rect fill="#F4F7FB" height="39.2979" rx="2.5" ry="2.5" style="stroke:#000000;stroke-width:1;" width="103.8853" x="315.2651" y="673.8188"/><text fill="#000000" font-family="Arial" font-size="11" lengthAdjust="spacing" textLength="62.9814" x="335.717" y="691.3167">Vehicle state</text><text fill="#000000" font-family="Arial" font-size="11" lengthAdjust="spacing" textLength="89.8853" x="322.2651" y="703.9656">speed / drive state</text><rect fill="#FFF4CC" height="39.2979" rx="2.5" ry="2.5" style="stroke:#000000;stroke-width:1;" width="104.4922" x="467.3684" y="76.5957"/><text fill="#000000" font-family="Arial" font-size="11" lengthAdjust="spacing" textLength="18.9492" x="510.1399" y="94.0935">ISG</text><text fill="#000000" font-family="Arial" font-size="11" lengthAdjust="spacing" textLength="90.4922" x="474.3684" y="106.7424">idle-stop-go owner</text><rect fill="#FFF4CC" height="39.2979" rx="2.5" ry="2.5" style="stroke:#000000;stroke-width:1;" width="104.4922" x="467.3684" y="673.8188"/><text fill="#000000" font-family="Arial" font-size="11" lengthAdjust="spacing" textLength="18.9492" x="510.1399" y="691.3167">ISG</text><text fill="#000000" font-family="Arial" font-size="11" lengthAdjust="spacing" textLength="90.4922" x="474.3684" y="703.9656">idle-stop-go owner</text><rect fill="#FCE8FF" height="26.6489" rx="2.5" ry="2.5" style="stroke:#000000;stroke-width:1;" width="117.9307" x="706.8127" y="89.2446"/><text fill="#000000" font-family="Arial" font-size="11" lengthAdjust="spacing" textLength="103.9307" x="713.8127" y="106.7424">Powertrain observers</text><rect fill="#FCE8FF" height="26.6489" rx="2.5" ry="2.5" style="stroke:#000000;stroke-width:1;" width="117.9307" x="706.8127" y="673.8188"/><text fill="#000000" font-family="Arial" font-size="11" lengthAdjust="spacing" textLength="103.9307" x="713.8127" y="691.3167">Powertrain observers</text><rect fill="#FFFFFF" height="296.1382" style="stroke:#000000;stroke-width:1;" width="10" x="514.6145" y="277.436"/><rect fill="#FFFFFF" height="3" style="stroke:#FFFFFF;stroke-width:1;" width="834.7434" x="5" y="146.218"/><line style="stroke:#000000;stroke-width:0.5;" x1="5" x2="839.7434" y1="146.218" y2="146.218"/><line style="stroke:#000000;stroke-width:0.5;" x1="5" x2="839.7434" y1="149.218" y2="149.218"/><rect fill="#FFFFFF" height="20.6489" style="stroke:#000000;stroke-width:1;" width="72.0562" x="386.3436" y="136.8936"/><text fill="#000000" font-family="Arial" font-size="11" font-weight="bold" lengthAdjust="spacing" textLength="55" x="392.3436" y="151.3914">ISG Inputs</text><polygon fill="#000000" points="507.6145,194.8403,517.6145,198.8403,507.6145,202.8403,511.6145,198.8403" style="stroke:#000000;stroke-width:1;"/><line style="stroke:#000000;stroke-width:1;" x1="82.9453" x2="513.6145" y1="198.8403" y2="198.8403"/><text fill="#000000" font-family="Arial" font-size="11" lengthAdjust="spacing" textLength="100.2568" x="251.1515" y="182.0403">frmVehicleModeMsg</text><text fill="#000000" font-family="Arial" font-size="11" lengthAdjust="spacing" textLength="140.6152" x="230.9723" y="194.6892">DriveMode / PowertrainState</text><polygon fill="#000000" points="507.6145,234.1382,517.6145,238.1382,507.6145,242.1382,511.6145,238.1382" style="stroke:#000000;stroke-width:1;"/><line style="stroke:#000000;stroke-width:1;" x1="230.5779" x2="513.6145" y1="238.1382" y2="238.1382"/><text fill="#000000" font-family="Arial" font-size="11" lengthAdjust="spacing" textLength="118.5938" x="315.7993" y="221.3381">frmFuelBatteryStateMsg</text><text fill="#000000" font-family="Arial" font-size="11" lengthAdjust="spacing" textLength="133.2944" x="308.449" y="233.9871">BatterySoc / ChargingState</text><polygon fill="#000000" points="502.6145,273.436,512.6145,277.436,502.6145,281.436,506.6145,277.436" style="stroke:#000000;stroke-width:1;"/><line style="stroke:#000000;stroke-width:1;" x1="367.2078" x2="508.6145" y1="277.436" y2="277.436"/><text fill="#000000" font-family="Arial" font-size="11" lengthAdjust="spacing" textLength="118.6045" x="381.6089" y="260.636">frmVehicleStateCanMsg</text><text fill="#000000" font-family="Arial" font-size="11" lengthAdjust="spacing" textLength="128.4067" x="376.7078" y="273.2849">DriveState / VehicleSpeed</text><line style="stroke:#000000;stroke-width:1;" x1="524.6145" x2="566.6145" y1="304.085" y2="304.085"/><line style="stroke:#000000;stroke-width:1;" x1="566.6145" x2="566.6145" y1="304.085" y2="317.085"/><line style="stroke:#000000;stroke-width:1;" x1="525.6145" x2="566.6145" y1="317.085" y2="317.085"/><polygon fill="#000000" points="535.6145,313.085,525.6145,317.085,535.6145,321.085,531.6145,317.085" style="stroke:#000000;stroke-width:1;"/><text fill="#000000" font-family="Arial" font-size="11" lengthAdjust="spacing" textLength="207.8774" x="531.6145" y="299.9338">normalize stale fuel-battery / vehicle inputs</text><line style="stroke:#000000;stroke-width:1;" x1="524.6145" x2="566.6145" y1="343.7339" y2="343.7339"/><line style="stroke:#000000;stroke-width:1;" x1="566.6145" x2="566.6145" y1="343.7339" y2="356.7339"/><line style="stroke:#000000;stroke-width:1;" x1="525.6145" x2="566.6145" y1="356.7339" y2="356.7339"/><polygon fill="#000000" points="535.6145,352.7339,525.6145,356.7339,535.6145,360.7339,531.6145,356.7339" style="stroke:#000000;stroke-width:1;"/><text fill="#000000" font-family="Arial" font-size="11" lengthAdjust="spacing" textLength="162.3306" x="531.6145" y="339.5828">if PowertrainState == 0 -&gt; ISG off</text><line style="stroke:#000000;stroke-width:1;" x1="524.6145" x2="566.6145" y1="383.3828" y2="383.3828"/><line style="stroke:#000000;stroke-width:1;" x1="566.6145" x2="566.6145" y1="383.3828" y2="396.3828"/><line style="stroke:#000000;stroke-width:1;" x1="525.6145" x2="566.6145" y1="396.3828" y2="396.3828"/><polygon fill="#000000" points="535.6145,392.3828,525.6145,396.3828,535.6145,400.3828,531.6145,396.3828" style="stroke:#000000;stroke-width:1;"/><text fill="#000000" font-family="Arial" font-size="11" lengthAdjust="spacing" textLength="212.1636" x="531.6145" y="379.2317">else derive RestartReady / RecuperationLvl</text><path d="M529,409.3828 L529,469.3828 L663,469.3828 L663,419.3828 L653,409.3828 L529,409.3828 " fill="#FFFFFF" style="stroke:#000000;stroke-width:1;"/><path d="M653,409.3828 L653,419.3828 L663,419.3828 L653,409.3828 " fill="#FFFFFF" style="stroke:#000000;stroke-width:1;"/><text fill="#000000" font-family="Arial" font-size="11" lengthAdjust="spacing" textLength="113.126" x="535" y="424.8806">Representative outputs</text><text fill="#000000" font-family="Arial" font-size="11" lengthAdjust="spacing" textLength="47.0776" x="535" y="437.5295">- IsgState</text><text fill="#000000" font-family="Arial" font-size="11" lengthAdjust="spacing" textLength="73.9707" x="535" y="450.1785">- RestartReady</text><text fill="#000000" font-family="Arial" font-size="11" lengthAdjust="spacing" textLength="86.2114" x="535" y="462.8274">- RecuperationLvl</text><rect fill="#FFFFFF" height="3" style="stroke:#FFFFFF;stroke-width:1;" width="834.7434" x="5" y="494.303"/><line style="stroke:#000000;stroke-width:0.5;" x1="5" x2="839.7434" y1="494.303" y2="494.303"/><line style="stroke:#000000;stroke-width:0.5;" x1="5" x2="839.7434" y1="497.303" y2="497.303"/><rect fill="#FFFFFF" height="20.6489" style="stroke:#000000;stroke-width:1;" width="78.7861" x="382.9786" y="484.9785"/><text fill="#000000" font-family="Arial" font-size="11" font-weight="bold" lengthAdjust="spacing" textLength="61.73" x="388.9786" y="499.4763">ISG Publish</text><polygon fill="#000000" points="753.7781,530.2764,763.7781,534.2764,753.7781,538.2764,757.7781,534.2764" style="stroke:#000000;stroke-width:1;"/><line style="stroke:#000000;stroke-width:1;" x1="524.6145" x2="759.7781" y1="534.2764" y2="534.2764"/><text fill="#000000" font-family="Arial" font-size="11" lengthAdjust="spacing" textLength="77.0215" x="606.6855" y="530.1252">frmIsgStateMsg</text><polygon fill="#000000" points="753.7781,569.5742,763.7781,573.5742,753.7781,577.5742,757.7781,573.5742" style="stroke:#000000;stroke-width:1;"/><line style="stroke:#000000;stroke-width:1;" x1="519.6145" x2="759.7781" y1="573.5742" y2="573.5742"/><text fill="#000000" font-family="Arial" font-size="11" lengthAdjust="spacing" textLength="100.2729" x="592.5598" y="556.7742">traceable ISG state /</text><text fill="#000000" font-family="Arial" font-size="11" lengthAdjust="spacing" textLength="109.4253" x="587.9836" y="569.4231">restart / regen visibility</text><path d="M14,586.5742 L14,659.5742 L833,659.5742 L833,596.5742 L823,586.5742 L14,586.5742 " fill="#FFFFFF" style="stroke:#000000;stroke-width:1;"/><path d="M823,586.5742 L823,596.5742 L833,596.5742 L823,586.5742 " fill="#FFFFFF" style="stroke:#000000;stroke-width:1;"/><text fill="#000000" font-family="Arial" font-size="11" lengthAdjust="spacing" textLength="143.0752" x="262.2323" y="602.072">Representative runtime chain</text><text fill="#000000" font-family="Arial" font-size="11" lengthAdjust="spacing" textLength="255.5835" x="262.2323" y="614.7209">1. VCU publishes vehicle mode and powertrain state</text><text fill="#000000" font-family="Arial" font-size="11" lengthAdjust="spacing" textLength="314.2788" x="262.2323" y="627.3699">2. ISG combines that with fuel-battery and vehicle-speed context</text><text fill="#000000" font-family="Arial" font-size="11" lengthAdjust="spacing" textLength="265.9712" x="262.2323" y="640.0188">3. ISG derives restart readiness and recuperation level</text><text fill="#000000" font-family="Arial" font-size="11" lengthAdjust="spacing" textLength="251.2813" x="262.2323" y="652.6677">4. Powertrain observers verify idle-stop-go behavior</text><!--SRC=[RLJ1Rjim3BthAxZsic5Bqsu5MWp8W2QhXmBhLYHRJxd8CcCBLIIFafrbNpzAjfkuQ4wEnFVu-4ZgJQXmYr0RgQtmJzhMakGMSgcUIdADBHREE8BJBFsE8WhSoCQ4pDdmGpB33MbfNhzVwNy85nT7bnx_D6WLtgFtiiGReqiB2cr0EeeYzBMpVeYQet6x6oAtWq0D2X5qC0YFYz_mY9LM_7tl2eHV3kvMts0LP41OCRCqa35qRT_6sBQBdMnZx7lOD6WckGoSUW-ArUBV09ClYS8dYhh9ZLOoQ6VV2S7IWbQwbZR02VEjxOYm9bSq2ka4f4_IJc-liwlRwp4kuwJJUP_KkuOK9a0sJ_7dsUsBF7rzIT3Q-XgnW2aKfDl-iCk75NVgChlAvcCy5xEskc2HFhXwKZfmEzkBZ8N6zbuk5cFGWziX1UB109Txf1R99yJFt3DYmK8p8MQpn71dwoPucCs4Y5Nt1dw63MrxyR4tzxvSswzHTUhK50uvKhi46t0CZJxrDgNxX1yEd6A2HIMfrBRiuD60LrAdouMqX_JTS4o7mLb5GuLKGRVndF4YSZnJMKTRQU8OizdSXz7GJ8UH0frC64FrvcMHR1AS3m5kind7e_78ovCwkqHEHs69ieXfbgYQ6YbDulVM2EkOZ7HP1QP9efTOyzBm7d4CurqJag09tFdUeSc8DFqTaw8j818_T_OXZh-lKcjxfN40ahy3BHixlkDg5ShSuD4UJTUMkjnS2s695bhjTQwD3djHuCZ-hZZ7CnUtw4EaVLaTDJPeVdbK5T-kYxEqRdMd5lrpKz9QIgwgFinp4YG-dYLrocrpRHaHAXbWfqCrxc_43ZlURLx_J8XF7K7NBGz3TSJMHaAVe7HaC1XiqOZBCtXjkJWBwSqUHekQOoLRxUZGcFy0]--></g></svg>