<svg xmlns="http://www.w3.org/2000/svg" xmlns:xlink="http://www.w3.org/1999/xlink" contentStyleType="text/css" height="958px" preserveAspectRatio="none" style="width:921px;height:958px;background:#FFFFFF;" version="1.1" viewBox="0 0 921 958" width="921px" zoomAndPan="magnify"><title>Warning Hold And Theme Stale To HUD Clear Signal Flow</title><defs/><g><text fill="#000000" font-family="Arial" font-size="22" font-weight="bold" lengthAdjust="spacing" textLength="603.8184" x="157.4307" y="35.9956">Warning Hold And Theme Stale To HUD Clear Signal Flow</text><text fill="#000000" font-family="Arial" font-size="22" font-weight="bold" lengthAdjust="spacing" textLength="888.6797" x="15" y="61.2935">(cluster warning + theme hold windows -&gt; HUD warning clear and default brightness)</text><rect fill="#FFFFFF" height="575.2231" style="stroke:#000000;stroke-width:1;" width="10" x="392.3904" y="238.1382"/><line style="stroke:#000000;stroke-width:1;" x1="77.8149" x2="77.8149" y1="116.8936" y2="914.606"/><line style="stroke:#000000;stroke-width:1;" x1="215.0264" x2="215.0264" y1="116.8936" y2="914.606"/><line style="stroke:#000000;stroke-width:1;" x1="396.8916" x2="396.8916" y1="116.8936" y2="914.606"/><line style="stroke:#000000;stroke-width:1;" x1="692.9888" x2="692.9888" y1="116.8936" y2="914.606"/><line style="stroke:#000000;stroke-width:1;" x1="851.3887" x2="851.3887" y1="116.8936" y2="914.606"/><rect fill="#F4F7FB" height="26.6489" rx="2.5" ry="2.5" style="stroke:#000000;stroke-width:1;" width="111.2114" x="22.8149" y="89.2446"/><text fill="#000000" font-family="Arial" font-size="11" lengthAdjust="spacing" textLength="97.2114" x="29.8149" y="106.7424">Cluster warning bus</text><rect fill="#F4F7FB" height="26.6489" rx="2.5" ry="2.5" style="stroke:#000000;stroke-width:1;" width="111.2114" x="22.8149" y="913.606"/><text fill="#000000" font-family="Arial" font-size="11" lengthAdjust="spacing" textLength="97.2114" x="29.8149" y="931.1038">Cluster warning bus</text><rect fill="#E8F0FE" height="26.6489" rx="2.5" ry="2.5" style="stroke:#000000;stroke-width:1;" width="103.2622" x="164.0264" y="89.2446"/><text fill="#000000" font-family="Arial" font-size="11" lengthAdjust="spacing" textLength="89.2622" x="171.0264" y="106.7424">Cluster theme bus</text><rect fill="#E8F0FE" height="26.6489" rx="2.5" ry="2.5" style="stroke:#000000;stroke-width:1;" width="103.2622" x="164.0264" y="913.606"/><text fill="#000000" font-family="Arial" font-size="11" lengthAdjust="spacing" textLength="89.2622" x="171.0264" y="931.1038">Cluster theme bus</text><rect fill="#E8F7E8" height="39.2979" rx="2.5" ry="2.5" style="stroke:#000000;stroke-width:1;" width="120.9976" x="336.8916" y="76.5957"/><text fill="#000000" font-family="Arial" font-size="11" lengthAdjust="spacing" textLength="23.8315" x="385.4746" y="94.0935">HUD</text><text fill="#000000" font-family="Arial" font-size="11" lengthAdjust="spacing" textLength="106.9976" x="343.8916" y="106.7424">warning-render owner</text><rect fill="#E8F7E8" height="39.2979" rx="2.5" ry="2.5" style="stroke:#000000;stroke-width:1;" width="120.9976" x="336.8916" y="913.606"/><text fill="#000000" font-family="Arial" font-size="11" lengthAdjust="spacing" textLength="23.8315" x="385.4746" y="931.1038">HUD</text><text fill="#000000" font-family="Arial" font-size="11" lengthAdjust="spacing" textLength="106.9976" x="343.8916" y="943.7527">warning-render owner</text><rect fill="#FFF4CC" height="26.6489" rx="2.5" ry="2.5" style="stroke:#000000;stroke-width:1;" width="85.5269" x="650.9888" y="89.2446"/><text fill="#000000" font-family="Arial" font-size="11" lengthAdjust="spacing" textLength="71.5269" x="657.9888" y="106.7424">HUD state bus</text><rect fill="#FFF4CC" height="26.6489" rx="2.5" ry="2.5" style="stroke:#000000;stroke-width:1;" width="85.5269" x="650.9888" y="913.606"/><text fill="#000000" font-family="Arial" font-size="11" lengthAdjust="spacing" textLength="71.5269" x="657.9888" y="931.1038">HUD state bus</text><rect fill="#FCE8FF" height="39.2979" rx="2.5" ry="2.5" style="stroke:#000000;stroke-width:1;" width="82.4761" x="810.3887" y="76.5957"/><text fill="#000000" font-family="Arial" font-size="11" lengthAdjust="spacing" textLength="56.8477" x="823.2029" y="94.0935">Observers /</text><text fill="#000000" font-family="Arial" font-size="11" lengthAdjust="spacing" textLength="68.4761" x="817.3887" y="106.7424">visual readers</text><rect fill="#FCE8FF" height="39.2979" rx="2.5" ry="2.5" style="stroke:#000000;stroke-width:1;" width="82.4761" x="810.3887" y="913.606"/><text fill="#000000" font-family="Arial" font-size="11" lengthAdjust="spacing" textLength="56.8477" x="823.2029" y="931.1038">Observers /</text><text fill="#000000" font-family="Arial" font-size="11" lengthAdjust="spacing" textLength="68.4761" x="817.3887" y="943.7527">visual readers</text><rect fill="#FFFFFF" height="575.2231" style="stroke:#000000;stroke-width:1;" width="10" x="392.3904" y="238.1382"/><rect fill="#FFFFFF" height="3" style="stroke:#FFFFFF;stroke-width:1;" width="904.0498" x="7.8149" y="146.218"/><line style="stroke:#000000;stroke-width:0.5;" x1="7.8149" x2="911.8647" y1="146.218" y2="146.218"/><line style="stroke:#000000;stroke-width:0.5;" x1="7.8149" x2="911.8647" y1="149.218" y2="149.218"/><rect fill="#FFFFFF" height="20.6489" style="stroke:#000000;stroke-width:1;" width="76.9385" x="421.3706" y="136.8936"/><text fill="#000000" font-family="Arial" font-size="11" font-weight="bold" lengthAdjust="spacing" textLength="59.8823" x="427.3706" y="151.3914">HUD Inputs</text><polygon fill="#000000" points="385.3904,194.8403,395.3904,198.8403,385.3904,202.8403,389.3904,198.8403" style="stroke:#000000;stroke-width:1;"/><line style="stroke:#000000;stroke-width:1;" x1="78.4207" x2="391.3904" y1="198.8403" y2="198.8403"/><text fill="#000000" font-family="Arial" font-size="11" lengthAdjust="spacing" textLength="112.4653" x="181.6729" y="182.0403">frmClusterWarningMsg</text><text fill="#000000" font-family="Arial" font-size="11" lengthAdjust="spacing" textLength="88.6499" x="193.5806" y="194.6892">WarningTextCode</text><polygon fill="#000000" points="380.3904,234.1382,390.3904,238.1382,380.3904,242.1382,384.3904,238.1382" style="stroke:#000000;stroke-width:1;"/><line style="stroke:#000000;stroke-width:1;" x1="215.6575" x2="386.3904" y1="238.1382" y2="238.1382"/><text fill="#000000" font-family="Arial" font-size="11" lengthAdjust="spacing" textLength="105.7407" x="251.1536" y="221.3381">frmClusterThemeMsg</text><text fill="#000000" font-family="Arial" font-size="11" lengthAdjust="spacing" textLength="157.7329" x="225.1575" y="233.9871">ThemeMode / ClusterBrightness</text><line style="stroke:#000000;stroke-width:1;" x1="402.3904" x2="444.3904" y1="277.436" y2="277.436"/><line style="stroke:#000000;stroke-width:1;" x1="444.3904" x2="444.3904" y1="277.436" y2="290.436"/><line style="stroke:#000000;stroke-width:1;" x1="403.3904" x2="444.3904" y1="290.436" y2="290.436"/><polygon fill="#000000" points="413.3904,286.436,403.3904,290.436,413.3904,294.436,409.3904,290.436" style="stroke:#000000;stroke-width:1;"/><text fill="#000000" font-family="Arial" font-size="11" lengthAdjust="spacing" textLength="109.7637" x="450.4873" y="260.636">warningInputExpired =</text><text fill="#000000" font-family="Arial" font-size="11" lengthAdjust="spacing" textLength="191.9575" x="409.3904" y="273.2849">ethIsRecentTick(gWarningRxMs, 1500)</text><line style="stroke:#000000;stroke-width:1;" x1="402.3904" x2="444.3904" y1="329.7339" y2="329.7339"/><line style="stroke:#000000;stroke-width:1;" x1="444.3904" x2="444.3904" y1="329.7339" y2="342.7339"/><line style="stroke:#000000;stroke-width:1;" x1="403.3904" x2="444.3904" y1="342.7339" y2="342.7339"/><polygon fill="#000000" points="413.3904,338.7339,403.3904,342.7339,413.3904,346.7339,409.3904,342.7339" style="stroke:#000000;stroke-width:1;"/><text fill="#000000" font-family="Arial" font-size="11" lengthAdjust="spacing" textLength="101.8145" x="451.0996" y="312.9338">themeInputExpired =</text><text fill="#000000" font-family="Arial" font-size="11" lengthAdjust="spacing" textLength="185.2329" x="409.3904" y="325.5828">ethIsRecentTick(gThemeRxMs, 1500)</text><line style="stroke:#000000;stroke-width:1;" x1="402.3904" x2="444.3904" y1="382.0317" y2="382.0317"/><line style="stroke:#000000;stroke-width:1;" x1="444.3904" x2="444.3904" y1="382.0317" y2="395.0317"/><line style="stroke:#000000;stroke-width:1;" x1="403.3904" x2="444.3904" y1="395.0317" y2="395.0317"/><polygon fill="#000000" points="413.3904,391.0317,403.3904,395.0317,413.3904,399.0317,409.3904,395.0317" style="stroke:#000000;stroke-width:1;"/><text fill="#000000" font-family="Arial" font-size="11" lengthAdjust="spacing" textLength="110.6768" x="409.3904" y="365.2317">if warning expired then</text><text fill="#000000" font-family="Arial" font-size="11" lengthAdjust="spacing" textLength="83.4722" x="422.9927" y="377.8806">warningCode = 0</text><line style="stroke:#000000;stroke-width:1;" x1="402.3904" x2="444.3904" y1="434.3296" y2="434.3296"/><line style="stroke:#000000;stroke-width:1;" x1="444.3904" x2="444.3904" y1="434.3296" y2="447.3296"/><line style="stroke:#000000;stroke-width:1;" x1="403.3904" x2="444.3904" y1="447.3296" y2="447.3296"/><polygon fill="#000000" points="413.3904,443.3296,403.3904,447.3296,413.3904,451.3296,409.3904,447.3296" style="stroke:#000000;stroke-width:1;"/><text fill="#000000" font-family="Arial" font-size="11" lengthAdjust="spacing" textLength="102.7275" x="448.5295" y="417.5295">if theme expired then</text><text fill="#000000" font-family="Arial" font-size="11" lengthAdjust="spacing" textLength="181.0059" x="409.3904" y="430.1785">themeMode = 0 / hudBrightness = 18</text><line style="stroke:#000000;stroke-width:1;" x1="402.3904" x2="444.3904" y1="486.6274" y2="486.6274"/><line style="stroke:#000000;stroke-width:1;" x1="444.3904" x2="444.3904" y1="486.6274" y2="499.6274"/><line style="stroke:#000000;stroke-width:1;" x1="403.3904" x2="444.3904" y1="499.6274" y2="499.6274"/><polygon fill="#000000" points="413.3904,495.6274,403.3904,499.6274,413.3904,503.6274,409.3904,499.6274" style="stroke:#000000;stroke-width:1;"/><text fill="#000000" font-family="Arial" font-size="11" lengthAdjust="spacing" textLength="116.1821" x="482.4802" y="469.8274">hudMode falls back to 0</text><text fill="#000000" font-family="Arial" font-size="11" lengthAdjust="spacing" textLength="262.3618" x="409.3904" y="482.4763">when warningCode == 0 and no popup/guide override</text><path d="M406.8149,512.6274 L406.8149,585.6274 L574.8149,585.6274 L574.8149,522.6274 L564.8149,512.6274 L406.8149,512.6274 " fill="#FFFFFF" style="stroke:#000000;stroke-width:1;"/><path d="M564.8149,512.6274 L564.8149,522.6274 L574.8149,522.6274 L564.8149,512.6274 " fill="#FFFFFF" style="stroke:#000000;stroke-width:1;"/><text fill="#000000" font-family="Arial" font-size="11" lengthAdjust="spacing" textLength="139.4229" x="412.8149" y="528.1252">Representative gating inputs</text><text fill="#000000" font-family="Arial" font-size="11" lengthAdjust="spacing" textLength="95.3691" x="412.8149" y="540.7742">- WarningTextCode</text><text fill="#000000" font-family="Arial" font-size="11" lengthAdjust="spacing" textLength="68.4707" x="412.8149" y="553.4231">- ThemeMode</text><text fill="#000000" font-family="Arial" font-size="11" lengthAdjust="spacing" textLength="93.5322" x="412.8149" y="566.072">- ClusterBrightness</text><text fill="#000000" font-family="Arial" font-size="11" lengthAdjust="spacing" textLength="147.9629" x="412.8149" y="578.7209">- warning/theme hold windows</text><rect fill="#FFFFFF" height="3" style="stroke:#FFFFFF;stroke-width:1;" width="904.0498" x="7.8149" y="610.1965"/><line style="stroke:#000000;stroke-width:0.5;" x1="7.8149" x2="911.8647" y1="610.1965" y2="610.1965"/><line style="stroke:#000000;stroke-width:0.5;" x1="7.8149" x2="911.8647" y1="613.1965" y2="613.1965"/><rect fill="#FFFFFF" height="20.6489" style="stroke:#000000;stroke-width:1;" width="83.6685" x="418.0056" y="600.8721"/><text fill="#000000" font-family="Arial" font-size="11" font-weight="bold" lengthAdjust="spacing" textLength="66.6123" x="424.0056" y="615.3699">HUD Publish</text><polygon fill="#000000" points="681.7522,658.8188,691.7522,662.8188,681.7522,666.8188,685.7522,662.8188" style="stroke:#000000;stroke-width:1;"/><line style="stroke:#000000;stroke-width:1;" x1="402.3904" x2="687.7522" y1="662.8188" y2="662.8188"/><text fill="#000000" font-family="Arial" font-size="11" lengthAdjust="spacing" textLength="82.5269" x="506.8079" y="646.0188">frmHudStateMsg</text><text fill="#000000" font-family="Arial" font-size="11" lengthAdjust="spacing" textLength="225.6182" x="435.2622" y="658.6677">HudMode / HudWarningCode / HudBrightness</text><path d="M406.8149,675.8188 L406.8149,735.8188 L540.8149,735.8188 L540.8149,685.8188 L530.8149,675.8188 L406.8149,675.8188 " fill="#FFFFFF" style="stroke:#000000;stroke-width:1;"/><path d="M530.8149,675.8188 L530.8149,685.8188 L540.8149,685.8188 L530.8149,675.8188 " fill="#FFFFFF" style="stroke:#000000;stroke-width:1;"/><text fill="#000000" font-family="Arial" font-size="11" lengthAdjust="spacing" textLength="113.126" x="412.8149" y="691.3167">Representative outputs</text><text fill="#000000" font-family="Arial" font-size="11" lengthAdjust="spacing" textLength="54.4146" x="412.8149" y="703.9656">- HudMode</text><text fill="#000000" font-family="Arial" font-size="11" lengthAdjust="spacing" textLength="94.1553" x="412.8149" y="716.6145">- HudWarningCode</text><text fill="#000000" font-family="Arial" font-size="11" lengthAdjust="spacing" textLength="78.8691" x="412.8149" y="729.2634">- HudBrightness</text><rect fill="#FFFFFF" height="3" style="stroke:#FFFFFF;stroke-width:1;" width="904.0498" x="7.8149" y="760.739"/><line style="stroke:#000000;stroke-width:0.5;" x1="7.8149" x2="911.8647" y1="760.739" y2="760.739"/><line style="stroke:#000000;stroke-width:0.5;" x1="7.8149" x2="911.8647" y1="763.739" y2="763.739"/><rect fill="#FFFFFF" height="20.6489" style="stroke:#000000;stroke-width:1;" width="131.3638" x="394.158" y="751.4146"/><text fill="#000000" font-family="Arial" font-size="11" font-weight="bold" lengthAdjust="spacing" textLength="114.3076" x="400.158" y="765.9124">Downstream Visibility</text><polygon fill="#000000" points="839.6267,809.3613,849.6267,813.3613,839.6267,817.3613,843.6267,813.3613" style="stroke:#000000;stroke-width:1;"/><line style="stroke:#000000;stroke-width:1;" x1="693.7522" x2="845.6267" y1="813.3613" y2="813.3613"/><text fill="#000000" font-family="Arial" font-size="11" lengthAdjust="spacing" textLength="133.8745" x="705.7522" y="796.5613">HUD clear/default visibility /</text><text fill="#000000" font-family="Arial" font-size="11" lengthAdjust="spacing" textLength="79.4761" x="732.9514" y="809.2102">visual observers</text><path d="M21.8149,826.3613 L21.8149,899.3613 L906.8149,899.3613 L906.8149,836.3613 L896.8149,826.3613 L21.8149,826.3613 " fill="#FFFFFF" style="stroke:#000000;stroke-width:1;"/><path d="M896.8149,826.3613 L896.8149,836.3613 L906.8149,836.3613 L896.8149,826.3613 " fill="#FFFFFF" style="stroke:#000000;stroke-width:1;"/><text fill="#000000" font-family="Arial" font-size="11" lengthAdjust="spacing" textLength="143.0752" x="262.3528" y="841.8591">Representative runtime chain</text><text fill="#000000" font-family="Arial" font-size="11" lengthAdjust="spacing" textLength="204.209" x="262.3528" y="854.5081">1. Warning and theme context reach HUD</text><text fill="#000000" font-family="Arial" font-size="11" lengthAdjust="spacing" textLength="336.8857" x="262.3528" y="867.157">2. HUD evaluates hold-window expiry for warning and theme sources</text><text fill="#000000" font-family="Arial" font-size="11" lengthAdjust="spacing" textLength="394.9741" x="262.3528" y="879.8059">3. HUD clears warning state and restores default brightness when sources expire</text><text fill="#000000" font-family="Arial" font-size="11" lengthAdjust="spacing" textLength="250.0835" x="262.3528" y="892.4548">4. HUD publishes the cleared/default visual posture</text><!--SRC=[XLLDRnen4BtxLqoJIwg606sgH96e18HLSaXR1TfSk9ZTOTVAOc_z0Kb_VSVsiYo1AXp0ikUzcJTVVB05hX2gaWl9pBEG5TTy1GkUFkTQEPcDLQaqd2RXqxB8SCbTQHCbxNTE34CjU7dyVIh-8lJxhKU3VnpA51_G69xZi1IvX1IbHTsoqcWg9StMQeIbsWorLXkmsY5ZLjWIuObhAMGETwhCO2Wpc0L5KylfSQRWxjSjZ4la6gRaXPUG4CrSdgMbC-GFDZN-4yHK59vd8sIcDWOwtm9-QvC67avEQdcmq28lhAG8Fp96OLkHYefB2oVZD_mBPqw0cn0lvVCokKf6nn4nZgrzb7CwkKvwoMGVGA7DPStVqIWp0gkDH1s0Fd0FkvfS7y30M6vtFkvSDd8cLFboFDwt_h4mgDUe3NJdSYsCenHgvEGhOkcTW6Dob30s60Itzx9ori1Wm5YGMwVn1fPwLQkio_PWyhcippDyiMEL8OkIZu32Gu344nb35-h7KLCAnbChrbuW4J1Fqd3LsGe1JbugeJ63mLoYBUxD8_eMd8dq-IolGtfyUJ3dqF_QwttSvmarUfSbHFbV3h5icWDh4gALJKbzBc00lGDKR91zZ6qIGWXAIa4bRH92T_thVHfw3zPBNfOcp3jO1JroJdIm5u4dz3ql5LIgSbKtTuBk5JM5fWEJYZ8TV85QXfG_OaN3IsdWL0U4d7v8f0XTmJhmjjuTQCf9vyDoThRnT0z7b668p6BJV3_TeXIc2DstbHpxExGIdQU- -KCRtTLPw7gJfvReSD4AuLsDojbQNSqPJotEUD7Yt8lybWRNM1gi5VmMHYn4AUnhr1239nb-r6w2nh28kjibjDu1TZEgjdFBCjoRXwZ5LoyKujpJlbMZdRI2CfqM_d-XVz5iMTy7iGWfRNOgeDy5QH68Fr-4s73DIqVEJAXJ9zOfTkihBDLk8-wuZ78wHSE-NEpKcSOkxYflJI5QHLz7rY-4lgs9wjbWbv6lYXr1z-GkicFMpfxFLwMCTOHfgl8F]--></g></svg>