<svg xmlns="http://www.w3.org/2000/svg" xmlns:xlink="http://www.w3.org/1999/xlink" contentStyleType="text/css" height="894px" preserveAspectRatio="none" style="width:729px;height:894px;background:#FFFFFF;" version="1.1" viewBox="0 0 729 894" width="729px" zoomAndPan="magnify"><title>Wheel Speed To TPMS Tire Pressure Signal Flow</title><defs/><g><text fill="#000000" font-family="Arial" font-size="22" font-weight="bold" lengthAdjust="spacing" textLength="512.2197" x="107.1414" y="35.9956">Wheel Speed To TPMS Tire Pressure Signal Flow</text><text fill="#000000" font-family="Arial" font-size="22" font-weight="bold" lengthAdjust="spacing" textLength="564.126" x="81.1882" y="61.2935">(wheel-speed input -&gt; TPMS tire-pressure publication)</text><rect fill="#FFFFFF" height="549.9253" style="stroke:#000000;stroke-width:1;" width="10" x="224.5083" y="198.8403"/><line style="stroke:#000000;stroke-width:1;" x1="69" x2="69" y1="116.8936" y2="850.0103"/><line style="stroke:#000000;stroke-width:1;" x1="229.1299" x2="229.1299" y1="116.8936" y2="850.0103"/><line style="stroke:#000000;stroke-width:1;" x1="471.2493" x2="471.2493" y1="116.8936" y2="850.0103"/><line style="stroke:#000000;stroke-width:1;" x1="662.3071" x2="662.3071" y1="116.8936" y2="850.0103"/><rect fill="#F4F7FB" height="39.2979" rx="2.5" ry="2.5" style="stroke:#000000;stroke-width:1;" width="99.6045" x="20" y="76.5957"/><text fill="#000000" font-family="Arial" font-size="11" lengthAdjust="spacing" textLength="85.6045" x="27" y="94.0935">Wheel-speed bus</text><text fill="#000000" font-family="Arial" font-size="11" lengthAdjust="spacing" textLength="84.9546" x="27.325" y="106.7424">FL / FR / RL / RR</text><rect fill="#F4F7FB" height="39.2979" rx="2.5" ry="2.5" style="stroke:#000000;stroke-width:1;" width="99.6045" x="20" y="849.0103"/><text fill="#000000" font-family="Arial" font-size="11" lengthAdjust="spacing" textLength="85.6045" x="27" y="866.5081">Wheel-speed bus</text><text fill="#000000" font-family="Arial" font-size="11" lengthAdjust="spacing" textLength="84.9546" x="27.325" y="879.157">FL / FR / RL / RR</text><rect fill="#E8F7E8" height="39.2979" rx="2.5" ry="2.5" style="stroke:#000000;stroke-width:1;" width="108.7568" x="175.1299" y="76.5957"/><text fill="#000000" font-family="Arial" font-size="11" lengthAdjust="spacing" textLength="30.5562" x="214.2302" y="94.0935">TPMS</text><text fill="#000000" font-family="Arial" font-size="11" lengthAdjust="spacing" textLength="94.7568" x="182.1299" y="106.7424">tire-pressure owner</text><rect fill="#E8F7E8" height="39.2979" rx="2.5" ry="2.5" style="stroke:#000000;stroke-width:1;" width="108.7568" x="175.1299" y="849.0103"/><text fill="#000000" font-family="Arial" font-size="11" lengthAdjust="spacing" textLength="30.5562" x="214.2302" y="866.5081">TPMS</text><text fill="#000000" font-family="Arial" font-size="11" lengthAdjust="spacing" textLength="94.7568" x="182.1299" y="879.157">tire-pressure owner</text><rect fill="#FFF4CC" height="26.6489" rx="2.5" ry="2.5" style="stroke:#000000;stroke-width:1;" width="92.2515" x="425.2493" y="89.2446"/><text fill="#000000" font-family="Arial" font-size="11" lengthAdjust="spacing" textLength="78.2515" x="432.2493" y="106.7424">TPMS state bus</text><rect fill="#FFF4CC" height="26.6489" rx="2.5" ry="2.5" style="stroke:#000000;stroke-width:1;" width="92.2515" x="425.2493" y="849.0103"/><text fill="#000000" font-family="Arial" font-size="11" lengthAdjust="spacing" textLength="78.2515" x="432.2493" y="866.5081">TPMS state bus</text><rect fill="#E8F0FE" height="39.2979" rx="2.5" ry="2.5" style="stroke:#000000;stroke-width:1;" width="89.1953" x="618.3071" y="76.5957"/><text fill="#000000" font-family="Arial" font-size="11" lengthAdjust="spacing" textLength="56.8477" x="634.481" y="94.0935">Observers /</text><text fill="#000000" font-family="Arial" font-size="11" lengthAdjust="spacing" textLength="75.1953" x="625.3071" y="106.7424">service readers</text><rect fill="#E8F0FE" height="39.2979" rx="2.5" ry="2.5" style="stroke:#000000;stroke-width:1;" width="89.1953" x="618.3071" y="849.0103"/><text fill="#000000" font-family="Arial" font-size="11" lengthAdjust="spacing" textLength="56.8477" x="634.481" y="866.5081">Observers /</text><text fill="#000000" font-family="Arial" font-size="11" lengthAdjust="spacing" textLength="75.1953" x="625.3071" y="879.157">service readers</text><rect fill="#FFFFFF" height="549.9253" style="stroke:#000000;stroke-width:1;" width="10" x="224.5083" y="198.8403"/><rect fill="#FFFFFF" height="3" style="stroke:#FFFFFF;stroke-width:1;" width="717.5024" x="5" y="146.218"/><line style="stroke:#000000;stroke-width:0.5;" x1="5" x2="722.5024" y1="146.218" y2="146.218"/><line style="stroke:#000000;stroke-width:0.5;" x1="5" x2="722.5024" y1="149.218" y2="149.218"/><rect fill="#FFFFFF" height="20.6489" style="stroke:#000000;stroke-width:1;" width="83.6631" x="321.9197" y="136.8936"/><text fill="#000000" font-family="Arial" font-size="11" font-weight="bold" lengthAdjust="spacing" textLength="66.6069" x="327.9197" y="151.3914">TPMS Inputs</text><polygon fill="#000000" points="212.5083,194.8403,222.5083,198.8403,212.5083,202.8403,216.5083,198.8403" style="stroke:#000000;stroke-width:1;"/><line style="stroke:#000000;stroke-width:1;" x1="69.8022" x2="218.5083" y1="198.8403" y2="198.8403"/><text fill="#000000" font-family="Arial" font-size="11" lengthAdjust="spacing" textLength="99.6499" x="97.3303" y="182.0403">frmWheelSpeedMsg</text><text fill="#000000" font-family="Arial" font-size="11" lengthAdjust="spacing" textLength="135.7061" x="79.3022" y="194.6892">WheelSpdFL / FR / RL / RR</text><line style="stroke:#000000;stroke-width:1;" x1="234.5083" x2="276.5083" y1="238.1382" y2="238.1382"/><line style="stroke:#000000;stroke-width:1;" x1="276.5083" x2="276.5083" y1="238.1382" y2="251.1382"/><line style="stroke:#000000;stroke-width:1;" x1="235.5083" x2="276.5083" y1="251.1382" y2="251.1382"/><polygon fill="#000000" points="245.5083,247.1382,235.5083,251.1382,245.5083,255.1382,241.5083,251.1382" style="stroke:#000000;stroke-width:1;"/><text fill="#000000" font-family="Arial" font-size="11" lengthAdjust="spacing" textLength="87.7583" x="301.5625" y="221.3381">wheelInputStale =</text><text fill="#000000" font-family="Arial" font-size="11" lengthAdjust="spacing" textLength="207.8667" x="241.5083" y="233.9871">ethIsRecentTick(gWheelSpeedRxMs, 300)</text><line style="stroke:#000000;stroke-width:1;" x1="234.5083" x2="276.5083" y1="290.436" y2="290.436"/><line style="stroke:#000000;stroke-width:1;" x1="276.5083" x2="276.5083" y1="290.436" y2="303.436"/><line style="stroke:#000000;stroke-width:1;" x1="235.5083" x2="276.5083" y1="303.436" y2="303.436"/><polygon fill="#000000" points="245.5083,299.436,235.5083,303.436,245.5083,307.436,241.5083,303.436" style="stroke:#000000;stroke-width:1;"/><text fill="#000000" font-family="Arial" font-size="11" lengthAdjust="spacing" textLength="56.2568" x="256.3406" y="273.636">if stale then</text><text fill="#000000" font-family="Arial" font-size="11" lengthAdjust="spacing" textLength="85.9214" x="241.5083" y="286.2849">wheel speeds = 0</text><line style="stroke:#000000;stroke-width:1;" x1="234.5083" x2="276.5083" y1="330.085" y2="330.085"/><line style="stroke:#000000;stroke-width:1;" x1="276.5083" x2="276.5083" y1="330.085" y2="343.085"/><line style="stroke:#000000;stroke-width:1;" x1="235.5083" x2="276.5083" y1="343.085" y2="343.085"/><polygon fill="#000000" points="245.5083,339.085,235.5083,343.085,245.5083,347.085,241.5083,343.085" style="stroke:#000000;stroke-width:1;"/><text fill="#000000" font-family="Arial" font-size="11" lengthAdjust="spacing" textLength="172.1113" x="241.5083" y="325.9338">dropFront = (FL + FR &gt; 220) ? 4 : 0</text><line style="stroke:#000000;stroke-width:1;" x1="234.5083" x2="276.5083" y1="369.7339" y2="369.7339"/><line style="stroke:#000000;stroke-width:1;" x1="276.5083" x2="276.5083" y1="369.7339" y2="382.7339"/><line style="stroke:#000000;stroke-width:1;" x1="235.5083" x2="276.5083" y1="382.7339" y2="382.7339"/><polygon fill="#000000" points="245.5083,378.7339,235.5083,382.7339,245.5083,386.7339,241.5083,382.7339" style="stroke:#000000;stroke-width:1;"/><text fill="#000000" font-family="Arial" font-size="11" lengthAdjust="spacing" textLength="172.729" x="241.5083" y="365.5828">dropRear = (RL + RR &gt; 220) ? 4 : 0</text><line style="stroke:#000000;stroke-width:1;" x1="234.5083" x2="276.5083" y1="422.0317" y2="422.0317"/><line style="stroke:#000000;stroke-width:1;" x1="276.5083" x2="276.5083" y1="422.0317" y2="435.0317"/><line style="stroke:#000000;stroke-width:1;" x1="235.5083" x2="276.5083" y1="435.0317" y2="435.0317"/><polygon fill="#000000" points="245.5083,431.0317,235.5083,435.0317,245.5083,439.0317,241.5083,435.0317" style="stroke:#000000;stroke-width:1;"/><text fill="#000000" font-family="Arial" font-size="11" lengthAdjust="spacing" textLength="123.1592" x="252.6855" y="405.2317">TirePressFL/FR/RL/RR =</text><text fill="#000000" font-family="Arial" font-size="11" lengthAdjust="spacing" textLength="145.5137" x="241.5083" y="417.8806">base pressure - dynamic drop</text><path d="M239,448.0317 L239,508.0317 L407,508.0317 L407,458.0317 L397,448.0317 L239,448.0317 " fill="#FFFFFF" style="stroke:#000000;stroke-width:1;"/><path d="M397,448.0317 L397,458.0317 L407,458.0317 L397,448.0317 " fill="#FFFFFF" style="stroke:#000000;stroke-width:1;"/><text fill="#000000" font-family="Arial" font-size="11" lengthAdjust="spacing" textLength="139.4229" x="245" y="463.5295">Representative gating inputs</text><text fill="#000000" font-family="Arial" font-size="11" lengthAdjust="spacing" textLength="144.8906" x="245" y="476.1785">- WheelSpdFL / WheelSpdFR</text><text fill="#000000" font-family="Arial" font-size="11" lengthAdjust="spacing" textLength="147.3398" x="245" y="488.8274">- WheelSpdRL / WheelSpdRR</text><text fill="#000000" font-family="Arial" font-size="11" lengthAdjust="spacing" textLength="147.9736" x="245" y="501.4763">- wheel-speed staleness lease</text><rect fill="#FFFFFF" height="3" style="stroke:#FFFFFF;stroke-width:1;" width="717.5024" x="5" y="532.9519"/><line style="stroke:#000000;stroke-width:0.5;" x1="5" x2="722.5024" y1="532.9519" y2="532.9519"/><line style="stroke:#000000;stroke-width:0.5;" x1="5" x2="722.5024" y1="535.9519" y2="535.9519"/><rect fill="#FFFFFF" height="20.6489" style="stroke:#000000;stroke-width:1;" width="90.3931" x="318.5547" y="523.6274"/><text fill="#000000" font-family="Arial" font-size="11" font-weight="bold" lengthAdjust="spacing" textLength="73.3369" x="324.5547" y="538.1252">TPMS Publish</text><polygon fill="#000000" points="459.375,581.5742,469.375,585.5742,459.375,589.5742,463.375,585.5742" style="stroke:#000000;stroke-width:1;"/><line style="stroke:#000000;stroke-width:1;" x1="234.5083" x2="465.375" y1="585.5742" y2="585.5742"/><text fill="#000000" font-family="Arial" font-size="11" lengthAdjust="spacing" textLength="99.623" x="303.1301" y="568.7742">frmTirePressureMsg</text><text fill="#000000" font-family="Arial" font-size="11" lengthAdjust="spacing" textLength="132.0161" x="286.9336" y="581.4231">TirePressFL / FR / RL / RR</text><path d="M239,598.5742 L239,671.5742 L373,671.5742 L373,608.5742 L363,598.5742 L239,598.5742 " fill="#FFFFFF" style="stroke:#000000;stroke-width:1;"/><path d="M363,598.5742 L363,608.5742 L373,608.5742 L363,598.5742 " fill="#FFFFFF" style="stroke:#000000;stroke-width:1;"/><text fill="#000000" font-family="Arial" font-size="11" lengthAdjust="spacing" textLength="113.126" x="245" y="614.072">Representative outputs</text><text fill="#000000" font-family="Arial" font-size="11" lengthAdjust="spacing" textLength="66.6177" x="245" y="626.7209">- TirePressFL</text><text fill="#000000" font-family="Arial" font-size="11" lengthAdjust="spacing" textLength="68.4438" x="245" y="639.3699">- TirePressFR</text><text fill="#000000" font-family="Arial" font-size="11" lengthAdjust="spacing" textLength="67.8423" x="245" y="652.0188">- TirePressRL</text><text fill="#000000" font-family="Arial" font-size="11" lengthAdjust="spacing" textLength="69.6685" x="245" y="664.6677">- TirePressRR</text><rect fill="#FFFFFF" height="3" style="stroke:#FFFFFF;stroke-width:1;" width="717.5024" x="5" y="696.1433"/><line style="stroke:#000000;stroke-width:0.5;" x1="5" x2="722.5024" y1="696.1433" y2="696.1433"/><line style="stroke:#000000;stroke-width:0.5;" x1="5" x2="722.5024" y1="699.1433" y2="699.1433"/><rect fill="#FFFFFF" height="20.6489" style="stroke:#000000;stroke-width:1;" width="131.3638" x="298.0693" y="686.8188"/><text fill="#000000" font-family="Arial" font-size="11" font-weight="bold" lengthAdjust="spacing" textLength="114.3076" x="304.0693" y="701.3167">Downstream Visibility</text><polygon fill="#000000" points="650.9048,744.7656,660.9048,748.7656,650.9048,752.7656,654.9048,748.7656" style="stroke:#000000;stroke-width:1;"/><line style="stroke:#000000;stroke-width:1;" x1="471.375" x2="656.9048" y1="748.7656" y2="748.7656"/><text fill="#000000" font-family="Arial" font-size="11" lengthAdjust="spacing" textLength="108.8022" x="512.7388" y="731.9656">tire-pressure visibility /</text><text fill="#000000" font-family="Arial" font-size="11" lengthAdjust="spacing" textLength="167.5298" x="483.375" y="744.6145">service and observer consumption</text><path d="M15,761.7656 L15,834.7656 L717,834.7656 L717,771.7656 L707,761.7656 L15,761.7656 " fill="#FFFFFF" style="stroke:#000000;stroke-width:1;"/><path d="M707,761.7656 L707,771.7656 L717,771.7656 L707,761.7656 " fill="#FFFFFF" style="stroke:#000000;stroke-width:1;"/><text fill="#000000" font-family="Arial" font-size="11" lengthAdjust="spacing" textLength="143.0752" x="180.7991" y="777.2634">Representative runtime chain</text><text fill="#000000" font-family="Arial" font-size="11" lengthAdjust="spacing" textLength="269.6182" x="180.7991" y="789.9124">1. Wheel-speed samples arrive on frmWheelSpeedMsg</text><text fill="#000000" font-family="Arial" font-size="11" lengthAdjust="spacing" textLength="232.9497" x="180.7991" y="802.5613">2. TPMS checks the wheel-speed lease window</text><text fill="#000000" font-family="Arial" font-size="11" lengthAdjust="spacing" textLength="355.2012" x="180.7991" y="815.2102">3. TPMS derives dynamic tire-pressure values from wheel-speed posture</text><text fill="#000000" font-family="Arial" font-size="11" lengthAdjust="spacing" textLength="361.9043" x="180.7991" y="827.8591">4. TPMS publishes frmTirePressureMsg for observers and service readers</text><!--SRC=[XLNVJzim47xtNt635z0eBL09X5GcO4IQH3VaLkCbBsvoJQqcTcOxxTXVlxEJjab0eWzjdFlkntVtdVl5hR10A7CX5RDhgKfXH04BaQmpeokLFkfS6pYEmgU5I74fgjn5MhcVWYBS6odoZ-qp-G_Xug9bjFYdGfNW5AqL6TxdCbEGe79eMYY3jjJAxb0FcEljlJ5w2yvKo9YJBaTuNI7cC2iHKvXhcBzCPp2N1k65_6r53pEABdA8o3rM9rkF7zY0fqoLWy5TxUN8Qr3klCfgaSj4EAdLAMDKaPE9B8LoSFJQ2h6eRAoYPnX2nEcB-oVEZq3OfhBZQ1nTHm_T23vVhBe9zLQX2OwXckEdc-ZwwUQz7rWd7Fh4DPY2F5GsZ6Zy-DZ5_rfOD1iq5eQnyeyoGUghIEbLy2P0o3IAdXYRJEhKFtnRB4mcZDKSTXswXQKfmglGxwdDOjKSqtSzO29nSkDBzRui13W42cC8YMPEq1WdiKAt-c4vUXtCPR8-oGwP-D-fFOEhqUYq7qSkVJye00bPnIg4XJ0Q8W2ZFZmrkemCYPAC9rJoLr_o7LnUZaxX6um9yQ4BHs6y1_SU_3CFFvAWlkXv6F4XVnwI2n5S24kwsirx0EcR4eLCGWQcD7NAo6pbG2_hbd7qO6e7gN23aD6FochHMZQ0JkVt1zwoyBQ5UqjR_Q5lYgg17AaoXYe5NyL122z-1-mgA67FiT5RqCAUAH4AQcXHxylXSuAwSWsrLfZEYRTFl6EZ31q2tscVh2Ej5_1RMhcGkNHlDPE60P7nyh_jBVxcW6ujZQ3OkjacIEXQgehItmqinQxEQvxQmqBdptoIFbDJqVBJhPci_BrxSGxjAyMAeipHWZ0cT4MzspfsULuFA5bXihPU-vt9Xdd2LgfKRzbLWwMTft1shxeUQv5NP5mQNNH2bTewihDn4wMi9H6W_V73alugzFxAyIthtJc74Vq7]--></g></svg>