<svg xmlns="http://www.w3.org/2000/svg" width="1280" height="720" viewBox="0 0 1280 720">
  <defs><marker id="a" markerWidth="10" markerHeight="10" refX="8" refY="3" orient="auto"><path d="M0,0 L8,3 L0,6 Z" fill="#555"/></marker></defs>
  <rect width="1280" height="720" fill="#fff"/>
  <text x="640" y="58" text-anchor="middle" font-family="Arial" font-size="30" font-weight="700">Metric and Data Source Map</text>
  <rect x="100" y="160" width="220" height="110" rx="12" fill="#fafafa" stroke="#777" stroke-width="2"/><text x="210" y="225" text-anchor="middle" font-family="Arial" font-size="22" font-weight="700">N1</text>
  <rect x="100" y="305" width="220" height="110" rx="12" fill="#fafafa" stroke="#777" stroke-width="2"/><text x="210" y="370" text-anchor="middle" font-family="Arial" font-size="22" font-weight="700">N2</text>
  <rect x="100" y="450" width="220" height="110" rx="12" fill="#fafafa" stroke="#777" stroke-width="2"/><text x="210" y="515" text-anchor="middle" font-family="Arial" font-size="22" font-weight="700">N3</text>
  <rect x="520" y="160" width="260" height="110" rx="12" fill="#fcfcfc" stroke="#777" stroke-width="2"/><text x="650" y="225" text-anchor="middle" font-family="Arial" font-size="20">IT_006 / ST_016 / ST_017</text>
  <rect x="520" y="305" width="260" height="110" rx="12" fill="#fcfcfc" stroke="#777" stroke-width="2"/><text x="650" y="370" text-anchor="middle" font-family="Arial" font-size="20">IT_018 / ST_022 / ST_023</text>
  <rect x="520" y="450" width="260" height="110" rx="12" fill="#fcfcfc" stroke="#777" stroke-width="2"/><text x="650" y="515" text-anchor="middle" font-family="Arial" font-size="20">IT_009 / ST_035 / ST_036 / ST_045 / ST_046</text>
  <rect x="950" y="240" width="220" height="240" rx="12" fill="#ffffff" stroke="#777" stroke-width="2"/>
  <text x="1060" y="305" text-anchor="middle" font-family="Arial" font-size="22" font-weight="700">XML / Verdict</text>
  <text x="1060" y="345" text-anchor="middle" font-family="Arial" font-size="18">scenario-level aggregation</text>
  <text x="1060" y="378" text-anchor="middle" font-family="Arial" font-size="18">report export and summary</text>
  <line x1="320" y1="215" x2="520" y2="215" stroke="#666" stroke-width="3" marker-end="url(#a)"/>
  <line x1="320" y1="360" x2="520" y2="360" stroke="#666" stroke-width="3" marker-end="url(#a)"/>
  <line x1="320" y1="505" x2="520" y2="505" stroke="#666" stroke-width="3" marker-end="url(#a)"/>
  <line x1="780" y1="215" x2="950" y2="300" stroke="#666" stroke-width="3" marker-end="url(#a)"/>
  <line x1="780" y1="360" x2="950" y2="360" stroke="#666" stroke-width="3" marker-end="url(#a)"/>
  <line x1="780" y1="505" x2="950" y2="420" stroke="#666" stroke-width="3" marker-end="url(#a)"/>
</svg>
