<svg xmlns="http://www.w3.org/2000/svg" width="1280" height="720" viewBox="0 0 1280 720">
  <defs><marker id="a" markerWidth="10" markerHeight="10" refX="8" refY="3" orient="auto"><path d="M0,0 L8,3 L0,6 Z" fill="#555"/></marker></defs>
  <rect width="1280" height="720" fill="#fff"/>
  <text x="640" y="58" text-anchor="middle" font-family="Arial" font-size="30" font-weight="700">Message Contracts and Network Flow</text>
  <rect x="80" y="280" width="190" height="100" rx="12" fill="#fafafa" stroke="#777" stroke-width="2"/><text x="175" y="338" text-anchor="middle" font-family="Arial" font-size="22" font-weight="700">IVI / NAV</text>
  <rect x="330" y="280" width="190" height="100" rx="12" fill="#fafafa" stroke="#777" stroke-width="2"/><text x="425" y="338" text-anchor="middle" font-family="Arial" font-size="22" font-weight="700">CGW</text>
  <rect x="580" y="280" width="190" height="100" rx="12" fill="#fcfcfc" stroke="#777" stroke-width="2"/><text x="675" y="338" text-anchor="middle" font-family="Arial" font-size="22" font-weight="700">V2X / ADAS</text>
  <rect x="830" y="280" width="190" height="100" rx="12" fill="#ffffff" stroke="#777" stroke-width="2"/><text x="925" y="338" text-anchor="middle" font-family="Arial" font-size="22" font-weight="700">BCM / CLU / HUD</text>
  <rect x="1080" y="280" width="120" height="100" rx="12" fill="#ffffff" stroke="#777" stroke-width="2"/><text x="1140" y="338" text-anchor="middle" font-family="Arial" font-size="22" font-weight="700">TEST</text>
  <line x1="270" y1="330" x2="330" y2="330" stroke="#666" stroke-width="3" marker-end="url(#a)"/>
  <line x1="520" y1="330" x2="580" y2="330" stroke="#666" stroke-width="3" marker-end="url(#a)"/>
  <line x1="770" y1="330" x2="830" y2="330" stroke="#666" stroke-width="3" marker-end="url(#a)"/>
  <line x1="1020" y1="330" x2="1080" y2="330" stroke="#666" stroke-width="3" marker-end="url(#a)"/>
  <text x="300" y="265" font-family="Arial" font-size="16">context frames</text>
  <text x="555" y="265" font-family="Arial" font-size="16">backbone transport</text>
  <text x="800" y="265" font-family="Arial" font-size="16">effective alert</text>
  <text x="1080" y="265" font-family="Arial" font-size="16">observer output</text>
</svg>
