<svg xmlns="http://www.w3.org/2000/svg" width="1280" height="720" viewBox="0 0 1280 720">
  <defs><marker id="a" markerWidth="10" markerHeight="10" refX="8" refY="3" orient="auto"><path d="M0,0 L8,3 L0,6 Z" fill="#555"/></marker></defs>
  <rect width="1280" height="720" fill="#fff"/>
  <text x="640" y="58" text-anchor="middle" font-family="Arial" font-size="30" font-weight="700">Document-driven Process and Traceability Chain</text>
  <rect x="60" y="260" width="120" height="100" rx="12" fill="#fafafa" stroke="#777" stroke-width="2"/><text x="120" y="320" text-anchor="middle" font-family="Arial" font-size="24" font-weight="700">01</text>
  <rect x="210" y="260" width="120" height="100" rx="12" fill="#fafafa" stroke="#777" stroke-width="2"/><text x="270" y="320" text-anchor="middle" font-family="Arial" font-size="24" font-weight="700">03</text>
  <rect x="360" y="260" width="160" height="100" rx="12" fill="#fafafa" stroke="#777" stroke-width="2"/><text x="440" y="320" text-anchor="middle" font-family="Arial" font-size="24" font-weight="700">0301~0304</text>
  <rect x="550" y="260" width="120" height="100" rx="12" fill="#fafafa" stroke="#777" stroke-width="2"/><text x="610" y="320" text-anchor="middle" font-family="Arial" font-size="24" font-weight="700">04</text>
  <rect x="700" y="200" width="120" height="80" rx="12" fill="#fcfcfc" stroke="#777" stroke-width="2"/><text x="760" y="248" text-anchor="middle" font-family="Arial" font-size="22" font-weight="700">05</text>
  <rect x="700" y="290" width="120" height="80" rx="12" fill="#fcfcfc" stroke="#777" stroke-width="2"/><text x="760" y="338" text-anchor="middle" font-family="Arial" font-size="22" font-weight="700">06</text>
  <rect x="700" y="380" width="120" height="80" rx="12" fill="#fcfcfc" stroke="#777" stroke-width="2"/><text x="760" y="428" text-anchor="middle" font-family="Arial" font-size="22" font-weight="700">07</text>
  <rect x="980" y="240" width="220" height="140" rx="12" fill="#ffffff" stroke="#777" stroke-width="2"/>
  <text x="1090" y="298" text-anchor="middle" font-family="Arial" font-size="24" font-weight="700">Executable Baseline</text>
  <text x="1090" y="335" text-anchor="middle" font-family="Arial" font-size="18">Code + Test + Report</text>
  <line x1="180" y1="310" x2="210" y2="310" stroke="#666" stroke-width="3" marker-end="url(#a)"/>
  <line x1="330" y1="310" x2="360" y2="310" stroke="#666" stroke-width="3" marker-end="url(#a)"/>
  <line x1="520" y1="310" x2="550" y2="310" stroke="#666" stroke-width="3" marker-end="url(#a)"/>
  <line x1="670" y1="310" x2="700" y2="240" stroke="#666" stroke-width="3" marker-end="url(#a)"/>
  <line x1="670" y1="310" x2="700" y2="330" stroke="#666" stroke-width="3" marker-end="url(#a)"/>
  <line x1="670" y1="310" x2="700" y2="420" stroke="#666" stroke-width="3" marker-end="url(#a)"/>
  <line x1="820" y1="330" x2="980" y2="310" stroke="#666" stroke-width="3" marker-end="url(#a)"/>
</svg>
