<svg xmlns="http://www.w3.org/2000/svg" width="1600" height="1376" viewBox="0 0 1600 1376">
  <defs>
    <marker id="arrow" viewBox="0 0 10 10" refX="9" refY="5" markerWidth="8" markerHeight="8" orient="auto-start-reverse">
      <path d="M 0 0 L 10 5 L 0 10 z" fill="#475569"/>
    </marker>
  </defs>
  <style>
    .bg { fill: #f8fafc; }
    .title { font: 700 30px 'Segoe UI', sans-serif; fill: #0f172a; }
    .sub { font: 500 15px 'Segoe UI', sans-serif; fill: #475569; }
    .label { font: 700 18px 'Segoe UI', sans-serif; fill: #0f172a; }
    .text { font: 600 15px 'Segoe UI', sans-serif; fill: #1f2937; }
    .small { font: 500 14px 'Segoe UI', sans-serif; fill: #475569; }
    .node { font: 700 16px 'Segoe UI', sans-serif; fill: #111827; }
    .box { rx: 20; ry: 20; stroke: #475569; stroke-width: 2; }
    .lane { stroke: #64748b; stroke-width: 3; fill: none; marker-end: url(#arrow); }
  </style>
  <rect x="0" y="0" width="1600" height="1376" class="bg"/>
  <text x="34" y="44" class="title">FLOW_16 - Body Ambient Warning Output</text>
  <text x="34" y="72" class="sub">Body and Comfort | canonical action flow</text>

  <rect x="30" y="100" width="1540" height="318" class="box" fill="#dcfce7"/>
  <text x="52" y="136" class="label">Flow overview</text>
  <text x="52" y="166" class="text">Body lighting, ambient, wiper, and exterior cues amplify the selected warning state in the comfort domain.</text>
  <text x="52" y="202" class="small">Participants</text>
  <rect x="52" y="214" width="220" height="54" rx="16" ry="16" fill="#ffffff" stroke="#94a3b8" stroke-width="1.5"/><text x="70" y="246" class="node">CGW / BCM</text><rect x="292" y="214" width="220" height="54" rx="16" ry="16" fill="#ffffff" stroke="#94a3b8" stroke-width="1.5"/><text x="310" y="246" class="node">AFLS / AHLS / HLM</text><rect x="532" y="214" width="220" height="54" rx="16" ry="16" fill="#ffffff" stroke="#94a3b8" stroke-width="1.5"/><text x="550" y="246" class="node">WIP / MIR / SRF</text><rect x="772" y="214" width="220" height="54" rx="16" ry="16" fill="#ffffff" stroke="#94a3b8" stroke-width="1.5"/><text x="790" y="246" class="node">IVI / CLU</text><rect x="52" y="298" width="220" height="54" rx="16" ry="16" fill="#ffffff" stroke="#94a3b8" stroke-width="1.5"/><text x="70" y="330" class="node">User</text>

  <rect x="30" y="462" width="1540" height="472" class="box" fill="#ffffff"/>
  <text x="52" y="498" class="label">Action sequence</text>
  <rect x="52" y="526" width="280" height="128" rx="18" ry="18" fill="#ffffff" stroke="#cbd5e1" stroke-width="1.5"/><text x="72" y="554" class="small">CGW / BCM</text><text x="72" y="582" class="label">Route body-facing alert intent</text><text x="72" y="610" class="text">Gateway and BCM expose selected</text>
<text x="72" y="630" class="text">warning meaning into the body</text>
<text x="72" y="650" class="text">domain.</text><line x1="332" y1="590" x2="356" y2="590" class="lane"/><rect x="356" y="526" width="280" height="128" rx="18" ry="18" fill="#ffffff" stroke="#cbd5e1" stroke-width="1.5"/><text x="376" y="554" class="small">AFLS / AHLS / HLM</text><text x="376" y="582" class="label">Apply lighting response</text><text x="376" y="610" class="text">Lighting controllers react to</text>
<text x="376" y="630" class="text">the selected body-facing alert</text>
<text x="376" y="650" class="text">cue.</text><line x1="636" y1="590" x2="660" y2="590" class="lane"/><rect x="660" y="526" width="280" height="128" rx="18" ry="18" fill="#ffffff" stroke="#cbd5e1" stroke-width="1.5"/><text x="680" y="554" class="small">WIP / MIR / SRF</text><text x="680" y="582" class="label">Propagate exterior comfort state</text><text x="680" y="610" class="text">Exterior comfort ECUs keep the</text>
<text x="680" y="630" class="text">body context visible and</text>
<text x="680" y="650" class="text">synchronized.</text><rect x="52" y="704" width="280" height="128" rx="18" ry="18" fill="#ffffff" stroke="#cbd5e1" stroke-width="1.5"/><text x="72" y="732" class="small">IVI / CLU</text><text x="72" y="760" class="label">Mirror ambient warning status</text><text x="72" y="788" class="text">Display surfaces show the same</text>
<text x="72" y="808" class="text">ambient or body warning meaning.</text><line x1="332" y1="768" x2="356" y2="768" class="lane"/><rect x="356" y="704" width="280" height="128" rx="18" ry="18" fill="#ffffff" stroke="#cbd5e1" stroke-width="1.5"/><text x="376" y="732" class="small">User</text><text x="376" y="760" class="label">See ambient reinforcement</text><text x="376" y="788" class="text">Driver perceives a reinforced</text>
<text x="376" y="808" class="text">warning through body and</text>
<text x="376" y="828" class="text">lighting behavior.</text>

  <rect x="30" y="958" width="500" height="336" class="box" fill="#eff6ff"/>
  <text x="52" y="994" class="label">Related ECU bank</text>
  <text x="52" y="1024" class="text">- ADM</text>
<text x="52" y="1044" class="text">- AFLS</text>
<text x="52" y="1064" class="text">- AHLS</text>
<text x="52" y="1084" class="text">- BCM</text>
<text x="52" y="1104" class="text">- BIO</text>
<text x="52" y="1124" class="text">- HLM</text>
<text x="52" y="1144" class="text">- MIR</text>
<text x="52" y="1164" class="text">- MSC</text>
<text x="52" y="1184" class="text">- PTG</text>
<text x="52" y="1204" class="text">- SRF</text>
<text x="52" y="1224" class="text">- TGM</text>
<text x="52" y="1244" class="text">- WIP</text>

  <rect x="550" y="958" width="500" height="336" class="box" fill="#ffffff"/>
  <text x="572" y="994" class="label">Representative signals</text>
  <text x="572" y="1024" class="text">- Ambient Mode</text>
<text x="572" y="1044" class="text">- Blink Left</text>
<text x="572" y="1064" class="text">- Blink Right</text>
<text x="572" y="1084" class="text">- Front Wiper Anim</text>

  <rect x="1070" y="958" width="500" height="336" class="box" fill="#fff7ed"/>
  <text x="1092" y="994" class="label">Why this flow matters</text>
  <text x="1092" y="1024" class="text">Ambient and body warning outputs reinforce</text>
<text x="1092" y="1044" class="text">the selected alert instead of acting</text>
<text x="1092" y="1064" class="text">independently.</text>
</svg>
