<svg xmlns="http://www.w3.org/2000/svg" width="216" height="112" viewBox="0 0 216 112">
  <defs>
    <linearGradient id="plate" x1="0" x2="0" y1="0" y2="1">
      <stop offset="0" stop-color="#eceff3"/>
      <stop offset="1" stop-color="#c7ced8"/>
    </linearGradient>
    <linearGradient id="plateHot" x1="0" x2="0" y1="0" y2="1">
      <stop offset="0" stop-color="#f5f7fa"/>
      <stop offset="1" stop-color="#d7e1ee"/>
    </linearGradient>
    <linearGradient id="pad" x1="0" x2="0" y1="0" y2="1">
      <stop offset="0" stop-color="#5f6671"/>
      <stop offset="1" stop-color="#313743"/>
    </linearGradient>
  </defs>
  <rect width="216" height="112" fill="none"/>
  <g transform="translate(0 0)">
    <polygon points="22,8 56,8 66,102 8,102" fill="url(#plate)" stroke="#69717e" stroke-width="2"/>
    <rect x="24" y="24" width="26" height="58" rx="5" fill="url(#pad)" stroke="#1e2430" stroke-width="1.6"/>
    <g stroke="#b8bec8" stroke-width="2">
      <line x1="31" y1="32" x2="31" y2="74"/>
      <line x1="38" y1="32" x2="38" y2="74"/>
      <line x1="45" y1="32" x2="45" y2="74"/>
    </g>
    <rect x="18" y="88" width="38" height="8" rx="4" fill="#aab2be"/>
  </g>
  <g transform="translate(72 0)">
    <polygon points="22,8 56,8 66,102 8,102" fill="url(#plateHot)" stroke="#56779e" stroke-width="2"/>
    <rect x="24" y="24" width="26" height="58" rx="5" fill="url(#pad)" stroke="#233042" stroke-width="1.6"/>
    <g stroke="#d7dde7" stroke-width="2">
      <line x1="31" y1="32" x2="31" y2="74"/>
      <line x1="38" y1="32" x2="38" y2="74"/>
      <line x1="45" y1="32" x2="45" y2="74"/>
    </g>
    <rect x="18" y="88" width="38" height="8" rx="4" fill="#5c84b1"/>
  </g>
  <g transform="translate(144 0)">
    <polygon points="22,12 56,12 63,102 11,102" fill="url(#plateHot)" stroke="#56779e" stroke-width="2"/>
    <rect x="24" y="36" width="26" height="46" rx="5" fill="url(#pad)" stroke="#233042" stroke-width="1.6"/>
    <g stroke="#d7dde7" stroke-width="2">
      <line x1="31" y1="42" x2="31" y2="74"/>
      <line x1="38" y1="42" x2="38" y2="74"/>
      <line x1="45" y1="42" x2="45" y2="74"/>
    </g>
    <rect x="16" y="92" width="42" height="10" rx="5" fill="#5c84b1"/>
  </g>
</svg>
