<svg xmlns="http://www.w3.org/2000/svg" width="216" height="112" viewBox="0 0 216 112">
  <defs>
    <linearGradient id="frame" x1="0" x2="0" y1="0" y2="1">
      <stop offset="0" stop-color="#eef1f5"/>
      <stop offset="1" stop-color="#c9d1da"/>
    </linearGradient>
    <linearGradient id="frameHot" x1="0" x2="0" y1="0" y2="1">
      <stop offset="0" stop-color="#f6f8fb"/>
      <stop offset="1" stop-color="#dae5f2"/>
    </linearGradient>
    <linearGradient id="core" x1="0" x2="0" y1="0" y2="1">
      <stop offset="0" stop-color="#606875"/>
      <stop offset="1" stop-color="#313845"/>
    </linearGradient>
  </defs>
  <rect width="216" height="112" fill="none"/>
  <g transform="translate(0 0)">
    <polygon points="14,10 42,10 58,102 6,102" fill="url(#frame)" stroke="#69717e" stroke-width="2"/>
    <rect x="22" y="18" width="18" height="66" rx="6" fill="url(#core)" stroke="#1f2633" stroke-width="1.6"/>
    <g stroke="#b8bec8" stroke-width="2">
      <line x1="27" y1="28" x2="27" y2="76"/>
      <line x1="31" y1="28" x2="31" y2="76"/>
      <line x1="35" y1="28" x2="35" y2="76"/>
    </g>
    <rect x="15" y="90" width="32" height="8" rx="4" fill="#aab2be"/>
  </g>
  <g transform="translate(72 0)">
    <polygon points="14,10 42,10 58,102 6,102" fill="url(#frameHot)" stroke="#56779e" stroke-width="2"/>
    <rect x="22" y="18" width="18" height="66" rx="6" fill="url(#core)" stroke="#233042" stroke-width="1.6"/>
    <g stroke="#d7dde7" stroke-width="2">
      <line x1="27" y1="28" x2="27" y2="76"/>
      <line x1="31" y1="28" x2="31" y2="76"/>
      <line x1="35" y1="28" x2="35" y2="76"/>
    </g>
    <rect x="15" y="90" width="32" height="8" rx="4" fill="#5c84b1"/>
  </g>
  <g transform="translate(144 0)">
    <polygon points="16,16 40,16 54,102 8,102" fill="url(#frameHot)" stroke="#56779e" stroke-width="2"/>
    <rect x="22" y="32" width="18" height="52" rx="6" fill="url(#core)" stroke="#233042" stroke-width="1.6"/>
    <g stroke="#d7dde7" stroke-width="2">
      <line x1="27" y1="40" x2="27" y2="76"/>
      <line x1="31" y1="40" x2="31" y2="76"/>
      <line x1="35" y1="40" x2="35" y2="76"/>
    </g>
    <rect x="14" y="92" width="34" height="10" rx="5" fill="#5c84b1"/>
  </g>
</svg>
