<svg xmlns="http://www.w3.org/2000/svg" width="1600" height="1684" viewBox="0 0 1600 1684">
  <defs>
    <linearGradient id="heroGradient" x1="0%" y1="0%" x2="100%" y2="100%">
      <stop offset="0%" stop-color="#fee2e2"/>
      <stop offset="100%" stop-color="#ffffff"/>
    </linearGradient>
  </defs>
  <style>
    .bg { fill: #f7f7f5; }
    .title { font: 700 32px 'Segoe UI', sans-serif; fill: #0f172a; }
    .sub { font: 500 16px 'Segoe UI', sans-serif; fill: #475569; }
    .label { font: 700 19px 'Segoe UI', sans-serif; fill: #0f172a; }
    .text { font: 600 16px 'Segoe UI', sans-serif; fill: #1f2937; }
    .small { font: 500 14px 'Segoe UI', sans-serif; fill: #475569; }
    .node { font: 700 19px 'Segoe UI', sans-serif; fill: #111827; }
    .box { rx: 22; ry: 22; stroke: #334155; stroke-width: 1.6; }
  </style>
  <rect x="0" y="0" width="1600" height="1684" class="bg"/>
  <text x="34" y="44" class="title">ECU Design Study - AEB</text>
  <text x="34" y="72" class="sub">12-column internal card exploration | consulting-style SVG prototype</text>
  <rect x="30" y="100" width="1540" height="268" class="box" fill="url(#heroGradient)"/>
<text x="52" y="134" class="small">ECU at a glance</text>
<text x="52" y="172" class="title">AEB</text>
<text x="52" y="204" class="text">Group 02 ADAS AEB Brake Assist | ADAS</text>
<text x="52" y="224" class="text"></text>
<text x="52" y="244" class="text">AEB domain controller</text>
<text x="52" y="264" class="text"></text>
<text x="52" y="284" class="text">Primary action flow</text>
<text x="52" y="304" class="text">FLOW_06 Object Risk Fusion</text>
<text x="52" y="324" class="text"></text>
<text x="52" y="344" class="text">Signal route</text>
<text x="52" y="364" class="text">ADAS -&gt; AEB -&gt; ADAS</text>
<rect x="940" y="134" width="309" height="82" rx="18" ry="18" fill="#ffffff" stroke="#cbd5e1" stroke-width="1.2"/>
<text x="958" y="162" class="small">Published</text>
<text x="958" y="192" class="node">1</text>
<rect x="1261" y="134" width="309" height="82" rx="18" ry="18" fill="#ffffff" stroke="#cbd5e1" stroke-width="1.2"/>
<text x="1279" y="162" class="small">Consumed</text>
<text x="1279" y="192" class="node">1</text>
<rect x="940" y="228" width="309" height="82" rx="18" ry="18" fill="#ffffff" stroke="#cbd5e1" stroke-width="1.2"/>
<text x="958" y="256" class="small">Linked ECU</text>
<text x="958" y="286" class="node">3</text>
<rect x="1261" y="228" width="309" height="82" rx="18" ry="18" fill="#ffffff" stroke="#cbd5e1" stroke-width="1.2"/>
<text x="1279" y="256" class="small">Native Tests</text>
<text x="1279" y="286" class="node">0</text>
<rect x="940" y="322" width="309" height="82" rx="18" ry="18" fill="#ffffff" stroke="#cbd5e1" stroke-width="1.2"/>
<text x="958" y="350" class="small">Upstream</text>
<text x="958" y="380" class="node">1</text>
<rect x="1261" y="322" width="309" height="82" rx="18" ry="18" fill="#ffffff" stroke="#cbd5e1" stroke-width="1.2"/>
<text x="1279" y="350" class="small">Downstream</text>
<text x="1279" y="380" class="node">3</text>
  <rect x="30" y="392" width="760" height="220" class="box" fill="#e0f2fe"/>
<text x="54" y="428" class="label">Inbound Flow</text>
<rect x="44" y="450" width="236" height="66" rx="16" ry="16" fill="#ffffff" stroke="#cbd5e1" stroke-width="1.4"/>
<text x="60" y="476" class="node">ADAS</text>
<text x="60" y="498" class="small">frmAdasDomainStateMsg</text>
  <rect x="810" y="392" width="760" height="220" class="box" fill="#dbeafe"/>
<text x="834" y="428" class="label">Outbound Flow</text>
<rect x="824" y="450" width="236" height="66" rx="16" ry="16" fill="#ffffff" stroke="#cbd5e1" stroke-width="1.4"/>
<text x="840" y="476" class="node">ADAS</text>
<text x="840" y="498" class="small">frmAebDomainStateMsg</text>
<rect x="1072" y="450" width="236" height="66" rx="16" ry="16" fill="#ffffff" stroke="#cbd5e1" stroke-width="1.4"/>
<text x="1088" y="476" class="node">CLU</text>
<text x="1088" y="498" class="small">frmAebDomainStateMsg</text>
<rect x="1320" y="450" width="236" height="66" rx="16" ry="16" fill="#ffffff" stroke="#cbd5e1" stroke-width="1.4"/>
<text x="1336" y="476" class="node">ESC</text>
<text x="1336" y="498" class="small">frmAebDomainStateMsg</text>
  <rect x="30" y="636" width="630" height="180" class="box" fill="#eff6ff"/>
<text x="52" y="672" class="label">Linked ECU bank</text>
<text x="52" y="700" class="small">Primary flow: FLOW_06</text>
<text x="52" y="720" class="small">Support flow count: 2</text>
<rect x="52" y="758" width="188" height="34" rx="14" ry="14" fill="#ffffff" stroke="#bfdbfe" stroke-width="1.2"/>
<text x="146.0" y="780" text-anchor="middle" class="small">ADAS</text>
<rect x="250" y="758" width="188" height="34" rx="14" ry="14" fill="#ffffff" stroke="#bfdbfe" stroke-width="1.2"/>
<text x="344.0" y="780" text-anchor="middle" class="small">CLU</text>
<rect x="448" y="758" width="188" height="34" rx="14" ry="14" fill="#ffffff" stroke="#bfdbfe" stroke-width="1.2"/>
<text x="542.0" y="780" text-anchor="middle" class="small">ESC</text>
  <rect x="680" y="636" width="890" height="156" class="box" fill="#ffffff"/>
<text x="702" y="672" class="label">Contract inventory</text>
<text x="702" y="706" class="small">Published (1)</text>
<text x="702" y="734" class="small">- frmAebDomainStateMsg</text>
<text x="1137" y="706" class="small">Consumed (1)</text>
<text x="1137" y="734" class="small">- frmAdasDomainStateMsg</text>
<line x1="1125" y1="692" x2="1125" y2="774" stroke="#cbd5e1" stroke-width="1.2"/>
  <rect x="30" y="840" width="760" height="286" class="box" fill="#f8fafc"/>
<text x="52" y="876" class="label">Metadata anchors</text>
<text x="52" y="910" class="text">Layer / Group: ADAS / Group 02 ADAS AEB Brake Assist</text>
<text x="52" y="932" class="text"></text>
<text x="52" y="954" class="text">Owner seam</text>
<text x="52" y="976" class="text">- AEB StopReq / DecelProfile /</text>
<text x="52" y="998" class="text">  DomainHealth</text>
<text x="52" y="1020" class="text"></text>
<text x="52" y="1042" class="text">Sysvar hints</text>
<text x="52" y="1064" class="text">- frmAebDomainStateMsg</text>
  <rect x="810" y="840" width="760" height="418" class="box" fill="#ffffff"/>
<text x="832" y="876" class="label">Evidence and reading anchors</text>
<text x="832" y="910" class="text">Direct native tests</text>
<text x="832" y="932" class="text">-</text>
<text x="832" y="954" class="text"></text>
<text x="832" y="976" class="text">Files</text>
<text x="832" y="998" class="text">- canoe/src/capl/ecu/AEB.can</text>
<text x="832" y="1020" class="text">- canoe/cfg/channel_assign/ADAS/AEB.can</text>
<text x="832" y="1042" class="text"></text>
<text x="832" y="1064" class="text">Doc source</text>
<text x="832" y="1086" class="text">- 0301</text>
<text x="832" y="1108" class="text">- 0302</text>
<text x="832" y="1130" class="text">- 0303</text>
<text x="832" y="1152" class="text">- 0304</text>
<text x="832" y="1174" class="text">- 04_SW_Implementation</text>
<text x="832" y="1196" class="text">- ecu-flow-appendix</text>
  <rect x="30" y="1282" width="1540" height="352" class="box" fill="#fff7ed"/>
<text x="52" y="1318" class="label">Review notes and action map</text>
<text x="52" y="1352" class="text">Primary flow: FLOW_06 Object Risk Fusion</text>
<text x="52" y="1374" class="text">Supporting flow: FLOW_07 AEB Decel Intervention</text>
<text x="52" y="1396" class="text">Supporting flow: FLOW_02 Brake Stability Response</text>
<text x="52" y="1418" class="text"></text>
<text x="52" y="1440" class="text">This is the most likely producer of stepped brake feel across ESC, EHB, and VSM.</text>
<text x="52" y="1462" class="text"></text>
<text x="52" y="1484" class="text">One AEB profile change can appear as multiple simultaneous chassis ECU reactions.</text>
<text x="52" y="1506" class="text"></text>
<text x="52" y="1528" class="text">Owner seam preview</text>
<text x="52" y="1550" class="text">AEB StopReq / DecelProfile /</text>
<text x="52" y="1572" class="text">DomainHealth</text>
</svg>
