<svg xmlns="http://www.w3.org/2000/svg" width="1600" height="1498" viewBox="0 0 1600 1498">
  <defs>
    <linearGradient id="heroGradient" x1="0%" y1="0%" x2="100%" y2="100%">
      <stop offset="0%" stop-color="#fce7f3"/>
      <stop offset="100%" stop-color="#ffffff"/>
    </linearGradient>
    <marker id="arrow" viewBox="0 0 10 10" refX="9" refY="5" markerWidth="8" markerHeight="8" orient="auto-start-reverse">
      <path d="M 0 0 L 10 5 L 0 10 z" fill="#475569"/>
    </marker>
  </defs>
  <style>
    .bg { fill: #f7f7f5; }
    .title { font: 700 32px 'Segoe UI', sans-serif; fill: #0f172a; }
    .sub { font: 500 15px 'Segoe UI', sans-serif; fill: #475569; }
    .label { font: 700 18px 'Segoe UI', sans-serif; fill: #0f172a; }
    .text { font: 600 15px 'Segoe UI', sans-serif; fill: #1f2937; }
    .small { font: 500 13px 'Segoe UI', sans-serif; fill: #475569; }
    .node { font: 700 18px 'Segoe UI', sans-serif; fill: #111827; }
    .box { rx: 22; ry: 22; stroke: #334155; stroke-width: 1.6; }
    .lane { stroke: #64748b; stroke-width: 3; fill: none; marker-end: url(#arrow); }
  </style>
  <rect x="0" y="0" width="1600" height="1498" class="bg"/>
  <text x="34" y="44" class="title">ECU Overview - CGW</text>
  <text x="34" y="72" class="sub">p1 | overview, action rail, signal path, and domain footprint</text>
  <rect x="30" y="100" width="1540" height="252" class="box" fill="url(#heroGradient)"/>
<text x="52" y="134" class="small">Overview | p1</text>
<text x="52" y="172" class="title">CGW</text>
<text x="52" y="204" class="text">Group 06 Backbone Gateway Diagnostics | ETH_Backbone</text>
<text x="52" y="224" class="text"></text>
<text x="52" y="244" class="text">Cross-domain gate control</text>
<text x="52" y="264" class="text"></text>
<text x="52" y="284" class="text">Primary action flow</text>
<text x="52" y="304" class="text">Backbone diagnostic routing</text>
<rect x="940" y="134" width="250" height="82" rx="18" ry="18" fill="#ffffff" stroke="#cbd5e1" stroke-width="1.2"/>
<text x="958" y="162" class="small">Inbound</text>
<text x="958" y="192" class="node">5</text>
<rect x="1204" y="134" width="250" height="82" rx="18" ry="18" fill="#ffffff" stroke="#cbd5e1" stroke-width="1.2"/>
<text x="1222" y="162" class="small">Outbound</text>
<text x="1222" y="192" class="node">0</text>
<rect x="940" y="228" width="250" height="82" rx="18" ry="18" fill="#ffffff" stroke="#cbd5e1" stroke-width="1.2"/>
<text x="958" y="256" class="small">Domains</text>
<text x="958" y="286" class="node">3</text>
<rect x="1204" y="228" width="250" height="82" rx="18" ry="18" fill="#ffffff" stroke="#cbd5e1" stroke-width="1.2"/>
<text x="1222" y="256" class="small">Runtime</text>
<text x="1222" y="286" class="node">Gate</text>
  <rect x="30" y="376" width="1540" height="196" class="box" fill="#ffffff"/>
<text x="52" y="412" class="label">ECU metadata</text>
<rect x="52" y="430" width="741" height="120" rx="18" ry="18" fill="#ffffff" stroke="#cbd5e1" stroke-width="1.2"/>
<text x="70" y="458" class="small">Key seam</text>
<text x="70" y="482" class="text">Alert Gate Reason</text>
<text x="70" y="504" class="small">CoreState::selectedAlertGateReason</text>
<rect x="807" y="430" width="741" height="120" rx="18" ry="18" fill="#fff7ed" stroke="#cbd5e1" stroke-width="1.2"/>
<text x="825" y="458" class="small">Risk focus</text>
<text x="825" y="484" class="small">Downstream display behavior</text>
<text x="825" y="502" class="small">depends heavily on gate</text>
<text x="825" y="520" class="small">reason consistency.</text>
  <rect x="30" y="596" width="1540" height="320" class="box" fill="#ffffff"/>
<text x="52" y="632" class="label">Action rail</text>
<rect x="52" y="662" width="484" height="232" rx="20" ry="20" fill="#e0f2fe" stroke="#bfdbfe" stroke-width="1.6"/>
<text x="70" y="692" class="small">Inbound</text>
<text x="70" y="720" class="text">5 upstream actor / 5 reads</text>
<rect x="70" y="766" width="218" height="52" rx="14" ry="14" fill="#ffffff" stroke="#cbd5e1" stroke-width="1.2"/>
<text x="179.0" y="784" text-anchor="middle" class="small">ACU</text>
<rect x="300" y="766" width="218" height="52" rx="14" ry="14" fill="#ffffff" stroke="#cbd5e1" stroke-width="1.2"/>
<text x="409.0" y="784" text-anchor="middle" class="small">BCM</text>
<rect x="70" y="830" width="218" height="52" rx="14" ry="14" fill="#ffffff" stroke="#cbd5e1" stroke-width="1.2"/>
<text x="179.0" y="848" text-anchor="middle" class="small">ESC</text>
<rect x="300" y="830" width="218" height="52" rx="14" ry="14" fill="#ffffff" stroke="#cbd5e1" stroke-width="1.2"/>
<text x="409.0" y="848" text-anchor="middle" class="small">IVI</text>
<rect x="558" y="662" width="484" height="232" rx="20" ry="20" fill="#dcfce7" stroke="#86efac" stroke-width="1.6"/>
<text x="576" y="692" class="small">ECU Core</text>
<text x="576" y="720" class="text">Backbone diagnostic routing</text>
<rect x="576" y="766" width="218" height="52" rx="14" ry="14" fill="#ffffff" stroke="#cbd5e1" stroke-width="1.2"/>
<text x="685.0" y="784" text-anchor="middle" class="small">Cross-domain gate</text>
<text x="685.0" y="799" text-anchor="middle" class="small">control</text>
<rect x="806" y="766" width="218" height="52" rx="14" ry="14" fill="#ffffff" stroke="#cbd5e1" stroke-width="1.2"/>
<text x="915.0" y="784" text-anchor="middle" class="small">Alert Gate Reason</text>
<rect x="576" y="830" width="218" height="52" rx="14" ry="14" fill="#ffffff" stroke="#cbd5e1" stroke-width="1.2"/>
<text x="685.0" y="848" text-anchor="middle" class="small">UT_CORE_001_CGW</text>
<text x="685.0" y="863" text-anchor="middle" class="small">covers backbone diagnos…</text>
<rect x="1064" y="662" width="484" height="232" rx="20" ry="20" fill="#dbeafe" stroke="#93c5fd" stroke-width="1.6"/>
<text x="1082" y="692" class="small">Outbound</text>
<text x="1082" y="720" class="text">0 downstream actor / 0</text>
<text x="1082" y="740" class="text">writes</text>
<rect x="1082" y="766" width="218" height="52" rx="14" ry="14" fill="#ffffff" stroke="#cbd5e1" stroke-width="1.2"/>
<text x="1191.0" y="784" text-anchor="middle" class="small">-</text>
<line x1="536" y1="778.0" x2="558" y2="778.0" class="lane"/>
<line x1="1042" y1="778.0" x2="1064" y2="778.0" class="lane"/>
  <rect x="30" y="940" width="1540" height="226" class="box" fill="#eff6ff"/>
<text x="52" y="976" class="label">Signal path</text>
<rect x="58" y="1022" width="220" height="58" rx="16" ry="16" fill="#ffffff" stroke="#93c5fd" stroke-width="1.5"/>
<text x="76" y="1056" class="node">ACU</text>
<rect x="690" y="1022" width="220" height="58" rx="16" ry="16" fill="#dcfce7" stroke="#86efac" stroke-width="1.5"/>
<text x="800" y="1056" text-anchor="middle" class="node">CGW</text>
<line x1="278" y1="1051" x2="690" y2="1051" class="lane"/>
<rect x="304" y="1023" width="160" height="56" rx="12" ry="12" fill="#ffffff" stroke="#cbd5e1" stroke-width="1.1"/>
<text x="384.0" y="1039" text-anchor="middle" class="small">ACU State</text>
<text x="384.0" y="1055" text-anchor="middle" class="small">frmAcuStateMsg</text>
<text x="52" y="1120" class="small">Path · ACU -&gt; CGW</text>
  <rect x="30" y="1190" width="1540" height="258" class="box" fill="#eff6ff"/>
<text x="52" y="1226" class="label">Domain footprint</text>
<rect x="52" y="1256" width="486" height="170" rx="20" ry="20" fill="#e0f2fe" stroke="#bfdbfe" stroke-width="1.4"/>
<text x="70" y="1284" class="small">Upstream domains</text>
<text x="70" y="1312" class="node">5</text>
<text x="140" y="1312" class="small">upstream ECU</text>
<rect x="70" y="1330" width="220" height="34" rx="14" ry="14" fill="#ffffff" stroke="#cbd5e1" stroke-width="1.1"/>
<text x="180.0" y="1352" text-anchor="middle" class="small">Chassis · 3</text>
<rect x="300" y="1330" width="220" height="34" rx="14" ry="14" fill="#ffffff" stroke="#cbd5e1" stroke-width="1.1"/>
<text x="410.0" y="1352" text-anchor="middle" class="small">Body · 1</text>
<rect x="70" y="1374" width="220" height="34" rx="14" ry="14" fill="#ffffff" stroke="#cbd5e1" stroke-width="1.1"/>
<text x="180.0" y="1396" text-anchor="middle" class="small">Infotainment · 1</text>
<rect x="556" y="1256" width="486" height="170" rx="20" ry="20" fill="#f8fafc" stroke="#cbd5e1" stroke-width="1.4"/>
<text x="574" y="1284" class="small">Linked domains</text>
<text x="574" y="1312" class="node">5</text>
<text x="644" y="1312" class="small">linked ECU</text>
<rect x="574" y="1330" width="220" height="34" rx="14" ry="14" fill="#ffffff" stroke="#cbd5e1" stroke-width="1.1"/>
<text x="684.0" y="1352" text-anchor="middle" class="small">Chassis · 3</text>
<rect x="804" y="1330" width="220" height="34" rx="14" ry="14" fill="#ffffff" stroke="#cbd5e1" stroke-width="1.1"/>
<text x="914.0" y="1352" text-anchor="middle" class="small">Body · 1</text>
<rect x="574" y="1374" width="220" height="34" rx="14" ry="14" fill="#ffffff" stroke="#cbd5e1" stroke-width="1.1"/>
<text x="684.0" y="1396" text-anchor="middle" class="small">Infotainment · 1</text>
<rect x="1060" y="1256" width="486" height="170" rx="20" ry="20" fill="#dbeafe" stroke="#93c5fd" stroke-width="1.4"/>
<text x="1078" y="1284" class="small">Downstream domains</text>
<text x="1078" y="1312" class="node">0</text>
<text x="1148" y="1312" class="small">downstream ECU</text>
<rect x="1078" y="1330" width="220" height="34" rx="14" ry="14" fill="#ffffff" stroke="#cbd5e1" stroke-width="1.1"/>
<text x="1188.0" y="1352" text-anchor="middle" class="small">-</text>
<line x1="538" y1="1341.0" x2="556" y2="1341.0" class="lane"/>
<line x1="1042" y1="1341.0" x2="1060" y2="1341.0" class="lane"/>
</svg>
